<?xml version="1.0" encoding="UTF-8" standalone="no"?>
<!DOCTYPE svg PUBLIC "-//W3C//DTD SVG 1.1//EN"
 "http://www.w3.org/Graphics/SVG/1.1/DTD/svg11.dtd">
<!-- Generated by graphviz version 2.29.20110702.0445 (20110702.0445)
 -->
<!-- Title: home Pages: 1 -->
<svg width="287pt" height="289pt"
 viewBox="0.00 0.00 287.42 289.00" xmlns="http://www.w3.org/2000/svg" xmlns:xlink="http://www.w3.org/1999/xlink">
<g id="graph1" class="graph" transform="scale(1 1) rotate(0) translate(4 285)">
<title>home</title>
<polygon fill="white" stroke="white" points="-4,5 -4,-285 284.42,-285 284.42,5 -4,5"/>
<g id="graph2" class="cluster"><title>clustercontextKey</title>
<polygon fill="ghostwhite" stroke="white" points="8,-219 8,-273 96,-273 96,-219 8,-219"/>
<text text-anchor="middle" x="52.1792" y="-255" font-family="Helvetica,sans-Serif" font-size="14.00">Parameters</text>
</g>
<g id="graph3" class="cluster"><title>clusterhomeKey</title>
<polygon fill="ghostwhite" stroke="white" points="104,-219 104,-273 157,-273 157,-219 104,-219"/>
<text text-anchor="middle" x="130.672" y="-255" font-family="Helvetica,sans-Serif" font-size="14.00">Home</text>
</g>
<!-- contextOverview -->
<g id="node2" class="node"><title>contextOverview</title>
<ellipse fill="black" stroke="black" cx="52" cy="-234" rx="7.2" ry="7.2"/>
</g>
<!-- intializeNonFrameworkOverview -->
<g id="node4" class="node"><title>intializeNonFrameworkOverview</title>
<a xlink:href="home__Overview.svg">
<ellipse fill="#cc1414" stroke="#cc1414" cx="129" cy="-234" rx="7.2" ry="7.2"/>
</a>
</g>
<!-- intializeNonFramework -->
<g id="node5" class="node"><title>intializeNonFramework</title>
<a xlink:href="home_intializeNonFramework.svg" xlink:title="Initialize">
<polygon fill="#ffcccc" stroke="#ffcccc" points="218.937,-252 177.063,-252 165.063,-240 165.063,-228 177.063,-216 218.937,-216 230.937,-228 230.937,-240 218.937,-252"/>
<path fill="#ffcccc" stroke="#ffcccc" d="M177.063,-252C171.063,-252 165.063,-246 165.063,-240"/>
<path fill="#ffcccc" stroke="#ffcccc" d="M165.063,-228C165.063,-222 171.063,-216 177.063,-216"/>
<path fill="#ffcccc" stroke="#ffcccc" d="M218.937,-216C224.937,-216 230.937,-222 230.937,-228"/>
<path fill="#ffcccc" stroke="#ffcccc" d="M230.937,-240C230.937,-246 224.937,-252 218.937,-252"/>
<polyline fill="none" stroke="black" points="218.937,-252 177.063,-252 "/>
<path fill="none" stroke="black" d="M177.063,-252C171.063,-252 165.063,-246 165.063,-240"/>
<polyline fill="none" stroke="black" points="165.063,-240 165.063,-228 "/>
<path fill="none" stroke="black" d="M165.063,-228C165.063,-222 171.063,-216 177.063,-216"/>
<polyline fill="none" stroke="black" points="177.063,-216 218.937,-216 "/>
<path fill="none" stroke="black" d="M218.937,-216C224.937,-216 230.937,-222 230.937,-228"/>
<polyline fill="none" stroke="black" points="230.937,-228 230.937,-240 "/>
<path fill="none" stroke="black" d="M230.937,-240C230.937,-246 224.937,-252 218.937,-252"/>
<text text-anchor="middle" x="198" y="-228.4" font-family="Helvetica,sans-Serif" font-size="14.00">Initialize</text>
</a>
</g>
<!-- home -->
<g id="node7" class="node"><title>home</title>
<polygon fill="#ffe2cc" stroke="#ffe2cc" points="245,-180 215,-180 203,-168 203,-156 215,-144 245,-144 257,-156 257,-168 245,-180"/>
<path fill="#ffe2cc" stroke="#ffe2cc" d="M215,-180C209,-180 203,-174 203,-168"/>
<path fill="#ffe2cc" stroke="#ffe2cc" d="M203,-156C203,-150 209,-144 215,-144"/>
<path fill="#ffe2cc" stroke="#ffe2cc" d="M245,-144C251,-144 257,-150 257,-156"/>
<path fill="#ffe2cc" stroke="#ffe2cc" d="M257,-168C257,-174 251,-180 245,-180"/>
<polyline fill="none" stroke="gray" points="245,-180 215,-180 "/>
<path fill="none" stroke="gray" d="M215,-180C209,-180 203,-174 203,-168"/>
<polyline fill="none" stroke="gray" points="203,-168 203,-156 "/>
<path fill="none" stroke="gray" d="M203,-156C203,-150 209,-144 215,-144"/>
<polyline fill="none" stroke="gray" points="215,-144 245,-144 "/>
<path fill="none" stroke="gray" d="M245,-144C251,-144 257,-150 257,-156"/>
<polyline fill="none" stroke="gray" points="257,-156 257,-168 "/>
<path fill="none" stroke="gray" d="M257,-168C257,-174 251,-180 245,-180"/>
<text text-anchor="middle" x="230" y="-156.4" font-family="Helvetica,sans-Serif" font-size="14.00">Home</text>
</g>
<!-- intializeNonFramework&#45;&gt;home -->
<g id="edge4" class="edge"><title>intializeNonFramework&#45;&gt;home</title>
<path fill="none" stroke="#cc1414" stroke-width="3" d="M205.91,-215.697C208.313,-210.441 211.046,-204.463 213.787,-198.467"/>
<polygon fill="#cc1414" stroke="#cc1414" points="220.232,-201.204 222.181,-180.104 207.499,-195.383 220.232,-201.204"/>
</g>
<!-- moveHome -->
<g id="node10" class="node"><title>moveHome</title>
<polygon fill="#ffcccc" stroke="#ffcccc" points="245,-36 215,-36 203,-24 203,-12 215,-0 245,-0 257,-12 257,-24 245,-36"/>
<path fill="#ffcccc" stroke="#ffcccc" d="M215,-36C209,-36 203,-30 203,-24"/>
<path fill="#ffcccc" stroke="#ffcccc" d="M203,-12C203,-6 209,-0 215,-0"/>
<path fill="#ffcccc" stroke="#ffcccc" d="M245,-0C251,-0 257,-6 257,-12"/>
<path fill="#ffcccc" stroke="#ffcccc" d="M257,-24C257,-30 251,-36 245,-36"/>
<polyline fill="none" stroke="#ffcccc" points="245,-36 215,-36 "/>
<path fill="none" stroke="#ffcccc" d="M215,-36C209,-36 203,-30 203,-24"/>
<polyline fill="none" stroke="#ffcccc" points="203,-24 203,-12 "/>
<path fill="none" stroke="#ffcccc" d="M203,-12C203,-6 209,-0 215,-0"/>
<polyline fill="none" stroke="#ffcccc" points="215,-0 245,-0 "/>
<path fill="none" stroke="#ffcccc" d="M245,-0C251,-0 257,-6 257,-12"/>
<polyline fill="none" stroke="#ffcccc" points="257,-12 257,-24 "/>
<path fill="none" stroke="#ffcccc" d="M257,-24C257,-30 251,-36 245,-36"/>
<text text-anchor="middle" x="230" y="-12.4" font-family="Helvetica,sans-Serif" font-size="14.00">Move</text>
</g>
<!-- intializeNonFramework&#45;&gt;moveHome -->
<g id="edge8" class="edge"><title>intializeNonFramework&#45;&gt;moveHome:nw</title>
<path fill="none" stroke="#cc1414" stroke-width="3" stroke-dasharray="5,2" d="M192.207,-215.542C183.154,-185.398 168.329,-122.014 185,-72 188.656,-61.0308 192.383,-55.4393 197.608,-49.941"/>
<polygon fill="#cc1414" stroke="#cc1414" points="202.505,-54.9433 212,-36 192.764,-44.8876 202.505,-54.9433"/>
</g>
<!-- availableQuery -->
<g id="node8" class="node"><title>availableQuery</title>
<polygon fill="#ffe2cc" stroke="#ffe2cc" points="253.928,-108 206.072,-108 194.072,-96 194.072,-84 206.072,-72 253.928,-72 265.928,-84 265.928,-96 253.928,-108"/>
<path fill="#ffe2cc" stroke="#ffe2cc" d="M206.072,-108C200.072,-108 194.072,-102 194.072,-96"/>
<path fill="#ffe2cc" stroke="#ffe2cc" d="M194.072,-84C194.072,-78 200.072,-72 206.072,-72"/>
<path fill="#ffe2cc" stroke="#ffe2cc" d="M253.928,-72C259.928,-72 265.928,-78 265.928,-84"/>
<path fill="#ffe2cc" stroke="#ffe2cc" d="M265.928,-96C265.928,-102 259.928,-108 253.928,-108"/>
<polyline fill="none" stroke="#ffe2cc" points="253.928,-108 206.072,-108 "/>
<path fill="none" stroke="#ffe2cc" d="M206.072,-108C200.072,-108 194.072,-102 194.072,-96"/>
<polyline fill="none" stroke="#ffe2cc" points="194.072,-96 194.072,-84 "/>
<path fill="none" stroke="#ffe2cc" d="M194.072,-84C194.072,-78 200.072,-72 206.072,-72"/>
<polyline fill="none" stroke="#ffe2cc" points="206.072,-72 253.928,-72 "/>
<path fill="none" stroke="#ffe2cc" d="M253.928,-72C259.928,-72 265.928,-78 265.928,-84"/>
<polyline fill="none" stroke="#ffe2cc" points="265.928,-84 265.928,-96 "/>
<path fill="none" stroke="#ffe2cc" d="M265.928,-96C265.928,-102 259.928,-108 253.928,-108"/>
<text text-anchor="middle" x="230" y="-84.4" font-family="Helvetica,sans-Serif" font-size="14.00">Available</text>
</g>
<!-- home&#45;&gt;availableQuery -->
<g id="edge12" class="edge"><title>home&#45;&gt;availableQuery</title>
<path fill="none" stroke="#cc6514" stroke-width="3" d="M230,-143.697C230,-138.95 230,-133.613 230,-128.206"/>
<polygon fill="#cc6514" stroke="#cc6514" points="237,-128.104 230,-108.104 223,-128.104 237,-128.104"/>
</g>
<!-- home&#45;&gt;moveHome -->
<g id="edge10" class="edge"><title>home&#45;&gt;moveHome:ne</title>
<path fill="none" stroke="#cc6514" stroke-width="3" stroke-dasharray="5,2" d="M250.379,-143.531C259.807,-134.092 270.006,-121.597 275,-108 284.251,-82.8115 277.228,-67.6886 262.086,-50.6562"/>
<polygon fill="#cc6514" stroke="#cc6514" points="266.906,-45.5691 248,-36 256.812,-55.2704 266.906,-45.5691"/>
</g>
<!-- availableQuery&#45;&gt;moveHome -->
<g id="edge6" class="edge"><title>availableQuery&#45;&gt;moveHome</title>
<path fill="none" stroke="#cc6514" stroke-width="3" d="M230,-71.6966C230,-66.9496 230,-61.6132 230,-56.2063"/>
<polygon fill="#cc6514" stroke="#cc6514" points="237,-56.1043 230,-36.1043 223,-56.1044 237,-56.1043"/>
</g>
</g>
</svg>
