<?xml version="1.0" encoding="UTF-8" standalone="no"?>
<!DOCTYPE svg PUBLIC "-//W3C//DTD SVG 1.1//EN"
 "http://www.w3.org/Graphics/SVG/1.1/DTD/svg11.dtd">
<!-- Generated by graphviz version 2.29.20110702.0445 (20110702.0445)
 -->
<!-- Title: learner Pages: 1 -->
<svg width="691pt" height="289pt"
 viewBox="0.00 0.00 691.00 289.00" xmlns="http://www.w3.org/2000/svg" xmlns:xlink="http://www.w3.org/1999/xlink">
<g id="graph1" class="graph" transform="scale(1 1) rotate(0) translate(4 285)">
<title>learner</title>
<polygon fill="white" stroke="white" points="-4,5 -4,-285 688,-285 688,5 -4,5"/>
<g id="graph2" class="cluster"><title>clustercontextKey</title>
<polygon fill="ghostwhite" stroke="white" points="8,-219 8,-273 96,-273 96,-219 8,-219"/>
<text text-anchor="middle" x="52.1792" y="-255" font-family="Helvetica,sans-Serif" font-size="14.00">Parameters</text>
</g>
<g id="graph3" class="cluster"><title>clusterlearnerKey</title>
<polygon fill="ghostwhite" stroke="white" points="104,-147 104,-273 168,-273 168,-147 104,-147"/>
<text text-anchor="middle" x="136.127" y="-255" font-family="Helvetica,sans-Serif" font-size="14.00">Learner</text>
</g>
<!-- contextOverview -->
<g id="node2" class="node"><title>contextOverview</title>
<ellipse fill="black" stroke="black" cx="52" cy="-234" rx="7.2" ry="7.2"/>
</g>
<!-- initializeLocationOverview -->
<g id="node4" class="node"><title>initializeLocationOverview</title>
<a xlink:href="learner__Overview.svg">
<ellipse fill="#70cc14" stroke="#70cc14" cx="135" cy="-234" rx="7.2" ry="7.2"/>
</a>
</g>
<!-- initializeStateOverview -->
<g id="node5" class="node"><title>initializeStateOverview</title>
<a xlink:href="learner__Overview.svg">
<ellipse fill="#14cc42" stroke="#14cc42" cx="135" cy="-162" rx="7.2" ry="7.2"/>
</a>
</g>
<!-- initializeLocationOverview&#45;&gt;initializeStateOverview -->
<!-- initializeLocation -->
<g id="node7" class="node"><title>initializeLocation</title>
<a xlink:href="learner_initializeLocation.svg" xlink:title="Initialize Location">
<polygon fill="#e5ffcc" stroke="#e5ffcc" points="293.549,-252 194.451,-252 182.451,-240 182.451,-228 194.451,-216 293.549,-216 305.549,-228 305.549,-240 293.549,-252"/>
<path fill="#e5ffcc" stroke="#e5ffcc" d="M194.451,-252C188.451,-252 182.451,-246 182.451,-240"/>
<path fill="#e5ffcc" stroke="#e5ffcc" d="M182.451,-228C182.451,-222 188.451,-216 194.451,-216"/>
<path fill="#e5ffcc" stroke="#e5ffcc" d="M293.549,-216C299.549,-216 305.549,-222 305.549,-228"/>
<path fill="#e5ffcc" stroke="#e5ffcc" d="M305.549,-240C305.549,-246 299.549,-252 293.549,-252"/>
<polyline fill="none" stroke="black" points="293.549,-252 194.451,-252 "/>
<path fill="none" stroke="black" d="M194.451,-252C188.451,-252 182.451,-246 182.451,-240"/>
<polyline fill="none" stroke="black" points="182.451,-240 182.451,-228 "/>
<path fill="none" stroke="black" d="M182.451,-228C182.451,-222 188.451,-216 194.451,-216"/>
<polyline fill="none" stroke="black" points="194.451,-216 293.549,-216 "/>
<path fill="none" stroke="black" d="M293.549,-216C299.549,-216 305.549,-222 305.549,-228"/>
<polyline fill="none" stroke="black" points="305.549,-228 305.549,-240 "/>
<path fill="none" stroke="black" d="M305.549,-240C305.549,-246 299.549,-252 293.549,-252"/>
<text text-anchor="middle" x="244" y="-228.4" font-family="Helvetica,sans-Serif" font-size="14.00">Initialize Location</text>
</a>
</g>
<!-- learner -->
<g id="node9" class="node"><title>learner</title>
<polygon fill="#ceffcc" stroke="#ceffcc" points="270.191,-180 229.809,-180 217.809,-168 217.809,-156 229.809,-144 270.191,-144 282.191,-156 282.191,-168 270.191,-180"/>
<path fill="#ceffcc" stroke="#ceffcc" d="M229.809,-180C223.809,-180 217.809,-174 217.809,-168"/>
<path fill="#ceffcc" stroke="#ceffcc" d="M217.809,-156C217.809,-150 223.809,-144 229.809,-144"/>
<path fill="#ceffcc" stroke="#ceffcc" d="M270.191,-144C276.191,-144 282.191,-150 282.191,-156"/>
<path fill="#ceffcc" stroke="#ceffcc" d="M282.191,-168C282.191,-174 276.191,-180 270.191,-180"/>
<polyline fill="none" stroke="gray" points="270.191,-180 229.809,-180 "/>
<path fill="none" stroke="gray" d="M229.809,-180C223.809,-180 217.809,-174 217.809,-168"/>
<polyline fill="none" stroke="gray" points="217.809,-168 217.809,-156 "/>
<path fill="none" stroke="gray" d="M217.809,-156C217.809,-150 223.809,-144 229.809,-144"/>
<polyline fill="none" stroke="gray" points="229.809,-144 270.191,-144 "/>
<path fill="none" stroke="gray" d="M270.191,-144C276.191,-144 282.191,-150 282.191,-156"/>
<polyline fill="none" stroke="gray" points="282.191,-156 282.191,-168 "/>
<path fill="none" stroke="gray" d="M282.191,-168C282.191,-174 276.191,-180 270.191,-180"/>
<text text-anchor="middle" x="250" y="-156.4" font-family="Helvetica,sans-Serif" font-size="14.00">Learner</text>
</g>
<!-- initializeLocation&#45;&gt;learner -->
<g id="edge6" class="edge"><title>initializeLocation&#45;&gt;learner</title>
<path fill="none" stroke="#70cc14" stroke-width="3" d="M245.483,-215.697C245.89,-210.95 246.347,-205.613 246.811,-200.206"/>
<polygon fill="#70cc14" stroke="#70cc14" points="253.8,-200.629 248.534,-180.104 239.851,-199.433 253.8,-200.629"/>
</g>
<!-- moveLearner -->
<g id="node13" class="node"><title>moveLearner</title>
<polygon fill="#e5ffcc" stroke="#e5ffcc" points="265,-36 235,-36 223,-24 223,-12 235,-0 265,-0 277,-12 277,-24 265,-36"/>
<path fill="#e5ffcc" stroke="#e5ffcc" d="M235,-36C229,-36 223,-30 223,-24"/>
<path fill="#e5ffcc" stroke="#e5ffcc" d="M223,-12C223,-6 229,-0 235,-0"/>
<path fill="#e5ffcc" stroke="#e5ffcc" d="M265,-0C271,-0 277,-6 277,-12"/>
<path fill="#e5ffcc" stroke="#e5ffcc" d="M277,-24C277,-30 271,-36 265,-36"/>
<polyline fill="none" stroke="#e5ffcc" points="265,-36 235,-36 "/>
<path fill="none" stroke="#e5ffcc" d="M235,-36C229,-36 223,-30 223,-24"/>
<polyline fill="none" stroke="#e5ffcc" points="223,-24 223,-12 "/>
<path fill="none" stroke="#e5ffcc" d="M223,-12C223,-6 229,-0 235,-0"/>
<polyline fill="none" stroke="#e5ffcc" points="235,-0 265,-0 "/>
<path fill="none" stroke="#e5ffcc" d="M265,-0C271,-0 277,-6 277,-12"/>
<polyline fill="none" stroke="#e5ffcc" points="277,-12 277,-24 "/>
<path fill="none" stroke="#e5ffcc" d="M277,-24C277,-30 271,-36 265,-36"/>
<text text-anchor="middle" x="250" y="-12.4" font-family="Helvetica,sans-Serif" font-size="14.00">Move</text>
</g>
<!-- initializeLocation&#45;&gt;moveLearner -->
<g id="edge12" class="edge"><title>initializeLocation&#45;&gt;moveLearner:nw</title>
<path fill="none" stroke="#70cc14" stroke-width="3" stroke-dasharray="5,2" d="M229.106,-215.612C221.641,-205.821 213.295,-192.981 209,-180 190.906,-125.32 186.943,-90.2954 218.448,-51.0114"/>
<polygon fill="#70cc14" stroke="#70cc14" points="223.794,-55.5361 232,-36 213.402,-46.1545 223.794,-55.5361"/>
</g>
<!-- availableQuery -->
<g id="node11" class="node"><title>availableQuery</title>
<polygon fill="#ceffcc" stroke="#ceffcc" points="273.928,-108 226.072,-108 214.072,-96 214.072,-84 226.072,-72 273.928,-72 285.928,-84 285.928,-96 273.928,-108"/>
<path fill="#ceffcc" stroke="#ceffcc" d="M226.072,-108C220.072,-108 214.072,-102 214.072,-96"/>
<path fill="#ceffcc" stroke="#ceffcc" d="M214.072,-84C214.072,-78 220.072,-72 226.072,-72"/>
<path fill="#ceffcc" stroke="#ceffcc" d="M273.928,-72C279.928,-72 285.928,-78 285.928,-84"/>
<path fill="#ceffcc" stroke="#ceffcc" d="M285.928,-96C285.928,-102 279.928,-108 273.928,-108"/>
<polyline fill="none" stroke="#ceffcc" points="273.928,-108 226.072,-108 "/>
<path fill="none" stroke="#ceffcc" d="M226.072,-108C220.072,-108 214.072,-102 214.072,-96"/>
<polyline fill="none" stroke="#ceffcc" points="214.072,-96 214.072,-84 "/>
<path fill="none" stroke="#ceffcc" d="M214.072,-84C214.072,-78 220.072,-72 226.072,-72"/>
<polyline fill="none" stroke="#ceffcc" points="226.072,-72 273.928,-72 "/>
<path fill="none" stroke="#ceffcc" d="M273.928,-72C279.928,-72 285.928,-78 285.928,-84"/>
<polyline fill="none" stroke="#ceffcc" points="285.928,-84 285.928,-96 "/>
<path fill="none" stroke="#ceffcc" d="M285.928,-96C285.928,-102 279.928,-108 273.928,-108"/>
<text text-anchor="middle" x="250" y="-84.4" font-family="Helvetica,sans-Serif" font-size="14.00">Available</text>
</g>
<!-- learner&#45;&gt;availableQuery -->
<g id="edge8" class="edge"><title>learner&#45;&gt;availableQuery</title>
<path fill="none" stroke="#1ecc14" stroke-width="3" d="M250,-143.697C250,-138.95 250,-133.613 250,-128.206"/>
<polygon fill="#1ecc14" stroke="#1ecc14" points="257,-128.104 250,-108.104 243,-128.104 257,-128.104"/>
</g>
<!-- learner&#45;&gt;moveLearner -->
<g id="edge14" class="edge"><title>learner&#45;&gt;moveLearner:ne</title>
<path fill="none" stroke="#1ecc14" stroke-width="3" stroke-dasharray="5,2" d="M270.379,-143.531C279.807,-134.092 290.006,-121.597 295,-108 304.251,-82.8115 297.228,-67.6886 282.086,-50.6562"/>
<polygon fill="#1ecc14" stroke="#1ecc14" points="286.906,-45.5691 268,-36 276.812,-55.2704 286.906,-45.5691"/>
</g>
<!-- availableQuery&#45;&gt;moveLearner -->
<g id="edge10" class="edge"><title>availableQuery&#45;&gt;moveLearner</title>
<path fill="none" stroke="#1ecc14" stroke-width="3" d="M250,-71.6966C250,-66.9496 250,-61.6132 250,-56.2063"/>
<polygon fill="#1ecc14" stroke="#1ecc14" points="257,-56.1043 250,-36.1043 243,-56.1044 257,-56.1043"/>
</g>
<!-- simpleResourcesnextLearnerID -->
<g id="node16" class="node"><title>simpleResourcesnextLearnerID</title>
<polygon fill="white" stroke="white" points="425.25,-180 310.75,-180 310.75,-144 425.25,-144 425.25,-180"/>
<text text-anchor="start" x="319" y="-156.5" font-family="Helvetica,sans-Serif" font-size="14.00">Next Learner ID</text>
</g>
<!-- incrementNextLearnerID -->
<g id="node25" class="node"><title>incrementNextLearnerID</title>
<polygon fill="#ccffd8" stroke="#ccffd8" points="408.186,-108 353.814,-108 341.814,-96 341.814,-84 353.814,-72 408.186,-72 420.186,-84 420.186,-96 408.186,-108"/>
<path fill="#ccffd8" stroke="#ccffd8" d="M353.814,-108C347.814,-108 341.814,-102 341.814,-96"/>
<path fill="#ccffd8" stroke="#ccffd8" d="M341.814,-84C341.814,-78 347.814,-72 353.814,-72"/>
<path fill="#ccffd8" stroke="#ccffd8" d="M408.186,-72C414.186,-72 420.186,-78 420.186,-84"/>
<path fill="#ccffd8" stroke="#ccffd8" d="M420.186,-96C420.186,-102 414.186,-108 408.186,-108"/>
<polyline fill="none" stroke="#ccffd8" points="408.186,-108 353.814,-108 "/>
<path fill="none" stroke="#ccffd8" d="M353.814,-108C347.814,-108 341.814,-102 341.814,-96"/>
<polyline fill="none" stroke="#ccffd8" points="341.814,-96 341.814,-84 "/>
<path fill="none" stroke="#ccffd8" d="M341.814,-84C341.814,-78 347.814,-72 353.814,-72"/>
<polyline fill="none" stroke="#ccffd8" points="353.814,-72 408.186,-72 "/>
<path fill="none" stroke="#ccffd8" d="M408.186,-72C414.186,-72 420.186,-78 420.186,-84"/>
<polyline fill="none" stroke="#ccffd8" points="420.186,-84 420.186,-96 "/>
<path fill="none" stroke="#ccffd8" d="M420.186,-96C420.186,-102 414.186,-108 408.186,-108"/>
<text text-anchor="middle" x="381" y="-84.4" font-family="Helvetica,sans-Serif" font-size="14.00">Increment</text>
</g>
<!-- simpleResourcesnextLearnerID&#45;&gt;incrementNextLearnerID -->
<g id="edge28" class="edge"><title>simpleResourcesnextLearnerID&#45;&gt;incrementNextLearnerID:nw</title>
<path fill="none" stroke="black" stroke-width="2" stroke-dasharray="1,5" d="M360.215,-143.851C357.081,-134.704 354.959,-123.552 358.544,-114.748"/>
<ellipse fill="black" stroke="black" cx="360.796" cy="-111.338" rx="4.00002" ry="4.00002"/>
</g>
<!-- learnerlearningInterest -->
<g id="node17" class="node"><title>learnerlearningInterest</title>
<polygon fill="white" stroke="white" points="559.301,-108 438.699,-108 438.699,-72 559.301,-72 559.301,-108"/>
<text text-anchor="middle" x="499" y="-84.4" font-family="Helvetica,sans-Serif" font-size="14.00">Learning Interest</text>
</g>
<!-- learnerlearnerID -->
<g id="node18" class="node"><title>learnerlearnerID</title>
<polygon fill="white" stroke="white" points="660.108,-108 577.892,-108 577.892,-72 660.108,-72 660.108,-108"/>
<text text-anchor="middle" x="619" y="-84.4" font-family="Helvetica,sans-Serif" font-size="14.00">Learner ID</text>
</g>
<!-- initializeState -->
<g id="node19" class="node"><title>initializeState</title>
<a xlink:href="learner_initializeState.svg" xlink:title="Initialize State">
<polygon fill="#ccffd8" stroke="#ccffd8" points="538.368,-252 459.632,-252 447.632,-240 447.632,-228 459.632,-216 538.368,-216 550.368,-228 550.368,-240 538.368,-252"/>
<path fill="#ccffd8" stroke="#ccffd8" d="M459.632,-252C453.632,-252 447.632,-246 447.632,-240"/>
<path fill="#ccffd8" stroke="#ccffd8" d="M447.632,-228C447.632,-222 453.632,-216 459.632,-216"/>
<path fill="#ccffd8" stroke="#ccffd8" d="M538.368,-216C544.368,-216 550.368,-222 550.368,-228"/>
<path fill="#ccffd8" stroke="#ccffd8" d="M550.368,-240C550.368,-246 544.368,-252 538.368,-252"/>
<polyline fill="none" stroke="black" points="538.368,-252 459.632,-252 "/>
<path fill="none" stroke="black" d="M459.632,-252C453.632,-252 447.632,-246 447.632,-240"/>
<polyline fill="none" stroke="black" points="447.632,-240 447.632,-228 "/>
<path fill="none" stroke="black" d="M447.632,-228C447.632,-222 453.632,-216 459.632,-216"/>
<polyline fill="none" stroke="black" points="459.632,-216 538.368,-216 "/>
<path fill="none" stroke="black" d="M538.368,-216C544.368,-216 550.368,-222 550.368,-228"/>
<polyline fill="none" stroke="black" points="550.368,-228 550.368,-240 "/>
<path fill="none" stroke="black" d="M550.368,-240C550.368,-246 544.368,-252 538.368,-252"/>
<text text-anchor="middle" x="499" y="-228.4" font-family="Helvetica,sans-Serif" font-size="14.00">Initialize State</text>
</a>
</g>
<!-- initialInterest -->
<g id="node21" class="node"><title>initialInterest</title>
<polygon fill="#ccffd8" stroke="#ccffd8" points="536.446,-180 461.554,-180 449.554,-168 449.554,-156 461.554,-144 536.446,-144 548.446,-156 548.446,-168 536.446,-180"/>
<path fill="#ccffd8" stroke="#ccffd8" d="M461.554,-180C455.554,-180 449.554,-174 449.554,-168"/>
<path fill="#ccffd8" stroke="#ccffd8" d="M449.554,-156C449.554,-150 455.554,-144 461.554,-144"/>
<path fill="#ccffd8" stroke="#ccffd8" d="M536.446,-144C542.446,-144 548.446,-150 548.446,-156"/>
<path fill="#ccffd8" stroke="#ccffd8" d="M548.446,-168C548.446,-174 542.446,-180 536.446,-180"/>
<polyline fill="none" stroke="#ccffd8" points="536.446,-180 461.554,-180 "/>
<path fill="none" stroke="#ccffd8" d="M461.554,-180C455.554,-180 449.554,-174 449.554,-168"/>
<polyline fill="none" stroke="#ccffd8" points="449.554,-168 449.554,-156 "/>
<path fill="none" stroke="#ccffd8" d="M449.554,-156C449.554,-150 455.554,-144 461.554,-144"/>
<polyline fill="none" stroke="#ccffd8" points="461.554,-144 536.446,-144 "/>
<path fill="none" stroke="#ccffd8" d="M536.446,-144C542.446,-144 548.446,-150 548.446,-156"/>
<polyline fill="none" stroke="#ccffd8" points="548.446,-156 548.446,-168 "/>
<path fill="none" stroke="#ccffd8" d="M548.446,-168C548.446,-174 542.446,-180 536.446,-180"/>
<text text-anchor="middle" x="499" y="-156.4" font-family="Helvetica,sans-Serif" font-size="14.00">Initial Interest</text>
</g>
<!-- initializeState&#45;&gt;initialInterest -->
<g id="edge16" class="edge"><title>initializeState&#45;&gt;initialInterest</title>
<path fill="none" stroke="#14cc42" stroke-width="3" d="M499,-215.697C499,-210.95 499,-205.613 499,-200.206"/>
<polygon fill="#14cc42" stroke="#14cc42" points="506,-200.104 499,-180.104 492,-200.104 506,-200.104"/>
</g>
<!-- setLearnerIDToNextLearnerID -->
<g id="node23" class="node"><title>setLearnerIDToNextLearnerID</title>
<polygon fill="#ccffd8" stroke="#ccffd8" points="616,-180 586,-180 574,-168 574,-156 586,-144 616,-144 628,-156 628,-168 616,-180"/>
<path fill="#ccffd8" stroke="#ccffd8" d="M586,-180C580,-180 574,-174 574,-168"/>
<path fill="#ccffd8" stroke="#ccffd8" d="M574,-156C574,-150 580,-144 586,-144"/>
<path fill="#ccffd8" stroke="#ccffd8" d="M616,-144C622,-144 628,-150 628,-156"/>
<path fill="#ccffd8" stroke="#ccffd8" d="M628,-168C628,-174 622,-180 616,-180"/>
<polyline fill="none" stroke="#ccffd8" points="616,-180 586,-180 "/>
<path fill="none" stroke="#ccffd8" d="M586,-180C580,-180 574,-174 574,-168"/>
<polyline fill="none" stroke="#ccffd8" points="574,-168 574,-156 "/>
<path fill="none" stroke="#ccffd8" d="M574,-156C574,-150 580,-144 586,-144"/>
<polyline fill="none" stroke="#ccffd8" points="586,-144 616,-144 "/>
<path fill="none" stroke="#ccffd8" d="M616,-144C622,-144 628,-150 628,-156"/>
<polyline fill="none" stroke="#ccffd8" points="628,-156 628,-168 "/>
<path fill="none" stroke="#ccffd8" d="M628,-168C628,-174 622,-180 616,-180"/>
<text text-anchor="middle" x="601" y="-156.4" font-family="Helvetica,sans-Serif" font-size="14.00">Set</text>
</g>
<!-- initializeState&#45;&gt;setLearnerIDToNextLearnerID -->
<g id="edge18" class="edge"><title>initializeState&#45;&gt;setLearnerIDToNextLearnerID</title>
<path fill="none" stroke="#14cc42" stroke-width="3" d="M523.952,-215.876C534.572,-208.588 547.251,-199.886 559.229,-191.667"/>
<polygon fill="#14cc42" stroke="#14cc42" points="563.423,-197.278 575.952,-180.19 555.501,-185.735 563.423,-197.278"/>
</g>
<!-- initialInterest&#45;&gt;learnerlearningInterest -->
<g id="edge24" class="edge"><title>initialInterest&#45;&gt;learnerlearningInterest</title>
<path fill="none" stroke="#14cc42" stroke-width="3" d="M499,-143.697C499,-138.95 499,-133.613 499,-128.206"/>
<polygon fill="#14cc42" stroke="#14cc42" points="506,-128.104 499,-108.104 492,-128.104 506,-128.104"/>
</g>
<!-- setLearnerIDToNextLearnerID&#45;&gt;learnerlearnerID -->
<g id="edge20" class="edge"><title>setLearnerIDToNextLearnerID&#45;&gt;learnerlearnerID</title>
<path fill="none" stroke="#14cc42" stroke-width="3" d="M605.449,-143.697C606.714,-138.78 608.141,-133.231 609.582,-127.627"/>
<polygon fill="#14cc42" stroke="#14cc42" points="616.4,-129.218 614.602,-108.104 602.841,-125.731 616.4,-129.218"/>
</g>
<!-- setLearnerIDToNextLearnerID&#45;&gt;incrementNextLearnerID -->
<g id="edge26" class="edge"><title>setLearnerIDToNextLearnerID&#45;&gt;incrementNextLearnerID</title>
<path fill="none" stroke="#14cc42" stroke-width="3" d="M573.684,-149.986C568.193,-147.903 562.439,-145.811 557,-144 506.954,-127.336 489.147,-125.979 439.601,-111.128"/>
<polygon fill="#14cc42" stroke="#14cc42" points="441.397,-104.356 420.221,-105.129 437.257,-117.73 441.397,-104.356"/>
</g>
<!-- incrementNextLearnerID&#45;&gt;simpleResourcesnextLearnerID -->
<g id="edge22" class="edge"><title>incrementNextLearnerID&#45;&gt;simpleResourcesnextLearnerID</title>
<path fill="none" stroke="#14cc42" stroke-width="3" d="M377.823,-108.104C376.929,-112.919 375.92,-118.352 374.898,-123.856"/>
<polygon fill="#14cc42" stroke="#14cc42" points="367.983,-122.755 371.213,-143.697 381.748,-125.311 367.983,-122.755"/>
</g>
<!-- importabcsetLearnerIDToNextLearnerIDsimpleResourcesnextLearnerID -->
<g id="node30" class="node"><title>importabcsetLearnerIDToNextLearnerIDsimpleResourcesnextLearnerID</title>
<text text-anchor="middle" x="626" y="-228.4" font-family="Helvetica,sans-Serif" font-size="14.00">Next Learner ID</text>
</g>
<!-- importabcsetLearnerIDToNextLearnerIDsimpleResourcesnextLearnerID&#45;&gt;setLearnerIDToNextLearnerID -->
<g id="edge30" class="edge"><title>importabcsetLearnerIDToNextLearnerIDsimpleResourcesnextLearnerID&#45;&gt;setLearnerIDToNextLearnerID:ne</title>
<path fill="none" stroke="black" stroke-width="2" stroke-dasharray="1,5" d="M628.65,-215.875C629.258,-206.645 628.619,-195.365 623.808,-186.503"/>
<ellipse fill="black" stroke="black" cx="621.378" cy="-183.216" rx="4.00002" ry="4.00002"/>
</g>
</g>
</svg>
