<?xml version="1.0" encoding="UTF-8" standalone="no"?>
<!DOCTYPE svg PUBLIC "-//W3C//DTD SVG 1.1//EN"
 "http://www.w3.org/Graphics/SVG/1.1/DTD/svg11.dtd">
<!-- Generated by graphviz version 2.29.20110702.0445 (20110702.0445)
 -->
<!-- Title: learningResource Pages: 1 -->
<svg width="773pt" height="361pt"
 viewBox="0.00 0.00 773.00 361.00" xmlns="http://www.w3.org/2000/svg" xmlns:xlink="http://www.w3.org/1999/xlink">
<g id="graph1" class="graph" transform="scale(1 1) rotate(0) translate(4 357)">
<title>learningResource</title>
<polygon fill="white" stroke="white" points="-4,5 -4,-357 770,-357 770,5 -4,5"/>
<g id="graph2" class="cluster"><title>clustercontextKey</title>
<polygon fill="ghostwhite" stroke="white" points="8,-291 8,-345 96,-345 96,-291 8,-291"/>
<text text-anchor="middle" x="52.1792" y="-327" font-family="Helvetica,sans-Serif" font-size="14.00">Parameters</text>
</g>
<g id="graph3" class="cluster"><title>clusterlearningResourceKey</title>
<polygon fill="ghostwhite" stroke="white" points="104,-147 104,-345 238,-345 238,-147 104,-147"/>
<text text-anchor="middle" x="171.148" y="-327" font-family="Helvetica,sans-Serif" font-size="14.00">Learning Resource</text>
</g>
<!-- contextOverview -->
<g id="node2" class="node"><title>contextOverview</title>
<ellipse fill="black" stroke="black" cx="52" cy="-306" rx="7.2" ry="7.2"/>
</g>
<!-- intializeNonFrameworkOverview -->
<g id="node4" class="node"><title>intializeNonFrameworkOverview</title>
<a xlink:href="learningResource__Overview.svg">
<ellipse fill="#14cccc" stroke="#14cccc" cx="169" cy="-306" rx="7.2" ry="7.2"/>
</a>
</g>
<!-- initializeStateOverview -->
<g id="node5" class="node"><title>initializeStateOverview</title>
<a xlink:href="learningResource__Overview.svg">
<ellipse fill="#70cc14" stroke="#70cc14" cx="169" cy="-234" rx="7.2" ry="7.2"/>
</a>
</g>
<!-- intializeNonFrameworkOverview&#45;&gt;initializeStateOverview -->
<!-- initializeIDOverview -->
<g id="node6" class="node"><title>initializeIDOverview</title>
<a xlink:href="learningResource__Overview.svg">
<ellipse fill="#cc1414" stroke="#cc1414" cx="169" cy="-162" rx="7.2" ry="7.2"/>
</a>
</g>
<!-- initializeStateOverview&#45;&gt;initializeIDOverview -->
<!-- learningResourceefficacy -->
<g id="node8" class="node"><title>learningResourceefficacy</title>
<polygon fill="white" stroke="white" points="342.26,-180 277.74,-180 277.74,-144 342.26,-144 342.26,-180"/>
<text text-anchor="middle" x="310" y="-156.4" font-family="Helvetica,sans-Serif" font-size="14.00">Efficacy</text>
</g>
<!-- initializeState -->
<g id="node9" class="node"><title>initializeState</title>
<a xlink:href="learningResource_initializeState.svg" xlink:title="Initialize State">
<polygon fill="#e5ffcc" stroke="#e5ffcc" points="349.368,-324 270.632,-324 258.632,-312 258.632,-300 270.632,-288 349.368,-288 361.368,-300 361.368,-312 349.368,-324"/>
<path fill="#e5ffcc" stroke="#e5ffcc" d="M270.632,-324C264.632,-324 258.632,-318 258.632,-312"/>
<path fill="#e5ffcc" stroke="#e5ffcc" d="M258.632,-300C258.632,-294 264.632,-288 270.632,-288"/>
<path fill="#e5ffcc" stroke="#e5ffcc" d="M349.368,-288C355.368,-288 361.368,-294 361.368,-300"/>
<path fill="#e5ffcc" stroke="#e5ffcc" d="M361.368,-312C361.368,-318 355.368,-324 349.368,-324"/>
<polyline fill="none" stroke="black" points="349.368,-324 270.632,-324 "/>
<path fill="none" stroke="black" d="M270.632,-324C264.632,-324 258.632,-318 258.632,-312"/>
<polyline fill="none" stroke="black" points="258.632,-312 258.632,-300 "/>
<path fill="none" stroke="black" d="M258.632,-300C258.632,-294 264.632,-288 270.632,-288"/>
<polyline fill="none" stroke="black" points="270.632,-288 349.368,-288 "/>
<path fill="none" stroke="black" d="M349.368,-288C355.368,-288 361.368,-294 361.368,-300"/>
<polyline fill="none" stroke="black" points="361.368,-300 361.368,-312 "/>
<path fill="none" stroke="black" d="M361.368,-312C361.368,-318 355.368,-324 349.368,-324"/>
<text text-anchor="middle" x="310" y="-300.4" font-family="Helvetica,sans-Serif" font-size="14.00">Initialize State</text>
</a>
</g>
<!-- resourceEfficacy -->
<g id="node11" class="node"><title>resourceEfficacy</title>
<polygon fill="#e5ffcc" stroke="#e5ffcc" points="362.116,-252 257.884,-252 245.884,-240 245.884,-228 257.884,-216 362.116,-216 374.116,-228 374.116,-240 362.116,-252"/>
<path fill="#e5ffcc" stroke="#e5ffcc" d="M257.884,-252C251.884,-252 245.884,-246 245.884,-240"/>
<path fill="#e5ffcc" stroke="#e5ffcc" d="M245.884,-228C245.884,-222 251.884,-216 257.884,-216"/>
<path fill="#e5ffcc" stroke="#e5ffcc" d="M362.116,-216C368.116,-216 374.116,-222 374.116,-228"/>
<path fill="#e5ffcc" stroke="#e5ffcc" d="M374.116,-240C374.116,-246 368.116,-252 362.116,-252"/>
<polyline fill="none" stroke="#e5ffcc" points="362.116,-252 257.884,-252 "/>
<path fill="none" stroke="#e5ffcc" d="M257.884,-252C251.884,-252 245.884,-246 245.884,-240"/>
<polyline fill="none" stroke="#e5ffcc" points="245.884,-240 245.884,-228 "/>
<path fill="none" stroke="#e5ffcc" d="M245.884,-228C245.884,-222 251.884,-216 257.884,-216"/>
<polyline fill="none" stroke="#e5ffcc" points="257.884,-216 362.116,-216 "/>
<path fill="none" stroke="#e5ffcc" d="M362.116,-216C368.116,-216 374.116,-222 374.116,-228"/>
<polyline fill="none" stroke="#e5ffcc" points="374.116,-228 374.116,-240 "/>
<path fill="none" stroke="#e5ffcc" d="M374.116,-240C374.116,-246 368.116,-252 362.116,-252"/>
<text text-anchor="middle" x="310" y="-228.4" font-family="Helvetica,sans-Serif" font-size="14.00">Resource Efficacy</text>
</g>
<!-- initializeState&#45;&gt;resourceEfficacy -->
<g id="edge7" class="edge"><title>initializeState&#45;&gt;resourceEfficacy</title>
<path fill="none" stroke="#70cc14" stroke-width="3" d="M310,-287.697C310,-282.95 310,-277.613 310,-272.206"/>
<polygon fill="#70cc14" stroke="#70cc14" points="317,-272.104 310,-252.104 303,-272.104 317,-272.104"/>
</g>
<!-- resourceEfficacy&#45;&gt;learningResourceefficacy -->
<g id="edge9" class="edge"><title>resourceEfficacy&#45;&gt;learningResourceefficacy</title>
<path fill="none" stroke="#70cc14" stroke-width="3" d="M310,-215.697C310,-210.95 310,-205.613 310,-200.206"/>
<polygon fill="#70cc14" stroke="#70cc14" points="317,-200.104 310,-180.104 303,-200.104 317,-200.104"/>
</g>
<!-- intializeNonFramework -->
<g id="node13" class="node"><title>intializeNonFramework</title>
<a xlink:href="learningResource_intializeNonFramework.svg" xlink:title="Initialize">
<polygon fill="#ccffff" stroke="#ccffff" points="475.937,-324 434.063,-324 422.063,-312 422.063,-300 434.063,-288 475.937,-288 487.937,-300 487.937,-312 475.937,-324"/>
<path fill="#ccffff" stroke="#ccffff" d="M434.063,-324C428.063,-324 422.063,-318 422.063,-312"/>
<path fill="#ccffff" stroke="#ccffff" d="M422.063,-300C422.063,-294 428.063,-288 434.063,-288"/>
<path fill="#ccffff" stroke="#ccffff" d="M475.937,-288C481.937,-288 487.937,-294 487.937,-300"/>
<path fill="#ccffff" stroke="#ccffff" d="M487.937,-312C487.937,-318 481.937,-324 475.937,-324"/>
<polyline fill="none" stroke="black" points="475.937,-324 434.063,-324 "/>
<path fill="none" stroke="black" d="M434.063,-324C428.063,-324 422.063,-318 422.063,-312"/>
<polyline fill="none" stroke="black" points="422.063,-312 422.063,-300 "/>
<path fill="none" stroke="black" d="M422.063,-300C422.063,-294 428.063,-288 434.063,-288"/>
<polyline fill="none" stroke="black" points="434.063,-288 475.937,-288 "/>
<path fill="none" stroke="black" d="M475.937,-288C481.937,-288 487.937,-294 487.937,-300"/>
<polyline fill="none" stroke="black" points="487.937,-300 487.937,-312 "/>
<path fill="none" stroke="black" d="M487.937,-312C487.937,-318 481.937,-324 475.937,-324"/>
<text text-anchor="middle" x="455" y="-300.4" font-family="Helvetica,sans-Serif" font-size="14.00">Initialize</text>
</a>
</g>
<!-- learningResource -->
<g id="node15" class="node"><title>learningResource</title>
<polygon fill="#cce8ff" stroke="#cce8ff" points="578.222,-252 467.778,-252 455.778,-240 455.778,-228 467.778,-216 578.222,-216 590.222,-228 590.222,-240 578.222,-252"/>
<path fill="#cce8ff" stroke="#cce8ff" d="M467.778,-252C461.778,-252 455.778,-246 455.778,-240"/>
<path fill="#cce8ff" stroke="#cce8ff" d="M455.778,-228C455.778,-222 461.778,-216 467.778,-216"/>
<path fill="#cce8ff" stroke="#cce8ff" d="M578.222,-216C584.222,-216 590.222,-222 590.222,-228"/>
<path fill="#cce8ff" stroke="#cce8ff" d="M590.222,-240C590.222,-246 584.222,-252 578.222,-252"/>
<polyline fill="none" stroke="gray" points="578.222,-252 467.778,-252 "/>
<path fill="none" stroke="gray" d="M467.778,-252C461.778,-252 455.778,-246 455.778,-240"/>
<polyline fill="none" stroke="gray" points="455.778,-240 455.778,-228 "/>
<path fill="none" stroke="gray" d="M455.778,-228C455.778,-222 461.778,-216 467.778,-216"/>
<polyline fill="none" stroke="gray" points="467.778,-216 578.222,-216 "/>
<path fill="none" stroke="gray" d="M578.222,-216C584.222,-216 590.222,-222 590.222,-228"/>
<polyline fill="none" stroke="gray" points="590.222,-228 590.222,-240 "/>
<path fill="none" stroke="gray" d="M590.222,-240C590.222,-246 584.222,-252 578.222,-252"/>
<text text-anchor="middle" x="523" y="-228.4" font-family="Helvetica,sans-Serif" font-size="14.00">Learning Resource</text>
</g>
<!-- intializeNonFramework&#45;&gt;learningResource -->
<g id="edge11" class="edge"><title>intializeNonFramework&#45;&gt;learningResource</title>
<path fill="none" stroke="#14cccc" stroke-width="3" d="M471.809,-287.697C477.985,-281.339 485.188,-273.924 492.207,-266.699"/>
<polygon fill="#14cccc" stroke="#14cccc" points="497.47,-271.327 506.384,-252.104 487.428,-261.572 497.47,-271.327"/>
</g>
<!-- moveLearningResource -->
<g id="node16" class="node"><title>moveLearningResource</title>
<polygon fill="#ccffff" stroke="#ccffff" points="507,-108 477,-108 465,-96 465,-84 477,-72 507,-72 519,-84 519,-96 507,-108"/>
<path fill="#ccffff" stroke="#ccffff" d="M477,-108C471,-108 465,-102 465,-96"/>
<path fill="#ccffff" stroke="#ccffff" d="M465,-84C465,-78 471,-72 477,-72"/>
<path fill="#ccffff" stroke="#ccffff" d="M507,-72C513,-72 519,-78 519,-84"/>
<path fill="#ccffff" stroke="#ccffff" d="M519,-96C519,-102 513,-108 507,-108"/>
<polyline fill="none" stroke="#ccffff" points="507,-108 477,-108 "/>
<path fill="none" stroke="#ccffff" d="M477,-108C471,-108 465,-102 465,-96"/>
<polyline fill="none" stroke="#ccffff" points="465,-96 465,-84 "/>
<path fill="none" stroke="#ccffff" d="M465,-84C465,-78 471,-72 477,-72"/>
<polyline fill="none" stroke="#ccffff" points="477,-72 507,-72 "/>
<path fill="none" stroke="#ccffff" d="M507,-72C513,-72 519,-78 519,-84"/>
<polyline fill="none" stroke="#ccffff" points="519,-84 519,-96 "/>
<path fill="none" stroke="#ccffff" d="M519,-96C519,-102 513,-108 507,-108"/>
<text text-anchor="middle" x="492" y="-84.4" font-family="Helvetica,sans-Serif" font-size="14.00">Move</text>
</g>
<!-- intializeNonFramework&#45;&gt;moveLearningResource -->
<g id="edge13" class="edge"><title>intializeNonFramework&#45;&gt;moveLearningResource:nw</title>
<path fill="none" stroke="#14cccc" stroke-width="3" stroke-dasharray="5,2" d="M451.752,-287.888C449.954,-277.542 447.905,-264.063 447,-252 443.408,-204.135 431.821,-189.537 447,-144 450.656,-133.031 454.383,-127.439 459.608,-121.941"/>
<polygon fill="#14cccc" stroke="#14cccc" points="464.505,-126.943 474,-108 454.764,-116.888 464.505,-126.943"/>
</g>
<!-- learningResource&#45;&gt;moveLearningResource -->
<g id="edge15" class="edge"><title>learningResource&#45;&gt;moveLearningResource:ne</title>
<path fill="none" stroke="#147acc" stroke-width="3" stroke-dasharray="5,2" d="M528.824,-215.56C531.931,-205.33 535.431,-192.08 537,-180 539.06,-164.133 542.06,-159.179 537,-144 533.344,-133.031 529.617,-127.439 524.392,-121.941"/>
<polygon fill="#147acc" stroke="#147acc" points="529.236,-116.888 510,-108 519.495,-126.943 529.236,-116.888"/>
</g>
<!-- availableQuery -->
<g id="node19" class="node"><title>availableQuery</title>
<polygon fill="#cce8ff" stroke="#cce8ff" points="515.928,-180 468.072,-180 456.072,-168 456.072,-156 468.072,-144 515.928,-144 527.928,-156 527.928,-168 515.928,-180"/>
<path fill="#cce8ff" stroke="#cce8ff" d="M468.072,-180C462.072,-180 456.072,-174 456.072,-168"/>
<path fill="#cce8ff" stroke="#cce8ff" d="M456.072,-156C456.072,-150 462.072,-144 468.072,-144"/>
<path fill="#cce8ff" stroke="#cce8ff" d="M515.928,-144C521.928,-144 527.928,-150 527.928,-156"/>
<path fill="#cce8ff" stroke="#cce8ff" d="M527.928,-168C527.928,-174 521.928,-180 515.928,-180"/>
<polyline fill="none" stroke="#cce8ff" points="515.928,-180 468.072,-180 "/>
<path fill="none" stroke="#cce8ff" d="M468.072,-180C462.072,-180 456.072,-174 456.072,-168"/>
<polyline fill="none" stroke="#cce8ff" points="456.072,-168 456.072,-156 "/>
<path fill="none" stroke="#cce8ff" d="M456.072,-156C456.072,-150 462.072,-144 468.072,-144"/>
<polyline fill="none" stroke="#cce8ff" points="468.072,-144 515.928,-144 "/>
<path fill="none" stroke="#cce8ff" d="M515.928,-144C521.928,-144 527.928,-150 527.928,-156"/>
<polyline fill="none" stroke="#cce8ff" points="527.928,-156 527.928,-168 "/>
<path fill="none" stroke="#cce8ff" d="M527.928,-168C527.928,-174 521.928,-180 515.928,-180"/>
<text text-anchor="middle" x="492" y="-156.4" font-family="Helvetica,sans-Serif" font-size="14.00">Available</text>
</g>
<!-- learningResource&#45;&gt;availableQuery -->
<g id="edge19" class="edge"><title>learningResource&#45;&gt;availableQuery</title>
<path fill="none" stroke="#147acc" stroke-width="3" d="M515.337,-215.697C513.01,-210.441 510.362,-204.463 507.707,-198.467"/>
<polygon fill="#147acc" stroke="#147acc" points="514.074,-195.557 499.575,-180.104 501.273,-201.226 514.074,-195.557"/>
</g>
<!-- availableQuery&#45;&gt;moveLearningResource -->
<g id="edge17" class="edge"><title>availableQuery&#45;&gt;moveLearningResource</title>
<path fill="none" stroke="#147acc" stroke-width="3" d="M492,-143.697C492,-138.95 492,-133.613 492,-128.206"/>
<polygon fill="#147acc" stroke="#147acc" points="499,-128.104 492,-108.104 485,-128.104 499,-128.104"/>
</g>
<!-- learningResourceresourceID -->
<g id="node22" class="node"><title>learningResourceresourceID</title>
<polygon fill="white" stroke="white" points="691.356,-180 598.644,-180 598.644,-144 691.356,-144 691.356,-180"/>
<text text-anchor="middle" x="645" y="-156.4" font-family="Helvetica,sans-Serif" font-size="14.00">Resource ID</text>
</g>
<!-- incrementResourceID -->
<g id="node29" class="node"><title>incrementResourceID</title>
<polygon fill="#ffcccc" stroke="#ffcccc" points="718.186,-108 663.814,-108 651.814,-96 651.814,-84 663.814,-72 718.186,-72 730.186,-84 730.186,-96 718.186,-108"/>
<path fill="#ffcccc" stroke="#ffcccc" d="M663.814,-108C657.814,-108 651.814,-102 651.814,-96"/>
<path fill="#ffcccc" stroke="#ffcccc" d="M651.814,-84C651.814,-78 657.814,-72 663.814,-72"/>
<path fill="#ffcccc" stroke="#ffcccc" d="M718.186,-72C724.186,-72 730.186,-78 730.186,-84"/>
<path fill="#ffcccc" stroke="#ffcccc" d="M730.186,-96C730.186,-102 724.186,-108 718.186,-108"/>
<polyline fill="none" stroke="#ffcccc" points="718.186,-108 663.814,-108 "/>
<path fill="none" stroke="#ffcccc" d="M663.814,-108C657.814,-108 651.814,-102 651.814,-96"/>
<polyline fill="none" stroke="#ffcccc" points="651.814,-96 651.814,-84 "/>
<path fill="none" stroke="#ffcccc" d="M651.814,-84C651.814,-78 657.814,-72 663.814,-72"/>
<polyline fill="none" stroke="#ffcccc" points="663.814,-72 718.186,-72 "/>
<path fill="none" stroke="#ffcccc" d="M718.186,-72C724.186,-72 730.186,-78 730.186,-84"/>
<polyline fill="none" stroke="#ffcccc" points="730.186,-84 730.186,-96 "/>
<path fill="none" stroke="#ffcccc" d="M730.186,-96C730.186,-102 724.186,-108 718.186,-108"/>
<text text-anchor="middle" x="691" y="-84.4" font-family="Helvetica,sans-Serif" font-size="14.00">Increment</text>
</g>
<!-- learningResourceresourceID&#45;&gt;incrementResourceID -->
<g id="edge31" class="edge"><title>learningResourceresourceID&#45;&gt;incrementResourceID:nw</title>
<path fill="none" stroke="#cc1414" stroke-width="2" stroke-dasharray="1,5" d="M651.092,-143.578C654.849,-134.447 660.357,-123.274 667.658,-114.037"/>
<ellipse fill="#cc1414" stroke="#cc1414" cx="670.349" cy="-110.996" rx="4.00002" ry="4.00002"/>
</g>
<!-- simpleResourcesnextResourceID -->
<g id="node23" class="node"><title>simpleResourcesnextResourceID</title>
<polygon fill="white" stroke="white" points="754.25,-36 627.75,-36 627.75,-0 754.25,-0 754.25,-36"/>
<text text-anchor="start" x="636" y="-12.5" font-family="Helvetica,sans-Serif" font-size="14.00">Next Resource ID</text>
</g>
<!-- initializeID -->
<g id="node24" class="node"><title>initializeID</title>
<a xlink:href="learningResource_initializeID.svg" xlink:title="Initialize ID">
<polygon fill="#ffcccc" stroke="#ffcccc" points="609.352,-324 548.648,-324 536.648,-312 536.648,-300 548.648,-288 609.352,-288 621.352,-300 621.352,-312 609.352,-324"/>
<path fill="#ffcccc" stroke="#ffcccc" d="M548.648,-324C542.648,-324 536.648,-318 536.648,-312"/>
<path fill="#ffcccc" stroke="#ffcccc" d="M536.648,-300C536.648,-294 542.648,-288 548.648,-288"/>
<path fill="#ffcccc" stroke="#ffcccc" d="M609.352,-288C615.352,-288 621.352,-294 621.352,-300"/>
<path fill="#ffcccc" stroke="#ffcccc" d="M621.352,-312C621.352,-318 615.352,-324 609.352,-324"/>
<polyline fill="none" stroke="black" points="609.352,-324 548.648,-324 "/>
<path fill="none" stroke="black" d="M548.648,-324C542.648,-324 536.648,-318 536.648,-312"/>
<polyline fill="none" stroke="black" points="536.648,-312 536.648,-300 "/>
<path fill="none" stroke="black" d="M536.648,-300C536.648,-294 542.648,-288 548.648,-288"/>
<polyline fill="none" stroke="black" points="548.648,-288 609.352,-288 "/>
<path fill="none" stroke="black" d="M609.352,-288C615.352,-288 621.352,-294 621.352,-300"/>
<polyline fill="none" stroke="black" points="621.352,-300 621.352,-312 "/>
<path fill="none" stroke="black" d="M621.352,-312C621.352,-318 615.352,-324 609.352,-324"/>
<text text-anchor="middle" x="579" y="-300.4" font-family="Helvetica,sans-Serif" font-size="14.00">Initialize ID</text>
</a>
</g>
<!-- setResourceIDToNextResourceID -->
<g id="node26" class="node"><title>setResourceIDToNextResourceID</title>
<polygon fill="#ffcccc" stroke="#ffcccc" points="674,-252 644,-252 632,-240 632,-228 644,-216 674,-216 686,-228 686,-240 674,-252"/>
<path fill="#ffcccc" stroke="#ffcccc" d="M644,-252C638,-252 632,-246 632,-240"/>
<path fill="#ffcccc" stroke="#ffcccc" d="M632,-228C632,-222 638,-216 644,-216"/>
<path fill="#ffcccc" stroke="#ffcccc" d="M674,-216C680,-216 686,-222 686,-228"/>
<path fill="#ffcccc" stroke="#ffcccc" d="M686,-240C686,-246 680,-252 674,-252"/>
<polyline fill="none" stroke="#ffcccc" points="674,-252 644,-252 "/>
<path fill="none" stroke="#ffcccc" d="M644,-252C638,-252 632,-246 632,-240"/>
<polyline fill="none" stroke="#ffcccc" points="632,-240 632,-228 "/>
<path fill="none" stroke="#ffcccc" d="M632,-228C632,-222 638,-216 644,-216"/>
<polyline fill="none" stroke="#ffcccc" points="644,-216 674,-216 "/>
<path fill="none" stroke="#ffcccc" d="M674,-216C680,-216 686,-222 686,-228"/>
<polyline fill="none" stroke="#ffcccc" points="686,-228 686,-240 "/>
<path fill="none" stroke="#ffcccc" d="M686,-240C686,-246 680,-252 674,-252"/>
<text text-anchor="middle" x="659" y="-228.4" font-family="Helvetica,sans-Serif" font-size="14.00">Set</text>
</g>
<!-- initializeID&#45;&gt;setResourceIDToNextResourceID -->
<g id="edge21" class="edge"><title>initializeID&#45;&gt;setResourceIDToNextResourceID</title>
<path fill="none" stroke="#cc1414" stroke-width="3" d="M598.775,-287.697C606.429,-281 615.423,-273.13 624.092,-265.544"/>
<polygon fill="#cc1414" stroke="#cc1414" points="629.01,-270.543 639.452,-252.104 619.791,-260.006 629.01,-270.543"/>
</g>
<!-- setResourceIDToNextResourceID&#45;&gt;learningResourceresourceID -->
<g id="edge23" class="edge"><title>setResourceIDToNextResourceID&#45;&gt;learningResourceresourceID</title>
<path fill="none" stroke="#cc1414" stroke-width="3" d="M655.539,-215.697C654.573,-210.865 653.484,-205.422 652.383,-199.917"/>
<polygon fill="#cc1414" stroke="#cc1414" points="659.207,-198.343 648.421,-180.104 645.479,-201.089 659.207,-198.343"/>
</g>
<!-- setResourceIDToNextResourceID&#45;&gt;incrementResourceID -->
<g id="edge25" class="edge"><title>setResourceIDToNextResourceID&#45;&gt;incrementResourceID</title>
<path fill="none" stroke="#cc1414" stroke-width="3" d="M677.169,-215.677C685.885,-206.097 695.412,-193.43 700,-180 705.658,-163.438 704.591,-144.209 701.622,-127.872"/>
<polygon fill="#cc1414" stroke="#cc1414" points="708.385,-126.052 696.941,-108.219 694.766,-129.297 708.385,-126.052"/>
</g>
<!-- incrementResourceID&#45;&gt;simpleResourcesnextResourceID -->
<g id="edge27" class="edge"><title>incrementResourceID&#45;&gt;simpleResourcesnextResourceID</title>
<path fill="none" stroke="#cc1414" stroke-width="3" d="M691,-71.6966C691,-66.9496 691,-61.6132 691,-56.2063"/>
<polygon fill="#cc1414" stroke="#cc1414" points="698,-56.1043 691,-36.1043 684,-56.1044 698,-56.1043"/>
</g>
<!-- importabcsetResourceIDToNextResourceIDsimpleResourcesnextResourceID -->
<g id="node31" class="node"><title>importabcsetResourceIDToNextResourceIDsimpleResourcesnextResourceID</title>
<text text-anchor="middle" x="702" y="-300.4" font-family="Helvetica,sans-Serif" font-size="14.00">Next Resource ID</text>
</g>
<!-- importabcsetResourceIDToNextResourceIDsimpleResourcesnextResourceID&#45;&gt;setResourceIDToNextResourceID -->
<g id="edge29" class="edge"><title>importabcsetResourceIDToNextResourceIDsimpleResourcesnextResourceID&#45;&gt;setResourceIDToNextResourceID:ne</title>
<path fill="none" stroke="black" stroke-width="2" stroke-dasharray="1,5" d="M697.29,-287.927C694.173,-278.775 689.363,-267.517 682.43,-258.295"/>
<ellipse fill="black" stroke="black" cx="679.612" cy="-255.029" rx="4.00002" ry="4.00002"/>
</g>
</g>
</svg>
