<?xml version="1.0" encoding="UTF-8" standalone="no"?>
<!DOCTYPE svg PUBLIC "-//W3C//DTD SVG 1.1//EN"
 "http://www.w3.org/Graphics/SVG/1.1/DTD/svg11.dtd">
<!-- Generated by graphviz version 2.29.20110702.0445 (20110702.0445)
 -->
<!-- Title: initializeID Pages: 1 -->
<svg width="482pt" height="361pt"
 viewBox="0.00 0.00 482.00 361.00" xmlns="http://www.w3.org/2000/svg" xmlns:xlink="http://www.w3.org/1999/xlink">
<g id="graph1" class="graph" transform="scale(1 1) rotate(0) translate(4 357)">
<title>initializeID</title>
<polygon fill="white" stroke="white" points="-4,5 -4,-357 479,-357 479,5 -4,5"/>
<g id="graph2" class="cluster"><title>clustercontextKey</title>
<polygon fill="ghostwhite" stroke="white" points="8,-291 8,-345 96,-345 96,-291 8,-291"/>
<text text-anchor="middle" x="52.1792" y="-327" font-family="Helvetica,sans-Serif" font-size="14.00">Parameters</text>
</g>
<g id="graph3" class="cluster"><title>clusterlearningResourceKey</title>
<polygon fill="ghostwhite" stroke="white" points="104,-291 104,-345 238,-345 238,-291 104,-291"/>
<text text-anchor="middle" x="171.148" y="-327" font-family="Helvetica,sans-Serif" font-size="14.00">Learning Resource</text>
</g>
<!-- contextOverview -->
<g id="node2" class="node"><title>contextOverview</title>
<ellipse fill="black" stroke="black" cx="52" cy="-306" rx="7.2" ry="7.2"/>
</g>
<!-- initializeIDOverview -->
<g id="node4" class="node"><title>initializeIDOverview</title>
<a xlink:href="learningResource__Overview.svg">
<ellipse fill="#cc1414" stroke="#cc1414" cx="170" cy="-306" rx="7.2" ry="7.2"/>
</a>
</g>
<!-- learningResourceresourceID -->
<g id="node5" class="node"><title>learningResourceresourceID</title>
<polygon fill="white" stroke="white" points="349.356,-180 256.644,-180 256.644,-144 349.356,-144 349.356,-180"/>
<text text-anchor="middle" x="303" y="-156.4" font-family="Helvetica,sans-Serif" font-size="14.00">Resource ID</text>
</g>
<!-- incrementResourceID -->
<g id="node12" class="node"><title>incrementResourceID</title>
<polygon fill="#ffcccc" stroke="#ffcccc" points="376.186,-108 321.814,-108 309.814,-96 309.814,-84 321.814,-72 376.186,-72 388.186,-84 388.186,-96 376.186,-108"/>
<path fill="#ffcccc" stroke="#ffcccc" d="M321.814,-108C315.814,-108 309.814,-102 309.814,-96"/>
<path fill="#ffcccc" stroke="#ffcccc" d="M309.814,-84C309.814,-78 315.814,-72 321.814,-72"/>
<path fill="#ffcccc" stroke="#ffcccc" d="M376.186,-72C382.186,-72 388.186,-78 388.186,-84"/>
<path fill="#ffcccc" stroke="#ffcccc" d="M388.186,-96C388.186,-102 382.186,-108 376.186,-108"/>
<polyline fill="none" stroke="#ffcccc" points="376.186,-108 321.814,-108 "/>
<path fill="none" stroke="#ffcccc" d="M321.814,-108C315.814,-108 309.814,-102 309.814,-96"/>
<polyline fill="none" stroke="#ffcccc" points="309.814,-96 309.814,-84 "/>
<path fill="none" stroke="#ffcccc" d="M309.814,-84C309.814,-78 315.814,-72 321.814,-72"/>
<polyline fill="none" stroke="#ffcccc" points="321.814,-72 376.186,-72 "/>
<path fill="none" stroke="#ffcccc" d="M376.186,-72C382.186,-72 388.186,-78 388.186,-84"/>
<polyline fill="none" stroke="#ffcccc" points="388.186,-84 388.186,-96 "/>
<path fill="none" stroke="#ffcccc" d="M388.186,-96C388.186,-102 382.186,-108 376.186,-108"/>
<text text-anchor="middle" x="349" y="-84.4" font-family="Helvetica,sans-Serif" font-size="14.00">Increment</text>
</g>
<!-- learningResourceresourceID&#45;&gt;incrementResourceID -->
<g id="edge14" class="edge"><title>learningResourceresourceID&#45;&gt;incrementResourceID:nw</title>
<path fill="none" stroke="#cc1414" stroke-width="2" stroke-dasharray="1,5" d="M309.092,-143.578C312.849,-134.447 318.357,-123.274 325.658,-114.037"/>
<ellipse fill="#cc1414" stroke="#cc1414" cx="328.349" cy="-110.996" rx="4.00002" ry="4.00002"/>
</g>
<!-- simpleResourcesnextResourceID -->
<g id="node6" class="node"><title>simpleResourcesnextResourceID</title>
<polygon fill="white" stroke="white" points="412.25,-36 285.75,-36 285.75,-0 412.25,-0 412.25,-36"/>
<text text-anchor="start" x="294" y="-12.5" font-family="Helvetica,sans-Serif" font-size="14.00">Next Resource ID</text>
</g>
<!-- initializeID -->
<g id="node7" class="node"><title>initializeID</title>
<a xlink:href="learningResource_initializeID.svg" xlink:title="Initialize ID">
<polygon fill="#ffcccc" stroke="#ffcccc" points="318.352,-324 257.648,-324 245.648,-312 245.648,-300 257.648,-288 318.352,-288 330.352,-300 330.352,-312 318.352,-324"/>
<path fill="#ffcccc" stroke="#ffcccc" d="M257.648,-324C251.648,-324 245.648,-318 245.648,-312"/>
<path fill="#ffcccc" stroke="#ffcccc" d="M245.648,-300C245.648,-294 251.648,-288 257.648,-288"/>
<path fill="#ffcccc" stroke="#ffcccc" d="M318.352,-288C324.352,-288 330.352,-294 330.352,-300"/>
<path fill="#ffcccc" stroke="#ffcccc" d="M330.352,-312C330.352,-318 324.352,-324 318.352,-324"/>
<polyline fill="none" stroke="black" points="318.352,-324 257.648,-324 "/>
<path fill="none" stroke="black" d="M257.648,-324C251.648,-324 245.648,-318 245.648,-312"/>
<polyline fill="none" stroke="black" points="245.648,-312 245.648,-300 "/>
<path fill="none" stroke="black" d="M245.648,-300C245.648,-294 251.648,-288 257.648,-288"/>
<polyline fill="none" stroke="black" points="257.648,-288 318.352,-288 "/>
<path fill="none" stroke="black" d="M318.352,-288C324.352,-288 330.352,-294 330.352,-300"/>
<polyline fill="none" stroke="black" points="330.352,-300 330.352,-312 "/>
<path fill="none" stroke="black" d="M330.352,-312C330.352,-318 324.352,-324 318.352,-324"/>
<text text-anchor="middle" x="288" y="-300.4" font-family="Helvetica,sans-Serif" font-size="14.00">Initialize ID</text>
</a>
</g>
<!-- setResourceIDToNextResourceID -->
<g id="node9" class="node"><title>setResourceIDToNextResourceID</title>
<polygon fill="#ffcccc" stroke="#ffcccc" points="355,-252 325,-252 313,-240 313,-228 325,-216 355,-216 367,-228 367,-240 355,-252"/>
<path fill="#ffcccc" stroke="#ffcccc" d="M325,-252C319,-252 313,-246 313,-240"/>
<path fill="#ffcccc" stroke="#ffcccc" d="M313,-228C313,-222 319,-216 325,-216"/>
<path fill="#ffcccc" stroke="#ffcccc" d="M355,-216C361,-216 367,-222 367,-228"/>
<path fill="#ffcccc" stroke="#ffcccc" d="M367,-240C367,-246 361,-252 355,-252"/>
<polyline fill="none" stroke="#ffcccc" points="355,-252 325,-252 "/>
<path fill="none" stroke="#ffcccc" d="M325,-252C319,-252 313,-246 313,-240"/>
<polyline fill="none" stroke="#ffcccc" points="313,-240 313,-228 "/>
<path fill="none" stroke="#ffcccc" d="M313,-228C313,-222 319,-216 325,-216"/>
<polyline fill="none" stroke="#ffcccc" points="325,-216 355,-216 "/>
<path fill="none" stroke="#ffcccc" d="M355,-216C361,-216 367,-222 367,-228"/>
<polyline fill="none" stroke="#ffcccc" points="367,-228 367,-240 "/>
<path fill="none" stroke="#ffcccc" d="M367,-240C367,-246 361,-252 355,-252"/>
<text text-anchor="middle" x="340" y="-228.4" font-family="Helvetica,sans-Serif" font-size="14.00">Set</text>
</g>
<!-- initializeID&#45;&gt;setResourceIDToNextResourceID -->
<g id="edge4" class="edge"><title>initializeID&#45;&gt;setResourceIDToNextResourceID</title>
<path fill="none" stroke="#cc1414" stroke-width="3" d="M300.854,-287.697C305.199,-281.848 310.209,-275.104 315.162,-268.436"/>
<polygon fill="#cc1414" stroke="#cc1414" points="320.987,-272.334 327.294,-252.104 309.748,-263.985 320.987,-272.334"/>
</g>
<!-- setResourceIDToNextResourceID&#45;&gt;learningResourceresourceID -->
<g id="edge6" class="edge"><title>setResourceIDToNextResourceID&#45;&gt;learningResourceresourceID</title>
<path fill="none" stroke="#cc1414" stroke-width="3" d="M330.854,-215.697C327.986,-210.271 324.712,-204.076 321.44,-197.886"/>
<polygon fill="#cc1414" stroke="#cc1414" points="327.576,-194.515 312.041,-180.104 315.198,-201.057 327.576,-194.515"/>
</g>
<!-- setResourceIDToNextResourceID&#45;&gt;incrementResourceID -->
<g id="edge8" class="edge"><title>setResourceIDToNextResourceID&#45;&gt;incrementResourceID</title>
<path fill="none" stroke="#cc1414" stroke-width="3" d="M347.48,-215.704C351.473,-205.522 355.973,-192.272 358,-180 360.803,-163.031 359.497,-144.089 357.112,-128.056"/>
<polygon fill="#cc1414" stroke="#cc1414" points="363.948,-126.528 353.408,-108.146 350.184,-129.089 363.948,-126.528"/>
</g>
<!-- incrementResourceID&#45;&gt;simpleResourcesnextResourceID -->
<g id="edge10" class="edge"><title>incrementResourceID&#45;&gt;simpleResourcesnextResourceID</title>
<path fill="none" stroke="#cc1414" stroke-width="3" d="M349,-71.6966C349,-66.9496 349,-61.6132 349,-56.2063"/>
<polygon fill="#cc1414" stroke="#cc1414" points="356,-56.1043 349,-36.1043 342,-56.1044 356,-56.1043"/>
</g>
<!-- importabcsetResourceIDToNextResourceIDsimpleResourcesnextResourceID -->
<g id="node14" class="node"><title>importabcsetResourceIDToNextResourceIDsimpleResourcesnextResourceID</title>
<text text-anchor="middle" x="411" y="-300.4" font-family="Helvetica,sans-Serif" font-size="14.00">Next Resource ID</text>
</g>
<!-- importabcsetResourceIDToNextResourceIDsimpleResourcesnextResourceID&#45;&gt;setResourceIDToNextResourceID -->
<g id="edge12" class="edge"><title>importabcsetResourceIDToNextResourceIDsimpleResourcesnextResourceID&#45;&gt;setResourceIDToNextResourceID:ne</title>
<path fill="none" stroke="black" stroke-width="2" stroke-dasharray="1,5" d="M393.814,-287.814C385.063,-279.063 374.099,-268.099 363.701,-257.701"/>
<ellipse fill="black" stroke="black" cx="360.828" cy="-254.828" rx="4.00002" ry="4.00002"/>
</g>
</g>
</svg>
