<?xml version="1.0" encoding="UTF-8" standalone="no"?>
<!DOCTYPE svg PUBLIC "-//W3C//DTD SVG 1.1//EN"
 "http://www.w3.org/Graphics/SVG/1.1/DTD/svg11.dtd">
<!-- Generated by graphviz version 2.29.20110702.0445 (20110702.0445)
 -->
<!-- Title: resourceEngagement Pages: 1 -->
<svg width="1248pt" height="873pt"
 viewBox="0.00 0.00 1248.00 873.00" xmlns="http://www.w3.org/2000/svg" xmlns:xlink="http://www.w3.org/1999/xlink">
<g id="graph1" class="graph" transform="scale(1 1) rotate(0) translate(4 869)">
<title>resourceEngagement</title>
<polygon fill="white" stroke="white" points="-4,5 -4,-869 1245,-869 1245,5 -4,5"/>
<g id="graph2" class="cluster"><title>clustercontextKey</title>
<polygon fill="ghostwhite" stroke="white" points="8,-803 8,-857 96,-857 96,-803 8,-803"/>
<text text-anchor="middle" x="52.1792" y="-839" font-family="Helvetica,sans-Serif" font-size="14.00">Parameters</text>
</g>
<g id="graph3" class="cluster"><title>clusterlearnerKey</title>
<polygon fill="ghostwhite" stroke="white" points="104,-803 104,-857 168,-857 168,-803 104,-803"/>
<text text-anchor="middle" x="136.127" y="-839" font-family="Helvetica,sans-Serif" font-size="14.00">Learner</text>
</g>
<g id="graph4" class="cluster"><title>clusterresourceInteractionKey</title>
<polygon fill="ghostwhite" stroke="white" points="176,-723 176,-857 321,-857 321,-723 176,-723"/>
<text text-anchor="middle" x="248.589" y="-839" font-family="Helvetica,sans-Serif" font-size="14.00">Resource Interaction</text>
</g>
<g id="graph5" class="cluster"><title>clusterlearningResourceKey</title>
<polygon fill="ghostwhite" stroke="white" points="329,-803 329,-857 463,-857 463,-803 329,-803"/>
<text text-anchor="middle" x="396.148" y="-839" font-family="Helvetica,sans-Serif" font-size="14.00">Learning Resource</text>
</g>
<!-- contextOverview -->
<g id="node2" class="node"><title>contextOverview</title>
<ellipse fill="black" stroke="black" cx="52" cy="-818" rx="7.2" ry="7.2"/>
</g>
<!-- resourceEngagementOverview -->
<g id="node4" class="node"><title>resourceEngagementOverview</title>
<a xlink:href="learner__Overview.svg">
<ellipse fill="#1442cc" stroke="#1442cc" cx="136" cy="-818" rx="7.2" ry="7.2"/>
</a>
</g>
<!-- createAgentsOverview -->
<g id="node6" class="node"><title>createAgentsOverview</title>
<a xlink:href="resourceInteraction__Overview.svg">
<ellipse fill="#6014cc" stroke="#6014cc" cx="248" cy="-818" rx="7.2" ry="7.2"/>
</a>
</g>
<!-- allLearnerInteractionsOverview -->
<g id="node7" class="node"><title>allLearnerInteractionsOverview</title>
<a xlink:href="resourceInteraction__Overview.svg">
<ellipse fill="#3814cc" stroke="#3814cc" cx="248" cy="-738" rx="7.2" ry="7.2"/>
</a>
</g>
<!-- createAgentsOverview&#45;&gt;allLearnerInteractionsOverview -->
<!-- encounteredResourceOverview -->
<g id="node10" class="node"><title>encounteredResourceOverview</title>
<a xlink:href="learningResource__Overview.svg">
<ellipse fill="#1419cc" stroke="#1419cc" cx="395" cy="-818" rx="7.2" ry="7.2"/>
</a>
</g>
<!-- learnerengagementRecord -->
<g id="node11" class="node"><title>learnerengagementRecord</title>
<polygon fill="white" stroke="none" points="747.249,-793.2 747.249,-842.8 866.751,-842.8 866.751,-793.2 747.249,-793.2"/>
<text text-anchor="middle" x="807" y="-824.8" font-family="Helvetica,sans-Serif" font-size="14.00">Engagement</text>
<polyline fill="none" stroke="none" points="747.249,-818 866.751,-818 "/>
<text text-anchor="middle" x="807" y="-800" font-family="Helvetica,sans-Serif" font-size="14.00">Found Resource</text>
</g>
<!-- engagementIdenticalNotEngagedTodayQuery -->
<g id="node22" class="node"><title>engagementIdenticalNotEngagedTodayQuery</title>
<polygon fill="#ccd8ff" stroke="#ccd8ff" points="569.264,-756 532.736,-756 520.736,-744 520.736,-732 532.736,-720 569.264,-720 581.264,-732 581.264,-744 569.264,-756"/>
<path fill="#ccd8ff" stroke="#ccd8ff" d="M532.736,-756C526.736,-756 520.736,-750 520.736,-744"/>
<path fill="#ccd8ff" stroke="#ccd8ff" d="M520.736,-732C520.736,-726 526.736,-720 532.736,-720"/>
<path fill="#ccd8ff" stroke="#ccd8ff" d="M569.264,-720C575.264,-720 581.264,-726 581.264,-732"/>
<path fill="#ccd8ff" stroke="#ccd8ff" d="M581.264,-744C581.264,-750 575.264,-756 569.264,-756"/>
<polyline fill="none" stroke="#ccd8ff" points="569.264,-756 532.736,-756 "/>
<path fill="none" stroke="#ccd8ff" d="M532.736,-756C526.736,-756 520.736,-750 520.736,-744"/>
<polyline fill="none" stroke="#ccd8ff" points="520.736,-744 520.736,-732 "/>
<path fill="none" stroke="#ccd8ff" d="M520.736,-732C520.736,-726 526.736,-720 532.736,-720"/>
<polyline fill="none" stroke="#ccd8ff" points="532.736,-720 569.264,-720 "/>
<path fill="none" stroke="#ccd8ff" d="M569.264,-720C575.264,-720 581.264,-726 581.264,-732"/>
<polyline fill="none" stroke="#ccd8ff" points="581.264,-732 581.264,-744 "/>
<path fill="none" stroke="#ccd8ff" d="M581.264,-744C581.264,-750 575.264,-756 569.264,-756"/>
<text text-anchor="middle" x="551" y="-732.4" font-family="Helvetica,sans-Serif" font-size="14.00">Is Not?</text>
</g>
<!-- learnerengagementRecord&#45;&gt;engagementIdenticalNotEngagedTodayQuery -->
<g id="edge70" class="edge"><title>learnerengagementRecord:learnerengagementfoundResource&#45;&gt;engagementIdenticalNotEngagedTodayQuery:ne</title>
<path fill="none" stroke="#1442cc" stroke-width="2" stroke-dasharray="1,5" d="M746,-806C707.682,-806 611.045,-787.456 575.302,-761.324"/>
<ellipse fill="#1442cc" stroke="#1442cc" cx="572.055" cy="-758.582" rx="4.00002" ry="4.00002"/>
</g>
<!-- resourceInteractionlearnerID -->
<g id="node12" class="node"><title>resourceInteractionlearnerID</title>
<polygon fill="white" stroke="white" points="871.108,-108 788.892,-108 788.892,-72 871.108,-72 871.108,-108"/>
<text text-anchor="middle" x="830" y="-84.4" font-family="Helvetica,sans-Serif" font-size="14.00">Learner ID</text>
</g>
<!-- learnerIDIdenticalLearnerIDQuery -->
<g id="node36" class="node"><title>learnerIDIdenticalLearnerIDQuery</title>
<polygon fill="#d5ccff" stroke="#d5ccff" points="1044.45,-36 993.552,-36 981.552,-24 981.552,-12 993.552,-0 1044.45,-0 1056.45,-12 1056.45,-24 1044.45,-36"/>
<path fill="#d5ccff" stroke="#d5ccff" d="M993.552,-36C987.552,-36 981.552,-30 981.552,-24"/>
<path fill="#d5ccff" stroke="#d5ccff" d="M981.552,-12C981.552,-6 987.552,-0 993.552,-0"/>
<path fill="#d5ccff" stroke="#d5ccff" d="M1044.45,-0C1050.45,-0 1056.45,-6 1056.45,-12"/>
<path fill="#d5ccff" stroke="#d5ccff" d="M1056.45,-24C1056.45,-30 1050.45,-36 1044.45,-36"/>
<polyline fill="none" stroke="#d5ccff" points="1044.45,-36 993.552,-36 "/>
<path fill="none" stroke="#d5ccff" d="M993.552,-36C987.552,-36 981.552,-30 981.552,-24"/>
<polyline fill="none" stroke="#d5ccff" points="981.552,-24 981.552,-12 "/>
<path fill="none" stroke="#d5ccff" d="M981.552,-12C981.552,-6 987.552,-0 993.552,-0"/>
<polyline fill="none" stroke="#d5ccff" points="993.552,-0 1044.45,-0 "/>
<path fill="none" stroke="#d5ccff" d="M1044.45,-0C1050.45,-0 1056.45,-6 1056.45,-12"/>
<polyline fill="none" stroke="#d5ccff" points="1056.45,-12 1056.45,-24 "/>
<path fill="none" stroke="#d5ccff" d="M1056.45,-24C1056.45,-30 1050.45,-36 1044.45,-36"/>
<text text-anchor="middle" x="1019" y="-12.4" font-family="Helvetica,sans-Serif" font-size="14.00">Identical?</text>
</g>
<!-- resourceInteractionlearnerID&#45;&gt;learnerIDIdenticalLearnerIDQuery -->
<g id="edge66" class="edge"><title>resourceInteractionlearnerID&#45;&gt;learnerIDIdenticalLearnerIDQuery:nw</title>
<path fill="none" stroke="#1442cc" stroke-width="2" stroke-dasharray="1,5" d="M871.197,-77.2751C912.408,-65.417 972.61,-47.7064 993.643,-39.5305"/>
<ellipse fill="#1442cc" stroke="#1442cc" cx="997.394" cy="-37.7307" rx="4.00002" ry="4.00002"/>
</g>
<!-- learnerlearningInterest -->
<g id="node13" class="node"><title>learnerlearningInterest</title>
<polygon fill="white" stroke="white" points="472.301,-396 351.699,-396 351.699,-360 472.301,-360 472.301,-396"/>
<text text-anchor="middle" x="412" y="-372.4" font-family="Helvetica,sans-Serif" font-size="14.00">Learning Interest</text>
</g>
<!-- learningInterestAddEfficacy -->
<g id="node28" class="node"><title>learningInterestAddEfficacy</title>
<polygon fill="#ccd8ff" stroke="#ccd8ff" points="453,-540 423,-540 411,-528 411,-516 423,-504 453,-504 465,-516 465,-528 453,-540"/>
<path fill="#ccd8ff" stroke="#ccd8ff" d="M423,-540C417,-540 411,-534 411,-528"/>
<path fill="#ccd8ff" stroke="#ccd8ff" d="M411,-516C411,-510 417,-504 423,-504"/>
<path fill="#ccd8ff" stroke="#ccd8ff" d="M453,-504C459,-504 465,-510 465,-516"/>
<path fill="#ccd8ff" stroke="#ccd8ff" d="M465,-528C465,-534 459,-540 453,-540"/>
<polyline fill="none" stroke="#ccd8ff" points="453,-540 423,-540 "/>
<path fill="none" stroke="#ccd8ff" d="M423,-540C417,-540 411,-534 411,-528"/>
<polyline fill="none" stroke="#ccd8ff" points="411,-528 411,-516 "/>
<path fill="none" stroke="#ccd8ff" d="M411,-516C411,-510 417,-504 423,-504"/>
<polyline fill="none" stroke="#ccd8ff" points="423,-504 453,-504 "/>
<path fill="none" stroke="#ccd8ff" d="M453,-504C459,-504 465,-510 465,-516"/>
<polyline fill="none" stroke="#ccd8ff" points="465,-516 465,-528 "/>
<path fill="none" stroke="#ccd8ff" d="M465,-528C465,-534 459,-540 453,-540"/>
<text text-anchor="middle" x="438" y="-516.4" font-family="Helvetica,sans-Serif" font-size="14.00">Add</text>
</g>
<!-- learnerlearningInterest&#45;&gt;learningInterestAddEfficacy -->
<g id="edge58" class="edge"><title>learnerlearningInterest&#45;&gt;learningInterestAddEfficacy:nw</title>
<path fill="none" stroke="#1442cc" stroke-width="2" stroke-dasharray="1,5" d="M408.76,-396.152C400.285,-443.007 380.333,-568.259 413.667,-546.328"/>
<ellipse fill="#1442cc" stroke="#1442cc" cx="416.939" cy="-543.575" rx="4.00002" ry="4.00002"/>
</g>
<!-- learningResourceefficacy -->
<g id="node14" class="node"><title>learningResourceefficacy</title>
<polygon fill="white" stroke="white" points="573.26,-612 508.74,-612 508.74,-576 573.26,-576 573.26,-612"/>
<text text-anchor="middle" x="541" y="-588.4" font-family="Helvetica,sans-Serif" font-size="14.00">Efficacy</text>
</g>
<!-- learningResourceefficacy&#45;&gt;learningInterestAddEfficacy -->
<g id="edge60" class="edge"><title>learningResourceefficacy&#45;&gt;learningInterestAddEfficacy:ne</title>
<path fill="none" stroke="#1419cc" stroke-width="2" stroke-dasharray="1,5" d="M508.671,-577.42C493.793,-569.317 476.3,-558.419 461.944,-545.606"/>
<ellipse fill="#1419cc" stroke="#1419cc" cx="458.91" cy="-542.745" rx="4.00002" ry="4.00002"/>
</g>
<!-- resourceInteractionresourceID -->
<g id="node15" class="node"><title>resourceInteractionresourceID</title>
<polygon fill="white" stroke="white" points="667.356,-36 574.644,-36 574.644,-0 667.356,-0 667.356,-36"/>
<text text-anchor="middle" x="621" y="-12.4" font-family="Helvetica,sans-Serif" font-size="14.00">Resource ID</text>
</g>
<!-- resourceIDIdenticalIDQuery -->
<g id="node30" class="node"><title>resourceIDIdenticalIDQuery</title>
<polygon fill="#d5ccff" stroke="#d5ccff" points="727.448,-468 676.552,-468 664.552,-456 664.552,-444 676.552,-432 727.448,-432 739.448,-444 739.448,-456 727.448,-468"/>
<path fill="#d5ccff" stroke="#d5ccff" d="M676.552,-468C670.552,-468 664.552,-462 664.552,-456"/>
<path fill="#d5ccff" stroke="#d5ccff" d="M664.552,-444C664.552,-438 670.552,-432 676.552,-432"/>
<path fill="#d5ccff" stroke="#d5ccff" d="M727.448,-432C733.448,-432 739.448,-438 739.448,-444"/>
<path fill="#d5ccff" stroke="#d5ccff" d="M739.448,-456C739.448,-462 733.448,-468 727.448,-468"/>
<polyline fill="none" stroke="#d5ccff" points="727.448,-468 676.552,-468 "/>
<path fill="none" stroke="#d5ccff" d="M676.552,-468C670.552,-468 664.552,-462 664.552,-456"/>
<polyline fill="none" stroke="#d5ccff" points="664.552,-456 664.552,-444 "/>
<path fill="none" stroke="#d5ccff" d="M664.552,-444C664.552,-438 670.552,-432 676.552,-432"/>
<polyline fill="none" stroke="#d5ccff" points="676.552,-432 727.448,-432 "/>
<path fill="none" stroke="#d5ccff" d="M727.448,-432C733.448,-432 739.448,-438 739.448,-444"/>
<polyline fill="none" stroke="#d5ccff" points="739.448,-444 739.448,-456 "/>
<path fill="none" stroke="#d5ccff" d="M739.448,-456C739.448,-462 733.448,-468 727.448,-468"/>
<text text-anchor="middle" x="702" y="-444.4" font-family="Helvetica,sans-Serif" font-size="14.00">Identical?</text>
</g>
<!-- resourceInteractionresourceID&#45;&gt;resourceIDIdenticalIDQuery -->
<g id="edge62" class="edge"><title>resourceInteractionresourceID&#45;&gt;resourceIDIdenticalIDQuery:nw</title>
<path fill="none" stroke="#1419cc" stroke-width="2" stroke-dasharray="1,5" d="M622.326,-36.0065C628.682,-117.038 656.046,-460.367 664.035,-468 668.15,-471.932 672.608,-473.815 676.932,-473.009"/>
<ellipse fill="#1419cc" stroke="#1419cc" cx="680.521" cy="-470.973" rx="4.00002" ry="4.00002"/>
</g>
<!-- learningResourceresourceID -->
<g id="node16" class="node"><title>learningResourceresourceID</title>
<polygon fill="white" stroke="white" points="648.356,-540 555.644,-540 555.644,-504 648.356,-504 648.356,-540"/>
<text text-anchor="middle" x="602" y="-516.4" font-family="Helvetica,sans-Serif" font-size="14.00">Resource ID</text>
</g>
<!-- resourceIDAddZero -->
<g id="node25" class="node"><title>resourceIDAddZero</title>
<polygon fill="#cccdff" stroke="#cccdff" points="599,-108 569,-108 557,-96 557,-84 569,-72 599,-72 611,-84 611,-96 599,-108"/>
<path fill="#cccdff" stroke="#cccdff" d="M569,-108C563,-108 557,-102 557,-96"/>
<path fill="#cccdff" stroke="#cccdff" d="M557,-84C557,-78 563,-72 569,-72"/>
<path fill="#cccdff" stroke="#cccdff" d="M599,-72C605,-72 611,-78 611,-84"/>
<path fill="#cccdff" stroke="#cccdff" d="M611,-96C611,-102 605,-108 599,-108"/>
<polyline fill="none" stroke="#cccdff" points="599,-108 569,-108 "/>
<path fill="none" stroke="#cccdff" d="M569,-108C563,-108 557,-102 557,-96"/>
<polyline fill="none" stroke="#cccdff" points="557,-96 557,-84 "/>
<path fill="none" stroke="#cccdff" d="M557,-84C557,-78 563,-72 569,-72"/>
<polyline fill="none" stroke="#cccdff" points="569,-72 599,-72 "/>
<path fill="none" stroke="#cccdff" d="M599,-72C605,-72 611,-78 611,-84"/>
<polyline fill="none" stroke="#cccdff" points="611,-84 611,-96 "/>
<path fill="none" stroke="#cccdff" d="M611,-96C611,-102 605,-108 599,-108"/>
<text text-anchor="middle" x="584" y="-84.4" font-family="Helvetica,sans-Serif" font-size="14.00">Add</text>
</g>
<!-- learningResourceresourceID&#45;&gt;resourceIDAddZero -->
<g id="edge72" class="edge"><title>learningResourceresourceID&#45;&gt;resourceIDAddZero:nw</title>
<path fill="none" stroke="#1419cc" stroke-width="2" stroke-dasharray="1,5" d="M585.075,-503.853C562.135,-478.712 524,-429.348 524,-379 524,-379 524,-379 524,-233 524,-177.368 524.503,-152.063 559.998,-114.192"/>
<ellipse fill="#1419cc" stroke="#1419cc" cx="563.216" cy="-110.872" rx="4.00002" ry="4.00002"/>
</g>
<!-- learningResourceresourceID&#45;&gt;resourceIDIdenticalIDQuery -->
<g id="edge64" class="edge"><title>learningResourceresourceID&#45;&gt;resourceIDIdenticalIDQuery:ne</title>
<path fill="none" stroke="#3814cc" stroke-width="2" stroke-dasharray="1,5" d="M648.648,-504.46C674.714,-494.753 704.198,-482.862 715.657,-474.864"/>
<ellipse fill="#3814cc" stroke="#3814cc" cx="717.861" cy="-471.38" rx="4.00002" ry="4.00002"/>
</g>
<!-- learnerlearnerID -->
<g id="node17" class="node"><title>learnerlearnerID</title>
<polygon fill="white" stroke="white" points="1240.11,-108 1157.89,-108 1157.89,-72 1240.11,-72 1240.11,-108"/>
<text text-anchor="middle" x="1199" y="-84.4" font-family="Helvetica,sans-Serif" font-size="14.00">Learner ID</text>
</g>
<!-- learnerlearnerID&#45;&gt;learnerIDIdenticalLearnerIDQuery -->
<g id="edge68" class="edge"><title>learnerlearnerID&#45;&gt;learnerIDIdenticalLearnerIDQuery:ne</title>
<path fill="none" stroke="#3814cc" stroke-width="2" stroke-dasharray="1,5" d="M1157.61,-75.9594C1119.02,-63.7456 1064.54,-46.3271 1044.62,-39.1296"/>
<ellipse fill="#3814cc" stroke="#3814cc" cx="1040.7" cy="-37.5197" rx="4.00001" ry="4.00001"/>
</g>
<!-- resourceInteractionstrength -->
<g id="node18" class="node"><title>resourceInteractionstrength</title>
<polygon fill="white" stroke="white" points="620.193,-252 551.807,-252 551.807,-216 620.193,-216 620.193,-252"/>
<text text-anchor="middle" x="586" y="-228.4" font-family="Helvetica,sans-Serif" font-size="14.00">Strength</text>
</g>
<!-- newStrength -->
<g id="node39" class="node"><title>newStrength</title>
<polygon fill="#d5ccff" stroke="#d5ccff" points="618.186,-324 563.814,-324 551.814,-312 551.814,-300 563.814,-288 618.186,-288 630.186,-300 630.186,-312 618.186,-324"/>
<path fill="#d5ccff" stroke="#d5ccff" d="M563.814,-324C557.814,-324 551.814,-318 551.814,-312"/>
<path fill="#d5ccff" stroke="#d5ccff" d="M551.814,-300C551.814,-294 557.814,-288 563.814,-288"/>
<path fill="#d5ccff" stroke="#d5ccff" d="M618.186,-288C624.186,-288 630.186,-294 630.186,-300"/>
<path fill="#d5ccff" stroke="#d5ccff" d="M630.186,-312C630.186,-318 624.186,-324 618.186,-324"/>
<polyline fill="none" stroke="#d5ccff" points="618.186,-324 563.814,-324 "/>
<path fill="none" stroke="#d5ccff" d="M563.814,-324C557.814,-324 551.814,-318 551.814,-312"/>
<polyline fill="none" stroke="#d5ccff" points="551.814,-312 551.814,-300 "/>
<path fill="none" stroke="#d5ccff" d="M551.814,-300C551.814,-294 557.814,-288 563.814,-288"/>
<polyline fill="none" stroke="#d5ccff" points="563.814,-288 618.186,-288 "/>
<path fill="none" stroke="#d5ccff" d="M618.186,-288C624.186,-288 630.186,-294 630.186,-300"/>
<polyline fill="none" stroke="#d5ccff" points="630.186,-300 630.186,-312 "/>
<path fill="none" stroke="#d5ccff" d="M630.186,-312C630.186,-318 624.186,-324 618.186,-324"/>
<text text-anchor="middle" x="591" y="-300.4" font-family="Helvetica,sans-Serif" font-size="14.00">Increment</text>
</g>
<!-- resourceInteractionstrength&#45;&gt;newStrength -->
<g id="edge76" class="edge"><title>resourceInteractionstrength&#45;&gt;newStrength:nw</title>
<path fill="none" stroke="#3814cc" stroke-width="2" stroke-dasharray="1,5" d="M571.192,-252.358C563.83,-262.14 555.705,-274.981 551.876,-288 547.362,-303.35 540.833,-312.422 551.876,-324 556.234,-328.57 561.272,-330.45 566.124,-329.177"/>
<ellipse fill="#3814cc" stroke="#3814cc" cx="569.581" cy="-327.077" rx="4.00002" ry="4.00002"/>
</g>
<!-- learnerresourceEngagements -->
<g id="node19" class="node"><title>learnerresourceEngagements</title>
<polygon fill="white" stroke="white" points="1102.15,-252 935.851,-252 935.851,-216 1102.15,-216 1102.15,-252"/>
<text text-anchor="middle" x="1019" y="-228.4" font-family="Helvetica,sans-Serif" font-size="14.00">Resource Engagements</text>
</g>
<!-- incrementResourceEngagements -->
<g id="node42" class="node"><title>incrementResourceEngagements</title>
<polygon fill="#ccd8ff" stroke="#ccd8ff" points="1024.19,-324 969.814,-324 957.814,-312 957.814,-300 969.814,-288 1024.19,-288 1036.19,-300 1036.19,-312 1024.19,-324"/>
<path fill="#ccd8ff" stroke="#ccd8ff" d="M969.814,-324C963.814,-324 957.814,-318 957.814,-312"/>
<path fill="#ccd8ff" stroke="#ccd8ff" d="M957.814,-300C957.814,-294 963.814,-288 969.814,-288"/>
<path fill="#ccd8ff" stroke="#ccd8ff" d="M1024.19,-288C1030.19,-288 1036.19,-294 1036.19,-300"/>
<path fill="#ccd8ff" stroke="#ccd8ff" d="M1036.19,-312C1036.19,-318 1030.19,-324 1024.19,-324"/>
<polyline fill="none" stroke="#ccd8ff" points="1024.19,-324 969.814,-324 "/>
<path fill="none" stroke="#ccd8ff" d="M969.814,-324C963.814,-324 957.814,-318 957.814,-312"/>
<polyline fill="none" stroke="#ccd8ff" points="957.814,-312 957.814,-300 "/>
<path fill="none" stroke="#ccd8ff" d="M957.814,-300C957.814,-294 963.814,-288 969.814,-288"/>
<polyline fill="none" stroke="#ccd8ff" points="969.814,-288 1024.19,-288 "/>
<path fill="none" stroke="#ccd8ff" d="M1024.19,-288C1030.19,-288 1036.19,-294 1036.19,-300"/>
<polyline fill="none" stroke="#ccd8ff" points="1036.19,-300 1036.19,-312 "/>
<path fill="none" stroke="#ccd8ff" d="M1036.19,-312C1036.19,-318 1030.19,-324 1024.19,-324"/>
<text text-anchor="middle" x="997" y="-300.4" font-family="Helvetica,sans-Serif" font-size="14.00">Increment</text>
</g>
<!-- learnerresourceEngagements&#45;&gt;incrementResourceEngagements -->
<g id="edge78" class="edge"><title>learnerresourceEngagements&#45;&gt;incrementResourceEngagements:nw</title>
<path fill="none" stroke="#1442cc" stroke-width="2" stroke-dasharray="1,5" d="M989.902,-252.151C977.599,-261.119 964.583,-273.306 957.876,-288 949.661,-305.997 951.298,-345.162 972.763,-330.325"/>
<ellipse fill="#1442cc" stroke="#1442cc" cx="975.958" cy="-327.597" rx="4.00002" ry="4.00002"/>
</g>
<!-- resourceEngagement -->
<g id="node20" class="node"><title>resourceEngagement</title>
<a xlink:href="learner_resourceEngagement.svg" xlink:title="Resource Engagement">
<polygon fill="#ccd8ff" stroke="#ccd8ff" points="618.399,-836 483.601,-836 471.601,-824 471.601,-812 483.601,-800 618.399,-800 630.399,-812 630.399,-824 618.399,-836"/>
<path fill="#ccd8ff" stroke="#ccd8ff" d="M483.601,-836C477.601,-836 471.601,-830 471.601,-824"/>
<path fill="#ccd8ff" stroke="#ccd8ff" d="M471.601,-812C471.601,-806 477.601,-800 483.601,-800"/>
<path fill="#ccd8ff" stroke="#ccd8ff" d="M618.399,-800C624.399,-800 630.399,-806 630.399,-812"/>
<path fill="#ccd8ff" stroke="#ccd8ff" d="M630.399,-824C630.399,-830 624.399,-836 618.399,-836"/>
<polyline fill="none" stroke="black" points="618.399,-836 483.601,-836 "/>
<path fill="none" stroke="black" d="M483.601,-836C477.601,-836 471.601,-830 471.601,-824"/>
<polyline fill="none" stroke="black" points="471.601,-824 471.601,-812 "/>
<path fill="none" stroke="black" d="M471.601,-812C471.601,-806 477.601,-800 483.601,-800"/>
<polyline fill="none" stroke="black" points="483.601,-800 618.399,-800 "/>
<path fill="none" stroke="black" d="M618.399,-800C624.399,-800 630.399,-806 630.399,-812"/>
<polyline fill="none" stroke="black" points="630.399,-812 630.399,-824 "/>
<path fill="none" stroke="black" d="M630.399,-824C630.399,-830 624.399,-836 618.399,-836"/>
<text text-anchor="middle" x="551" y="-812.4" font-family="Helvetica,sans-Serif" font-size="14.00">Resource Engagement</text>
</a>
</g>
<!-- resourceEngagement&#45;&gt;engagementIdenticalNotEngagedTodayQuery -->
<g id="edge8" class="edge"><title>resourceEngagement&#45;&gt;engagementIdenticalNotEngagedTodayQuery</title>
<path fill="none" stroke="#1442cc" stroke-width="3" d="M551,-799.689C551,-792.822 551,-784.64 551,-776.542"/>
<polygon fill="#1442cc" stroke="#1442cc" points="558,-776.262 551,-756.262 544,-776.262 558,-776.262"/>
</g>
<!-- encounteredResource -->
<g id="node44" class="node"><title>encounteredResource</title>
<polygon fill="#cccdff" stroke="#cccdff" points="553.399,-684 418.601,-684 406.601,-672 406.601,-660 418.601,-648 553.399,-648 565.399,-660 565.399,-672 553.399,-684"/>
<path fill="#cccdff" stroke="#cccdff" d="M418.601,-684C412.601,-684 406.601,-678 406.601,-672"/>
<path fill="#cccdff" stroke="#cccdff" d="M406.601,-660C406.601,-654 412.601,-648 418.601,-648"/>
<path fill="#cccdff" stroke="#cccdff" d="M553.399,-648C559.399,-648 565.399,-654 565.399,-660"/>
<path fill="#cccdff" stroke="#cccdff" d="M565.399,-672C565.399,-678 559.399,-684 553.399,-684"/>
<polyline fill="none" stroke="gray" points="553.399,-684 418.601,-684 "/>
<path fill="none" stroke="gray" d="M418.601,-684C412.601,-684 406.601,-678 406.601,-672"/>
<polyline fill="none" stroke="gray" points="406.601,-672 406.601,-660 "/>
<path fill="none" stroke="gray" d="M406.601,-660C406.601,-654 412.601,-648 418.601,-648"/>
<polyline fill="none" stroke="gray" points="418.601,-648 553.399,-648 "/>
<path fill="none" stroke="gray" d="M553.399,-648C559.399,-648 565.399,-654 565.399,-660"/>
<polyline fill="none" stroke="gray" points="565.399,-660 565.399,-672 "/>
<path fill="none" stroke="gray" d="M565.399,-672C565.399,-678 559.399,-684 553.399,-684"/>
<text text-anchor="middle" x="486" y="-660.4" font-family="Helvetica,sans-Serif" font-size="14.00">Encountered Resource</text>
</g>
<!-- engagementIdenticalNotEngagedTodayQuery&#45;&gt;encounteredResource -->
<g id="edge28" class="edge"><title>engagementIdenticalNotEngagedTodayQuery&#45;&gt;encounteredResource</title>
<path fill="none" stroke="#1442cc" stroke-width="3" d="M534.933,-719.697C529.108,-713.424 522.327,-706.122 515.703,-698.988"/>
<polygon fill="#1442cc" stroke="#1442cc" points="520.621,-693.997 501.883,-684.104 510.362,-703.523 520.621,-693.997"/>
</g>
<!-- setLearnerIDToLearnerID -->
<g id="node23" class="node"><title>setLearnerIDToLearnerID</title>
<polygon fill="#e1ccff" stroke="#e1ccff" points="790,-180 760,-180 748,-168 748,-156 760,-144 790,-144 802,-156 802,-168 790,-180"/>
<path fill="#e1ccff" stroke="#e1ccff" d="M760,-180C754,-180 748,-174 748,-168"/>
<path fill="#e1ccff" stroke="#e1ccff" d="M748,-156C748,-150 754,-144 760,-144"/>
<path fill="#e1ccff" stroke="#e1ccff" d="M790,-144C796,-144 802,-150 802,-156"/>
<path fill="#e1ccff" stroke="#e1ccff" d="M802,-168C802,-174 796,-180 790,-180"/>
<polyline fill="none" stroke="#e1ccff" points="790,-180 760,-180 "/>
<path fill="none" stroke="#e1ccff" d="M760,-180C754,-180 748,-174 748,-168"/>
<polyline fill="none" stroke="#e1ccff" points="748,-168 748,-156 "/>
<path fill="none" stroke="#e1ccff" d="M748,-156C748,-150 754,-144 760,-144"/>
<polyline fill="none" stroke="#e1ccff" points="760,-144 790,-144 "/>
<path fill="none" stroke="#e1ccff" d="M790,-144C796,-144 802,-150 802,-156"/>
<polyline fill="none" stroke="#e1ccff" points="802,-156 802,-168 "/>
<path fill="none" stroke="#e1ccff" d="M802,-168C802,-174 796,-180 790,-180"/>
<text text-anchor="middle" x="775" y="-156.4" font-family="Helvetica,sans-Serif" font-size="14.00">Set</text>
</g>
<!-- setLearnerIDToLearnerID&#45;&gt;resourceInteractionlearnerID -->
<g id="edge34" class="edge"><title>setLearnerIDToLearnerID&#45;&gt;resourceInteractionlearnerID</title>
<path fill="none" stroke="#6014cc" stroke-width="3" d="M788.596,-143.697C793.324,-137.678 798.798,-130.712 804.184,-123.856"/>
<polygon fill="#6014cc" stroke="#6014cc" points="809.709,-128.155 816.561,-108.104 798.7,-119.506 809.709,-128.155"/>
</g>
<!-- setLearnerIDToLearnerID&#45;&gt;resourceIDAddZero -->
<g id="edge10" class="edge"><title>setLearnerIDToLearnerID&#45;&gt;resourceIDAddZero</title>
<path fill="none" stroke="#6014cc" stroke-width="3" d="M747.634,-150.971C716.912,-139.711 666.559,-121.257 629.811,-107.789"/>
<polygon fill="#6014cc" stroke="#6014cc" points="632.194,-101.207 611.006,-100.898 627.376,-114.352 632.194,-101.207"/>
</g>
<!-- resourceIDAddZero&#45;&gt;resourceInteractionresourceID -->
<g id="edge36" class="edge"><title>resourceIDAddZero&#45;&gt;resourceInteractionresourceID</title>
<path fill="none" stroke="#6014cc" stroke-width="3" d="M593.146,-71.6966C596.014,-66.2715 599.288,-60.0765 602.56,-53.8862"/>
<polygon fill="#6014cc" stroke="#6014cc" points="608.802,-57.0574 611.959,-36.1043 596.424,-50.5151 608.802,-57.0574"/>
</g>
<!-- minimum_LearningInterestAddEfficacyUnit_ -->
<g id="node26" class="node"><title>minimum_LearningInterestAddEfficacyUnit_</title>
<polygon fill="#ccd8ff" stroke="#ccd8ff" points="483.926,-468 428.074,-468 416.074,-456 416.074,-444 428.074,-432 483.926,-432 495.926,-444 495.926,-456 483.926,-468"/>
<path fill="#ccd8ff" stroke="#ccd8ff" d="M428.074,-468C422.074,-468 416.074,-462 416.074,-456"/>
<path fill="#ccd8ff" stroke="#ccd8ff" d="M416.074,-444C416.074,-438 422.074,-432 428.074,-432"/>
<path fill="#ccd8ff" stroke="#ccd8ff" d="M483.926,-432C489.926,-432 495.926,-438 495.926,-444"/>
<path fill="#ccd8ff" stroke="#ccd8ff" d="M495.926,-456C495.926,-462 489.926,-468 483.926,-468"/>
<polyline fill="none" stroke="#ccd8ff" points="483.926,-468 428.074,-468 "/>
<path fill="none" stroke="#ccd8ff" d="M428.074,-468C422.074,-468 416.074,-462 416.074,-456"/>
<polyline fill="none" stroke="#ccd8ff" points="416.074,-456 416.074,-444 "/>
<path fill="none" stroke="#ccd8ff" d="M416.074,-444C416.074,-438 422.074,-432 428.074,-432"/>
<polyline fill="none" stroke="#ccd8ff" points="428.074,-432 483.926,-432 "/>
<path fill="none" stroke="#ccd8ff" d="M483.926,-432C489.926,-432 495.926,-438 495.926,-444"/>
<polyline fill="none" stroke="#ccd8ff" points="495.926,-444 495.926,-456 "/>
<path fill="none" stroke="#ccd8ff" d="M495.926,-456C495.926,-462 489.926,-468 483.926,-468"/>
<text text-anchor="middle" x="456" y="-444.4" font-family="Helvetica,sans-Serif" font-size="14.00">Minimum?</text>
</g>
<!-- minimum_LearningInterestAddEfficacyUnit_&#45;&gt;learnerlearningInterest -->
<g id="edge12" class="edge"><title>minimum_LearningInterestAddEfficacyUnit_&#45;&gt;learnerlearningInterest</title>
<path fill="none" stroke="#1442cc" stroke-width="3" d="M445.124,-431.697C441.607,-426.102 437.576,-419.689 433.564,-413.306"/>
<polygon fill="#1442cc" stroke="#1442cc" points="439.321,-409.312 422.751,-396.104 427.468,-416.762 439.321,-409.312"/>
</g>
<!-- learningInterestAddEfficacy&#45;&gt;minimum_LearningInterestAddEfficacyUnit_ -->
<g id="edge54" class="edge"><title>learningInterestAddEfficacy&#45;&gt;minimum_LearningInterestAddEfficacyUnit_:nw</title>
<path fill="none" stroke="blue" stroke-width="2" stroke-dasharray="1,5" d="M432.389,-503.826C430.323,-494.67 429.35,-483.513 433.367,-474.727"/>
<ellipse fill="blue" stroke="blue" cx="435.731" cy="-471.294" rx="4.00002" ry="4.00002"/>
</g>
<!-- learningInterestAddEfficacy&#45;&gt;minimum_LearningInterestAddEfficacyUnit_ -->
<g id="edge14" class="edge"><title>learningInterestAddEfficacy&#45;&gt;minimum_LearningInterestAddEfficacyUnit_</title>
<path fill="none" stroke="#1442cc" stroke-width="3" d="M442.449,-503.697C443.714,-498.78 445.141,-493.231 446.582,-487.627"/>
<polygon fill="#1442cc" stroke="#1442cc" points="453.4,-489.218 451.602,-468.104 439.841,-485.731 453.4,-489.218"/>
</g>
<!-- _And_NeighborQueryCopyCopyCopyCopy -->
<g id="node32" class="node"><title>_And_NeighborQueryCopyCopyCopyCopy</title>
<polygon fill="#d5ccff" stroke="#d5ccff" points="743,-396 713,-396 701,-384 701,-372 713,-360 743,-360 755,-372 755,-384 743,-396"/>
<path fill="#d5ccff" stroke="#d5ccff" d="M713,-396C707,-396 701,-390 701,-384"/>
<path fill="#d5ccff" stroke="#d5ccff" d="M701,-372C701,-366 707,-360 713,-360"/>
<path fill="#d5ccff" stroke="#d5ccff" d="M743,-360C749,-360 755,-366 755,-372"/>
<path fill="#d5ccff" stroke="#d5ccff" d="M755,-384C755,-390 749,-396 743,-396"/>
<polyline fill="none" stroke="#d5ccff" points="743,-396 713,-396 "/>
<path fill="none" stroke="#d5ccff" d="M713,-396C707,-396 701,-390 701,-384"/>
<polyline fill="none" stroke="#d5ccff" points="701,-384 701,-372 "/>
<path fill="none" stroke="#d5ccff" d="M701,-372C701,-366 707,-360 713,-360"/>
<polyline fill="none" stroke="#d5ccff" points="713,-360 743,-360 "/>
<path fill="none" stroke="#d5ccff" d="M743,-360C749,-360 755,-366 755,-372"/>
<polyline fill="none" stroke="#d5ccff" points="755,-372 755,-384 "/>
<path fill="none" stroke="#d5ccff" d="M755,-384C755,-390 749,-396 743,-396"/>
<text text-anchor="middle" x="728" y="-372.4" font-family="Helvetica,sans-Serif" font-size="14.00">And</text>
</g>
<!-- resourceIDIdenticalIDQuery&#45;&gt;_And_NeighborQueryCopyCopyCopyCopy -->
<g id="edge16" class="edge"><title>resourceIDIdenticalIDQuery&#45;&gt;_And_NeighborQueryCopyCopyCopyCopy</title>
<path fill="none" stroke="#3814cc" stroke-width="3" d="M708.427,-431.697C710.316,-426.611 712.457,-420.848 714.611,-415.047"/>
<polygon fill="#3814cc" stroke="#3814cc" points="721.245,-417.29 721.647,-396.104 708.121,-412.416 721.245,-417.29"/>
</g>
<!-- not__Or__And_NeighborQueryCopyCopyCopyCopy_ -->
<g id="node33" class="node"><title>not__Or__And_NeighborQueryCopyCopyCopyCopy_</title>
<polygon fill="#d5ccff" stroke="#d5ccff" points="743,-324 713,-324 701,-312 701,-300 713,-288 743,-288 755,-300 755,-312 743,-324"/>
<path fill="#d5ccff" stroke="#d5ccff" d="M713,-324C707,-324 701,-318 701,-312"/>
<path fill="#d5ccff" stroke="#d5ccff" d="M701,-300C701,-294 707,-288 713,-288"/>
<path fill="#d5ccff" stroke="#d5ccff" d="M743,-288C749,-288 755,-294 755,-300"/>
<path fill="#d5ccff" stroke="#d5ccff" d="M755,-312C755,-318 749,-324 743,-324"/>
<polyline fill="none" stroke="#d5ccff" points="743,-324 713,-324 "/>
<path fill="none" stroke="#d5ccff" d="M713,-324C707,-324 701,-318 701,-312"/>
<polyline fill="none" stroke="#d5ccff" points="701,-312 701,-300 "/>
<path fill="none" stroke="#d5ccff" d="M701,-300C701,-294 707,-288 713,-288"/>
<polyline fill="none" stroke="#d5ccff" points="713,-288 743,-288 "/>
<path fill="none" stroke="#d5ccff" d="M743,-288C749,-288 755,-294 755,-300"/>
<polyline fill="none" stroke="#d5ccff" points="755,-300 755,-312 "/>
<path fill="none" stroke="#d5ccff" d="M755,-312C755,-318 749,-324 743,-324"/>
<text text-anchor="middle" x="728" y="-300.4" font-family="Helvetica,sans-Serif" font-size="14.00">Else</text>
</g>
<!-- _And_NeighborQueryCopyCopyCopyCopy&#45;&gt;not__Or__And_NeighborQueryCopyCopyCopyCopy_ -->
<g id="edge24" class="edge"><title>_And_NeighborQueryCopyCopyCopyCopy&#45;&gt;not__Or__And_NeighborQueryCopyCopyCopyCopy_</title>
<path fill="none" stroke="#3814cc" stroke-width="3" d="M728,-359.697C728,-354.95 728,-349.613 728,-344.206"/>
<polygon fill="#3814cc" stroke="#3814cc" points="735,-344.104 728,-324.104 721,-344.104 735,-344.104"/>
</g>
<!-- _And_NeighborQueryCopyCopyCopyCopy&#45;&gt;newStrength -->
<g id="edge22" class="edge"><title>_And_NeighborQueryCopyCopyCopyCopy&#45;&gt;newStrength</title>
<path fill="none" stroke="#3814cc" stroke-width="3" d="M700.933,-363.17C684.183,-354.612 662.137,-343.348 642.188,-333.155"/>
<polygon fill="#3814cc" stroke="#3814cc" points="645.304,-326.886 624.309,-324.019 638.934,-339.352 645.304,-326.886"/>
</g>
<!-- _And_NeighborQueryCopyCopyCopyCopy&#45;&gt;incrementResourceEngagements -->
<g id="edge26" class="edge"><title>_And_NeighborQueryCopyCopyCopyCopy&#45;&gt;incrementResourceEngagements</title>
<path fill="none" stroke="#3814cc" stroke-width="3" d="M755.024,-369.968C797.623,-358.882 881.383,-337.086 938.282,-322.28"/>
<polygon fill="#3814cc" stroke="#3814cc" points="940.311,-328.985 957.904,-317.174 936.785,-315.436 940.311,-328.985"/>
</g>
<!-- createAgents -->
<g id="node35" class="node"><title>createAgents</title>
<polygon fill="#e1ccff" stroke="#e1ccff" points="768.049,-252 687.951,-252 675.951,-240 675.951,-228 687.951,-216 768.049,-216 780.049,-228 780.049,-240 768.049,-252"/>
<path fill="#e1ccff" stroke="#e1ccff" d="M687.951,-252C681.951,-252 675.951,-246 675.951,-240"/>
<path fill="#e1ccff" stroke="#e1ccff" d="M675.951,-228C675.951,-222 681.951,-216 687.951,-216"/>
<path fill="#e1ccff" stroke="#e1ccff" d="M768.049,-216C774.049,-216 780.049,-222 780.049,-228"/>
<path fill="#e1ccff" stroke="#e1ccff" d="M780.049,-240C780.049,-246 774.049,-252 768.049,-252"/>
<polyline fill="none" stroke="gray" points="768.049,-252 687.951,-252 "/>
<path fill="none" stroke="gray" d="M687.951,-252C681.951,-252 675.951,-246 675.951,-240"/>
<polyline fill="none" stroke="gray" points="675.951,-240 675.951,-228 "/>
<path fill="none" stroke="gray" d="M675.951,-228C675.951,-222 681.951,-216 687.951,-216"/>
<polyline fill="none" stroke="gray" points="687.951,-216 768.049,-216 "/>
<path fill="none" stroke="gray" d="M768.049,-216C774.049,-216 780.049,-222 780.049,-228"/>
<polyline fill="none" stroke="gray" points="780.049,-228 780.049,-240 "/>
<path fill="none" stroke="gray" d="M780.049,-240C780.049,-246 774.049,-252 768.049,-252"/>
<text text-anchor="middle" x="728" y="-228.4" font-family="Helvetica,sans-Serif" font-size="14.00">Create Agents</text>
</g>
<!-- not__Or__And_NeighborQueryCopyCopyCopyCopy_&#45;&gt;createAgents -->
<g id="edge18" class="edge"><title>not__Or__And_NeighborQueryCopyCopyCopyCopy_&#45;&gt;createAgents</title>
<path fill="none" stroke="#3814cc" stroke-width="3" d="M728,-287.697C728,-282.95 728,-277.613 728,-272.206"/>
<polygon fill="#3814cc" stroke="#3814cc" points="735,-272.104 728,-252.104 721,-272.104 735,-272.104"/>
</g>
<!-- createAgents&#45;&gt;setLearnerIDToLearnerID -->
<g id="edge32" class="edge"><title>createAgents&#45;&gt;setLearnerIDToLearnerID</title>
<path fill="none" stroke="#6014cc" stroke-width="3" d="M739.618,-215.697C743.488,-209.932 747.942,-203.299 752.356,-196.726"/>
<polygon fill="#6014cc" stroke="#6014cc" points="758.178,-200.611 763.516,-180.104 746.555,-192.807 758.178,-200.611"/>
</g>
<!-- learnerIDIdenticalLearnerIDQuery&#45;&gt;_And_NeighborQueryCopyCopyCopyCopy -->
<g id="edge20" class="edge"><title>learnerIDIdenticalLearnerIDQuery&#45;&gt;_And_NeighborQueryCopyCopyCopyCopy</title>
<path fill="none" stroke="#3814cc" stroke-width="3" d="M992.975,-36.0024C960.167,-59.7268 908,-106.084 908,-161 908,-235 908,-235 908,-235 908,-302.968 827.913,-343.443 774.579,-362.861"/>
<polygon fill="#3814cc" stroke="#3814cc" points="772.028,-356.335 755.338,-369.391 776.527,-369.592 772.028,-356.335"/>
</g>
<!-- newStrength&#45;&gt;resourceInteractionstrength -->
<g id="edge42" class="edge"><title>newStrength&#45;&gt;resourceInteractionstrength</title>
<path fill="none" stroke="#3814cc" stroke-width="3" d="M589.764,-287.697C589.425,-282.95 589.044,-277.613 588.658,-272.206"/>
<polygon fill="#3814cc" stroke="#3814cc" points="595.629,-271.555 587.222,-252.104 581.665,-272.552 595.629,-271.555"/>
</g>
<!-- incrementResourceEngagements&#45;&gt;learnerengagementRecord -->
<g id="edge44" class="edge"><title>incrementResourceEngagements&#45;&gt;learnerengagementRecord:learnerengagementfoundResource</title>
<path fill="none" stroke="#1442cc" stroke-width="3" d="M984.276,-324.377C966.663,-350.194 937,-400.826 937,-449 937,-667 937,-667 937,-667 937,-728.562 936.977,-790.967 887.926,-803.664"/>
<polygon fill="#1442cc" stroke="#1442cc" points="887.049,-796.719 868,-806 888.679,-810.623 887.049,-796.719"/>
</g>
<!-- incrementResourceEngagements&#45;&gt;learnerresourceEngagements -->
<g id="edge46" class="edge"><title>incrementResourceEngagements&#45;&gt;learnerresourceEngagements</title>
<path fill="none" stroke="#1442cc" stroke-width="3" d="M1002.44,-287.697C1004.01,-282.695 1005.79,-277.04 1007.58,-271.337"/>
<polygon fill="#1442cc" stroke="#1442cc" points="1014.31,-273.283 1013.62,-252.104 1000.95,-269.085 1014.31,-273.283"/>
</g>
<!-- neighborQueryCopyCopyCopy -->
<g id="node46" class="node"><title>neighborQueryCopyCopyCopy</title>
<polygon fill="#cccdff" stroke="#cccdff" points="478.111,-612 429.889,-612 417.889,-600 417.889,-588 429.889,-576 478.111,-576 490.111,-588 490.111,-600 478.111,-612"/>
<path fill="#cccdff" stroke="#cccdff" d="M429.889,-612C423.889,-612 417.889,-606 417.889,-600"/>
<path fill="#cccdff" stroke="#cccdff" d="M417.889,-588C417.889,-582 423.889,-576 429.889,-576"/>
<path fill="#cccdff" stroke="#cccdff" d="M478.111,-576C484.111,-576 490.111,-582 490.111,-588"/>
<path fill="#cccdff" stroke="#cccdff" d="M490.111,-600C490.111,-606 484.111,-612 478.111,-612"/>
<polyline fill="none" stroke="#cccdff" points="478.111,-612 429.889,-612 "/>
<path fill="none" stroke="#cccdff" d="M429.889,-612C423.889,-612 417.889,-606 417.889,-600"/>
<polyline fill="none" stroke="#cccdff" points="417.889,-600 417.889,-588 "/>
<path fill="none" stroke="#cccdff" d="M417.889,-588C417.889,-582 423.889,-576 429.889,-576"/>
<polyline fill="none" stroke="#cccdff" points="429.889,-576 478.111,-576 "/>
<path fill="none" stroke="#cccdff" d="M478.111,-576C484.111,-576 490.111,-582 490.111,-588"/>
<polyline fill="none" stroke="#cccdff" points="490.111,-588 490.111,-600 "/>
<path fill="none" stroke="#cccdff" d="M490.111,-600C490.111,-606 484.111,-612 478.111,-612"/>
<text text-anchor="middle" x="454" y="-588.4" font-family="Helvetica,sans-Serif" font-size="14.00">Neighbor</text>
</g>
<!-- encounteredResource&#45;&gt;neighborQueryCopyCopyCopy -->
<g id="edge30" class="edge"><title>encounteredResource&#45;&gt;neighborQueryCopyCopyCopy</title>
<path fill="none" stroke="#1419cc" stroke-width="3" d="M478.09,-647.697C475.687,-642.441 472.954,-636.463 470.213,-630.467"/>
<polygon fill="#1419cc" stroke="#1419cc" points="476.501,-627.383 461.819,-612.104 463.768,-633.204 476.501,-627.383"/>
</g>
<!-- neighborQueryCopyCopyCopy&#45;&gt;learningInterestAddEfficacy -->
<g id="edge50" class="edge"><title>neighborQueryCopyCopyCopy&#45;&gt;learningInterestAddEfficacy</title>
<path fill="none" stroke="#1419cc" stroke-width="3" d="M450.045,-575.697C448.921,-570.78 447.653,-565.231 446.372,-559.627"/>
<polygon fill="#1419cc" stroke="#1419cc" points="453.19,-558.042 441.91,-540.104 439.542,-561.161 453.19,-558.042"/>
</g>
<!-- allLearnerInteractions -->
<g id="node50" class="node"><title>allLearnerInteractions</title>
<polygon fill="#d5ccff" stroke="#d5ccff" points="814.474,-540 679.526,-540 667.526,-528 667.526,-516 679.526,-504 814.474,-504 826.474,-516 826.474,-528 814.474,-540"/>
<path fill="#d5ccff" stroke="#d5ccff" d="M679.526,-540C673.526,-540 667.526,-534 667.526,-528"/>
<path fill="#d5ccff" stroke="#d5ccff" d="M667.526,-516C667.526,-510 673.526,-504 679.526,-504"/>
<path fill="#d5ccff" stroke="#d5ccff" d="M814.474,-504C820.474,-504 826.474,-510 826.474,-516"/>
<path fill="#d5ccff" stroke="#d5ccff" d="M826.474,-528C826.474,-534 820.474,-540 814.474,-540"/>
<polyline fill="none" stroke="gray" points="814.474,-540 679.526,-540 "/>
<path fill="none" stroke="gray" d="M679.526,-540C673.526,-540 667.526,-534 667.526,-528"/>
<polyline fill="none" stroke="gray" points="667.526,-528 667.526,-516 "/>
<path fill="none" stroke="gray" d="M667.526,-516C667.526,-510 673.526,-504 679.526,-504"/>
<polyline fill="none" stroke="gray" points="679.526,-504 814.474,-504 "/>
<path fill="none" stroke="gray" d="M814.474,-504C820.474,-504 826.474,-510 826.474,-516"/>
<polyline fill="none" stroke="gray" points="826.474,-516 826.474,-528 "/>
<path fill="none" stroke="gray" d="M826.474,-528C826.474,-534 820.474,-540 814.474,-540"/>
<text text-anchor="middle" x="747" y="-516.4" font-family="Helvetica,sans-Serif" font-size="14.00">All Learner Interactions</text>
</g>
<!-- neighborQueryCopyCopyCopy&#45;&gt;allLearnerInteractions -->
<g id="edge48" class="edge"><title>neighborQueryCopyCopyCopy&#45;&gt;allLearnerInteractions</title>
<path fill="none" stroke="#1419cc" stroke-width="3" d="M490.19,-578.792C493.152,-577.793 496.116,-576.848 499,-576 526.712,-567.855 591.165,-554.136 647.417,-542.697"/>
<polygon fill="#1419cc" stroke="#1419cc" points="649.075,-549.504 667.292,-538.68 646.302,-535.781 649.075,-549.504"/>
</g>
<!-- allLearnerInteractions&#45;&gt;resourceIDIdenticalIDQuery -->
<g id="edge38" class="edge"><title>allLearnerInteractions&#45;&gt;resourceIDIdenticalIDQuery</title>
<path fill="none" stroke="#3814cc" stroke-width="3" d="M735.876,-503.697C732.225,-498.017 728.032,-491.494 723.867,-485.016"/>
<polygon fill="#3814cc" stroke="#3814cc" points="729.699,-481.143 712.996,-468.104 717.923,-488.713 729.699,-481.143"/>
</g>
<!-- allLearnerInteractions&#45;&gt;learnerIDIdenticalLearnerIDQuery -->
<g id="edge40" class="edge"><title>allLearnerInteractions&#45;&gt;learnerIDIdenticalLearnerIDQuery</title>
<path fill="none" stroke="#3814cc" stroke-width="3" d="M826.823,-508.018C939.069,-487.467 1130,-443.09 1130,-379 1130,-379 1130,-379 1130,-161 1130,-114.45 1092.52,-74.05 1061.11,-48.3713"/>
<polygon fill="#3814cc" stroke="#3814cc" points="1065.15,-42.6423 1045.02,-36.0024 1056.61,-53.7416 1065.15,-42.6423"/>
</g>
<!-- importabcsetLearnerIDToLearnerIDlearnerlearnerID -->
<g id="node58" class="node"><title>importabcsetLearnerIDToLearnerIDlearnerlearnerID</title>
<text text-anchor="middle" x="839" y="-228.4" font-family="Helvetica,sans-Serif" font-size="14.00">Learner ID</text>
</g>
<!-- importabcsetLearnerIDToLearnerIDlearnerlearnerID&#45;&gt;setLearnerIDToLearnerID -->
<g id="edge52" class="edge"><title>importabcsetLearnerIDToLearnerIDlearnerlearnerID&#45;&gt;setLearnerIDToLearnerID:ne</title>
<path fill="none" stroke="black" stroke-width="2" stroke-dasharray="1,5" d="M825.082,-215.746C817.696,-206.853 808.187,-195.796 798.622,-185.764"/>
<ellipse fill="black" stroke="black" cx="795.793" cy="-182.863" rx="4.00002" ry="4.00002"/>
</g>
<!-- importxyxminimum_LearningInterestAddEfficacyUnit_functionsunit1 -->
<g id="node61" class="node"><title>importxyxminimum_LearningInterestAddEfficacyUnit_functionsunit1</title>
<text text-anchor="middle" x="510" y="-516.4" font-family="Helvetica,sans-Serif" font-size="14.00">1</text>
</g>
<!-- importxyxminimum_LearningInterestAddEfficacyUnit_functionsunit1&#45;&gt;minimum_LearningInterestAddEfficacyUnit_ -->
<g id="edge56" class="edge"><title>importxyxminimum_LearningInterestAddEfficacyUnit_functionsunit1&#45;&gt;minimum_LearningInterestAddEfficacyUnit_:ne</title>
<path fill="none" stroke="black" stroke-width="2" stroke-dasharray="1,5" d="M500.446,-503.543C495.084,-494.539 487.815,-483.482 479.559,-473.981"/>
<ellipse fill="black" stroke="black" cx="476.723" cy="-470.93" rx="4.00002" ry="4.00002"/>
</g>
<!-- importxyxresourceIDAddZerofunctionszero0 -->
<g id="node71" class="node"><title>importxyxresourceIDAddZerofunctionszero0</title>
<text text-anchor="middle" x="593" y="-156.4" font-family="Helvetica,sans-Serif" font-size="14.00">0</text>
</g>
<!-- importxyxresourceIDAddZerofunctionszero0&#45;&gt;resourceIDAddZero -->
<g id="edge74" class="edge"><title>importxyxresourceIDAddZerofunctionszero0&#45;&gt;resourceIDAddZero:ne</title>
<path fill="none" stroke="black" stroke-width="2" stroke-dasharray="1,5" d="M602.56,-143.907C606.561,-134.78 609.608,-123.637 606.344,-114.793"/>
<ellipse fill="black" stroke="black" cx="604.155" cy="-111.37" rx="4.00002" ry="4.00002"/>
</g>
</g>
</svg>
