<?xml version="1.0" encoding="UTF-8" standalone="no"?>
<!DOCTYPE svg PUBLIC "-//W3C//DTD SVG 1.1//EN"
 "http://www.w3.org/Graphics/SVG/1.1/DTD/svg11.dtd">
<!-- Generated by graphviz version 2.29.20110702.0445 (20110702.0445)
 -->
<!-- Title: findHome Pages: 1 -->
<svg width="447pt" height="505pt"
 viewBox="0.00 0.00 447.00 505.00" xmlns="http://www.w3.org/2000/svg" xmlns:xlink="http://www.w3.org/1999/xlink">
<g id="graph1" class="graph" transform="scale(1 1) rotate(0) translate(4 501)">
<title>findHome</title>
<polygon fill="white" stroke="white" points="-4,5 -4,-501 444,-501 444,5 -4,5"/>
<g id="graph2" class="cluster"><title>clustercontextKey</title>
<polygon fill="ghostwhite" stroke="white" points="8,-435 8,-489 96,-489 96,-435 8,-435"/>
<text text-anchor="middle" x="52.1792" y="-471" font-family="Helvetica,sans-Serif" font-size="14.00">Parameters</text>
</g>
<g id="graph3" class="cluster"><title>clusterlearnerKey</title>
<polygon fill="ghostwhite" stroke="white" points="104,-435 104,-489 168,-489 168,-435 104,-435"/>
<text text-anchor="middle" x="136.127" y="-471" font-family="Helvetica,sans-Serif" font-size="14.00">Learner</text>
</g>
<g id="graph4" class="cluster"><title>clusterhomeKey</title>
<polygon fill="ghostwhite" stroke="white" points="176,-363 176,-489 229,-489 229,-363 176,-363"/>
<text text-anchor="middle" x="202.672" y="-471" font-family="Helvetica,sans-Serif" font-size="14.00">Home</text>
</g>
<!-- contextOverview -->
<g id="node2" class="node"><title>contextOverview</title>
<ellipse fill="black" stroke="black" cx="52" cy="-450" rx="7.2" ry="7.2"/>
</g>
<!-- findHomeOverview -->
<g id="node4" class="node"><title>findHomeOverview</title>
<a xlink:href="learner__Overview.svg">
<ellipse fill="#cc9e14" stroke="#cc9e14" cx="136" cy="-450" rx="7.2" ry="7.2"/>
</a>
</g>
<!-- learnerCopyCopyOverview -->
<g id="node6" class="node"><title>learnerCopyCopyOverview</title>
<a xlink:href="home__Overview.svg">
<ellipse fill="#8ccc14" stroke="#8ccc14" cx="202" cy="-450" rx="7.2" ry="7.2"/>
</a>
</g>
<!-- learnerCopyOverview -->
<g id="node7" class="node"><title>learnerCopyOverview</title>
<a xlink:href="home__Overview.svg">
<ellipse fill="#c3cc14" stroke="#c3cc14" cx="202" cy="-378" rx="7.2" ry="7.2"/>
</a>
</g>
<!-- learnerCopyCopyOverview&#45;&gt;learnerCopyOverview -->
<!-- findHome -->
<g id="node9" class="node"><title>findHome</title>
<a xlink:href="learner_findHome.svg" xlink:title="Find Home">
<polygon fill="#fff2cc" stroke="#fff2cc" points="332.352,-468 271.648,-468 259.648,-456 259.648,-444 271.648,-432 332.352,-432 344.352,-444 344.352,-456 332.352,-468"/>
<path fill="#fff2cc" stroke="#fff2cc" d="M271.648,-468C265.648,-468 259.648,-462 259.648,-456"/>
<path fill="#fff2cc" stroke="#fff2cc" d="M259.648,-444C259.648,-438 265.648,-432 271.648,-432"/>
<path fill="#fff2cc" stroke="#fff2cc" d="M332.352,-432C338.352,-432 344.352,-438 344.352,-444"/>
<path fill="#fff2cc" stroke="#fff2cc" d="M344.352,-456C344.352,-462 338.352,-468 332.352,-468"/>
<polyline fill="none" stroke="black" points="332.352,-468 271.648,-468 "/>
<path fill="none" stroke="black" d="M271.648,-468C265.648,-468 259.648,-462 259.648,-456"/>
<polyline fill="none" stroke="black" points="259.648,-456 259.648,-444 "/>
<path fill="none" stroke="black" d="M259.648,-444C259.648,-438 265.648,-432 271.648,-432"/>
<polyline fill="none" stroke="black" points="271.648,-432 332.352,-432 "/>
<path fill="none" stroke="black" d="M332.352,-432C338.352,-432 344.352,-438 344.352,-444"/>
<polyline fill="none" stroke="black" points="344.352,-444 344.352,-456 "/>
<path fill="none" stroke="black" d="M344.352,-456C344.352,-462 338.352,-468 332.352,-468"/>
<text text-anchor="middle" x="302" y="-444.4" font-family="Helvetica,sans-Serif" font-size="14.00">Find Home</text>
</a>
</g>
<!-- learnerCopy -->
<g id="node11" class="node"><title>learnerCopy</title>
<polygon fill="#fcffcc" stroke="#fcffcc" points="399.121,-396 322.879,-396 310.879,-384 310.879,-372 322.879,-360 399.121,-360 411.121,-372 411.121,-384 399.121,-396"/>
<path fill="#fcffcc" stroke="#fcffcc" d="M322.879,-396C316.879,-396 310.879,-390 310.879,-384"/>
<path fill="#fcffcc" stroke="#fcffcc" d="M310.879,-372C310.879,-366 316.879,-360 322.879,-360"/>
<path fill="#fcffcc" stroke="#fcffcc" d="M399.121,-360C405.121,-360 411.121,-366 411.121,-372"/>
<path fill="#fcffcc" stroke="#fcffcc" d="M411.121,-384C411.121,-390 405.121,-396 399.121,-396"/>
<polyline fill="none" stroke="gray" points="399.121,-396 322.879,-396 "/>
<path fill="none" stroke="gray" d="M322.879,-396C316.879,-396 310.879,-390 310.879,-384"/>
<polyline fill="none" stroke="gray" points="310.879,-384 310.879,-372 "/>
<path fill="none" stroke="gray" d="M310.879,-372C310.879,-366 316.879,-360 322.879,-360"/>
<polyline fill="none" stroke="gray" points="322.879,-360 399.121,-360 "/>
<path fill="none" stroke="gray" d="M399.121,-360C405.121,-360 411.121,-366 411.121,-372"/>
<polyline fill="none" stroke="gray" points="411.121,-372 411.121,-384 "/>
<path fill="none" stroke="gray" d="M411.121,-384C411.121,-390 405.121,-396 399.121,-396"/>
<text text-anchor="middle" x="361" y="-372.4" font-family="Helvetica,sans-Serif" font-size="14.00">Learner Copy</text>
</g>
<!-- findHome&#45;&gt;learnerCopy -->
<g id="edge7" class="edge"><title>findHome&#45;&gt;learnerCopy</title>
<path fill="none" stroke="#cc9e14" stroke-width="3" d="M316.584,-431.697C321.728,-425.593 327.694,-418.516 333.551,-411.567"/>
<polygon fill="#cc9e14" stroke="#cc9e14" points="339.046,-415.908 346.583,-396.104 328.342,-406.886 339.046,-415.908"/>
</g>
<!-- connectLearner -->
<g id="node16" class="node"><title>connectLearner</title>
<polygon fill="#fff2cc" stroke="#fff2cc" points="358.108,-36 313.892,-36 301.892,-24 301.892,-12 313.892,-0 358.108,-0 370.108,-12 370.108,-24 358.108,-36"/>
<path fill="#fff2cc" stroke="#fff2cc" d="M313.892,-36C307.892,-36 301.892,-30 301.892,-24"/>
<path fill="#fff2cc" stroke="#fff2cc" d="M301.892,-12C301.892,-6 307.892,-0 313.892,-0"/>
<path fill="#fff2cc" stroke="#fff2cc" d="M358.108,-0C364.108,-0 370.108,-6 370.108,-12"/>
<path fill="#fff2cc" stroke="#fff2cc" d="M370.108,-24C370.108,-30 364.108,-36 358.108,-36"/>
<polyline fill="none" stroke="#fff2cc" points="358.108,-36 313.892,-36 "/>
<path fill="none" stroke="#fff2cc" d="M313.892,-36C307.892,-36 301.892,-30 301.892,-24"/>
<polyline fill="none" stroke="#fff2cc" points="301.892,-24 301.892,-12 "/>
<path fill="none" stroke="#fff2cc" d="M301.892,-12C301.892,-6 307.892,-0 313.892,-0"/>
<polyline fill="none" stroke="#fff2cc" points="313.892,-0 358.108,-0 "/>
<path fill="none" stroke="#fff2cc" d="M358.108,-0C364.108,-0 370.108,-6 370.108,-12"/>
<polyline fill="none" stroke="#fff2cc" points="370.108,-12 370.108,-24 "/>
<path fill="none" stroke="#fff2cc" d="M370.108,-24C370.108,-30 364.108,-36 358.108,-36"/>
<text text-anchor="middle" x="336" y="-12.4" font-family="Helvetica,sans-Serif" font-size="14.00">Connect</text>
</g>
<!-- findHome&#45;&gt;connectLearner -->
<g id="edge17" class="edge"><title>findHome&#45;&gt;connectLearner:nw</title>
<path fill="none" stroke="#cc9e14" stroke-width="3" stroke-dasharray="5,2" d="M296.334,-431.728C288.152,-405.21 274,-352.732 274,-307 274,-307 274,-307 274,-161 274,-109.465 275.802,-84.2987 304.152,-50.9125"/>
<polygon fill="#cc9e14" stroke="#cc9e14" points="309.52,-55.4189 318,-36 299.261,-45.8925 309.52,-55.4189"/>
</g>
<!-- neighborQuery -->
<g id="node17" class="node"><title>neighborQuery</title>
<polygon fill="#fcffcc" stroke="#fcffcc" points="390.111,-324 341.889,-324 329.889,-312 329.889,-300 341.889,-288 390.111,-288 402.111,-300 402.111,-312 390.111,-324"/>
<path fill="#fcffcc" stroke="#fcffcc" d="M341.889,-324C335.889,-324 329.889,-318 329.889,-312"/>
<path fill="#fcffcc" stroke="#fcffcc" d="M329.889,-300C329.889,-294 335.889,-288 341.889,-288"/>
<path fill="#fcffcc" stroke="#fcffcc" d="M390.111,-288C396.111,-288 402.111,-294 402.111,-300"/>
<path fill="#fcffcc" stroke="#fcffcc" d="M402.111,-312C402.111,-318 396.111,-324 390.111,-324"/>
<polyline fill="none" stroke="#fcffcc" points="390.111,-324 341.889,-324 "/>
<path fill="none" stroke="#fcffcc" d="M341.889,-324C335.889,-324 329.889,-318 329.889,-312"/>
<polyline fill="none" stroke="#fcffcc" points="329.889,-312 329.889,-300 "/>
<path fill="none" stroke="#fcffcc" d="M329.889,-300C329.889,-294 335.889,-288 341.889,-288"/>
<polyline fill="none" stroke="#fcffcc" points="341.889,-288 390.111,-288 "/>
<path fill="none" stroke="#fcffcc" d="M390.111,-288C396.111,-288 402.111,-294 402.111,-300"/>
<polyline fill="none" stroke="#fcffcc" points="402.111,-300 402.111,-312 "/>
<path fill="none" stroke="#fcffcc" d="M402.111,-312C402.111,-318 396.111,-324 390.111,-324"/>
<text text-anchor="middle" x="366" y="-300.4" font-family="Helvetica,sans-Serif" font-size="14.00">Neighbor</text>
</g>
<!-- learnerCopy&#45;&gt;neighborQuery -->
<g id="edge15" class="edge"><title>learnerCopy&#45;&gt;neighborQuery</title>
<path fill="none" stroke="#c3cc14" stroke-width="3" d="M362.236,-359.697C362.575,-354.95 362.956,-349.613 363.342,-344.206"/>
<polygon fill="#c3cc14" stroke="#c3cc14" points="370.335,-344.552 364.778,-324.104 356.371,-343.555 370.335,-344.552"/>
</g>
<!-- learnerCopyCopy -->
<g id="node12" class="node"><title>learnerCopyCopy</title>
<polygon fill="#edffcc" stroke="#edffcc" points="427.549,-180 314.451,-180 302.451,-168 302.451,-156 314.451,-144 427.549,-144 439.549,-156 439.549,-168 427.549,-180"/>
<path fill="#edffcc" stroke="#edffcc" d="M314.451,-180C308.451,-180 302.451,-174 302.451,-168"/>
<path fill="#edffcc" stroke="#edffcc" d="M302.451,-156C302.451,-150 308.451,-144 314.451,-144"/>
<path fill="#edffcc" stroke="#edffcc" d="M427.549,-144C433.549,-144 439.549,-150 439.549,-156"/>
<path fill="#edffcc" stroke="#edffcc" d="M439.549,-168C439.549,-174 433.549,-180 427.549,-180"/>
<polyline fill="none" stroke="gray" points="427.549,-180 314.451,-180 "/>
<path fill="none" stroke="gray" d="M314.451,-180C308.451,-180 302.451,-174 302.451,-168"/>
<polyline fill="none" stroke="gray" points="302.451,-168 302.451,-156 "/>
<path fill="none" stroke="gray" d="M302.451,-156C302.451,-150 308.451,-144 314.451,-144"/>
<polyline fill="none" stroke="gray" points="314.451,-144 427.549,-144 "/>
<path fill="none" stroke="gray" d="M427.549,-144C433.549,-144 439.549,-150 439.549,-156"/>
<polyline fill="none" stroke="gray" points="439.549,-156 439.549,-168 "/>
<path fill="none" stroke="gray" d="M439.549,-168C439.549,-174 433.549,-180 427.549,-180"/>
<text text-anchor="middle" x="371" y="-156.4" font-family="Helvetica,sans-Serif" font-size="14.00">Learner Copy Copy</text>
</g>
<!-- nearestQuery -->
<g id="node14" class="node"><title>nearestQuery</title>
<polygon fill="#edffcc" stroke="#edffcc" points="358.183,-108 313.817,-108 301.817,-96 301.817,-84 313.817,-72 358.183,-72 370.183,-84 370.183,-96 358.183,-108"/>
<path fill="#edffcc" stroke="#edffcc" d="M313.817,-108C307.817,-108 301.817,-102 301.817,-96"/>
<path fill="#edffcc" stroke="#edffcc" d="M301.817,-84C301.817,-78 307.817,-72 313.817,-72"/>
<path fill="#edffcc" stroke="#edffcc" d="M358.183,-72C364.183,-72 370.183,-78 370.183,-84"/>
<path fill="#edffcc" stroke="#edffcc" d="M370.183,-96C370.183,-102 364.183,-108 358.183,-108"/>
<polyline fill="none" stroke="#edffcc" points="358.183,-108 313.817,-108 "/>
<path fill="none" stroke="#edffcc" d="M313.817,-108C307.817,-108 301.817,-102 301.817,-96"/>
<polyline fill="none" stroke="#edffcc" points="301.817,-96 301.817,-84 "/>
<path fill="none" stroke="#edffcc" d="M301.817,-84C301.817,-78 307.817,-72 313.817,-72"/>
<polyline fill="none" stroke="#edffcc" points="313.817,-72 358.183,-72 "/>
<path fill="none" stroke="#edffcc" d="M358.183,-72C364.183,-72 370.183,-78 370.183,-84"/>
<polyline fill="none" stroke="#edffcc" points="370.183,-84 370.183,-96 "/>
<path fill="none" stroke="#edffcc" d="M370.183,-96C370.183,-102 364.183,-108 358.183,-108"/>
<text text-anchor="middle" x="336" y="-84.4" font-family="Helvetica,sans-Serif" font-size="14.00">Nearest </text>
</g>
<!-- learnerCopyCopy&#45;&gt;nearestQuery -->
<g id="edge9" class="edge"><title>learnerCopyCopy&#45;&gt;nearestQuery</title>
<path fill="none" stroke="#8ccc14" stroke-width="3" d="M362.348,-143.697C359.678,-138.356 356.635,-132.27 353.588,-126.176"/>
<polygon fill="#8ccc14" stroke="#8ccc14" points="359.757,-122.862 344.552,-108.104 347.235,-129.123 359.757,-122.862"/>
</g>
<!-- learnerCopyCopy&#45;&gt;connectLearner -->
<g id="edge19" class="edge"><title>learnerCopyCopy&#45;&gt;connectLearner:ne</title>
<path fill="none" stroke="#8ccc14" stroke-width="3" stroke-dasharray="5,2" d="M376.392,-143.851C381.248,-125.615 386.557,-96.1316 379,-72 375.725,-61.5435 372.583,-55.8181 368.008,-50.3584"/>
<polygon fill="#8ccc14" stroke="#8ccc14" points="372.977,-45.4274 354,-36 362.956,-55.2039 372.977,-45.4274"/>
</g>
<!-- nearestQuery&#45;&gt;connectLearner -->
<g id="edge11" class="edge"><title>nearestQuery&#45;&gt;connectLearner</title>
<path fill="none" stroke="#8ccc14" stroke-width="3" d="M336,-71.6966C336,-66.9496 336,-61.6132 336,-56.2063"/>
<polygon fill="#8ccc14" stroke="#8ccc14" points="343,-56.1043 336,-36.1043 329,-56.1044 343,-56.1043"/>
</g>
<!-- not__Or_NeighborQuery_ -->
<g id="node19" class="node"><title>not__Or_NeighborQuery_</title>
<polygon fill="#fcffcc" stroke="#fcffcc" points="383,-252 353,-252 341,-240 341,-228 353,-216 383,-216 395,-228 395,-240 383,-252"/>
<path fill="#fcffcc" stroke="#fcffcc" d="M353,-252C347,-252 341,-246 341,-240"/>
<path fill="#fcffcc" stroke="#fcffcc" d="M341,-228C341,-222 347,-216 353,-216"/>
<path fill="#fcffcc" stroke="#fcffcc" d="M383,-216C389,-216 395,-222 395,-228"/>
<path fill="#fcffcc" stroke="#fcffcc" d="M395,-240C395,-246 389,-252 383,-252"/>
<polyline fill="none" stroke="#fcffcc" points="383,-252 353,-252 "/>
<path fill="none" stroke="#fcffcc" d="M353,-252C347,-252 341,-246 341,-240"/>
<polyline fill="none" stroke="#fcffcc" points="341,-240 341,-228 "/>
<path fill="none" stroke="#fcffcc" d="M341,-228C341,-222 347,-216 353,-216"/>
<polyline fill="none" stroke="#fcffcc" points="353,-216 383,-216 "/>
<path fill="none" stroke="#fcffcc" d="M383,-216C389,-216 395,-222 395,-228"/>
<polyline fill="none" stroke="#fcffcc" points="395,-228 395,-240 "/>
<path fill="none" stroke="#fcffcc" d="M395,-240C395,-246 389,-252 383,-252"/>
<text text-anchor="middle" x="368" y="-228.4" font-family="Helvetica,sans-Serif" font-size="14.00">Else</text>
</g>
<!-- neighborQuery&#45;&gt;not__Or_NeighborQuery_ -->
<g id="edge13" class="edge"><title>neighborQuery&#45;&gt;not__Or_NeighborQuery_</title>
<path fill="none" stroke="#c3cc14" stroke-width="3" d="M366.494,-287.697C366.63,-282.95 366.782,-277.613 366.937,-272.206"/>
<polygon fill="#c3cc14" stroke="#c3cc14" points="373.937,-272.296 367.511,-252.104 359.943,-271.896 373.937,-272.296"/>
</g>
<!-- not__Or_NeighborQuery_&#45;&gt;learnerCopyCopy -->
<g id="edge21" class="edge"><title>not__Or_NeighborQuery_&#45;&gt;learnerCopyCopy</title>
<path fill="none" stroke="#c3cc14" stroke-width="3" d="M368.742,-215.697C368.945,-210.95 369.174,-205.613 369.405,-200.206"/>
<polygon fill="#c3cc14" stroke="#c3cc14" points="376.404,-200.386 370.267,-180.104 362.417,-199.786 376.404,-200.386"/>
</g>
</g>
</svg>
