<?xml version="1.0" encoding="UTF-8" standalone="no"?>
<!DOCTYPE svg PUBLIC "-//W3C//DTD SVG 1.1//EN"
 "http://www.w3.org/Graphics/SVG/1.1/DTD/svg11.dtd">
<!-- Generated by graphviz version 2.29.20110702.0445 (20110702.0445)
 -->
<!-- Title: intializeNonFramework Pages: 1 -->
<svg width="402pt" height="289pt"
 viewBox="0.00 0.00 402.00 289.00" xmlns="http://www.w3.org/2000/svg" xmlns:xlink="http://www.w3.org/1999/xlink">
<g id="graph1" class="graph" transform="scale(1 1) rotate(0) translate(4 285)">
<title>intializeNonFramework</title>
<polygon fill="white" stroke="white" points="-4,5 -4,-285 399,-285 399,5 -4,5"/>
<g id="graph2" class="cluster"><title>clustercontextKey</title>
<polygon fill="ghostwhite" stroke="white" points="8,-219 8,-273 96,-273 96,-219 8,-219"/>
<text text-anchor="middle" x="52.1792" y="-255" font-family="Helvetica,sans-Serif" font-size="14.00">Parameters</text>
</g>
<g id="graph3" class="cluster"><title>clusterlearningResourceKey</title>
<polygon fill="ghostwhite" stroke="white" points="104,-219 104,-273 238,-273 238,-219 104,-219"/>
<text text-anchor="middle" x="171.148" y="-255" font-family="Helvetica,sans-Serif" font-size="14.00">Learning Resource</text>
</g>
<!-- contextOverview -->
<g id="node2" class="node"><title>contextOverview</title>
<ellipse fill="black" stroke="black" cx="52" cy="-234" rx="7.2" ry="7.2"/>
</g>
<!-- intializeNonFrameworkOverview -->
<g id="node4" class="node"><title>intializeNonFrameworkOverview</title>
<a xlink:href="learningResource__Overview.svg">
<ellipse fill="#14cccc" stroke="#14cccc" cx="170" cy="-234" rx="7.2" ry="7.2"/>
</a>
</g>
<!-- intializeNonFramework -->
<g id="node5" class="node"><title>intializeNonFramework</title>
<a xlink:href="learningResource_intializeNonFramework.svg" xlink:title="Initialize">
<polygon fill="#ccffff" stroke="#ccffff" points="299.937,-252 258.063,-252 246.063,-240 246.063,-228 258.063,-216 299.937,-216 311.937,-228 311.937,-240 299.937,-252"/>
<path fill="#ccffff" stroke="#ccffff" d="M258.063,-252C252.063,-252 246.063,-246 246.063,-240"/>
<path fill="#ccffff" stroke="#ccffff" d="M246.063,-228C246.063,-222 252.063,-216 258.063,-216"/>
<path fill="#ccffff" stroke="#ccffff" d="M299.937,-216C305.937,-216 311.937,-222 311.937,-228"/>
<path fill="#ccffff" stroke="#ccffff" d="M311.937,-240C311.937,-246 305.937,-252 299.937,-252"/>
<polyline fill="none" stroke="black" points="299.937,-252 258.063,-252 "/>
<path fill="none" stroke="black" d="M258.063,-252C252.063,-252 246.063,-246 246.063,-240"/>
<polyline fill="none" stroke="black" points="246.063,-240 246.063,-228 "/>
<path fill="none" stroke="black" d="M246.063,-228C246.063,-222 252.063,-216 258.063,-216"/>
<polyline fill="none" stroke="black" points="258.063,-216 299.937,-216 "/>
<path fill="none" stroke="black" d="M299.937,-216C305.937,-216 311.937,-222 311.937,-228"/>
<polyline fill="none" stroke="black" points="311.937,-228 311.937,-240 "/>
<path fill="none" stroke="black" d="M311.937,-240C311.937,-246 305.937,-252 299.937,-252"/>
<text text-anchor="middle" x="279" y="-228.4" font-family="Helvetica,sans-Serif" font-size="14.00">Initialize</text>
</a>
</g>
<!-- learningResource -->
<g id="node7" class="node"><title>learningResource</title>
<polygon fill="#cce8ff" stroke="#cce8ff" points="382.222,-180 271.778,-180 259.778,-168 259.778,-156 271.778,-144 382.222,-144 394.222,-156 394.222,-168 382.222,-180"/>
<path fill="#cce8ff" stroke="#cce8ff" d="M271.778,-180C265.778,-180 259.778,-174 259.778,-168"/>
<path fill="#cce8ff" stroke="#cce8ff" d="M259.778,-156C259.778,-150 265.778,-144 271.778,-144"/>
<path fill="#cce8ff" stroke="#cce8ff" d="M382.222,-144C388.222,-144 394.222,-150 394.222,-156"/>
<path fill="#cce8ff" stroke="#cce8ff" d="M394.222,-168C394.222,-174 388.222,-180 382.222,-180"/>
<polyline fill="none" stroke="gray" points="382.222,-180 271.778,-180 "/>
<path fill="none" stroke="gray" d="M271.778,-180C265.778,-180 259.778,-174 259.778,-168"/>
<polyline fill="none" stroke="gray" points="259.778,-168 259.778,-156 "/>
<path fill="none" stroke="gray" d="M259.778,-156C259.778,-150 265.778,-144 271.778,-144"/>
<polyline fill="none" stroke="gray" points="271.778,-144 382.222,-144 "/>
<path fill="none" stroke="gray" d="M382.222,-144C388.222,-144 394.222,-150 394.222,-156"/>
<polyline fill="none" stroke="gray" points="394.222,-156 394.222,-168 "/>
<path fill="none" stroke="gray" d="M394.222,-168C394.222,-174 388.222,-180 382.222,-180"/>
<text text-anchor="middle" x="327" y="-156.4" font-family="Helvetica,sans-Serif" font-size="14.00">Learning Resource</text>
</g>
<!-- intializeNonFramework&#45;&gt;learningResource -->
<g id="edge4" class="edge"><title>intializeNonFramework&#45;&gt;learningResource</title>
<path fill="none" stroke="#14cccc" stroke-width="3" d="M290.865,-215.697C294.818,-209.932 299.366,-203.299 303.874,-196.726"/>
<polygon fill="#14cccc" stroke="#14cccc" points="309.734,-200.558 315.271,-180.104 298.188,-192.64 309.734,-200.558"/>
</g>
<!-- moveLearningResource -->
<g id="node8" class="node"><title>moveLearningResource</title>
<polygon fill="#ccffff" stroke="#ccffff" points="311,-36 281,-36 269,-24 269,-12 281,-0 311,-0 323,-12 323,-24 311,-36"/>
<path fill="#ccffff" stroke="#ccffff" d="M281,-36C275,-36 269,-30 269,-24"/>
<path fill="#ccffff" stroke="#ccffff" d="M269,-12C269,-6 275,-0 281,-0"/>
<path fill="#ccffff" stroke="#ccffff" d="M311,-0C317,-0 323,-6 323,-12"/>
<path fill="#ccffff" stroke="#ccffff" d="M323,-24C323,-30 317,-36 311,-36"/>
<polyline fill="none" stroke="#ccffff" points="311,-36 281,-36 "/>
<path fill="none" stroke="#ccffff" d="M281,-36C275,-36 269,-30 269,-24"/>
<polyline fill="none" stroke="#ccffff" points="269,-24 269,-12 "/>
<path fill="none" stroke="#ccffff" d="M269,-12C269,-6 275,-0 281,-0"/>
<polyline fill="none" stroke="#ccffff" points="281,-0 311,-0 "/>
<path fill="none" stroke="#ccffff" d="M311,-0C317,-0 323,-6 323,-12"/>
<polyline fill="none" stroke="#ccffff" points="323,-12 323,-24 "/>
<path fill="none" stroke="#ccffff" d="M323,-24C323,-30 317,-36 311,-36"/>
<text text-anchor="middle" x="296" y="-12.4" font-family="Helvetica,sans-Serif" font-size="14.00">Move</text>
</g>
<!-- intializeNonFramework&#45;&gt;moveLearningResource -->
<g id="edge6" class="edge"><title>intializeNonFramework&#45;&gt;moveLearningResource:nw</title>
<path fill="none" stroke="#14cccc" stroke-width="3" stroke-dasharray="5,2" d="M267.113,-215.725C260.987,-205.765 254.155,-192.727 251,-180 237.076,-123.834 232.86,-90.1344 264.408,-51.0129"/>
<polygon fill="#14cccc" stroke="#14cccc" points="269.766,-55.5246 278,-36 259.388,-46.1286 269.766,-55.5246"/>
</g>
<!-- learningResource&#45;&gt;moveLearningResource -->
<g id="edge8" class="edge"><title>learningResource&#45;&gt;moveLearningResource:ne</title>
<path fill="none" stroke="#147acc" stroke-width="3" stroke-dasharray="5,2" d="M332.824,-143.56C335.931,-133.33 339.431,-120.08 341,-108 343.06,-92.1332 346.06,-87.1789 341,-72 337.344,-61.0308 333.617,-55.4393 328.392,-49.941"/>
<polygon fill="#147acc" stroke="#147acc" points="333.236,-44.8876 314,-36 323.495,-54.9433 333.236,-44.8876"/>
</g>
<!-- availableQuery -->
<g id="node11" class="node"><title>availableQuery</title>
<polygon fill="#cce8ff" stroke="#cce8ff" points="319.928,-108 272.072,-108 260.072,-96 260.072,-84 272.072,-72 319.928,-72 331.928,-84 331.928,-96 319.928,-108"/>
<path fill="#cce8ff" stroke="#cce8ff" d="M272.072,-108C266.072,-108 260.072,-102 260.072,-96"/>
<path fill="#cce8ff" stroke="#cce8ff" d="M260.072,-84C260.072,-78 266.072,-72 272.072,-72"/>
<path fill="#cce8ff" stroke="#cce8ff" d="M319.928,-72C325.928,-72 331.928,-78 331.928,-84"/>
<path fill="#cce8ff" stroke="#cce8ff" d="M331.928,-96C331.928,-102 325.928,-108 319.928,-108"/>
<polyline fill="none" stroke="#cce8ff" points="319.928,-108 272.072,-108 "/>
<path fill="none" stroke="#cce8ff" d="M272.072,-108C266.072,-108 260.072,-102 260.072,-96"/>
<polyline fill="none" stroke="#cce8ff" points="260.072,-96 260.072,-84 "/>
<path fill="none" stroke="#cce8ff" d="M260.072,-84C260.072,-78 266.072,-72 272.072,-72"/>
<polyline fill="none" stroke="#cce8ff" points="272.072,-72 319.928,-72 "/>
<path fill="none" stroke="#cce8ff" d="M319.928,-72C325.928,-72 331.928,-78 331.928,-84"/>
<polyline fill="none" stroke="#cce8ff" points="331.928,-84 331.928,-96 "/>
<path fill="none" stroke="#cce8ff" d="M331.928,-96C331.928,-102 325.928,-108 319.928,-108"/>
<text text-anchor="middle" x="296" y="-84.4" font-family="Helvetica,sans-Serif" font-size="14.00">Available</text>
</g>
<!-- learningResource&#45;&gt;availableQuery -->
<g id="edge12" class="edge"><title>learningResource&#45;&gt;availableQuery</title>
<path fill="none" stroke="#147acc" stroke-width="3" d="M319.337,-143.697C317.01,-138.441 314.362,-132.463 311.707,-126.467"/>
<polygon fill="#147acc" stroke="#147acc" points="318.074,-123.557 303.575,-108.104 305.273,-129.226 318.074,-123.557"/>
</g>
<!-- availableQuery&#45;&gt;moveLearningResource -->
<g id="edge10" class="edge"><title>availableQuery&#45;&gt;moveLearningResource</title>
<path fill="none" stroke="#147acc" stroke-width="3" d="M296,-71.6966C296,-66.9496 296,-61.6132 296,-56.2063"/>
<polygon fill="#147acc" stroke="#147acc" points="303,-56.1043 296,-36.1043 289,-56.1044 303,-56.1043"/>
</g>
</g>
</svg>
