<?xml version="1.0" encoding="UTF-8" standalone="no"?>
<!DOCTYPE svg PUBLIC "-//W3C//DTD SVG 1.1//EN"
 "http://www.w3.org/Graphics/SVG/1.1/DTD/svg11.dtd">
<!-- Generated by graphviz version 2.29.20110702.0445 (20110702.0445)
 -->
<!-- Title: initializeState Pages: 1 -->
<svg width="370pt" height="217pt"
 viewBox="0.00 0.00 370.00 217.00" xmlns="http://www.w3.org/2000/svg" xmlns:xlink="http://www.w3.org/1999/xlink">
<g id="graph1" class="graph" transform="scale(1 1) rotate(0) translate(4 213)">
<title>initializeState</title>
<polygon fill="white" stroke="white" points="-4,5 -4,-213 367,-213 367,5 -4,5"/>
<g id="graph2" class="cluster"><title>clustercontextKey</title>
<polygon fill="ghostwhite" stroke="white" points="8,-147 8,-201 96,-201 96,-147 8,-147"/>
<text text-anchor="middle" x="52.1792" y="-183" font-family="Helvetica,sans-Serif" font-size="14.00">Parameters</text>
</g>
<g id="graph3" class="cluster"><title>clusterlearningResourceKey</title>
<polygon fill="ghostwhite" stroke="white" points="104,-147 104,-201 238,-201 238,-147 104,-147"/>
<text text-anchor="middle" x="171.148" y="-183" font-family="Helvetica,sans-Serif" font-size="14.00">Learning Resource</text>
</g>
<!-- contextOverview -->
<g id="node2" class="node"><title>contextOverview</title>
<ellipse fill="black" stroke="black" cx="52" cy="-162" rx="7.2" ry="7.2"/>
</g>
<!-- initializeStateOverview -->
<g id="node4" class="node"><title>initializeStateOverview</title>
<a xlink:href="learningResource__Overview.svg">
<ellipse fill="#70cc14" stroke="#70cc14" cx="170" cy="-162" rx="7.2" ry="7.2"/>
</a>
</g>
<!-- learningResourceefficacy -->
<g id="node5" class="node"><title>learningResourceefficacy</title>
<polygon fill="white" stroke="white" points="330.26,-36 265.74,-36 265.74,-0 330.26,-0 330.26,-36"/>
<text text-anchor="middle" x="298" y="-12.4" font-family="Helvetica,sans-Serif" font-size="14.00">Efficacy</text>
</g>
<!-- initializeState -->
<g id="node6" class="node"><title>initializeState</title>
<a xlink:href="learningResource_initializeState.svg" xlink:title="Initialize State">
<polygon fill="#e5ffcc" stroke="#e5ffcc" points="337.368,-180 258.632,-180 246.632,-168 246.632,-156 258.632,-144 337.368,-144 349.368,-156 349.368,-168 337.368,-180"/>
<path fill="#e5ffcc" stroke="#e5ffcc" d="M258.632,-180C252.632,-180 246.632,-174 246.632,-168"/>
<path fill="#e5ffcc" stroke="#e5ffcc" d="M246.632,-156C246.632,-150 252.632,-144 258.632,-144"/>
<path fill="#e5ffcc" stroke="#e5ffcc" d="M337.368,-144C343.368,-144 349.368,-150 349.368,-156"/>
<path fill="#e5ffcc" stroke="#e5ffcc" d="M349.368,-168C349.368,-174 343.368,-180 337.368,-180"/>
<polyline fill="none" stroke="black" points="337.368,-180 258.632,-180 "/>
<path fill="none" stroke="black" d="M258.632,-180C252.632,-180 246.632,-174 246.632,-168"/>
<polyline fill="none" stroke="black" points="246.632,-168 246.632,-156 "/>
<path fill="none" stroke="black" d="M246.632,-156C246.632,-150 252.632,-144 258.632,-144"/>
<polyline fill="none" stroke="black" points="258.632,-144 337.368,-144 "/>
<path fill="none" stroke="black" d="M337.368,-144C343.368,-144 349.368,-150 349.368,-156"/>
<polyline fill="none" stroke="black" points="349.368,-156 349.368,-168 "/>
<path fill="none" stroke="black" d="M349.368,-168C349.368,-174 343.368,-180 337.368,-180"/>
<text text-anchor="middle" x="298" y="-156.4" font-family="Helvetica,sans-Serif" font-size="14.00">Initialize State</text>
</a>
</g>
<!-- resourceEfficacy -->
<g id="node8" class="node"><title>resourceEfficacy</title>
<polygon fill="#e5ffcc" stroke="#e5ffcc" points="350.116,-108 245.884,-108 233.884,-96 233.884,-84 245.884,-72 350.116,-72 362.116,-84 362.116,-96 350.116,-108"/>
<path fill="#e5ffcc" stroke="#e5ffcc" d="M245.884,-108C239.884,-108 233.884,-102 233.884,-96"/>
<path fill="#e5ffcc" stroke="#e5ffcc" d="M233.884,-84C233.884,-78 239.884,-72 245.884,-72"/>
<path fill="#e5ffcc" stroke="#e5ffcc" d="M350.116,-72C356.116,-72 362.116,-78 362.116,-84"/>
<path fill="#e5ffcc" stroke="#e5ffcc" d="M362.116,-96C362.116,-102 356.116,-108 350.116,-108"/>
<polyline fill="none" stroke="#e5ffcc" points="350.116,-108 245.884,-108 "/>
<path fill="none" stroke="#e5ffcc" d="M245.884,-108C239.884,-108 233.884,-102 233.884,-96"/>
<polyline fill="none" stroke="#e5ffcc" points="233.884,-96 233.884,-84 "/>
<path fill="none" stroke="#e5ffcc" d="M233.884,-84C233.884,-78 239.884,-72 245.884,-72"/>
<polyline fill="none" stroke="#e5ffcc" points="245.884,-72 350.116,-72 "/>
<path fill="none" stroke="#e5ffcc" d="M350.116,-72C356.116,-72 362.116,-78 362.116,-84"/>
<polyline fill="none" stroke="#e5ffcc" points="362.116,-84 362.116,-96 "/>
<path fill="none" stroke="#e5ffcc" d="M362.116,-96C362.116,-102 356.116,-108 350.116,-108"/>
<text text-anchor="middle" x="298" y="-84.4" font-family="Helvetica,sans-Serif" font-size="14.00">Resource Efficacy</text>
</g>
<!-- initializeState&#45;&gt;resourceEfficacy -->
<g id="edge4" class="edge"><title>initializeState&#45;&gt;resourceEfficacy</title>
<path fill="none" stroke="#70cc14" stroke-width="3" d="M298,-143.697C298,-138.95 298,-133.613 298,-128.206"/>
<polygon fill="#70cc14" stroke="#70cc14" points="305,-128.104 298,-108.104 291,-128.104 305,-128.104"/>
</g>
<!-- resourceEfficacy&#45;&gt;learningResourceefficacy -->
<g id="edge6" class="edge"><title>resourceEfficacy&#45;&gt;learningResourceefficacy</title>
<path fill="none" stroke="#70cc14" stroke-width="3" d="M298,-71.6966C298,-66.9496 298,-61.6132 298,-56.2063"/>
<polygon fill="#70cc14" stroke="#70cc14" points="305,-56.1043 298,-36.1043 291,-56.1044 305,-56.1043"/>
</g>
</g>
</svg>
