<?xml version="1.0" encoding="UTF-8" standalone="no"?>
<!DOCTYPE svg PUBLIC "-//W3C//DTD SVG 1.1//EN"
 "http://www.w3.org/Graphics/SVG/1.1/DTD/svg11.dtd">
<!-- Generated by graphviz version 2.29.20110702.0445 (20110702.0445)
 -->
<!-- Title: resourceEngagement Pages: 1 -->
<svg width="780pt" height="873pt"
 viewBox="0.00 0.00 780.00 873.00" xmlns="http://www.w3.org/2000/svg" xmlns:xlink="http://www.w3.org/1999/xlink">
<g id="graph1" class="graph" transform="scale(1 1) rotate(0) translate(4 869)">
<title>resourceEngagement</title>
<polygon fill="white" stroke="white" points="-4,5 -4,-869 777,-869 777,5 -4,5"/>
<g id="graph2" class="cluster"><title>clustercontextKey</title>
<polygon fill="ghostwhite" stroke="white" points="8,-803 8,-857 96,-857 96,-803 8,-803"/>
<text text-anchor="middle" x="52.1792" y="-839" font-family="Helvetica,sans-Serif" font-size="14.00">Parameters</text>
</g>
<g id="graph3" class="cluster"><title>clusterlearnerKey</title>
<polygon fill="ghostwhite" stroke="white" points="104,-803 104,-857 168,-857 168,-803 104,-803"/>
<text text-anchor="middle" x="136.127" y="-839" font-family="Helvetica,sans-Serif" font-size="14.00">Learner</text>
</g>
<g id="graph4" class="cluster"><title>clusterresourceInteractionKey</title>
<polygon fill="ghostwhite" stroke="white" points="176,-723 176,-857 321,-857 321,-723 176,-723"/>
<text text-anchor="middle" x="248.589" y="-839" font-family="Helvetica,sans-Serif" font-size="14.00">Resource Interaction</text>
</g>
<g id="graph5" class="cluster"><title>clusterlearningResourceKey</title>
<polygon fill="ghostwhite" stroke="white" points="329,-803 329,-857 463,-857 463,-803 329,-803"/>
<text text-anchor="middle" x="396.148" y="-839" font-family="Helvetica,sans-Serif" font-size="14.00">Learning Resource</text>
</g>
<!-- contextOverview -->
<g id="node2" class="node"><title>contextOverview</title>
<ellipse fill="black" stroke="black" cx="52" cy="-818" rx="7.2" ry="7.2"/>
</g>
<!-- resourceEngagementOverview -->
<g id="node4" class="node"><title>resourceEngagementOverview</title>
<a xlink:href="learner__Overview.svg">
<ellipse fill="#1442cc" stroke="#1442cc" cx="136" cy="-818" rx="7.2" ry="7.2"/>
</a>
</g>
<!-- createAgentsOverview -->
<g id="node6" class="node"><title>createAgentsOverview</title>
<a xlink:href="resourceInteraction__Overview.svg">
<ellipse fill="#6014cc" stroke="#6014cc" cx="248" cy="-818" rx="7.2" ry="7.2"/>
</a>
</g>
<!-- allLearnerInteractionsOverview -->
<g id="node7" class="node"><title>allLearnerInteractionsOverview</title>
<a xlink:href="resourceInteraction__Overview.svg">
<ellipse fill="#3814cc" stroke="#3814cc" cx="248" cy="-738" rx="7.2" ry="7.2"/>
</a>
</g>
<!-- createAgentsOverview&#45;&gt;allLearnerInteractionsOverview -->
<!-- encounteredResourceOverview -->
<g id="node10" class="node"><title>encounteredResourceOverview</title>
<a xlink:href="learningResource__Overview.svg">
<ellipse fill="#1419cc" stroke="#1419cc" cx="395" cy="-818" rx="7.2" ry="7.2"/>
</a>
</g>
<!-- learnerengagementRecord -->
<g id="node11" class="node"><title>learnerengagementRecord</title>
<polygon fill="white" stroke="none" points="651.249,-793.2 651.249,-842.8 770.751,-842.8 770.751,-793.2 651.249,-793.2"/>
<text text-anchor="middle" x="711" y="-824.8" font-family="Helvetica,sans-Serif" font-size="14.00">Engagement</text>
<polyline fill="none" stroke="none" points="651.249,-818 770.751,-818 "/>
<text text-anchor="middle" x="711" y="-800" font-family="Helvetica,sans-Serif" font-size="14.00">Found Resource</text>
</g>
<!-- engagementIdenticalNotEngagedTodayQuery -->
<g id="node22" class="node"><title>engagementIdenticalNotEngagedTodayQuery</title>
<polygon fill="#ccd8ff" stroke="#ccd8ff" points="569.264,-756 532.736,-756 520.736,-744 520.736,-732 532.736,-720 569.264,-720 581.264,-732 581.264,-744 569.264,-756"/>
<path fill="#ccd8ff" stroke="#ccd8ff" d="M532.736,-756C526.736,-756 520.736,-750 520.736,-744"/>
<path fill="#ccd8ff" stroke="#ccd8ff" d="M520.736,-732C520.736,-726 526.736,-720 532.736,-720"/>
<path fill="#ccd8ff" stroke="#ccd8ff" d="M569.264,-720C575.264,-720 581.264,-726 581.264,-732"/>
<path fill="#ccd8ff" stroke="#ccd8ff" d="M581.264,-744C581.264,-750 575.264,-756 569.264,-756"/>
<polyline fill="none" stroke="#ccd8ff" points="569.264,-756 532.736,-756 "/>
<path fill="none" stroke="#ccd8ff" d="M532.736,-756C526.736,-756 520.736,-750 520.736,-744"/>
<polyline fill="none" stroke="#ccd8ff" points="520.736,-744 520.736,-732 "/>
<path fill="none" stroke="#ccd8ff" d="M520.736,-732C520.736,-726 526.736,-720 532.736,-720"/>
<polyline fill="none" stroke="#ccd8ff" points="532.736,-720 569.264,-720 "/>
<path fill="none" stroke="#ccd8ff" d="M569.264,-720C575.264,-720 581.264,-726 581.264,-732"/>
<polyline fill="none" stroke="#ccd8ff" points="581.264,-732 581.264,-744 "/>
<path fill="none" stroke="#ccd8ff" d="M581.264,-744C581.264,-750 575.264,-756 569.264,-756"/>
<text text-anchor="middle" x="551" y="-732.4" font-family="Helvetica,sans-Serif" font-size="14.00">Is Not?</text>
</g>
<!-- learnerengagementRecord&#45;&gt;engagementIdenticalNotEngagedTodayQuery -->
<g id="edge60" class="edge"><title>learnerengagementRecord:learnerengagementfoundResource&#45;&gt;engagementIdenticalNotEngagedTodayQuery:ne</title>
<path fill="none" stroke="#1442cc" stroke-width="2" stroke-dasharray="1,5" d="M650,-806C642.087,-806 645.103,-797.036 639,-792 614.23,-771.56 596.795,-779.156 574.966,-761.404"/>
<ellipse fill="#1442cc" stroke="#1442cc" cx="571.964" cy="-758.686" rx="4.00002" ry="4.00002"/>
</g>
<!-- learnerlearningInterest -->
<g id="node12" class="node"><title>learnerlearningInterest</title>
<polygon fill="white" stroke="white" points="699.301,-396 578.699,-396 578.699,-360 699.301,-360 699.301,-396"/>
<text text-anchor="middle" x="639" y="-372.4" font-family="Helvetica,sans-Serif" font-size="14.00">Learning Interest</text>
</g>
<!-- learningInterestAddEfficacy -->
<g id="node41" class="node"><title>learningInterestAddEfficacy</title>
<polygon fill="#ccd8ff" stroke="#ccd8ff" points="618,-540 588,-540 576,-528 576,-516 588,-504 618,-504 630,-516 630,-528 618,-540"/>
<path fill="#ccd8ff" stroke="#ccd8ff" d="M588,-540C582,-540 576,-534 576,-528"/>
<path fill="#ccd8ff" stroke="#ccd8ff" d="M576,-516C576,-510 582,-504 588,-504"/>
<path fill="#ccd8ff" stroke="#ccd8ff" d="M618,-504C624,-504 630,-510 630,-516"/>
<path fill="#ccd8ff" stroke="#ccd8ff" d="M630,-528C630,-534 624,-540 618,-540"/>
<polyline fill="none" stroke="#ccd8ff" points="618,-540 588,-540 "/>
<path fill="none" stroke="#ccd8ff" d="M588,-540C582,-540 576,-534 576,-528"/>
<polyline fill="none" stroke="#ccd8ff" points="576,-528 576,-516 "/>
<path fill="none" stroke="#ccd8ff" d="M576,-516C576,-510 582,-504 588,-504"/>
<polyline fill="none" stroke="#ccd8ff" points="588,-504 618,-504 "/>
<path fill="none" stroke="#ccd8ff" d="M618,-504C624,-504 630,-510 630,-516"/>
<polyline fill="none" stroke="#ccd8ff" points="630,-516 630,-528 "/>
<path fill="none" stroke="#ccd8ff" d="M630,-528C630,-534 624,-540 618,-540"/>
<text text-anchor="middle" x="603" y="-516.4" font-family="Helvetica,sans-Serif" font-size="14.00">Add</text>
</g>
<!-- learnerlearningInterest&#45;&gt;learningInterestAddEfficacy -->
<g id="edge62" class="edge"><title>learnerlearningInterest&#45;&gt;learningInterestAddEfficacy:nw</title>
<path fill="none" stroke="#1442cc" stroke-width="2" stroke-dasharray="1,5" d="M626.425,-396.069C610.402,-419.136 583.842,-462.201 576,-504 568.997,-541.33 568.831,-553.53 578.828,-546.437"/>
<ellipse fill="#1442cc" stroke="#1442cc" cx="581.998" cy="-543.644" rx="4.00002" ry="4.00002"/>
</g>
<!-- learnerresourceEngagements -->
<g id="node13" class="node"><title>learnerresourceEngagements</title>
<polygon fill="white" stroke="white" points="772.149,-252 605.851,-252 605.851,-216 772.149,-216 772.149,-252"/>
<text text-anchor="middle" x="689" y="-228.4" font-family="Helvetica,sans-Serif" font-size="14.00">Resource Engagements</text>
</g>
<!-- incrementResourceEngagements -->
<g id="node23" class="node"><title>incrementResourceEngagements</title>
<polygon fill="#ccd8ff" stroke="#ccd8ff" points="725.186,-324 670.814,-324 658.814,-312 658.814,-300 670.814,-288 725.186,-288 737.186,-300 737.186,-312 725.186,-324"/>
<path fill="#ccd8ff" stroke="#ccd8ff" d="M670.814,-324C664.814,-324 658.814,-318 658.814,-312"/>
<path fill="#ccd8ff" stroke="#ccd8ff" d="M658.814,-300C658.814,-294 664.814,-288 670.814,-288"/>
<path fill="#ccd8ff" stroke="#ccd8ff" d="M725.186,-288C731.186,-288 737.186,-294 737.186,-300"/>
<path fill="#ccd8ff" stroke="#ccd8ff" d="M737.186,-312C737.186,-318 731.186,-324 725.186,-324"/>
<polyline fill="none" stroke="#ccd8ff" points="725.186,-324 670.814,-324 "/>
<path fill="none" stroke="#ccd8ff" d="M670.814,-324C664.814,-324 658.814,-318 658.814,-312"/>
<polyline fill="none" stroke="#ccd8ff" points="658.814,-312 658.814,-300 "/>
<path fill="none" stroke="#ccd8ff" d="M658.814,-300C658.814,-294 664.814,-288 670.814,-288"/>
<polyline fill="none" stroke="#ccd8ff" points="670.814,-288 725.186,-288 "/>
<path fill="none" stroke="#ccd8ff" d="M725.186,-288C731.186,-288 737.186,-294 737.186,-300"/>
<polyline fill="none" stroke="#ccd8ff" points="737.186,-300 737.186,-312 "/>
<path fill="none" stroke="#ccd8ff" d="M737.186,-312C737.186,-318 731.186,-324 725.186,-324"/>
<text text-anchor="middle" x="698" y="-300.4" font-family="Helvetica,sans-Serif" font-size="14.00">Increment</text>
</g>
<!-- learnerresourceEngagements&#45;&gt;incrementResourceEngagements -->
<g id="edge52" class="edge"><title>learnerresourceEngagements&#45;&gt;incrementResourceEngagements:nw</title>
<path fill="none" stroke="#1442cc" stroke-width="2" stroke-dasharray="1,5" d="M676.221,-252.147C669.635,-262.067 662.284,-275.107 658.876,-288 654.787,-303.469 647.833,-312.422 658.876,-324 663.234,-328.57 668.272,-330.45 673.124,-329.177"/>
<ellipse fill="#1442cc" stroke="#1442cc" cx="676.581" cy="-327.077" rx="4.00002" ry="4.00002"/>
</g>
<!-- resourceInteractionlearnerID -->
<g id="node14" class="node"><title>resourceInteractionlearnerID</title>
<polygon fill="white" stroke="white" points="472.108,-108 389.892,-108 389.892,-72 472.108,-72 472.108,-108"/>
<text text-anchor="middle" x="431" y="-84.4" font-family="Helvetica,sans-Serif" font-size="14.00">Learner ID</text>
</g>
<!-- learnerIDIdenticalLearnerIDQuery -->
<g id="node53" class="node"><title>learnerIDIdenticalLearnerIDQuery</title>
<polygon fill="#d5ccff" stroke="#d5ccff" points="553.448,-36 502.552,-36 490.552,-24 490.552,-12 502.552,-0 553.448,-0 565.448,-12 565.448,-24 553.448,-36"/>
<path fill="#d5ccff" stroke="#d5ccff" d="M502.552,-36C496.552,-36 490.552,-30 490.552,-24"/>
<path fill="#d5ccff" stroke="#d5ccff" d="M490.552,-12C490.552,-6 496.552,-0 502.552,-0"/>
<path fill="#d5ccff" stroke="#d5ccff" d="M553.448,-0C559.448,-0 565.448,-6 565.448,-12"/>
<path fill="#d5ccff" stroke="#d5ccff" d="M565.448,-24C565.448,-30 559.448,-36 553.448,-36"/>
<polyline fill="none" stroke="#d5ccff" points="553.448,-36 502.552,-36 "/>
<path fill="none" stroke="#d5ccff" d="M502.552,-36C496.552,-36 490.552,-30 490.552,-24"/>
<polyline fill="none" stroke="#d5ccff" points="490.552,-24 490.552,-12 "/>
<path fill="none" stroke="#d5ccff" d="M490.552,-12C490.552,-6 496.552,-0 502.552,-0"/>
<polyline fill="none" stroke="#d5ccff" points="502.552,-0 553.448,-0 "/>
<path fill="none" stroke="#d5ccff" d="M553.448,-0C559.448,-0 565.448,-6 565.448,-12"/>
<polyline fill="none" stroke="#d5ccff" points="565.448,-12 565.448,-24 "/>
<path fill="none" stroke="#d5ccff" d="M565.448,-24C565.448,-30 559.448,-36 553.448,-36"/>
<text text-anchor="middle" x="528" y="-12.4" font-family="Helvetica,sans-Serif" font-size="14.00">Identical?</text>
</g>
<!-- resourceInteractionlearnerID&#45;&gt;learnerIDIdenticalLearnerIDQuery -->
<g id="edge72" class="edge"><title>resourceInteractionlearnerID&#45;&gt;learnerIDIdenticalLearnerIDQuery:nw</title>
<path fill="none" stroke="#1442cc" stroke-width="2" stroke-dasharray="1,5" d="M462.333,-71.8844C475.583,-63.8503 490.913,-53.4731 503.857,-41.819"/>
<ellipse fill="#1442cc" stroke="#1442cc" cx="507.096" cy="-38.7508" rx="4.00002" ry="4.00002"/>
</g>
<!-- resourceInteractionresourceID -->
<g id="node15" class="node"><title>resourceInteractionresourceID</title>
<polygon fill="white" stroke="white" points="268.356,-36 175.644,-36 175.644,-0 268.356,-0 268.356,-36"/>
<text text-anchor="middle" x="222" y="-12.4" font-family="Helvetica,sans-Serif" font-size="14.00">Resource ID</text>
</g>
<!-- resourceIDIdenticalIDQuery -->
<g id="node34" class="node"><title>resourceIDIdenticalIDQuery</title>
<polygon fill="#d5ccff" stroke="#d5ccff" points="328.448,-468 277.552,-468 265.552,-456 265.552,-444 277.552,-432 328.448,-432 340.448,-444 340.448,-456 328.448,-468"/>
<path fill="#d5ccff" stroke="#d5ccff" d="M277.552,-468C271.552,-468 265.552,-462 265.552,-456"/>
<path fill="#d5ccff" stroke="#d5ccff" d="M265.552,-444C265.552,-438 271.552,-432 277.552,-432"/>
<path fill="#d5ccff" stroke="#d5ccff" d="M328.448,-432C334.448,-432 340.448,-438 340.448,-444"/>
<path fill="#d5ccff" stroke="#d5ccff" d="M340.448,-456C340.448,-462 334.448,-468 328.448,-468"/>
<polyline fill="none" stroke="#d5ccff" points="328.448,-468 277.552,-468 "/>
<path fill="none" stroke="#d5ccff" d="M277.552,-468C271.552,-468 265.552,-462 265.552,-456"/>
<polyline fill="none" stroke="#d5ccff" points="265.552,-456 265.552,-444 "/>
<path fill="none" stroke="#d5ccff" d="M265.552,-444C265.552,-438 271.552,-432 277.552,-432"/>
<polyline fill="none" stroke="#d5ccff" points="277.552,-432 328.448,-432 "/>
<path fill="none" stroke="#d5ccff" d="M328.448,-432C334.448,-432 340.448,-438 340.448,-444"/>
<polyline fill="none" stroke="#d5ccff" points="340.448,-444 340.448,-456 "/>
<path fill="none" stroke="#d5ccff" d="M340.448,-456C340.448,-462 334.448,-468 328.448,-468"/>
<text text-anchor="middle" x="303" y="-444.4" font-family="Helvetica,sans-Serif" font-size="14.00">Identical?</text>
</g>
<!-- resourceInteractionresourceID&#45;&gt;resourceIDIdenticalIDQuery -->
<g id="edge56" class="edge"><title>resourceInteractionresourceID&#45;&gt;resourceIDIdenticalIDQuery:nw</title>
<path fill="none" stroke="#1419cc" stroke-width="2" stroke-dasharray="1,5" d="M223.326,-36.0065C229.682,-117.038 257.046,-460.367 265.035,-468 269.15,-471.932 273.608,-473.815 277.932,-473.009"/>
<ellipse fill="#1419cc" stroke="#1419cc" cx="281.521" cy="-470.973" rx="4.00002" ry="4.00002"/>
</g>
<!-- learningResourceresourceID -->
<g id="node16" class="node"><title>learningResourceresourceID</title>
<polygon fill="white" stroke="white" points="269.356,-540 176.644,-540 176.644,-504 269.356,-504 269.356,-540"/>
<text text-anchor="middle" x="223" y="-516.4" font-family="Helvetica,sans-Serif" font-size="14.00">Resource ID</text>
</g>
<!-- resourceIDAddZero -->
<g id="node28" class="node"><title>resourceIDAddZero</title>
<polygon fill="#cccdff" stroke="#cccdff" points="200,-108 170,-108 158,-96 158,-84 170,-72 200,-72 212,-84 212,-96 200,-108"/>
<path fill="#cccdff" stroke="#cccdff" d="M170,-108C164,-108 158,-102 158,-96"/>
<path fill="#cccdff" stroke="#cccdff" d="M158,-84C158,-78 164,-72 170,-72"/>
<path fill="#cccdff" stroke="#cccdff" d="M200,-72C206,-72 212,-78 212,-84"/>
<path fill="#cccdff" stroke="#cccdff" d="M212,-96C212,-102 206,-108 200,-108"/>
<polyline fill="none" stroke="#cccdff" points="200,-108 170,-108 "/>
<path fill="none" stroke="#cccdff" d="M170,-108C164,-108 158,-102 158,-96"/>
<polyline fill="none" stroke="#cccdff" points="158,-96 158,-84 "/>
<path fill="none" stroke="#cccdff" d="M158,-84C158,-78 164,-72 170,-72"/>
<polyline fill="none" stroke="#cccdff" points="170,-72 200,-72 "/>
<path fill="none" stroke="#cccdff" d="M200,-72C206,-72 212,-78 212,-84"/>
<polyline fill="none" stroke="#cccdff" points="212,-84 212,-96 "/>
<path fill="none" stroke="#cccdff" d="M212,-96C212,-102 206,-108 200,-108"/>
<text text-anchor="middle" x="185" y="-84.4" font-family="Helvetica,sans-Serif" font-size="14.00">Add</text>
</g>
<!-- learningResourceresourceID&#45;&gt;resourceIDAddZero -->
<g id="edge76" class="edge"><title>learningResourceresourceID&#45;&gt;resourceIDAddZero:nw</title>
<path fill="none" stroke="#1419cc" stroke-width="2" stroke-dasharray="1,5" d="M198.879,-503.822C168.156,-479.73 119,-432.781 119,-379 119,-379 119,-379 119,-233 119,-176.279 124.378,-152.354 161.318,-113.8"/>
<ellipse fill="#1419cc" stroke="#1419cc" cx="164.201" cy="-110.857" rx="4.00002" ry="4.00002"/>
</g>
<!-- learningResourceresourceID&#45;&gt;resourceIDIdenticalIDQuery -->
<g id="edge58" class="edge"><title>learningResourceresourceID&#45;&gt;resourceIDIdenticalIDQuery:ne</title>
<path fill="none" stroke="#3814cc" stroke-width="2" stroke-dasharray="1,5" d="M269.358,-511.989C300.074,-504.323 333.422,-491.801 325.759,-474.564"/>
<ellipse fill="#3814cc" stroke="#3814cc" cx="323.348" cy="-471.238" rx="4.00002" ry="4.00002"/>
</g>
<!-- resourceInteractionstrength -->
<g id="node17" class="node"><title>resourceInteractionstrength</title>
<polygon fill="white" stroke="white" points="217.193,-252 148.807,-252 148.807,-216 217.193,-216 217.193,-252"/>
<text text-anchor="middle" x="183" y="-228.4" font-family="Helvetica,sans-Serif" font-size="14.00">Strength</text>
</g>
<!-- newStrength -->
<g id="node45" class="node"><title>newStrength</title>
<polygon fill="#d5ccff" stroke="#d5ccff" points="213.186,-324 158.814,-324 146.814,-312 146.814,-300 158.814,-288 213.186,-288 225.186,-300 225.186,-312 213.186,-324"/>
<path fill="#d5ccff" stroke="#d5ccff" d="M158.814,-324C152.814,-324 146.814,-318 146.814,-312"/>
<path fill="#d5ccff" stroke="#d5ccff" d="M146.814,-300C146.814,-294 152.814,-288 158.814,-288"/>
<path fill="#d5ccff" stroke="#d5ccff" d="M213.186,-288C219.186,-288 225.186,-294 225.186,-300"/>
<path fill="#d5ccff" stroke="#d5ccff" d="M225.186,-312C225.186,-318 219.186,-324 213.186,-324"/>
<polyline fill="none" stroke="#d5ccff" points="213.186,-324 158.814,-324 "/>
<path fill="none" stroke="#d5ccff" d="M158.814,-324C152.814,-324 146.814,-318 146.814,-312"/>
<polyline fill="none" stroke="#d5ccff" points="146.814,-312 146.814,-300 "/>
<path fill="none" stroke="#d5ccff" d="M146.814,-300C146.814,-294 152.814,-288 158.814,-288"/>
<polyline fill="none" stroke="#d5ccff" points="158.814,-288 213.186,-288 "/>
<path fill="none" stroke="#d5ccff" d="M213.186,-288C219.186,-288 225.186,-294 225.186,-300"/>
<polyline fill="none" stroke="#d5ccff" points="225.186,-300 225.186,-312 "/>
<path fill="none" stroke="#d5ccff" d="M225.186,-312C225.186,-318 219.186,-324 213.186,-324"/>
<text text-anchor="middle" x="186" y="-300.4" font-family="Helvetica,sans-Serif" font-size="14.00">Increment</text>
</g>
<!-- resourceInteractionstrength&#45;&gt;newStrength -->
<g id="edge66" class="edge"><title>resourceInteractionstrength&#45;&gt;newStrength:nw</title>
<path fill="none" stroke="#3814cc" stroke-width="2" stroke-dasharray="1,5" d="M167.337,-252.218C159.548,-261.958 150.945,-274.805 146.876,-288 142.161,-303.289 135.833,-312.422 146.876,-324 151.234,-328.57 156.272,-330.45 161.124,-329.177"/>
<ellipse fill="#3814cc" stroke="#3814cc" cx="164.581" cy="-327.077" rx="4.00002" ry="4.00002"/>
</g>
<!-- learningResourceefficacy -->
<g id="node18" class="node"><title>learningResourceefficacy</title>
<polygon fill="white" stroke="white" points="655.26,-612 590.74,-612 590.74,-576 655.26,-576 655.26,-612"/>
<text text-anchor="middle" x="623" y="-588.4" font-family="Helvetica,sans-Serif" font-size="14.00">Efficacy</text>
</g>
<!-- learningResourceefficacy&#45;&gt;learningInterestAddEfficacy -->
<g id="edge64" class="edge"><title>learningResourceefficacy&#45;&gt;learningInterestAddEfficacy:ne</title>
<path fill="none" stroke="#1419cc" stroke-width="2" stroke-dasharray="1,5" d="M627.755,-575.83C629.399,-566.675 629.915,-555.519 625.715,-546.73"/>
<ellipse fill="#1419cc" stroke="#1419cc" cx="623.295" cy="-543.276" rx="4.00002" ry="4.00002"/>
</g>
<!-- learnerlearnerID -->
<g id="node19" class="node"><title>learnerlearnerID</title>
<polygon fill="white" stroke="white" points="657.108,-108 574.892,-108 574.892,-72 657.108,-72 657.108,-108"/>
<text text-anchor="middle" x="616" y="-84.4" font-family="Helvetica,sans-Serif" font-size="14.00">Learner ID</text>
</g>
<!-- learnerlearnerID&#45;&gt;learnerIDIdenticalLearnerIDQuery -->
<g id="edge74" class="edge"><title>learnerlearnerID&#45;&gt;learnerIDIdenticalLearnerIDQuery:ne</title>
<path fill="none" stroke="#3814cc" stroke-width="2" stroke-dasharray="1,5" d="M590.02,-71.9186C578.149,-63.5821 564.042,-52.9179 551.827,-41.6008"/>
<ellipse fill="#3814cc" stroke="#3814cc" cx="548.884" cy="-38.772" rx="4.00002" ry="4.00002"/>
</g>
<!-- resourceEngagement -->
<g id="node20" class="node"><title>resourceEngagement</title>
<a xlink:href="learner_resourceEngagement.svg" xlink:title="Resource Engagement">
<polygon fill="#ccd8ff" stroke="#ccd8ff" points="618.399,-836 483.601,-836 471.601,-824 471.601,-812 483.601,-800 618.399,-800 630.399,-812 630.399,-824 618.399,-836"/>
<path fill="#ccd8ff" stroke="#ccd8ff" d="M483.601,-836C477.601,-836 471.601,-830 471.601,-824"/>
<path fill="#ccd8ff" stroke="#ccd8ff" d="M471.601,-812C471.601,-806 477.601,-800 483.601,-800"/>
<path fill="#ccd8ff" stroke="#ccd8ff" d="M618.399,-800C624.399,-800 630.399,-806 630.399,-812"/>
<path fill="#ccd8ff" stroke="#ccd8ff" d="M630.399,-824C630.399,-830 624.399,-836 618.399,-836"/>
<polyline fill="none" stroke="black" points="618.399,-836 483.601,-836 "/>
<path fill="none" stroke="black" d="M483.601,-836C477.601,-836 471.601,-830 471.601,-824"/>
<polyline fill="none" stroke="black" points="471.601,-824 471.601,-812 "/>
<path fill="none" stroke="black" d="M471.601,-812C471.601,-806 477.601,-800 483.601,-800"/>
<polyline fill="none" stroke="black" points="483.601,-800 618.399,-800 "/>
<path fill="none" stroke="black" d="M618.399,-800C624.399,-800 630.399,-806 630.399,-812"/>
<polyline fill="none" stroke="black" points="630.399,-812 630.399,-824 "/>
<path fill="none" stroke="black" d="M630.399,-824C630.399,-830 624.399,-836 618.399,-836"/>
<text text-anchor="middle" x="551" y="-812.4" font-family="Helvetica,sans-Serif" font-size="14.00">Resource Engagement</text>
</a>
</g>
<!-- resourceEngagement&#45;&gt;engagementIdenticalNotEngagedTodayQuery -->
<g id="edge8" class="edge"><title>resourceEngagement&#45;&gt;engagementIdenticalNotEngagedTodayQuery</title>
<path fill="none" stroke="#1442cc" stroke-width="3" d="M551,-799.689C551,-792.822 551,-784.64 551,-776.542"/>
<polygon fill="#1442cc" stroke="#1442cc" points="558,-776.262 551,-756.262 544,-776.262 558,-776.262"/>
</g>
<!-- encounteredResource -->
<g id="node43" class="node"><title>encounteredResource</title>
<polygon fill="#cccdff" stroke="#cccdff" points="608.399,-684 473.601,-684 461.601,-672 461.601,-660 473.601,-648 608.399,-648 620.399,-660 620.399,-672 608.399,-684"/>
<path fill="#cccdff" stroke="#cccdff" d="M473.601,-684C467.601,-684 461.601,-678 461.601,-672"/>
<path fill="#cccdff" stroke="#cccdff" d="M461.601,-660C461.601,-654 467.601,-648 473.601,-648"/>
<path fill="#cccdff" stroke="#cccdff" d="M608.399,-648C614.399,-648 620.399,-654 620.399,-660"/>
<path fill="#cccdff" stroke="#cccdff" d="M620.399,-672C620.399,-678 614.399,-684 608.399,-684"/>
<polyline fill="none" stroke="gray" points="608.399,-684 473.601,-684 "/>
<path fill="none" stroke="gray" d="M473.601,-684C467.601,-684 461.601,-678 461.601,-672"/>
<polyline fill="none" stroke="gray" points="461.601,-672 461.601,-660 "/>
<path fill="none" stroke="gray" d="M461.601,-660C461.601,-654 467.601,-648 473.601,-648"/>
<polyline fill="none" stroke="gray" points="473.601,-648 608.399,-648 "/>
<path fill="none" stroke="gray" d="M608.399,-648C614.399,-648 620.399,-654 620.399,-660"/>
<polyline fill="none" stroke="gray" points="620.399,-660 620.399,-672 "/>
<path fill="none" stroke="gray" d="M620.399,-672C620.399,-678 614.399,-684 608.399,-684"/>
<text text-anchor="middle" x="541" y="-660.4" font-family="Helvetica,sans-Serif" font-size="14.00">Encountered Resource</text>
</g>
<!-- engagementIdenticalNotEngagedTodayQuery&#45;&gt;encounteredResource -->
<g id="edge28" class="edge"><title>engagementIdenticalNotEngagedTodayQuery&#45;&gt;encounteredResource</title>
<path fill="none" stroke="#1442cc" stroke-width="3" d="M548.528,-719.697C547.838,-714.865 547.06,-709.422 546.274,-703.917"/>
<polygon fill="#1442cc" stroke="#1442cc" points="553.202,-702.913 543.443,-684.104 539.342,-704.893 553.202,-702.913"/>
</g>
<!-- incrementResourceEngagements&#45;&gt;learnerengagementRecord -->
<g id="edge10" class="edge"><title>incrementResourceEngagements&#45;&gt;learnerengagementRecord:learnerengagementfoundResource</title>
<path fill="none" stroke="#1442cc" stroke-width="3" d="M704.476,-324.207C713.826,-350.639 730,-403.007 730,-449 730,-667 730,-667 730,-667 730,-715.84 715.647,-731.759 711.891,-771.983"/>
<polygon fill="#1442cc" stroke="#1442cc" points="704.896,-771.708 711,-792 718.882,-772.331 704.896,-771.708"/>
</g>
<!-- incrementResourceEngagements&#45;&gt;learnerresourceEngagements -->
<g id="edge12" class="edge"><title>incrementResourceEngagements&#45;&gt;learnerresourceEngagements</title>
<path fill="none" stroke="#1442cc" stroke-width="3" d="M695.775,-287.697C695.165,-282.95 694.479,-277.613 693.784,-272.206"/>
<polygon fill="#1442cc" stroke="#1442cc" points="700.693,-271.048 691.199,-252.104 686.807,-272.834 700.693,-271.048"/>
</g>
<!-- setLearnerIDToLearnerID -->
<g id="node26" class="node"><title>setLearnerIDToLearnerID</title>
<polygon fill="#e1ccff" stroke="#e1ccff" points="391,-180 361,-180 349,-168 349,-156 361,-144 391,-144 403,-156 403,-168 391,-180"/>
<path fill="#e1ccff" stroke="#e1ccff" d="M361,-180C355,-180 349,-174 349,-168"/>
<path fill="#e1ccff" stroke="#e1ccff" d="M349,-156C349,-150 355,-144 361,-144"/>
<path fill="#e1ccff" stroke="#e1ccff" d="M391,-144C397,-144 403,-150 403,-156"/>
<path fill="#e1ccff" stroke="#e1ccff" d="M403,-168C403,-174 397,-180 391,-180"/>
<polyline fill="none" stroke="#e1ccff" points="391,-180 361,-180 "/>
<path fill="none" stroke="#e1ccff" d="M361,-180C355,-180 349,-174 349,-168"/>
<polyline fill="none" stroke="#e1ccff" points="349,-168 349,-156 "/>
<path fill="none" stroke="#e1ccff" d="M349,-156C349,-150 355,-144 361,-144"/>
<polyline fill="none" stroke="#e1ccff" points="361,-144 391,-144 "/>
<path fill="none" stroke="#e1ccff" d="M391,-144C397,-144 403,-150 403,-156"/>
<polyline fill="none" stroke="#e1ccff" points="403,-156 403,-168 "/>
<path fill="none" stroke="#e1ccff" d="M403,-168C403,-174 397,-180 391,-180"/>
<text text-anchor="middle" x="376" y="-156.4" font-family="Helvetica,sans-Serif" font-size="14.00">Set</text>
</g>
<!-- setLearnerIDToLearnerID&#45;&gt;resourceInteractionlearnerID -->
<g id="edge20" class="edge"><title>setLearnerIDToLearnerID&#45;&gt;resourceInteractionlearnerID</title>
<path fill="none" stroke="#6014cc" stroke-width="3" d="M389.596,-143.697C394.324,-137.678 399.798,-130.712 405.184,-123.856"/>
<polygon fill="#6014cc" stroke="#6014cc" points="410.709,-128.155 417.561,-108.104 399.7,-119.506 410.709,-128.155"/>
</g>
<!-- setLearnerIDToLearnerID&#45;&gt;resourceIDAddZero -->
<g id="edge14" class="edge"><title>setLearnerIDToLearnerID&#45;&gt;resourceIDAddZero</title>
<path fill="none" stroke="#6014cc" stroke-width="3" d="M348.634,-150.971C317.912,-139.711 267.559,-121.257 230.811,-107.789"/>
<polygon fill="#6014cc" stroke="#6014cc" points="233.194,-101.207 212.006,-100.898 228.376,-114.352 233.194,-101.207"/>
</g>
<!-- resourceIDAddZero&#45;&gt;resourceInteractionresourceID -->
<g id="edge50" class="edge"><title>resourceIDAddZero&#45;&gt;resourceInteractionresourceID</title>
<path fill="none" stroke="#6014cc" stroke-width="3" d="M194.146,-71.6966C197.014,-66.2715 200.288,-60.0765 203.56,-53.8862"/>
<polygon fill="#6014cc" stroke="#6014cc" points="209.802,-57.0574 212.959,-36.1043 197.424,-50.5151 209.802,-57.0574"/>
</g>
<!-- not__Or__And_NeighborQueryCopyCopyCopyCopy_ -->
<g id="node29" class="node"><title>not__Or__And_NeighborQueryCopyCopyCopyCopy_</title>
<polygon fill="#d5ccff" stroke="#d5ccff" points="344,-324 314,-324 302,-312 302,-300 314,-288 344,-288 356,-300 356,-312 344,-324"/>
<path fill="#d5ccff" stroke="#d5ccff" d="M314,-324C308,-324 302,-318 302,-312"/>
<path fill="#d5ccff" stroke="#d5ccff" d="M302,-300C302,-294 308,-288 314,-288"/>
<path fill="#d5ccff" stroke="#d5ccff" d="M344,-288C350,-288 356,-294 356,-300"/>
<path fill="#d5ccff" stroke="#d5ccff" d="M356,-312C356,-318 350,-324 344,-324"/>
<polyline fill="none" stroke="#d5ccff" points="344,-324 314,-324 "/>
<path fill="none" stroke="#d5ccff" d="M314,-324C308,-324 302,-318 302,-312"/>
<polyline fill="none" stroke="#d5ccff" points="302,-312 302,-300 "/>
<path fill="none" stroke="#d5ccff" d="M302,-300C302,-294 308,-288 314,-288"/>
<polyline fill="none" stroke="#d5ccff" points="314,-288 344,-288 "/>
<path fill="none" stroke="#d5ccff" d="M344,-288C350,-288 356,-294 356,-300"/>
<polyline fill="none" stroke="#d5ccff" points="356,-300 356,-312 "/>
<path fill="none" stroke="#d5ccff" d="M356,-312C356,-318 350,-324 344,-324"/>
<text text-anchor="middle" x="329" y="-300.4" font-family="Helvetica,sans-Serif" font-size="14.00">Else</text>
</g>
<!-- createAgents -->
<g id="node31" class="node"><title>createAgents</title>
<polygon fill="#e1ccff" stroke="#e1ccff" points="369.049,-252 288.951,-252 276.951,-240 276.951,-228 288.951,-216 369.049,-216 381.049,-228 381.049,-240 369.049,-252"/>
<path fill="#e1ccff" stroke="#e1ccff" d="M288.951,-252C282.951,-252 276.951,-246 276.951,-240"/>
<path fill="#e1ccff" stroke="#e1ccff" d="M276.951,-228C276.951,-222 282.951,-216 288.951,-216"/>
<path fill="#e1ccff" stroke="#e1ccff" d="M369.049,-216C375.049,-216 381.049,-222 381.049,-228"/>
<path fill="#e1ccff" stroke="#e1ccff" d="M381.049,-240C381.049,-246 375.049,-252 369.049,-252"/>
<polyline fill="none" stroke="gray" points="369.049,-252 288.951,-252 "/>
<path fill="none" stroke="gray" d="M288.951,-252C282.951,-252 276.951,-246 276.951,-240"/>
<polyline fill="none" stroke="gray" points="276.951,-240 276.951,-228 "/>
<path fill="none" stroke="gray" d="M276.951,-228C276.951,-222 282.951,-216 288.951,-216"/>
<polyline fill="none" stroke="gray" points="288.951,-216 369.049,-216 "/>
<path fill="none" stroke="gray" d="M369.049,-216C375.049,-216 381.049,-222 381.049,-228"/>
<polyline fill="none" stroke="gray" points="381.049,-228 381.049,-240 "/>
<path fill="none" stroke="gray" d="M381.049,-240C381.049,-246 375.049,-252 369.049,-252"/>
<text text-anchor="middle" x="329" y="-228.4" font-family="Helvetica,sans-Serif" font-size="14.00">Create Agents</text>
</g>
<!-- not__Or__And_NeighborQueryCopyCopyCopyCopy_&#45;&gt;createAgents -->
<g id="edge16" class="edge"><title>not__Or__And_NeighborQueryCopyCopyCopyCopy_&#45;&gt;createAgents</title>
<path fill="none" stroke="#3814cc" stroke-width="3" d="M329,-287.697C329,-282.95 329,-277.613 329,-272.206"/>
<polygon fill="#3814cc" stroke="#3814cc" points="336,-272.104 329,-252.104 322,-272.104 336,-272.104"/>
</g>
<!-- createAgents&#45;&gt;setLearnerIDToLearnerID -->
<g id="edge18" class="edge"><title>createAgents&#45;&gt;setLearnerIDToLearnerID</title>
<path fill="none" stroke="#6014cc" stroke-width="3" d="M340.618,-215.697C344.488,-209.932 348.942,-203.299 353.356,-196.726"/>
<polygon fill="#6014cc" stroke="#6014cc" points="359.178,-200.611 364.516,-180.104 347.555,-192.807 359.178,-200.611"/>
</g>
<!-- _And_NeighborQueryCopyCopyCopyCopy -->
<g id="node36" class="node"><title>_And_NeighborQueryCopyCopyCopyCopy</title>
<polygon fill="#d5ccff" stroke="#d5ccff" points="344,-396 314,-396 302,-384 302,-372 314,-360 344,-360 356,-372 356,-384 344,-396"/>
<path fill="#d5ccff" stroke="#d5ccff" d="M314,-396C308,-396 302,-390 302,-384"/>
<path fill="#d5ccff" stroke="#d5ccff" d="M302,-372C302,-366 308,-360 314,-360"/>
<path fill="#d5ccff" stroke="#d5ccff" d="M344,-360C350,-360 356,-366 356,-372"/>
<path fill="#d5ccff" stroke="#d5ccff" d="M356,-384C356,-390 350,-396 344,-396"/>
<polyline fill="none" stroke="#d5ccff" points="344,-396 314,-396 "/>
<path fill="none" stroke="#d5ccff" d="M314,-396C308,-396 302,-390 302,-384"/>
<polyline fill="none" stroke="#d5ccff" points="302,-384 302,-372 "/>
<path fill="none" stroke="#d5ccff" d="M302,-372C302,-366 308,-360 314,-360"/>
<polyline fill="none" stroke="#d5ccff" points="314,-360 344,-360 "/>
<path fill="none" stroke="#d5ccff" d="M344,-360C350,-360 356,-366 356,-372"/>
<polyline fill="none" stroke="#d5ccff" points="356,-372 356,-384 "/>
<path fill="none" stroke="#d5ccff" d="M356,-384C356,-390 350,-396 344,-396"/>
<text text-anchor="middle" x="329" y="-372.4" font-family="Helvetica,sans-Serif" font-size="14.00">And</text>
</g>
<!-- resourceIDIdenticalIDQuery&#45;&gt;_And_NeighborQueryCopyCopyCopyCopy -->
<g id="edge22" class="edge"><title>resourceIDIdenticalIDQuery&#45;&gt;_And_NeighborQueryCopyCopyCopyCopy</title>
<path fill="none" stroke="#3814cc" stroke-width="3" d="M309.427,-431.697C311.316,-426.611 313.457,-420.848 315.611,-415.047"/>
<polygon fill="#3814cc" stroke="#3814cc" points="322.245,-417.29 322.647,-396.104 309.121,-412.416 322.245,-417.29"/>
</g>
<!-- _And_NeighborQueryCopyCopyCopyCopy&#45;&gt;incrementResourceEngagements -->
<g id="edge34" class="edge"><title>_And_NeighborQueryCopyCopyCopyCopy&#45;&gt;incrementResourceEngagements</title>
<path fill="none" stroke="#3814cc" stroke-width="3" d="M356.133,-371.853C415.54,-360.583 558.262,-333.509 639.265,-318.142"/>
<polygon fill="#3814cc" stroke="#3814cc" points="640.575,-325.019 658.92,-314.414 637.966,-311.264 640.575,-325.019"/>
</g>
<!-- _And_NeighborQueryCopyCopyCopyCopy&#45;&gt;not__Or__And_NeighborQueryCopyCopyCopyCopy_ -->
<g id="edge32" class="edge"><title>_And_NeighborQueryCopyCopyCopyCopy&#45;&gt;not__Or__And_NeighborQueryCopyCopyCopyCopy_</title>
<path fill="none" stroke="#3814cc" stroke-width="3" d="M329,-359.697C329,-354.95 329,-349.613 329,-344.206"/>
<polygon fill="#3814cc" stroke="#3814cc" points="336,-344.104 329,-324.104 322,-344.104 336,-344.104"/>
</g>
<!-- _And_NeighborQueryCopyCopyCopyCopy&#45;&gt;newStrength -->
<g id="edge30" class="edge"><title>_And_NeighborQueryCopyCopyCopyCopy&#45;&gt;newStrength</title>
<path fill="none" stroke="#3814cc" stroke-width="3" d="M301.766,-363.669C283.966,-354.956 260.132,-343.288 238.717,-332.806"/>
<polygon fill="#3814cc" stroke="#3814cc" points="241.774,-326.508 220.733,-324.002 235.619,-339.083 241.774,-326.508"/>
</g>
<!-- neighborQueryCopyCopyCopy -->
<g id="node37" class="node"><title>neighborQueryCopyCopyCopy</title>
<polygon fill="#cccdff" stroke="#cccdff" points="560.111,-612 511.889,-612 499.889,-600 499.889,-588 511.889,-576 560.111,-576 572.111,-588 572.111,-600 560.111,-612"/>
<path fill="#cccdff" stroke="#cccdff" d="M511.889,-612C505.889,-612 499.889,-606 499.889,-600"/>
<path fill="#cccdff" stroke="#cccdff" d="M499.889,-588C499.889,-582 505.889,-576 511.889,-576"/>
<path fill="#cccdff" stroke="#cccdff" d="M560.111,-576C566.111,-576 572.111,-582 572.111,-588"/>
<path fill="#cccdff" stroke="#cccdff" d="M572.111,-600C572.111,-606 566.111,-612 560.111,-612"/>
<polyline fill="none" stroke="#cccdff" points="560.111,-612 511.889,-612 "/>
<path fill="none" stroke="#cccdff" d="M511.889,-612C505.889,-612 499.889,-606 499.889,-600"/>
<polyline fill="none" stroke="#cccdff" points="499.889,-600 499.889,-588 "/>
<path fill="none" stroke="#cccdff" d="M499.889,-588C499.889,-582 505.889,-576 511.889,-576"/>
<polyline fill="none" stroke="#cccdff" points="511.889,-576 560.111,-576 "/>
<path fill="none" stroke="#cccdff" d="M560.111,-576C566.111,-576 572.111,-582 572.111,-588"/>
<polyline fill="none" stroke="#cccdff" points="572.111,-588 572.111,-600 "/>
<path fill="none" stroke="#cccdff" d="M572.111,-600C572.111,-606 566.111,-612 560.111,-612"/>
<text text-anchor="middle" x="536" y="-588.4" font-family="Helvetica,sans-Serif" font-size="14.00">Neighbor</text>
</g>
<!-- allLearnerInteractions -->
<g id="node39" class="node"><title>allLearnerInteractions</title>
<polygon fill="#d5ccff" stroke="#d5ccff" points="545.474,-540 410.526,-540 398.526,-528 398.526,-516 410.526,-504 545.474,-504 557.474,-516 557.474,-528 545.474,-540"/>
<path fill="#d5ccff" stroke="#d5ccff" d="M410.526,-540C404.526,-540 398.526,-534 398.526,-528"/>
<path fill="#d5ccff" stroke="#d5ccff" d="M398.526,-516C398.526,-510 404.526,-504 410.526,-504"/>
<path fill="#d5ccff" stroke="#d5ccff" d="M545.474,-504C551.474,-504 557.474,-510 557.474,-516"/>
<path fill="#d5ccff" stroke="#d5ccff" d="M557.474,-528C557.474,-534 551.474,-540 545.474,-540"/>
<polyline fill="none" stroke="gray" points="545.474,-540 410.526,-540 "/>
<path fill="none" stroke="gray" d="M410.526,-540C404.526,-540 398.526,-534 398.526,-528"/>
<polyline fill="none" stroke="gray" points="398.526,-528 398.526,-516 "/>
<path fill="none" stroke="gray" d="M398.526,-516C398.526,-510 404.526,-504 410.526,-504"/>
<polyline fill="none" stroke="gray" points="410.526,-504 545.474,-504 "/>
<path fill="none" stroke="gray" d="M545.474,-504C551.474,-504 557.474,-510 557.474,-516"/>
<polyline fill="none" stroke="gray" points="557.474,-516 557.474,-528 "/>
<path fill="none" stroke="gray" d="M557.474,-528C557.474,-534 551.474,-540 545.474,-540"/>
<text text-anchor="middle" x="478" y="-516.4" font-family="Helvetica,sans-Serif" font-size="14.00">All Learner Interactions</text>
</g>
<!-- neighborQueryCopyCopyCopy&#45;&gt;allLearnerInteractions -->
<g id="edge24" class="edge"><title>neighborQueryCopyCopyCopy&#45;&gt;allLearnerInteractions</title>
<path fill="none" stroke="#1419cc" stroke-width="3" d="M521.663,-575.697C516.606,-569.593 510.742,-562.516 504.984,-555.567"/>
<polygon fill="#1419cc" stroke="#1419cc" points="510.323,-551.039 492.172,-540.104 499.542,-559.971 510.323,-551.039"/>
</g>
<!-- neighborQueryCopyCopyCopy&#45;&gt;learningInterestAddEfficacy -->
<g id="edge26" class="edge"><title>neighborQueryCopyCopyCopy&#45;&gt;learningInterestAddEfficacy</title>
<path fill="none" stroke="#1419cc" stroke-width="3" d="M552.562,-575.697C558.647,-569.339 565.744,-561.924 572.66,-554.699"/>
<polygon fill="#1419cc" stroke="#1419cc" points="577.856,-559.393 586.629,-540.104 567.743,-549.713 577.856,-559.393"/>
</g>
<!-- allLearnerInteractions&#45;&gt;resourceIDIdenticalIDQuery -->
<g id="edge46" class="edge"><title>allLearnerInteractions&#45;&gt;resourceIDIdenticalIDQuery</title>
<path fill="none" stroke="#3814cc" stroke-width="3" d="M435.19,-503.876C412.355,-494.742 383.968,-483.387 359.361,-473.544"/>
<polygon fill="#3814cc" stroke="#3814cc" points="361.783,-466.974 340.614,-466.046 356.584,-479.973 361.783,-466.974"/>
</g>
<!-- allLearnerInteractions&#45;&gt;learnerIDIdenticalLearnerIDQuery -->
<g id="edge48" class="edge"><title>allLearnerInteractions&#45;&gt;learnerIDIdenticalLearnerIDQuery</title>
<path fill="none" stroke="#3814cc" stroke-width="3" d="M492.633,-503.93C512.887,-478.496 547,-428.336 547,-379 547,-379 547,-379 547,-161 547,-125.281 541.021,-84.9504 535.771,-56.4229"/>
<polygon fill="#3814cc" stroke="#3814cc" points="542.56,-54.669 531.845,-36.3884 528.822,-57.3613 542.56,-54.669"/>
</g>
<!-- minimum_LearningInterestAddEfficacyUnit_ -->
<g id="node50" class="node"><title>minimum_LearningInterestAddEfficacyUnit_</title>
<polygon fill="#ccd8ff" stroke="#ccd8ff" points="680.926,-468 625.074,-468 613.074,-456 613.074,-444 625.074,-432 680.926,-432 692.926,-444 692.926,-456 680.926,-468"/>
<path fill="#ccd8ff" stroke="#ccd8ff" d="M625.074,-468C619.074,-468 613.074,-462 613.074,-456"/>
<path fill="#ccd8ff" stroke="#ccd8ff" d="M613.074,-444C613.074,-438 619.074,-432 625.074,-432"/>
<path fill="#ccd8ff" stroke="#ccd8ff" d="M680.926,-432C686.926,-432 692.926,-438 692.926,-444"/>
<path fill="#ccd8ff" stroke="#ccd8ff" d="M692.926,-456C692.926,-462 686.926,-468 680.926,-468"/>
<polyline fill="none" stroke="#ccd8ff" points="680.926,-468 625.074,-468 "/>
<path fill="none" stroke="#ccd8ff" d="M625.074,-468C619.074,-468 613.074,-462 613.074,-456"/>
<polyline fill="none" stroke="#ccd8ff" points="613.074,-456 613.074,-444 "/>
<path fill="none" stroke="#ccd8ff" d="M613.074,-444C613.074,-438 619.074,-432 625.074,-432"/>
<polyline fill="none" stroke="#ccd8ff" points="625.074,-432 680.926,-432 "/>
<path fill="none" stroke="#ccd8ff" d="M680.926,-432C686.926,-432 692.926,-438 692.926,-444"/>
<polyline fill="none" stroke="#ccd8ff" points="692.926,-444 692.926,-456 "/>
<path fill="none" stroke="#ccd8ff" d="M692.926,-456C692.926,-462 686.926,-468 680.926,-468"/>
<text text-anchor="middle" x="653" y="-444.4" font-family="Helvetica,sans-Serif" font-size="14.00">Minimum?</text>
</g>
<!-- learningInterestAddEfficacy&#45;&gt;minimum_LearningInterestAddEfficacyUnit_ -->
<g id="edge38" class="edge"><title>learningInterestAddEfficacy&#45;&gt;minimum_LearningInterestAddEfficacyUnit_</title>
<path fill="none" stroke="#1442cc" stroke-width="3" d="M615.36,-503.697C619.537,-497.848 624.354,-491.104 629.117,-484.436"/>
<polygon fill="#1442cc" stroke="#1442cc" points="634.854,-488.448 640.783,-468.104 623.462,-480.31 634.854,-488.448"/>
</g>
<!-- learningInterestAddEfficacy&#45;&gt;minimum_LearningInterestAddEfficacyUnit_ -->
<g id="edge68" class="edge"><title>learningInterestAddEfficacy&#45;&gt;minimum_LearningInterestAddEfficacyUnit_:nw</title>
<path fill="none" stroke="blue" stroke-width="2" stroke-dasharray="1,5" d="M610.688,-503.795C615.23,-494.738 621.617,-483.592 629.397,-474.186"/>
<ellipse fill="blue" stroke="blue" cx="632.315" cy="-470.965" rx="4.00002" ry="4.00002"/>
</g>
<!-- encounteredResource&#45;&gt;neighborQueryCopyCopyCopy -->
<g id="edge36" class="edge"><title>encounteredResource&#45;&gt;neighborQueryCopyCopyCopy</title>
<path fill="none" stroke="#1419cc" stroke-width="3" d="M539.764,-647.697C539.425,-642.95 539.044,-637.613 538.658,-632.206"/>
<polygon fill="#1419cc" stroke="#1419cc" points="545.629,-631.555 537.222,-612.104 531.665,-632.552 545.629,-631.555"/>
</g>
<!-- newStrength&#45;&gt;resourceInteractionstrength -->
<g id="edge40" class="edge"><title>newStrength&#45;&gt;resourceInteractionstrength</title>
<path fill="none" stroke="#3814cc" stroke-width="3" d="M185.258,-287.697C185.055,-282.95 184.826,-277.613 184.595,-272.206"/>
<polygon fill="#3814cc" stroke="#3814cc" points="191.583,-271.786 183.733,-252.104 177.596,-272.386 191.583,-271.786"/>
</g>
<!-- minimum_LearningInterestAddEfficacyUnit_&#45;&gt;learnerlearningInterest -->
<g id="edge42" class="edge"><title>minimum_LearningInterestAddEfficacyUnit_&#45;&gt;learnerlearningInterest</title>
<path fill="none" stroke="#1442cc" stroke-width="3" d="M649.539,-431.697C648.573,-426.865 647.484,-421.422 646.383,-415.917"/>
<polygon fill="#1442cc" stroke="#1442cc" points="653.207,-414.343 642.421,-396.104 639.479,-417.089 653.207,-414.343"/>
</g>
<!-- learnerIDIdenticalLearnerIDQuery&#45;&gt;_And_NeighborQueryCopyCopyCopyCopy -->
<g id="edge44" class="edge"><title>learnerIDIdenticalLearnerIDQuery&#45;&gt;_And_NeighborQueryCopyCopyCopyCopy</title>
<path fill="none" stroke="#3814cc" stroke-width="3" d="M524.155,-36.3884C518.603,-63.0581 509,-115.732 509,-161 509,-235 509,-235 509,-235 509,-302.968 428.913,-343.443 375.579,-362.861"/>
<polygon fill="#3814cc" stroke="#3814cc" points="373.028,-356.335 356.338,-369.391 377.527,-369.592 373.028,-356.335"/>
</g>
<!-- importabcsetLearnerIDToLearnerIDlearnerlearnerID -->
<g id="node59" class="node"><title>importabcsetLearnerIDToLearnerIDlearnerlearnerID</title>
<text text-anchor="middle" x="440" y="-228.4" font-family="Helvetica,sans-Serif" font-size="14.00">Learner ID</text>
</g>
<!-- importabcsetLearnerIDToLearnerIDlearnerlearnerID&#45;&gt;setLearnerIDToLearnerID -->
<g id="edge54" class="edge"><title>importabcsetLearnerIDToLearnerIDlearnerlearnerID&#45;&gt;setLearnerIDToLearnerID:ne</title>
<path fill="none" stroke="black" stroke-width="2" stroke-dasharray="1,5" d="M426.082,-215.746C418.696,-206.853 409.187,-195.796 399.622,-185.764"/>
<ellipse fill="black" stroke="black" cx="396.793" cy="-182.863" rx="4.00002" ry="4.00002"/>
</g>
<!-- importxyxminimum_LearningInterestAddEfficacyUnit_functionsunit1 -->
<g id="node68" class="node"><title>importxyxminimum_LearningInterestAddEfficacyUnit_functionsunit1</title>
<text text-anchor="middle" x="675" y="-516.4" font-family="Helvetica,sans-Serif" font-size="14.00">1</text>
</g>
<!-- importxyxminimum_LearningInterestAddEfficacyUnit_functionsunit1&#45;&gt;minimum_LearningInterestAddEfficacyUnit_ -->
<g id="edge70" class="edge"><title>importxyxminimum_LearningInterestAddEfficacyUnit_functionsunit1&#45;&gt;minimum_LearningInterestAddEfficacyUnit_:ne</title>
<path fill="none" stroke="black" stroke-width="2" stroke-dasharray="1,5" d="M678.907,-503.842C680.132,-494.692 680.192,-483.538 675.804,-474.74"/>
<ellipse fill="black" stroke="black" cx="673.322" cy="-471.257" rx="4.00002" ry="4.00002"/>
</g>
<!-- importxyxresourceIDAddZerofunctionszero0 -->
<g id="node73" class="node"><title>importxyxresourceIDAddZerofunctionszero0</title>
<text text-anchor="middle" x="194" y="-156.4" font-family="Helvetica,sans-Serif" font-size="14.00">0</text>
</g>
<!-- importxyxresourceIDAddZerofunctionszero0&#45;&gt;resourceIDAddZero -->
<g id="edge78" class="edge"><title>importxyxresourceIDAddZerofunctionszero0&#45;&gt;resourceIDAddZero:ne</title>
<path fill="none" stroke="black" stroke-width="2" stroke-dasharray="1,5" d="M203.56,-143.907C207.561,-134.78 210.608,-123.637 207.344,-114.793"/>
<ellipse fill="black" stroke="black" cx="205.155" cy="-111.37" rx="4.00002" ry="4.00002"/>
</g>
</g>
</svg>
