<?xml version="1.0" encoding="UTF-8" standalone="no"?>
<!DOCTYPE svg PUBLIC "-//W3C//DTD SVG 1.1//EN"
 "http://www.w3.org/Graphics/SVG/1.1/DTD/svg11.dtd">
<!-- Generated by graphviz version 2.29.20110702.0445 (20110702.0445)
 -->
<!-- Title: learner Pages: 1 -->
<svg width="415pt" height="616pt"
 viewBox="0.00 0.00 415.00 616.00" xmlns="http://www.w3.org/2000/svg" xmlns:xlink="http://www.w3.org/1999/xlink">
<g id="graph1" class="graph" transform="scale(1 1) rotate(0) translate(4 612)">
<title>learner</title>
<polygon fill="white" stroke="white" points="-4,5 -4,-612 412,-612 412,5 -4,5"/>
<g id="graph2" class="cluster"><title>clusterWatch</title>
<polygon fill="ghostwhite" stroke="white" points="237,-524 237,-600 399,-600 399,-524 237,-524"/>
<text text-anchor="middle" x="264.582" y="-582" font-family="Helvetica,sans-Serif" font-size="14.00">Watch</text>
</g>
<g id="graph3" class="cluster"><title>clusterRule</title>
<polygon fill="ghostwhite" stroke="white" points="8,-8 8,-372 204,-372 204,-8 8,-8"/>
<text text-anchor="middle" x="33.8965" y="-354" font-family="Helvetica,sans-Serif" font-size="14.00">Rules</text>
</g>
<g id="graph4" class="cluster"><title>clusterInit</title>
<polygon fill="ghostwhite" stroke="white" points="89,-380 89,-600 229,-600 229,-380 89,-380"/>
<text text-anchor="middle" x="122.29" y="-582" font-family="Helvetica,sans-Serif" font-size="14.00">Initialize</text>
</g>
<!-- iteration -->
<g id="node1" class="node"><title>iteration</title>
<polygon fill="lightgray" stroke="lightgray" points="174,-340 144,-340 132,-328 132,-316 144,-304 174,-304 186,-316 186,-328 174,-340"/>
<path fill="lightgray" stroke="lightgray" d="M144,-340C138,-340 132,-334 132,-328"/>
<path fill="lightgray" stroke="lightgray" d="M132,-316C132,-310 138,-304 144,-304"/>
<path fill="lightgray" stroke="lightgray" d="M174,-304C180,-304 186,-310 186,-316"/>
<path fill="lightgray" stroke="lightgray" d="M186,-328C186,-334 180,-340 174,-340"/>
<polyline fill="none" stroke="black" points="174,-340 144,-340 "/>
<path fill="none" stroke="black" d="M144,-340C138,-340 132,-334 132,-328"/>
<polyline fill="none" stroke="black" points="132,-328 132,-316 "/>
<path fill="none" stroke="black" d="M132,-316C132,-310 138,-304 144,-304"/>
<polyline fill="none" stroke="black" points="144,-304 174,-304 "/>
<path fill="none" stroke="black" d="M174,-304C180,-304 186,-310 186,-316"/>
<polyline fill="none" stroke="black" points="186,-316 186,-328 "/>
<path fill="none" stroke="black" d="M186,-328C186,-334 180,-340 174,-340"/>
<text text-anchor="middle" x="159" y="-316.4" font-family="Helvetica,sans-Serif" font-size="14.00">Step</text>
</g>
<!-- findHome -->
<g id="node6" class="node"><title>findHome</title>
<a xlink:href="learner_findHome.svg" xlink:title="Find Home">
<polygon fill="#fff2cc" stroke="#fff2cc" points="153.352,-268 92.6478,-268 80.6478,-256 80.6478,-244 92.6478,-232 153.352,-232 165.352,-244 165.352,-256 153.352,-268"/>
<path fill="#fff2cc" stroke="#fff2cc" d="M92.6478,-268C86.6478,-268 80.6478,-262 80.6478,-256"/>
<path fill="#fff2cc" stroke="#fff2cc" d="M80.6478,-244C80.6478,-238 86.6478,-232 92.6478,-232"/>
<path fill="#fff2cc" stroke="#fff2cc" d="M153.352,-232C159.352,-232 165.352,-238 165.352,-244"/>
<path fill="#fff2cc" stroke="#fff2cc" d="M165.352,-256C165.352,-262 159.352,-268 153.352,-268"/>
<polyline fill="none" stroke="black" points="153.352,-268 92.6478,-268 "/>
<path fill="none" stroke="black" d="M92.6478,-268C86.6478,-268 80.6478,-262 80.6478,-256"/>
<polyline fill="none" stroke="black" points="80.6478,-256 80.6478,-244 "/>
<path fill="none" stroke="black" d="M80.6478,-244C80.6478,-238 86.6478,-232 92.6478,-232"/>
<polyline fill="none" stroke="black" points="92.6478,-232 153.352,-232 "/>
<path fill="none" stroke="black" d="M153.352,-232C159.352,-232 165.352,-238 165.352,-244"/>
<polyline fill="none" stroke="black" points="165.352,-244 165.352,-256 "/>
<path fill="none" stroke="black" d="M165.352,-256C165.352,-262 159.352,-268 153.352,-268"/>
<text text-anchor="middle" x="123" y="-244.4" font-family="Helvetica,sans-Serif" font-size="14.00">Find Home</text>
</a>
</g>
<!-- iteration&#45;&gt;findHome -->
<g id="edge4" class="edge"><title>iteration&#45;&gt;findHome</title>
<path fill="none" stroke="darkslategray" stroke-width="3" d="M150.101,-303.697C146.003,-295.728 141.051,-286.1 136.507,-277.264"/>
<polygon fill="darkslategray" stroke="darkslategray" points="139.483,-275.396 131.797,-268.104 133.258,-278.598 139.483,-275.396"/>
</g>
<!-- start -->
<g id="node2" class="node"><title>start</title>
<polygon fill="lightgray" stroke="lightgray" points="174,-568 144,-568 132,-556 132,-544 144,-532 174,-532 186,-544 186,-556 174,-568"/>
<path fill="lightgray" stroke="lightgray" d="M144,-568C138,-568 132,-562 132,-556"/>
<path fill="lightgray" stroke="lightgray" d="M132,-544C132,-538 138,-532 144,-532"/>
<path fill="lightgray" stroke="lightgray" d="M174,-532C180,-532 186,-538 186,-544"/>
<path fill="lightgray" stroke="lightgray" d="M186,-556C186,-562 180,-568 174,-568"/>
<polyline fill="none" stroke="black" points="174,-568 144,-568 "/>
<path fill="none" stroke="black" d="M144,-568C138,-568 132,-562 132,-556"/>
<polyline fill="none" stroke="black" points="132,-556 132,-544 "/>
<path fill="none" stroke="black" d="M132,-544C132,-538 138,-532 144,-532"/>
<polyline fill="none" stroke="black" points="144,-532 174,-532 "/>
<path fill="none" stroke="black" d="M174,-532C180,-532 186,-538 186,-544"/>
<polyline fill="none" stroke="black" points="186,-544 186,-556 "/>
<path fill="none" stroke="black" d="M186,-556C186,-562 180,-568 174,-568"/>
<text text-anchor="middle" x="159" y="-544.4" font-family="Helvetica,sans-Serif" font-size="14.00">Start</text>
</g>
<!-- initializeLocation -->
<g id="node12" class="node"><title>initializeLocation</title>
<a xlink:href="learner_initializeLocation.svg" xlink:title="Initialize Location">
<polygon fill="#e5ffcc" stroke="#e5ffcc" points="208.549,-496 109.451,-496 97.4509,-484 97.4509,-472 109.451,-460 208.549,-460 220.549,-472 220.549,-484 208.549,-496"/>
<path fill="#e5ffcc" stroke="#e5ffcc" d="M109.451,-496C103.451,-496 97.4509,-490 97.4509,-484"/>
<path fill="#e5ffcc" stroke="#e5ffcc" d="M97.4509,-472C97.4509,-466 103.451,-460 109.451,-460"/>
<path fill="#e5ffcc" stroke="#e5ffcc" d="M208.549,-460C214.549,-460 220.549,-466 220.549,-472"/>
<path fill="#e5ffcc" stroke="#e5ffcc" d="M220.549,-484C220.549,-490 214.549,-496 208.549,-496"/>
<polyline fill="none" stroke="black" points="208.549,-496 109.451,-496 "/>
<path fill="none" stroke="black" d="M109.451,-496C103.451,-496 97.4509,-490 97.4509,-484"/>
<polyline fill="none" stroke="black" points="97.4509,-484 97.4509,-472 "/>
<path fill="none" stroke="black" d="M97.4509,-472C97.4509,-466 103.451,-460 109.451,-460"/>
<polyline fill="none" stroke="black" points="109.451,-460 208.549,-460 "/>
<path fill="none" stroke="black" d="M208.549,-460C214.549,-460 220.549,-466 220.549,-472"/>
<polyline fill="none" stroke="black" points="220.549,-472 220.549,-484 "/>
<path fill="none" stroke="black" d="M220.549,-484C220.549,-490 214.549,-496 208.549,-496"/>
<text text-anchor="middle" x="159" y="-472.4" font-family="Helvetica,sans-Serif" font-size="14.00">Initialize Location</text>
</a>
</g>
<!-- start&#45;&gt;initializeLocation -->
<g id="edge11" class="edge"><title>start&#45;&gt;initializeLocation</title>
<path fill="none" stroke="darkslategray" stroke-width="3" d="M159,-531.697C159,-523.983 159,-514.712 159,-506.112"/>
<polygon fill="darkslategray" stroke="darkslategray" points="162.5,-506.104 159,-496.104 155.5,-506.104 162.5,-506.104"/>
</g>
<!-- deriveLearnerIndex -->
<g id="node4" class="node"><title>deriveLearnerIndex</title>
<a xlink:href="learner_deriveLearnerIndex.svg" xlink:title="Derive Learner Index">
<polygon fill="#ffcccc" stroke="#ffcccc" points="379.054,-568 256.946,-568 244.946,-556 244.946,-544 256.946,-532 379.054,-532 391.054,-544 391.054,-556 379.054,-568"/>
<path fill="#ffcccc" stroke="#ffcccc" d="M256.946,-568C250.946,-568 244.946,-562 244.946,-556"/>
<path fill="#ffcccc" stroke="#ffcccc" d="M244.946,-544C244.946,-538 250.946,-532 256.946,-532"/>
<path fill="#ffcccc" stroke="#ffcccc" d="M379.054,-532C385.054,-532 391.054,-538 391.054,-544"/>
<path fill="#ffcccc" stroke="#ffcccc" d="M391.054,-556C391.054,-562 385.054,-568 379.054,-568"/>
<polyline fill="none" stroke="black" points="379.054,-568 256.946,-568 "/>
<path fill="none" stroke="black" d="M256.946,-568C250.946,-568 244.946,-562 244.946,-556"/>
<polyline fill="none" stroke="black" points="244.946,-556 244.946,-544 "/>
<path fill="none" stroke="black" d="M244.946,-544C244.946,-538 250.946,-532 256.946,-532"/>
<polyline fill="none" stroke="black" points="256.946,-532 379.054,-532 "/>
<path fill="none" stroke="black" d="M379.054,-532C385.054,-532 391.054,-538 391.054,-544"/>
<polyline fill="none" stroke="black" points="391.054,-544 391.054,-556 "/>
<path fill="none" stroke="black" d="M391.054,-556C391.054,-562 385.054,-568 379.054,-568"/>
<text text-anchor="middle" x="318" y="-544.4" font-family="Helvetica,sans-Serif" font-size="14.00">Derive Learner Index</text>
</a>
</g>
<!-- movement -->
<g id="node7" class="node"><title>movement</title>
<a xlink:href="learner_movement.svg" xlink:title="Movement">
<polygon fill="#ccffff" stroke="#ccffff" points="133.518,-196 76.4819,-196 64.4819,-184 64.4819,-172 76.4819,-160 133.518,-160 145.518,-172 145.518,-184 133.518,-196"/>
<path fill="#ccffff" stroke="#ccffff" d="M76.4819,-196C70.4819,-196 64.4819,-190 64.4819,-184"/>
<path fill="#ccffff" stroke="#ccffff" d="M64.4819,-172C64.4819,-166 70.4819,-160 76.4819,-160"/>
<path fill="#ccffff" stroke="#ccffff" d="M133.518,-160C139.518,-160 145.518,-166 145.518,-172"/>
<path fill="#ccffff" stroke="#ccffff" d="M145.518,-184C145.518,-190 139.518,-196 133.518,-196"/>
<polyline fill="none" stroke="black" points="133.518,-196 76.4819,-196 "/>
<path fill="none" stroke="black" d="M76.4819,-196C70.4819,-196 64.4819,-190 64.4819,-184"/>
<polyline fill="none" stroke="black" points="64.4819,-184 64.4819,-172 "/>
<path fill="none" stroke="black" d="M64.4819,-172C64.4819,-166 70.4819,-160 76.4819,-160"/>
<polyline fill="none" stroke="black" points="76.4819,-160 133.518,-160 "/>
<path fill="none" stroke="black" d="M133.518,-160C139.518,-160 145.518,-166 145.518,-172"/>
<polyline fill="none" stroke="black" points="145.518,-172 145.518,-184 "/>
<path fill="none" stroke="black" d="M145.518,-184C145.518,-190 139.518,-196 133.518,-196"/>
<text text-anchor="middle" x="105" y="-172.4" font-family="Helvetica,sans-Serif" font-size="14.00">Movement</text>
</a>
</g>
<!-- findHome&#45;&gt;movement -->
<g id="edge5" class="edge"><title>findHome&#45;&gt;movement</title>
<path fill="none" stroke="darkslategray" stroke-width="3" d="M118.551,-231.697C116.545,-223.898 114.131,-214.509 111.899,-205.829"/>
<polygon fill="darkslategray" stroke="darkslategray" points="115.278,-204.918 109.398,-196.104 108.499,-206.661 115.278,-204.918"/>
</g>
<!-- resourceEngagement -->
<g id="node8" class="node"><title>resourceEngagement</title>
<a xlink:href="learner_resourceEngagement.svg" xlink:title="Resource Engagement">
<polygon fill="#ccd8ff" stroke="#ccd8ff" points="163.399,-124 28.6008,-124 16.6008,-112 16.6008,-100 28.6008,-88 163.399,-88 175.399,-100 175.399,-112 163.399,-124"/>
<path fill="#ccd8ff" stroke="#ccd8ff" d="M28.6008,-124C22.6008,-124 16.6008,-118 16.6008,-112"/>
<path fill="#ccd8ff" stroke="#ccd8ff" d="M16.6008,-100C16.6008,-94 22.6008,-88 28.6008,-88"/>
<path fill="#ccd8ff" stroke="#ccd8ff" d="M163.399,-88C169.399,-88 175.399,-94 175.399,-100"/>
<path fill="#ccd8ff" stroke="#ccd8ff" d="M175.399,-112C175.399,-118 169.399,-124 163.399,-124"/>
<polyline fill="none" stroke="black" points="163.399,-124 28.6008,-124 "/>
<path fill="none" stroke="black" d="M28.6008,-124C22.6008,-124 16.6008,-118 16.6008,-112"/>
<polyline fill="none" stroke="black" points="16.6008,-112 16.6008,-100 "/>
<path fill="none" stroke="black" d="M16.6008,-100C16.6008,-94 22.6008,-88 28.6008,-88"/>
<polyline fill="none" stroke="black" points="28.6008,-88 163.399,-88 "/>
<path fill="none" stroke="black" d="M163.399,-88C169.399,-88 175.399,-94 175.399,-100"/>
<polyline fill="none" stroke="black" points="175.399,-100 175.399,-112 "/>
<path fill="none" stroke="black" d="M175.399,-112C175.399,-118 169.399,-124 163.399,-124"/>
<text text-anchor="middle" x="96" y="-100.4" font-family="Helvetica,sans-Serif" font-size="14.00">Resource Engagement</text>
</a>
</g>
<!-- movement&#45;&gt;resourceEngagement -->
<g id="edge6" class="edge"><title>movement&#45;&gt;resourceEngagement</title>
<path fill="none" stroke="darkslategray" stroke-width="3" d="M102.775,-159.697C101.783,-151.983 100.592,-142.712 99.4859,-134.112"/>
<polygon fill="darkslategray" stroke="darkslategray" points="102.946,-133.576 98.1991,-124.104 96.003,-134.469 102.946,-133.576"/>
</g>
<!-- startDay -->
<g id="node9" class="node"><title>startDay</title>
<a xlink:href="learner_startDay.svg" xlink:title="Start Day">
<polygon fill="#e5ccff" stroke="#e5ccff" points="152.264,-52 101.736,-52 89.7359,-40 89.7359,-28 101.736,-16 152.264,-16 164.264,-28 164.264,-40 152.264,-52"/>
<path fill="#e5ccff" stroke="#e5ccff" d="M101.736,-52C95.7359,-52 89.7359,-46 89.7359,-40"/>
<path fill="#e5ccff" stroke="#e5ccff" d="M89.7359,-28C89.7359,-22 95.7359,-16 101.736,-16"/>
<path fill="#e5ccff" stroke="#e5ccff" d="M152.264,-16C158.264,-16 164.264,-22 164.264,-28"/>
<path fill="#e5ccff" stroke="#e5ccff" d="M164.264,-40C164.264,-46 158.264,-52 152.264,-52"/>
<polyline fill="none" stroke="black" points="152.264,-52 101.736,-52 "/>
<path fill="none" stroke="black" d="M101.736,-52C95.7359,-52 89.7359,-46 89.7359,-40"/>
<polyline fill="none" stroke="black" points="89.7359,-40 89.7359,-28 "/>
<path fill="none" stroke="black" d="M89.7359,-28C89.7359,-22 95.7359,-16 101.736,-16"/>
<polyline fill="none" stroke="black" points="101.736,-16 152.264,-16 "/>
<path fill="none" stroke="black" d="M152.264,-16C158.264,-16 164.264,-22 164.264,-28"/>
<polyline fill="none" stroke="black" points="164.264,-28 164.264,-40 "/>
<path fill="none" stroke="black" d="M164.264,-40C164.264,-46 158.264,-52 152.264,-52"/>
<text text-anchor="middle" x="127" y="-28.4" font-family="Helvetica,sans-Serif" font-size="14.00">Start Day</text>
</a>
</g>
<!-- resourceEngagement&#45;&gt;startDay -->
<g id="edge7" class="edge"><title>resourceEngagement&#45;&gt;startDay</title>
<path fill="none" stroke="darkslategray" stroke-width="3" d="M103.663,-87.6966C107.192,-79.7284 111.456,-70.0995 115.369,-61.2641"/>
<polygon fill="darkslategray" stroke="darkslategray" points="118.576,-62.6651 119.425,-52.1043 112.176,-59.8306 118.576,-62.6651"/>
</g>
<!-- startDay&#45;&gt;iteration -->
<g id="edge8" class="edge"><title>startDay&#45;&gt;iteration</title>
<path fill="none" stroke="darkslategray" stroke-width="3" d="M153.58,-52.0884C165.237,-61.1899 177.685,-73.506 184,-88 214.301,-157.551 187.194,-249.405 170.235,-294.168"/>
<polygon fill="darkslategray" stroke="darkslategray" points="166.875,-293.15 166.489,-303.738 173.393,-295.702 166.875,-293.15"/>
</g>
<!-- initializeState -->
<g id="node13" class="node"><title>initializeState</title>
<a xlink:href="learner_initializeState.svg" xlink:title="Initialize State">
<polygon fill="#ccffd8" stroke="#ccffd8" points="198.368,-424 119.632,-424 107.632,-412 107.632,-400 119.632,-388 198.368,-388 210.368,-400 210.368,-412 198.368,-424"/>
<path fill="#ccffd8" stroke="#ccffd8" d="M119.632,-424C113.632,-424 107.632,-418 107.632,-412"/>
<path fill="#ccffd8" stroke="#ccffd8" d="M107.632,-400C107.632,-394 113.632,-388 119.632,-388"/>
<path fill="#ccffd8" stroke="#ccffd8" d="M198.368,-388C204.368,-388 210.368,-394 210.368,-400"/>
<path fill="#ccffd8" stroke="#ccffd8" d="M210.368,-412C210.368,-418 204.368,-424 198.368,-424"/>
<polyline fill="none" stroke="black" points="198.368,-424 119.632,-424 "/>
<path fill="none" stroke="black" d="M119.632,-424C113.632,-424 107.632,-418 107.632,-412"/>
<polyline fill="none" stroke="black" points="107.632,-412 107.632,-400 "/>
<path fill="none" stroke="black" d="M107.632,-400C107.632,-394 113.632,-388 119.632,-388"/>
<polyline fill="none" stroke="black" points="119.632,-388 198.368,-388 "/>
<path fill="none" stroke="black" d="M198.368,-388C204.368,-388 210.368,-394 210.368,-400"/>
<polyline fill="none" stroke="black" points="210.368,-400 210.368,-412 "/>
<path fill="none" stroke="black" d="M210.368,-412C210.368,-418 204.368,-424 198.368,-424"/>
<text text-anchor="middle" x="159" y="-400.4" font-family="Helvetica,sans-Serif" font-size="14.00">Initialize State</text>
</a>
</g>
<!-- initializeLocation&#45;&gt;initializeState -->
<g id="edge12" class="edge"><title>initializeLocation&#45;&gt;initializeState</title>
<path fill="none" stroke="darkslategray" stroke-width="3" d="M159,-459.697C159,-451.983 159,-442.712 159,-434.112"/>
<polygon fill="darkslategray" stroke="darkslategray" points="162.5,-434.104 159,-424.104 155.5,-434.104 162.5,-434.104"/>
</g>
<!-- initializeState&#45;&gt;iteration -->
<g id="edge13" class="edge"><title>initializeState&#45;&gt;iteration</title>
<path fill="none" stroke="darkslategray" stroke-width="3" d="M159,-387.61C159,-376.774 159,-362.601 159,-350.291"/>
<polygon fill="darkslategray" stroke="darkslategray" points="162.5,-350.084 159,-340.084 155.5,-350.084 162.5,-350.084"/>
</g>
</g>
</svg>
