<?xml version="1.0" encoding="UTF-8" standalone="no"?>
<!DOCTYPE svg PUBLIC "-//W3C//DTD SVG 1.1//EN"
 "http://www.w3.org/Graphics/SVG/1.1/DTD/svg11.dtd">
<!-- Generated by graphviz version 2.29.20110702.0445 (20110702.0445)
 -->
<!-- Title: learningResource Pages: 1 -->
<svg width="144pt" height="388pt"
 viewBox="0.00 0.00 144.00 388.00" xmlns="http://www.w3.org/2000/svg" xmlns:xlink="http://www.w3.org/1999/xlink">
<g id="graph1" class="graph" transform="scale(1 1) rotate(0) translate(4 384)">
<title>learningResource</title>
<polygon fill="white" stroke="white" points="-4,5 -4,-384 141,-384 141,5 -4,5"/>
<g id="graph4" class="cluster"><title>clusterInit</title>
<polygon fill="ghostwhite" stroke="white" points="8,-8 8,-372 128,-372 128,-8 8,-8"/>
<text text-anchor="middle" x="41.2896" y="-354" font-family="Helvetica,sans-Serif" font-size="14.00">Initialize</text>
</g>
<!-- iteration -->
<g id="node1" class="node"><title>iteration</title>
<polygon fill="lightgray" stroke="lightgray" points="83,-52 53,-52 41,-40 41,-28 53,-16 83,-16 95,-28 95,-40 83,-52"/>
<path fill="lightgray" stroke="lightgray" d="M53,-52C47,-52 41,-46 41,-40"/>
<path fill="lightgray" stroke="lightgray" d="M41,-28C41,-22 47,-16 53,-16"/>
<path fill="lightgray" stroke="lightgray" d="M83,-16C89,-16 95,-22 95,-28"/>
<path fill="lightgray" stroke="lightgray" d="M95,-40C95,-46 89,-52 83,-52"/>
<polyline fill="none" stroke="black" points="83,-52 53,-52 "/>
<path fill="none" stroke="black" d="M53,-52C47,-52 41,-46 41,-40"/>
<polyline fill="none" stroke="black" points="41,-40 41,-28 "/>
<path fill="none" stroke="black" d="M41,-28C41,-22 47,-16 53,-16"/>
<polyline fill="none" stroke="black" points="53,-16 83,-16 "/>
<path fill="none" stroke="black" d="M83,-16C89,-16 95,-22 95,-28"/>
<polyline fill="none" stroke="black" points="95,-28 95,-40 "/>
<path fill="none" stroke="black" d="M95,-40C95,-46 89,-52 83,-52"/>
<text text-anchor="middle" x="68" y="-28.4" font-family="Helvetica,sans-Serif" font-size="14.00">Step</text>
</g>
<!-- start -->
<g id="node2" class="node"><title>start</title>
<polygon fill="lightgray" stroke="lightgray" points="83,-340 53,-340 41,-328 41,-316 53,-304 83,-304 95,-316 95,-328 83,-340"/>
<path fill="lightgray" stroke="lightgray" d="M53,-340C47,-340 41,-334 41,-328"/>
<path fill="lightgray" stroke="lightgray" d="M41,-316C41,-310 47,-304 53,-304"/>
<path fill="lightgray" stroke="lightgray" d="M83,-304C89,-304 95,-310 95,-316"/>
<path fill="lightgray" stroke="lightgray" d="M95,-328C95,-334 89,-340 83,-340"/>
<polyline fill="none" stroke="black" points="83,-340 53,-340 "/>
<path fill="none" stroke="black" d="M53,-340C47,-340 41,-334 41,-328"/>
<polyline fill="none" stroke="black" points="41,-328 41,-316 "/>
<path fill="none" stroke="black" d="M41,-316C41,-310 47,-304 53,-304"/>
<polyline fill="none" stroke="black" points="53,-304 83,-304 "/>
<path fill="none" stroke="black" d="M83,-304C89,-304 95,-310 95,-316"/>
<polyline fill="none" stroke="black" points="95,-316 95,-328 "/>
<path fill="none" stroke="black" d="M95,-328C95,-334 89,-340 83,-340"/>
<text text-anchor="middle" x="68" y="-316.4" font-family="Helvetica,sans-Serif" font-size="14.00">Start</text>
</g>
<!-- intializeNonFramework -->
<g id="node6" class="node"><title>intializeNonFramework</title>
<a xlink:href="learningResource_intializeNonFramework.svg" xlink:title="Initialize">
<polygon fill="#ccffff" stroke="#ccffff" points="88.9366,-268 47.0634,-268 35.0634,-256 35.0634,-244 47.0634,-232 88.9366,-232 100.937,-244 100.937,-256 88.9366,-268"/>
<path fill="#ccffff" stroke="#ccffff" d="M47.0634,-268C41.0634,-268 35.0634,-262 35.0634,-256"/>
<path fill="#ccffff" stroke="#ccffff" d="M35.0634,-244C35.0634,-238 41.0634,-232 47.0634,-232"/>
<path fill="#ccffff" stroke="#ccffff" d="M88.9366,-232C94.9366,-232 100.937,-238 100.937,-244"/>
<path fill="#ccffff" stroke="#ccffff" d="M100.937,-256C100.937,-262 94.9366,-268 88.9366,-268"/>
<polyline fill="none" stroke="black" points="88.9366,-268 47.0634,-268 "/>
<path fill="none" stroke="black" d="M47.0634,-268C41.0634,-268 35.0634,-262 35.0634,-256"/>
<polyline fill="none" stroke="black" points="35.0634,-256 35.0634,-244 "/>
<path fill="none" stroke="black" d="M35.0634,-244C35.0634,-238 41.0634,-232 47.0634,-232"/>
<polyline fill="none" stroke="black" points="47.0634,-232 88.9366,-232 "/>
<path fill="none" stroke="black" d="M88.9366,-232C94.9366,-232 100.937,-238 100.937,-244"/>
<polyline fill="none" stroke="black" points="100.937,-244 100.937,-256 "/>
<path fill="none" stroke="black" d="M100.937,-256C100.937,-262 94.9366,-268 88.9366,-268"/>
<text text-anchor="middle" x="68" y="-244.4" font-family="Helvetica,sans-Serif" font-size="14.00">Initialize</text>
</a>
</g>
<!-- start&#45;&gt;intializeNonFramework -->
<g id="edge5" class="edge"><title>start&#45;&gt;intializeNonFramework</title>
<path fill="none" stroke="darkslategray" stroke-width="3" d="M68,-303.697C68,-295.983 68,-286.712 68,-278.112"/>
<polygon fill="darkslategray" stroke="darkslategray" points="71.5001,-278.104 68,-268.104 64.5001,-278.104 71.5001,-278.104"/>
</g>
<!-- initializeState -->
<g id="node7" class="node"><title>initializeState</title>
<a xlink:href="learningResource_initializeState.svg" xlink:title="Initialize State">
<polygon fill="#e5ffcc" stroke="#e5ffcc" points="107.368,-196 28.6317,-196 16.6317,-184 16.6317,-172 28.6317,-160 107.368,-160 119.368,-172 119.368,-184 107.368,-196"/>
<path fill="#e5ffcc" stroke="#e5ffcc" d="M28.6317,-196C22.6317,-196 16.6317,-190 16.6317,-184"/>
<path fill="#e5ffcc" stroke="#e5ffcc" d="M16.6317,-172C16.6317,-166 22.6317,-160 28.6317,-160"/>
<path fill="#e5ffcc" stroke="#e5ffcc" d="M107.368,-160C113.368,-160 119.368,-166 119.368,-172"/>
<path fill="#e5ffcc" stroke="#e5ffcc" d="M119.368,-184C119.368,-190 113.368,-196 107.368,-196"/>
<polyline fill="none" stroke="black" points="107.368,-196 28.6317,-196 "/>
<path fill="none" stroke="black" d="M28.6317,-196C22.6317,-196 16.6317,-190 16.6317,-184"/>
<polyline fill="none" stroke="black" points="16.6317,-184 16.6317,-172 "/>
<path fill="none" stroke="black" d="M16.6317,-172C16.6317,-166 22.6317,-160 28.6317,-160"/>
<polyline fill="none" stroke="black" points="28.6317,-160 107.368,-160 "/>
<path fill="none" stroke="black" d="M107.368,-160C113.368,-160 119.368,-166 119.368,-172"/>
<polyline fill="none" stroke="black" points="119.368,-172 119.368,-184 "/>
<path fill="none" stroke="black" d="M119.368,-184C119.368,-190 113.368,-196 107.368,-196"/>
<text text-anchor="middle" x="68" y="-172.4" font-family="Helvetica,sans-Serif" font-size="14.00">Initialize State</text>
</a>
</g>
<!-- intializeNonFramework&#45;&gt;initializeState -->
<g id="edge6" class="edge"><title>intializeNonFramework&#45;&gt;initializeState</title>
<path fill="none" stroke="darkslategray" stroke-width="3" d="M68,-231.697C68,-223.983 68,-214.712 68,-206.112"/>
<polygon fill="darkslategray" stroke="darkslategray" points="71.5001,-206.104 68,-196.104 64.5001,-206.104 71.5001,-206.104"/>
</g>
<!-- initializeID -->
<g id="node8" class="node"><title>initializeID</title>
<a xlink:href="learningResource_initializeID.svg" xlink:title="Initialize ID">
<polygon fill="#ffcccc" stroke="#ffcccc" points="98.3522,-124 37.6478,-124 25.6478,-112 25.6478,-100 37.6478,-88 98.3522,-88 110.352,-100 110.352,-112 98.3522,-124"/>
<path fill="#ffcccc" stroke="#ffcccc" d="M37.6478,-124C31.6478,-124 25.6478,-118 25.6478,-112"/>
<path fill="#ffcccc" stroke="#ffcccc" d="M25.6478,-100C25.6478,-94 31.6478,-88 37.6478,-88"/>
<path fill="#ffcccc" stroke="#ffcccc" d="M98.3522,-88C104.352,-88 110.352,-94 110.352,-100"/>
<path fill="#ffcccc" stroke="#ffcccc" d="M110.352,-112C110.352,-118 104.352,-124 98.3522,-124"/>
<polyline fill="none" stroke="black" points="98.3522,-124 37.6478,-124 "/>
<path fill="none" stroke="black" d="M37.6478,-124C31.6478,-124 25.6478,-118 25.6478,-112"/>
<polyline fill="none" stroke="black" points="25.6478,-112 25.6478,-100 "/>
<path fill="none" stroke="black" d="M25.6478,-100C25.6478,-94 31.6478,-88 37.6478,-88"/>
<polyline fill="none" stroke="black" points="37.6478,-88 98.3522,-88 "/>
<path fill="none" stroke="black" d="M98.3522,-88C104.352,-88 110.352,-94 110.352,-100"/>
<polyline fill="none" stroke="black" points="110.352,-100 110.352,-112 "/>
<path fill="none" stroke="black" d="M110.352,-112C110.352,-118 104.352,-124 98.3522,-124"/>
<text text-anchor="middle" x="68" y="-100.4" font-family="Helvetica,sans-Serif" font-size="14.00">Initialize ID</text>
</a>
</g>
<!-- initializeState&#45;&gt;initializeID -->
<g id="edge7" class="edge"><title>initializeState&#45;&gt;initializeID</title>
<path fill="none" stroke="darkslategray" stroke-width="3" d="M68,-159.697C68,-151.983 68,-142.712 68,-134.112"/>
<polygon fill="darkslategray" stroke="darkslategray" points="71.5001,-134.104 68,-124.104 64.5001,-134.104 71.5001,-134.104"/>
</g>
<!-- initializeID&#45;&gt;iteration -->
<g id="edge8" class="edge"><title>initializeID&#45;&gt;iteration</title>
<path fill="none" stroke="darkslategray" stroke-width="3" d="M68,-87.6966C68,-79.9827 68,-70.7125 68,-62.1124"/>
<polygon fill="darkslategray" stroke="darkslategray" points="71.5001,-62.1043 68,-52.1043 64.5001,-62.1044 71.5001,-62.1043"/>
</g>
</g>
</svg>
