<?xml version="1.0" encoding="UTF-8" standalone="no"?>
<!DOCTYPE svg PUBLIC "-//W3C//DTD SVG 1.1//EN"
 "http://www.w3.org/Graphics/SVG/1.1/DTD/svg11.dtd">
<!-- Generated by graphviz version 2.29.20110702.0445 (20110702.0445)
 -->
<!-- Title: learner Pages: 1 -->
<svg width="677pt" height="289pt"
 viewBox="0.00 0.00 677.00 289.00" xmlns="http://www.w3.org/2000/svg" xmlns:xlink="http://www.w3.org/1999/xlink">
<g id="graph1" class="graph" transform="scale(1 1) rotate(0) translate(4 285)">
<title>learner</title>
<polygon fill="white" stroke="white" points="-4,5 -4,-285 674,-285 674,5 -4,5"/>
<g id="graph2" class="cluster"><title>clustercontextKey</title>
<polygon fill="ghostwhite" stroke="white" points="8,-219 8,-273 96,-273 96,-219 8,-219"/>
<text text-anchor="middle" x="52.1792" y="-255" font-family="Helvetica,sans-Serif" font-size="14.00">Parameters</text>
</g>
<g id="graph3" class="cluster"><title>clusterlearnerKey</title>
<polygon fill="ghostwhite" stroke="white" points="104,-147 104,-273 168,-273 168,-147 104,-147"/>
<text text-anchor="middle" x="136.127" y="-255" font-family="Helvetica,sans-Serif" font-size="14.00">Learner</text>
</g>
<!-- contextOverview -->
<g id="node2" class="node"><title>contextOverview</title>
<ellipse fill="black" stroke="black" cx="52" cy="-234" rx="7.2" ry="7.2"/>
</g>
<!-- initializeLocationOverview -->
<g id="node4" class="node"><title>initializeLocationOverview</title>
<a xlink:href="learner__Overview.svg">
<ellipse fill="#70cc14" stroke="#70cc14" cx="135" cy="-234" rx="7.2" ry="7.2"/>
</a>
</g>
<!-- initializeStateOverview -->
<g id="node5" class="node"><title>initializeStateOverview</title>
<a xlink:href="learner__Overview.svg">
<ellipse fill="#14cc42" stroke="#14cc42" cx="135" cy="-162" rx="7.2" ry="7.2"/>
</a>
</g>
<!-- initializeLocationOverview&#45;&gt;initializeStateOverview -->
<!-- initializeLocation -->
<g id="node7" class="node"><title>initializeLocation</title>
<a xlink:href="learner_initializeLocation.svg" xlink:title="Initialize Location">
<polygon fill="#e5ffcc" stroke="#e5ffcc" points="293.549,-252 194.451,-252 182.451,-240 182.451,-228 194.451,-216 293.549,-216 305.549,-228 305.549,-240 293.549,-252"/>
<path fill="#e5ffcc" stroke="#e5ffcc" d="M194.451,-252C188.451,-252 182.451,-246 182.451,-240"/>
<path fill="#e5ffcc" stroke="#e5ffcc" d="M182.451,-228C182.451,-222 188.451,-216 194.451,-216"/>
<path fill="#e5ffcc" stroke="#e5ffcc" d="M293.549,-216C299.549,-216 305.549,-222 305.549,-228"/>
<path fill="#e5ffcc" stroke="#e5ffcc" d="M305.549,-240C305.549,-246 299.549,-252 293.549,-252"/>
<polyline fill="none" stroke="black" points="293.549,-252 194.451,-252 "/>
<path fill="none" stroke="black" d="M194.451,-252C188.451,-252 182.451,-246 182.451,-240"/>
<polyline fill="none" stroke="black" points="182.451,-240 182.451,-228 "/>
<path fill="none" stroke="black" d="M182.451,-228C182.451,-222 188.451,-216 194.451,-216"/>
<polyline fill="none" stroke="black" points="194.451,-216 293.549,-216 "/>
<path fill="none" stroke="black" d="M293.549,-216C299.549,-216 305.549,-222 305.549,-228"/>
<polyline fill="none" stroke="black" points="305.549,-228 305.549,-240 "/>
<path fill="none" stroke="black" d="M305.549,-240C305.549,-246 299.549,-252 293.549,-252"/>
<text text-anchor="middle" x="244" y="-228.4" font-family="Helvetica,sans-Serif" font-size="14.00">Initialize Location</text>
</a>
</g>
<!-- learner -->
<g id="node9" class="node"><title>learner</title>
<polygon fill="#ceffcc" stroke="#ceffcc" points="270.191,-180 229.809,-180 217.809,-168 217.809,-156 229.809,-144 270.191,-144 282.191,-156 282.191,-168 270.191,-180"/>
<path fill="#ceffcc" stroke="#ceffcc" d="M229.809,-180C223.809,-180 217.809,-174 217.809,-168"/>
<path fill="#ceffcc" stroke="#ceffcc" d="M217.809,-156C217.809,-150 223.809,-144 229.809,-144"/>
<path fill="#ceffcc" stroke="#ceffcc" d="M270.191,-144C276.191,-144 282.191,-150 282.191,-156"/>
<path fill="#ceffcc" stroke="#ceffcc" d="M282.191,-168C282.191,-174 276.191,-180 270.191,-180"/>
<polyline fill="none" stroke="gray" points="270.191,-180 229.809,-180 "/>
<path fill="none" stroke="gray" d="M229.809,-180C223.809,-180 217.809,-174 217.809,-168"/>
<polyline fill="none" stroke="gray" points="217.809,-168 217.809,-156 "/>
<path fill="none" stroke="gray" d="M217.809,-156C217.809,-150 223.809,-144 229.809,-144"/>
<polyline fill="none" stroke="gray" points="229.809,-144 270.191,-144 "/>
<path fill="none" stroke="gray" d="M270.191,-144C276.191,-144 282.191,-150 282.191,-156"/>
<polyline fill="none" stroke="gray" points="282.191,-156 282.191,-168 "/>
<path fill="none" stroke="gray" d="M282.191,-168C282.191,-174 276.191,-180 270.191,-180"/>
<text text-anchor="middle" x="250" y="-156.4" font-family="Helvetica,sans-Serif" font-size="14.00">Learner</text>
</g>
<!-- initializeLocation&#45;&gt;learner -->
<g id="edge6" class="edge"><title>initializeLocation&#45;&gt;learner</title>
<path fill="none" stroke="#70cc14" stroke-width="3" d="M245.483,-215.697C245.89,-210.95 246.347,-205.613 246.811,-200.206"/>
<polygon fill="#70cc14" stroke="#70cc14" points="253.8,-200.629 248.534,-180.104 239.851,-199.433 253.8,-200.629"/>
</g>
<!-- moveLearner -->
<g id="node10" class="node"><title>moveLearner</title>
<polygon fill="#e5ffcc" stroke="#e5ffcc" points="265,-36 235,-36 223,-24 223,-12 235,-0 265,-0 277,-12 277,-24 265,-36"/>
<path fill="#e5ffcc" stroke="#e5ffcc" d="M235,-36C229,-36 223,-30 223,-24"/>
<path fill="#e5ffcc" stroke="#e5ffcc" d="M223,-12C223,-6 229,-0 235,-0"/>
<path fill="#e5ffcc" stroke="#e5ffcc" d="M265,-0C271,-0 277,-6 277,-12"/>
<path fill="#e5ffcc" stroke="#e5ffcc" d="M277,-24C277,-30 271,-36 265,-36"/>
<polyline fill="none" stroke="#e5ffcc" points="265,-36 235,-36 "/>
<path fill="none" stroke="#e5ffcc" d="M235,-36C229,-36 223,-30 223,-24"/>
<polyline fill="none" stroke="#e5ffcc" points="223,-24 223,-12 "/>
<path fill="none" stroke="#e5ffcc" d="M223,-12C223,-6 229,-0 235,-0"/>
<polyline fill="none" stroke="#e5ffcc" points="235,-0 265,-0 "/>
<path fill="none" stroke="#e5ffcc" d="M265,-0C271,-0 277,-6 277,-12"/>
<polyline fill="none" stroke="#e5ffcc" points="277,-12 277,-24 "/>
<path fill="none" stroke="#e5ffcc" d="M277,-24C277,-30 271,-36 265,-36"/>
<text text-anchor="middle" x="250" y="-12.4" font-family="Helvetica,sans-Serif" font-size="14.00">Move</text>
</g>
<!-- initializeLocation&#45;&gt;moveLearner -->
<g id="edge8" class="edge"><title>initializeLocation&#45;&gt;moveLearner:nw</title>
<path fill="none" stroke="#70cc14" stroke-width="3" stroke-dasharray="5,2" d="M229.106,-215.612C221.641,-205.821 213.295,-192.981 209,-180 190.906,-125.32 186.943,-90.2954 218.448,-51.0114"/>
<polygon fill="#70cc14" stroke="#70cc14" points="223.794,-55.5361 232,-36 213.402,-46.1545 223.794,-55.5361"/>
</g>
<!-- learner&#45;&gt;moveLearner -->
<g id="edge10" class="edge"><title>learner&#45;&gt;moveLearner:ne</title>
<path fill="none" stroke="#1ecc14" stroke-width="3" stroke-dasharray="5,2" d="M270.379,-143.531C279.807,-134.092 290.006,-121.597 295,-108 304.251,-82.8115 297.228,-67.6886 282.086,-50.6562"/>
<polygon fill="#1ecc14" stroke="#1ecc14" points="286.906,-45.5691 268,-36 276.812,-55.2704 286.906,-45.5691"/>
</g>
<!-- availableQuery -->
<g id="node13" class="node"><title>availableQuery</title>
<polygon fill="#ceffcc" stroke="#ceffcc" points="273.928,-108 226.072,-108 214.072,-96 214.072,-84 226.072,-72 273.928,-72 285.928,-84 285.928,-96 273.928,-108"/>
<path fill="#ceffcc" stroke="#ceffcc" d="M226.072,-108C220.072,-108 214.072,-102 214.072,-96"/>
<path fill="#ceffcc" stroke="#ceffcc" d="M214.072,-84C214.072,-78 220.072,-72 226.072,-72"/>
<path fill="#ceffcc" stroke="#ceffcc" d="M273.928,-72C279.928,-72 285.928,-78 285.928,-84"/>
<path fill="#ceffcc" stroke="#ceffcc" d="M285.928,-96C285.928,-102 279.928,-108 273.928,-108"/>
<polyline fill="none" stroke="#ceffcc" points="273.928,-108 226.072,-108 "/>
<path fill="none" stroke="#ceffcc" d="M226.072,-108C220.072,-108 214.072,-102 214.072,-96"/>
<polyline fill="none" stroke="#ceffcc" points="214.072,-96 214.072,-84 "/>
<path fill="none" stroke="#ceffcc" d="M214.072,-84C214.072,-78 220.072,-72 226.072,-72"/>
<polyline fill="none" stroke="#ceffcc" points="226.072,-72 273.928,-72 "/>
<path fill="none" stroke="#ceffcc" d="M273.928,-72C279.928,-72 285.928,-78 285.928,-84"/>
<polyline fill="none" stroke="#ceffcc" points="285.928,-84 285.928,-96 "/>
<path fill="none" stroke="#ceffcc" d="M285.928,-96C285.928,-102 279.928,-108 273.928,-108"/>
<text text-anchor="middle" x="250" y="-84.4" font-family="Helvetica,sans-Serif" font-size="14.00">Available</text>
</g>
<!-- learner&#45;&gt;availableQuery -->
<g id="edge14" class="edge"><title>learner&#45;&gt;availableQuery</title>
<path fill="none" stroke="#1ecc14" stroke-width="3" d="M250,-143.697C250,-138.95 250,-133.613 250,-128.206"/>
<polygon fill="#1ecc14" stroke="#1ecc14" points="257,-128.104 250,-108.104 243,-128.104 257,-128.104"/>
</g>
<!-- availableQuery&#45;&gt;moveLearner -->
<g id="edge12" class="edge"><title>availableQuery&#45;&gt;moveLearner</title>
<path fill="none" stroke="#1ecc14" stroke-width="3" d="M250,-71.6966C250,-66.9496 250,-61.6132 250,-56.2063"/>
<polygon fill="#1ecc14" stroke="#1ecc14" points="257,-56.1043 250,-36.1043 243,-56.1044 257,-56.1043"/>
</g>
<!-- learnerlearningInterest -->
<g id="node16" class="node"><title>learnerlearningInterest</title>
<polygon fill="white" stroke="white" points="463.301,-108 342.699,-108 342.699,-72 463.301,-72 463.301,-108"/>
<text text-anchor="middle" x="403" y="-84.4" font-family="Helvetica,sans-Serif" font-size="14.00">Learning Interest</text>
</g>
<!-- learnerlearnerID -->
<g id="node17" class="node"><title>learnerlearnerID</title>
<polygon fill="white" stroke="white" points="564.108,-108 481.892,-108 481.892,-72 564.108,-72 564.108,-108"/>
<text text-anchor="middle" x="523" y="-84.4" font-family="Helvetica,sans-Serif" font-size="14.00">Learner ID</text>
</g>
<!-- simpleResourcesnextLearnerID -->
<g id="node18" class="node"><title>simpleResourcesnextLearnerID</title>
<polygon fill="white" stroke="white" points="669.25,-36 554.75,-36 554.75,-0 669.25,-0 669.25,-36"/>
<text text-anchor="start" x="563" y="-12.5" font-family="Helvetica,sans-Serif" font-size="14.00">Next Learner ID</text>
</g>
<!-- incrementNextLearnerID -->
<g id="node26" class="node"><title>incrementNextLearnerID</title>
<polygon fill="#ccffd8" stroke="#ccffd8" points="648.186,-108 593.814,-108 581.814,-96 581.814,-84 593.814,-72 648.186,-72 660.186,-84 660.186,-96 648.186,-108"/>
<path fill="#ccffd8" stroke="#ccffd8" d="M593.814,-108C587.814,-108 581.814,-102 581.814,-96"/>
<path fill="#ccffd8" stroke="#ccffd8" d="M581.814,-84C581.814,-78 587.814,-72 593.814,-72"/>
<path fill="#ccffd8" stroke="#ccffd8" d="M648.186,-72C654.186,-72 660.186,-78 660.186,-84"/>
<path fill="#ccffd8" stroke="#ccffd8" d="M660.186,-96C660.186,-102 654.186,-108 648.186,-108"/>
<polyline fill="none" stroke="#ccffd8" points="648.186,-108 593.814,-108 "/>
<path fill="none" stroke="#ccffd8" d="M593.814,-108C587.814,-108 581.814,-102 581.814,-96"/>
<polyline fill="none" stroke="#ccffd8" points="581.814,-96 581.814,-84 "/>
<path fill="none" stroke="#ccffd8" d="M581.814,-84C581.814,-78 587.814,-72 593.814,-72"/>
<polyline fill="none" stroke="#ccffd8" points="593.814,-72 648.186,-72 "/>
<path fill="none" stroke="#ccffd8" d="M648.186,-72C654.186,-72 660.186,-78 660.186,-84"/>
<polyline fill="none" stroke="#ccffd8" points="660.186,-84 660.186,-96 "/>
<path fill="none" stroke="#ccffd8" d="M660.186,-96C660.186,-102 654.186,-108 648.186,-108"/>
<text text-anchor="middle" x="621" y="-84.4" font-family="Helvetica,sans-Serif" font-size="14.00">Increment</text>
</g>
<!-- simpleResourcesnextLearnerID&#45;&gt;incrementNextLearnerID -->
<g id="edge30" class="edge"><title>simpleResourcesnextLearnerID&#45;&gt;incrementNextLearnerID:nw</title>
<path fill="none" stroke="black" stroke-width="2" stroke-dasharray="1,5" d="M599.221,-36.1469C592.635,-46.0666 585.284,-59.1072 581.876,-72 577.787,-87.4687 570.833,-96.4219 581.876,-108 586.234,-112.57 591.272,-114.45 596.124,-113.177"/>
<ellipse fill="black" stroke="black" cx="599.581" cy="-111.077" rx="4.00002" ry="4.00002"/>
</g>
<!-- initializeState -->
<g id="node19" class="node"><title>initializeState</title>
<a xlink:href="learner_initializeState.svg" xlink:title="Initialize State">
<polygon fill="#ccffd8" stroke="#ccffd8" points="450.368,-252 371.632,-252 359.632,-240 359.632,-228 371.632,-216 450.368,-216 462.368,-228 462.368,-240 450.368,-252"/>
<path fill="#ccffd8" stroke="#ccffd8" d="M371.632,-252C365.632,-252 359.632,-246 359.632,-240"/>
<path fill="#ccffd8" stroke="#ccffd8" d="M359.632,-228C359.632,-222 365.632,-216 371.632,-216"/>
<path fill="#ccffd8" stroke="#ccffd8" d="M450.368,-216C456.368,-216 462.368,-222 462.368,-228"/>
<path fill="#ccffd8" stroke="#ccffd8" d="M462.368,-240C462.368,-246 456.368,-252 450.368,-252"/>
<polyline fill="none" stroke="black" points="450.368,-252 371.632,-252 "/>
<path fill="none" stroke="black" d="M371.632,-252C365.632,-252 359.632,-246 359.632,-240"/>
<polyline fill="none" stroke="black" points="359.632,-240 359.632,-228 "/>
<path fill="none" stroke="black" d="M359.632,-228C359.632,-222 365.632,-216 371.632,-216"/>
<polyline fill="none" stroke="black" points="371.632,-216 450.368,-216 "/>
<path fill="none" stroke="black" d="M450.368,-216C456.368,-216 462.368,-222 462.368,-228"/>
<polyline fill="none" stroke="black" points="462.368,-228 462.368,-240 "/>
<path fill="none" stroke="black" d="M462.368,-240C462.368,-246 456.368,-252 450.368,-252"/>
<text text-anchor="middle" x="411" y="-228.4" font-family="Helvetica,sans-Serif" font-size="14.00">Initialize State</text>
</a>
</g>
<!-- initialInterest -->
<g id="node21" class="node"><title>initialInterest</title>
<polygon fill="#ccffd8" stroke="#ccffd8" points="443.446,-180 368.554,-180 356.554,-168 356.554,-156 368.554,-144 443.446,-144 455.446,-156 455.446,-168 443.446,-180"/>
<path fill="#ccffd8" stroke="#ccffd8" d="M368.554,-180C362.554,-180 356.554,-174 356.554,-168"/>
<path fill="#ccffd8" stroke="#ccffd8" d="M356.554,-156C356.554,-150 362.554,-144 368.554,-144"/>
<path fill="#ccffd8" stroke="#ccffd8" d="M443.446,-144C449.446,-144 455.446,-150 455.446,-156"/>
<path fill="#ccffd8" stroke="#ccffd8" d="M455.446,-168C455.446,-174 449.446,-180 443.446,-180"/>
<polyline fill="none" stroke="#ccffd8" points="443.446,-180 368.554,-180 "/>
<path fill="none" stroke="#ccffd8" d="M368.554,-180C362.554,-180 356.554,-174 356.554,-168"/>
<polyline fill="none" stroke="#ccffd8" points="356.554,-168 356.554,-156 "/>
<path fill="none" stroke="#ccffd8" d="M356.554,-156C356.554,-150 362.554,-144 368.554,-144"/>
<polyline fill="none" stroke="#ccffd8" points="368.554,-144 443.446,-144 "/>
<path fill="none" stroke="#ccffd8" d="M443.446,-144C449.446,-144 455.446,-150 455.446,-156"/>
<polyline fill="none" stroke="#ccffd8" points="455.446,-156 455.446,-168 "/>
<path fill="none" stroke="#ccffd8" d="M455.446,-168C455.446,-174 449.446,-180 443.446,-180"/>
<text text-anchor="middle" x="406" y="-156.4" font-family="Helvetica,sans-Serif" font-size="14.00">Initial Interest</text>
</g>
<!-- initializeState&#45;&gt;initialInterest -->
<g id="edge16" class="edge"><title>initializeState&#45;&gt;initialInterest</title>
<path fill="none" stroke="#14cc42" stroke-width="3" d="M409.764,-215.697C409.425,-210.95 409.044,-205.613 408.658,-200.206"/>
<polygon fill="#14cc42" stroke="#14cc42" points="415.629,-199.555 407.222,-180.104 401.665,-200.552 415.629,-199.555"/>
</g>
<!-- setLearnerIDToNextLearnerID -->
<g id="node23" class="node"><title>setLearnerIDToNextLearnerID</title>
<polygon fill="#ccffd8" stroke="#ccffd8" points="538,-180 508,-180 496,-168 496,-156 508,-144 538,-144 550,-156 550,-168 538,-180"/>
<path fill="#ccffd8" stroke="#ccffd8" d="M508,-180C502,-180 496,-174 496,-168"/>
<path fill="#ccffd8" stroke="#ccffd8" d="M496,-156C496,-150 502,-144 508,-144"/>
<path fill="#ccffd8" stroke="#ccffd8" d="M538,-144C544,-144 550,-150 550,-156"/>
<path fill="#ccffd8" stroke="#ccffd8" d="M550,-168C550,-174 544,-180 538,-180"/>
<polyline fill="none" stroke="#ccffd8" points="538,-180 508,-180 "/>
<path fill="none" stroke="#ccffd8" d="M508,-180C502,-180 496,-174 496,-168"/>
<polyline fill="none" stroke="#ccffd8" points="496,-168 496,-156 "/>
<path fill="none" stroke="#ccffd8" d="M496,-156C496,-150 502,-144 508,-144"/>
<polyline fill="none" stroke="#ccffd8" points="508,-144 538,-144 "/>
<path fill="none" stroke="#ccffd8" d="M538,-144C544,-144 550,-150 550,-156"/>
<polyline fill="none" stroke="#ccffd8" points="550,-156 550,-168 "/>
<path fill="none" stroke="#ccffd8" d="M550,-168C550,-174 544,-180 538,-180"/>
<text text-anchor="middle" x="523" y="-156.4" font-family="Helvetica,sans-Serif" font-size="14.00">Set</text>
</g>
<!-- initializeState&#45;&gt;setLearnerIDToNextLearnerID -->
<g id="edge18" class="edge"><title>initializeState&#45;&gt;setLearnerIDToNextLearnerID</title>
<path fill="none" stroke="#14cc42" stroke-width="3" d="M438.398,-215.876C450.556,-208.277 465.172,-199.142 478.81,-190.619"/>
<polygon fill="#14cc42" stroke="#14cc42" points="482.635,-196.483 495.885,-179.947 475.215,-184.611 482.635,-196.483"/>
</g>
<!-- initialInterest&#45;&gt;learnerlearningInterest -->
<g id="edge26" class="edge"><title>initialInterest&#45;&gt;learnerlearningInterest</title>
<path fill="none" stroke="#14cc42" stroke-width="3" d="M405.258,-143.697C405.055,-138.95 404.826,-133.613 404.595,-128.206"/>
<polygon fill="#14cc42" stroke="#14cc42" points="411.583,-127.786 403.733,-108.104 397.596,-128.386 411.583,-127.786"/>
</g>
<!-- setLearnerIDToNextLearnerID&#45;&gt;learnerlearnerID -->
<g id="edge20" class="edge"><title>setLearnerIDToNextLearnerID&#45;&gt;learnerlearnerID</title>
<path fill="none" stroke="#14cc42" stroke-width="3" d="M523,-143.697C523,-138.95 523,-133.613 523,-128.206"/>
<polygon fill="#14cc42" stroke="#14cc42" points="530,-128.104 523,-108.104 516,-128.104 530,-128.104"/>
</g>
<!-- setLearnerIDToNextLearnerID&#45;&gt;incrementNextLearnerID -->
<g id="edge22" class="edge"><title>setLearnerIDToNextLearnerID&#45;&gt;incrementNextLearnerID</title>
<path fill="none" stroke="#14cc42" stroke-width="3" d="M546.973,-143.876C557.058,-136.673 569.076,-128.088 580.465,-119.954"/>
<polygon fill="#14cc42" stroke="#14cc42" points="584.728,-125.511 596.934,-108.19 576.591,-114.118 584.728,-125.511"/>
</g>
<!-- incrementNextLearnerID&#45;&gt;simpleResourcesnextLearnerID -->
<g id="edge24" class="edge"><title>incrementNextLearnerID&#45;&gt;simpleResourcesnextLearnerID</title>
<path fill="none" stroke="#14cc42" stroke-width="3" d="M618.775,-71.6966C618.165,-66.9496 617.479,-61.6132 616.784,-56.2063"/>
<polygon fill="#14cc42" stroke="#14cc42" points="623.693,-55.0484 614.199,-36.1043 609.807,-56.8337 623.693,-55.0484"/>
</g>
<!-- importabcsetLearnerIDToNextLearnerIDsimpleResourcesnextLearnerID -->
<g id="node29" class="node"><title>importabcsetLearnerIDToNextLearnerIDsimpleResourcesnextLearnerID</title>
<text text-anchor="middle" x="541" y="-228.4" font-family="Helvetica,sans-Serif" font-size="14.00">Next Learner ID</text>
</g>
<!-- importabcsetLearnerIDToNextLearnerIDsimpleResourcesnextLearnerID&#45;&gt;setLearnerIDToNextLearnerID -->
<g id="edge28" class="edge"><title>importabcsetLearnerIDToNextLearnerIDsimpleResourcesnextLearnerID&#45;&gt;setLearnerIDToNextLearnerID:ne</title>
<path fill="none" stroke="black" stroke-width="2" stroke-dasharray="1,5" d="M546.611,-215.826C548.677,-206.67 549.65,-195.513 545.633,-186.727"/>
<ellipse fill="black" stroke="black" cx="543.269" cy="-183.294" rx="4.00002" ry="4.00002"/>
</g>
</g>
</svg>
