<?xml version="1.0" encoding="UTF-8" standalone="no"?>
<!DOCTYPE svg PUBLIC "-//W3C//DTD SVG 1.1//EN"
 "http://www.w3.org/Graphics/SVG/1.1/DTD/svg11.dtd">
<!-- Generated by graphviz version 2.29.20110702.0445 (20110702.0445)
 -->
<!-- Title: movement Pages: 1 -->
<svg width="1316pt" height="529pt"
 viewBox="0.00 0.00 1316.00 529.00" xmlns="http://www.w3.org/2000/svg" xmlns:xlink="http://www.w3.org/1999/xlink">
<g id="graph1" class="graph" transform="scale(1 1) rotate(0) translate(4 525)">
<title>movement</title>
<polygon fill="white" stroke="white" points="-4,5 -4,-525 1313,-525 1313,5 -4,5"/>
<g id="graph2" class="cluster"><title>clustercontextKey</title>
<polygon fill="ghostwhite" stroke="white" points="8,-459 8,-513 96,-513 96,-459 8,-459"/>
<text text-anchor="middle" x="52.1792" y="-495" font-family="Helvetica,sans-Serif" font-size="14.00">Parameters</text>
</g>
<g id="graph3" class="cluster"><title>clusterlearnerKey</title>
<polygon fill="ghostwhite" stroke="white" points="104,-459 104,-513 168,-513 168,-459 104,-459"/>
<text text-anchor="middle" x="136.127" y="-495" font-family="Helvetica,sans-Serif" font-size="14.00">Learner</text>
</g>
<g id="graph4" class="cluster"><title>clusterlearningResourceKey</title>
<polygon fill="ghostwhite" stroke="white" points="176,-459 176,-513 310,-513 310,-459 176,-459"/>
<text text-anchor="middle" x="243.148" y="-495" font-family="Helvetica,sans-Serif" font-size="14.00">Learning Resource</text>
</g>
<g id="graph5" class="cluster"><title>clusterhomeKey</title>
<polygon fill="ghostwhite" stroke="white" points="318,-459 318,-513 371,-513 371,-459 318,-459"/>
<text text-anchor="middle" x="344.672" y="-495" font-family="Helvetica,sans-Serif" font-size="14.00">Home</text>
</g>
<!-- contextOverview -->
<g id="node2" class="node"><title>contextOverview</title>
<ellipse fill="black" stroke="black" cx="52" cy="-474" rx="7.2" ry="7.2"/>
</g>
<!-- movementOverview -->
<g id="node4" class="node"><title>movementOverview</title>
<a xlink:href="learner__Overview.svg">
<ellipse fill="#14cccc" stroke="#14cccc" cx="136" cy="-474" rx="7.2" ry="7.2"/>
</a>
</g>
<!-- soughtResourceOverview -->
<g id="node6" class="node"><title>soughtResourceOverview</title>
<a xlink:href="learningResource__Overview.svg">
<ellipse fill="#1451cc" stroke="#1451cc" cx="243" cy="-474" rx="7.2" ry="7.2"/>
</a>
</g>
<!-- learnerHomeOverview -->
<g id="node8" class="node"><title>learnerHomeOverview</title>
<a xlink:href="home__Overview.svg">
<ellipse fill="#14a3cc" stroke="#14a3cc" cx="343" cy="-474" rx="7.2" ry="7.2"/>
</a>
</g>
<!-- learnerengagementRecord -->
<g id="node9" class="node"><title>learnerengagementRecord</title>
<polygon fill="white" stroke="none" points="589.832,-361.2 589.832,-410.8 824.168,-410.8 824.168,-361.2 589.832,-361.2"/>
<text text-anchor="middle" x="707" y="-392.8" font-family="Helvetica,sans-Serif" font-size="14.00">Engagement</text>
<polyline fill="none" stroke="none" points="589.832,-386 824.168,-386 "/>
<text text-anchor="middle" x="641.8" y="-368" font-family="Helvetica,sans-Serif" font-size="14.00">Not Interested</text>
<polyline fill="none" stroke="none" points="693.769,-361.2 693.769,-386 "/>
<text text-anchor="middle" x="758.969" y="-368" font-family="Helvetica,sans-Serif" font-size="14.00">Seeking Resource</text>
</g>
<!-- engagementIdenticalSeekingResourceQuery -->
<g id="node18" class="node"><title>engagementIdenticalSeekingResourceQuery</title>
<polygon fill="#ccffff" stroke="#ccffff" points="756,-324 726,-324 714,-312 714,-300 726,-288 756,-288 768,-300 768,-312 756,-324"/>
<path fill="#ccffff" stroke="#ccffff" d="M726,-324C720,-324 714,-318 714,-312"/>
<path fill="#ccffff" stroke="#ccffff" d="M714,-300C714,-294 720,-288 726,-288"/>
<path fill="#ccffff" stroke="#ccffff" d="M756,-288C762,-288 768,-294 768,-300"/>
<path fill="#ccffff" stroke="#ccffff" d="M768,-312C768,-318 762,-324 756,-324"/>
<polyline fill="none" stroke="#ccffff" points="756,-324 726,-324 "/>
<path fill="none" stroke="#ccffff" d="M726,-324C720,-324 714,-318 714,-312"/>
<polyline fill="none" stroke="#ccffff" points="714,-312 714,-300 "/>
<path fill="none" stroke="#ccffff" d="M714,-300C714,-294 720,-288 726,-288"/>
<polyline fill="none" stroke="#ccffff" points="726,-288 756,-288 "/>
<path fill="none" stroke="#ccffff" d="M756,-288C762,-288 768,-294 768,-300"/>
<polyline fill="none" stroke="#ccffff" points="768,-300 768,-312 "/>
<path fill="none" stroke="#ccffff" d="M768,-312C768,-318 762,-324 756,-324"/>
<text text-anchor="middle" x="741" y="-300.4" font-family="Helvetica,sans-Serif" font-size="14.00">Is?</text>
</g>
<!-- learnerengagementRecord&#45;&gt;engagementIdenticalSeekingResourceQuery -->
<g id="edge66" class="edge"><title>learnerengagementRecord:learnerengagementseekingResource&#45;&gt;engagementIdenticalSeekingResourceQuery:ne</title>
<path fill="none" stroke="#14cccc" stroke-width="2" stroke-dasharray="1,5" d="M759,-360C759,-347.5 765.905,-339.464 763.532,-331.152"/>
<ellipse fill="#14cccc" stroke="#14cccc" cx="761.141" cy="-327.379" rx="4.00002" ry="4.00002"/>
</g>
<!-- engagementIdenticalNotInterestedQuery -->
<g id="node59" class="node"><title>engagementIdenticalNotInterestedQuery</title>
<polygon fill="#ccffff" stroke="#ccffff" points="639,-324 609,-324 597,-312 597,-300 609,-288 639,-288 651,-300 651,-312 639,-324"/>
<path fill="#ccffff" stroke="#ccffff" d="M609,-324C603,-324 597,-318 597,-312"/>
<path fill="#ccffff" stroke="#ccffff" d="M597,-300C597,-294 603,-288 609,-288"/>
<path fill="#ccffff" stroke="#ccffff" d="M639,-288C645,-288 651,-294 651,-300"/>
<path fill="#ccffff" stroke="#ccffff" d="M651,-312C651,-318 645,-324 639,-324"/>
<polyline fill="none" stroke="#ccffff" points="639,-324 609,-324 "/>
<path fill="none" stroke="#ccffff" d="M609,-324C603,-324 597,-318 597,-312"/>
<polyline fill="none" stroke="#ccffff" points="597,-312 597,-300 "/>
<path fill="none" stroke="#ccffff" d="M597,-300C597,-294 603,-288 609,-288"/>
<polyline fill="none" stroke="#ccffff" points="609,-288 639,-288 "/>
<path fill="none" stroke="#ccffff" d="M639,-288C645,-288 651,-294 651,-300"/>
<polyline fill="none" stroke="#ccffff" points="651,-300 651,-312 "/>
<path fill="none" stroke="#ccffff" d="M651,-312C651,-318 645,-324 639,-324"/>
<text text-anchor="middle" x="624" y="-300.4" font-family="Helvetica,sans-Serif" font-size="14.00">Is?</text>
</g>
<!-- learnerengagementRecord&#45;&gt;engagementIdenticalNotInterestedQuery -->
<g id="edge74" class="edge"><title>learnerengagementRecord:learnerengagementnotInterested&#45;&gt;engagementIdenticalNotInterestedQuery:ne</title>
<path fill="none" stroke="#14cccc" stroke-width="2" stroke-dasharray="1,5" d="M642,-360C642,-347.5 648.905,-339.464 646.532,-331.152"/>
<ellipse fill="#14cccc" stroke="#14cccc" cx="644.141" cy="-327.379" rx="4.00002" ry="4.00002"/>
</g>
<!-- simpleResourceswanderingRecord -->
<g id="node10" class="node"><title>simpleResourceswanderingRecord</title>
<polygon fill="white" stroke="none" points="378.746,-449.2 378.746,-498.8 473.254,-498.8 473.254,-449.2 378.746,-449.2"/>
<text text-anchor="middle" x="426" y="-480.8" font-family="Helvetica,sans-Serif" font-size="14.00">Wandering</text>
<polyline fill="none" stroke="none" points="378.746,-474 473.254,-474 "/>
<text text-anchor="middle" x="400.883" y="-456" font-family="Helvetica,sans-Serif" font-size="14.00">True</text>
<polyline fill="none" stroke="none" points="423.02,-449.2 423.02,-474 "/>
<text text-anchor="middle" x="448.137" y="-456" font-family="Helvetica,sans-Serif" font-size="14.00">False</text>
</g>
<!-- identityWanderingQuery -->
<g id="node15" class="node"><title>identityWanderingQuery</title>
<polygon fill="#ccffff" stroke="#ccffff" points="560,-404 530,-404 518,-392 518,-380 530,-368 560,-368 572,-380 572,-392 560,-404"/>
<path fill="#ccffff" stroke="#ccffff" d="M530,-404C524,-404 518,-398 518,-392"/>
<path fill="#ccffff" stroke="#ccffff" d="M518,-380C518,-374 524,-368 530,-368"/>
<path fill="#ccffff" stroke="#ccffff" d="M560,-368C566,-368 572,-374 572,-380"/>
<path fill="#ccffff" stroke="#ccffff" d="M572,-392C572,-398 566,-404 560,-404"/>
<polyline fill="none" stroke="#ccffff" points="560,-404 530,-404 "/>
<path fill="none" stroke="#ccffff" d="M530,-404C524,-404 518,-398 518,-392"/>
<polyline fill="none" stroke="#ccffff" points="518,-392 518,-380 "/>
<path fill="none" stroke="#ccffff" d="M518,-380C518,-374 524,-368 530,-368"/>
<polyline fill="none" stroke="#ccffff" points="530,-368 560,-368 "/>
<path fill="none" stroke="#ccffff" d="M560,-368C566,-368 572,-374 572,-380"/>
<polyline fill="none" stroke="#ccffff" points="572,-380 572,-392 "/>
<path fill="none" stroke="#ccffff" d="M572,-392C572,-398 566,-404 560,-404"/>
<text text-anchor="middle" x="545" y="-380.4" font-family="Helvetica,sans-Serif" font-size="14.00">Is?</text>
</g>
<!-- simpleResourceswanderingRecord&#45;&gt;identityWanderingQuery -->
<g id="edge76" class="edge"><title>simpleResourceswanderingRecord&#45;&gt;identityWanderingQuery:nw</title>
<path fill="none" stroke="black" stroke-width="2" stroke-dasharray="1,5" d="M469.024,-449.172C485.836,-438.769 504.868,-425.588 520.822,-410.918"/>
<ellipse fill="black" stroke="black" cx="524.111" cy="-407.767" rx="4.00002" ry="4.00002"/>
</g>
<!-- notWanderingQuery -->
<g id="node17" class="node"><title>notWanderingQuery</title>
<polygon fill="#ccffff" stroke="#ccffff" points="450.264,-404 413.736,-404 401.736,-392 401.736,-380 413.736,-368 450.264,-368 462.264,-380 462.264,-392 450.264,-404"/>
<path fill="#ccffff" stroke="#ccffff" d="M413.736,-404C407.736,-404 401.736,-398 401.736,-392"/>
<path fill="#ccffff" stroke="#ccffff" d="M401.736,-380C401.736,-374 407.736,-368 413.736,-368"/>
<path fill="#ccffff" stroke="#ccffff" d="M450.264,-368C456.264,-368 462.264,-374 462.264,-380"/>
<path fill="#ccffff" stroke="#ccffff" d="M462.264,-392C462.264,-398 456.264,-404 450.264,-404"/>
<polyline fill="none" stroke="#ccffff" points="450.264,-404 413.736,-404 "/>
<path fill="none" stroke="#ccffff" d="M413.736,-404C407.736,-404 401.736,-398 401.736,-392"/>
<polyline fill="none" stroke="#ccffff" points="401.736,-392 401.736,-380 "/>
<path fill="none" stroke="#ccffff" d="M401.736,-380C401.736,-374 407.736,-368 413.736,-368"/>
<polyline fill="none" stroke="#ccffff" points="413.736,-368 450.264,-368 "/>
<path fill="none" stroke="#ccffff" d="M450.264,-368C456.264,-368 462.264,-374 462.264,-380"/>
<polyline fill="none" stroke="#ccffff" points="462.264,-380 462.264,-392 "/>
<path fill="none" stroke="#ccffff" d="M462.264,-392C462.264,-398 456.264,-404 450.264,-404"/>
<text text-anchor="middle" x="432" y="-380.4" font-family="Helvetica,sans-Serif" font-size="14.00">Is Not?</text>
</g>
<!-- simpleResourceswanderingRecord&#45;&gt;notWanderingQuery -->
<g id="edge68" class="edge"><title>simpleResourceswanderingRecord&#45;&gt;notWanderingQuery:nw</title>
<path fill="none" stroke="black" stroke-width="2" stroke-dasharray="1,5" d="M412.682,-449.128C407.579,-437.094 404.092,-422.752 409.273,-411.717"/>
<ellipse fill="black" stroke="black" cx="411.698" cy="-408.271" rx="4.00002" ry="4.00002"/>
</g>
<!-- learningResourceresourceID -->
<g id="node11" class="node"><title>learningResourceresourceID</title>
<polygon fill="white" stroke="white" points="973.356,-252 880.644,-252 880.644,-216 973.356,-216 973.356,-252"/>
<text text-anchor="middle" x="927" y="-228.4" font-family="Helvetica,sans-Serif" font-size="14.00">Resource ID</text>
</g>
<!-- resourceIDIdenticalTargetResourceIDQuery -->
<g id="node27" class="node"><title>resourceIDIdenticalTargetResourceIDQuery</title>
<polygon fill="#ccddff" stroke="#ccddff" points="1063.45,-180 1012.55,-180 1000.55,-168 1000.55,-156 1012.55,-144 1063.45,-144 1075.45,-156 1075.45,-168 1063.45,-180"/>
<path fill="#ccddff" stroke="#ccddff" d="M1012.55,-180C1006.55,-180 1000.55,-174 1000.55,-168"/>
<path fill="#ccddff" stroke="#ccddff" d="M1000.55,-156C1000.55,-150 1006.55,-144 1012.55,-144"/>
<path fill="#ccddff" stroke="#ccddff" d="M1063.45,-144C1069.45,-144 1075.45,-150 1075.45,-156"/>
<path fill="#ccddff" stroke="#ccddff" d="M1075.45,-168C1075.45,-174 1069.45,-180 1063.45,-180"/>
<polyline fill="none" stroke="#ccddff" points="1063.45,-180 1012.55,-180 "/>
<path fill="none" stroke="#ccddff" d="M1012.55,-180C1006.55,-180 1000.55,-174 1000.55,-168"/>
<polyline fill="none" stroke="#ccddff" points="1000.55,-168 1000.55,-156 "/>
<path fill="none" stroke="#ccddff" d="M1000.55,-156C1000.55,-150 1006.55,-144 1012.55,-144"/>
<polyline fill="none" stroke="#ccddff" points="1012.55,-144 1063.45,-144 "/>
<path fill="none" stroke="#ccddff" d="M1063.45,-144C1069.45,-144 1075.45,-150 1075.45,-156"/>
<polyline fill="none" stroke="#ccddff" points="1075.45,-156 1075.45,-168 "/>
<path fill="none" stroke="#ccddff" d="M1075.45,-168C1075.45,-174 1069.45,-180 1063.45,-180"/>
<text text-anchor="middle" x="1038" y="-156.4" font-family="Helvetica,sans-Serif" font-size="14.00">Identical?</text>
</g>
<!-- learningResourceresourceID&#45;&gt;resourceIDIdenticalTargetResourceIDQuery -->
<g id="edge70" class="edge"><title>learningResourceresourceID&#45;&gt;resourceIDIdenticalTargetResourceIDQuery:nw</title>
<path fill="none" stroke="#1451cc" stroke-width="2" stroke-dasharray="1,5" d="M967.271,-215.997C982.73,-208.237 1000.04,-197.966 1014.16,-185.484"/>
<ellipse fill="#1451cc" stroke="#1451cc" cx="1017.08" cy="-182.738" rx="4.00002" ry="4.00002"/>
</g>
<!-- learnertargetResourceID -->
<g id="node12" class="node"><title>learnertargetResourceID</title>
<polygon fill="white" stroke="white" points="1127.96,-252 992.044,-252 992.044,-216 1127.96,-216 1127.96,-252"/>
<text text-anchor="middle" x="1060" y="-228.4" font-family="Helvetica,sans-Serif" font-size="14.00">Target Resource ID</text>
</g>
<!-- learnertargetResourceID&#45;&gt;resourceIDIdenticalTargetResourceIDQuery -->
<g id="edge72" class="edge"><title>learnertargetResourceID&#45;&gt;resourceIDIdenticalTargetResourceIDQuery:ne</title>
<path fill="none" stroke="#14cccc" stroke-width="2" stroke-dasharray="1,5" d="M1063.91,-215.842C1065.13,-206.692 1065.19,-195.538 1060.8,-186.74"/>
<ellipse fill="#14cccc" stroke="#14cccc" cx="1058.32" cy="-183.257" rx="4.00002" ry="4.00002"/>
</g>
<!-- movement -->
<g id="node13" class="node"><title>movement</title>
<a xlink:href="learner_movement.svg" xlink:title="Movement">
<polygon fill="#ccffff" stroke="#ccffff" points="573.518,-492 516.482,-492 504.482,-480 504.482,-468 516.482,-456 573.518,-456 585.518,-468 585.518,-480 573.518,-492"/>
<path fill="#ccffff" stroke="#ccffff" d="M516.482,-492C510.482,-492 504.482,-486 504.482,-480"/>
<path fill="#ccffff" stroke="#ccffff" d="M504.482,-468C504.482,-462 510.482,-456 516.482,-456"/>
<path fill="#ccffff" stroke="#ccffff" d="M573.518,-456C579.518,-456 585.518,-462 585.518,-468"/>
<path fill="#ccffff" stroke="#ccffff" d="M585.518,-480C585.518,-486 579.518,-492 573.518,-492"/>
<polyline fill="none" stroke="black" points="573.518,-492 516.482,-492 "/>
<path fill="none" stroke="black" d="M516.482,-492C510.482,-492 504.482,-486 504.482,-480"/>
<polyline fill="none" stroke="black" points="504.482,-480 504.482,-468 "/>
<path fill="none" stroke="black" d="M504.482,-468C504.482,-462 510.482,-456 516.482,-456"/>
<polyline fill="none" stroke="black" points="516.482,-456 573.518,-456 "/>
<path fill="none" stroke="black" d="M573.518,-456C579.518,-456 585.518,-462 585.518,-468"/>
<polyline fill="none" stroke="black" points="585.518,-468 585.518,-480 "/>
<path fill="none" stroke="black" d="M585.518,-480C585.518,-486 579.518,-492 573.518,-492"/>
<text text-anchor="middle" x="545" y="-468.4" font-family="Helvetica,sans-Serif" font-size="14.00">Movement</text>
</a>
</g>
<!-- movement&#45;&gt;identityWanderingQuery -->
<g id="edge6" class="edge"><title>movement&#45;&gt;identityWanderingQuery</title>
<path fill="none" stroke="#14cccc" stroke-width="3" d="M545,-455.597C545,-446.562 545,-435.157 545,-424.254"/>
<polygon fill="#14cccc" stroke="#14cccc" points="552,-424.084 545,-404.084 538,-424.084 552,-424.084"/>
</g>
<!-- movement&#45;&gt;notWanderingQuery -->
<g id="edge8" class="edge"><title>movement&#45;&gt;notWanderingQuery</title>
<path fill="none" stroke="#14cccc" stroke-width="3" d="M522.404,-455.803C507.623,-444.554 487.929,-429.565 470.696,-416.45"/>
<polygon fill="#14cccc" stroke="#14cccc" points="474.711,-410.709 454.556,-404.167 466.232,-421.85 474.711,-410.709"/>
</g>
<!-- moveLearnerCopyCopy -->
<g id="node30" class="node"><title>moveLearnerCopyCopy</title>
<polygon fill="#ccffff" stroke="#ccffff" points="1265,-36 1235,-36 1223,-24 1223,-12 1235,-0 1265,-0 1277,-12 1277,-24 1265,-36"/>
<path fill="#ccffff" stroke="#ccffff" d="M1235,-36C1229,-36 1223,-30 1223,-24"/>
<path fill="#ccffff" stroke="#ccffff" d="M1223,-12C1223,-6 1229,-0 1235,-0"/>
<path fill="#ccffff" stroke="#ccffff" d="M1265,-0C1271,-0 1277,-6 1277,-12"/>
<path fill="#ccffff" stroke="#ccffff" d="M1277,-24C1277,-30 1271,-36 1265,-36"/>
<polyline fill="none" stroke="#ccffff" points="1265,-36 1235,-36 "/>
<path fill="none" stroke="#ccffff" d="M1235,-36C1229,-36 1223,-30 1223,-24"/>
<polyline fill="none" stroke="#ccffff" points="1223,-24 1223,-12 "/>
<path fill="none" stroke="#ccffff" d="M1223,-12C1223,-6 1229,-0 1235,-0"/>
<polyline fill="none" stroke="#ccffff" points="1235,-0 1265,-0 "/>
<path fill="none" stroke="#ccffff" d="M1265,-0C1271,-0 1277,-6 1277,-12"/>
<polyline fill="none" stroke="#ccffff" points="1277,-12 1277,-24 "/>
<path fill="none" stroke="#ccffff" d="M1277,-24C1277,-30 1271,-36 1265,-36"/>
<text text-anchor="middle" x="1250" y="-12.4" font-family="Helvetica,sans-Serif" font-size="14.00">Move</text>
</g>
<!-- movement&#45;&gt;moveLearnerCopyCopy -->
<g id="edge20" class="edge"><title>movement&#45;&gt;moveLearnerCopyCopy:nw</title>
<path fill="none" stroke="#14cccc" stroke-width="3" stroke-dasharray="5,2" d="M585.483,-472.927C743.224,-471.57 1308,-456.29 1308,-307 1308,-307 1308,-307 1308,-233 1308,-146.853 1188.04,-108.779 1219.69,-51.7814"/>
<polygon fill="#14cccc" stroke="#14cccc" points="1225.22,-56.075 1232,-36 1214.18,-47.464 1225.22,-56.075"/>
</g>
<!-- moveHome -->
<g id="node46" class="node"><title>moveHome</title>
<polygon fill="#ccffff" stroke="#ccffff" points="461,-108 431,-108 419,-96 419,-84 431,-72 461,-72 473,-84 473,-96 461,-108"/>
<path fill="#ccffff" stroke="#ccffff" d="M431,-108C425,-108 419,-102 419,-96"/>
<path fill="#ccffff" stroke="#ccffff" d="M419,-84C419,-78 425,-72 431,-72"/>
<path fill="#ccffff" stroke="#ccffff" d="M461,-72C467,-72 473,-78 473,-84"/>
<path fill="#ccffff" stroke="#ccffff" d="M473,-96C473,-102 467,-108 461,-108"/>
<polyline fill="none" stroke="#ccffff" points="461,-108 431,-108 "/>
<path fill="none" stroke="#ccffff" d="M431,-108C425,-108 419,-102 419,-96"/>
<polyline fill="none" stroke="#ccffff" points="419,-96 419,-84 "/>
<path fill="none" stroke="#ccffff" d="M419,-84C419,-78 425,-72 431,-72"/>
<polyline fill="none" stroke="#ccffff" points="431,-72 461,-72 "/>
<path fill="none" stroke="#ccffff" d="M461,-72C467,-72 473,-78 473,-84"/>
<polyline fill="none" stroke="#ccffff" points="473,-84 473,-96 "/>
<path fill="none" stroke="#ccffff" d="M473,-96C473,-102 467,-108 461,-108"/>
<text text-anchor="middle" x="446" y="-84.4" font-family="Helvetica,sans-Serif" font-size="14.00">Move</text>
</g>
<!-- movement&#45;&gt;moveHome -->
<g id="edge38" class="edge"><title>movement&#45;&gt;moveHome:nw</title>
<path fill="none" stroke="#14cccc" stroke-width="3" stroke-dasharray="5,2" d="M533.116,-455.784C525.363,-443.915 515.51,-427.538 509,-412 497.233,-383.915 425.747,-192.839 423.851,-127.705"/>
<polygon fill="#14cccc" stroke="#14cccc" points="430.729,-129.013 428,-108 417.029,-126.129 430.729,-129.013"/>
</g>
<!-- moveLearnerCopy -->
<g id="node49" class="node"><title>moveLearnerCopy</title>
<polygon fill="#ccffff" stroke="#ccffff" points="817,-36 787,-36 775,-24 775,-12 787,-0 817,-0 829,-12 829,-24 817,-36"/>
<path fill="#ccffff" stroke="#ccffff" d="M787,-36C781,-36 775,-30 775,-24"/>
<path fill="#ccffff" stroke="#ccffff" d="M775,-12C775,-6 781,-0 787,-0"/>
<path fill="#ccffff" stroke="#ccffff" d="M817,-0C823,-0 829,-6 829,-12"/>
<path fill="#ccffff" stroke="#ccffff" d="M829,-24C829,-30 823,-36 817,-36"/>
<polyline fill="none" stroke="#ccffff" points="817,-36 787,-36 "/>
<path fill="none" stroke="#ccffff" d="M787,-36C781,-36 775,-30 775,-24"/>
<polyline fill="none" stroke="#ccffff" points="775,-24 775,-12 "/>
<path fill="none" stroke="#ccffff" d="M775,-12C775,-6 781,-0 787,-0"/>
<polyline fill="none" stroke="#ccffff" points="787,-0 817,-0 "/>
<path fill="none" stroke="#ccffff" d="M817,-0C823,-0 829,-6 829,-12"/>
<polyline fill="none" stroke="#ccffff" points="829,-12 829,-24 "/>
<path fill="none" stroke="#ccffff" d="M829,-24C829,-30 823,-36 817,-36"/>
<text text-anchor="middle" x="802" y="-12.4" font-family="Helvetica,sans-Serif" font-size="14.00">Move</text>
</g>
<!-- movement&#45;&gt;moveLearnerCopy -->
<g id="edge42" class="edge"><title>movement&#45;&gt;moveLearnerCopy:nw</title>
<path fill="none" stroke="#14cccc" stroke-width="3" stroke-dasharray="5,2" d="M585.533,-469.899C656.545,-463.609 799.137,-446.885 833,-412 866.032,-377.971 852,-354.425 852,-307 852,-307 852,-307 852,-233 852,-148.154 739.986,-108.405 771.512,-51.9862"/>
<polygon fill="#14cccc" stroke="#14cccc" points="777.204,-56.0703 784,-36 766.171,-47.4518 777.204,-56.0703"/>
</g>
<!-- identityWanderingQuery&#45;&gt;engagementIdenticalSeekingResourceQuery -->
<g id="edge62" class="edge"><title>identityWanderingQuery&#45;&gt;engagementIdenticalSeekingResourceQuery</title>
<path fill="none" stroke="#14cccc" stroke-width="3" d="M567.632,-367.838C571.939,-364.994 576.508,-362.245 581,-360 617.395,-341.812 661.455,-327.746 694.117,-318.69"/>
<polygon fill="#14cccc" stroke="#14cccc" points="696.212,-325.377 713.739,-313.47 692.612,-311.847 696.212,-325.377"/>
</g>
<!-- identityWanderingQuery&#45;&gt;engagementIdenticalNotInterestedQuery -->
<g id="edge64" class="edge"><title>identityWanderingQuery&#45;&gt;engagementIdenticalNotInterestedQuery</title>
<path fill="none" stroke="#14cccc" stroke-width="3" d="M562.533,-367.689C571.226,-359.106 582.002,-348.467 592.091,-338.506"/>
<polygon fill="#14cccc" stroke="#14cccc" points="597.203,-343.295 606.516,-324.262 587.366,-333.333 597.203,-343.295"/>
</g>
<!-- learnerHome -->
<g id="node22" class="node"><title>learnerHome</title>
<polygon fill="#ccf3ff" stroke="#ccf3ff" points="438.616,-324 357.384,-324 345.384,-312 345.384,-300 357.384,-288 438.616,-288 450.616,-300 450.616,-312 438.616,-324"/>
<path fill="#ccf3ff" stroke="#ccf3ff" d="M357.384,-324C351.384,-324 345.384,-318 345.384,-312"/>
<path fill="#ccf3ff" stroke="#ccf3ff" d="M345.384,-300C345.384,-294 351.384,-288 357.384,-288"/>
<path fill="#ccf3ff" stroke="#ccf3ff" d="M438.616,-288C444.616,-288 450.616,-294 450.616,-300"/>
<path fill="#ccf3ff" stroke="#ccf3ff" d="M450.616,-312C450.616,-318 444.616,-324 438.616,-324"/>
<polyline fill="none" stroke="gray" points="438.616,-324 357.384,-324 "/>
<path fill="none" stroke="gray" d="M357.384,-324C351.384,-324 345.384,-318 345.384,-312"/>
<polyline fill="none" stroke="gray" points="345.384,-312 345.384,-300 "/>
<path fill="none" stroke="gray" d="M345.384,-300C345.384,-294 351.384,-288 357.384,-288"/>
<polyline fill="none" stroke="gray" points="357.384,-288 438.616,-288 "/>
<path fill="none" stroke="gray" d="M438.616,-288C444.616,-288 450.616,-294 450.616,-300"/>
<polyline fill="none" stroke="gray" points="450.616,-300 450.616,-312 "/>
<path fill="none" stroke="gray" d="M450.616,-312C450.616,-318 444.616,-324 438.616,-324"/>
<text text-anchor="middle" x="398" y="-300.4" font-family="Helvetica,sans-Serif" font-size="14.00">Learner Home</text>
</g>
<!-- notWanderingQuery&#45;&gt;learnerHome -->
<g id="edge12" class="edge"><title>notWanderingQuery&#45;&gt;learnerHome</title>
<path fill="none" stroke="#14cccc" stroke-width="3" d="M424.454,-367.689C421.241,-360.317 417.367,-351.43 413.586,-342.757"/>
<polygon fill="#14cccc" stroke="#14cccc" points="419.933,-339.799 405.525,-324.262 407.1,-345.393 419.933,-339.799"/>
</g>
<!-- soughtResource -->
<g id="node20" class="node"><title>soughtResource</title>
<polygon fill="#ccddff" stroke="#ccddff" points="1258.13,-252 1157.87,-252 1145.87,-240 1145.87,-228 1157.87,-216 1258.13,-216 1270.13,-228 1270.13,-240 1258.13,-252"/>
<path fill="#ccddff" stroke="#ccddff" d="M1157.87,-252C1151.87,-252 1145.87,-246 1145.87,-240"/>
<path fill="#ccddff" stroke="#ccddff" d="M1145.87,-228C1145.87,-222 1151.87,-216 1157.87,-216"/>
<path fill="#ccddff" stroke="#ccddff" d="M1258.13,-216C1264.13,-216 1270.13,-222 1270.13,-228"/>
<path fill="#ccddff" stroke="#ccddff" d="M1270.13,-240C1270.13,-246 1264.13,-252 1258.13,-252"/>
<polyline fill="none" stroke="gray" points="1258.13,-252 1157.87,-252 "/>
<path fill="none" stroke="gray" d="M1157.87,-252C1151.87,-252 1145.87,-246 1145.87,-240"/>
<polyline fill="none" stroke="gray" points="1145.87,-240 1145.87,-228 "/>
<path fill="none" stroke="gray" d="M1145.87,-228C1145.87,-222 1151.87,-216 1157.87,-216"/>
<polyline fill="none" stroke="gray" points="1157.87,-216 1258.13,-216 "/>
<path fill="none" stroke="gray" d="M1258.13,-216C1264.13,-216 1270.13,-222 1270.13,-228"/>
<polyline fill="none" stroke="gray" points="1270.13,-228 1270.13,-240 "/>
<path fill="none" stroke="gray" d="M1270.13,-240C1270.13,-246 1264.13,-252 1258.13,-252"/>
<text text-anchor="middle" x="1208" y="-228.4" font-family="Helvetica,sans-Serif" font-size="14.00">Sought Resource</text>
</g>
<!-- engagementIdenticalSeekingResourceQuery&#45;&gt;soughtResource -->
<g id="edge10" class="edge"><title>engagementIdenticalSeekingResourceQuery&#45;&gt;soughtResource</title>
<path fill="none" stroke="#14cccc" stroke-width="3" d="M768.039,-302.343C829.442,-296.109 984.463,-279.249 1125.88,-253.918"/>
<polygon fill="#14cccc" stroke="#14cccc" points="1127.32,-260.771 1145.74,-250.287 1124.81,-246.999 1127.32,-260.771"/>
</g>
<!-- soughtResource&#45;&gt;resourceIDIdenticalTargetResourceIDQuery -->
<g id="edge30" class="edge"><title>soughtResource&#45;&gt;resourceIDIdenticalTargetResourceIDQuery</title>
<path fill="none" stroke="#1451cc" stroke-width="3" d="M1166.41,-215.876C1144.76,-206.959 1117.96,-195.925 1094.46,-186.248"/>
<polygon fill="#1451cc" stroke="#1451cc" points="1096.84,-179.657 1075.68,-178.514 1091.51,-192.602 1096.84,-179.657"/>
</g>
<!-- soughtResource&#45;&gt;moveLearnerCopyCopy -->
<g id="edge22" class="edge"><title>soughtResource&#45;&gt;moveLearnerCopyCopy:ne</title>
<path fill="none" stroke="#1451cc" stroke-width="3" stroke-dasharray="5,2" d="M1226.39,-215.584C1235.35,-205.978 1245.38,-193.317 1251,-180 1273.13,-127.589 1304.95,-91.0032 1280.75,-51.7955"/>
<polygon fill="#1451cc" stroke="#1451cc" points="1286.01,-47.1647 1268,-36 1275.12,-55.9589 1286.01,-47.1647"/>
</g>
<!-- towardQueryCopy -->
<g id="node41" class="node"><title>towardQueryCopy</title>
<polygon fill="#ccddff" stroke="#ccddff" points="1143.35,-180 1106.65,-180 1094.65,-168 1094.65,-156 1106.65,-144 1143.35,-144 1155.35,-156 1155.35,-168 1143.35,-180"/>
<path fill="#ccddff" stroke="#ccddff" d="M1106.65,-180C1100.65,-180 1094.65,-174 1094.65,-168"/>
<path fill="#ccddff" stroke="#ccddff" d="M1094.65,-156C1094.65,-150 1100.65,-144 1106.65,-144"/>
<path fill="#ccddff" stroke="#ccddff" d="M1143.35,-144C1149.35,-144 1155.35,-150 1155.35,-156"/>
<path fill="#ccddff" stroke="#ccddff" d="M1155.35,-168C1155.35,-174 1149.35,-180 1143.35,-180"/>
<polyline fill="none" stroke="#ccddff" points="1143.35,-180 1106.65,-180 "/>
<path fill="none" stroke="#ccddff" d="M1106.65,-180C1100.65,-180 1094.65,-174 1094.65,-168"/>
<polyline fill="none" stroke="#ccddff" points="1094.65,-168 1094.65,-156 "/>
<path fill="none" stroke="#ccddff" d="M1094.65,-156C1094.65,-150 1100.65,-144 1106.65,-144"/>
<polyline fill="none" stroke="#ccddff" points="1106.65,-144 1143.35,-144 "/>
<path fill="none" stroke="#ccddff" d="M1143.35,-144C1149.35,-144 1155.35,-150 1155.35,-156"/>
<polyline fill="none" stroke="#ccddff" points="1155.35,-156 1155.35,-168 "/>
<path fill="none" stroke="#ccddff" d="M1155.35,-168C1155.35,-174 1149.35,-180 1143.35,-180"/>
<text text-anchor="middle" x="1125" y="-156.4" font-family="Helvetica,sans-Serif" font-size="14.00">Toward</text>
</g>
<!-- soughtResource&#45;&gt;towardQueryCopy -->
<g id="edge32" class="edge"><title>soughtResource&#45;&gt;towardQueryCopy</title>
<path fill="none" stroke="#1451cc" stroke-width="3" d="M1187.48,-215.697C1179.44,-208.915 1169.98,-200.931 1160.88,-193.257"/>
<polygon fill="#1451cc" stroke="#1451cc" points="1165.08,-187.647 1145.28,-180.104 1156.06,-198.349 1165.08,-187.647"/>
</g>
<!-- nearestQueryCopy -->
<g id="node43" class="node"><title>nearestQueryCopy</title>
<polygon fill="#ccddff" stroke="#ccddff" points="1230.18,-180 1185.82,-180 1173.82,-168 1173.82,-156 1185.82,-144 1230.18,-144 1242.18,-156 1242.18,-168 1230.18,-180"/>
<path fill="#ccddff" stroke="#ccddff" d="M1185.82,-180C1179.82,-180 1173.82,-174 1173.82,-168"/>
<path fill="#ccddff" stroke="#ccddff" d="M1173.82,-156C1173.82,-150 1179.82,-144 1185.82,-144"/>
<path fill="#ccddff" stroke="#ccddff" d="M1230.18,-144C1236.18,-144 1242.18,-150 1242.18,-156"/>
<path fill="#ccddff" stroke="#ccddff" d="M1242.18,-168C1242.18,-174 1236.18,-180 1230.18,-180"/>
<polyline fill="none" stroke="#ccddff" points="1230.18,-180 1185.82,-180 "/>
<path fill="none" stroke="#ccddff" d="M1185.82,-180C1179.82,-180 1173.82,-174 1173.82,-168"/>
<polyline fill="none" stroke="#ccddff" points="1173.82,-168 1173.82,-156 "/>
<path fill="none" stroke="#ccddff" d="M1173.82,-156C1173.82,-150 1179.82,-144 1185.82,-144"/>
<polyline fill="none" stroke="#ccddff" points="1185.82,-144 1230.18,-144 "/>
<path fill="none" stroke="#ccddff" d="M1230.18,-144C1236.18,-144 1242.18,-150 1242.18,-156"/>
<polyline fill="none" stroke="#ccddff" points="1242.18,-156 1242.18,-168 "/>
<path fill="none" stroke="#ccddff" d="M1242.18,-168C1242.18,-174 1236.18,-180 1230.18,-180"/>
<text text-anchor="middle" x="1208" y="-156.4" font-family="Helvetica,sans-Serif" font-size="14.00">Nearest </text>
</g>
<!-- soughtResource&#45;&gt;nearestQueryCopy -->
<g id="edge34" class="edge"><title>soughtResource&#45;&gt;nearestQueryCopy</title>
<path fill="none" stroke="#1451cc" stroke-width="3" d="M1208,-215.697C1208,-210.95 1208,-205.613 1208,-200.206"/>
<polygon fill="#1451cc" stroke="#1451cc" points="1215,-200.104 1208,-180.104 1201,-200.104 1215,-200.104"/>
</g>
<!-- neighborQueryCopy -->
<g id="node24" class="node"><title>neighborQueryCopy</title>
<polygon fill="#ccf3ff" stroke="#ccf3ff" points="412.111,-252 363.889,-252 351.889,-240 351.889,-228 363.889,-216 412.111,-216 424.111,-228 424.111,-240 412.111,-252"/>
<path fill="#ccf3ff" stroke="#ccf3ff" d="M363.889,-252C357.889,-252 351.889,-246 351.889,-240"/>
<path fill="#ccf3ff" stroke="#ccf3ff" d="M351.889,-228C351.889,-222 357.889,-216 363.889,-216"/>
<path fill="#ccf3ff" stroke="#ccf3ff" d="M412.111,-216C418.111,-216 424.111,-222 424.111,-228"/>
<path fill="#ccf3ff" stroke="#ccf3ff" d="M424.111,-240C424.111,-246 418.111,-252 412.111,-252"/>
<polyline fill="none" stroke="#ccf3ff" points="412.111,-252 363.889,-252 "/>
<path fill="none" stroke="#ccf3ff" d="M363.889,-252C357.889,-252 351.889,-246 351.889,-240"/>
<polyline fill="none" stroke="#ccf3ff" points="351.889,-240 351.889,-228 "/>
<path fill="none" stroke="#ccf3ff" d="M351.889,-228C351.889,-222 357.889,-216 363.889,-216"/>
<polyline fill="none" stroke="#ccf3ff" points="363.889,-216 412.111,-216 "/>
<path fill="none" stroke="#ccf3ff" d="M412.111,-216C418.111,-216 424.111,-222 424.111,-228"/>
<polyline fill="none" stroke="#ccf3ff" points="424.111,-228 424.111,-240 "/>
<path fill="none" stroke="#ccf3ff" d="M424.111,-240C424.111,-246 418.111,-252 412.111,-252"/>
<text text-anchor="middle" x="388" y="-228.4" font-family="Helvetica,sans-Serif" font-size="14.00">Neighbor</text>
</g>
<!-- learnerHome&#45;&gt;neighborQueryCopy -->
<g id="edge14" class="edge"><title>learnerHome&#45;&gt;neighborQueryCopy</title>
<path fill="none" stroke="#14a3cc" stroke-width="3" d="M395.528,-287.697C394.838,-282.865 394.06,-277.422 393.274,-271.917"/>
<polygon fill="#14a3cc" stroke="#14a3cc" points="400.202,-270.913 390.443,-252.104 386.342,-272.893 400.202,-270.913"/>
</g>
<!-- towardQuery -->
<g id="node26" class="node"><title>towardQuery</title>
<polygon fill="#ccf3ff" stroke="#ccf3ff" points="321.348,-252 284.652,-252 272.652,-240 272.652,-228 284.652,-216 321.348,-216 333.348,-228 333.348,-240 321.348,-252"/>
<path fill="#ccf3ff" stroke="#ccf3ff" d="M284.652,-252C278.652,-252 272.652,-246 272.652,-240"/>
<path fill="#ccf3ff" stroke="#ccf3ff" d="M272.652,-228C272.652,-222 278.652,-216 284.652,-216"/>
<path fill="#ccf3ff" stroke="#ccf3ff" d="M321.348,-216C327.348,-216 333.348,-222 333.348,-228"/>
<path fill="#ccf3ff" stroke="#ccf3ff" d="M333.348,-240C333.348,-246 327.348,-252 321.348,-252"/>
<polyline fill="none" stroke="#ccf3ff" points="321.348,-252 284.652,-252 "/>
<path fill="none" stroke="#ccf3ff" d="M284.652,-252C278.652,-252 272.652,-246 272.652,-240"/>
<polyline fill="none" stroke="#ccf3ff" points="272.652,-240 272.652,-228 "/>
<path fill="none" stroke="#ccf3ff" d="M272.652,-228C272.652,-222 278.652,-216 284.652,-216"/>
<polyline fill="none" stroke="#ccf3ff" points="284.652,-216 321.348,-216 "/>
<path fill="none" stroke="#ccf3ff" d="M321.348,-216C327.348,-216 333.348,-222 333.348,-228"/>
<polyline fill="none" stroke="#ccf3ff" points="333.348,-228 333.348,-240 "/>
<path fill="none" stroke="#ccf3ff" d="M333.348,-240C333.348,-246 327.348,-252 321.348,-252"/>
<text text-anchor="middle" x="303" y="-228.4" font-family="Helvetica,sans-Serif" font-size="14.00">Toward</text>
</g>
<!-- learnerHome&#45;&gt;towardQuery -->
<g id="edge16" class="edge"><title>learnerHome&#45;&gt;towardQuery</title>
<path fill="none" stroke="#14a3cc" stroke-width="3" d="M374.517,-287.697C364.853,-280.576 353.39,-272.129 342.504,-264.108"/>
<polygon fill="#14a3cc" stroke="#14a3cc" points="346.467,-258.333 326.213,-252.104 338.162,-269.604 346.467,-258.333"/>
</g>
<!-- learnerHome&#45;&gt;moveHome -->
<g id="edge40" class="edge"><title>learnerHome&#45;&gt;moveHome:ne</title>
<path fill="none" stroke="#14a3cc" stroke-width="3" stroke-dasharray="5,2" d="M413.661,-287.884C443.119,-253.863 501.59,-176.525 475.805,-124.313"/>
<polygon fill="#14a3cc" stroke="#14a3cc" points="481.396,-120.099 464,-108 470.054,-128.306 481.396,-120.099"/>
</g>
<!-- _TowardQueryAndAvailableQueryCopy_ -->
<g id="node53" class="node"><title>_TowardQueryAndAvailableQueryCopy_</title>
<polygon fill="#ccf3ff" stroke="#ccf3ff" points="388,-180 358,-180 346,-168 346,-156 358,-144 388,-144 400,-156 400,-168 388,-180"/>
<path fill="#ccf3ff" stroke="#ccf3ff" d="M358,-180C352,-180 346,-174 346,-168"/>
<path fill="#ccf3ff" stroke="#ccf3ff" d="M346,-156C346,-150 352,-144 358,-144"/>
<path fill="#ccf3ff" stroke="#ccf3ff" d="M388,-144C394,-144 400,-150 400,-156"/>
<path fill="#ccf3ff" stroke="#ccf3ff" d="M400,-168C400,-174 394,-180 388,-180"/>
<polyline fill="none" stroke="#ccf3ff" points="388,-180 358,-180 "/>
<path fill="none" stroke="#ccf3ff" d="M358,-180C352,-180 346,-174 346,-168"/>
<polyline fill="none" stroke="#ccf3ff" points="346,-168 346,-156 "/>
<path fill="none" stroke="#ccf3ff" d="M346,-156C346,-150 352,-144 358,-144"/>
<polyline fill="none" stroke="#ccf3ff" points="358,-144 388,-144 "/>
<path fill="none" stroke="#ccf3ff" d="M388,-144C394,-144 400,-150 400,-156"/>
<polyline fill="none" stroke="#ccf3ff" points="400,-156 400,-168 "/>
<path fill="none" stroke="#ccf3ff" d="M400,-168C400,-174 394,-180 388,-180"/>
<text text-anchor="middle" x="373" y="-156.4" font-family="Helvetica,sans-Serif" font-size="14.00">And</text>
</g>
<!-- neighborQueryCopy&#45;&gt;_TowardQueryAndAvailableQueryCopy_ -->
<g id="edge46" class="edge"><title>neighborQueryCopy&#45;&gt;_TowardQueryAndAvailableQueryCopy_</title>
<path fill="none" stroke="#14a3cc" stroke-width="3" d="M384.292,-215.697C383.257,-210.865 382.091,-205.422 380.911,-199.917"/>
<polygon fill="#14a3cc" stroke="#14a3cc" points="387.7,-198.194 376.665,-180.104 374.011,-201.127 387.7,-198.194"/>
</g>
<!-- towardQuery&#45;&gt;_TowardQueryAndAvailableQueryCopy_ -->
<g id="edge60" class="edge"><title>towardQuery&#45;&gt;_TowardQueryAndAvailableQueryCopy_</title>
<path fill="none" stroke="#14a3cc" stroke-width="3" d="M320.303,-215.697C326.746,-209.254 334.274,-201.726 341.59,-194.41"/>
<polygon fill="#14a3cc" stroke="#14a3cc" points="346.703,-199.196 355.896,-180.104 336.804,-189.297 346.703,-199.196"/>
</g>
<!-- _SoughtResourceAndTowardQueryCopy_ -->
<g id="node29" class="node"><title>_SoughtResourceAndTowardQueryCopy_</title>
<polygon fill="#ccddff" stroke="#ccddff" points="1166,-108 1136,-108 1124,-96 1124,-84 1136,-72 1166,-72 1178,-84 1178,-96 1166,-108"/>
<path fill="#ccddff" stroke="#ccddff" d="M1136,-108C1130,-108 1124,-102 1124,-96"/>
<path fill="#ccddff" stroke="#ccddff" d="M1124,-84C1124,-78 1130,-72 1136,-72"/>
<path fill="#ccddff" stroke="#ccddff" d="M1166,-72C1172,-72 1178,-78 1178,-84"/>
<path fill="#ccddff" stroke="#ccddff" d="M1178,-96C1178,-102 1172,-108 1166,-108"/>
<polyline fill="none" stroke="#ccddff" points="1166,-108 1136,-108 "/>
<path fill="none" stroke="#ccddff" d="M1136,-108C1130,-108 1124,-102 1124,-96"/>
<polyline fill="none" stroke="#ccddff" points="1124,-96 1124,-84 "/>
<path fill="none" stroke="#ccddff" d="M1124,-84C1124,-78 1130,-72 1136,-72"/>
<polyline fill="none" stroke="#ccddff" points="1136,-72 1166,-72 "/>
<path fill="none" stroke="#ccddff" d="M1166,-72C1172,-72 1178,-78 1178,-84"/>
<polyline fill="none" stroke="#ccddff" points="1178,-84 1178,-96 "/>
<path fill="none" stroke="#ccddff" d="M1178,-96C1178,-102 1172,-108 1166,-108"/>
<text text-anchor="middle" x="1151" y="-84.4" font-family="Helvetica,sans-Serif" font-size="14.00">And</text>
</g>
<!-- resourceIDIdenticalTargetResourceIDQuery&#45;&gt;_SoughtResourceAndTowardQueryCopy_ -->
<g id="edge18" class="edge"><title>resourceIDIdenticalTargetResourceIDQuery&#45;&gt;_SoughtResourceAndTowardQueryCopy_</title>
<path fill="none" stroke="#1451cc" stroke-width="3" d="M1065.64,-143.876C1077.91,-136.277 1092.66,-127.142 1106.42,-118.619"/>
<polygon fill="#1451cc" stroke="#1451cc" points="1110.33,-124.43 1123.64,-107.947 1102.95,-112.529 1110.33,-124.43"/>
</g>
<!-- _SoughtResourceAndTowardQueryCopy_&#45;&gt;moveLearnerCopyCopy -->
<g id="edge24" class="edge"><title>_SoughtResourceAndTowardQueryCopy_&#45;&gt;moveLearnerCopyCopy</title>
<path fill="none" stroke="#1451cc" stroke-width="3" d="M1175.22,-71.8761C1185.41,-64.6727 1197.55,-56.0885 1209.05,-47.9536"/>
<polygon fill="#1451cc" stroke="#1451cc" points="1213.4,-53.452 1225.69,-36.1898 1205.32,-42.0208 1213.4,-53.452"/>
</g>
<!-- learnerCopyCopyCopy -->
<g id="node34" class="node"><title>learnerCopyCopyCopy</title>
<polygon fill="#cce8ff" stroke="#cce8ff" points="772.479,-252 623.521,-252 611.521,-240 611.521,-228 623.521,-216 772.479,-216 784.479,-228 784.479,-240 772.479,-252"/>
<path fill="#cce8ff" stroke="#cce8ff" d="M623.521,-252C617.521,-252 611.521,-246 611.521,-240"/>
<path fill="#cce8ff" stroke="#cce8ff" d="M611.521,-228C611.521,-222 617.521,-216 623.521,-216"/>
<path fill="#cce8ff" stroke="#cce8ff" d="M772.479,-216C778.479,-216 784.479,-222 784.479,-228"/>
<path fill="#cce8ff" stroke="#cce8ff" d="M784.479,-240C784.479,-246 778.479,-252 772.479,-252"/>
<polyline fill="none" stroke="gray" points="772.479,-252 623.521,-252 "/>
<path fill="none" stroke="gray" d="M623.521,-252C617.521,-252 611.521,-246 611.521,-240"/>
<polyline fill="none" stroke="gray" points="611.521,-240 611.521,-228 "/>
<path fill="none" stroke="gray" d="M611.521,-228C611.521,-222 617.521,-216 623.521,-216"/>
<polyline fill="none" stroke="gray" points="623.521,-216 772.479,-216 "/>
<path fill="none" stroke="gray" d="M772.479,-216C778.479,-216 784.479,-222 784.479,-228"/>
<polyline fill="none" stroke="gray" points="784.479,-228 784.479,-240 "/>
<path fill="none" stroke="gray" d="M784.479,-240C784.479,-246 778.479,-252 772.479,-252"/>
<text text-anchor="middle" x="698" y="-228.4" font-family="Helvetica,sans-Serif" font-size="14.00">Learner Copy Copy Copy</text>
</g>
<!-- neighborQueryCopyCopy -->
<g id="node36" class="node"><title>neighborQueryCopyCopy</title>
<polygon fill="#cce8ff" stroke="#cce8ff" points="760.111,-180 711.889,-180 699.889,-168 699.889,-156 711.889,-144 760.111,-144 772.111,-156 772.111,-168 760.111,-180"/>
<path fill="#cce8ff" stroke="#cce8ff" d="M711.889,-180C705.889,-180 699.889,-174 699.889,-168"/>
<path fill="#cce8ff" stroke="#cce8ff" d="M699.889,-156C699.889,-150 705.889,-144 711.889,-144"/>
<path fill="#cce8ff" stroke="#cce8ff" d="M760.111,-144C766.111,-144 772.111,-150 772.111,-156"/>
<path fill="#cce8ff" stroke="#cce8ff" d="M772.111,-168C772.111,-174 766.111,-180 760.111,-180"/>
<polyline fill="none" stroke="#cce8ff" points="760.111,-180 711.889,-180 "/>
<path fill="none" stroke="#cce8ff" d="M711.889,-180C705.889,-180 699.889,-174 699.889,-168"/>
<polyline fill="none" stroke="#cce8ff" points="699.889,-168 699.889,-156 "/>
<path fill="none" stroke="#cce8ff" d="M699.889,-156C699.889,-150 705.889,-144 711.889,-144"/>
<polyline fill="none" stroke="#cce8ff" points="711.889,-144 760.111,-144 "/>
<path fill="none" stroke="#cce8ff" d="M760.111,-144C766.111,-144 772.111,-150 772.111,-156"/>
<polyline fill="none" stroke="#cce8ff" points="772.111,-156 772.111,-168 "/>
<path fill="none" stroke="#cce8ff" d="M772.111,-168C772.111,-174 766.111,-180 760.111,-180"/>
<text text-anchor="middle" x="736" y="-156.4" font-family="Helvetica,sans-Serif" font-size="14.00">Neighbor</text>
</g>
<!-- learnerCopyCopyCopy&#45;&gt;neighborQueryCopyCopy -->
<g id="edge26" class="edge"><title>learnerCopyCopyCopy&#45;&gt;neighborQueryCopyCopy</title>
<path fill="none" stroke="#147acc" stroke-width="3" d="M707.393,-215.697C710.338,-210.271 713.701,-204.076 717.062,-197.886"/>
<polygon fill="#147acc" stroke="#147acc" points="723.325,-201.021 726.715,-180.104 711.021,-194.342 723.325,-201.021"/>
</g>
<!-- availableQueryCopy -->
<g id="node38" class="node"><title>availableQueryCopy</title>
<polygon fill="#cce8ff" stroke="#cce8ff" points="668.928,-180 621.072,-180 609.072,-168 609.072,-156 621.072,-144 668.928,-144 680.928,-156 680.928,-168 668.928,-180"/>
<path fill="#cce8ff" stroke="#cce8ff" d="M621.072,-180C615.072,-180 609.072,-174 609.072,-168"/>
<path fill="#cce8ff" stroke="#cce8ff" d="M609.072,-156C609.072,-150 615.072,-144 621.072,-144"/>
<path fill="#cce8ff" stroke="#cce8ff" d="M668.928,-144C674.928,-144 680.928,-150 680.928,-156"/>
<path fill="#cce8ff" stroke="#cce8ff" d="M680.928,-168C680.928,-174 674.928,-180 668.928,-180"/>
<polyline fill="none" stroke="#cce8ff" points="668.928,-180 621.072,-180 "/>
<path fill="none" stroke="#cce8ff" d="M621.072,-180C615.072,-180 609.072,-174 609.072,-168"/>
<polyline fill="none" stroke="#cce8ff" points="609.072,-168 609.072,-156 "/>
<path fill="none" stroke="#cce8ff" d="M609.072,-156C609.072,-150 615.072,-144 621.072,-144"/>
<polyline fill="none" stroke="#cce8ff" points="621.072,-144 668.928,-144 "/>
<path fill="none" stroke="#cce8ff" d="M668.928,-144C674.928,-144 680.928,-150 680.928,-156"/>
<polyline fill="none" stroke="#cce8ff" points="680.928,-156 680.928,-168 "/>
<path fill="none" stroke="#cce8ff" d="M680.928,-168C680.928,-174 674.928,-180 668.928,-180"/>
<text text-anchor="middle" x="645" y="-156.4" font-family="Helvetica,sans-Serif" font-size="14.00">Available</text>
</g>
<!-- learnerCopyCopyCopy&#45;&gt;availableQueryCopy -->
<g id="edge28" class="edge"><title>learnerCopyCopyCopy&#45;&gt;availableQueryCopy</title>
<path fill="none" stroke="#147acc" stroke-width="3" d="M684.899,-215.697C680.406,-209.763 675.216,-202.908 670.096,-196.146"/>
<polygon fill="#147acc" stroke="#147acc" points="675.604,-191.824 657.95,-180.104 664.442,-200.275 675.604,-191.824"/>
</g>
<!-- learnerCopyCopyCopy&#45;&gt;moveLearnerCopy -->
<g id="edge44" class="edge"><title>learnerCopyCopyCopy&#45;&gt;moveLearnerCopy:ne</title>
<path fill="none" stroke="#147acc" stroke-width="3" stroke-dasharray="5,2" d="M736.907,-215.973C752.67,-207.291 769.766,-195.295 781,-180 815.804,-132.614 856.414,-92.9056 832.48,-51.8289"/>
<polygon fill="#147acc" stroke="#147acc" points="837.88,-47.3716 820,-36 826.886,-56.0396 837.88,-47.3716"/>
</g>
<!-- _And_NeighborQueryCopyCopy -->
<g id="node45" class="node"><title>_And_NeighborQueryCopyCopy</title>
<polygon fill="#cce8ff" stroke="#cce8ff" points="744,-108 714,-108 702,-96 702,-84 714,-72 744,-72 756,-84 756,-96 744,-108"/>
<path fill="#cce8ff" stroke="#cce8ff" d="M714,-108C708,-108 702,-102 702,-96"/>
<path fill="#cce8ff" stroke="#cce8ff" d="M702,-84C702,-78 708,-72 714,-72"/>
<path fill="#cce8ff" stroke="#cce8ff" d="M744,-72C750,-72 756,-78 756,-84"/>
<path fill="#cce8ff" stroke="#cce8ff" d="M756,-96C756,-102 750,-108 744,-108"/>
<polyline fill="none" stroke="#cce8ff" points="744,-108 714,-108 "/>
<path fill="none" stroke="#cce8ff" d="M714,-108C708,-108 702,-102 702,-96"/>
<polyline fill="none" stroke="#cce8ff" points="702,-96 702,-84 "/>
<path fill="none" stroke="#cce8ff" d="M702,-84C702,-78 708,-72 714,-72"/>
<polyline fill="none" stroke="#cce8ff" points="714,-72 744,-72 "/>
<path fill="none" stroke="#cce8ff" d="M744,-72C750,-72 756,-78 756,-84"/>
<polyline fill="none" stroke="#cce8ff" points="756,-84 756,-96 "/>
<path fill="none" stroke="#cce8ff" d="M756,-96C756,-102 750,-108 744,-108"/>
<text text-anchor="middle" x="729" y="-84.4" font-family="Helvetica,sans-Serif" font-size="14.00">And</text>
</g>
<!-- neighborQueryCopyCopy&#45;&gt;_And_NeighborQueryCopyCopy -->
<g id="edge48" class="edge"><title>neighborQueryCopyCopy&#45;&gt;_And_NeighborQueryCopyCopy</title>
<path fill="none" stroke="#147acc" stroke-width="3" d="M734.27,-143.697C733.795,-138.95 733.261,-133.613 732.721,-128.206"/>
<polygon fill="#147acc" stroke="#147acc" points="739.666,-127.309 730.71,-108.104 725.735,-128.702 739.666,-127.309"/>
</g>
<!-- availableQueryCopy&#45;&gt;_And_NeighborQueryCopyCopy -->
<g id="edge36" class="edge"><title>availableQueryCopy&#45;&gt;_And_NeighborQueryCopyCopy</title>
<path fill="none" stroke="#147acc" stroke-width="3" d="M665.764,-143.697C674.004,-136.83 683.723,-128.731 693.037,-120.969"/>
<polygon fill="#147acc" stroke="#147acc" points="697.592,-126.286 708.475,-108.104 688.629,-115.531 697.592,-126.286"/>
</g>
<!-- towardQueryCopy&#45;&gt;_SoughtResourceAndTowardQueryCopy_ -->
<g id="edge54" class="edge"><title>towardQueryCopy&#45;&gt;_SoughtResourceAndTowardQueryCopy_</title>
<path fill="none" stroke="#1451cc" stroke-width="3" d="M1131.43,-143.697C1133.32,-138.611 1135.46,-132.848 1137.61,-127.047"/>
<polygon fill="#1451cc" stroke="#1451cc" points="1144.25,-129.29 1144.65,-108.104 1131.12,-124.416 1144.25,-129.29"/>
</g>
<!-- nearestQueryCopy&#45;&gt;_SoughtResourceAndTowardQueryCopy_ -->
<g id="edge52" class="edge"><title>nearestQueryCopy&#45;&gt;_SoughtResourceAndTowardQueryCopy_</title>
<path fill="none" stroke="#1451cc" stroke-width="3" d="M1193.91,-143.697C1189.01,-137.678 1183.34,-130.712 1177.75,-123.856"/>
<polygon fill="#1451cc" stroke="#1451cc" points="1182.98,-119.193 1164.93,-108.104 1172.13,-128.033 1182.98,-119.193"/>
</g>
<!-- _And_NeighborQueryCopyCopy&#45;&gt;moveLearnerCopy -->
<g id="edge56" class="edge"><title>_And_NeighborQueryCopyCopy&#45;&gt;moveLearnerCopy</title>
<path fill="none" stroke="#147acc" stroke-width="3" d="M747.045,-71.6966C753.852,-65.1695 761.821,-57.528 769.545,-50.1212"/>
<polygon fill="#147acc" stroke="#147acc" points="774.572,-54.9993 784.163,-36.1043 764.882,-44.8943 774.572,-54.9993"/>
</g>
<!-- _TowardQueryAndAvailableQueryCopy_&#45;&gt;moveHome -->
<g id="edge50" class="edge"><title>_TowardQueryAndAvailableQueryCopy_&#45;&gt;moveHome</title>
<path fill="none" stroke="#14a3cc" stroke-width="3" d="M391.045,-143.697C397.852,-137.169 405.821,-129.528 413.545,-122.121"/>
<polygon fill="#14a3cc" stroke="#14a3cc" points="418.572,-126.999 428.163,-108.104 408.882,-116.894 418.572,-126.999"/>
</g>
<!-- engagementIdenticalNotInterestedQuery&#45;&gt;learnerCopyCopyCopy -->
<g id="edge58" class="edge"><title>engagementIdenticalNotInterestedQuery&#45;&gt;learnerCopyCopyCopy</title>
<path fill="none" stroke="#14cccc" stroke-width="3" d="M642.292,-287.697C649.192,-281.169 657.27,-273.528 665.1,-266.121"/>
<polygon fill="#14cccc" stroke="#14cccc" points="670.199,-270.934 679.918,-252.104 660.578,-260.763 670.199,-270.934"/>
</g>
</g>
</svg>
