<?xml version="1.0" encoding="UTF-8" standalone="no"?>
<!DOCTYPE svg PUBLIC "-//W3C//DTD SVG 1.1//EN"
 "http://www.w3.org/Graphics/SVG/1.1/DTD/svg11.dtd">
<!-- Generated by graphviz version 2.29.20110702.0445 (20110702.0445)
 -->
<!-- Title: guide Pages: 1 -->
<svg width="520pt" height="361pt"
 viewBox="0.00 0.00 520.00 361.00" xmlns="http://www.w3.org/2000/svg" xmlns:xlink="http://www.w3.org/1999/xlink">
<g id="graph1" class="graph" transform="scale(1 1) rotate(0) translate(4 357)">
<title>guide</title>
<polygon fill="white" stroke="white" points="-4,5 -4,-357 517,-357 517,5 -4,5"/>
<g id="graph2" class="cluster"><title>clustercontextKey</title>
<polygon fill="ghostwhite" stroke="white" points="8,-291 8,-345 96,-345 96,-291 8,-291"/>
<text text-anchor="middle" x="52.1792" y="-327" font-family="Helvetica,sans-Serif" font-size="14.00">Parameters</text>
</g>
<g id="graph3" class="cluster"><title>clusterguideKey</title>
<polygon fill="ghostwhite" stroke="white" points="104,-219 104,-345 157,-345 157,-219 104,-219"/>
<text text-anchor="middle" x="130.679" y="-327" font-family="Helvetica,sans-Serif" font-size="14.00">Guide</text>
</g>
<!-- contextOverview -->
<g id="node2" class="node"><title>contextOverview</title>
<ellipse fill="black" stroke="black" cx="52" cy="-306" rx="7.2" ry="7.2"/>
</g>
<!-- initializeStateOverview -->
<g id="node4" class="node"><title>initializeStateOverview</title>
<a xlink:href="guide__Overview.svg">
<ellipse fill="#14cccc" stroke="#14cccc" cx="129" cy="-306" rx="7.2" ry="7.2"/>
</a>
</g>
<!-- initializeIDOverview -->
<g id="node5" class="node"><title>initializeIDOverview</title>
<a xlink:href="guide__Overview.svg">
<ellipse fill="#70cc14" stroke="#70cc14" cx="129" cy="-234" rx="7.2" ry="7.2"/>
</a>
</g>
<!-- initializeStateOverview&#45;&gt;initializeIDOverview -->
<!-- guideefficacy -->
<g id="node7" class="node"><title>guideefficacy</title>
<polygon fill="white" stroke="white" points="250.26,-180 185.74,-180 185.74,-144 250.26,-144 250.26,-180"/>
<text text-anchor="middle" x="218" y="-156.4" font-family="Helvetica,sans-Serif" font-size="14.00">Efficacy</text>
</g>
<!-- initializeState -->
<g id="node8" class="node"><title>initializeState</title>
<a xlink:href="guide_initializeState.svg" xlink:title="Initialize State">
<polygon fill="#ccffff" stroke="#ccffff" points="257.368,-324 178.632,-324 166.632,-312 166.632,-300 178.632,-288 257.368,-288 269.368,-300 269.368,-312 257.368,-324"/>
<path fill="#ccffff" stroke="#ccffff" d="M178.632,-324C172.632,-324 166.632,-318 166.632,-312"/>
<path fill="#ccffff" stroke="#ccffff" d="M166.632,-300C166.632,-294 172.632,-288 178.632,-288"/>
<path fill="#ccffff" stroke="#ccffff" d="M257.368,-288C263.368,-288 269.368,-294 269.368,-300"/>
<path fill="#ccffff" stroke="#ccffff" d="M269.368,-312C269.368,-318 263.368,-324 257.368,-324"/>
<polyline fill="none" stroke="black" points="257.368,-324 178.632,-324 "/>
<path fill="none" stroke="black" d="M178.632,-324C172.632,-324 166.632,-318 166.632,-312"/>
<polyline fill="none" stroke="black" points="166.632,-312 166.632,-300 "/>
<path fill="none" stroke="black" d="M166.632,-300C166.632,-294 172.632,-288 178.632,-288"/>
<polyline fill="none" stroke="black" points="178.632,-288 257.368,-288 "/>
<path fill="none" stroke="black" d="M257.368,-288C263.368,-288 269.368,-294 269.368,-300"/>
<polyline fill="none" stroke="black" points="269.368,-300 269.368,-312 "/>
<path fill="none" stroke="black" d="M269.368,-312C269.368,-318 263.368,-324 257.368,-324"/>
<text text-anchor="middle" x="218" y="-300.4" font-family="Helvetica,sans-Serif" font-size="14.00">Initialize State</text>
</a>
</g>
<!-- guideEfficacy -->
<g id="node10" class="node"><title>guideEfficacy</title>
<polygon fill="#ccffff" stroke="#ccffff" points="259.196,-252 176.804,-252 164.804,-240 164.804,-228 176.804,-216 259.196,-216 271.196,-228 271.196,-240 259.196,-252"/>
<path fill="#ccffff" stroke="#ccffff" d="M176.804,-252C170.804,-252 164.804,-246 164.804,-240"/>
<path fill="#ccffff" stroke="#ccffff" d="M164.804,-228C164.804,-222 170.804,-216 176.804,-216"/>
<path fill="#ccffff" stroke="#ccffff" d="M259.196,-216C265.196,-216 271.196,-222 271.196,-228"/>
<path fill="#ccffff" stroke="#ccffff" d="M271.196,-240C271.196,-246 265.196,-252 259.196,-252"/>
<polyline fill="none" stroke="#ccffff" points="259.196,-252 176.804,-252 "/>
<path fill="none" stroke="#ccffff" d="M176.804,-252C170.804,-252 164.804,-246 164.804,-240"/>
<polyline fill="none" stroke="#ccffff" points="164.804,-240 164.804,-228 "/>
<path fill="none" stroke="#ccffff" d="M164.804,-228C164.804,-222 170.804,-216 176.804,-216"/>
<polyline fill="none" stroke="#ccffff" points="176.804,-216 259.196,-216 "/>
<path fill="none" stroke="#ccffff" d="M259.196,-216C265.196,-216 271.196,-222 271.196,-228"/>
<polyline fill="none" stroke="#ccffff" points="271.196,-228 271.196,-240 "/>
<path fill="none" stroke="#ccffff" d="M271.196,-240C271.196,-246 265.196,-252 259.196,-252"/>
<text text-anchor="middle" x="218" y="-228.4" font-family="Helvetica,sans-Serif" font-size="14.00">Guide Efficacy</text>
</g>
<!-- initializeState&#45;&gt;guideEfficacy -->
<g id="edge6" class="edge"><title>initializeState&#45;&gt;guideEfficacy</title>
<path fill="none" stroke="#14cccc" stroke-width="3" d="M218,-287.697C218,-282.95 218,-277.613 218,-272.206"/>
<polygon fill="#14cccc" stroke="#14cccc" points="225,-272.104 218,-252.104 211,-272.104 225,-272.104"/>
</g>
<!-- guideEfficacy&#45;&gt;guideefficacy -->
<g id="edge8" class="edge"><title>guideEfficacy&#45;&gt;guideefficacy</title>
<path fill="none" stroke="#14cccc" stroke-width="3" d="M218,-215.697C218,-210.95 218,-205.613 218,-200.206"/>
<polygon fill="#14cccc" stroke="#14cccc" points="225,-200.104 218,-180.104 211,-200.104 225,-200.104"/>
</g>
<!-- guideguideID -->
<g id="node12" class="node"><title>guideguideID</title>
<polygon fill="white" stroke="white" points="366.435,-180 295.565,-180 295.565,-144 366.435,-144 366.435,-180"/>
<text text-anchor="middle" x="331" y="-156.4" font-family="Helvetica,sans-Serif" font-size="14.00">Guide ID</text>
</g>
<!-- incrementGuideID -->
<g id="node19" class="node"><title>incrementGuideID</title>
<polygon fill="#e5ffcc" stroke="#e5ffcc" points="399.186,-108 344.814,-108 332.814,-96 332.814,-84 344.814,-72 399.186,-72 411.186,-84 411.186,-96 399.186,-108"/>
<path fill="#e5ffcc" stroke="#e5ffcc" d="M344.814,-108C338.814,-108 332.814,-102 332.814,-96"/>
<path fill="#e5ffcc" stroke="#e5ffcc" d="M332.814,-84C332.814,-78 338.814,-72 344.814,-72"/>
<path fill="#e5ffcc" stroke="#e5ffcc" d="M399.186,-72C405.186,-72 411.186,-78 411.186,-84"/>
<path fill="#e5ffcc" stroke="#e5ffcc" d="M411.186,-96C411.186,-102 405.186,-108 399.186,-108"/>
<polyline fill="none" stroke="#e5ffcc" points="399.186,-108 344.814,-108 "/>
<path fill="none" stroke="#e5ffcc" d="M344.814,-108C338.814,-108 332.814,-102 332.814,-96"/>
<polyline fill="none" stroke="#e5ffcc" points="332.814,-96 332.814,-84 "/>
<path fill="none" stroke="#e5ffcc" d="M332.814,-84C332.814,-78 338.814,-72 344.814,-72"/>
<polyline fill="none" stroke="#e5ffcc" points="344.814,-72 399.186,-72 "/>
<path fill="none" stroke="#e5ffcc" d="M399.186,-72C405.186,-72 411.186,-78 411.186,-84"/>
<polyline fill="none" stroke="#e5ffcc" points="411.186,-84 411.186,-96 "/>
<path fill="none" stroke="#e5ffcc" d="M411.186,-96C411.186,-102 405.186,-108 399.186,-108"/>
<text text-anchor="middle" x="372" y="-84.4" font-family="Helvetica,sans-Serif" font-size="14.00">Increment</text>
</g>
<!-- guideguideID&#45;&gt;incrementGuideID -->
<g id="edge20" class="edge"><title>guideguideID&#45;&gt;incrementGuideID:nw</title>
<path fill="none" stroke="#70cc14" stroke-width="2" stroke-dasharray="1,5" d="M334.916,-143.838C337.634,-134.654 341.997,-123.382 348.698,-114.23"/>
<ellipse fill="#70cc14" stroke="#70cc14" cx="351.407" cy="-111.046" rx="4.00002" ry="4.00002"/>
</g>
<!-- socialResourcesnextGuideID -->
<g id="node13" class="node"><title>socialResourcesnextGuideID</title>
<polygon fill="white" stroke="white" points="424,-36 320,-36 320,-0 424,-0 424,-36"/>
<text text-anchor="start" x="328.5" y="-12.5" font-family="Helvetica,sans-Serif" font-size="14.00">Next Guide ID</text>
</g>
<!-- initializeID -->
<g id="node14" class="node"><title>initializeID</title>
<a xlink:href="guide_initializeID.svg" xlink:title="Initialize ID">
<polygon fill="#e5ffcc" stroke="#e5ffcc" points="379.352,-324 318.648,-324 306.648,-312 306.648,-300 318.648,-288 379.352,-288 391.352,-300 391.352,-312 379.352,-324"/>
<path fill="#e5ffcc" stroke="#e5ffcc" d="M318.648,-324C312.648,-324 306.648,-318 306.648,-312"/>
<path fill="#e5ffcc" stroke="#e5ffcc" d="M306.648,-300C306.648,-294 312.648,-288 318.648,-288"/>
<path fill="#e5ffcc" stroke="#e5ffcc" d="M379.352,-288C385.352,-288 391.352,-294 391.352,-300"/>
<path fill="#e5ffcc" stroke="#e5ffcc" d="M391.352,-312C391.352,-318 385.352,-324 379.352,-324"/>
<polyline fill="none" stroke="black" points="379.352,-324 318.648,-324 "/>
<path fill="none" stroke="black" d="M318.648,-324C312.648,-324 306.648,-318 306.648,-312"/>
<polyline fill="none" stroke="black" points="306.648,-312 306.648,-300 "/>
<path fill="none" stroke="black" d="M306.648,-300C306.648,-294 312.648,-288 318.648,-288"/>
<polyline fill="none" stroke="black" points="318.648,-288 379.352,-288 "/>
<path fill="none" stroke="black" d="M379.352,-288C385.352,-288 391.352,-294 391.352,-300"/>
<polyline fill="none" stroke="black" points="391.352,-300 391.352,-312 "/>
<path fill="none" stroke="black" d="M391.352,-312C391.352,-318 385.352,-324 379.352,-324"/>
<text text-anchor="middle" x="349" y="-300.4" font-family="Helvetica,sans-Serif" font-size="14.00">Initialize ID</text>
</a>
</g>
<!-- setGuideIDToNextGuideID -->
<g id="node16" class="node"><title>setGuideIDToNextGuideID</title>
<polygon fill="#e5ffcc" stroke="#e5ffcc" points="373,-252 343,-252 331,-240 331,-228 343,-216 373,-216 385,-228 385,-240 373,-252"/>
<path fill="#e5ffcc" stroke="#e5ffcc" d="M343,-252C337,-252 331,-246 331,-240"/>
<path fill="#e5ffcc" stroke="#e5ffcc" d="M331,-228C331,-222 337,-216 343,-216"/>
<path fill="#e5ffcc" stroke="#e5ffcc" d="M373,-216C379,-216 385,-222 385,-228"/>
<path fill="#e5ffcc" stroke="#e5ffcc" d="M385,-240C385,-246 379,-252 373,-252"/>
<polyline fill="none" stroke="#e5ffcc" points="373,-252 343,-252 "/>
<path fill="none" stroke="#e5ffcc" d="M343,-252C337,-252 331,-246 331,-240"/>
<polyline fill="none" stroke="#e5ffcc" points="331,-240 331,-228 "/>
<path fill="none" stroke="#e5ffcc" d="M331,-228C331,-222 337,-216 343,-216"/>
<polyline fill="none" stroke="#e5ffcc" points="343,-216 373,-216 "/>
<path fill="none" stroke="#e5ffcc" d="M373,-216C379,-216 385,-222 385,-228"/>
<polyline fill="none" stroke="#e5ffcc" points="385,-228 385,-240 "/>
<path fill="none" stroke="#e5ffcc" d="M385,-240C385,-246 379,-252 373,-252"/>
<text text-anchor="middle" x="358" y="-228.4" font-family="Helvetica,sans-Serif" font-size="14.00">Set</text>
</g>
<!-- initializeID&#45;&gt;setGuideIDToNextGuideID -->
<g id="edge10" class="edge"><title>initializeID&#45;&gt;setGuideIDToNextGuideID</title>
<path fill="none" stroke="#70cc14" stroke-width="3" d="M351.225,-287.697C351.835,-282.95 352.521,-277.613 353.216,-272.206"/>
<polygon fill="#70cc14" stroke="#70cc14" points="360.193,-272.834 355.801,-252.104 346.307,-271.048 360.193,-272.834"/>
</g>
<!-- setGuideIDToNextGuideID&#45;&gt;guideguideID -->
<g id="edge12" class="edge"><title>setGuideIDToNextGuideID&#45;&gt;guideguideID</title>
<path fill="none" stroke="#70cc14" stroke-width="3" d="M351.326,-215.697C349.364,-210.611 347.141,-204.848 344.904,-199.047"/>
<polygon fill="#70cc14" stroke="#70cc14" points="351.326,-196.245 337.597,-180.104 338.264,-201.283 351.326,-196.245"/>
</g>
<!-- setGuideIDToNextGuideID&#45;&gt;incrementGuideID -->
<g id="edge14" class="edge"><title>setGuideIDToNextGuideID&#45;&gt;incrementGuideID</title>
<path fill="none" stroke="#70cc14" stroke-width="3" d="M365.066,-215.665C368.838,-205.47 373.088,-192.22 375,-180 377.646,-163.085 377.442,-144.15 376.358,-128.107"/>
<polygon fill="#70cc14" stroke="#70cc14" points="383.325,-127.434 374.482,-108.178 369.387,-128.746 383.325,-127.434"/>
</g>
<!-- incrementGuideID&#45;&gt;socialResourcesnextGuideID -->
<g id="edge16" class="edge"><title>incrementGuideID&#45;&gt;socialResourcesnextGuideID</title>
<path fill="none" stroke="#70cc14" stroke-width="3" d="M372,-71.6966C372,-66.9496 372,-61.6132 372,-56.2063"/>
<polygon fill="#70cc14" stroke="#70cc14" points="379,-56.1043 372,-36.1043 365,-56.1044 379,-56.1043"/>
</g>
<!-- importabcsetGuideIDToNextGuideIDsocialResourcesnextGuideID -->
<g id="node21" class="node"><title>importabcsetGuideIDToNextGuideIDsocialResourcesnextGuideID</title>
<text text-anchor="middle" x="461" y="-300.4" font-family="Helvetica,sans-Serif" font-size="14.00">Next Guide ID</text>
</g>
<!-- importabcsetGuideIDToNextGuideIDsocialResourcesnextGuideID&#45;&gt;setGuideIDToNextGuideID -->
<g id="edge18" class="edge"><title>importabcsetGuideIDToNextGuideIDsocialResourcesnextGuideID&#45;&gt;setGuideIDToNextGuideID:ne</title>
<path fill="none" stroke="black" stroke-width="2" stroke-dasharray="1,5" d="M425.76,-287.817C411.554,-279.906 395.386,-269.6 381.959,-257.62"/>
<ellipse fill="black" stroke="black" cx="378.91" cy="-254.744" rx="4.00002" ry="4.00002"/>
</g>
</g>
</svg>
