<?xml version="1.0" encoding="UTF-8" standalone="no"?>
<!DOCTYPE svg PUBLIC "-//W3C//DTD SVG 1.1//EN"
 "http://www.w3.org/Graphics/SVG/1.1/DTD/svg11.dtd">
<!-- Generated by graphviz version 2.29.20110702.0445 (20110702.0445)
 -->
<!-- Title: guide Pages: 1 -->
<svg width="382pt" height="316pt"
 viewBox="0.00 0.00 382.00 316.00" xmlns="http://www.w3.org/2000/svg" xmlns:xlink="http://www.w3.org/1999/xlink">
<g id="graph1" class="graph" transform="scale(1 1) rotate(0) translate(4 312)">
<title>guide</title>
<polygon fill="white" stroke="white" points="-4,5 -4,-312 379,-312 379,5 -4,5"/>
<g id="graph2" class="cluster"><title>clusterWatch</title>
<polygon fill="ghostwhite" stroke="white" points="136,-224 136,-300 366,-300 366,-224 136,-224"/>
<text text-anchor="middle" x="163.582" y="-282" font-family="Helvetica,sans-Serif" font-size="14.00">Watch</text>
</g>
<g id="graph4" class="cluster"><title>clusterInit</title>
<polygon fill="ghostwhite" stroke="white" points="8,-8 8,-300 128,-300 128,-8 8,-8"/>
<text text-anchor="middle" x="41.2896" y="-282" font-family="Helvetica,sans-Serif" font-size="14.00">Initialize</text>
</g>
<!-- iteration -->
<g id="node1" class="node"><title>iteration</title>
<polygon fill="lightgray" stroke="lightgray" points="83,-52 53,-52 41,-40 41,-28 53,-16 83,-16 95,-28 95,-40 83,-52"/>
<path fill="lightgray" stroke="lightgray" d="M53,-52C47,-52 41,-46 41,-40"/>
<path fill="lightgray" stroke="lightgray" d="M41,-28C41,-22 47,-16 53,-16"/>
<path fill="lightgray" stroke="lightgray" d="M83,-16C89,-16 95,-22 95,-28"/>
<path fill="lightgray" stroke="lightgray" d="M95,-40C95,-46 89,-52 83,-52"/>
<polyline fill="none" stroke="black" points="83,-52 53,-52 "/>
<path fill="none" stroke="black" d="M53,-52C47,-52 41,-46 41,-40"/>
<polyline fill="none" stroke="black" points="41,-40 41,-28 "/>
<path fill="none" stroke="black" d="M41,-28C41,-22 47,-16 53,-16"/>
<polyline fill="none" stroke="black" points="53,-16 83,-16 "/>
<path fill="none" stroke="black" d="M83,-16C89,-16 95,-22 95,-28"/>
<polyline fill="none" stroke="black" points="95,-28 95,-40 "/>
<path fill="none" stroke="black" d="M95,-40C95,-46 89,-52 83,-52"/>
<text text-anchor="middle" x="68" y="-28.4" font-family="Helvetica,sans-Serif" font-size="14.00">Step</text>
</g>
<!-- start -->
<g id="node2" class="node"><title>start</title>
<polygon fill="lightgray" stroke="lightgray" points="83,-268 53,-268 41,-256 41,-244 53,-232 83,-232 95,-244 95,-256 83,-268"/>
<path fill="lightgray" stroke="lightgray" d="M53,-268C47,-268 41,-262 41,-256"/>
<path fill="lightgray" stroke="lightgray" d="M41,-244C41,-238 47,-232 53,-232"/>
<path fill="lightgray" stroke="lightgray" d="M83,-232C89,-232 95,-238 95,-244"/>
<path fill="lightgray" stroke="lightgray" d="M95,-256C95,-262 89,-268 83,-268"/>
<polyline fill="none" stroke="black" points="83,-268 53,-268 "/>
<path fill="none" stroke="black" d="M53,-268C47,-268 41,-262 41,-256"/>
<polyline fill="none" stroke="black" points="41,-256 41,-244 "/>
<path fill="none" stroke="black" d="M41,-244C41,-238 47,-232 53,-232"/>
<polyline fill="none" stroke="black" points="53,-232 83,-232 "/>
<path fill="none" stroke="black" d="M83,-232C89,-232 95,-238 95,-244"/>
<polyline fill="none" stroke="black" points="95,-244 95,-256 "/>
<path fill="none" stroke="black" d="M95,-256C95,-262 89,-268 83,-268"/>
<text text-anchor="middle" x="68" y="-244.4" font-family="Helvetica,sans-Serif" font-size="14.00">Start</text>
</g>
<!-- initializeState -->
<g id="node7" class="node"><title>initializeState</title>
<a xlink:href="guide_initializeState.svg" xlink:title="Initialize State">
<polygon fill="#ccffff" stroke="#ccffff" points="107.368,-196 28.6317,-196 16.6317,-184 16.6317,-172 28.6317,-160 107.368,-160 119.368,-172 119.368,-184 107.368,-196"/>
<path fill="#ccffff" stroke="#ccffff" d="M28.6317,-196C22.6317,-196 16.6317,-190 16.6317,-184"/>
<path fill="#ccffff" stroke="#ccffff" d="M16.6317,-172C16.6317,-166 22.6317,-160 28.6317,-160"/>
<path fill="#ccffff" stroke="#ccffff" d="M107.368,-160C113.368,-160 119.368,-166 119.368,-172"/>
<path fill="#ccffff" stroke="#ccffff" d="M119.368,-184C119.368,-190 113.368,-196 107.368,-196"/>
<polyline fill="none" stroke="black" points="107.368,-196 28.6317,-196 "/>
<path fill="none" stroke="black" d="M28.6317,-196C22.6317,-196 16.6317,-190 16.6317,-184"/>
<polyline fill="none" stroke="black" points="16.6317,-184 16.6317,-172 "/>
<path fill="none" stroke="black" d="M16.6317,-172C16.6317,-166 22.6317,-160 28.6317,-160"/>
<polyline fill="none" stroke="black" points="28.6317,-160 107.368,-160 "/>
<path fill="none" stroke="black" d="M107.368,-160C113.368,-160 119.368,-166 119.368,-172"/>
<polyline fill="none" stroke="black" points="119.368,-172 119.368,-184 "/>
<path fill="none" stroke="black" d="M119.368,-184C119.368,-190 113.368,-196 107.368,-196"/>
<text text-anchor="middle" x="68" y="-172.4" font-family="Helvetica,sans-Serif" font-size="14.00">Initialize State</text>
</a>
</g>
<!-- start&#45;&gt;initializeState -->
<g id="edge5" class="edge"><title>start&#45;&gt;initializeState</title>
<path fill="none" stroke="darkslategray" stroke-width="3" d="M68,-231.697C68,-223.983 68,-214.712 68,-206.112"/>
<polygon fill="darkslategray" stroke="darkslategray" points="71.5001,-206.104 68,-196.104 64.5001,-206.104 71.5001,-206.104"/>
</g>
<!-- deriveContributionPerLearner -->
<g id="node4" class="node"><title>deriveContributionPerLearner</title>
<a xlink:href="guide_deriveContributionPerLearner.svg" xlink:title="Derive Contribution Per Learner">
<polygon fill="#ffcccc" stroke="#ffcccc" points="345.242,-268 156.758,-268 144.758,-256 144.758,-244 156.758,-232 345.242,-232 357.242,-244 357.242,-256 345.242,-268"/>
<path fill="#ffcccc" stroke="#ffcccc" d="M156.758,-268C150.758,-268 144.758,-262 144.758,-256"/>
<path fill="#ffcccc" stroke="#ffcccc" d="M144.758,-244C144.758,-238 150.758,-232 156.758,-232"/>
<path fill="#ffcccc" stroke="#ffcccc" d="M345.242,-232C351.242,-232 357.242,-238 357.242,-244"/>
<path fill="#ffcccc" stroke="#ffcccc" d="M357.242,-256C357.242,-262 351.242,-268 345.242,-268"/>
<polyline fill="none" stroke="black" points="345.242,-268 156.758,-268 "/>
<path fill="none" stroke="black" d="M156.758,-268C150.758,-268 144.758,-262 144.758,-256"/>
<polyline fill="none" stroke="black" points="144.758,-256 144.758,-244 "/>
<path fill="none" stroke="black" d="M144.758,-244C144.758,-238 150.758,-232 156.758,-232"/>
<polyline fill="none" stroke="black" points="156.758,-232 345.242,-232 "/>
<path fill="none" stroke="black" d="M345.242,-232C351.242,-232 357.242,-238 357.242,-244"/>
<polyline fill="none" stroke="black" points="357.242,-244 357.242,-256 "/>
<path fill="none" stroke="black" d="M357.242,-256C357.242,-262 351.242,-268 345.242,-268"/>
<text text-anchor="middle" x="251" y="-244.4" font-family="Helvetica,sans-Serif" font-size="14.00">Derive Contribution Per Learner</text>
</a>
</g>
<!-- initializeID -->
<g id="node8" class="node"><title>initializeID</title>
<a xlink:href="guide_initializeID.svg" xlink:title="Initialize ID">
<polygon fill="#e5ffcc" stroke="#e5ffcc" points="98.3522,-124 37.6478,-124 25.6478,-112 25.6478,-100 37.6478,-88 98.3522,-88 110.352,-100 110.352,-112 98.3522,-124"/>
<path fill="#e5ffcc" stroke="#e5ffcc" d="M37.6478,-124C31.6478,-124 25.6478,-118 25.6478,-112"/>
<path fill="#e5ffcc" stroke="#e5ffcc" d="M25.6478,-100C25.6478,-94 31.6478,-88 37.6478,-88"/>
<path fill="#e5ffcc" stroke="#e5ffcc" d="M98.3522,-88C104.352,-88 110.352,-94 110.352,-100"/>
<path fill="#e5ffcc" stroke="#e5ffcc" d="M110.352,-112C110.352,-118 104.352,-124 98.3522,-124"/>
<polyline fill="none" stroke="black" points="98.3522,-124 37.6478,-124 "/>
<path fill="none" stroke="black" d="M37.6478,-124C31.6478,-124 25.6478,-118 25.6478,-112"/>
<polyline fill="none" stroke="black" points="25.6478,-112 25.6478,-100 "/>
<path fill="none" stroke="black" d="M25.6478,-100C25.6478,-94 31.6478,-88 37.6478,-88"/>
<polyline fill="none" stroke="black" points="37.6478,-88 98.3522,-88 "/>
<path fill="none" stroke="black" d="M98.3522,-88C104.352,-88 110.352,-94 110.352,-100"/>
<polyline fill="none" stroke="black" points="110.352,-100 110.352,-112 "/>
<path fill="none" stroke="black" d="M110.352,-112C110.352,-118 104.352,-124 98.3522,-124"/>
<text text-anchor="middle" x="68" y="-100.4" font-family="Helvetica,sans-Serif" font-size="14.00">Initialize ID</text>
</a>
</g>
<!-- initializeState&#45;&gt;initializeID -->
<g id="edge6" class="edge"><title>initializeState&#45;&gt;initializeID</title>
<path fill="none" stroke="darkslategray" stroke-width="3" d="M68,-159.697C68,-151.983 68,-142.712 68,-134.112"/>
<polygon fill="darkslategray" stroke="darkslategray" points="71.5001,-134.104 68,-124.104 64.5001,-134.104 71.5001,-134.104"/>
</g>
<!-- initializeID&#45;&gt;iteration -->
<g id="edge7" class="edge"><title>initializeID&#45;&gt;iteration</title>
<path fill="none" stroke="darkslategray" stroke-width="3" d="M68,-87.6966C68,-79.9827 68,-70.7125 68,-62.1124"/>
<polygon fill="darkslategray" stroke="darkslategray" points="71.5001,-62.1043 68,-52.1043 64.5001,-62.1044 71.5001,-62.1043"/>
</g>
</g>
</svg>
