<?xml version="1.0" encoding="UTF-8" standalone="no"?>
<!DOCTYPE svg PUBLIC "-//W3C//DTD SVG 1.1//EN"
 "http://www.w3.org/Graphics/SVG/1.1/DTD/svg11.dtd">
<!-- Generated by graphviz version 2.29.20110702.0445 (20110702.0445)
 -->
<!-- Title: initializeID Pages: 1 -->
<svg width="378pt" height="361pt"
 viewBox="0.00 0.00 378.00 361.00" xmlns="http://www.w3.org/2000/svg" xmlns:xlink="http://www.w3.org/1999/xlink">
<g id="graph1" class="graph" transform="scale(1 1) rotate(0) translate(4 357)">
<title>initializeID</title>
<polygon fill="white" stroke="white" points="-4,5 -4,-357 375,-357 375,5 -4,5"/>
<g id="graph2" class="cluster"><title>clustercontextKey</title>
<polygon fill="ghostwhite" stroke="white" points="8,-291 8,-345 96,-345 96,-291 8,-291"/>
<text text-anchor="middle" x="52.1792" y="-327" font-family="Helvetica,sans-Serif" font-size="14.00">Parameters</text>
</g>
<g id="graph3" class="cluster"><title>clusterguideKey</title>
<polygon fill="ghostwhite" stroke="white" points="104,-291 104,-345 157,-345 157,-291 104,-291"/>
<text text-anchor="middle" x="130.679" y="-327" font-family="Helvetica,sans-Serif" font-size="14.00">Guide</text>
</g>
<!-- contextOverview -->
<g id="node2" class="node"><title>contextOverview</title>
<ellipse fill="black" stroke="black" cx="52" cy="-306" rx="7.2" ry="7.2"/>
</g>
<!-- initializeIDOverview -->
<g id="node4" class="node"><title>initializeIDOverview</title>
<a xlink:href="guide__Overview.svg">
<ellipse fill="#70cc14" stroke="#70cc14" cx="129" cy="-306" rx="7.2" ry="7.2"/>
</a>
</g>
<!-- guideguideID -->
<g id="node5" class="node"><title>guideguideID</title>
<polygon fill="white" stroke="white" points="257.435,-180 186.565,-180 186.565,-144 257.435,-144 257.435,-180"/>
<text text-anchor="middle" x="222" y="-156.4" font-family="Helvetica,sans-Serif" font-size="14.00">Guide ID</text>
</g>
<!-- incrementGuideID -->
<g id="node12" class="node"><title>incrementGuideID</title>
<polygon fill="#e5ffcc" stroke="#e5ffcc" points="290.186,-108 235.814,-108 223.814,-96 223.814,-84 235.814,-72 290.186,-72 302.186,-84 302.186,-96 290.186,-108"/>
<path fill="#e5ffcc" stroke="#e5ffcc" d="M235.814,-108C229.814,-108 223.814,-102 223.814,-96"/>
<path fill="#e5ffcc" stroke="#e5ffcc" d="M223.814,-84C223.814,-78 229.814,-72 235.814,-72"/>
<path fill="#e5ffcc" stroke="#e5ffcc" d="M290.186,-72C296.186,-72 302.186,-78 302.186,-84"/>
<path fill="#e5ffcc" stroke="#e5ffcc" d="M302.186,-96C302.186,-102 296.186,-108 290.186,-108"/>
<polyline fill="none" stroke="#e5ffcc" points="290.186,-108 235.814,-108 "/>
<path fill="none" stroke="#e5ffcc" d="M235.814,-108C229.814,-108 223.814,-102 223.814,-96"/>
<polyline fill="none" stroke="#e5ffcc" points="223.814,-96 223.814,-84 "/>
<path fill="none" stroke="#e5ffcc" d="M223.814,-84C223.814,-78 229.814,-72 235.814,-72"/>
<polyline fill="none" stroke="#e5ffcc" points="235.814,-72 290.186,-72 "/>
<path fill="none" stroke="#e5ffcc" d="M290.186,-72C296.186,-72 302.186,-78 302.186,-84"/>
<polyline fill="none" stroke="#e5ffcc" points="302.186,-84 302.186,-96 "/>
<path fill="none" stroke="#e5ffcc" d="M302.186,-96C302.186,-102 296.186,-108 290.186,-108"/>
<text text-anchor="middle" x="263" y="-84.4" font-family="Helvetica,sans-Serif" font-size="14.00">Increment</text>
</g>
<!-- guideguideID&#45;&gt;incrementGuideID -->
<g id="edge14" class="edge"><title>guideguideID&#45;&gt;incrementGuideID:nw</title>
<path fill="none" stroke="#70cc14" stroke-width="2" stroke-dasharray="1,5" d="M225.916,-143.838C228.634,-134.654 232.997,-123.382 239.698,-114.23"/>
<ellipse fill="#70cc14" stroke="#70cc14" cx="242.407" cy="-111.046" rx="4.00002" ry="4.00002"/>
</g>
<!-- socialResourcesnextGuideID -->
<g id="node6" class="node"><title>socialResourcesnextGuideID</title>
<polygon fill="white" stroke="white" points="315,-36 211,-36 211,-0 315,-0 315,-36"/>
<text text-anchor="start" x="219.5" y="-12.5" font-family="Helvetica,sans-Serif" font-size="14.00">Next Guide ID</text>
</g>
<!-- initializeID -->
<g id="node7" class="node"><title>initializeID</title>
<a xlink:href="guide_initializeID.svg" xlink:title="Initialize ID">
<polygon fill="#e5ffcc" stroke="#e5ffcc" points="237.352,-324 176.648,-324 164.648,-312 164.648,-300 176.648,-288 237.352,-288 249.352,-300 249.352,-312 237.352,-324"/>
<path fill="#e5ffcc" stroke="#e5ffcc" d="M176.648,-324C170.648,-324 164.648,-318 164.648,-312"/>
<path fill="#e5ffcc" stroke="#e5ffcc" d="M164.648,-300C164.648,-294 170.648,-288 176.648,-288"/>
<path fill="#e5ffcc" stroke="#e5ffcc" d="M237.352,-288C243.352,-288 249.352,-294 249.352,-300"/>
<path fill="#e5ffcc" stroke="#e5ffcc" d="M249.352,-312C249.352,-318 243.352,-324 237.352,-324"/>
<polyline fill="none" stroke="black" points="237.352,-324 176.648,-324 "/>
<path fill="none" stroke="black" d="M176.648,-324C170.648,-324 164.648,-318 164.648,-312"/>
<polyline fill="none" stroke="black" points="164.648,-312 164.648,-300 "/>
<path fill="none" stroke="black" d="M164.648,-300C164.648,-294 170.648,-288 176.648,-288"/>
<polyline fill="none" stroke="black" points="176.648,-288 237.352,-288 "/>
<path fill="none" stroke="black" d="M237.352,-288C243.352,-288 249.352,-294 249.352,-300"/>
<polyline fill="none" stroke="black" points="249.352,-300 249.352,-312 "/>
<path fill="none" stroke="black" d="M249.352,-312C249.352,-318 243.352,-324 237.352,-324"/>
<text text-anchor="middle" x="207" y="-300.4" font-family="Helvetica,sans-Serif" font-size="14.00">Initialize ID</text>
</a>
</g>
<!-- setGuideIDToNextGuideID -->
<g id="node9" class="node"><title>setGuideIDToNextGuideID</title>
<polygon fill="#e5ffcc" stroke="#e5ffcc" points="269,-252 239,-252 227,-240 227,-228 239,-216 269,-216 281,-228 281,-240 269,-252"/>
<path fill="#e5ffcc" stroke="#e5ffcc" d="M239,-252C233,-252 227,-246 227,-240"/>
<path fill="#e5ffcc" stroke="#e5ffcc" d="M227,-228C227,-222 233,-216 239,-216"/>
<path fill="#e5ffcc" stroke="#e5ffcc" d="M269,-216C275,-216 281,-222 281,-228"/>
<path fill="#e5ffcc" stroke="#e5ffcc" d="M281,-240C281,-246 275,-252 269,-252"/>
<polyline fill="none" stroke="#e5ffcc" points="269,-252 239,-252 "/>
<path fill="none" stroke="#e5ffcc" d="M239,-252C233,-252 227,-246 227,-240"/>
<polyline fill="none" stroke="#e5ffcc" points="227,-240 227,-228 "/>
<path fill="none" stroke="#e5ffcc" d="M227,-228C227,-222 233,-216 239,-216"/>
<polyline fill="none" stroke="#e5ffcc" points="239,-216 269,-216 "/>
<path fill="none" stroke="#e5ffcc" d="M269,-216C275,-216 281,-222 281,-228"/>
<polyline fill="none" stroke="#e5ffcc" points="281,-228 281,-240 "/>
<path fill="none" stroke="#e5ffcc" d="M281,-240C281,-246 275,-252 269,-252"/>
<text text-anchor="middle" x="254" y="-228.4" font-family="Helvetica,sans-Serif" font-size="14.00">Set</text>
</g>
<!-- initializeID&#45;&gt;setGuideIDToNextGuideID -->
<g id="edge4" class="edge"><title>initializeID&#45;&gt;setGuideIDToNextGuideID</title>
<path fill="none" stroke="#70cc14" stroke-width="3" d="M218.618,-287.697C222.488,-281.932 226.942,-275.299 231.356,-268.726"/>
<polygon fill="#70cc14" stroke="#70cc14" points="237.178,-272.611 242.516,-252.104 225.555,-264.807 237.178,-272.611"/>
</g>
<!-- setGuideIDToNextGuideID&#45;&gt;guideguideID -->
<g id="edge6" class="edge"><title>setGuideIDToNextGuideID&#45;&gt;guideguideID</title>
<path fill="none" stroke="#70cc14" stroke-width="3" d="M246.09,-215.697C243.687,-210.441 240.954,-204.463 238.213,-198.467"/>
<polygon fill="#70cc14" stroke="#70cc14" points="244.501,-195.383 229.819,-180.104 231.768,-201.204 244.501,-195.383"/>
</g>
<!-- setGuideIDToNextGuideID&#45;&gt;incrementGuideID -->
<g id="edge8" class="edge"><title>setGuideIDToNextGuideID&#45;&gt;incrementGuideID</title>
<path fill="none" stroke="#70cc14" stroke-width="3" d="M258.869,-215.979C261.564,-205.665 264.637,-192.189 266,-180 267.891,-163.082 267.601,-144.253 266.655,-128.286"/>
<polygon fill="#70cc14" stroke="#70cc14" points="273.614,-127.497 265.042,-108.119 259.659,-128.613 273.614,-127.497"/>
</g>
<!-- incrementGuideID&#45;&gt;socialResourcesnextGuideID -->
<g id="edge10" class="edge"><title>incrementGuideID&#45;&gt;socialResourcesnextGuideID</title>
<path fill="none" stroke="#70cc14" stroke-width="3" d="M263,-71.6966C263,-66.9496 263,-61.6132 263,-56.2063"/>
<polygon fill="#70cc14" stroke="#70cc14" points="270,-56.1043 263,-36.1043 256,-56.1044 270,-56.1043"/>
</g>
<!-- importabcsetGuideIDToNextGuideIDsocialResourcesnextGuideID -->
<g id="node14" class="node"><title>importabcsetGuideIDToNextGuideIDsocialResourcesnextGuideID</title>
<text text-anchor="middle" x="319" y="-300.4" font-family="Helvetica,sans-Serif" font-size="14.00">Next Guide ID</text>
</g>
<!-- importabcsetGuideIDToNextGuideIDsocialResourcesnextGuideID&#45;&gt;setGuideIDToNextGuideID -->
<g id="edge12" class="edge"><title>importabcsetGuideIDToNextGuideIDsocialResourcesnextGuideID&#45;&gt;setGuideIDToNextGuideID:ne</title>
<path fill="none" stroke="black" stroke-width="2" stroke-dasharray="1,5" d="M304.681,-287.821C297.103,-278.952 287.379,-267.901 277.686,-257.808"/>
<ellipse fill="black" stroke="black" cx="274.798" cy="-254.858" rx="4.00002" ry="4.00002"/>
</g>
</g>
</svg>
