<?xml version="1.0" encoding="UTF-8" standalone="no"?>
<!DOCTYPE svg PUBLIC "-//W3C//DTD SVG 1.1//EN"
 "http://www.w3.org/Graphics/SVG/1.1/DTD/svg11.dtd">
<!-- Generated by graphviz version 2.29.20110702.0445 (20110702.0445)
 -->
<!-- Title: initializeState Pages: 1 -->
<svg width="278pt" height="217pt"
 viewBox="0.00 0.00 278.00 217.00" xmlns="http://www.w3.org/2000/svg" xmlns:xlink="http://www.w3.org/1999/xlink">
<g id="graph1" class="graph" transform="scale(1 1) rotate(0) translate(4 213)">
<title>initializeState</title>
<polygon fill="white" stroke="white" points="-4,5 -4,-213 275,-213 275,5 -4,5"/>
<g id="graph2" class="cluster"><title>clustercontextKey</title>
<polygon fill="ghostwhite" stroke="white" points="8,-147 8,-201 96,-201 96,-147 8,-147"/>
<text text-anchor="middle" x="52.1792" y="-183" font-family="Helvetica,sans-Serif" font-size="14.00">Parameters</text>
</g>
<g id="graph3" class="cluster"><title>clusterguideKey</title>
<polygon fill="ghostwhite" stroke="white" points="104,-147 104,-201 157,-201 157,-147 104,-147"/>
<text text-anchor="middle" x="130.679" y="-183" font-family="Helvetica,sans-Serif" font-size="14.00">Guide</text>
</g>
<!-- contextOverview -->
<g id="node2" class="node"><title>contextOverview</title>
<ellipse fill="black" stroke="black" cx="52" cy="-162" rx="7.2" ry="7.2"/>
</g>
<!-- initializeStateOverview -->
<g id="node4" class="node"><title>initializeStateOverview</title>
<a xlink:href="guide__Overview.svg">
<ellipse fill="#14cccc" stroke="#14cccc" cx="129" cy="-162" rx="7.2" ry="7.2"/>
</a>
</g>
<!-- guideefficacy -->
<g id="node5" class="node"><title>guideefficacy</title>
<polygon fill="white" stroke="white" points="249.26,-36 184.74,-36 184.74,-0 249.26,-0 249.26,-36"/>
<text text-anchor="middle" x="217" y="-12.4" font-family="Helvetica,sans-Serif" font-size="14.00">Efficacy</text>
</g>
<!-- initializeState -->
<g id="node6" class="node"><title>initializeState</title>
<a xlink:href="guide_initializeState.svg" xlink:title="Initialize State">
<polygon fill="#ccffff" stroke="#ccffff" points="256.368,-180 177.632,-180 165.632,-168 165.632,-156 177.632,-144 256.368,-144 268.368,-156 268.368,-168 256.368,-180"/>
<path fill="#ccffff" stroke="#ccffff" d="M177.632,-180C171.632,-180 165.632,-174 165.632,-168"/>
<path fill="#ccffff" stroke="#ccffff" d="M165.632,-156C165.632,-150 171.632,-144 177.632,-144"/>
<path fill="#ccffff" stroke="#ccffff" d="M256.368,-144C262.368,-144 268.368,-150 268.368,-156"/>
<path fill="#ccffff" stroke="#ccffff" d="M268.368,-168C268.368,-174 262.368,-180 256.368,-180"/>
<polyline fill="none" stroke="black" points="256.368,-180 177.632,-180 "/>
<path fill="none" stroke="black" d="M177.632,-180C171.632,-180 165.632,-174 165.632,-168"/>
<polyline fill="none" stroke="black" points="165.632,-168 165.632,-156 "/>
<path fill="none" stroke="black" d="M165.632,-156C165.632,-150 171.632,-144 177.632,-144"/>
<polyline fill="none" stroke="black" points="177.632,-144 256.368,-144 "/>
<path fill="none" stroke="black" d="M256.368,-144C262.368,-144 268.368,-150 268.368,-156"/>
<polyline fill="none" stroke="black" points="268.368,-156 268.368,-168 "/>
<path fill="none" stroke="black" d="M268.368,-168C268.368,-174 262.368,-180 256.368,-180"/>
<text text-anchor="middle" x="217" y="-156.4" font-family="Helvetica,sans-Serif" font-size="14.00">Initialize State</text>
</a>
</g>
<!-- guideEfficacy -->
<g id="node8" class="node"><title>guideEfficacy</title>
<polygon fill="#ccffff" stroke="#ccffff" points="258.196,-108 175.804,-108 163.804,-96 163.804,-84 175.804,-72 258.196,-72 270.196,-84 270.196,-96 258.196,-108"/>
<path fill="#ccffff" stroke="#ccffff" d="M175.804,-108C169.804,-108 163.804,-102 163.804,-96"/>
<path fill="#ccffff" stroke="#ccffff" d="M163.804,-84C163.804,-78 169.804,-72 175.804,-72"/>
<path fill="#ccffff" stroke="#ccffff" d="M258.196,-72C264.196,-72 270.196,-78 270.196,-84"/>
<path fill="#ccffff" stroke="#ccffff" d="M270.196,-96C270.196,-102 264.196,-108 258.196,-108"/>
<polyline fill="none" stroke="#ccffff" points="258.196,-108 175.804,-108 "/>
<path fill="none" stroke="#ccffff" d="M175.804,-108C169.804,-108 163.804,-102 163.804,-96"/>
<polyline fill="none" stroke="#ccffff" points="163.804,-96 163.804,-84 "/>
<path fill="none" stroke="#ccffff" d="M163.804,-84C163.804,-78 169.804,-72 175.804,-72"/>
<polyline fill="none" stroke="#ccffff" points="175.804,-72 258.196,-72 "/>
<path fill="none" stroke="#ccffff" d="M258.196,-72C264.196,-72 270.196,-78 270.196,-84"/>
<polyline fill="none" stroke="#ccffff" points="270.196,-84 270.196,-96 "/>
<path fill="none" stroke="#ccffff" d="M270.196,-96C270.196,-102 264.196,-108 258.196,-108"/>
<text text-anchor="middle" x="217" y="-84.4" font-family="Helvetica,sans-Serif" font-size="14.00">Guide Efficacy</text>
</g>
<!-- initializeState&#45;&gt;guideEfficacy -->
<g id="edge4" class="edge"><title>initializeState&#45;&gt;guideEfficacy</title>
<path fill="none" stroke="#14cccc" stroke-width="3" d="M217,-143.697C217,-138.95 217,-133.613 217,-128.206"/>
<polygon fill="#14cccc" stroke="#14cccc" points="224,-128.104 217,-108.104 210,-128.104 224,-128.104"/>
</g>
<!-- guideEfficacy&#45;&gt;guideefficacy -->
<g id="edge6" class="edge"><title>guideEfficacy&#45;&gt;guideefficacy</title>
<path fill="none" stroke="#14cccc" stroke-width="3" d="M217,-71.6966C217,-66.9496 217,-61.6132 217,-56.2063"/>
<polygon fill="#14cccc" stroke="#14cccc" points="224,-56.1043 217,-36.1043 210,-56.1044 224,-56.1043"/>
</g>
</g>
</svg>
