<?xml version="1.0" encoding="UTF-8" standalone="no"?>
<!DOCTYPE svg PUBLIC "-//W3C//DTD SVG 1.1//EN"
 "http://www.w3.org/Graphics/SVG/1.1/DTD/svg11.dtd">
<!-- Generated by graphviz version 2.29.20110702.0445 (20110702.0445)
 -->
<!-- Title: guide Pages: 1 -->
<svg width="779pt" height="217pt"
 viewBox="0.00 0.00 779.00 217.00" xmlns="http://www.w3.org/2000/svg" xmlns:xlink="http://www.w3.org/1999/xlink">
<g id="graph1" class="graph" transform="scale(1 1) rotate(0) translate(4 213)">
<title>guide</title>
<polygon fill="white" stroke="white" points="-4,5 -4,-213 776,-213 776,5 -4,5"/>
<g id="graph2" class="cluster"><title>clustercontextKey</title>
<polygon fill="ghostwhite" stroke="white" points="8,-147 8,-201 96,-201 96,-147 8,-147"/>
<text text-anchor="middle" x="52.1792" y="-183" font-family="Helvetica,sans-Serif" font-size="14.00">Parameters</text>
</g>
<g id="graph3" class="cluster"><title>clusterguideKey</title>
<polygon fill="ghostwhite" stroke="white" points="104,-147 104,-201 157,-201 157,-147 104,-147"/>
<text text-anchor="middle" x="130.679" y="-183" font-family="Helvetica,sans-Serif" font-size="14.00">Guide</text>
</g>
<!-- contextOverview -->
<g id="node2" class="node"><title>contextOverview</title>
<ellipse fill="black" stroke="black" cx="52" cy="-162" rx="7.2" ry="7.2"/>
</g>
<!-- deriveContributionPerLearnerOverview -->
<g id="node4" class="node"><title>deriveContributionPerLearnerOverview</title>
<a xlink:href="guide__Overview.svg">
<ellipse fill="#cc1414" stroke="#cc1414" cx="129" cy="-162" rx="7.2" ry="7.2"/>
</a>
</g>
<!-- guidelearnerCount -->
<g id="node5" class="node"><title>guidelearnerCount</title>
<polygon fill="white" stroke="white" points="342.13,-180 237.87,-180 237.87,-144 342.13,-144 342.13,-180"/>
<text text-anchor="middle" x="290" y="-156.4" font-family="Helvetica,sans-Serif" font-size="14.00">Learner Count</text>
</g>
<!-- learnerCountIdenticalZeroQuery -->
<g id="node12" class="node"><title>learnerCountIdenticalZeroQuery</title>
<polygon fill="#ffcccc" stroke="#ffcccc" points="333.448,-108 282.552,-108 270.552,-96 270.552,-84 282.552,-72 333.448,-72 345.448,-84 345.448,-96 333.448,-108"/>
<path fill="#ffcccc" stroke="#ffcccc" d="M282.552,-108C276.552,-108 270.552,-102 270.552,-96"/>
<path fill="#ffcccc" stroke="#ffcccc" d="M270.552,-84C270.552,-78 276.552,-72 282.552,-72"/>
<path fill="#ffcccc" stroke="#ffcccc" d="M333.448,-72C339.448,-72 345.448,-78 345.448,-84"/>
<path fill="#ffcccc" stroke="#ffcccc" d="M345.448,-96C345.448,-102 339.448,-108 333.448,-108"/>
<polyline fill="none" stroke="#ffcccc" points="333.448,-108 282.552,-108 "/>
<path fill="none" stroke="#ffcccc" d="M282.552,-108C276.552,-108 270.552,-102 270.552,-96"/>
<polyline fill="none" stroke="#ffcccc" points="270.552,-96 270.552,-84 "/>
<path fill="none" stroke="#ffcccc" d="M270.552,-84C270.552,-78 276.552,-72 282.552,-72"/>
<polyline fill="none" stroke="#ffcccc" points="282.552,-72 333.448,-72 "/>
<path fill="none" stroke="#ffcccc" d="M333.448,-72C339.448,-72 345.448,-78 345.448,-84"/>
<polyline fill="none" stroke="#ffcccc" points="345.448,-84 345.448,-96 "/>
<path fill="none" stroke="#ffcccc" d="M345.448,-96C345.448,-102 339.448,-108 333.448,-108"/>
<text text-anchor="middle" x="308" y="-84.4" font-family="Helvetica,sans-Serif" font-size="14.00">Identical?</text>
</g>
<!-- guidelearnerCount&#45;&gt;learnerCountIdenticalZeroQuery -->
<g id="edge14" class="edge"><title>guidelearnerCount&#45;&gt;learnerCountIdenticalZeroQuery:nw</title>
<path fill="none" stroke="#cc1414" stroke-width="2" stroke-dasharray="1,5" d="M284.389,-143.826C282.323,-134.67 281.35,-123.513 285.367,-114.727"/>
<ellipse fill="#cc1414" stroke="#cc1414" cx="287.731" cy="-111.294" rx="4.00002" ry="4.00002"/>
</g>
<!-- contributionTotalDivideLearnerCount -->
<g id="node15" class="node"><title>contributionTotalDivideLearnerCount</title>
<polygon fill="#ffcccc" stroke="#ffcccc" points="555.178,-36 524.822,-36 512.822,-24 512.822,-12 524.822,-0 555.178,-0 567.178,-12 567.178,-24 555.178,-36"/>
<path fill="#ffcccc" stroke="#ffcccc" d="M524.822,-36C518.822,-36 512.822,-30 512.822,-24"/>
<path fill="#ffcccc" stroke="#ffcccc" d="M512.822,-12C512.822,-6 518.822,-0 524.822,-0"/>
<path fill="#ffcccc" stroke="#ffcccc" d="M555.178,-0C561.178,-0 567.178,-6 567.178,-12"/>
<path fill="#ffcccc" stroke="#ffcccc" d="M567.178,-24C567.178,-30 561.178,-36 555.178,-36"/>
<polyline fill="none" stroke="#ffcccc" points="555.178,-36 524.822,-36 "/>
<path fill="none" stroke="#ffcccc" d="M524.822,-36C518.822,-36 512.822,-30 512.822,-24"/>
<polyline fill="none" stroke="#ffcccc" points="512.822,-24 512.822,-12 "/>
<path fill="none" stroke="#ffcccc" d="M512.822,-12C512.822,-6 518.822,-0 524.822,-0"/>
<polyline fill="none" stroke="#ffcccc" points="524.822,-0 555.178,-0 "/>
<path fill="none" stroke="#ffcccc" d="M555.178,-0C561.178,-0 567.178,-6 567.178,-12"/>
<polyline fill="none" stroke="#ffcccc" points="567.178,-12 567.178,-24 "/>
<path fill="none" stroke="#ffcccc" d="M567.178,-24C567.178,-30 561.178,-36 555.178,-36"/>
<text text-anchor="middle" x="540" y="-12.4" font-family="Helvetica,sans-Serif" font-size="14.00">Divide</text>
</g>
<!-- guidelearnerCount&#45;&gt;contributionTotalDivideLearnerCount -->
<g id="edge20" class="edge"><title>guidelearnerCount&#45;&gt;contributionTotalDivideLearnerCount:ne</title>
<path fill="none" stroke="#cc1414" stroke-width="2" stroke-dasharray="1,5" d="M342.358,-146.337C345.614,-145.521 348.848,-144.734 352,-144 434.43,-124.795 477.158,-165.784 539,-108 561.009,-87.4349 578.08,-64.0469 563.326,-42.3662"/>
<ellipse fill="#cc1414" stroke="#cc1414" cx="560.567" cy="-39.0681" rx="4.00002" ry="4.00002"/>
</g>
<!-- guidecontributionTotal -->
<g id="node6" class="node"><title>guidecontributionTotal</title>
<polygon fill="white" stroke="white" points="530.03,-108 405.97,-108 405.97,-72 530.03,-72 530.03,-108"/>
<text text-anchor="middle" x="468" y="-84.4" font-family="Helvetica,sans-Serif" font-size="14.00">Contribution Total</text>
</g>
<!-- guidecontributionTotal&#45;&gt;contributionTotalDivideLearnerCount -->
<g id="edge18" class="edge"><title>guidecontributionTotal&#45;&gt;contributionTotalDivideLearnerCount:nw</title>
<path fill="none" stroke="#cc1414" stroke-width="2" stroke-dasharray="1,5" d="M485.592,-71.8966C494.533,-63.1699 505.709,-52.2107 516.236,-41.7457"/>
<ellipse fill="#cc1414" stroke="#cc1414" cx="519.167" cy="-38.824" rx="4.00002" ry="4.00002"/>
</g>
<!-- socialResourceslearnerCount -->
<g id="node7" class="node"><title>socialResourceslearnerCount</title>
<polygon fill="white" stroke="white" points="699,-180 593,-180 593,-144 699,-144 699,-180"/>
<text text-anchor="start" x="601.5" y="-156.5" font-family="Helvetica,sans-Serif" font-size="14.00">Learner Count</text>
</g>
<!-- learnerCountGreaterZeroQuery -->
<g id="node10" class="node"><title>learnerCountGreaterZeroQuery</title>
<polygon fill="#ffcccc" stroke="#ffcccc" points="666.435,-108 619.565,-108 607.565,-96 607.565,-84 619.565,-72 666.435,-72 678.435,-84 678.435,-96 666.435,-108"/>
<path fill="#ffcccc" stroke="#ffcccc" d="M619.565,-108C613.565,-108 607.565,-102 607.565,-96"/>
<path fill="#ffcccc" stroke="#ffcccc" d="M607.565,-84C607.565,-78 613.565,-72 619.565,-72"/>
<path fill="#ffcccc" stroke="#ffcccc" d="M666.435,-72C672.435,-72 678.435,-78 678.435,-84"/>
<path fill="#ffcccc" stroke="#ffcccc" d="M678.435,-96C678.435,-102 672.435,-108 666.435,-108"/>
<polyline fill="none" stroke="#ffcccc" points="666.435,-108 619.565,-108 "/>
<path fill="none" stroke="#ffcccc" d="M619.565,-108C613.565,-108 607.565,-102 607.565,-96"/>
<polyline fill="none" stroke="#ffcccc" points="607.565,-96 607.565,-84 "/>
<path fill="none" stroke="#ffcccc" d="M607.565,-84C607.565,-78 613.565,-72 619.565,-72"/>
<polyline fill="none" stroke="#ffcccc" points="619.565,-72 666.435,-72 "/>
<path fill="none" stroke="#ffcccc" d="M666.435,-72C672.435,-72 678.435,-78 678.435,-84"/>
<polyline fill="none" stroke="#ffcccc" points="678.435,-84 678.435,-96 "/>
<path fill="none" stroke="#ffcccc" d="M678.435,-96C678.435,-102 672.435,-108 666.435,-108"/>
<text text-anchor="middle" x="643" y="-84.4" font-family="Helvetica,sans-Serif" font-size="14.00">Greater?</text>
</g>
<!-- socialResourceslearnerCount&#45;&gt;learnerCountGreaterZeroQuery -->
<g id="edge22" class="edge"><title>socialResourceslearnerCount&#45;&gt;learnerCountGreaterZeroQuery:nw</title>
<path fill="none" stroke="black" stroke-width="2" stroke-dasharray="1,5" d="M630.572,-143.755C624.031,-134.809 618.415,-123.913 620.876,-114.968"/>
<ellipse fill="black" stroke="black" cx="622.963" cy="-111.442" rx="4.00002" ry="4.00002"/>
</g>
<!-- deriveContributionPerLearner -->
<g id="node8" class="node"><title>deriveContributionPerLearner</title>
<a xlink:href="guide_deriveContributionPerLearner.svg" xlink:title="Derive Contribution Per Learner">
<polygon fill="#ffcccc" stroke="#ffcccc" points="562.242,-180 373.758,-180 361.758,-168 361.758,-156 373.758,-144 562.242,-144 574.242,-156 574.242,-168 562.242,-180"/>
<path fill="#ffcccc" stroke="#ffcccc" d="M373.758,-180C367.758,-180 361.758,-174 361.758,-168"/>
<path fill="#ffcccc" stroke="#ffcccc" d="M361.758,-156C361.758,-150 367.758,-144 373.758,-144"/>
<path fill="#ffcccc" stroke="#ffcccc" d="M562.242,-144C568.242,-144 574.242,-150 574.242,-156"/>
<path fill="#ffcccc" stroke="#ffcccc" d="M574.242,-168C574.242,-174 568.242,-180 562.242,-180"/>
<polyline fill="none" stroke="black" points="562.242,-180 373.758,-180 "/>
<path fill="none" stroke="black" d="M373.758,-180C367.758,-180 361.758,-174 361.758,-168"/>
<polyline fill="none" stroke="black" points="361.758,-168 361.758,-156 "/>
<path fill="none" stroke="black" d="M361.758,-156C361.758,-150 367.758,-144 373.758,-144"/>
<polyline fill="none" stroke="black" points="373.758,-144 562.242,-144 "/>
<path fill="none" stroke="black" d="M562.242,-144C568.242,-144 574.242,-150 574.242,-156"/>
<polyline fill="none" stroke="black" points="574.242,-156 574.242,-168 "/>
<path fill="none" stroke="black" d="M574.242,-168C574.242,-174 568.242,-180 562.242,-180"/>
<text text-anchor="middle" x="468" y="-156.4" font-family="Helvetica,sans-Serif" font-size="14.00">Derive Contribution Per Learner</text>
</a>
</g>
<!-- deriveContributionPerLearner&#45;&gt;learnerCountGreaterZeroQuery -->
<g id="edge4" class="edge"><title>deriveContributionPerLearner&#45;&gt;learnerCountGreaterZeroQuery</title>
<path fill="none" stroke="#cc1414" stroke-width="3" d="M510.81,-143.876C534.32,-134.472 563.714,-122.714 588.81,-112.676"/>
<polygon fill="#cc1414" stroke="#cc1414" points="591.438,-119.164 607.407,-105.237 586.238,-106.166 591.438,-119.164"/>
</g>
<!-- deriveContributionPerLearner&#45;&gt;learnerCountIdenticalZeroQuery -->
<g id="edge6" class="edge"><title>deriveContributionPerLearner&#45;&gt;learnerCountIdenticalZeroQuery</title>
<path fill="none" stroke="#cc1414" stroke-width="3" d="M428.86,-143.876C409.353,-135.342 385.415,-124.869 364.005,-115.502"/>
<polygon fill="#cc1414" stroke="#cc1414" points="366.763,-109.068 345.635,-107.465 361.152,-121.895 366.763,-109.068"/>
</g>
<!-- learnerCountGreaterZeroQuery&#45;&gt;contributionTotalDivideLearnerCount -->
<g id="edge10" class="edge"><title>learnerCountGreaterZeroQuery&#45;&gt;contributionTotalDivideLearnerCount</title>
<path fill="none" stroke="#cc1414" stroke-width="3" d="M617.803,-71.8761C607.079,-64.588 594.276,-55.8863 582.181,-47.6667"/>
<polygon fill="#cc1414" stroke="#cc1414" points="585.77,-41.6421 565.293,-36.1898 577.9,-53.2211 585.77,-41.6421"/>
</g>
<!-- originalValueZero -->
<g id="node13" class="node"><title>originalValueZero</title>
<polygon fill="#ffcccc" stroke="#ffcccc" points="315.179,-36 236.821,-36 224.821,-24 224.821,-12 236.821,-0 315.179,-0 327.179,-12 327.179,-24 315.179,-36"/>
<path fill="#ffcccc" stroke="#ffcccc" d="M236.821,-36C230.821,-36 224.821,-30 224.821,-24"/>
<path fill="#ffcccc" stroke="#ffcccc" d="M224.821,-12C224.821,-6 230.821,-0 236.821,-0"/>
<path fill="#ffcccc" stroke="#ffcccc" d="M315.179,-0C321.179,-0 327.179,-6 327.179,-12"/>
<path fill="#ffcccc" stroke="#ffcccc" d="M327.179,-24C327.179,-30 321.179,-36 315.179,-36"/>
<polyline fill="none" stroke="#ffcccc" points="315.179,-36 236.821,-36 "/>
<path fill="none" stroke="#ffcccc" d="M236.821,-36C230.821,-36 224.821,-30 224.821,-24"/>
<polyline fill="none" stroke="#ffcccc" points="224.821,-24 224.821,-12 "/>
<path fill="none" stroke="#ffcccc" d="M224.821,-12C224.821,-6 230.821,-0 236.821,-0"/>
<polyline fill="none" stroke="#ffcccc" points="236.821,-0 315.179,-0 "/>
<path fill="none" stroke="#ffcccc" d="M315.179,-0C321.179,-0 327.179,-6 327.179,-12"/>
<polyline fill="none" stroke="#ffcccc" points="327.179,-12 327.179,-24 "/>
<path fill="none" stroke="#ffcccc" d="M327.179,-24C327.179,-30 321.179,-36 315.179,-36"/>
<text text-anchor="middle" x="276" y="-12.4" font-family="Helvetica,sans-Serif" font-size="14.00">Original Value</text>
</g>
<!-- learnerCountIdenticalZeroQuery&#45;&gt;originalValueZero -->
<g id="edge8" class="edge"><title>learnerCountIdenticalZeroQuery&#45;&gt;originalValueZero</title>
<path fill="none" stroke="#cc1414" stroke-width="3" d="M300.09,-71.6966C297.687,-66.441 294.954,-60.4629 292.213,-54.4666"/>
<polygon fill="#cc1414" stroke="#cc1414" points="298.501,-51.3835 283.819,-36.1043 285.768,-57.2042 298.501,-51.3835"/>
</g>
<!-- importxyxoriginalValueZerofunctionszero0 -->
<g id="node17" class="node"><title>importxyxoriginalValueZerofunctionszero0</title>
<text text-anchor="middle" x="225" y="-84.4" font-family="Helvetica,sans-Serif" font-size="14.00">0</text>
</g>
<!-- importxyxoriginalValueZerofunctionszero0&#45;&gt;originalValueZero -->
<g id="edge12" class="edge"><title>importxyxoriginalValueZerofunctionszero0&#45;&gt;originalValueZero:nw</title>
<path fill="none" stroke="black" stroke-width="2" stroke-dasharray="1,5" d="M233.084,-71.8522C237.867,-62.7287 244.555,-51.4623 252.558,-41.9541"/>
<ellipse fill="black" stroke="black" cx="255.301" cy="-38.9525" rx="4.00002" ry="4.00002"/>
</g>
<!-- importxyxlearnerCountIdenticalZeroQueryfunctionszero0 -->
<g id="node20" class="node"><title>importxyxlearnerCountIdenticalZeroQueryfunctionszero0</title>
<text text-anchor="middle" x="192" y="-156.4" font-family="Helvetica,sans-Serif" font-size="14.00">0</text>
</g>
<!-- importxyxlearnerCountIdenticalZeroQueryfunctionszero0&#45;&gt;learnerCountIdenticalZeroQuery -->
<g id="edge16" class="edge"><title>importxyxlearnerCountIdenticalZeroQueryfunctionszero0&#45;&gt;learnerCountIdenticalZeroQuery:ne</title>
<path fill="none" stroke="black" stroke-width="2" stroke-dasharray="1,5" d="M219.01,-147.929C222.026,-146.564 225.067,-145.228 228,-144 267.79,-127.336 346.658,-138.9 331.187,-114.244"/>
<ellipse fill="black" stroke="black" cx="328.556" cy="-111.077" rx="4.00002" ry="4.00002"/>
</g>
<!-- importxyxlearnerCountGreaterZeroQueryfunctionszero0 -->
<g id="node25" class="node"><title>importxyxlearnerCountGreaterZeroQueryfunctionszero0</title>
<text text-anchor="middle" x="744" y="-156.4" font-family="Helvetica,sans-Serif" font-size="14.00">0</text>
</g>
<!-- importxyxlearnerCountGreaterZeroQueryfunctionszero0&#45;&gt;learnerCountGreaterZeroQuery -->
<g id="edge24" class="edge"><title>importxyxlearnerCountGreaterZeroQueryfunctionszero0&#45;&gt;learnerCountGreaterZeroQuery:ne</title>
<path fill="none" stroke="black" stroke-width="2" stroke-dasharray="1,5" d="M716.839,-147.61C701.541,-139.274 682.454,-127.505 666.962,-113.633"/>
<ellipse fill="black" stroke="black" cx="663.908" cy="-110.747" rx="4.00002" ry="4.00002"/>
</g>
</g>
</svg>
