<?xml version="1.0" encoding="UTF-8" standalone="no"?>
<!DOCTYPE svg PUBLIC "-//W3C//DTD SVG 1.1//EN"
 "http://www.w3.org/Graphics/SVG/1.1/DTD/svg11.dtd">
<!-- Generated by graphviz version 2.29.20110702.0445 (20110702.0445)
 -->
<!-- Title: pickGuide Pages: 1 -->
<svg width="527pt" height="289pt"
 viewBox="0.00 0.00 527.00 289.00" xmlns="http://www.w3.org/2000/svg" xmlns:xlink="http://www.w3.org/1999/xlink">
<g id="graph1" class="graph" transform="scale(1 1) rotate(0) translate(4 285)">
<title>pickGuide</title>
<polygon fill="white" stroke="white" points="-4,5 -4,-285 524,-285 524,5 -4,5"/>
<g id="graph2" class="cluster"><title>clustercontextKey</title>
<polygon fill="ghostwhite" stroke="white" points="8,-219 8,-273 96,-273 96,-219 8,-219"/>
<text text-anchor="middle" x="52.1792" y="-255" font-family="Helvetica,sans-Serif" font-size="14.00">Parameters</text>
</g>
<g id="graph3" class="cluster"><title>clusterlearnerKey</title>
<polygon fill="ghostwhite" stroke="white" points="104,-219 104,-273 168,-273 168,-219 104,-219"/>
<text text-anchor="middle" x="136.127" y="-255" font-family="Helvetica,sans-Serif" font-size="14.00">Learner</text>
</g>
<g id="graph4" class="cluster"><title>clusterguideKey</title>
<polygon fill="ghostwhite" stroke="white" points="176,-219 176,-273 229,-273 229,-219 176,-219"/>
<text text-anchor="middle" x="202.679" y="-255" font-family="Helvetica,sans-Serif" font-size="14.00">Guide</text>
</g>
<!-- contextOverview -->
<g id="node2" class="node"><title>contextOverview</title>
<ellipse fill="black" stroke="black" cx="52" cy="-234" rx="7.2" ry="7.2"/>
</g>
<!-- pickGuideOverview -->
<g id="node4" class="node"><title>pickGuideOverview</title>
<a xlink:href="learner__Overview.svg">
<ellipse fill="#14cccc" stroke="#14cccc" cx="136" cy="-234" rx="7.2" ry="7.2"/>
</a>
</g>
<!-- newGuideOverview -->
<g id="node6" class="node"><title>newGuideOverview</title>
<a xlink:href="guide__Overview.svg">
<ellipse fill="#147acc" stroke="#147acc" cx="201" cy="-234" rx="7.2" ry="7.2"/>
</a>
</g>
<!-- guidelearnerCount -->
<g id="node7" class="node"><title>guidelearnerCount</title>
<polygon fill="white" stroke="white" points="215.13,-180 110.87,-180 110.87,-144 215.13,-144 215.13,-180"/>
<text text-anchor="middle" x="163" y="-156.4" font-family="Helvetica,sans-Serif" font-size="14.00">Learner Count</text>
</g>
<!-- incrementLearnerCount -->
<g id="node18" class="node"><title>incrementLearnerCount</title>
<polygon fill="#cce8ff" stroke="#cce8ff" points="208.186,-108 153.814,-108 141.814,-96 141.814,-84 153.814,-72 208.186,-72 220.186,-84 220.186,-96 208.186,-108"/>
<path fill="#cce8ff" stroke="#cce8ff" d="M153.814,-108C147.814,-108 141.814,-102 141.814,-96"/>
<path fill="#cce8ff" stroke="#cce8ff" d="M141.814,-84C141.814,-78 147.814,-72 153.814,-72"/>
<path fill="#cce8ff" stroke="#cce8ff" d="M208.186,-72C214.186,-72 220.186,-78 220.186,-84"/>
<path fill="#cce8ff" stroke="#cce8ff" d="M220.186,-96C220.186,-102 214.186,-108 208.186,-108"/>
<polyline fill="none" stroke="#cce8ff" points="208.186,-108 153.814,-108 "/>
<path fill="none" stroke="#cce8ff" d="M153.814,-108C147.814,-108 141.814,-102 141.814,-96"/>
<polyline fill="none" stroke="#cce8ff" points="141.814,-96 141.814,-84 "/>
<path fill="none" stroke="#cce8ff" d="M141.814,-84C141.814,-78 147.814,-72 153.814,-72"/>
<polyline fill="none" stroke="#cce8ff" points="153.814,-72 208.186,-72 "/>
<path fill="none" stroke="#cce8ff" d="M208.186,-72C214.186,-72 220.186,-78 220.186,-84"/>
<polyline fill="none" stroke="#cce8ff" points="220.186,-84 220.186,-96 "/>
<path fill="none" stroke="#cce8ff" d="M220.186,-96C220.186,-102 214.186,-108 208.186,-108"/>
<text text-anchor="middle" x="181" y="-84.4" font-family="Helvetica,sans-Serif" font-size="14.00">Increment</text>
</g>
<!-- guidelearnerCount&#45;&gt;incrementLearnerCount -->
<g id="edge25" class="edge"><title>guidelearnerCount&#45;&gt;incrementLearnerCount:nw</title>
<path fill="none" stroke="#147acc" stroke-width="2" stroke-dasharray="1,5" d="M157.389,-143.826C155.323,-134.67 154.35,-123.513 158.367,-114.727"/>
<ellipse fill="#147acc" stroke="#147acc" cx="160.731" cy="-111.294" rx="4.00002" ry="4.00002"/>
</g>
<!-- learnerguideID -->
<g id="node8" class="node"><title>learnerguideID</title>
<polygon fill="white" stroke="white" points="464.435,-36 393.565,-36 393.565,-0 464.435,-0 464.435,-36"/>
<text text-anchor="middle" x="429" y="-12.4" font-family="Helvetica,sans-Serif" font-size="14.00">Guide ID</text>
</g>
<!-- guideguideID -->
<g id="node9" class="node"><title>guideguideID</title>
<polygon fill="white" stroke="white" points="446.435,-180 375.565,-180 375.565,-144 446.435,-144 446.435,-180"/>
<text text-anchor="middle" x="411" y="-156.4" font-family="Helvetica,sans-Serif" font-size="14.00">Guide ID</text>
</g>
<!-- guideIDAddZero -->
<g id="node16" class="node"><title>guideIDAddZero</title>
<polygon fill="#ccffff" stroke="#ccffff" points="444,-108 414,-108 402,-96 402,-84 414,-72 444,-72 456,-84 456,-96 444,-108"/>
<path fill="#ccffff" stroke="#ccffff" d="M414,-108C408,-108 402,-102 402,-96"/>
<path fill="#ccffff" stroke="#ccffff" d="M402,-84C402,-78 408,-72 414,-72"/>
<path fill="#ccffff" stroke="#ccffff" d="M444,-72C450,-72 456,-78 456,-84"/>
<path fill="#ccffff" stroke="#ccffff" d="M456,-96C456,-102 450,-108 444,-108"/>
<polyline fill="none" stroke="#ccffff" points="444,-108 414,-108 "/>
<path fill="none" stroke="#ccffff" d="M414,-108C408,-108 402,-102 402,-96"/>
<polyline fill="none" stroke="#ccffff" points="402,-96 402,-84 "/>
<path fill="none" stroke="#ccffff" d="M402,-84C402,-78 408,-72 414,-72"/>
<polyline fill="none" stroke="#ccffff" points="414,-72 444,-72 "/>
<path fill="none" stroke="#ccffff" d="M444,-72C450,-72 456,-78 456,-84"/>
<polyline fill="none" stroke="#ccffff" points="456,-84 456,-96 "/>
<path fill="none" stroke="#ccffff" d="M456,-96C456,-102 450,-108 444,-108"/>
<text text-anchor="middle" x="429" y="-84.4" font-family="Helvetica,sans-Serif" font-size="14.00">Add</text>
</g>
<!-- guideguideID&#45;&gt;guideIDAddZero -->
<g id="edge21" class="edge"><title>guideguideID&#45;&gt;guideIDAddZero:nw</title>
<path fill="none" stroke="#147acc" stroke-width="2" stroke-dasharray="1,5" d="M405.389,-143.826C403.323,-134.67 402.35,-123.513 406.367,-114.727"/>
<ellipse fill="#147acc" stroke="#147acc" cx="408.731" cy="-111.294" rx="4.00002" ry="4.00002"/>
</g>
<!-- pickGuide -->
<g id="node10" class="node"><title>pickGuide</title>
<a xlink:href="learner_pickGuide.svg" xlink:title="Pick Guide">
<polygon fill="#ccffff" stroke="#ccffff" points="308.274,-252 249.726,-252 237.726,-240 237.726,-228 249.726,-216 308.274,-216 320.274,-228 320.274,-240 308.274,-252"/>
<path fill="#ccffff" stroke="#ccffff" d="M249.726,-252C243.726,-252 237.726,-246 237.726,-240"/>
<path fill="#ccffff" stroke="#ccffff" d="M237.726,-228C237.726,-222 243.726,-216 249.726,-216"/>
<path fill="#ccffff" stroke="#ccffff" d="M308.274,-216C314.274,-216 320.274,-222 320.274,-228"/>
<path fill="#ccffff" stroke="#ccffff" d="M320.274,-240C320.274,-246 314.274,-252 308.274,-252"/>
<polyline fill="none" stroke="black" points="308.274,-252 249.726,-252 "/>
<path fill="none" stroke="black" d="M249.726,-252C243.726,-252 237.726,-246 237.726,-240"/>
<polyline fill="none" stroke="black" points="237.726,-240 237.726,-228 "/>
<path fill="none" stroke="black" d="M237.726,-228C237.726,-222 243.726,-216 249.726,-216"/>
<polyline fill="none" stroke="black" points="249.726,-216 308.274,-216 "/>
<path fill="none" stroke="black" d="M308.274,-216C314.274,-216 320.274,-222 320.274,-228"/>
<polyline fill="none" stroke="black" points="320.274,-228 320.274,-240 "/>
<path fill="none" stroke="black" d="M320.274,-240C320.274,-246 314.274,-252 308.274,-252"/>
<text text-anchor="middle" x="279" y="-228.4" font-family="Helvetica,sans-Serif" font-size="14.00">Pick Guide</text>
</a>
</g>
<!-- newGuide -->
<g id="node12" class="node"><title>newGuide</title>
<polygon fill="#cce8ff" stroke="#cce8ff" points="345.441,-180 284.559,-180 272.559,-168 272.559,-156 284.559,-144 345.441,-144 357.441,-156 357.441,-168 345.441,-180"/>
<path fill="#cce8ff" stroke="#cce8ff" d="M284.559,-180C278.559,-180 272.559,-174 272.559,-168"/>
<path fill="#cce8ff" stroke="#cce8ff" d="M272.559,-156C272.559,-150 278.559,-144 284.559,-144"/>
<path fill="#cce8ff" stroke="#cce8ff" d="M345.441,-144C351.441,-144 357.441,-150 357.441,-156"/>
<path fill="#cce8ff" stroke="#cce8ff" d="M357.441,-168C357.441,-174 351.441,-180 345.441,-180"/>
<polyline fill="none" stroke="gray" points="345.441,-180 284.559,-180 "/>
<path fill="none" stroke="gray" d="M284.559,-180C278.559,-180 272.559,-174 272.559,-168"/>
<polyline fill="none" stroke="gray" points="272.559,-168 272.559,-156 "/>
<path fill="none" stroke="gray" d="M272.559,-156C272.559,-150 278.559,-144 284.559,-144"/>
<polyline fill="none" stroke="gray" points="284.559,-144 345.441,-144 "/>
<path fill="none" stroke="gray" d="M345.441,-144C351.441,-144 357.441,-150 357.441,-156"/>
<polyline fill="none" stroke="gray" points="357.441,-156 357.441,-168 "/>
<path fill="none" stroke="gray" d="M357.441,-168C357.441,-174 351.441,-180 345.441,-180"/>
<text text-anchor="middle" x="315" y="-156.4" font-family="Helvetica,sans-Serif" font-size="14.00">New Guide</text>
</g>
<!-- pickGuide&#45;&gt;newGuide -->
<g id="edge5" class="edge"><title>pickGuide&#45;&gt;newGuide</title>
<path fill="none" stroke="#14cccc" stroke-width="3" d="M287.899,-215.697C290.645,-210.356 293.775,-204.27 296.909,-198.176"/>
<polygon fill="#14cccc" stroke="#14cccc" points="303.281,-201.092 306.203,-180.104 290.831,-194.689 303.281,-201.092"/>
</g>
<!-- connectLearner -->
<g id="node14" class="node"><title>connectLearner</title>
<polygon fill="#ccffff" stroke="#ccffff" points="319.108,-108 274.892,-108 262.892,-96 262.892,-84 274.892,-72 319.108,-72 331.108,-84 331.108,-96 319.108,-108"/>
<path fill="#ccffff" stroke="#ccffff" d="M274.892,-108C268.892,-108 262.892,-102 262.892,-96"/>
<path fill="#ccffff" stroke="#ccffff" d="M262.892,-84C262.892,-78 268.892,-72 274.892,-72"/>
<path fill="#ccffff" stroke="#ccffff" d="M319.108,-72C325.108,-72 331.108,-78 331.108,-84"/>
<path fill="#ccffff" stroke="#ccffff" d="M331.108,-96C331.108,-102 325.108,-108 319.108,-108"/>
<polyline fill="none" stroke="#ccffff" points="319.108,-108 274.892,-108 "/>
<path fill="none" stroke="#ccffff" d="M274.892,-108C268.892,-108 262.892,-102 262.892,-96"/>
<polyline fill="none" stroke="#ccffff" points="262.892,-96 262.892,-84 "/>
<path fill="none" stroke="#ccffff" d="M262.892,-84C262.892,-78 268.892,-72 274.892,-72"/>
<polyline fill="none" stroke="#ccffff" points="274.892,-72 319.108,-72 "/>
<path fill="none" stroke="#ccffff" d="M319.108,-72C325.108,-72 331.108,-78 331.108,-84"/>
<polyline fill="none" stroke="#ccffff" points="331.108,-84 331.108,-96 "/>
<path fill="none" stroke="#ccffff" d="M331.108,-96C331.108,-102 325.108,-108 319.108,-108"/>
<text text-anchor="middle" x="297" y="-84.4" font-family="Helvetica,sans-Serif" font-size="14.00">Connect</text>
</g>
<!-- pickGuide&#45;&gt;connectLearner -->
<g id="edge13" class="edge"><title>pickGuide&#45;&gt;connectLearner:nw</title>
<path fill="none" stroke="#14cccc" stroke-width="3" stroke-dasharray="5,2" d="M272.348,-215.628C268.797,-205.421 264.797,-192.171 263,-180 259.371,-155.425 257.119,-140.06 266.329,-123.971"/>
<polygon fill="#14cccc" stroke="#14cccc" points="272.053,-128.019 279,-108 261.086,-119.317 272.053,-128.019"/>
</g>
<!-- newGuide&#45;&gt;connectLearner -->
<g id="edge7" class="edge"><title>newGuide&#45;&gt;connectLearner</title>
<path fill="none" stroke="#147acc" stroke-width="3" d="M310.551,-143.697C309.286,-138.78 307.859,-133.231 306.418,-127.627"/>
<polygon fill="#147acc" stroke="#147acc" points="313.159,-125.731 301.398,-108.104 299.6,-129.218 313.159,-125.731"/>
</g>
<!-- newGuide&#45;&gt;connectLearner -->
<g id="edge15" class="edge"><title>newGuide&#45;&gt;connectLearner:ne</title>
<path fill="none" stroke="#147acc" stroke-width="3" stroke-dasharray="5,2" d="M320.611,-143.826C321.809,-138.516 322.639,-132.532 322.342,-126.728"/>
<polygon fill="#147acc" stroke="#147acc" points="328.817,-124.065 315,-108 315.783,-129.175 328.817,-124.065"/>
</g>
<!-- newGuide&#45;&gt;guideIDAddZero -->
<g id="edge9" class="edge"><title>newGuide&#45;&gt;guideIDAddZero</title>
<path fill="none" stroke="#147acc" stroke-width="3" d="M342.888,-143.876C355.354,-136.221 370.36,-127.007 384.329,-118.43"/>
<polygon fill="#147acc" stroke="#147acc" points="388.413,-124.136 401.794,-107.706 381.087,-112.206 388.413,-124.136"/>
</g>
<!-- newGuide&#45;&gt;incrementLearnerCount -->
<g id="edge11" class="edge"><title>newGuide&#45;&gt;incrementLearnerCount</title>
<path fill="none" stroke="#147acc" stroke-width="3" d="M282.22,-143.876C267.052,-135.952 248.685,-126.358 231.783,-117.528"/>
<polygon fill="#147acc" stroke="#147acc" points="234.874,-111.246 213.906,-108.19 228.392,-123.655 234.874,-111.246"/>
</g>
<!-- guideIDAddZero&#45;&gt;learnerguideID -->
<g id="edge17" class="edge"><title>guideIDAddZero&#45;&gt;learnerguideID</title>
<path fill="none" stroke="#14cccc" stroke-width="3" d="M429,-71.6966C429,-66.9496 429,-61.6132 429,-56.2063"/>
<polygon fill="#14cccc" stroke="#14cccc" points="436,-56.1043 429,-36.1043 422,-56.1044 436,-56.1043"/>
</g>
<!-- incrementLearnerCount&#45;&gt;guidelearnerCount -->
<g id="edge19" class="edge"><title>incrementLearnerCount&#45;&gt;guidelearnerCount</title>
<path fill="none" stroke="#147acc" stroke-width="3" d="M176.602,-108.104C175.342,-113.004 173.917,-118.543 172.477,-124.146"/>
<polygon fill="#147acc" stroke="#147acc" points="165.651,-122.583 167.449,-143.697 179.21,-126.07 165.651,-122.583"/>
</g>
<!-- importxyxguideIDAddZerofunctionszero0 -->
<g id="node24" class="node"><title>importxyxguideIDAddZerofunctionszero0</title>
<text text-anchor="middle" x="492" y="-156.4" font-family="Helvetica,sans-Serif" font-size="14.00">0</text>
</g>
<!-- importxyxguideIDAddZerofunctionszero0&#45;&gt;guideIDAddZero -->
<g id="edge23" class="edge"><title>importxyxguideIDAddZerofunctionszero0&#45;&gt;guideIDAddZero:ne</title>
<path fill="none" stroke="black" stroke-width="2" stroke-dasharray="1,5" d="M478.484,-143.672C471.358,-134.839 462.169,-123.899 452.823,-114"/>
<ellipse fill="black" stroke="black" cx="449.786" cy="-110.871" rx="4.00002" ry="4.00002"/>
</g>
</g>
</svg>
