<?xml version="1.0" encoding="UTF-8" standalone="no"?>
<!DOCTYPE svg PUBLIC "-//W3C//DTD SVG 1.1//EN"
 "http://www.w3.org/Graphics/SVG/1.1/DTD/svg11.dtd">
<!-- Generated by graphviz version 2.29.20110702.0445 (20110702.0445)
 -->
<!-- Title: guidedGrowth Pages: 1 -->
<svg width="465pt" height="577pt"
 viewBox="0.00 0.00 465.00 577.00" xmlns="http://www.w3.org/2000/svg" xmlns:xlink="http://www.w3.org/1999/xlink">
<g id="graph1" class="graph" transform="scale(1 1) rotate(0) translate(4 573)">
<title>guidedGrowth</title>
<polygon fill="white" stroke="white" points="-4,5 -4,-573 462,-573 462,5 -4,5"/>
<g id="graph2" class="cluster"><title>clustercontextKey</title>
<polygon fill="ghostwhite" stroke="white" points="8,-507 8,-561 96,-561 96,-507 8,-507"/>
<text text-anchor="middle" x="52.1792" y="-543" font-family="Helvetica,sans-Serif" font-size="14.00">Parameters</text>
</g>
<g id="graph3" class="cluster"><title>clusterlearnerKey</title>
<polygon fill="ghostwhite" stroke="white" points="104,-507 104,-561 168,-561 168,-507 104,-507"/>
<text text-anchor="middle" x="136.127" y="-543" font-family="Helvetica,sans-Serif" font-size="14.00">Learner</text>
</g>
<g id="graph4" class="cluster"><title>clusterguideKey</title>
<polygon fill="ghostwhite" stroke="white" points="176,-507 176,-561 229,-561 229,-507 176,-507"/>
<text text-anchor="middle" x="202.679" y="-543" font-family="Helvetica,sans-Serif" font-size="14.00">Guide</text>
</g>
<!-- contextOverview -->
<g id="node2" class="node"><title>contextOverview</title>
<ellipse fill="black" stroke="black" cx="52" cy="-522" rx="7.2" ry="7.2"/>
</g>
<!-- guidedGrowthOverview -->
<g id="node4" class="node"><title>guidedGrowthOverview</title>
<a xlink:href="learner__Overview.svg">
<ellipse fill="#cccb14" stroke="#cccb14" cx="136" cy="-522" rx="7.2" ry="7.2"/>
</a>
</g>
<!-- guideOverview -->
<g id="node6" class="node"><title>guideOverview</title>
<a xlink:href="guide__Overview.svg">
<ellipse fill="#7bcc14" stroke="#7bcc14" cx="201" cy="-522" rx="7.2" ry="7.2"/>
</a>
</g>
<!-- learnerlearningInterest -->
<g id="node7" class="node"><title>learnerlearningInterest</title>
<polygon fill="white" stroke="white" points="154.301,-396 33.6989,-396 33.6989,-360 154.301,-360 154.301,-396"/>
<text text-anchor="middle" x="94" y="-372.4" font-family="Helvetica,sans-Serif" font-size="14.00">Learning Interest</text>
</g>
<!-- newInterestLevel -->
<g id="node14" class="node"><title>newInterestLevel</title>
<polygon fill="#fffecc" stroke="#fffecc" points="147,-108 117,-108 105,-96 105,-84 117,-72 147,-72 159,-84 159,-96 147,-108"/>
<path fill="#fffecc" stroke="#fffecc" d="M117,-108C111,-108 105,-102 105,-96"/>
<path fill="#fffecc" stroke="#fffecc" d="M105,-84C105,-78 111,-72 117,-72"/>
<path fill="#fffecc" stroke="#fffecc" d="M147,-72C153,-72 159,-78 159,-84"/>
<path fill="#fffecc" stroke="#fffecc" d="M159,-96C159,-102 153,-108 147,-108"/>
<polyline fill="none" stroke="#fffecc" points="147,-108 117,-108 "/>
<path fill="none" stroke="#fffecc" d="M117,-108C111,-108 105,-102 105,-96"/>
<polyline fill="none" stroke="#fffecc" points="105,-96 105,-84 "/>
<path fill="none" stroke="#fffecc" d="M105,-84C105,-78 111,-72 117,-72"/>
<polyline fill="none" stroke="#fffecc" points="117,-72 147,-72 "/>
<path fill="none" stroke="#fffecc" d="M147,-72C153,-72 159,-78 159,-84"/>
<polyline fill="none" stroke="#fffecc" points="159,-84 159,-96 "/>
<path fill="none" stroke="#fffecc" d="M159,-96C159,-102 153,-108 147,-108"/>
<text text-anchor="middle" x="132" y="-84.4" font-family="Helvetica,sans-Serif" font-size="14.00">Add</text>
</g>
<!-- learnerlearningInterest&#45;&gt;newInterestLevel -->
<g id="edge23" class="edge"><title>learnerlearningInterest&#45;&gt;newInterestLevel:nw</title>
<path fill="none" stroke="#cccb14" stroke-width="2" stroke-dasharray="1,5" d="M88.6792,-359.785C75.5095,-313.456 46.7099,-184.879 108.184,-114.234"/>
<ellipse fill="#cccb14" stroke="#cccb14" cx="111.271" cy="-110.925" rx="4.00002" ry="4.00002"/>
</g>
<!-- potentialInfluence -->
<g id="node18" class="node"><title>potentialInfluence</title>
<polygon fill="#fffecc" stroke="#fffecc" points="241.103,-324 196.897,-324 184.897,-312 184.897,-300 196.897,-288 241.103,-288 253.103,-300 253.103,-312 241.103,-324"/>
<path fill="#fffecc" stroke="#fffecc" d="M196.897,-324C190.897,-324 184.897,-318 184.897,-312"/>
<path fill="#fffecc" stroke="#fffecc" d="M184.897,-300C184.897,-294 190.897,-288 196.897,-288"/>
<path fill="#fffecc" stroke="#fffecc" d="M241.103,-288C247.103,-288 253.103,-294 253.103,-300"/>
<path fill="#fffecc" stroke="#fffecc" d="M253.103,-312C253.103,-318 247.103,-324 241.103,-324"/>
<polyline fill="none" stroke="#fffecc" points="241.103,-324 196.897,-324 "/>
<path fill="none" stroke="#fffecc" d="M196.897,-324C190.897,-324 184.897,-318 184.897,-312"/>
<polyline fill="none" stroke="#fffecc" points="184.897,-312 184.897,-300 "/>
<path fill="none" stroke="#fffecc" d="M184.897,-300C184.897,-294 190.897,-288 196.897,-288"/>
<polyline fill="none" stroke="#fffecc" points="196.897,-288 241.103,-288 "/>
<path fill="none" stroke="#fffecc" d="M241.103,-288C247.103,-288 253.103,-294 253.103,-300"/>
<polyline fill="none" stroke="#fffecc" points="253.103,-300 253.103,-312 "/>
<path fill="none" stroke="#fffecc" d="M253.103,-312C253.103,-318 247.103,-324 241.103,-324"/>
<text text-anchor="middle" x="219" y="-300.4" font-family="Helvetica,sans-Serif" font-size="14.00">Subtract</text>
</g>
<!-- learnerlearningInterest&#45;&gt;potentialInfluence -->
<g id="edge41" class="edge"><title>learnerlearningInterest&#45;&gt;potentialInfluence:ne</title>
<path fill="none" stroke="#cccb14" stroke-width="2" stroke-dasharray="1,5" d="M153.87,-359.969C185.165,-350.509 219.575,-339.055 232.434,-330.974"/>
<ellipse fill="#cccb14" stroke="#cccb14" cx="234.809" cy="-327.347" rx="4.00002" ry="4.00002"/>
</g>
<!-- guidecontributionTotal -->
<g id="node8" class="node"><title>guidecontributionTotal</title>
<polygon fill="white" stroke="white" points="257.03,-36 132.97,-36 132.97,-0 257.03,-0 257.03,-36"/>
<text text-anchor="middle" x="195" y="-12.4" font-family="Helvetica,sans-Serif" font-size="14.00">Contribution Total</text>
</g>
<!-- performanceAddGuideInfluence -->
<g id="node22" class="node"><title>performanceAddGuideInfluence</title>
<polygon fill="#e8ffcc" stroke="#e8ffcc" points="219,-108 189,-108 177,-96 177,-84 189,-72 219,-72 231,-84 231,-96 219,-108"/>
<path fill="#e8ffcc" stroke="#e8ffcc" d="M189,-108C183,-108 177,-102 177,-96"/>
<path fill="#e8ffcc" stroke="#e8ffcc" d="M177,-84C177,-78 183,-72 189,-72"/>
<path fill="#e8ffcc" stroke="#e8ffcc" d="M219,-72C225,-72 231,-78 231,-84"/>
<path fill="#e8ffcc" stroke="#e8ffcc" d="M231,-96C231,-102 225,-108 219,-108"/>
<polyline fill="none" stroke="#e8ffcc" points="219,-108 189,-108 "/>
<path fill="none" stroke="#e8ffcc" d="M189,-108C183,-108 177,-102 177,-96"/>
<polyline fill="none" stroke="#e8ffcc" points="177,-96 177,-84 "/>
<path fill="none" stroke="#e8ffcc" d="M177,-84C177,-78 183,-72 189,-72"/>
<polyline fill="none" stroke="#e8ffcc" points="189,-72 219,-72 "/>
<path fill="none" stroke="#e8ffcc" d="M219,-72C225,-72 231,-78 231,-84"/>
<polyline fill="none" stroke="#e8ffcc" points="231,-84 231,-96 "/>
<path fill="none" stroke="#e8ffcc" d="M231,-96C231,-102 225,-108 219,-108"/>
<text text-anchor="middle" x="204" y="-84.4" font-family="Helvetica,sans-Serif" font-size="14.00">Add</text>
</g>
<!-- guidecontributionTotal&#45;&gt;performanceAddGuideInfluence -->
<g id="edge31" class="edge"><title>guidecontributionTotal&#45;&gt;performanceAddGuideInfluence:nw</title>
<path fill="none" stroke="#7bcc14" stroke-width="2" stroke-dasharray="1,5" d="M187.52,-36.2958C183.527,-46.4778 179.027,-59.7278 177,-72 171.055,-107.994 170.355,-120.783 179.727,-114.456"/>
<ellipse fill="#7bcc14" stroke="#7bcc14" cx="182.982" cy="-111.625" rx="4.00002" ry="4.00002"/>
</g>
<!-- socialResourcesguideContributionRate -->
<g id="node9" class="node"><title>socialResourcesguideContributionRate</title>
<polygon fill="white" stroke="white" points="457.25,-252 290.75,-252 290.75,-216 457.25,-216 457.25,-252"/>
<text text-anchor="start" x="299" y="-228.5" font-family="Helvetica,sans-Serif" font-size="14.00">Guide Contribution Rate</text>
</g>
<!-- guideInfluence -->
<g id="node21" class="node"><title>guideInfluence</title>
<polygon fill="#fffecc" stroke="#fffecc" points="223.59,-180 184.41,-180 172.41,-168 172.41,-156 184.41,-144 223.59,-144 235.59,-156 235.59,-168 223.59,-180"/>
<path fill="#fffecc" stroke="#fffecc" d="M184.41,-180C178.41,-180 172.41,-174 172.41,-168"/>
<path fill="#fffecc" stroke="#fffecc" d="M172.41,-156C172.41,-150 178.41,-144 184.41,-144"/>
<path fill="#fffecc" stroke="#fffecc" d="M223.59,-144C229.59,-144 235.59,-150 235.59,-156"/>
<path fill="#fffecc" stroke="#fffecc" d="M235.59,-168C235.59,-174 229.59,-180 223.59,-180"/>
<polyline fill="none" stroke="#fffecc" points="223.59,-180 184.41,-180 "/>
<path fill="none" stroke="#fffecc" d="M184.41,-180C178.41,-180 172.41,-174 172.41,-168"/>
<polyline fill="none" stroke="#fffecc" points="172.41,-168 172.41,-156 "/>
<path fill="none" stroke="#fffecc" d="M172.41,-156C172.41,-150 178.41,-144 184.41,-144"/>
<polyline fill="none" stroke="#fffecc" points="184.41,-144 223.59,-144 "/>
<path fill="none" stroke="#fffecc" d="M223.59,-144C229.59,-144 235.59,-150 235.59,-156"/>
<polyline fill="none" stroke="#fffecc" points="235.59,-156 235.59,-168 "/>
<path fill="none" stroke="#fffecc" d="M235.59,-168C235.59,-174 229.59,-180 223.59,-180"/>
<text text-anchor="middle" x="204" y="-156.4" font-family="Helvetica,sans-Serif" font-size="14.00">Multiply</text>
</g>
<!-- socialResourcesguideContributionRate&#45;&gt;guideInfluence -->
<g id="edge35" class="edge"><title>socialResourcesguideContributionRate&#45;&gt;guideInfluence:ne</title>
<path fill="none" stroke="black" stroke-width="2" stroke-dasharray="1,5" d="M290.747,-218.506C268.517,-211.453 245.734,-200.986 227.864,-185.461"/>
<ellipse fill="black" stroke="black" cx="224.927" cy="-182.726" rx="4.00002" ry="4.00002"/>
</g>
<!-- guideefficacy -->
<g id="node10" class="node"><title>guideefficacy</title>
<polygon fill="white" stroke="white" points="237.26,-396 172.74,-396 172.74,-360 237.26,-360 237.26,-396"/>
<text text-anchor="middle" x="205" y="-372.4" font-family="Helvetica,sans-Serif" font-size="14.00">Efficacy</text>
</g>
<!-- guideefficacy&#45;&gt;potentialInfluence -->
<g id="edge39" class="edge"><title>guideefficacy&#45;&gt;potentialInfluence:nw</title>
<path fill="none" stroke="#7bcc14" stroke-width="2" stroke-dasharray="1,5" d="M197.654,-359.842C194.735,-350.692 192.844,-339.538 196.512,-330.74"/>
<ellipse fill="#7bcc14" stroke="#7bcc14" cx="198.783" cy="-327.329" rx="4.00002" ry="4.00002"/>
</g>
<!-- guidedGrowth -->
<g id="node11" class="node"><title>guidedGrowth</title>
<a xlink:href="learner_guidedGrowth.svg" xlink:title="Guided Growth">
<polygon fill="#fffecc" stroke="#fffecc" points="335.119,-540 248.881,-540 236.881,-528 236.881,-516 248.881,-504 335.119,-504 347.119,-516 347.119,-528 335.119,-540"/>
<path fill="#fffecc" stroke="#fffecc" d="M248.881,-540C242.881,-540 236.881,-534 236.881,-528"/>
<path fill="#fffecc" stroke="#fffecc" d="M236.881,-516C236.881,-510 242.881,-504 248.881,-504"/>
<path fill="#fffecc" stroke="#fffecc" d="M335.119,-504C341.119,-504 347.119,-510 347.119,-516"/>
<path fill="#fffecc" stroke="#fffecc" d="M347.119,-528C347.119,-534 341.119,-540 335.119,-540"/>
<polyline fill="none" stroke="black" points="335.119,-540 248.881,-540 "/>
<path fill="none" stroke="black" d="M248.881,-540C242.881,-540 236.881,-534 236.881,-528"/>
<polyline fill="none" stroke="black" points="236.881,-528 236.881,-516 "/>
<path fill="none" stroke="black" d="M236.881,-516C236.881,-510 242.881,-504 248.881,-504"/>
<polyline fill="none" stroke="black" points="248.881,-504 335.119,-504 "/>
<path fill="none" stroke="black" d="M335.119,-504C341.119,-504 347.119,-510 347.119,-516"/>
<polyline fill="none" stroke="black" points="347.119,-516 347.119,-528 "/>
<path fill="none" stroke="black" d="M347.119,-528C347.119,-534 341.119,-540 335.119,-540"/>
<text text-anchor="middle" x="292" y="-516.4" font-family="Helvetica,sans-Serif" font-size="14.00">Guided Growth</text>
</a>
</g>
<!-- guide -->
<g id="node13" class="node"><title>guide</title>
<polygon fill="#e8ffcc" stroke="#e8ffcc" points="307,-468 277,-468 265,-456 265,-444 277,-432 307,-432 319,-444 319,-456 307,-468"/>
<path fill="#e8ffcc" stroke="#e8ffcc" d="M277,-468C271,-468 265,-462 265,-456"/>
<path fill="#e8ffcc" stroke="#e8ffcc" d="M265,-444C265,-438 271,-432 277,-432"/>
<path fill="#e8ffcc" stroke="#e8ffcc" d="M307,-432C313,-432 319,-438 319,-444"/>
<path fill="#e8ffcc" stroke="#e8ffcc" d="M319,-456C319,-462 313,-468 307,-468"/>
<polyline fill="none" stroke="gray" points="307,-468 277,-468 "/>
<path fill="none" stroke="gray" d="M277,-468C271,-468 265,-462 265,-456"/>
<polyline fill="none" stroke="gray" points="265,-456 265,-444 "/>
<path fill="none" stroke="gray" d="M265,-444C265,-438 271,-432 277,-432"/>
<polyline fill="none" stroke="gray" points="277,-432 307,-432 "/>
<path fill="none" stroke="gray" d="M307,-432C313,-432 319,-438 319,-444"/>
<polyline fill="none" stroke="gray" points="319,-444 319,-456 "/>
<path fill="none" stroke="gray" d="M319,-456C319,-462 313,-468 307,-468"/>
<text text-anchor="middle" x="292" y="-444.4" font-family="Helvetica,sans-Serif" font-size="14.00">Guide</text>
</g>
<!-- guidedGrowth&#45;&gt;guide -->
<g id="edge5" class="edge"><title>guidedGrowth&#45;&gt;guide</title>
<path fill="none" stroke="#cccb14" stroke-width="3" d="M292,-503.697C292,-498.95 292,-493.613 292,-488.206"/>
<polygon fill="#cccb14" stroke="#cccb14" points="299,-488.104 292,-468.104 285,-488.104 299,-488.104"/>
</g>
<!-- neighborQuery -->
<g id="node16" class="node"><title>neighborQuery</title>
<polygon fill="#e8ffcc" stroke="#e8ffcc" points="316.111,-396 267.889,-396 255.889,-384 255.889,-372 267.889,-360 316.111,-360 328.111,-372 328.111,-384 316.111,-396"/>
<path fill="#e8ffcc" stroke="#e8ffcc" d="M267.889,-396C261.889,-396 255.889,-390 255.889,-384"/>
<path fill="#e8ffcc" stroke="#e8ffcc" d="M255.889,-372C255.889,-366 261.889,-360 267.889,-360"/>
<path fill="#e8ffcc" stroke="#e8ffcc" d="M316.111,-360C322.111,-360 328.111,-366 328.111,-372"/>
<path fill="#e8ffcc" stroke="#e8ffcc" d="M328.111,-384C328.111,-390 322.111,-396 316.111,-396"/>
<polyline fill="none" stroke="#e8ffcc" points="316.111,-396 267.889,-396 "/>
<path fill="none" stroke="#e8ffcc" d="M267.889,-396C261.889,-396 255.889,-390 255.889,-384"/>
<polyline fill="none" stroke="#e8ffcc" points="255.889,-384 255.889,-372 "/>
<path fill="none" stroke="#e8ffcc" d="M255.889,-372C255.889,-366 261.889,-360 267.889,-360"/>
<polyline fill="none" stroke="#e8ffcc" points="267.889,-360 316.111,-360 "/>
<path fill="none" stroke="#e8ffcc" d="M316.111,-360C322.111,-360 328.111,-366 328.111,-372"/>
<polyline fill="none" stroke="#e8ffcc" points="328.111,-372 328.111,-384 "/>
<path fill="none" stroke="#e8ffcc" d="M328.111,-384C328.111,-390 322.111,-396 316.111,-396"/>
<text text-anchor="middle" x="292" y="-372.4" font-family="Helvetica,sans-Serif" font-size="14.00">Neighbor</text>
</g>
<!-- guide&#45;&gt;neighborQuery -->
<g id="edge21" class="edge"><title>guide&#45;&gt;neighborQuery</title>
<path fill="none" stroke="#7bcc14" stroke-width="3" d="M292,-431.697C292,-426.95 292,-421.613 292,-416.206"/>
<polygon fill="#7bcc14" stroke="#7bcc14" points="299,-416.104 292,-396.104 285,-416.104 299,-416.104"/>
</g>
<!-- newInterestLevel&#45;&gt;learnerlearningInterest -->
<g id="edge7" class="edge"><title>newInterestLevel&#45;&gt;learnerlearningInterest</title>
<path fill="none" stroke="#cccb14" stroke-width="3" d="M131.153,-108.085C129.034,-146.784 122.596,-243.99 108,-324 107.011,-329.42 105.754,-335.099 104.4,-340.643"/>
<polygon fill="#cccb14" stroke="#cccb14" points="97.6367,-338.836 99.2223,-359.966 111.16,-342.459 97.6367,-338.836"/>
</g>
<!-- neighborQuery&#45;&gt;potentialInfluence -->
<g id="edge9" class="edge"><title>neighborQuery&#45;&gt;potentialInfluence</title>
<path fill="none" stroke="#7bcc14" stroke-width="3" d="M273.955,-359.697C267.148,-353.169 259.179,-345.528 251.455,-338.121"/>
<polygon fill="#7bcc14" stroke="#7bcc14" points="256.118,-332.894 236.837,-324.104 246.428,-342.999 256.118,-332.894"/>
</g>
<!-- potentialInfluenceGreaterZeroQuery -->
<g id="node19" class="node"><title>potentialInfluenceGreaterZeroQuery</title>
<polygon fill="#fffecc" stroke="#fffecc" points="260.435,-252 213.565,-252 201.565,-240 201.565,-228 213.565,-216 260.435,-216 272.435,-228 272.435,-240 260.435,-252"/>
<path fill="#fffecc" stroke="#fffecc" d="M213.565,-252C207.565,-252 201.565,-246 201.565,-240"/>
<path fill="#fffecc" stroke="#fffecc" d="M201.565,-228C201.565,-222 207.565,-216 213.565,-216"/>
<path fill="#fffecc" stroke="#fffecc" d="M260.435,-216C266.435,-216 272.435,-222 272.435,-228"/>
<path fill="#fffecc" stroke="#fffecc" d="M272.435,-240C272.435,-246 266.435,-252 260.435,-252"/>
<polyline fill="none" stroke="#fffecc" points="260.435,-252 213.565,-252 "/>
<path fill="none" stroke="#fffecc" d="M213.565,-252C207.565,-252 201.565,-246 201.565,-240"/>
<polyline fill="none" stroke="#fffecc" points="201.565,-240 201.565,-228 "/>
<path fill="none" stroke="#fffecc" d="M201.565,-228C201.565,-222 207.565,-216 213.565,-216"/>
<polyline fill="none" stroke="#fffecc" points="213.565,-216 260.435,-216 "/>
<path fill="none" stroke="#fffecc" d="M260.435,-216C266.435,-216 272.435,-222 272.435,-228"/>
<polyline fill="none" stroke="#fffecc" points="272.435,-228 272.435,-240 "/>
<path fill="none" stroke="#fffecc" d="M272.435,-240C272.435,-246 266.435,-252 260.435,-252"/>
<text text-anchor="middle" x="237" y="-228.4" font-family="Helvetica,sans-Serif" font-size="14.00">Greater?</text>
</g>
<!-- potentialInfluence&#45;&gt;potentialInfluenceGreaterZeroQuery -->
<g id="edge27" class="edge"><title>potentialInfluence&#45;&gt;potentialInfluenceGreaterZeroQuery:nw</title>
<path fill="none" stroke="blue" stroke-width="2" stroke-dasharray="1,5" d="M213.389,-287.826C211.323,-278.67 210.35,-267.513 214.367,-258.727"/>
<ellipse fill="blue" stroke="blue" cx="216.731" cy="-255.294" rx="4.00002" ry="4.00002"/>
</g>
<!-- potentialInfluence&#45;&gt;potentialInfluenceGreaterZeroQuery -->
<g id="edge19" class="edge"><title>potentialInfluence&#45;&gt;potentialInfluenceGreaterZeroQuery</title>
<path fill="none" stroke="#cccb14" stroke-width="3" d="M223.449,-287.697C224.714,-282.78 226.141,-277.231 227.582,-271.627"/>
<polygon fill="#cccb14" stroke="#cccb14" points="234.4,-273.218 232.602,-252.104 220.841,-269.731 234.4,-273.218"/>
</g>
<!-- potentialInfluence&#45;&gt;guideInfluence -->
<g id="edge37" class="edge"><title>potentialInfluence&#45;&gt;guideInfluence:nw</title>
<path fill="none" stroke="blue" stroke-width="2" stroke-dasharray="1,5" d="M205.707,-287.829C187.963,-262.888 160.938,-216.363 180.691,-186.479"/>
<ellipse fill="blue" stroke="blue" cx="183.465" cy="-183.094" rx="4.00002" ry="4.00002"/>
</g>
<!-- potentialInfluenceGreaterZeroQuery&#45;&gt;guideInfluence -->
<g id="edge11" class="edge"><title>potentialInfluenceGreaterZeroQuery&#45;&gt;guideInfluence</title>
<path fill="none" stroke="#cccb14" stroke-width="3" d="M228.843,-215.697C226.365,-210.441 223.547,-204.463 220.72,-198.467"/>
<polygon fill="#cccb14" stroke="#cccb14" points="226.924,-195.21 212.063,-180.104 214.26,-201.18 226.924,-195.21"/>
</g>
<!-- guideInfluence&#45;&gt;newInterestLevel -->
<g id="edge25" class="edge"><title>guideInfluence&#45;&gt;newInterestLevel:ne</title>
<path fill="none" stroke="blue" stroke-width="2" stroke-dasharray="1,5" d="M186.408,-143.897C177.467,-135.17 166.291,-124.211 155.764,-113.746"/>
<ellipse fill="blue" stroke="blue" cx="152.833" cy="-110.824" rx="4.00002" ry="4.00002"/>
</g>
<!-- guideInfluence&#45;&gt;newInterestLevel -->
<g id="edge17" class="edge"><title>guideInfluence&#45;&gt;newInterestLevel</title>
<path fill="none" stroke="#cccb14" stroke-width="3" d="M186.202,-143.697C179.489,-137.169 171.629,-129.528 164.01,-122.121"/>
<polygon fill="#cccb14" stroke="#cccb14" points="168.813,-117.027 149.593,-108.104 159.053,-127.065 168.813,-117.027"/>
</g>
<!-- guideInfluence&#45;&gt;performanceAddGuideInfluence -->
<g id="edge33" class="edge"><title>guideInfluence&#45;&gt;performanceAddGuideInfluence:ne</title>
<path fill="none" stroke="blue" stroke-width="2" stroke-dasharray="1,5" d="M217.991,-143.643C223.866,-134.659 228.796,-123.745 226.15,-114.879"/>
<ellipse fill="blue" stroke="blue" cx="224.066" cy="-111.425" rx="4.00002" ry="4.00002"/>
</g>
<!-- guideInfluence&#45;&gt;performanceAddGuideInfluence -->
<g id="edge15" class="edge"><title>guideInfluence&#45;&gt;performanceAddGuideInfluence</title>
<path fill="none" stroke="#cccb14" stroke-width="3" d="M204,-143.697C204,-138.95 204,-133.613 204,-128.206"/>
<polygon fill="#cccb14" stroke="#cccb14" points="211,-128.104 204,-108.104 197,-128.104 211,-128.104"/>
</g>
<!-- performanceAddGuideInfluence&#45;&gt;guidecontributionTotal -->
<g id="edge13" class="edge"><title>performanceAddGuideInfluence&#45;&gt;guidecontributionTotal</title>
<path fill="none" stroke="#7bcc14" stroke-width="3" d="M201.775,-71.6966C201.165,-66.9496 200.479,-61.6132 199.784,-56.2063"/>
<polygon fill="#7bcc14" stroke="#7bcc14" points="206.693,-55.0484 197.199,-36.1043 192.807,-56.8337 206.693,-55.0484"/>
</g>
<!-- importxyxpotentialInfluenceGreaterZeroQueryfunctionszero1 -->
<g id="node31" class="node"><title>importxyxpotentialInfluenceGreaterZeroQueryfunctionszero1</title>
<text text-anchor="middle" x="298" y="-300.4" font-family="Helvetica,sans-Serif" font-size="14.00">0</text>
</g>
<!-- importxyxpotentialInfluenceGreaterZeroQueryfunctionszero1&#45;&gt;potentialInfluenceGreaterZeroQuery -->
<g id="edge29" class="edge"><title>importxyxpotentialInfluenceGreaterZeroQueryfunctionszero1&#45;&gt;potentialInfluenceGreaterZeroQuery:ne</title>
<path fill="none" stroke="black" stroke-width="2" stroke-dasharray="1,5" d="M285.292,-287.526C278.546,-278.648 269.784,-267.695 260.69,-257.912"/>
<ellipse fill="black" stroke="black" cx="257.774" cy="-254.882" rx="4.00002" ry="4.00002"/>
</g>
</g>
</svg>
