<?xml version="1.0" encoding="UTF-8" standalone="no"?>
<!DOCTYPE svg PUBLIC "-//W3C//DTD SVG 1.1//EN"
 "http://www.w3.org/Graphics/SVG/1.1/DTD/svg11.dtd">
<!-- Generated by graphviz version 2.29.20110702.0445 (20110702.0445)
 -->
<!-- Title: pickGuide Pages: 1 -->
<svg width="421pt" height="289pt"
 viewBox="0.00 0.00 421.00 289.00" xmlns="http://www.w3.org/2000/svg" xmlns:xlink="http://www.w3.org/1999/xlink">
<g id="graph1" class="graph" transform="scale(1 1) rotate(0) translate(4 285)">
<title>pickGuide</title>
<polygon fill="white" stroke="white" points="-4,5 -4,-285 418,-285 418,5 -4,5"/>
<g id="graph2" class="cluster"><title>clustercontextKey</title>
<polygon fill="ghostwhite" stroke="white" points="8,-219 8,-273 96,-273 96,-219 8,-219"/>
<text text-anchor="middle" x="52.1792" y="-255" font-family="Helvetica,sans-Serif" font-size="14.00">Parameters</text>
</g>
<g id="graph3" class="cluster"><title>clusterlearnerKey</title>
<polygon fill="ghostwhite" stroke="white" points="104,-219 104,-273 168,-273 168,-219 104,-219"/>
<text text-anchor="middle" x="136.127" y="-255" font-family="Helvetica,sans-Serif" font-size="14.00">Learner</text>
</g>
<g id="graph4" class="cluster"><title>clusterguideKey</title>
<polygon fill="ghostwhite" stroke="white" points="176,-219 176,-273 229,-273 229,-219 176,-219"/>
<text text-anchor="middle" x="202.679" y="-255" font-family="Helvetica,sans-Serif" font-size="14.00">Guide</text>
</g>
<!-- contextOverview -->
<g id="node2" class="node"><title>contextOverview</title>
<ellipse fill="black" stroke="black" cx="52" cy="-234" rx="7.2" ry="7.2"/>
</g>
<!-- pickGuideOverview -->
<g id="node4" class="node"><title>pickGuideOverview</title>
<a xlink:href="learner__Overview.svg">
<ellipse fill="#14cccc" stroke="#14cccc" cx="136" cy="-234" rx="7.2" ry="7.2"/>
</a>
</g>
<!-- newGuideOverview -->
<g id="node6" class="node"><title>newGuideOverview</title>
<a xlink:href="guide__Overview.svg">
<ellipse fill="#147acc" stroke="#147acc" cx="201" cy="-234" rx="7.2" ry="7.2"/>
</a>
</g>
<!-- learnerguideID -->
<g id="node7" class="node"><title>learnerguideID</title>
<polygon fill="white" stroke="white" points="206.435,-36 135.565,-36 135.565,-0 206.435,-0 206.435,-36"/>
<text text-anchor="middle" x="171" y="-12.4" font-family="Helvetica,sans-Serif" font-size="14.00">Guide ID</text>
</g>
<!-- guidelearnerCount -->
<g id="node8" class="node"><title>guidelearnerCount</title>
<polygon fill="white" stroke="white" points="413.13,-36 308.87,-36 308.87,-0 413.13,-0 413.13,-36"/>
<text text-anchor="middle" x="361" y="-12.4" font-family="Helvetica,sans-Serif" font-size="14.00">Learner Count</text>
</g>
<!-- incrementLearnerCount -->
<g id="node18" class="node"><title>incrementLearnerCount</title>
<polygon fill="#cce8ff" stroke="#cce8ff" points="397.186,-108 342.814,-108 330.814,-96 330.814,-84 342.814,-72 397.186,-72 409.186,-84 409.186,-96 397.186,-108"/>
<path fill="#cce8ff" stroke="#cce8ff" d="M342.814,-108C336.814,-108 330.814,-102 330.814,-96"/>
<path fill="#cce8ff" stroke="#cce8ff" d="M330.814,-84C330.814,-78 336.814,-72 342.814,-72"/>
<path fill="#cce8ff" stroke="#cce8ff" d="M397.186,-72C403.186,-72 409.186,-78 409.186,-84"/>
<path fill="#cce8ff" stroke="#cce8ff" d="M409.186,-96C409.186,-102 403.186,-108 397.186,-108"/>
<polyline fill="none" stroke="#cce8ff" points="397.186,-108 342.814,-108 "/>
<path fill="none" stroke="#cce8ff" d="M342.814,-108C336.814,-108 330.814,-102 330.814,-96"/>
<polyline fill="none" stroke="#cce8ff" points="330.814,-96 330.814,-84 "/>
<path fill="none" stroke="#cce8ff" d="M330.814,-84C330.814,-78 336.814,-72 342.814,-72"/>
<polyline fill="none" stroke="#cce8ff" points="342.814,-72 397.186,-72 "/>
<path fill="none" stroke="#cce8ff" d="M397.186,-72C403.186,-72 409.186,-78 409.186,-84"/>
<polyline fill="none" stroke="#cce8ff" points="409.186,-84 409.186,-96 "/>
<path fill="none" stroke="#cce8ff" d="M409.186,-96C409.186,-102 403.186,-108 397.186,-108"/>
<text text-anchor="middle" x="370" y="-84.4" font-family="Helvetica,sans-Serif" font-size="14.00">Increment</text>
</g>
<!-- guidelearnerCount&#45;&gt;incrementLearnerCount -->
<g id="edge25" class="edge"><title>guidelearnerCount&#45;&gt;incrementLearnerCount:nw</title>
<path fill="none" stroke="#147acc" stroke-width="2" stroke-dasharray="1,5" d="M348.221,-36.1469C341.635,-46.0666 334.284,-59.1072 330.876,-72 326.787,-87.4687 319.833,-96.4219 330.876,-108 335.234,-112.57 340.272,-114.45 345.124,-113.177"/>
<ellipse fill="#147acc" stroke="#147acc" cx="348.581" cy="-111.077" rx="4.00002" ry="4.00002"/>
</g>
<!-- guideguideID -->
<g id="node9" class="node"><title>guideguideID</title>
<polygon fill="white" stroke="white" points="143.435,-180 72.5646,-180 72.5646,-144 143.435,-144 143.435,-180"/>
<text text-anchor="middle" x="108" y="-156.4" font-family="Helvetica,sans-Serif" font-size="14.00">Guide ID</text>
</g>
<!-- guideIDAddZero -->
<g id="node16" class="node"><title>guideIDAddZero</title>
<polygon fill="#ccffff" stroke="#ccffff" points="186,-108 156,-108 144,-96 144,-84 156,-72 186,-72 198,-84 198,-96 186,-108"/>
<path fill="#ccffff" stroke="#ccffff" d="M156,-108C150,-108 144,-102 144,-96"/>
<path fill="#ccffff" stroke="#ccffff" d="M144,-84C144,-78 150,-72 156,-72"/>
<path fill="#ccffff" stroke="#ccffff" d="M186,-72C192,-72 198,-78 198,-84"/>
<path fill="#ccffff" stroke="#ccffff" d="M198,-96C198,-102 192,-108 186,-108"/>
<polyline fill="none" stroke="#ccffff" points="186,-108 156,-108 "/>
<path fill="none" stroke="#ccffff" d="M156,-108C150,-108 144,-102 144,-96"/>
<polyline fill="none" stroke="#ccffff" points="144,-96 144,-84 "/>
<path fill="none" stroke="#ccffff" d="M144,-84C144,-78 150,-72 156,-72"/>
<polyline fill="none" stroke="#ccffff" points="156,-72 186,-72 "/>
<path fill="none" stroke="#ccffff" d="M186,-72C192,-72 198,-78 198,-84"/>
<polyline fill="none" stroke="#ccffff" points="198,-84 198,-96 "/>
<path fill="none" stroke="#ccffff" d="M198,-96C198,-102 192,-108 186,-108"/>
<text text-anchor="middle" x="171" y="-84.4" font-family="Helvetica,sans-Serif" font-size="14.00">Add</text>
</g>
<!-- guideguideID&#45;&gt;guideIDAddZero -->
<g id="edge21" class="edge"><title>guideguideID&#45;&gt;guideIDAddZero:nw</title>
<path fill="none" stroke="#147acc" stroke-width="2" stroke-dasharray="1,5" d="M121.516,-143.672C128.642,-134.839 137.831,-123.899 147.177,-114"/>
<ellipse fill="#147acc" stroke="#147acc" cx="150.214" cy="-110.871" rx="4.00002" ry="4.00002"/>
</g>
<!-- pickGuide -->
<g id="node10" class="node"><title>pickGuide</title>
<a xlink:href="learner_pickGuide.svg" xlink:title="Pick Guide">
<polygon fill="#ccffff" stroke="#ccffff" points="308.274,-252 249.726,-252 237.726,-240 237.726,-228 249.726,-216 308.274,-216 320.274,-228 320.274,-240 308.274,-252"/>
<path fill="#ccffff" stroke="#ccffff" d="M249.726,-252C243.726,-252 237.726,-246 237.726,-240"/>
<path fill="#ccffff" stroke="#ccffff" d="M237.726,-228C237.726,-222 243.726,-216 249.726,-216"/>
<path fill="#ccffff" stroke="#ccffff" d="M308.274,-216C314.274,-216 320.274,-222 320.274,-228"/>
<path fill="#ccffff" stroke="#ccffff" d="M320.274,-240C320.274,-246 314.274,-252 308.274,-252"/>
<polyline fill="none" stroke="black" points="308.274,-252 249.726,-252 "/>
<path fill="none" stroke="black" d="M249.726,-252C243.726,-252 237.726,-246 237.726,-240"/>
<polyline fill="none" stroke="black" points="237.726,-240 237.726,-228 "/>
<path fill="none" stroke="black" d="M237.726,-228C237.726,-222 243.726,-216 249.726,-216"/>
<polyline fill="none" stroke="black" points="249.726,-216 308.274,-216 "/>
<path fill="none" stroke="black" d="M308.274,-216C314.274,-216 320.274,-222 320.274,-228"/>
<polyline fill="none" stroke="black" points="320.274,-228 320.274,-240 "/>
<path fill="none" stroke="black" d="M320.274,-240C320.274,-246 314.274,-252 308.274,-252"/>
<text text-anchor="middle" x="279" y="-228.4" font-family="Helvetica,sans-Serif" font-size="14.00">Pick Guide</text>
</a>
</g>
<!-- newGuide -->
<g id="node12" class="node"><title>newGuide</title>
<polygon fill="#cce8ff" stroke="#cce8ff" points="345.441,-180 284.559,-180 272.559,-168 272.559,-156 284.559,-144 345.441,-144 357.441,-156 357.441,-168 345.441,-180"/>
<path fill="#cce8ff" stroke="#cce8ff" d="M284.559,-180C278.559,-180 272.559,-174 272.559,-168"/>
<path fill="#cce8ff" stroke="#cce8ff" d="M272.559,-156C272.559,-150 278.559,-144 284.559,-144"/>
<path fill="#cce8ff" stroke="#cce8ff" d="M345.441,-144C351.441,-144 357.441,-150 357.441,-156"/>
<path fill="#cce8ff" stroke="#cce8ff" d="M357.441,-168C357.441,-174 351.441,-180 345.441,-180"/>
<polyline fill="none" stroke="gray" points="345.441,-180 284.559,-180 "/>
<path fill="none" stroke="gray" d="M284.559,-180C278.559,-180 272.559,-174 272.559,-168"/>
<polyline fill="none" stroke="gray" points="272.559,-168 272.559,-156 "/>
<path fill="none" stroke="gray" d="M272.559,-156C272.559,-150 278.559,-144 284.559,-144"/>
<polyline fill="none" stroke="gray" points="284.559,-144 345.441,-144 "/>
<path fill="none" stroke="gray" d="M345.441,-144C351.441,-144 357.441,-150 357.441,-156"/>
<polyline fill="none" stroke="gray" points="357.441,-156 357.441,-168 "/>
<path fill="none" stroke="gray" d="M357.441,-168C357.441,-174 351.441,-180 345.441,-180"/>
<text text-anchor="middle" x="315" y="-156.4" font-family="Helvetica,sans-Serif" font-size="14.00">New Guide</text>
</g>
<!-- pickGuide&#45;&gt;newGuide -->
<g id="edge5" class="edge"><title>pickGuide&#45;&gt;newGuide</title>
<path fill="none" stroke="#14cccc" stroke-width="3" d="M287.899,-215.697C290.645,-210.356 293.775,-204.27 296.909,-198.176"/>
<polygon fill="#14cccc" stroke="#14cccc" points="303.281,-201.092 306.203,-180.104 290.831,-194.689 303.281,-201.092"/>
</g>
<!-- connectLearner -->
<g id="node14" class="node"><title>connectLearner</title>
<polygon fill="#ccffff" stroke="#ccffff" points="301.108,-108 256.892,-108 244.892,-96 244.892,-84 256.892,-72 301.108,-72 313.108,-84 313.108,-96 301.108,-108"/>
<path fill="#ccffff" stroke="#ccffff" d="M256.892,-108C250.892,-108 244.892,-102 244.892,-96"/>
<path fill="#ccffff" stroke="#ccffff" d="M244.892,-84C244.892,-78 250.892,-72 256.892,-72"/>
<path fill="#ccffff" stroke="#ccffff" d="M301.108,-72C307.108,-72 313.108,-78 313.108,-84"/>
<path fill="#ccffff" stroke="#ccffff" d="M313.108,-96C313.108,-102 307.108,-108 301.108,-108"/>
<polyline fill="none" stroke="#ccffff" points="301.108,-108 256.892,-108 "/>
<path fill="none" stroke="#ccffff" d="M256.892,-108C250.892,-108 244.892,-102 244.892,-96"/>
<polyline fill="none" stroke="#ccffff" points="244.892,-96 244.892,-84 "/>
<path fill="none" stroke="#ccffff" d="M244.892,-84C244.892,-78 250.892,-72 256.892,-72"/>
<polyline fill="none" stroke="#ccffff" points="256.892,-72 301.108,-72 "/>
<path fill="none" stroke="#ccffff" d="M301.108,-72C307.108,-72 313.108,-78 313.108,-84"/>
<polyline fill="none" stroke="#ccffff" points="313.108,-84 313.108,-96 "/>
<path fill="none" stroke="#ccffff" d="M313.108,-96C313.108,-102 307.108,-108 301.108,-108"/>
<text text-anchor="middle" x="279" y="-84.4" font-family="Helvetica,sans-Serif" font-size="14.00">Connect</text>
</g>
<!-- pickGuide&#45;&gt;connectLearner -->
<g id="edge13" class="edge"><title>pickGuide&#45;&gt;connectLearner:nw</title>
<path fill="none" stroke="#14cccc" stroke-width="3" stroke-dasharray="5,2" d="M268.76,-215.668C256.803,-193.376 239.906,-154.067 250.307,-124.964"/>
<polygon fill="#14cccc" stroke="#14cccc" points="256.257,-128.652 261,-108 244.413,-121.187 256.257,-128.652"/>
</g>
<!-- newGuide&#45;&gt;connectLearner -->
<g id="edge7" class="edge"><title>newGuide&#45;&gt;connectLearner</title>
<path fill="none" stroke="#147acc" stroke-width="3" d="M306.101,-143.697C303.355,-138.356 300.225,-132.27 297.091,-126.176"/>
<polygon fill="#147acc" stroke="#147acc" points="303.169,-122.689 287.797,-108.104 290.719,-129.092 303.169,-122.689"/>
</g>
<!-- newGuide&#45;&gt;connectLearner -->
<g id="edge15" class="edge"><title>newGuide&#45;&gt;connectLearner:ne</title>
<path fill="none" stroke="#147acc" stroke-width="3" stroke-dasharray="5,2" d="M313.097,-143.643C312.034,-137.893 310.381,-131.353 307.808,-125.065"/>
<polygon fill="#147acc" stroke="#147acc" points="313.615,-121.151 297,-108 301.787,-128.642 313.615,-121.151"/>
</g>
<!-- newGuide&#45;&gt;guideIDAddZero -->
<g id="edge9" class="edge"><title>newGuide&#45;&gt;guideIDAddZero</title>
<path fill="none" stroke="#147acc" stroke-width="3" d="M279.774,-143.876C260.62,-134.565 236.72,-122.947 216.205,-112.975"/>
<polygon fill="#147acc" stroke="#147acc" points="219.243,-106.668 198.195,-104.22 213.122,-119.259 219.243,-106.668"/>
</g>
<!-- newGuide&#45;&gt;incrementLearnerCount -->
<g id="edge11" class="edge"><title>newGuide&#45;&gt;incrementLearnerCount</title>
<path fill="none" stroke="#147acc" stroke-width="3" d="M328.596,-143.697C333.324,-137.678 338.798,-130.712 344.184,-123.856"/>
<polygon fill="#147acc" stroke="#147acc" points="349.709,-128.155 356.561,-108.104 338.7,-119.506 349.709,-128.155"/>
</g>
<!-- guideIDAddZero&#45;&gt;learnerguideID -->
<g id="edge17" class="edge"><title>guideIDAddZero&#45;&gt;learnerguideID</title>
<path fill="none" stroke="#14cccc" stroke-width="3" d="M171,-71.6966C171,-66.9496 171,-61.6132 171,-56.2063"/>
<polygon fill="#14cccc" stroke="#14cccc" points="178,-56.1043 171,-36.1043 164,-56.1044 178,-56.1043"/>
</g>
<!-- incrementLearnerCount&#45;&gt;guidelearnerCount -->
<g id="edge19" class="edge"><title>incrementLearnerCount&#45;&gt;guidelearnerCount</title>
<path fill="none" stroke="#147acc" stroke-width="3" d="M367.775,-71.6966C367.165,-66.9496 366.479,-61.6132 365.784,-56.2063"/>
<polygon fill="#147acc" stroke="#147acc" points="372.693,-55.0484 363.199,-36.1043 358.807,-56.8337 372.693,-55.0484"/>
</g>
<!-- importxyxguideIDAddZerofunctionszero0 -->
<g id="node24" class="node"><title>importxyxguideIDAddZerofunctionszero0</title>
<text text-anchor="middle" x="189" y="-156.4" font-family="Helvetica,sans-Serif" font-size="14.00">0</text>
</g>
<!-- importxyxguideIDAddZerofunctionszero0&#45;&gt;guideIDAddZero -->
<g id="edge23" class="edge"><title>importxyxguideIDAddZerofunctionszero0&#45;&gt;guideIDAddZero:ne</title>
<path fill="none" stroke="black" stroke-width="2" stroke-dasharray="1,5" d="M194.611,-143.826C196.677,-134.67 197.65,-123.513 193.633,-114.727"/>
<ellipse fill="black" stroke="black" cx="191.269" cy="-111.294" rx="4.00002" ry="4.00002"/>
</g>
</g>
</svg>
