<?xml version="1.0" encoding="UTF-8" standalone="no"?>
<!DOCTYPE svg PUBLIC "-//W3C//DTD SVG 1.1//EN"
 "http://www.w3.org/Graphics/SVG/1.1/DTD/svg11.dtd">
<!-- Generated by graphviz version 2.29.20110702.0445 (20110702.0445)
 -->
<!-- Title: learner Pages: 1 -->
<svg width="861pt" height="289pt"
 viewBox="0.00 0.00 861.00 289.00" xmlns="http://www.w3.org/2000/svg" xmlns:xlink="http://www.w3.org/1999/xlink">
<g id="graph1" class="graph" transform="scale(1 1) rotate(0) translate(4 285)">
<title>learner</title>
<polygon fill="white" stroke="white" points="-4,5 -4,-285 858,-285 858,5 -4,5"/>
<g id="graph2" class="cluster"><title>clustercontextKey</title>
<polygon fill="ghostwhite" stroke="white" points="8,-219 8,-273 96,-273 96,-219 8,-219"/>
<text text-anchor="middle" x="52.1792" y="-255" font-family="Helvetica,sans-Serif" font-size="14.00">Parameters</text>
</g>
<g id="graph3" class="cluster"><title>clusterlearnerKey</title>
<polygon fill="ghostwhite" stroke="white" points="104,-147 104,-273 168,-273 168,-147 104,-147"/>
<text text-anchor="middle" x="136.127" y="-255" font-family="Helvetica,sans-Serif" font-size="14.00">Learner</text>
</g>
<g id="graph4" class="cluster"><title>clusterguideKey</title>
<polygon fill="ghostwhite" stroke="white" points="216,-219 216,-273 269,-273 269,-219 216,-219"/>
<text text-anchor="middle" x="242.679" y="-255" font-family="Helvetica,sans-Serif" font-size="14.00">Guide</text>
</g>
<!-- contextOverview -->
<g id="node2" class="node"><title>contextOverview</title>
<ellipse fill="black" stroke="black" cx="52" cy="-234" rx="7.2" ry="7.2"/>
</g>
<!-- initializeStateOverview -->
<g id="node4" class="node"><title>initializeStateOverview</title>
<a xlink:href="learner__Overview.svg">
<ellipse fill="#14cc14" stroke="#14cc14" cx="135" cy="-234" rx="7.2" ry="7.2"/>
</a>
</g>
<!-- pickGuideOverview -->
<g id="node5" class="node"><title>pickGuideOverview</title>
<a xlink:href="learner__Overview.svg">
<ellipse fill="#14cccc" stroke="#14cccc" cx="135" cy="-162" rx="7.2" ry="7.2"/>
</a>
</g>
<!-- initializeStateOverview&#45;&gt;pickGuideOverview -->
<!-- newGuideOverview -->
<g id="node8" class="node"><title>newGuideOverview</title>
<a xlink:href="guide__Overview.svg">
<ellipse fill="#147acc" stroke="#147acc" cx="242" cy="-234" rx="7.2" ry="7.2"/>
</a>
</g>
<!-- socialResourcesnextLearnerID -->
<g id="node9" class="node"><title>socialResourcesnextLearnerID</title>
<polygon fill="white" stroke="white" points="291.25,-180 176.75,-180 176.75,-144 291.25,-144 291.25,-180"/>
<text text-anchor="start" x="185" y="-156.5" font-family="Helvetica,sans-Serif" font-size="14.00">Next Learner ID</text>
</g>
<!-- incrementNextLearnerID -->
<g id="node19" class="node"><title>incrementNextLearnerID</title>
<polygon fill="#ccffcc" stroke="#ccffcc" points="274.186,-108 219.814,-108 207.814,-96 207.814,-84 219.814,-72 274.186,-72 286.186,-84 286.186,-96 274.186,-108"/>
<path fill="#ccffcc" stroke="#ccffcc" d="M219.814,-108C213.814,-108 207.814,-102 207.814,-96"/>
<path fill="#ccffcc" stroke="#ccffcc" d="M207.814,-84C207.814,-78 213.814,-72 219.814,-72"/>
<path fill="#ccffcc" stroke="#ccffcc" d="M274.186,-72C280.186,-72 286.186,-78 286.186,-84"/>
<path fill="#ccffcc" stroke="#ccffcc" d="M286.186,-96C286.186,-102 280.186,-108 274.186,-108"/>
<polyline fill="none" stroke="#ccffcc" points="274.186,-108 219.814,-108 "/>
<path fill="none" stroke="#ccffcc" d="M219.814,-108C213.814,-108 207.814,-102 207.814,-96"/>
<polyline fill="none" stroke="#ccffcc" points="207.814,-96 207.814,-84 "/>
<path fill="none" stroke="#ccffcc" d="M207.814,-84C207.814,-78 213.814,-72 219.814,-72"/>
<polyline fill="none" stroke="#ccffcc" points="219.814,-72 274.186,-72 "/>
<path fill="none" stroke="#ccffcc" d="M274.186,-72C280.186,-72 286.186,-78 286.186,-84"/>
<polyline fill="none" stroke="#ccffcc" points="286.186,-84 286.186,-96 "/>
<path fill="none" stroke="#ccffcc" d="M286.186,-96C286.186,-102 280.186,-108 274.186,-108"/>
<text text-anchor="middle" x="247" y="-84.4" font-family="Helvetica,sans-Serif" font-size="14.00">Increment</text>
</g>
<!-- socialResourcesnextLearnerID&#45;&gt;incrementNextLearnerID -->
<g id="edge21" class="edge"><title>socialResourcesnextLearnerID&#45;&gt;incrementNextLearnerID:nw</title>
<path fill="none" stroke="black" stroke-width="2" stroke-dasharray="1,5" d="M226.215,-143.851C223.081,-134.704 220.959,-123.552 224.544,-114.748"/>
<ellipse fill="black" stroke="black" cx="226.796" cy="-111.338" rx="4.00002" ry="4.00002"/>
</g>
<!-- learnerlearningInterest -->
<g id="node10" class="node"><title>learnerlearningInterest</title>
<polygon fill="white" stroke="white" points="425.301,-108 304.699,-108 304.699,-72 425.301,-72 425.301,-108"/>
<text text-anchor="middle" x="365" y="-84.4" font-family="Helvetica,sans-Serif" font-size="14.00">Learning Interest</text>
</g>
<!-- learnerlearnerID -->
<g id="node11" class="node"><title>learnerlearnerID</title>
<polygon fill="white" stroke="white" points="526.108,-108 443.892,-108 443.892,-72 526.108,-72 526.108,-108"/>
<text text-anchor="middle" x="485" y="-84.4" font-family="Helvetica,sans-Serif" font-size="14.00">Learner ID</text>
</g>
<!-- initializeState -->
<g id="node12" class="node"><title>initializeState</title>
<a xlink:href="learner_initializeState.svg" xlink:title="Initialize State">
<polygon fill="#ccffcc" stroke="#ccffcc" points="404.368,-252 325.632,-252 313.632,-240 313.632,-228 325.632,-216 404.368,-216 416.368,-228 416.368,-240 404.368,-252"/>
<path fill="#ccffcc" stroke="#ccffcc" d="M325.632,-252C319.632,-252 313.632,-246 313.632,-240"/>
<path fill="#ccffcc" stroke="#ccffcc" d="M313.632,-228C313.632,-222 319.632,-216 325.632,-216"/>
<path fill="#ccffcc" stroke="#ccffcc" d="M404.368,-216C410.368,-216 416.368,-222 416.368,-228"/>
<path fill="#ccffcc" stroke="#ccffcc" d="M416.368,-240C416.368,-246 410.368,-252 404.368,-252"/>
<polyline fill="none" stroke="black" points="404.368,-252 325.632,-252 "/>
<path fill="none" stroke="black" d="M325.632,-252C319.632,-252 313.632,-246 313.632,-240"/>
<polyline fill="none" stroke="black" points="313.632,-240 313.632,-228 "/>
<path fill="none" stroke="black" d="M313.632,-228C313.632,-222 319.632,-216 325.632,-216"/>
<polyline fill="none" stroke="black" points="325.632,-216 404.368,-216 "/>
<path fill="none" stroke="black" d="M404.368,-216C410.368,-216 416.368,-222 416.368,-228"/>
<polyline fill="none" stroke="black" points="416.368,-228 416.368,-240 "/>
<path fill="none" stroke="black" d="M416.368,-240C416.368,-246 410.368,-252 404.368,-252"/>
<text text-anchor="middle" x="365" y="-228.4" font-family="Helvetica,sans-Serif" font-size="14.00">Initialize State</text>
</a>
</g>
<!-- initialInterest -->
<g id="node14" class="node"><title>initialInterest</title>
<polygon fill="#ccffcc" stroke="#ccffcc" points="402.446,-180 327.554,-180 315.554,-168 315.554,-156 327.554,-144 402.446,-144 414.446,-156 414.446,-168 402.446,-180"/>
<path fill="#ccffcc" stroke="#ccffcc" d="M327.554,-180C321.554,-180 315.554,-174 315.554,-168"/>
<path fill="#ccffcc" stroke="#ccffcc" d="M315.554,-156C315.554,-150 321.554,-144 327.554,-144"/>
<path fill="#ccffcc" stroke="#ccffcc" d="M402.446,-144C408.446,-144 414.446,-150 414.446,-156"/>
<path fill="#ccffcc" stroke="#ccffcc" d="M414.446,-168C414.446,-174 408.446,-180 402.446,-180"/>
<polyline fill="none" stroke="#ccffcc" points="402.446,-180 327.554,-180 "/>
<path fill="none" stroke="#ccffcc" d="M327.554,-180C321.554,-180 315.554,-174 315.554,-168"/>
<polyline fill="none" stroke="#ccffcc" points="315.554,-168 315.554,-156 "/>
<path fill="none" stroke="#ccffcc" d="M315.554,-156C315.554,-150 321.554,-144 327.554,-144"/>
<polyline fill="none" stroke="#ccffcc" points="327.554,-144 402.446,-144 "/>
<path fill="none" stroke="#ccffcc" d="M402.446,-144C408.446,-144 414.446,-150 414.446,-156"/>
<polyline fill="none" stroke="#ccffcc" points="414.446,-156 414.446,-168 "/>
<path fill="none" stroke="#ccffcc" d="M414.446,-168C414.446,-174 408.446,-180 402.446,-180"/>
<text text-anchor="middle" x="365" y="-156.4" font-family="Helvetica,sans-Serif" font-size="14.00">Initial Interest</text>
</g>
<!-- initializeState&#45;&gt;initialInterest -->
<g id="edge7" class="edge"><title>initializeState&#45;&gt;initialInterest</title>
<path fill="none" stroke="#14cc14" stroke-width="3" d="M365,-215.697C365,-210.95 365,-205.613 365,-200.206"/>
<polygon fill="#14cc14" stroke="#14cc14" points="372,-200.104 365,-180.104 358,-200.104 372,-200.104"/>
</g>
<!-- setLearnerIDToNextLearnerID -->
<g id="node16" class="node"><title>setLearnerIDToNextLearnerID</title>
<polygon fill="#ccffcc" stroke="#ccffcc" points="482,-180 452,-180 440,-168 440,-156 452,-144 482,-144 494,-156 494,-168 482,-180"/>
<path fill="#ccffcc" stroke="#ccffcc" d="M452,-180C446,-180 440,-174 440,-168"/>
<path fill="#ccffcc" stroke="#ccffcc" d="M440,-156C440,-150 446,-144 452,-144"/>
<path fill="#ccffcc" stroke="#ccffcc" d="M482,-144C488,-144 494,-150 494,-156"/>
<path fill="#ccffcc" stroke="#ccffcc" d="M494,-168C494,-174 488,-180 482,-180"/>
<polyline fill="none" stroke="#ccffcc" points="482,-180 452,-180 "/>
<path fill="none" stroke="#ccffcc" d="M452,-180C446,-180 440,-174 440,-168"/>
<polyline fill="none" stroke="#ccffcc" points="440,-168 440,-156 "/>
<path fill="none" stroke="#ccffcc" d="M440,-156C440,-150 446,-144 452,-144"/>
<polyline fill="none" stroke="#ccffcc" points="452,-144 482,-144 "/>
<path fill="none" stroke="#ccffcc" d="M482,-144C488,-144 494,-150 494,-156"/>
<polyline fill="none" stroke="#ccffcc" points="494,-156 494,-168 "/>
<path fill="none" stroke="#ccffcc" d="M494,-168C494,-174 488,-180 482,-180"/>
<text text-anchor="middle" x="467" y="-156.4" font-family="Helvetica,sans-Serif" font-size="14.00">Set</text>
</g>
<!-- initializeState&#45;&gt;setLearnerIDToNextLearnerID -->
<g id="edge9" class="edge"><title>initializeState&#45;&gt;setLearnerIDToNextLearnerID</title>
<path fill="none" stroke="#14cc14" stroke-width="3" d="M389.952,-215.876C400.572,-208.588 413.251,-199.886 425.229,-191.667"/>
<polygon fill="#14cc14" stroke="#14cc14" points="429.423,-197.278 441.952,-180.19 421.501,-185.735 429.423,-197.278"/>
</g>
<!-- initialInterest&#45;&gt;learnerlearningInterest -->
<g id="edge15" class="edge"><title>initialInterest&#45;&gt;learnerlearningInterest</title>
<path fill="none" stroke="#14cc14" stroke-width="3" d="M365,-143.697C365,-138.95 365,-133.613 365,-128.206"/>
<polygon fill="#14cc14" stroke="#14cc14" points="372,-128.104 365,-108.104 358,-128.104 372,-128.104"/>
</g>
<!-- setLearnerIDToNextLearnerID&#45;&gt;learnerlearnerID -->
<g id="edge11" class="edge"><title>setLearnerIDToNextLearnerID&#45;&gt;learnerlearnerID</title>
<path fill="none" stroke="#14cc14" stroke-width="3" d="M471.449,-143.697C472.714,-138.78 474.141,-133.231 475.582,-127.627"/>
<polygon fill="#14cc14" stroke="#14cc14" points="482.4,-129.218 480.602,-108.104 468.841,-125.731 482.4,-129.218"/>
</g>
<!-- setLearnerIDToNextLearnerID&#45;&gt;incrementNextLearnerID -->
<g id="edge13" class="edge"><title>setLearnerIDToNextLearnerID&#45;&gt;incrementNextLearnerID</title>
<path fill="none" stroke="#14cc14" stroke-width="3" d="M439.684,-149.986C434.193,-147.903 428.439,-145.811 423,-144 372.954,-127.336 355.147,-125.979 305.601,-111.128"/>
<polygon fill="#14cc14" stroke="#14cc14" points="307.397,-104.356 286.221,-105.129 303.257,-117.73 307.397,-104.356"/>
</g>
<!-- incrementNextLearnerID&#45;&gt;socialResourcesnextLearnerID -->
<g id="edge17" class="edge"><title>incrementNextLearnerID&#45;&gt;socialResourcesnextLearnerID</title>
<path fill="none" stroke="#14cc14" stroke-width="3" d="M243.823,-108.104C242.929,-112.919 241.92,-118.352 240.898,-123.856"/>
<polygon fill="#14cc14" stroke="#14cc14" points="233.983,-122.755 237.213,-143.697 247.748,-125.311 233.983,-122.755"/>
</g>
<!-- importabcsetLearnerIDToNextLearnerIDsocialResourcesnextLearnerID -->
<g id="node22" class="node"><title>importabcsetLearnerIDToNextLearnerIDsocialResourcesnextLearnerID</title>
<text text-anchor="middle" x="492" y="-228.4" font-family="Helvetica,sans-Serif" font-size="14.00">Next Learner ID</text>
</g>
<!-- importabcsetLearnerIDToNextLearnerIDsocialResourcesnextLearnerID&#45;&gt;setLearnerIDToNextLearnerID -->
<g id="edge19" class="edge"><title>importabcsetLearnerIDToNextLearnerIDsocialResourcesnextLearnerID&#45;&gt;setLearnerIDToNextLearnerID:ne</title>
<path fill="none" stroke="black" stroke-width="2" stroke-dasharray="1,5" d="M494.65,-215.875C495.258,-206.645 494.619,-195.365 489.808,-186.503"/>
<ellipse fill="black" stroke="black" cx="487.378" cy="-183.216" rx="4.00002" ry="4.00002"/>
</g>
<!-- learnerguideID -->
<g id="node25" class="node"><title>learnerguideID</title>
<polygon fill="white" stroke="white" points="646.435,-36 575.565,-36 575.565,-0 646.435,-0 646.435,-36"/>
<text text-anchor="middle" x="611" y="-12.4" font-family="Helvetica,sans-Serif" font-size="14.00">Guide ID</text>
</g>
<!-- guidelearnerCount -->
<g id="node26" class="node"><title>guidelearnerCount</title>
<polygon fill="white" stroke="white" points="853.13,-36 748.87,-36 748.87,-0 853.13,-0 853.13,-36"/>
<text text-anchor="middle" x="801" y="-12.4" font-family="Helvetica,sans-Serif" font-size="14.00">Learner Count</text>
</g>
<!-- incrementLearnerCount -->
<g id="node36" class="node"><title>incrementLearnerCount</title>
<polygon fill="#cce8ff" stroke="#cce8ff" points="837.186,-108 782.814,-108 770.814,-96 770.814,-84 782.814,-72 837.186,-72 849.186,-84 849.186,-96 837.186,-108"/>
<path fill="#cce8ff" stroke="#cce8ff" d="M782.814,-108C776.814,-108 770.814,-102 770.814,-96"/>
<path fill="#cce8ff" stroke="#cce8ff" d="M770.814,-84C770.814,-78 776.814,-72 782.814,-72"/>
<path fill="#cce8ff" stroke="#cce8ff" d="M837.186,-72C843.186,-72 849.186,-78 849.186,-84"/>
<path fill="#cce8ff" stroke="#cce8ff" d="M849.186,-96C849.186,-102 843.186,-108 837.186,-108"/>
<polyline fill="none" stroke="#cce8ff" points="837.186,-108 782.814,-108 "/>
<path fill="none" stroke="#cce8ff" d="M782.814,-108C776.814,-108 770.814,-102 770.814,-96"/>
<polyline fill="none" stroke="#cce8ff" points="770.814,-96 770.814,-84 "/>
<path fill="none" stroke="#cce8ff" d="M770.814,-84C770.814,-78 776.814,-72 782.814,-72"/>
<polyline fill="none" stroke="#cce8ff" points="782.814,-72 837.186,-72 "/>
<path fill="none" stroke="#cce8ff" d="M837.186,-72C843.186,-72 849.186,-78 849.186,-84"/>
<polyline fill="none" stroke="#cce8ff" points="849.186,-84 849.186,-96 "/>
<path fill="none" stroke="#cce8ff" d="M849.186,-96C849.186,-102 843.186,-108 837.186,-108"/>
<text text-anchor="middle" x="810" y="-84.4" font-family="Helvetica,sans-Serif" font-size="14.00">Increment</text>
</g>
<!-- guidelearnerCount&#45;&gt;incrementLearnerCount -->
<g id="edge43" class="edge"><title>guidelearnerCount&#45;&gt;incrementLearnerCount:nw</title>
<path fill="none" stroke="#147acc" stroke-width="2" stroke-dasharray="1,5" d="M788.221,-36.1469C781.635,-46.0666 774.284,-59.1072 770.876,-72 766.787,-87.4687 759.833,-96.4219 770.876,-108 775.234,-112.57 780.272,-114.45 785.124,-113.177"/>
<ellipse fill="#147acc" stroke="#147acc" cx="788.581" cy="-111.077" rx="4.00002" ry="4.00002"/>
</g>
<!-- guideguideID -->
<g id="node27" class="node"><title>guideguideID</title>
<polygon fill="white" stroke="white" points="583.435,-180 512.565,-180 512.565,-144 583.435,-144 583.435,-180"/>
<text text-anchor="middle" x="548" y="-156.4" font-family="Helvetica,sans-Serif" font-size="14.00">Guide ID</text>
</g>
<!-- guideIDAddZero -->
<g id="node34" class="node"><title>guideIDAddZero</title>
<polygon fill="#ccffff" stroke="#ccffff" points="626,-108 596,-108 584,-96 584,-84 596,-72 626,-72 638,-84 638,-96 626,-108"/>
<path fill="#ccffff" stroke="#ccffff" d="M596,-108C590,-108 584,-102 584,-96"/>
<path fill="#ccffff" stroke="#ccffff" d="M584,-84C584,-78 590,-72 596,-72"/>
<path fill="#ccffff" stroke="#ccffff" d="M626,-72C632,-72 638,-78 638,-84"/>
<path fill="#ccffff" stroke="#ccffff" d="M638,-96C638,-102 632,-108 626,-108"/>
<polyline fill="none" stroke="#ccffff" points="626,-108 596,-108 "/>
<path fill="none" stroke="#ccffff" d="M596,-108C590,-108 584,-102 584,-96"/>
<polyline fill="none" stroke="#ccffff" points="584,-96 584,-84 "/>
<path fill="none" stroke="#ccffff" d="M584,-84C584,-78 590,-72 596,-72"/>
<polyline fill="none" stroke="#ccffff" points="596,-72 626,-72 "/>
<path fill="none" stroke="#ccffff" d="M626,-72C632,-72 638,-78 638,-84"/>
<polyline fill="none" stroke="#ccffff" points="638,-84 638,-96 "/>
<path fill="none" stroke="#ccffff" d="M638,-96C638,-102 632,-108 626,-108"/>
<text text-anchor="middle" x="611" y="-84.4" font-family="Helvetica,sans-Serif" font-size="14.00">Add</text>
</g>
<!-- guideguideID&#45;&gt;guideIDAddZero -->
<g id="edge39" class="edge"><title>guideguideID&#45;&gt;guideIDAddZero:nw</title>
<path fill="none" stroke="#147acc" stroke-width="2" stroke-dasharray="1,5" d="M561.516,-143.672C568.642,-134.839 577.831,-123.899 587.177,-114"/>
<ellipse fill="#147acc" stroke="#147acc" cx="590.214" cy="-110.871" rx="4.00002" ry="4.00002"/>
</g>
<!-- pickGuide -->
<g id="node28" class="node"><title>pickGuide</title>
<a xlink:href="learner_pickGuide.svg" xlink:title="Pick Guide">
<polygon fill="#ccffff" stroke="#ccffff" points="748.274,-252 689.726,-252 677.726,-240 677.726,-228 689.726,-216 748.274,-216 760.274,-228 760.274,-240 748.274,-252"/>
<path fill="#ccffff" stroke="#ccffff" d="M689.726,-252C683.726,-252 677.726,-246 677.726,-240"/>
<path fill="#ccffff" stroke="#ccffff" d="M677.726,-228C677.726,-222 683.726,-216 689.726,-216"/>
<path fill="#ccffff" stroke="#ccffff" d="M748.274,-216C754.274,-216 760.274,-222 760.274,-228"/>
<path fill="#ccffff" stroke="#ccffff" d="M760.274,-240C760.274,-246 754.274,-252 748.274,-252"/>
<polyline fill="none" stroke="black" points="748.274,-252 689.726,-252 "/>
<path fill="none" stroke="black" d="M689.726,-252C683.726,-252 677.726,-246 677.726,-240"/>
<polyline fill="none" stroke="black" points="677.726,-240 677.726,-228 "/>
<path fill="none" stroke="black" d="M677.726,-228C677.726,-222 683.726,-216 689.726,-216"/>
<polyline fill="none" stroke="black" points="689.726,-216 748.274,-216 "/>
<path fill="none" stroke="black" d="M748.274,-216C754.274,-216 760.274,-222 760.274,-228"/>
<polyline fill="none" stroke="black" points="760.274,-228 760.274,-240 "/>
<path fill="none" stroke="black" d="M760.274,-240C760.274,-246 754.274,-252 748.274,-252"/>
<text text-anchor="middle" x="719" y="-228.4" font-family="Helvetica,sans-Serif" font-size="14.00">Pick Guide</text>
</a>
</g>
<!-- newGuide -->
<g id="node30" class="node"><title>newGuide</title>
<polygon fill="#cce8ff" stroke="#cce8ff" points="785.441,-180 724.559,-180 712.559,-168 712.559,-156 724.559,-144 785.441,-144 797.441,-156 797.441,-168 785.441,-180"/>
<path fill="#cce8ff" stroke="#cce8ff" d="M724.559,-180C718.559,-180 712.559,-174 712.559,-168"/>
<path fill="#cce8ff" stroke="#cce8ff" d="M712.559,-156C712.559,-150 718.559,-144 724.559,-144"/>
<path fill="#cce8ff" stroke="#cce8ff" d="M785.441,-144C791.441,-144 797.441,-150 797.441,-156"/>
<path fill="#cce8ff" stroke="#cce8ff" d="M797.441,-168C797.441,-174 791.441,-180 785.441,-180"/>
<polyline fill="none" stroke="gray" points="785.441,-180 724.559,-180 "/>
<path fill="none" stroke="gray" d="M724.559,-180C718.559,-180 712.559,-174 712.559,-168"/>
<polyline fill="none" stroke="gray" points="712.559,-168 712.559,-156 "/>
<path fill="none" stroke="gray" d="M712.559,-156C712.559,-150 718.559,-144 724.559,-144"/>
<polyline fill="none" stroke="gray" points="724.559,-144 785.441,-144 "/>
<path fill="none" stroke="gray" d="M785.441,-144C791.441,-144 797.441,-150 797.441,-156"/>
<polyline fill="none" stroke="gray" points="797.441,-156 797.441,-168 "/>
<path fill="none" stroke="gray" d="M797.441,-168C797.441,-174 791.441,-180 785.441,-180"/>
<text text-anchor="middle" x="755" y="-156.4" font-family="Helvetica,sans-Serif" font-size="14.00">New Guide</text>
</g>
<!-- pickGuide&#45;&gt;newGuide -->
<g id="edge23" class="edge"><title>pickGuide&#45;&gt;newGuide</title>
<path fill="none" stroke="#14cccc" stroke-width="3" d="M727.899,-215.697C730.645,-210.356 733.775,-204.27 736.909,-198.176"/>
<polygon fill="#14cccc" stroke="#14cccc" points="743.281,-201.092 746.203,-180.104 730.831,-194.689 743.281,-201.092"/>
</g>
<!-- connectLearner -->
<g id="node32" class="node"><title>connectLearner</title>
<polygon fill="#ccffff" stroke="#ccffff" points="741.108,-108 696.892,-108 684.892,-96 684.892,-84 696.892,-72 741.108,-72 753.108,-84 753.108,-96 741.108,-108"/>
<path fill="#ccffff" stroke="#ccffff" d="M696.892,-108C690.892,-108 684.892,-102 684.892,-96"/>
<path fill="#ccffff" stroke="#ccffff" d="M684.892,-84C684.892,-78 690.892,-72 696.892,-72"/>
<path fill="#ccffff" stroke="#ccffff" d="M741.108,-72C747.108,-72 753.108,-78 753.108,-84"/>
<path fill="#ccffff" stroke="#ccffff" d="M753.108,-96C753.108,-102 747.108,-108 741.108,-108"/>
<polyline fill="none" stroke="#ccffff" points="741.108,-108 696.892,-108 "/>
<path fill="none" stroke="#ccffff" d="M696.892,-108C690.892,-108 684.892,-102 684.892,-96"/>
<polyline fill="none" stroke="#ccffff" points="684.892,-96 684.892,-84 "/>
<path fill="none" stroke="#ccffff" d="M684.892,-84C684.892,-78 690.892,-72 696.892,-72"/>
<polyline fill="none" stroke="#ccffff" points="696.892,-72 741.108,-72 "/>
<path fill="none" stroke="#ccffff" d="M741.108,-72C747.108,-72 753.108,-78 753.108,-84"/>
<polyline fill="none" stroke="#ccffff" points="753.108,-84 753.108,-96 "/>
<path fill="none" stroke="#ccffff" d="M753.108,-96C753.108,-102 747.108,-108 741.108,-108"/>
<text text-anchor="middle" x="719" y="-84.4" font-family="Helvetica,sans-Serif" font-size="14.00">Connect</text>
</g>
<!-- pickGuide&#45;&gt;connectLearner -->
<g id="edge31" class="edge"><title>pickGuide&#45;&gt;connectLearner:nw</title>
<path fill="none" stroke="#14cccc" stroke-width="3" stroke-dasharray="5,2" d="M708.76,-215.668C696.803,-193.376 679.906,-154.067 690.307,-124.964"/>
<polygon fill="#14cccc" stroke="#14cccc" points="696.257,-128.652 701,-108 684.413,-121.187 696.257,-128.652"/>
</g>
<!-- newGuide&#45;&gt;connectLearner -->
<g id="edge25" class="edge"><title>newGuide&#45;&gt;connectLearner</title>
<path fill="none" stroke="#147acc" stroke-width="3" d="M746.101,-143.697C743.355,-138.356 740.225,-132.27 737.091,-126.176"/>
<polygon fill="#147acc" stroke="#147acc" points="743.169,-122.689 727.797,-108.104 730.719,-129.092 743.169,-122.689"/>
</g>
<!-- newGuide&#45;&gt;connectLearner -->
<g id="edge33" class="edge"><title>newGuide&#45;&gt;connectLearner:ne</title>
<path fill="none" stroke="#147acc" stroke-width="3" stroke-dasharray="5,2" d="M753.097,-143.643C752.034,-137.893 750.381,-131.353 747.808,-125.065"/>
<polygon fill="#147acc" stroke="#147acc" points="753.615,-121.151 737,-108 741.787,-128.642 753.615,-121.151"/>
</g>
<!-- newGuide&#45;&gt;guideIDAddZero -->
<g id="edge27" class="edge"><title>newGuide&#45;&gt;guideIDAddZero</title>
<path fill="none" stroke="#147acc" stroke-width="3" d="M719.774,-143.876C700.62,-134.565 676.72,-122.947 656.205,-112.975"/>
<polygon fill="#147acc" stroke="#147acc" points="659.243,-106.668 638.195,-104.22 653.122,-119.259 659.243,-106.668"/>
</g>
<!-- newGuide&#45;&gt;incrementLearnerCount -->
<g id="edge29" class="edge"><title>newGuide&#45;&gt;incrementLearnerCount</title>
<path fill="none" stroke="#147acc" stroke-width="3" d="M768.596,-143.697C773.324,-137.678 778.798,-130.712 784.184,-123.856"/>
<polygon fill="#147acc" stroke="#147acc" points="789.709,-128.155 796.561,-108.104 778.7,-119.506 789.709,-128.155"/>
</g>
<!-- guideIDAddZero&#45;&gt;learnerguideID -->
<g id="edge35" class="edge"><title>guideIDAddZero&#45;&gt;learnerguideID</title>
<path fill="none" stroke="#14cccc" stroke-width="3" d="M611,-71.6966C611,-66.9496 611,-61.6132 611,-56.2063"/>
<polygon fill="#14cccc" stroke="#14cccc" points="618,-56.1043 611,-36.1043 604,-56.1044 618,-56.1043"/>
</g>
<!-- incrementLearnerCount&#45;&gt;guidelearnerCount -->
<g id="edge37" class="edge"><title>incrementLearnerCount&#45;&gt;guidelearnerCount</title>
<path fill="none" stroke="#147acc" stroke-width="3" d="M807.775,-71.6966C807.165,-66.9496 806.479,-61.6132 805.784,-56.2063"/>
<polygon fill="#147acc" stroke="#147acc" points="812.693,-55.0484 803.199,-36.1043 798.807,-56.8337 812.693,-55.0484"/>
</g>
<!-- importxyxguideIDAddZerofunctionszero0 -->
<g id="node42" class="node"><title>importxyxguideIDAddZerofunctionszero0</title>
<text text-anchor="middle" x="629" y="-156.4" font-family="Helvetica,sans-Serif" font-size="14.00">0</text>
</g>
<!-- importxyxguideIDAddZerofunctionszero0&#45;&gt;guideIDAddZero -->
<g id="edge41" class="edge"><title>importxyxguideIDAddZerofunctionszero0&#45;&gt;guideIDAddZero:ne</title>
<path fill="none" stroke="black" stroke-width="2" stroke-dasharray="1,5" d="M634.611,-143.826C636.677,-134.67 637.65,-123.513 633.633,-114.727"/>
<ellipse fill="black" stroke="black" cx="631.269" cy="-111.294" rx="4.00002" ry="4.00002"/>
</g>
</g>
</svg>
