<?xml version="1.0" encoding="UTF-8" standalone="no"?>
<!DOCTYPE svg PUBLIC "-//W3C//DTD SVG 1.1//EN"
 "http://www.w3.org/Graphics/SVG/1.1/DTD/svg11.dtd">
<!-- Generated by graphviz version 2.29.20110702.0445 (20110702.0445)
 -->
<!-- Title: selfDirectedGrowth Pages: 1 -->
<svg width="891pt" height="577pt"
 viewBox="0.00 0.00 891.00 577.00" xmlns="http://www.w3.org/2000/svg" xmlns:xlink="http://www.w3.org/1999/xlink">
<g id="graph1" class="graph" transform="scale(1 1) rotate(0) translate(4 573)">
<title>selfDirectedGrowth</title>
<polygon fill="white" stroke="white" points="-4,5 -4,-573 888,-573 888,5 -4,5"/>
<g id="graph2" class="cluster"><title>clustercontextKey</title>
<polygon fill="ghostwhite" stroke="white" points="8,-507 8,-561 96,-561 96,-507 8,-507"/>
<text text-anchor="middle" x="52.1792" y="-543" font-family="Helvetica,sans-Serif" font-size="14.00">Parameters</text>
</g>
<g id="graph3" class="cluster"><title>clusterlearnerKey</title>
<polygon fill="ghostwhite" stroke="white" points="104,-507 104,-561 168,-561 168,-507 104,-507"/>
<text text-anchor="middle" x="136.127" y="-543" font-family="Helvetica,sans-Serif" font-size="14.00">Learner</text>
</g>
<!-- contextOverview -->
<g id="node2" class="node"><title>contextOverview</title>
<ellipse fill="black" stroke="black" cx="52" cy="-522" rx="7.2" ry="7.2"/>
</g>
<!-- selfDirectedGrowthOverview -->
<g id="node4" class="node"><title>selfDirectedGrowthOverview</title>
<a xlink:href="learner__Overview.svg">
<ellipse fill="#1415cc" stroke="#1415cc" cx="135" cy="-522" rx="7.2" ry="7.2"/>
</a>
</g>
<!-- learnerselfContribution -->
<g id="node5" class="node"><title>learnerselfContribution</title>
<polygon fill="white" stroke="white" points="295.13,-540 176.87,-540 176.87,-504 295.13,-504 295.13,-540"/>
<text text-anchor="middle" x="236" y="-516.4" font-family="Helvetica,sans-Serif" font-size="14.00">Self Contribution</text>
</g>
<!-- selfContributionAddActualGrowth -->
<g id="node16" class="node"><title>selfContributionAddActualGrowth</title>
<polygon fill="#ccccff" stroke="#ccccff" points="288,-468 258,-468 246,-456 246,-444 258,-432 288,-432 300,-444 300,-456 288,-468"/>
<path fill="#ccccff" stroke="#ccccff" d="M258,-468C252,-468 246,-462 246,-456"/>
<path fill="#ccccff" stroke="#ccccff" d="M246,-444C246,-438 252,-432 258,-432"/>
<path fill="#ccccff" stroke="#ccccff" d="M288,-432C294,-432 300,-438 300,-444"/>
<path fill="#ccccff" stroke="#ccccff" d="M300,-456C300,-462 294,-468 288,-468"/>
<polyline fill="none" stroke="#ccccff" points="288,-468 258,-468 "/>
<path fill="none" stroke="#ccccff" d="M258,-468C252,-468 246,-462 246,-456"/>
<polyline fill="none" stroke="#ccccff" points="246,-456 246,-444 "/>
<path fill="none" stroke="#ccccff" d="M246,-444C246,-438 252,-432 258,-432"/>
<polyline fill="none" stroke="#ccccff" points="258,-432 288,-432 "/>
<path fill="none" stroke="#ccccff" d="M288,-432C294,-432 300,-438 300,-444"/>
<polyline fill="none" stroke="#ccccff" points="300,-444 300,-456 "/>
<path fill="none" stroke="#ccccff" d="M300,-456C300,-462 294,-468 288,-468"/>
<text text-anchor="middle" x="273" y="-444.4" font-family="Helvetica,sans-Serif" font-size="14.00">Add</text>
</g>
<!-- learnerselfContribution&#45;&gt;selfContributionAddActualGrowth -->
<g id="edge30" class="edge"><title>learnerselfContribution&#45;&gt;selfContributionAddActualGrowth:nw</title>
<path fill="none" stroke="#1415cc" stroke-width="2" stroke-dasharray="1,5" d="M238.309,-503.679C240.203,-494.527 243.62,-483.361 249.757,-474.376"/>
<ellipse fill="#1415cc" stroke="#1415cc" cx="252.46" cy="-471.09" rx="4.00002" ry="4.00002"/>
</g>
<!-- learnerlearningInterest -->
<g id="node6" class="node"><title>learnerlearningInterest</title>
<polygon fill="white" stroke="white" points="515.301,-396 394.699,-396 394.699,-360 515.301,-360 515.301,-396"/>
<text text-anchor="middle" x="455" y="-372.4" font-family="Helvetica,sans-Serif" font-size="14.00">Learning Interest</text>
</g>
<!-- potentialInterestGrowth -->
<g id="node11" class="node"><title>potentialInterestGrowth</title>
<polygon fill="#ccccff" stroke="#ccccff" points="512.103,-324 467.897,-324 455.897,-312 455.897,-300 467.897,-288 512.103,-288 524.103,-300 524.103,-312 512.103,-324"/>
<path fill="#ccccff" stroke="#ccccff" d="M467.897,-324C461.897,-324 455.897,-318 455.897,-312"/>
<path fill="#ccccff" stroke="#ccccff" d="M455.897,-300C455.897,-294 461.897,-288 467.897,-288"/>
<path fill="#ccccff" stroke="#ccccff" d="M512.103,-288C518.103,-288 524.103,-294 524.103,-300"/>
<path fill="#ccccff" stroke="#ccccff" d="M524.103,-312C524.103,-318 518.103,-324 512.103,-324"/>
<polyline fill="none" stroke="#ccccff" points="512.103,-324 467.897,-324 "/>
<path fill="none" stroke="#ccccff" d="M467.897,-324C461.897,-324 455.897,-318 455.897,-312"/>
<polyline fill="none" stroke="#ccccff" points="455.897,-312 455.897,-300 "/>
<path fill="none" stroke="#ccccff" d="M455.897,-300C455.897,-294 461.897,-288 467.897,-288"/>
<polyline fill="none" stroke="#ccccff" points="467.897,-288 512.103,-288 "/>
<path fill="none" stroke="#ccccff" d="M512.103,-288C518.103,-288 524.103,-294 524.103,-300"/>
<polyline fill="none" stroke="#ccccff" points="524.103,-300 524.103,-312 "/>
<path fill="none" stroke="#ccccff" d="M524.103,-312C524.103,-318 518.103,-324 512.103,-324"/>
<text text-anchor="middle" x="490" y="-300.4" font-family="Helvetica,sans-Serif" font-size="14.00">Subtract</text>
</g>
<!-- learnerlearningInterest&#45;&gt;potentialInterestGrowth -->
<g id="edge42" class="edge"><title>learnerlearningInterest&#45;&gt;potentialInterestGrowth:nw</title>
<path fill="none" stroke="#1415cc" stroke-width="2" stroke-dasharray="1,5" d="M456.496,-359.609C457.987,-350.433 460.959,-339.257 466.877,-330.324"/>
<ellipse fill="#1415cc" stroke="#1415cc" cx="469.482" cy="-327.108" rx="4.00002" ry="4.00002"/>
</g>
<!-- actualGrowth -->
<g id="node20" class="node"><title>actualGrowth</title>
<polygon fill="#ccccff" stroke="#ccccff" points="370.103,-540 325.897,-540 313.897,-528 313.897,-516 325.897,-504 370.103,-504 382.103,-516 382.103,-528 370.103,-540"/>
<path fill="#ccccff" stroke="#ccccff" d="M325.897,-540C319.897,-540 313.897,-534 313.897,-528"/>
<path fill="#ccccff" stroke="#ccccff" d="M313.897,-516C313.897,-510 319.897,-504 325.897,-504"/>
<path fill="#ccccff" stroke="#ccccff" d="M370.103,-504C376.103,-504 382.103,-510 382.103,-516"/>
<path fill="#ccccff" stroke="#ccccff" d="M382.103,-528C382.103,-534 376.103,-540 370.103,-540"/>
<polyline fill="none" stroke="#ccccff" points="370.103,-540 325.897,-540 "/>
<path fill="none" stroke="#ccccff" d="M325.897,-540C319.897,-540 313.897,-534 313.897,-528"/>
<polyline fill="none" stroke="#ccccff" points="313.897,-528 313.897,-516 "/>
<path fill="none" stroke="#ccccff" d="M313.897,-516C313.897,-510 319.897,-504 325.897,-504"/>
<polyline fill="none" stroke="#ccccff" points="325.897,-504 370.103,-504 "/>
<path fill="none" stroke="#ccccff" d="M370.103,-504C376.103,-504 382.103,-510 382.103,-516"/>
<polyline fill="none" stroke="#ccccff" points="382.103,-516 382.103,-528 "/>
<path fill="none" stroke="#ccccff" d="M382.103,-528C382.103,-534 376.103,-540 370.103,-540"/>
<text text-anchor="middle" x="348" y="-516.4" font-family="Helvetica,sans-Serif" font-size="14.00">Subtract</text>
</g>
<!-- learnerlearningInterest&#45;&gt;actualGrowth -->
<g id="edge38" class="edge"><title>learnerlearningInterest&#45;&gt;actualGrowth:ne</title>
<path fill="none" stroke="#1415cc" stroke-width="2" stroke-dasharray="1,5" d="M452.218,-396.334C443.827,-444.829 416.595,-576.428 372.355,-546.344"/>
<ellipse fill="#1415cc" stroke="#1415cc" cx="369.062" cy="-543.574" rx="4.00002" ry="4.00002"/>
</g>
<!-- learningInterestAddSelfInfluence -->
<g id="node26" class="node"><title>learningInterestAddSelfInfluence</title>
<polygon fill="#ccccff" stroke="#ccccff" points="436,-108 406,-108 394,-96 394,-84 406,-72 436,-72 448,-84 448,-96 436,-108"/>
<path fill="#ccccff" stroke="#ccccff" d="M406,-108C400,-108 394,-102 394,-96"/>
<path fill="#ccccff" stroke="#ccccff" d="M394,-84C394,-78 400,-72 406,-72"/>
<path fill="#ccccff" stroke="#ccccff" d="M436,-72C442,-72 448,-78 448,-84"/>
<path fill="#ccccff" stroke="#ccccff" d="M448,-96C448,-102 442,-108 436,-108"/>
<polyline fill="none" stroke="#ccccff" points="436,-108 406,-108 "/>
<path fill="none" stroke="#ccccff" d="M406,-108C400,-108 394,-102 394,-96"/>
<polyline fill="none" stroke="#ccccff" points="394,-96 394,-84 "/>
<path fill="none" stroke="#ccccff" d="M394,-84C394,-78 400,-72 406,-72"/>
<polyline fill="none" stroke="#ccccff" points="406,-72 436,-72 "/>
<path fill="none" stroke="#ccccff" d="M436,-72C442,-72 448,-78 448,-84"/>
<polyline fill="none" stroke="#ccccff" points="448,-84 448,-96 "/>
<path fill="none" stroke="#ccccff" d="M448,-96C448,-102 442,-108 436,-108"/>
<text text-anchor="middle" x="421" y="-84.4" font-family="Helvetica,sans-Serif" font-size="14.00">Add</text>
</g>
<!-- learnerlearningInterest&#45;&gt;learningInterestAddSelfInfluence -->
<g id="edge50" class="edge"><title>learnerlearningInterest&#45;&gt;learningInterestAddSelfInfluence:nw</title>
<path fill="none" stroke="#1415cc" stroke-width="2" stroke-dasharray="1,5" d="M448.06,-359.813C428.077,-309.08 373.377,-160.649 398.111,-114.689"/>
<ellipse fill="#1415cc" stroke="#1415cc" cx="400.64" cy="-111.229" rx="4.00002" ry="4.00002"/>
</g>
<!-- socialResourcesselfContributionThreshold -->
<g id="node7" class="node"><title>socialResourcesselfContributionThreshold</title>
<polygon fill="white" stroke="white" points="883,-396 697,-396 697,-360 883,-360 883,-396"/>
<text text-anchor="start" x="705.5" y="-372.5" font-family="Helvetica,sans-Serif" font-size="14.00">Self Contribution Threshold</text>
</g>
<!-- socialResourcesselfContributionThreshold&#45;&gt;potentialInterestGrowth -->
<g id="edge44" class="edge"><title>socialResourcesselfContributionThreshold&#45;&gt;potentialInterestGrowth:ne</title>
<path fill="none" stroke="black" stroke-width="2" stroke-dasharray="1,5" d="M696.875,-360.766C628.063,-348.605 541.98,-332.993 515.813,-326.499"/>
<ellipse fill="black" stroke="black" cx="511.81" cy="-325.218" rx="4.00001" ry="4.00001"/>
</g>
<!-- socialResourcesselfContributionRate -->
<g id="node8" class="node"><title>socialResourcesselfContributionRate</title>
<polygon fill="white" stroke="white" points="714.25,-252 561.75,-252 561.75,-216 714.25,-216 714.25,-252"/>
<text text-anchor="start" x="570" y="-228.5" font-family="Helvetica,sans-Serif" font-size="14.00">Self Contribution Rate</text>
</g>
<!-- selfInfluence -->
<g id="node14" class="node"><title>selfInfluence</title>
<polygon fill="#ccccff" stroke="#ccccff" points="483.59,-180 444.41,-180 432.41,-168 432.41,-156 444.41,-144 483.59,-144 495.59,-156 495.59,-168 483.59,-180"/>
<path fill="#ccccff" stroke="#ccccff" d="M444.41,-180C438.41,-180 432.41,-174 432.41,-168"/>
<path fill="#ccccff" stroke="#ccccff" d="M432.41,-156C432.41,-150 438.41,-144 444.41,-144"/>
<path fill="#ccccff" stroke="#ccccff" d="M483.59,-144C489.59,-144 495.59,-150 495.59,-156"/>
<path fill="#ccccff" stroke="#ccccff" d="M495.59,-168C495.59,-174 489.59,-180 483.59,-180"/>
<polyline fill="none" stroke="#ccccff" points="483.59,-180 444.41,-180 "/>
<path fill="none" stroke="#ccccff" d="M444.41,-180C438.41,-180 432.41,-174 432.41,-168"/>
<polyline fill="none" stroke="#ccccff" points="432.41,-168 432.41,-156 "/>
<path fill="none" stroke="#ccccff" d="M432.41,-156C432.41,-150 438.41,-144 444.41,-144"/>
<polyline fill="none" stroke="#ccccff" points="444.41,-144 483.59,-144 "/>
<path fill="none" stroke="#ccccff" d="M483.59,-144C489.59,-144 495.59,-150 495.59,-156"/>
<polyline fill="none" stroke="#ccccff" points="495.59,-156 495.59,-168 "/>
<path fill="none" stroke="#ccccff" d="M495.59,-168C495.59,-174 489.59,-180 483.59,-180"/>
<text text-anchor="middle" x="464" y="-156.4" font-family="Helvetica,sans-Serif" font-size="14.00">Multiply</text>
</g>
<!-- socialResourcesselfContributionRate&#45;&gt;selfInfluence -->
<g id="edge46" class="edge"><title>socialResourcesselfContributionRate&#45;&gt;selfInfluence:ne</title>
<path fill="none" stroke="black" stroke-width="2" stroke-dasharray="1,5" d="M568.87,-215.973C538.056,-207.314 505.016,-196.279 488.408,-185.125"/>
<ellipse fill="black" stroke="black" cx="485.124" cy="-182.499" rx="4.00002" ry="4.00002"/>
</g>
<!-- selfDirectedGrowth -->
<g id="node9" class="node"><title>selfDirectedGrowth</title>
<a xlink:href="learner_selfDirectedGrowth.svg" xlink:title="Self Directed Growth">
<polygon fill="#ccccff" stroke="#ccccff" points="666.368,-396 545.632,-396 533.632,-384 533.632,-372 545.632,-360 666.368,-360 678.368,-372 678.368,-384 666.368,-396"/>
<path fill="#ccccff" stroke="#ccccff" d="M545.632,-396C539.632,-396 533.632,-390 533.632,-384"/>
<path fill="#ccccff" stroke="#ccccff" d="M533.632,-372C533.632,-366 539.632,-360 545.632,-360"/>
<path fill="#ccccff" stroke="#ccccff" d="M666.368,-360C672.368,-360 678.368,-366 678.368,-372"/>
<path fill="#ccccff" stroke="#ccccff" d="M678.368,-384C678.368,-390 672.368,-396 666.368,-396"/>
<polyline fill="none" stroke="black" points="666.368,-396 545.632,-396 "/>
<path fill="none" stroke="black" d="M545.632,-396C539.632,-396 533.632,-390 533.632,-384"/>
<polyline fill="none" stroke="black" points="533.632,-384 533.632,-372 "/>
<path fill="none" stroke="black" d="M533.632,-372C533.632,-366 539.632,-360 545.632,-360"/>
<polyline fill="none" stroke="black" points="545.632,-360 666.368,-360 "/>
<path fill="none" stroke="black" d="M666.368,-360C672.368,-360 678.368,-366 678.368,-372"/>
<polyline fill="none" stroke="black" points="678.368,-372 678.368,-384 "/>
<path fill="none" stroke="black" d="M678.368,-384C678.368,-390 672.368,-396 666.368,-396"/>
<text text-anchor="middle" x="606" y="-372.4" font-family="Helvetica,sans-Serif" font-size="14.00">Self Directed Growth</text>
</a>
</g>
<!-- selfDirectedGrowth&#45;&gt;potentialInterestGrowth -->
<g id="edge4" class="edge"><title>selfDirectedGrowth&#45;&gt;potentialInterestGrowth</title>
<path fill="none" stroke="#1415cc" stroke-width="3" d="M577.623,-359.876C564.984,-352.249 549.779,-343.074 535.61,-334.523"/>
<polygon fill="#1415cc" stroke="#1415cc" points="539.226,-328.53 518.486,-324.19 531.993,-340.516 539.226,-328.53"/>
</g>
<!-- potentialInterestGrowthGreaterZeroQuery -->
<g id="node12" class="node"><title>potentialInterestGrowthGreaterZeroQuery</title>
<polygon fill="#ccccff" stroke="#ccccff" points="531.435,-252 484.565,-252 472.565,-240 472.565,-228 484.565,-216 531.435,-216 543.435,-228 543.435,-240 531.435,-252"/>
<path fill="#ccccff" stroke="#ccccff" d="M484.565,-252C478.565,-252 472.565,-246 472.565,-240"/>
<path fill="#ccccff" stroke="#ccccff" d="M472.565,-228C472.565,-222 478.565,-216 484.565,-216"/>
<path fill="#ccccff" stroke="#ccccff" d="M531.435,-216C537.435,-216 543.435,-222 543.435,-228"/>
<path fill="#ccccff" stroke="#ccccff" d="M543.435,-240C543.435,-246 537.435,-252 531.435,-252"/>
<polyline fill="none" stroke="#ccccff" points="531.435,-252 484.565,-252 "/>
<path fill="none" stroke="#ccccff" d="M484.565,-252C478.565,-252 472.565,-246 472.565,-240"/>
<polyline fill="none" stroke="#ccccff" points="472.565,-240 472.565,-228 "/>
<path fill="none" stroke="#ccccff" d="M472.565,-228C472.565,-222 478.565,-216 484.565,-216"/>
<polyline fill="none" stroke="#ccccff" points="484.565,-216 531.435,-216 "/>
<path fill="none" stroke="#ccccff" d="M531.435,-216C537.435,-216 543.435,-222 543.435,-228"/>
<polyline fill="none" stroke="#ccccff" points="543.435,-228 543.435,-240 "/>
<path fill="none" stroke="#ccccff" d="M543.435,-240C543.435,-246 537.435,-252 531.435,-252"/>
<text text-anchor="middle" x="508" y="-228.4" font-family="Helvetica,sans-Serif" font-size="14.00">Greater?</text>
</g>
<!-- potentialInterestGrowth&#45;&gt;potentialInterestGrowthGreaterZeroQuery -->
<g id="edge24" class="edge"><title>potentialInterestGrowth&#45;&gt;potentialInterestGrowthGreaterZeroQuery:nw</title>
<path fill="none" stroke="blue" stroke-width="2" stroke-dasharray="1,5" d="M484.389,-287.826C482.323,-278.67 481.35,-267.513 485.367,-258.727"/>
<ellipse fill="blue" stroke="blue" cx="487.731" cy="-255.294" rx="4.00002" ry="4.00002"/>
</g>
<!-- potentialInterestGrowth&#45;&gt;potentialInterestGrowthGreaterZeroQuery -->
<g id="edge18" class="edge"><title>potentialInterestGrowth&#45;&gt;potentialInterestGrowthGreaterZeroQuery</title>
<path fill="none" stroke="#1415cc" stroke-width="3" d="M494.449,-287.697C495.714,-282.78 497.141,-277.231 498.582,-271.627"/>
<polygon fill="#1415cc" stroke="#1415cc" points="505.4,-273.218 503.602,-252.104 491.841,-269.731 505.4,-273.218"/>
</g>
<!-- potentialInterestGrowth&#45;&gt;selfInfluence -->
<g id="edge48" class="edge"><title>potentialInterestGrowth&#45;&gt;selfInfluence:nw</title>
<path fill="none" stroke="blue" stroke-width="2" stroke-dasharray="1,5" d="M474.045,-287.566C453.002,-262.628 420.858,-216.448 440.907,-186.199"/>
<ellipse fill="blue" stroke="blue" cx="443.461" cy="-183.091" rx="4.00002" ry="4.00002"/>
</g>
<!-- potentialInterestGrowthGreaterZeroQuery&#45;&gt;selfInfluence -->
<g id="edge6" class="edge"><title>potentialInterestGrowthGreaterZeroQuery&#45;&gt;selfInfluence</title>
<path fill="none" stroke="#1415cc" stroke-width="3" d="M497.124,-215.697C493.607,-210.102 489.576,-203.689 485.564,-197.306"/>
<polygon fill="#1415cc" stroke="#1415cc" points="491.321,-193.312 474.751,-180.104 479.468,-200.762 491.321,-193.312"/>
</g>
<!-- selfInfluence&#45;&gt;learningInterestAddSelfInfluence -->
<g id="edge52" class="edge"><title>selfInfluence&#45;&gt;learningInterestAddSelfInfluence:ne</title>
<path fill="none" stroke="blue" stroke-width="2" stroke-dasharray="1,5" d="M459.29,-143.927C456.173,-134.775 451.363,-123.517 444.43,-114.295"/>
<ellipse fill="blue" stroke="blue" cx="441.612" cy="-111.029" rx="4.00002" ry="4.00002"/>
</g>
<!-- selfInfluence&#45;&gt;learningInterestAddSelfInfluence -->
<g id="edge20" class="edge"><title>selfInfluence&#45;&gt;learningInterestAddSelfInfluence</title>
<path fill="none" stroke="#1415cc" stroke-width="3" d="M453.371,-143.697C449.934,-138.102 445.994,-131.689 442.074,-125.306"/>
<polygon fill="#1415cc" stroke="#1415cc" points="447.94,-121.482 431.507,-108.104 436.011,-128.81 447.94,-121.482"/>
</g>
<!-- setLearningInterestToMinimum_LearningInterestAddSelfInfluenceUnit_ -->
<g id="node15" class="node"><title>setLearningInterestToMinimum_LearningInterestAddSelfInfluenceUnit_</title>
<polygon fill="#ccccff" stroke="#ccccff" points="398,-468 368,-468 356,-456 356,-444 368,-432 398,-432 410,-444 410,-456 398,-468"/>
<path fill="#ccccff" stroke="#ccccff" d="M368,-468C362,-468 356,-462 356,-456"/>
<path fill="#ccccff" stroke="#ccccff" d="M356,-444C356,-438 362,-432 368,-432"/>
<path fill="#ccccff" stroke="#ccccff" d="M398,-432C404,-432 410,-438 410,-444"/>
<path fill="#ccccff" stroke="#ccccff" d="M410,-456C410,-462 404,-468 398,-468"/>
<polyline fill="none" stroke="#ccccff" points="398,-468 368,-468 "/>
<path fill="none" stroke="#ccccff" d="M368,-468C362,-468 356,-462 356,-456"/>
<polyline fill="none" stroke="#ccccff" points="356,-456 356,-444 "/>
<path fill="none" stroke="#ccccff" d="M356,-444C356,-438 362,-432 368,-432"/>
<polyline fill="none" stroke="#ccccff" points="368,-432 398,-432 "/>
<path fill="none" stroke="#ccccff" d="M398,-432C404,-432 410,-438 410,-444"/>
<polyline fill="none" stroke="#ccccff" points="410,-444 410,-456 "/>
<path fill="none" stroke="#ccccff" d="M410,-456C410,-462 404,-468 398,-468"/>
<text text-anchor="middle" x="383" y="-444.4" font-family="Helvetica,sans-Serif" font-size="14.00">Set</text>
</g>
<!-- setLearningInterestToMinimum_LearningInterestAddSelfInfluenceUnit_&#45;&gt;learnerlearningInterest -->
<g id="edge16" class="edge"><title>setLearningInterestToMinimum_LearningInterestAddSelfInfluenceUnit_&#45;&gt;learnerlearningInterest</title>
<path fill="none" stroke="#1415cc" stroke-width="3" d="M400.798,-431.697C407.511,-425.169 415.371,-417.528 422.99,-410.121"/>
<polygon fill="#1415cc" stroke="#1415cc" points="427.947,-415.065 437.407,-396.104 418.187,-405.027 427.947,-415.065"/>
</g>
<!-- selfContributionAddActualGrowth&#45;&gt;learnerselfContribution -->
<g id="edge8" class="edge"><title>selfContributionAddActualGrowth&#45;&gt;learnerselfContribution</title>
<path fill="none" stroke="#1415cc" stroke-width="3" d="M263.959,-468.104C261.102,-473.511 257.832,-479.696 254.56,-485.886"/>
<polygon fill="#1415cc" stroke="#1415cc" points="248.304,-482.744 245.146,-503.697 260.681,-489.286 248.304,-482.744"/>
</g>
<!-- minimum_LearningInterestAddSelfInfluenceUnit_ -->
<g id="node18" class="node"><title>minimum_LearningInterestAddSelfInfluenceUnit_</title>
<polygon fill="#ccccff" stroke="#ccccff" points="420.926,-36 365.074,-36 353.074,-24 353.074,-12 365.074,-0 420.926,-0 432.926,-12 432.926,-24 420.926,-36"/>
<path fill="#ccccff" stroke="#ccccff" d="M365.074,-36C359.074,-36 353.074,-30 353.074,-24"/>
<path fill="#ccccff" stroke="#ccccff" d="M353.074,-12C353.074,-6 359.074,-0 365.074,-0"/>
<path fill="#ccccff" stroke="#ccccff" d="M420.926,-0C426.926,-0 432.926,-6 432.926,-12"/>
<path fill="#ccccff" stroke="#ccccff" d="M432.926,-24C432.926,-30 426.926,-36 420.926,-36"/>
<polyline fill="none" stroke="#ccccff" points="420.926,-36 365.074,-36 "/>
<path fill="none" stroke="#ccccff" d="M365.074,-36C359.074,-36 353.074,-30 353.074,-24"/>
<polyline fill="none" stroke="#ccccff" points="353.074,-24 353.074,-12 "/>
<path fill="none" stroke="#ccccff" d="M353.074,-12C353.074,-6 359.074,-0 365.074,-0"/>
<polyline fill="none" stroke="#ccccff" points="365.074,-0 420.926,-0 "/>
<path fill="none" stroke="#ccccff" d="M420.926,-0C426.926,-0 432.926,-6 432.926,-12"/>
<polyline fill="none" stroke="#ccccff" points="432.926,-12 432.926,-24 "/>
<path fill="none" stroke="#ccccff" d="M432.926,-24C432.926,-30 426.926,-36 420.926,-36"/>
<text text-anchor="middle" x="393" y="-12.4" font-family="Helvetica,sans-Serif" font-size="14.00">Minimum?</text>
</g>
<!-- minimum_LearningInterestAddSelfInfluenceUnit_&#45;&gt;setLearningInterestToMinimum_LearningInterestAddSelfInfluenceUnit_ -->
<g id="edge28" class="edge"><title>minimum_LearningInterestAddSelfInfluenceUnit_&#45;&gt;setLearningInterestToMinimum_LearningInterestAddSelfInfluenceUnit_:ne</title>
<path fill="none" stroke="blue" stroke-dasharray="1,5" d="M387.536,-36.2872C379.647,-62.8246 366,-115.328 366,-161 366,-307 366,-307 366,-307 366,-347.447 368.927,-358.884 385,-396 392.741,-413.876 404.178,-413.411 410,-432 424.208,-477.37 420.47,-485.479 407.231,-474.715"/>
<ellipse fill="blue" stroke="blue" cx="403.948" cy="-471.704" rx="4.00002" ry="4.00002"/>
</g>
<!-- minimum_LearningInterestAddSelfInfluenceUnit_&#45;&gt;actualGrowth -->
<g id="edge40" class="edge"><title>minimum_LearningInterestAddSelfInfluenceUnit_&#45;&gt;actualGrowth:nw</title>
<path fill="none" stroke="blue" stroke-width="2" stroke-dasharray="1,5" d="M352.851,-31.5983C301.185,-50.6101 218,-91.9431 218,-161 218,-379 218,-379 218,-379 218,-419.447 212.817,-435.579 237,-468 256.978,-494.783 281.909,-478.085 303,-504 312.397,-515.546 305.131,-558.358 323.448,-546.523"/>
<ellipse fill="blue" stroke="blue" cx="326.941" cy="-543.578" rx="4.00002" ry="4.00002"/>
</g>
<!-- minimum_LearningInterestAddSelfInfluenceUnit_&#45;&gt;actualGrowth -->
<g id="edge10" class="edge"><title>minimum_LearningInterestAddSelfInfluenceUnit_&#45;&gt;actualGrowth</title>
<path fill="none" stroke="#1415cc" stroke-width="3" d="M379.215,-36.2108C360.135,-61.8205 328,-112.197 328,-161 328,-379 328,-379 328,-379 328,-414.93 334.356,-455.479 339.902,-484.019"/>
<polygon fill="#1415cc" stroke="#1415cc" points="333.05,-485.453 343.953,-503.622 346.761,-482.62 333.05,-485.453"/>
</g>
<!-- actualGrowth&#45;&gt;setLearningInterestToMinimum_LearningInterestAddSelfInfluenceUnit_ -->
<g id="edge14" class="edge"><title>actualGrowth&#45;&gt;setLearningInterestToMinimum_LearningInterestAddSelfInfluenceUnit_</title>
<path fill="none" stroke="#1415cc" stroke-width="3" d="M356.652,-503.697C359.322,-498.356 362.365,-492.27 365.412,-486.176"/>
<polygon fill="#1415cc" stroke="#1415cc" points="371.765,-489.123 374.448,-468.104 359.243,-482.862 371.765,-489.123"/>
</g>
<!-- actualGrowth&#45;&gt;selfContributionAddActualGrowth -->
<g id="edge32" class="edge"><title>actualGrowth&#45;&gt;selfContributionAddActualGrowth:ne</title>
<path fill="none" stroke="blue" stroke-width="2" stroke-dasharray="1,5" d="M328.934,-503.911C319.458,-495.285 307.742,-484.425 296.908,-473.838"/>
<ellipse fill="blue" stroke="blue" cx="293.845" cy="-470.811" rx="4.00002" ry="4.00002"/>
</g>
<!-- actualGrowth&#45;&gt;selfContributionAddActualGrowth -->
<g id="edge12" class="edge"><title>actualGrowth&#45;&gt;selfContributionAddActualGrowth</title>
<path fill="none" stroke="#1415cc" stroke-width="3" d="M329.461,-503.697C322.376,-497.085 314.067,-489.329 306.035,-481.833"/>
<polygon fill="#1415cc" stroke="#1415cc" points="310.723,-476.633 291.326,-468.104 301.171,-486.868 310.723,-476.633"/>
</g>
<!-- learningInterestAddSelfInfluence&#45;&gt;minimum_LearningInterestAddSelfInfluenceUnit_ -->
<g id="edge34" class="edge"><title>learningInterestAddSelfInfluence&#45;&gt;minimum_LearningInterestAddSelfInfluenceUnit_:nw</title>
<path fill="none" stroke="blue" stroke-width="2" stroke-dasharray="1,5" d="M393.796,-73.645C380.821,-64.8183 368.56,-53.4457 370.887,-43.0219"/>
<ellipse fill="blue" stroke="blue" cx="372.978" cy="-39.4516" rx="4.00002" ry="4.00002"/>
</g>
<!-- learningInterestAddSelfInfluence&#45;&gt;minimum_LearningInterestAddSelfInfluenceUnit_ -->
<g id="edge22" class="edge"><title>learningInterestAddSelfInfluence&#45;&gt;minimum_LearningInterestAddSelfInfluenceUnit_</title>
<path fill="none" stroke="#1415cc" stroke-width="3" d="M414.079,-71.6966C412.01,-66.5258 409.662,-60.6556 407.303,-54.7567"/>
<polygon fill="#1415cc" stroke="#1415cc" points="413.769,-52.0741 399.842,-36.1043 400.77,-57.2736 413.769,-52.0741"/>
</g>
<!-- importxyxpotentialInterestGrowthGreaterZeroQueryfunctionszero1 -->
<g id="node29" class="node"><title>importxyxpotentialInterestGrowthGreaterZeroQueryfunctionszero1</title>
<text text-anchor="middle" x="569" y="-300.4" font-family="Helvetica,sans-Serif" font-size="14.00">0</text>
</g>
<!-- importxyxpotentialInterestGrowthGreaterZeroQueryfunctionszero1&#45;&gt;potentialInterestGrowthGreaterZeroQuery -->
<g id="edge26" class="edge"><title>importxyxpotentialInterestGrowthGreaterZeroQueryfunctionszero1&#45;&gt;potentialInterestGrowthGreaterZeroQuery:ne</title>
<path fill="none" stroke="black" stroke-width="2" stroke-dasharray="1,5" d="M556.292,-287.526C549.546,-278.648 540.784,-267.695 531.69,-257.912"/>
<ellipse fill="black" stroke="black" cx="528.774" cy="-254.882" rx="4.00002" ry="4.00002"/>
</g>
<!-- importxyxminimum_LearningInterestAddSelfInfluenceUnit_functionsunit1 -->
<g id="node35" class="node"><title>importxyxminimum_LearningInterestAddSelfInfluenceUnit_functionsunit1</title>
<text text-anchor="middle" x="493" y="-84.4" font-family="Helvetica,sans-Serif" font-size="14.00">1</text>
</g>
<!-- importxyxminimum_LearningInterestAddSelfInfluenceUnit_functionsunit1&#45;&gt;minimum_LearningInterestAddSelfInfluenceUnit_ -->
<g id="edge36" class="edge"><title>importxyxminimum_LearningInterestAddSelfInfluenceUnit_functionsunit1&#45;&gt;minimum_LearningInterestAddSelfInfluenceUnit_:ne</title>
<path fill="none" stroke="black" stroke-width="2" stroke-dasharray="1,5" d="M465.824,-75.3051C450.773,-66.9402 432.087,-55.2294 416.863,-41.5489"/>
<ellipse fill="black" stroke="black" cx="413.905" cy="-38.7496" rx="4.00002" ry="4.00002"/>
</g>
</g>
</svg>
