<?xml version="1.0" encoding="UTF-8" standalone="no"?>
<!DOCTYPE svg PUBLIC "-//W3C//DTD SVG 1.1//EN"
 "http://www.w3.org/Graphics/SVG/1.1/DTD/svg11.dtd">
<!-- Generated by graphviz version 2.29.20110702.0445 (20110702.0445)
 -->
<!-- Title: guidedGrowth Pages: 1 -->
<svg width="594pt" height="433pt"
 viewBox="0.00 0.00 594.00 433.00" xmlns="http://www.w3.org/2000/svg" xmlns:xlink="http://www.w3.org/1999/xlink">
<g id="graph1" class="graph" transform="scale(1 1) rotate(0) translate(4 429)">
<title>guidedGrowth</title>
<polygon fill="white" stroke="white" points="-4,5 -4,-429 591,-429 591,5 -4,5"/>
<g id="graph2" class="cluster"><title>clustercontextKey</title>
<polygon fill="ghostwhite" stroke="white" points="8,-363 8,-417 96,-417 96,-363 8,-363"/>
<text text-anchor="middle" x="52.1792" y="-399" font-family="Helvetica,sans-Serif" font-size="14.00">Parameters</text>
</g>
<g id="graph3" class="cluster"><title>clusterlearnerKey</title>
<polygon fill="ghostwhite" stroke="white" points="104,-363 104,-417 168,-417 168,-363 104,-363"/>
<text text-anchor="middle" x="136.127" y="-399" font-family="Helvetica,sans-Serif" font-size="14.00">Learner</text>
</g>
<g id="graph4" class="cluster"><title>clusterguideKey</title>
<polygon fill="ghostwhite" stroke="white" points="176,-363 176,-417 229,-417 229,-363 176,-363"/>
<text text-anchor="middle" x="202.679" y="-399" font-family="Helvetica,sans-Serif" font-size="14.00">Guide</text>
</g>
<!-- contextOverview -->
<g id="node2" class="node"><title>contextOverview</title>
<ellipse fill="black" stroke="black" cx="52" cy="-378" rx="7.2" ry="7.2"/>
</g>
<!-- guidedGrowthOverview -->
<g id="node4" class="node"><title>guidedGrowthOverview</title>
<a xlink:href="learner__Overview.svg">
<ellipse fill="#cccb14" stroke="#cccb14" cx="136" cy="-378" rx="7.2" ry="7.2"/>
</a>
</g>
<!-- guideOverview -->
<g id="node6" class="node"><title>guideOverview</title>
<a xlink:href="guide__Overview.svg">
<ellipse fill="#7bcc14" stroke="#7bcc14" cx="201" cy="-378" rx="7.2" ry="7.2"/>
</a>
</g>
<!-- guidecontributionTotal -->
<g id="node7" class="node"><title>guidecontributionTotal</title>
<polygon fill="white" stroke="white" points="203.03,-324 78.9704,-324 78.9704,-288 203.03,-288 203.03,-324"/>
<text text-anchor="middle" x="141" y="-300.4" font-family="Helvetica,sans-Serif" font-size="14.00">Contribution Total</text>
</g>
<!-- performanceAddGuideInfluence -->
<g id="node20" class="node"><title>performanceAddGuideInfluence</title>
<polygon fill="#e8ffcc" stroke="#e8ffcc" points="165,-252 135,-252 123,-240 123,-228 135,-216 165,-216 177,-228 177,-240 165,-252"/>
<path fill="#e8ffcc" stroke="#e8ffcc" d="M135,-252C129,-252 123,-246 123,-240"/>
<path fill="#e8ffcc" stroke="#e8ffcc" d="M123,-228C123,-222 129,-216 135,-216"/>
<path fill="#e8ffcc" stroke="#e8ffcc" d="M165,-216C171,-216 177,-222 177,-228"/>
<path fill="#e8ffcc" stroke="#e8ffcc" d="M177,-240C177,-246 171,-252 165,-252"/>
<polyline fill="none" stroke="#e8ffcc" points="165,-252 135,-252 "/>
<path fill="none" stroke="#e8ffcc" d="M135,-252C129,-252 123,-246 123,-240"/>
<polyline fill="none" stroke="#e8ffcc" points="123,-240 123,-228 "/>
<path fill="none" stroke="#e8ffcc" d="M123,-228C123,-222 129,-216 135,-216"/>
<polyline fill="none" stroke="#e8ffcc" points="135,-216 165,-216 "/>
<path fill="none" stroke="#e8ffcc" d="M165,-216C171,-216 177,-222 177,-228"/>
<polyline fill="none" stroke="#e8ffcc" points="177,-228 177,-240 "/>
<path fill="none" stroke="#e8ffcc" d="M177,-240C177,-246 171,-252 165,-252"/>
<text text-anchor="middle" x="150" y="-228.4" font-family="Helvetica,sans-Serif" font-size="14.00">Add</text>
</g>
<!-- guidecontributionTotal&#45;&gt;performanceAddGuideInfluence -->
<g id="edge27" class="edge"><title>guidecontributionTotal&#45;&gt;performanceAddGuideInfluence:nw</title>
<path fill="none" stroke="#7bcc14" stroke-width="2" stroke-dasharray="1,5" d="M131.44,-287.907C127.439,-278.78 124.392,-267.637 127.656,-258.793"/>
<ellipse fill="#7bcc14" stroke="#7bcc14" cx="129.845" cy="-255.37" rx="4.00002" ry="4.00002"/>
</g>
<!-- learnerlearningInterest -->
<g id="node8" class="node"><title>learnerlearningInterest</title>
<polygon fill="white" stroke="white" points="476.301,-180 355.699,-180 355.699,-144 476.301,-144 476.301,-180"/>
<text text-anchor="middle" x="416" y="-156.4" font-family="Helvetica,sans-Serif" font-size="14.00">Learning Interest</text>
</g>
<!-- potentialInfluence -->
<g id="node16" class="node"><title>potentialInfluence</title>
<polygon fill="#fffecc" stroke="#fffecc" points="349.103,-108 304.897,-108 292.897,-96 292.897,-84 304.897,-72 349.103,-72 361.103,-84 361.103,-96 349.103,-108"/>
<path fill="#fffecc" stroke="#fffecc" d="M304.897,-108C298.897,-108 292.897,-102 292.897,-96"/>
<path fill="#fffecc" stroke="#fffecc" d="M292.897,-84C292.897,-78 298.897,-72 304.897,-72"/>
<path fill="#fffecc" stroke="#fffecc" d="M349.103,-72C355.103,-72 361.103,-78 361.103,-84"/>
<path fill="#fffecc" stroke="#fffecc" d="M361.103,-96C361.103,-102 355.103,-108 349.103,-108"/>
<polyline fill="none" stroke="#fffecc" points="349.103,-108 304.897,-108 "/>
<path fill="none" stroke="#fffecc" d="M304.897,-108C298.897,-108 292.897,-102 292.897,-96"/>
<polyline fill="none" stroke="#fffecc" points="292.897,-96 292.897,-84 "/>
<path fill="none" stroke="#fffecc" d="M292.897,-84C292.897,-78 298.897,-72 304.897,-72"/>
<polyline fill="none" stroke="#fffecc" points="304.897,-72 349.103,-72 "/>
<path fill="none" stroke="#fffecc" d="M349.103,-72C355.103,-72 361.103,-78 361.103,-84"/>
<polyline fill="none" stroke="#fffecc" points="361.103,-84 361.103,-96 "/>
<path fill="none" stroke="#fffecc" d="M361.103,-96C361.103,-102 355.103,-108 349.103,-108"/>
<text text-anchor="middle" x="327" y="-84.4" font-family="Helvetica,sans-Serif" font-size="14.00">Subtract</text>
</g>
<!-- learnerlearningInterest&#45;&gt;potentialInfluence -->
<g id="edge25" class="edge"><title>learnerlearningInterest&#45;&gt;potentialInfluence:ne</title>
<path fill="none" stroke="#cccb14" stroke-width="2" stroke-dasharray="1,5" d="M389.254,-143.781C377.255,-135.492 363.077,-124.905 350.836,-113.6"/>
<ellipse fill="#cccb14" stroke="#cccb14" cx="347.886" cy="-110.77" rx="4.00002" ry="4.00002"/>
</g>
<!-- newInterestLevel -->
<g id="node22" class="node"><title>newInterestLevel</title>
<polygon fill="#fffecc" stroke="#fffecc" points="414,-252 384,-252 372,-240 372,-228 384,-216 414,-216 426,-228 426,-240 414,-252"/>
<path fill="#fffecc" stroke="#fffecc" d="M384,-252C378,-252 372,-246 372,-240"/>
<path fill="#fffecc" stroke="#fffecc" d="M372,-228C372,-222 378,-216 384,-216"/>
<path fill="#fffecc" stroke="#fffecc" d="M414,-216C420,-216 426,-222 426,-228"/>
<path fill="#fffecc" stroke="#fffecc" d="M426,-240C426,-246 420,-252 414,-252"/>
<polyline fill="none" stroke="#fffecc" points="414,-252 384,-252 "/>
<path fill="none" stroke="#fffecc" d="M384,-252C378,-252 372,-246 372,-240"/>
<polyline fill="none" stroke="#fffecc" points="372,-240 372,-228 "/>
<path fill="none" stroke="#fffecc" d="M372,-228C372,-222 378,-216 384,-216"/>
<polyline fill="none" stroke="#fffecc" points="384,-216 414,-216 "/>
<path fill="none" stroke="#fffecc" d="M414,-216C420,-216 426,-222 426,-228"/>
<polyline fill="none" stroke="#fffecc" points="426,-228 426,-240 "/>
<path fill="none" stroke="#fffecc" d="M426,-240C426,-246 420,-252 414,-252"/>
<text text-anchor="middle" x="399" y="-228.4" font-family="Helvetica,sans-Serif" font-size="14.00">Add</text>
</g>
<!-- learnerlearningInterest&#45;&gt;newInterestLevel -->
<g id="edge31" class="edge"><title>learnerlearningInterest&#45;&gt;newInterestLevel:nw</title>
<path fill="none" stroke="#cccb14" stroke-width="2" stroke-dasharray="1,5" d="M396.526,-180.082C387.179,-189.597 376.954,-202.277 372,-216 354.081,-265.637 360.139,-271.287 375.109,-258.499"/>
<ellipse fill="#cccb14" stroke="#cccb14" cx="378.076" cy="-255.729" rx="4.00002" ry="4.00002"/>
</g>
<!-- guideefficacy -->
<g id="node9" class="node"><title>guideefficacy</title>
<polygon fill="white" stroke="white" points="298.26,-180 233.74,-180 233.74,-144 298.26,-144 298.26,-180"/>
<text text-anchor="middle" x="266" y="-156.4" font-family="Helvetica,sans-Serif" font-size="14.00">Efficacy</text>
</g>
<!-- guideefficacy&#45;&gt;potentialInfluence -->
<g id="edge23" class="edge"><title>guideefficacy&#45;&gt;potentialInfluence:nw</title>
<path fill="none" stroke="#7bcc14" stroke-width="2" stroke-dasharray="1,5" d="M278.708,-143.526C285.454,-134.648 294.216,-123.695 303.31,-113.912"/>
<ellipse fill="#7bcc14" stroke="#7bcc14" cx="306.226" cy="-110.882" rx="4.00002" ry="4.00002"/>
</g>
<!-- socialResourcesguideContributionRate -->
<g id="node10" class="node"><title>socialResourcesguideContributionRate</title>
<polygon fill="white" stroke="white" points="404.25,-396 237.75,-396 237.75,-360 404.25,-360 404.25,-396"/>
<text text-anchor="start" x="246" y="-372.5" font-family="Helvetica,sans-Serif" font-size="14.00">Guide Contribution Rate</text>
</g>
<!-- guideInfluence -->
<g id="node25" class="node"><title>guideInfluence</title>
<polygon fill="#fffecc" stroke="#fffecc" points="322.59,-324 283.41,-324 271.41,-312 271.41,-300 283.41,-288 322.59,-288 334.59,-300 334.59,-312 322.59,-324"/>
<path fill="#fffecc" stroke="#fffecc" d="M283.41,-324C277.41,-324 271.41,-318 271.41,-312"/>
<path fill="#fffecc" stroke="#fffecc" d="M271.41,-300C271.41,-294 277.41,-288 283.41,-288"/>
<path fill="#fffecc" stroke="#fffecc" d="M322.59,-288C328.59,-288 334.59,-294 334.59,-300"/>
<path fill="#fffecc" stroke="#fffecc" d="M334.59,-312C334.59,-318 328.59,-324 322.59,-324"/>
<polyline fill="none" stroke="#fffecc" points="322.59,-324 283.41,-324 "/>
<path fill="none" stroke="#fffecc" d="M283.41,-324C277.41,-324 271.41,-318 271.41,-312"/>
<polyline fill="none" stroke="#fffecc" points="271.41,-312 271.41,-300 "/>
<path fill="none" stroke="#fffecc" d="M271.41,-300C271.41,-294 277.41,-288 283.41,-288"/>
<polyline fill="none" stroke="#fffecc" points="283.41,-288 322.59,-288 "/>
<path fill="none" stroke="#fffecc" d="M322.59,-288C328.59,-288 334.59,-294 334.59,-300"/>
<polyline fill="none" stroke="#fffecc" points="334.59,-300 334.59,-312 "/>
<path fill="none" stroke="#fffecc" d="M334.59,-312C334.59,-318 328.59,-324 322.59,-324"/>
<text text-anchor="middle" x="303" y="-300.4" font-family="Helvetica,sans-Serif" font-size="14.00">Multiply</text>
</g>
<!-- socialResourcesguideContributionRate&#45;&gt;guideInfluence -->
<g id="edge39" class="edge"><title>socialResourcesguideContributionRate&#45;&gt;guideInfluence:ne</title>
<path fill="none" stroke="black" stroke-width="2" stroke-dasharray="1,5" d="M326.611,-359.826C328.677,-350.67 329.65,-339.513 325.633,-330.727"/>
<ellipse fill="black" stroke="black" cx="323.269" cy="-327.294" rx="4.00002" ry="4.00002"/>
</g>
<!-- guidedGrowth -->
<g id="node11" class="node"><title>guidedGrowth</title>
<a xlink:href="learner_guidedGrowth.svg" xlink:title="Guided Growth">
<polygon fill="#fffecc" stroke="#fffecc" points="574.119,-324 487.881,-324 475.881,-312 475.881,-300 487.881,-288 574.119,-288 586.119,-300 586.119,-312 574.119,-324"/>
<path fill="#fffecc" stroke="#fffecc" d="M487.881,-324C481.881,-324 475.881,-318 475.881,-312"/>
<path fill="#fffecc" stroke="#fffecc" d="M475.881,-300C475.881,-294 481.881,-288 487.881,-288"/>
<path fill="#fffecc" stroke="#fffecc" d="M574.119,-288C580.119,-288 586.119,-294 586.119,-300"/>
<path fill="#fffecc" stroke="#fffecc" d="M586.119,-312C586.119,-318 580.119,-324 574.119,-324"/>
<polyline fill="none" stroke="black" points="574.119,-324 487.881,-324 "/>
<path fill="none" stroke="black" d="M487.881,-324C481.881,-324 475.881,-318 475.881,-312"/>
<polyline fill="none" stroke="black" points="475.881,-312 475.881,-300 "/>
<path fill="none" stroke="black" d="M475.881,-300C475.881,-294 481.881,-288 487.881,-288"/>
<polyline fill="none" stroke="black" points="487.881,-288 574.119,-288 "/>
<path fill="none" stroke="black" d="M574.119,-288C580.119,-288 586.119,-294 586.119,-300"/>
<polyline fill="none" stroke="black" points="586.119,-300 586.119,-312 "/>
<path fill="none" stroke="black" d="M586.119,-312C586.119,-318 580.119,-324 574.119,-324"/>
<text text-anchor="middle" x="531" y="-300.4" font-family="Helvetica,sans-Serif" font-size="14.00">Guided Growth</text>
</a>
</g>
<!-- guide -->
<g id="node13" class="node"><title>guide</title>
<polygon fill="#e8ffcc" stroke="#e8ffcc" points="546,-252 516,-252 504,-240 504,-228 516,-216 546,-216 558,-228 558,-240 546,-252"/>
<path fill="#e8ffcc" stroke="#e8ffcc" d="M516,-252C510,-252 504,-246 504,-240"/>
<path fill="#e8ffcc" stroke="#e8ffcc" d="M504,-228C504,-222 510,-216 516,-216"/>
<path fill="#e8ffcc" stroke="#e8ffcc" d="M546,-216C552,-216 558,-222 558,-228"/>
<path fill="#e8ffcc" stroke="#e8ffcc" d="M558,-240C558,-246 552,-252 546,-252"/>
<polyline fill="none" stroke="gray" points="546,-252 516,-252 "/>
<path fill="none" stroke="gray" d="M516,-252C510,-252 504,-246 504,-240"/>
<polyline fill="none" stroke="gray" points="504,-240 504,-228 "/>
<path fill="none" stroke="gray" d="M504,-228C504,-222 510,-216 516,-216"/>
<polyline fill="none" stroke="gray" points="516,-216 546,-216 "/>
<path fill="none" stroke="gray" d="M546,-216C552,-216 558,-222 558,-228"/>
<polyline fill="none" stroke="gray" points="558,-228 558,-240 "/>
<path fill="none" stroke="gray" d="M558,-240C558,-246 552,-252 546,-252"/>
<text text-anchor="middle" x="531" y="-228.4" font-family="Helvetica,sans-Serif" font-size="14.00">Guide</text>
</g>
<!-- guidedGrowth&#45;&gt;guide -->
<g id="edge5" class="edge"><title>guidedGrowth&#45;&gt;guide</title>
<path fill="none" stroke="#cccb14" stroke-width="3" d="M531,-287.697C531,-282.95 531,-277.613 531,-272.206"/>
<polygon fill="#cccb14" stroke="#cccb14" points="538,-272.104 531,-252.104 524,-272.104 538,-272.104"/>
</g>
<!-- neighborQuery -->
<g id="node14" class="node"><title>neighborQuery</title>
<polygon fill="#e8ffcc" stroke="#e8ffcc" points="555.111,-180 506.889,-180 494.889,-168 494.889,-156 506.889,-144 555.111,-144 567.111,-156 567.111,-168 555.111,-180"/>
<path fill="#e8ffcc" stroke="#e8ffcc" d="M506.889,-180C500.889,-180 494.889,-174 494.889,-168"/>
<path fill="#e8ffcc" stroke="#e8ffcc" d="M494.889,-156C494.889,-150 500.889,-144 506.889,-144"/>
<path fill="#e8ffcc" stroke="#e8ffcc" d="M555.111,-144C561.111,-144 567.111,-150 567.111,-156"/>
<path fill="#e8ffcc" stroke="#e8ffcc" d="M567.111,-168C567.111,-174 561.111,-180 555.111,-180"/>
<polyline fill="none" stroke="#e8ffcc" points="555.111,-180 506.889,-180 "/>
<path fill="none" stroke="#e8ffcc" d="M506.889,-180C500.889,-180 494.889,-174 494.889,-168"/>
<polyline fill="none" stroke="#e8ffcc" points="494.889,-168 494.889,-156 "/>
<path fill="none" stroke="#e8ffcc" d="M494.889,-156C494.889,-150 500.889,-144 506.889,-144"/>
<polyline fill="none" stroke="#e8ffcc" points="506.889,-144 555.111,-144 "/>
<path fill="none" stroke="#e8ffcc" d="M555.111,-144C561.111,-144 567.111,-150 567.111,-156"/>
<polyline fill="none" stroke="#e8ffcc" points="567.111,-156 567.111,-168 "/>
<path fill="none" stroke="#e8ffcc" d="M567.111,-168C567.111,-174 561.111,-180 555.111,-180"/>
<text text-anchor="middle" x="531" y="-156.4" font-family="Helvetica,sans-Serif" font-size="14.00">Neighbor</text>
</g>
<!-- guide&#45;&gt;neighborQuery -->
<g id="edge11" class="edge"><title>guide&#45;&gt;neighborQuery</title>
<path fill="none" stroke="#7bcc14" stroke-width="3" d="M531,-215.697C531,-210.95 531,-205.613 531,-200.206"/>
<polygon fill="#7bcc14" stroke="#7bcc14" points="538,-200.104 531,-180.104 524,-200.104 538,-200.104"/>
</g>
<!-- neighborQuery&#45;&gt;potentialInfluence -->
<g id="edge7" class="edge"><title>neighborQuery&#45;&gt;potentialInfluence</title>
<path fill="none" stroke="#7bcc14" stroke-width="3" d="M494.652,-147.374C491.395,-146.212 488.143,-145.072 485,-144 440.25,-128.738 424.237,-126.283 380.292,-111.412"/>
<polygon fill="#7bcc14" stroke="#7bcc14" points="382.372,-104.725 361.182,-104.775 377.778,-117.95 382.372,-104.725"/>
</g>
<!-- potentialInfluenceGreaterZeroQuery -->
<g id="node18" class="node"><title>potentialInfluenceGreaterZeroQuery</title>
<polygon fill="#fffecc" stroke="#fffecc" points="359.435,-36 312.565,-36 300.565,-24 300.565,-12 312.565,-0 359.435,-0 371.435,-12 371.435,-24 359.435,-36"/>
<path fill="#fffecc" stroke="#fffecc" d="M312.565,-36C306.565,-36 300.565,-30 300.565,-24"/>
<path fill="#fffecc" stroke="#fffecc" d="M300.565,-12C300.565,-6 306.565,-0 312.565,-0"/>
<path fill="#fffecc" stroke="#fffecc" d="M359.435,-0C365.435,-0 371.435,-6 371.435,-12"/>
<path fill="#fffecc" stroke="#fffecc" d="M371.435,-24C371.435,-30 365.435,-36 359.435,-36"/>
<polyline fill="none" stroke="#fffecc" points="359.435,-36 312.565,-36 "/>
<path fill="none" stroke="#fffecc" d="M312.565,-36C306.565,-36 300.565,-30 300.565,-24"/>
<polyline fill="none" stroke="#fffecc" points="300.565,-24 300.565,-12 "/>
<path fill="none" stroke="#fffecc" d="M300.565,-12C300.565,-6 306.565,-0 312.565,-0"/>
<polyline fill="none" stroke="#fffecc" points="312.565,-0 359.435,-0 "/>
<path fill="none" stroke="#fffecc" d="M359.435,-0C365.435,-0 371.435,-6 371.435,-12"/>
<polyline fill="none" stroke="#fffecc" points="371.435,-12 371.435,-24 "/>
<path fill="none" stroke="#fffecc" d="M371.435,-24C371.435,-30 365.435,-36 359.435,-36"/>
<text text-anchor="middle" x="336" y="-12.4" font-family="Helvetica,sans-Serif" font-size="14.00">Greater?</text>
</g>
<!-- potentialInfluence&#45;&gt;potentialInfluenceGreaterZeroQuery -->
<g id="edge35" class="edge"><title>potentialInfluence&#45;&gt;potentialInfluenceGreaterZeroQuery:nw</title>
<path fill="none" stroke="blue" stroke-width="2" stroke-dasharray="1,5" d="M317.44,-71.9068C313.439,-62.7796 310.392,-51.6371 313.656,-42.7934"/>
<ellipse fill="blue" stroke="blue" cx="315.845" cy="-39.37" rx="4.00002" ry="4.00002"/>
</g>
<!-- potentialInfluence&#45;&gt;potentialInfluenceGreaterZeroQuery -->
<g id="edge9" class="edge"><title>potentialInfluence&#45;&gt;potentialInfluenceGreaterZeroQuery</title>
<path fill="none" stroke="#cccb14" stroke-width="3" d="M329.225,-71.6966C329.835,-66.9496 330.521,-61.6132 331.216,-56.2063"/>
<polygon fill="#cccb14" stroke="#cccb14" points="338.193,-56.8337 333.801,-36.1043 324.307,-55.0484 338.193,-56.8337"/>
</g>
<!-- potentialInfluence&#45;&gt;guideInfluence -->
<g id="edge41" class="edge"><title>potentialInfluence&#45;&gt;guideInfluence:nw</title>
<path fill="none" stroke="blue" stroke-width="2" stroke-dasharray="1,5" d="M323.661,-108.186C320.039,-126.203 313.85,-155.276 307,-180 293.502,-228.723 279.314,-238.085 271.272,-288 267.773,-309.72 266.624,-335.636 278.558,-329.96"/>
<ellipse fill="blue" stroke="blue" cx="281.83" cy="-327.44" rx="4.00002" ry="4.00002"/>
</g>
<!-- potentialInfluenceGreaterZeroQuery&#45;&gt;guideInfluence -->
<g id="edge17" class="edge"><title>potentialInfluenceGreaterZeroQuery&#45;&gt;guideInfluence</title>
<path fill="none" stroke="#cccb14" stroke-width="3" d="M312.282,-36.0733C284.719,-57.5841 240.863,-97.4236 224,-144 207.212,-190.369 241.44,-240.992 269.981,-272.854"/>
<polygon fill="#cccb14" stroke="#cccb14" points="265.232,-278.018 284.088,-287.684 275.376,-268.368 265.232,-278.018"/>
</g>
<!-- performanceAddGuideInfluence&#45;&gt;guidecontributionTotal -->
<g id="edge13" class="edge"><title>performanceAddGuideInfluence&#45;&gt;guidecontributionTotal</title>
<path fill="none" stroke="#7bcc14" stroke-width="3" d="M147.801,-252.104C147.182,-256.919 146.483,-262.352 145.776,-267.856"/>
<polygon fill="#7bcc14" stroke="#7bcc14" points="138.832,-266.967 143.225,-287.697 152.718,-268.753 138.832,-266.967"/>
</g>
<!-- newInterestLevel&#45;&gt;learnerlearningInterest -->
<g id="edge15" class="edge"><title>newInterestLevel&#45;&gt;learnerlearningInterest</title>
<path fill="none" stroke="#cccb14" stroke-width="3" d="M403.202,-215.697C404.396,-210.78 405.744,-205.231 407.105,-199.627"/>
<polygon fill="#cccb14" stroke="#cccb14" points="413.928,-201.191 411.846,-180.104 400.324,-197.887 413.928,-201.191"/>
</g>
<!-- guideInfluence&#45;&gt;performanceAddGuideInfluence -->
<g id="edge29" class="edge"><title>guideInfluence&#45;&gt;performanceAddGuideInfluence:ne</title>
<path fill="none" stroke="blue" stroke-width="2" stroke-dasharray="1,5" d="M271.45,-300.073C243.369,-294.252 202.478,-282.095 174.191,-257.738"/>
<ellipse fill="blue" stroke="blue" cx="170.934" cy="-254.719" rx="4.00002" ry="4.00002"/>
</g>
<!-- guideInfluence&#45;&gt;performanceAddGuideInfluence -->
<g id="edge19" class="edge"><title>guideInfluence&#45;&gt;performanceAddGuideInfluence</title>
<path fill="none" stroke="#cccb14" stroke-width="3" d="M271.298,-290.496C249.335,-280.448 219.766,-266.919 195.321,-255.735"/>
<polygon fill="#cccb14" stroke="#cccb14" points="198.158,-249.335 177.059,-247.38 192.333,-262.066 198.158,-249.335"/>
</g>
<!-- guideInfluence&#45;&gt;newInterestLevel -->
<g id="edge33" class="edge"><title>guideInfluence&#45;&gt;newInterestLevel:ne</title>
<path fill="none" stroke="blue" stroke-width="2" stroke-dasharray="1,5" d="M334.522,-301.105C373.639,-295.222 433.85,-282.17 421.977,-258.579"/>
<ellipse fill="blue" stroke="blue" cx="419.413" cy="-255.19" rx="4.00002" ry="4.00002"/>
</g>
<!-- guideInfluence&#45;&gt;newInterestLevel -->
<g id="edge21" class="edge"><title>guideInfluence&#45;&gt;newInterestLevel</title>
<path fill="none" stroke="#cccb14" stroke-width="3" d="M326.73,-287.697C336.496,-280.576 348.08,-272.129 359.081,-264.108"/>
<polygon fill="#cccb14" stroke="#cccb14" points="363.507,-269.544 375.543,-252.104 355.258,-258.232 363.507,-269.544"/>
</g>
<!-- importxyxpotentialInfluenceGreaterZeroQueryfunctionszero1 -->
<g id="node35" class="node"><title>importxyxpotentialInfluenceGreaterZeroQueryfunctionszero1</title>
<text text-anchor="middle" x="406" y="-84.4" font-family="Helvetica,sans-Serif" font-size="14.00">0</text>
</g>
<!-- importxyxpotentialInfluenceGreaterZeroQueryfunctionszero1&#45;&gt;potentialInfluenceGreaterZeroQuery -->
<g id="edge37" class="edge"><title>importxyxpotentialInfluenceGreaterZeroQueryfunctionszero1&#45;&gt;potentialInfluenceGreaterZeroQuery:ne</title>
<path fill="none" stroke="black" stroke-width="2" stroke-dasharray="1,5" d="M389.221,-71.7326C380.739,-63.0381 370.106,-52.1904 359.924,-41.9432"/>
<ellipse fill="black" stroke="black" cx="356.824" cy="-38.8331" rx="4.00002" ry="4.00002"/>
</g>
</g>
</svg>
