<?xml version="1.0" encoding="UTF-8" standalone="no"?>
<!DOCTYPE svg PUBLIC "-//W3C//DTD SVG 1.1//EN"
 "http://www.w3.org/Graphics/SVG/1.1/DTD/svg11.dtd">
<!-- Generated by graphviz version 2.29.20110702.0445 (20110702.0445)
 -->
<!-- Title: selfDirectedGrowth Pages: 1 -->
<svg width="879pt" height="649pt"
 viewBox="0.00 0.00 879.00 649.00" xmlns="http://www.w3.org/2000/svg" xmlns:xlink="http://www.w3.org/1999/xlink">
<g id="graph1" class="graph" transform="scale(1 1) rotate(0) translate(4 645)">
<title>selfDirectedGrowth</title>
<polygon fill="white" stroke="white" points="-4,5 -4,-645 876,-645 876,5 -4,5"/>
<g id="graph2" class="cluster"><title>clustercontextKey</title>
<polygon fill="ghostwhite" stroke="white" points="8,-579 8,-633 96,-633 96,-579 8,-579"/>
<text text-anchor="middle" x="52.1792" y="-615" font-family="Helvetica,sans-Serif" font-size="14.00">Parameters</text>
</g>
<g id="graph3" class="cluster"><title>clusterlearnerKey</title>
<polygon fill="ghostwhite" stroke="white" points="104,-579 104,-633 168,-633 168,-579 104,-579"/>
<text text-anchor="middle" x="136.127" y="-615" font-family="Helvetica,sans-Serif" font-size="14.00">Learner</text>
</g>
<!-- contextOverview -->
<g id="node2" class="node"><title>contextOverview</title>
<ellipse fill="black" stroke="black" cx="52" cy="-594" rx="7.2" ry="7.2"/>
</g>
<!-- selfDirectedGrowthOverview -->
<g id="node4" class="node"><title>selfDirectedGrowthOverview</title>
<a xlink:href="learner__Overview.svg">
<ellipse fill="#1415cc" stroke="#1415cc" cx="135" cy="-594" rx="7.2" ry="7.2"/>
</a>
</g>
<!-- socialResourcesselfContributionRate -->
<g id="node5" class="node"><title>socialResourcesselfContributionRate</title>
<polygon fill="white" stroke="white" points="329.25,-612 176.75,-612 176.75,-576 329.25,-576 329.25,-612"/>
<text text-anchor="start" x="185" y="-588.5" font-family="Helvetica,sans-Serif" font-size="14.00">Self Contribution Rate</text>
</g>
<!-- selfInfluence -->
<g id="node14" class="node"><title>selfInfluence</title>
<polygon fill="#ccccff" stroke="#ccccff" points="254.59,-540 215.41,-540 203.41,-528 203.41,-516 215.41,-504 254.59,-504 266.59,-516 266.59,-528 254.59,-540"/>
<path fill="#ccccff" stroke="#ccccff" d="M215.41,-540C209.41,-540 203.41,-534 203.41,-528"/>
<path fill="#ccccff" stroke="#ccccff" d="M203.41,-516C203.41,-510 209.41,-504 215.41,-504"/>
<path fill="#ccccff" stroke="#ccccff" d="M254.59,-504C260.59,-504 266.59,-510 266.59,-516"/>
<path fill="#ccccff" stroke="#ccccff" d="M266.59,-528C266.59,-534 260.59,-540 254.59,-540"/>
<polyline fill="none" stroke="#ccccff" points="254.59,-540 215.41,-540 "/>
<path fill="none" stroke="#ccccff" d="M215.41,-540C209.41,-540 203.41,-534 203.41,-528"/>
<polyline fill="none" stroke="#ccccff" points="203.41,-528 203.41,-516 "/>
<path fill="none" stroke="#ccccff" d="M203.41,-516C203.41,-510 209.41,-504 215.41,-504"/>
<polyline fill="none" stroke="#ccccff" points="215.41,-504 254.59,-504 "/>
<path fill="none" stroke="#ccccff" d="M254.59,-504C260.59,-504 266.59,-510 266.59,-516"/>
<polyline fill="none" stroke="#ccccff" points="266.59,-516 266.59,-528 "/>
<path fill="none" stroke="#ccccff" d="M266.59,-528C266.59,-534 260.59,-540 254.59,-540"/>
<text text-anchor="middle" x="235" y="-516.4" font-family="Helvetica,sans-Serif" font-size="14.00">Multiply</text>
</g>
<!-- socialResourcesselfContributionRate&#45;&gt;selfInfluence -->
<g id="edge32" class="edge"><title>socialResourcesselfContributionRate&#45;&gt;selfInfluence:ne</title>
<path fill="none" stroke="black" stroke-width="2" stroke-dasharray="1,5" d="M258.611,-575.826C260.677,-566.67 261.65,-555.513 257.633,-546.727"/>
<ellipse fill="black" stroke="black" cx="255.269" cy="-543.294" rx="4.00002" ry="4.00002"/>
</g>
<!-- learnerlearningInterest -->
<g id="node6" class="node"><title>learnerlearningInterest</title>
<polygon fill="white" stroke="white" points="471.301,-180 350.699,-180 350.699,-144 471.301,-144 471.301,-180"/>
<text text-anchor="middle" x="411" y="-156.4" font-family="Helvetica,sans-Serif" font-size="14.00">Learning Interest</text>
</g>
<!-- potentialInterestGrowth -->
<g id="node11" class="node"><title>potentialInterestGrowth</title>
<polygon fill="#ccccff" stroke="#ccccff" points="451.103,-108 406.897,-108 394.897,-96 394.897,-84 406.897,-72 451.103,-72 463.103,-84 463.103,-96 451.103,-108"/>
<path fill="#ccccff" stroke="#ccccff" d="M406.897,-108C400.897,-108 394.897,-102 394.897,-96"/>
<path fill="#ccccff" stroke="#ccccff" d="M394.897,-84C394.897,-78 400.897,-72 406.897,-72"/>
<path fill="#ccccff" stroke="#ccccff" d="M451.103,-72C457.103,-72 463.103,-78 463.103,-84"/>
<path fill="#ccccff" stroke="#ccccff" d="M463.103,-96C463.103,-102 457.103,-108 451.103,-108"/>
<polyline fill="none" stroke="#ccccff" points="451.103,-108 406.897,-108 "/>
<path fill="none" stroke="#ccccff" d="M406.897,-108C400.897,-108 394.897,-102 394.897,-96"/>
<polyline fill="none" stroke="#ccccff" points="394.897,-96 394.897,-84 "/>
<path fill="none" stroke="#ccccff" d="M394.897,-84C394.897,-78 400.897,-72 406.897,-72"/>
<polyline fill="none" stroke="#ccccff" points="406.897,-72 451.103,-72 "/>
<path fill="none" stroke="#ccccff" d="M451.103,-72C457.103,-72 463.103,-78 463.103,-84"/>
<polyline fill="none" stroke="#ccccff" points="463.103,-84 463.103,-96 "/>
<path fill="none" stroke="#ccccff" d="M463.103,-96C463.103,-102 457.103,-108 451.103,-108"/>
<text text-anchor="middle" x="429" y="-84.4" font-family="Helvetica,sans-Serif" font-size="14.00">Subtract</text>
</g>
<!-- learnerlearningInterest&#45;&gt;potentialInterestGrowth -->
<g id="edge46" class="edge"><title>learnerlearningInterest&#45;&gt;potentialInterestGrowth:nw</title>
<path fill="none" stroke="#1415cc" stroke-width="2" stroke-dasharray="1,5" d="M405.389,-143.826C403.323,-134.67 402.35,-123.513 406.367,-114.727"/>
<ellipse fill="#1415cc" stroke="#1415cc" cx="408.731" cy="-111.294" rx="4.00002" ry="4.00002"/>
</g>
<!-- actualGrowth -->
<g id="node17" class="node"><title>actualGrowth</title>
<polygon fill="#ccccff" stroke="#ccccff" points="348.103,-324 303.897,-324 291.897,-312 291.897,-300 303.897,-288 348.103,-288 360.103,-300 360.103,-312 348.103,-324"/>
<path fill="#ccccff" stroke="#ccccff" d="M303.897,-324C297.897,-324 291.897,-318 291.897,-312"/>
<path fill="#ccccff" stroke="#ccccff" d="M291.897,-300C291.897,-294 297.897,-288 303.897,-288"/>
<path fill="#ccccff" stroke="#ccccff" d="M348.103,-288C354.103,-288 360.103,-294 360.103,-300"/>
<path fill="#ccccff" stroke="#ccccff" d="M360.103,-312C360.103,-318 354.103,-324 348.103,-324"/>
<polyline fill="none" stroke="#ccccff" points="348.103,-324 303.897,-324 "/>
<path fill="none" stroke="#ccccff" d="M303.897,-324C297.897,-324 291.897,-318 291.897,-312"/>
<polyline fill="none" stroke="#ccccff" points="291.897,-312 291.897,-300 "/>
<path fill="none" stroke="#ccccff" d="M291.897,-300C291.897,-294 297.897,-288 303.897,-288"/>
<polyline fill="none" stroke="#ccccff" points="303.897,-288 348.103,-288 "/>
<path fill="none" stroke="#ccccff" d="M348.103,-288C354.103,-288 360.103,-294 360.103,-300"/>
<polyline fill="none" stroke="#ccccff" points="360.103,-300 360.103,-312 "/>
<path fill="none" stroke="#ccccff" d="M360.103,-312C360.103,-318 354.103,-324 348.103,-324"/>
<text text-anchor="middle" x="326" y="-300.4" font-family="Helvetica,sans-Serif" font-size="14.00">Subtract</text>
</g>
<!-- learnerlearningInterest&#45;&gt;actualGrowth -->
<g id="edge50" class="edge"><title>learnerlearningInterest&#45;&gt;actualGrowth:ne</title>
<path fill="none" stroke="#1415cc" stroke-width="2" stroke-dasharray="1,5" d="M396.472,-180.002C388.833,-189.876 380.033,-202.92 375,-216 357.596,-261.228 395.537,-291.052 360,-324 357.224,-326.573 354.304,-328.117 351.421,-328.243"/>
<ellipse fill="#1415cc" stroke="#1415cc" cx="347.665" cy="-326.602" rx="4.00002" ry="4.00002"/>
</g>
<!-- learningInterestAddSelfInfluence -->
<g id="node19" class="node"><title>learningInterestAddSelfInfluence</title>
<polygon fill="#ccccff" stroke="#ccccff" points="278,-468 248,-468 236,-456 236,-444 248,-432 278,-432 290,-444 290,-456 278,-468"/>
<path fill="#ccccff" stroke="#ccccff" d="M248,-468C242,-468 236,-462 236,-456"/>
<path fill="#ccccff" stroke="#ccccff" d="M236,-444C236,-438 242,-432 248,-432"/>
<path fill="#ccccff" stroke="#ccccff" d="M278,-432C284,-432 290,-438 290,-444"/>
<path fill="#ccccff" stroke="#ccccff" d="M290,-456C290,-462 284,-468 278,-468"/>
<polyline fill="none" stroke="#ccccff" points="278,-468 248,-468 "/>
<path fill="none" stroke="#ccccff" d="M248,-468C242,-468 236,-462 236,-456"/>
<polyline fill="none" stroke="#ccccff" points="236,-456 236,-444 "/>
<path fill="none" stroke="#ccccff" d="M236,-444C236,-438 242,-432 248,-432"/>
<polyline fill="none" stroke="#ccccff" points="248,-432 278,-432 "/>
<path fill="none" stroke="#ccccff" d="M278,-432C284,-432 290,-438 290,-444"/>
<polyline fill="none" stroke="#ccccff" points="290,-444 290,-456 "/>
<path fill="none" stroke="#ccccff" d="M290,-456C290,-462 284,-468 278,-468"/>
<text text-anchor="middle" x="263" y="-444.4" font-family="Helvetica,sans-Serif" font-size="14.00">Add</text>
</g>
<!-- learnerlearningInterest&#45;&gt;learningInterestAddSelfInfluence -->
<g id="edge36" class="edge"><title>learnerlearningInterest&#45;&gt;learningInterestAddSelfInfluence:nw</title>
<path fill="none" stroke="#1415cc" stroke-width="2" stroke-dasharray="1,5" d="M350.458,-178.163C315.509,-188.171 276.29,-201.982 265,-216 204.244,-291.437 242.459,-335.354 236,-432 233.928,-463.008 231.531,-477.687 238.532,-474.275"/>
<ellipse fill="#1415cc" stroke="#1415cc" cx="241.9" cy="-471.528" rx="4.00002" ry="4.00002"/>
</g>
<!-- learnerselfContribution -->
<g id="node7" class="node"><title>learnerselfContribution</title>
<polygon fill="white" stroke="white" points="332.13,-180 213.87,-180 213.87,-144 332.13,-144 332.13,-180"/>
<text text-anchor="middle" x="273" y="-156.4" font-family="Helvetica,sans-Serif" font-size="14.00">Self Contribution</text>
</g>
<!-- selfContributionAddActualGrowth -->
<g id="node21" class="node"><title>selfContributionAddActualGrowth</title>
<polygon fill="#ccccff" stroke="#ccccff" points="316,-252 286,-252 274,-240 274,-228 286,-216 316,-216 328,-228 328,-240 316,-252"/>
<path fill="#ccccff" stroke="#ccccff" d="M286,-252C280,-252 274,-246 274,-240"/>
<path fill="#ccccff" stroke="#ccccff" d="M274,-228C274,-222 280,-216 286,-216"/>
<path fill="#ccccff" stroke="#ccccff" d="M316,-216C322,-216 328,-222 328,-228"/>
<path fill="#ccccff" stroke="#ccccff" d="M328,-240C328,-246 322,-252 316,-252"/>
<polyline fill="none" stroke="#ccccff" points="316,-252 286,-252 "/>
<path fill="none" stroke="#ccccff" d="M286,-252C280,-252 274,-246 274,-240"/>
<polyline fill="none" stroke="#ccccff" points="274,-240 274,-228 "/>
<path fill="none" stroke="#ccccff" d="M274,-228C274,-222 280,-216 286,-216"/>
<polyline fill="none" stroke="#ccccff" points="286,-216 316,-216 "/>
<path fill="none" stroke="#ccccff" d="M316,-216C322,-216 328,-222 328,-228"/>
<polyline fill="none" stroke="#ccccff" points="328,-228 328,-240 "/>
<path fill="none" stroke="#ccccff" d="M328,-240C328,-246 322,-252 316,-252"/>
<text text-anchor="middle" x="301" y="-228.4" font-family="Helvetica,sans-Serif" font-size="14.00">Add</text>
</g>
<!-- learnerselfContribution&#45;&gt;selfContributionAddActualGrowth -->
<g id="edge40" class="edge"><title>learnerselfContribution&#45;&gt;selfContributionAddActualGrowth:nw</title>
<path fill="none" stroke="#1415cc" stroke-width="2" stroke-dasharray="1,5" d="M270.681,-180.075C267.295,-207.8 262.755,-259.351 276.12,-257.358"/>
<ellipse fill="#1415cc" stroke="#1415cc" cx="279.621" cy="-255.14" rx="4.00002" ry="4.00002"/>
</g>
<!-- socialResourcesminimumSelfContributionLevel -->
<g id="node8" class="node"><title>socialResourcesminimumSelfContributionLevel</title>
<polygon fill="white" stroke="white" points="871,-180 653,-180 653,-144 871,-144 871,-180"/>
<text text-anchor="start" x="661.5" y="-156.5" font-family="Helvetica,sans-Serif" font-size="14.00">Minimum Self Contribution Level</text>
</g>
<!-- socialResourcesminimumSelfContributionLevel&#45;&gt;potentialInterestGrowth -->
<g id="edge48" class="edge"><title>socialResourcesminimumSelfContributionLevel&#45;&gt;potentialInterestGrowth:ne</title>
<path fill="none" stroke="black" stroke-width="2" stroke-dasharray="1,5" d="M652.752,-144.123C575.849,-132.044 481.948,-116.826 454.672,-110.398"/>
<ellipse fill="black" stroke="black" cx="450.818" cy="-109.193" rx="4.00001" ry="4.00001"/>
</g>
<!-- selfDirectedGrowth -->
<g id="node9" class="node"><title>selfDirectedGrowth</title>
<a xlink:href="learner_selfDirectedGrowth.svg" xlink:title="Self Directed Growth">
<polygon fill="#ccccff" stroke="#ccccff" points="622.368,-180 501.632,-180 489.632,-168 489.632,-156 501.632,-144 622.368,-144 634.368,-156 634.368,-168 622.368,-180"/>
<path fill="#ccccff" stroke="#ccccff" d="M501.632,-180C495.632,-180 489.632,-174 489.632,-168"/>
<path fill="#ccccff" stroke="#ccccff" d="M489.632,-156C489.632,-150 495.632,-144 501.632,-144"/>
<path fill="#ccccff" stroke="#ccccff" d="M622.368,-144C628.368,-144 634.368,-150 634.368,-156"/>
<path fill="#ccccff" stroke="#ccccff" d="M634.368,-168C634.368,-174 628.368,-180 622.368,-180"/>
<polyline fill="none" stroke="black" points="622.368,-180 501.632,-180 "/>
<path fill="none" stroke="black" d="M501.632,-180C495.632,-180 489.632,-174 489.632,-168"/>
<polyline fill="none" stroke="black" points="489.632,-168 489.632,-156 "/>
<path fill="none" stroke="black" d="M489.632,-156C489.632,-150 495.632,-144 501.632,-144"/>
<polyline fill="none" stroke="black" points="501.632,-144 622.368,-144 "/>
<path fill="none" stroke="black" d="M622.368,-144C628.368,-144 634.368,-150 634.368,-156"/>
<polyline fill="none" stroke="black" points="634.368,-156 634.368,-168 "/>
<path fill="none" stroke="black" d="M634.368,-168C634.368,-174 628.368,-180 622.368,-180"/>
<text text-anchor="middle" x="562" y="-156.4" font-family="Helvetica,sans-Serif" font-size="14.00">Self Directed Growth</text>
</a>
</g>
<!-- selfDirectedGrowth&#45;&gt;potentialInterestGrowth -->
<g id="edge4" class="edge"><title>selfDirectedGrowth&#45;&gt;potentialInterestGrowth</title>
<path fill="none" stroke="#1415cc" stroke-width="3" d="M529.465,-143.876C514.41,-135.952 496.18,-126.358 479.404,-117.528"/>
<polygon fill="#1415cc" stroke="#1415cc" points="482.619,-111.31 461.661,-108.19 476.099,-123.699 482.619,-111.31"/>
</g>
<!-- potentialInterestGrowthGreaterZeroQuery -->
<g id="node12" class="node"><title>potentialInterestGrowthGreaterZeroQuery</title>
<polygon fill="#ccccff" stroke="#ccccff" points="461.435,-36 414.565,-36 402.565,-24 402.565,-12 414.565,-0 461.435,-0 473.435,-12 473.435,-24 461.435,-36"/>
<path fill="#ccccff" stroke="#ccccff" d="M414.565,-36C408.565,-36 402.565,-30 402.565,-24"/>
<path fill="#ccccff" stroke="#ccccff" d="M402.565,-12C402.565,-6 408.565,-0 414.565,-0"/>
<path fill="#ccccff" stroke="#ccccff" d="M461.435,-0C467.435,-0 473.435,-6 473.435,-12"/>
<path fill="#ccccff" stroke="#ccccff" d="M473.435,-24C473.435,-30 467.435,-36 461.435,-36"/>
<polyline fill="none" stroke="#ccccff" points="461.435,-36 414.565,-36 "/>
<path fill="none" stroke="#ccccff" d="M414.565,-36C408.565,-36 402.565,-30 402.565,-24"/>
<polyline fill="none" stroke="#ccccff" points="402.565,-24 402.565,-12 "/>
<path fill="none" stroke="#ccccff" d="M402.565,-12C402.565,-6 408.565,-0 414.565,-0"/>
<polyline fill="none" stroke="#ccccff" points="414.565,-0 461.435,-0 "/>
<path fill="none" stroke="#ccccff" d="M461.435,-0C467.435,-0 473.435,-6 473.435,-12"/>
<polyline fill="none" stroke="#ccccff" points="473.435,-12 473.435,-24 "/>
<path fill="none" stroke="#ccccff" d="M473.435,-24C473.435,-30 467.435,-36 461.435,-36"/>
<text text-anchor="middle" x="438" y="-12.4" font-family="Helvetica,sans-Serif" font-size="14.00">Greater?</text>
</g>
<!-- potentialInterestGrowth&#45;&gt;potentialInterestGrowthGreaterZeroQuery -->
<g id="edge24" class="edge"><title>potentialInterestGrowth&#45;&gt;potentialInterestGrowthGreaterZeroQuery:nw</title>
<path fill="none" stroke="blue" stroke-width="2" stroke-dasharray="1,5" d="M419.44,-71.9068C415.439,-62.7796 412.392,-51.6371 415.656,-42.7934"/>
<ellipse fill="blue" stroke="blue" cx="417.845" cy="-39.37" rx="4.00002" ry="4.00002"/>
</g>
<!-- potentialInterestGrowth&#45;&gt;potentialInterestGrowthGreaterZeroQuery -->
<g id="edge16" class="edge"><title>potentialInterestGrowth&#45;&gt;potentialInterestGrowthGreaterZeroQuery</title>
<path fill="none" stroke="#1415cc" stroke-width="3" d="M431.225,-71.6966C431.835,-66.9496 432.521,-61.6132 433.216,-56.2063"/>
<polygon fill="#1415cc" stroke="#1415cc" points="440.193,-56.8337 435.801,-36.1043 426.307,-55.0484 440.193,-56.8337"/>
</g>
<!-- potentialInterestGrowth&#45;&gt;selfInfluence -->
<g id="edge34" class="edge"><title>potentialInterestGrowth&#45;&gt;selfInfluence:nw</title>
<path fill="none" stroke="blue" stroke-width="2" stroke-dasharray="1,5" d="M394.771,-93.9768C337.801,-99.7176 227.448,-114.449 204,-144 5.71284,-393.902 164.485,-550.319 209.626,-544.374"/>
<ellipse fill="blue" stroke="blue" cx="213.363" cy="-542.664" rx="4.00002" ry="4.00002"/>
</g>
<!-- potentialInterestGrowthGreaterZeroQuery&#45;&gt;selfInfluence -->
<g id="edge6" class="edge"><title>potentialInterestGrowthGreaterZeroQuery&#45;&gt;selfInfluence</title>
<path fill="none" stroke="#1415cc" stroke-width="3" d="M402.609,-20.254C325.057,-25.0836 147,-48.4297 147,-161 147,-235 147,-235 147,-235 147,-328.996 190.959,-432.99 216.738,-485.895"/>
<polygon fill="#1415cc" stroke="#1415cc" points="210.516,-489.102 225.749,-503.832 223.026,-482.818 210.516,-489.102"/>
</g>
<!-- selfInfluence&#45;&gt;learningInterestAddSelfInfluence -->
<g id="edge38" class="edge"><title>selfInfluence&#45;&gt;learningInterestAddSelfInfluence:ne</title>
<path fill="none" stroke="blue" stroke-width="2" stroke-dasharray="1,5" d="M264.588,-503.987C276.664,-495.4 287.352,-484.75 285.096,-474.947"/>
<ellipse fill="blue" stroke="blue" cx="283.032" cy="-471.446" rx="4.00002" ry="4.00002"/>
</g>
<!-- selfInfluence&#45;&gt;learningInterestAddSelfInfluence -->
<g id="edge10" class="edge"><title>selfInfluence&#45;&gt;learningInterestAddSelfInfluence</title>
<path fill="none" stroke="#1415cc" stroke-width="3" d="M241.921,-503.697C243.99,-498.526 246.338,-492.656 248.697,-486.757"/>
<polygon fill="#1415cc" stroke="#1415cc" points="255.23,-489.274 256.158,-468.104 242.231,-484.074 255.23,-489.274"/>
</g>
<!-- minimum_LearningInterestAddSelfInfluenceUnit_ -->
<g id="node15" class="node"><title>minimum_LearningInterestAddSelfInfluenceUnit_</title>
<polygon fill="#ccccff" stroke="#ccccff" points="342.926,-396 287.074,-396 275.074,-384 275.074,-372 287.074,-360 342.926,-360 354.926,-372 354.926,-384 342.926,-396"/>
<path fill="#ccccff" stroke="#ccccff" d="M287.074,-396C281.074,-396 275.074,-390 275.074,-384"/>
<path fill="#ccccff" stroke="#ccccff" d="M275.074,-372C275.074,-366 281.074,-360 287.074,-360"/>
<path fill="#ccccff" stroke="#ccccff" d="M342.926,-360C348.926,-360 354.926,-366 354.926,-372"/>
<path fill="#ccccff" stroke="#ccccff" d="M354.926,-384C354.926,-390 348.926,-396 342.926,-396"/>
<polyline fill="none" stroke="#ccccff" points="342.926,-396 287.074,-396 "/>
<path fill="none" stroke="#ccccff" d="M287.074,-396C281.074,-396 275.074,-390 275.074,-384"/>
<polyline fill="none" stroke="#ccccff" points="275.074,-384 275.074,-372 "/>
<path fill="none" stroke="#ccccff" d="M275.074,-372C275.074,-366 281.074,-360 287.074,-360"/>
<polyline fill="none" stroke="#ccccff" points="287.074,-360 342.926,-360 "/>
<path fill="none" stroke="#ccccff" d="M342.926,-360C348.926,-360 354.926,-366 354.926,-372"/>
<polyline fill="none" stroke="#ccccff" points="354.926,-372 354.926,-384 "/>
<path fill="none" stroke="#ccccff" d="M354.926,-384C354.926,-390 348.926,-396 342.926,-396"/>
<text text-anchor="middle" x="315" y="-372.4" font-family="Helvetica,sans-Serif" font-size="14.00">Minimum?</text>
</g>
<!-- minimum_LearningInterestAddSelfInfluenceUnit_&#45;&gt;actualGrowth -->
<g id="edge8" class="edge"><title>minimum_LearningInterestAddSelfInfluenceUnit_&#45;&gt;actualGrowth</title>
<path fill="none" stroke="#1415cc" stroke-width="3" d="M317.719,-359.697C318.478,-354.865 319.334,-349.422 320.199,-343.917"/>
<polygon fill="#1415cc" stroke="#1415cc" points="327.122,-344.949 323.312,-324.104 313.292,-342.775 327.122,-344.949"/>
</g>
<!-- minimum_LearningInterestAddSelfInfluenceUnit_&#45;&gt;actualGrowth -->
<g id="edge52" class="edge"><title>minimum_LearningInterestAddSelfInfluenceUnit_&#45;&gt;actualGrowth:nw</title>
<path fill="none" stroke="blue" stroke-width="2" stroke-dasharray="1,5" d="M306.331,-359.875C302.765,-350.736 300.182,-339.588 303.603,-330.767"/>
<ellipse fill="blue" stroke="blue" cx="305.821" cy="-327.354" rx="4.00002" ry="4.00002"/>
</g>
<!-- setLearningInterestToMinimum_LearningInterestAddSelfInfluenceUnit_ -->
<g id="node23" class="node"><title>setLearningInterestToMinimum_LearningInterestAddSelfInfluenceUnit_</title>
<polygon fill="#ccccff" stroke="#ccccff" points="426,-252 396,-252 384,-240 384,-228 396,-216 426,-216 438,-228 438,-240 426,-252"/>
<path fill="#ccccff" stroke="#ccccff" d="M396,-252C390,-252 384,-246 384,-240"/>
<path fill="#ccccff" stroke="#ccccff" d="M384,-228C384,-222 390,-216 396,-216"/>
<path fill="#ccccff" stroke="#ccccff" d="M426,-216C432,-216 438,-222 438,-228"/>
<path fill="#ccccff" stroke="#ccccff" d="M438,-240C438,-246 432,-252 426,-252"/>
<polyline fill="none" stroke="#ccccff" points="426,-252 396,-252 "/>
<path fill="none" stroke="#ccccff" d="M396,-252C390,-252 384,-246 384,-240"/>
<polyline fill="none" stroke="#ccccff" points="384,-240 384,-228 "/>
<path fill="none" stroke="#ccccff" d="M384,-228C384,-222 390,-216 396,-216"/>
<polyline fill="none" stroke="#ccccff" points="396,-216 426,-216 "/>
<path fill="none" stroke="#ccccff" d="M426,-216C432,-216 438,-222 438,-228"/>
<polyline fill="none" stroke="#ccccff" points="438,-228 438,-240 "/>
<path fill="none" stroke="#ccccff" d="M438,-240C438,-246 432,-252 426,-252"/>
<text text-anchor="middle" x="411" y="-228.4" font-family="Helvetica,sans-Serif" font-size="14.00">Set</text>
</g>
<!-- minimum_LearningInterestAddSelfInfluenceUnit_&#45;&gt;setLearningInterestToMinimum_LearningInterestAddSelfInfluenceUnit_ -->
<g id="edge44" class="edge"><title>minimum_LearningInterestAddSelfInfluenceUnit_&#45;&gt;setLearningInterestToMinimum_LearningInterestAddSelfInfluenceUnit_:ne</title>
<path fill="none" stroke="blue" stroke-dasharray="1,5" d="M349.826,-359.967C393.123,-336.816 458.533,-294.175 434.154,-258.176"/>
<ellipse fill="blue" stroke="blue" cx="431.563" cy="-255.071" rx="4.00002" ry="4.00002"/>
</g>
<!-- actualGrowth&#45;&gt;selfContributionAddActualGrowth -->
<g id="edge42" class="edge"><title>actualGrowth&#45;&gt;selfContributionAddActualGrowth:ne</title>
<path fill="none" stroke="blue" stroke-width="2" stroke-dasharray="1,5" d="M328.65,-287.875C329.258,-278.645 328.619,-267.365 323.808,-258.503"/>
<ellipse fill="blue" stroke="blue" cx="321.378" cy="-255.216" rx="4.00002" ry="4.00002"/>
</g>
<!-- actualGrowth&#45;&gt;selfContributionAddActualGrowth -->
<g id="edge18" class="edge"><title>actualGrowth&#45;&gt;selfContributionAddActualGrowth</title>
<path fill="none" stroke="#1415cc" stroke-width="3" d="M319.82,-287.697C318.004,-282.611 315.946,-276.848 313.874,-271.047"/>
<polygon fill="#1415cc" stroke="#1415cc" points="320.428,-268.585 307.109,-252.104 307.243,-273.294 320.428,-268.585"/>
</g>
<!-- actualGrowth&#45;&gt;setLearningInterestToMinimum_LearningInterestAddSelfInfluenceUnit_ -->
<g id="edge20" class="edge"><title>actualGrowth&#45;&gt;setLearningInterestToMinimum_LearningInterestAddSelfInfluenceUnit_</title>
<path fill="none" stroke="#1415cc" stroke-width="3" d="M347.011,-287.697C355.349,-280.83 365.184,-272.731 374.609,-264.969"/>
<polygon fill="#1415cc" stroke="#1415cc" points="379.242,-270.222 390.23,-252.104 370.342,-259.415 379.242,-270.222"/>
</g>
<!-- learningInterestAddSelfInfluence&#45;&gt;minimum_LearningInterestAddSelfInfluenceUnit_ -->
<g id="edge28" class="edge"><title>learningInterestAddSelfInfluence&#45;&gt;minimum_LearningInterestAddSelfInfluenceUnit_:nw</title>
<path fill="none" stroke="blue" stroke-width="2" stroke-dasharray="1,5" d="M271.478,-431.911C276.458,-422.808 283.367,-411.549 291.493,-401.993"/>
<ellipse fill="blue" stroke="blue" cx="294.294" cy="-398.945" rx="4.00002" ry="4.00002"/>
</g>
<!-- learningInterestAddSelfInfluence&#45;&gt;minimum_LearningInterestAddSelfInfluenceUnit_ -->
<g id="edge12" class="edge"><title>learningInterestAddSelfInfluence&#45;&gt;minimum_LearningInterestAddSelfInfluenceUnit_</title>
<path fill="none" stroke="#1415cc" stroke-width="3" d="M275.854,-431.697C280.199,-425.848 285.209,-419.104 290.162,-412.436"/>
<polygon fill="#1415cc" stroke="#1415cc" points="295.987,-416.334 302.294,-396.104 284.748,-407.985 295.987,-416.334"/>
</g>
<!-- selfContributionAddActualGrowth&#45;&gt;learnerselfContribution -->
<g id="edge14" class="edge"><title>selfContributionAddActualGrowth&#45;&gt;learnerselfContribution</title>
<path fill="none" stroke="#1415cc" stroke-width="3" d="M294.079,-215.697C292.01,-210.526 289.662,-204.656 287.303,-198.757"/>
<polygon fill="#1415cc" stroke="#1415cc" points="293.769,-196.074 279.842,-180.104 280.77,-201.274 293.769,-196.074"/>
</g>
<!-- setLearningInterestToMinimum_LearningInterestAddSelfInfluenceUnit_&#45;&gt;learnerlearningInterest -->
<g id="edge22" class="edge"><title>setLearningInterestToMinimum_LearningInterestAddSelfInfluenceUnit_&#45;&gt;learnerlearningInterest</title>
<path fill="none" stroke="#1415cc" stroke-width="3" d="M411,-215.697C411,-210.95 411,-205.613 411,-200.206"/>
<polygon fill="#1415cc" stroke="#1415cc" points="418,-200.104 411,-180.104 404,-200.104 418,-200.104"/>
</g>
<!-- importxyxpotentialInterestGrowthGreaterZeroQueryfunctionszero1 -->
<g id="node29" class="node"><title>importxyxpotentialInterestGrowthGreaterZeroQueryfunctionszero1</title>
<text text-anchor="middle" x="508" y="-84.4" font-family="Helvetica,sans-Serif" font-size="14.00">0</text>
</g>
<!-- importxyxpotentialInterestGrowthGreaterZeroQueryfunctionszero1&#45;&gt;potentialInterestGrowthGreaterZeroQuery -->
<g id="edge26" class="edge"><title>importxyxpotentialInterestGrowthGreaterZeroQueryfunctionszero1&#45;&gt;potentialInterestGrowthGreaterZeroQuery:ne</title>
<path fill="none" stroke="black" stroke-width="2" stroke-dasharray="1,5" d="M491.221,-71.7326C482.739,-63.0381 472.106,-52.1904 461.924,-41.9432"/>
<ellipse fill="black" stroke="black" cx="458.824" cy="-38.8331" rx="4.00002" ry="4.00002"/>
</g>
<!-- importxyxminimum_LearningInterestAddSelfInfluenceUnit_functionsunit1 -->
<g id="node32" class="node"><title>importxyxminimum_LearningInterestAddSelfInfluenceUnit_functionsunit1</title>
<text text-anchor="middle" x="335" y="-444.4" font-family="Helvetica,sans-Serif" font-size="14.00">1</text>
</g>
<!-- importxyxminimum_LearningInterestAddSelfInfluenceUnit_functionsunit1&#45;&gt;minimum_LearningInterestAddSelfInfluenceUnit_ -->
<g id="edge30" class="edge"><title>importxyxminimum_LearningInterestAddSelfInfluenceUnit_functionsunit1&#45;&gt;minimum_LearningInterestAddSelfInfluenceUnit_:ne</title>
<path fill="none" stroke="black" stroke-width="2" stroke-dasharray="1,5" d="M339.755,-431.83C341.399,-422.675 341.915,-411.519 337.715,-402.73"/>
<ellipse fill="black" stroke="black" cx="335.295" cy="-399.276" rx="4.00002" ry="4.00002"/>
</g>
</g>
</svg>
