<?xml version="1.0" encoding="UTF-8" standalone="no"?>
<!DOCTYPE svg PUBLIC "-//W3C//DTD SVG 1.1//EN"
 "http://www.w3.org/Graphics/SVG/1.1/DTD/svg11.dtd">
<!-- Generated by graphviz version 2.29.20110702.0445 (20110702.0445)
 -->
<!-- Title: initializeState Pages: 1 -->
<svg width="420pt" height="217pt"
 viewBox="0.00 0.00 420.00 217.00" xmlns="http://www.w3.org/2000/svg" xmlns:xlink="http://www.w3.org/1999/xlink">
<g id="graph1" class="graph" transform="scale(1 1) rotate(0) translate(4 213)">
<title>initializeState</title>
<polygon fill="white" stroke="white" points="-4,5 -4,-213 417,-213 417,5 -4,5"/>
<g id="graph2" class="cluster"><title>clustercontextKey</title>
<polygon fill="ghostwhite" stroke="white" points="8,-147 8,-201 96,-201 96,-147 8,-147"/>
<text text-anchor="middle" x="52.1792" y="-183" font-family="Helvetica,sans-Serif" font-size="14.00">Parameters</text>
</g>
<g id="graph3" class="cluster"><title>clusterlearnerKey</title>
<polygon fill="ghostwhite" stroke="white" points="104,-147 104,-201 168,-201 168,-147 104,-147"/>
<text text-anchor="middle" x="136.127" y="-183" font-family="Helvetica,sans-Serif" font-size="14.00">Learner</text>
</g>
<!-- contextOverview -->
<g id="node2" class="node"><title>contextOverview</title>
<ellipse fill="black" stroke="black" cx="52" cy="-162" rx="7.2" ry="7.2"/>
</g>
<!-- initializeStateOverview -->
<g id="node4" class="node"><title>initializeStateOverview</title>
<a xlink:href="learner__Overview.svg">
<ellipse fill="#14cc14" stroke="#14cc14" cx="135" cy="-162" rx="7.2" ry="7.2"/>
</a>
</g>
<!-- socialResourcesnextLearnerID -->
<g id="node5" class="node"><title>socialResourcesnextLearnerID</title>
<polygon fill="white" stroke="white" points="154.25,-108 39.75,-108 39.75,-72 154.25,-72 154.25,-108"/>
<text text-anchor="start" x="48" y="-84.5" font-family="Helvetica,sans-Serif" font-size="14.00">Next Learner ID</text>
</g>
<!-- incrementNextLearnerID -->
<g id="node15" class="node"><title>incrementNextLearnerID</title>
<polygon fill="#ccffcc" stroke="#ccffcc" points="137.186,-36 82.8138,-36 70.8138,-24 70.8138,-12 82.8138,-0 137.186,-0 149.186,-12 149.186,-24 137.186,-36"/>
<path fill="#ccffcc" stroke="#ccffcc" d="M82.8138,-36C76.8138,-36 70.8138,-30 70.8138,-24"/>
<path fill="#ccffcc" stroke="#ccffcc" d="M70.8138,-12C70.8138,-6 76.8138,-0 82.8138,-0"/>
<path fill="#ccffcc" stroke="#ccffcc" d="M137.186,-0C143.186,-0 149.186,-6 149.186,-12"/>
<path fill="#ccffcc" stroke="#ccffcc" d="M149.186,-24C149.186,-30 143.186,-36 137.186,-36"/>
<polyline fill="none" stroke="#ccffcc" points="137.186,-36 82.8138,-36 "/>
<path fill="none" stroke="#ccffcc" d="M82.8138,-36C76.8138,-36 70.8138,-30 70.8138,-24"/>
<polyline fill="none" stroke="#ccffcc" points="70.8138,-24 70.8138,-12 "/>
<path fill="none" stroke="#ccffcc" d="M70.8138,-12C70.8138,-6 76.8138,-0 82.8138,-0"/>
<polyline fill="none" stroke="#ccffcc" points="82.8138,-0 137.186,-0 "/>
<path fill="none" stroke="#ccffcc" d="M137.186,-0C143.186,-0 149.186,-6 149.186,-12"/>
<polyline fill="none" stroke="#ccffcc" points="149.186,-12 149.186,-24 "/>
<path fill="none" stroke="#ccffcc" d="M149.186,-24C149.186,-30 143.186,-36 137.186,-36"/>
<text text-anchor="middle" x="110" y="-12.4" font-family="Helvetica,sans-Serif" font-size="14.00">Increment</text>
</g>
<!-- socialResourcesnextLearnerID&#45;&gt;incrementNextLearnerID -->
<g id="edge16" class="edge"><title>socialResourcesnextLearnerID&#45;&gt;incrementNextLearnerID:nw</title>
<path fill="none" stroke="black" stroke-width="2" stroke-dasharray="1,5" d="M89.2148,-71.8513C86.0812,-62.7038 83.9595,-51.5517 87.5439,-42.7476"/>
<ellipse fill="black" stroke="black" cx="89.7957" cy="-39.3378" rx="4.00002" ry="4.00002"/>
</g>
<!-- learnerlearnerID -->
<g id="node6" class="node"><title>learnerlearnerID</title>
<polygon fill="white" stroke="white" points="389.108,-36 306.892,-36 306.892,-0 389.108,-0 389.108,-36"/>
<text text-anchor="middle" x="348" y="-12.4" font-family="Helvetica,sans-Serif" font-size="14.00">Learner ID</text>
</g>
<!-- learnerlearningInterest -->
<g id="node7" class="node"><title>learnerlearningInterest</title>
<polygon fill="white" stroke="white" points="288.301,-36 167.699,-36 167.699,-0 288.301,-0 288.301,-36"/>
<text text-anchor="middle" x="228" y="-12.4" font-family="Helvetica,sans-Serif" font-size="14.00">Learning Interest</text>
</g>
<!-- initializeState -->
<g id="node8" class="node"><title>initializeState</title>
<a xlink:href="learner_initializeState.svg" xlink:title="Initialize State">
<polygon fill="#ccffcc" stroke="#ccffcc" points="267.368,-180 188.632,-180 176.632,-168 176.632,-156 188.632,-144 267.368,-144 279.368,-156 279.368,-168 267.368,-180"/>
<path fill="#ccffcc" stroke="#ccffcc" d="M188.632,-180C182.632,-180 176.632,-174 176.632,-168"/>
<path fill="#ccffcc" stroke="#ccffcc" d="M176.632,-156C176.632,-150 182.632,-144 188.632,-144"/>
<path fill="#ccffcc" stroke="#ccffcc" d="M267.368,-144C273.368,-144 279.368,-150 279.368,-156"/>
<path fill="#ccffcc" stroke="#ccffcc" d="M279.368,-168C279.368,-174 273.368,-180 267.368,-180"/>
<polyline fill="none" stroke="black" points="267.368,-180 188.632,-180 "/>
<path fill="none" stroke="black" d="M188.632,-180C182.632,-180 176.632,-174 176.632,-168"/>
<polyline fill="none" stroke="black" points="176.632,-168 176.632,-156 "/>
<path fill="none" stroke="black" d="M176.632,-156C176.632,-150 182.632,-144 188.632,-144"/>
<polyline fill="none" stroke="black" points="188.632,-144 267.368,-144 "/>
<path fill="none" stroke="black" d="M267.368,-144C273.368,-144 279.368,-150 279.368,-156"/>
<polyline fill="none" stroke="black" points="279.368,-156 279.368,-168 "/>
<path fill="none" stroke="black" d="M279.368,-168C279.368,-174 273.368,-180 267.368,-180"/>
<text text-anchor="middle" x="228" y="-156.4" font-family="Helvetica,sans-Serif" font-size="14.00">Initialize State</text>
</a>
</g>
<!-- initialInterest -->
<g id="node10" class="node"><title>initialInterest</title>
<polygon fill="#ccffcc" stroke="#ccffcc" points="265.446,-108 190.554,-108 178.554,-96 178.554,-84 190.554,-72 265.446,-72 277.446,-84 277.446,-96 265.446,-108"/>
<path fill="#ccffcc" stroke="#ccffcc" d="M190.554,-108C184.554,-108 178.554,-102 178.554,-96"/>
<path fill="#ccffcc" stroke="#ccffcc" d="M178.554,-84C178.554,-78 184.554,-72 190.554,-72"/>
<path fill="#ccffcc" stroke="#ccffcc" d="M265.446,-72C271.446,-72 277.446,-78 277.446,-84"/>
<path fill="#ccffcc" stroke="#ccffcc" d="M277.446,-96C277.446,-102 271.446,-108 265.446,-108"/>
<polyline fill="none" stroke="#ccffcc" points="265.446,-108 190.554,-108 "/>
<path fill="none" stroke="#ccffcc" d="M190.554,-108C184.554,-108 178.554,-102 178.554,-96"/>
<polyline fill="none" stroke="#ccffcc" points="178.554,-96 178.554,-84 "/>
<path fill="none" stroke="#ccffcc" d="M178.554,-84C178.554,-78 184.554,-72 190.554,-72"/>
<polyline fill="none" stroke="#ccffcc" points="190.554,-72 265.446,-72 "/>
<path fill="none" stroke="#ccffcc" d="M265.446,-72C271.446,-72 277.446,-78 277.446,-84"/>
<polyline fill="none" stroke="#ccffcc" points="277.446,-84 277.446,-96 "/>
<path fill="none" stroke="#ccffcc" d="M277.446,-96C277.446,-102 271.446,-108 265.446,-108"/>
<text text-anchor="middle" x="228" y="-84.4" font-family="Helvetica,sans-Serif" font-size="14.00">Initial Interest</text>
</g>
<!-- initializeState&#45;&gt;initialInterest -->
<g id="edge4" class="edge"><title>initializeState&#45;&gt;initialInterest</title>
<path fill="none" stroke="#14cc14" stroke-width="3" d="M228,-143.697C228,-138.95 228,-133.613 228,-128.206"/>
<polygon fill="#14cc14" stroke="#14cc14" points="235,-128.104 228,-108.104 221,-128.104 235,-128.104"/>
</g>
<!-- setLearnerIDToNextLearnerID -->
<g id="node12" class="node"><title>setLearnerIDToNextLearnerID</title>
<polygon fill="#ccffcc" stroke="#ccffcc" points="345,-108 315,-108 303,-96 303,-84 315,-72 345,-72 357,-84 357,-96 345,-108"/>
<path fill="#ccffcc" stroke="#ccffcc" d="M315,-108C309,-108 303,-102 303,-96"/>
<path fill="#ccffcc" stroke="#ccffcc" d="M303,-84C303,-78 309,-72 315,-72"/>
<path fill="#ccffcc" stroke="#ccffcc" d="M345,-72C351,-72 357,-78 357,-84"/>
<path fill="#ccffcc" stroke="#ccffcc" d="M357,-96C357,-102 351,-108 345,-108"/>
<polyline fill="none" stroke="#ccffcc" points="345,-108 315,-108 "/>
<path fill="none" stroke="#ccffcc" d="M315,-108C309,-108 303,-102 303,-96"/>
<polyline fill="none" stroke="#ccffcc" points="303,-96 303,-84 "/>
<path fill="none" stroke="#ccffcc" d="M303,-84C303,-78 309,-72 315,-72"/>
<polyline fill="none" stroke="#ccffcc" points="315,-72 345,-72 "/>
<path fill="none" stroke="#ccffcc" d="M345,-72C351,-72 357,-78 357,-84"/>
<polyline fill="none" stroke="#ccffcc" points="357,-84 357,-96 "/>
<path fill="none" stroke="#ccffcc" d="M357,-96C357,-102 351,-108 345,-108"/>
<text text-anchor="middle" x="330" y="-84.4" font-family="Helvetica,sans-Serif" font-size="14.00">Set</text>
</g>
<!-- initializeState&#45;&gt;setLearnerIDToNextLearnerID -->
<g id="edge6" class="edge"><title>initializeState&#45;&gt;setLearnerIDToNextLearnerID</title>
<path fill="none" stroke="#14cc14" stroke-width="3" d="M252.952,-143.876C263.572,-136.588 276.251,-127.886 288.229,-119.667"/>
<polygon fill="#14cc14" stroke="#14cc14" points="292.423,-125.278 304.952,-108.19 284.501,-113.735 292.423,-125.278"/>
</g>
<!-- initialInterest&#45;&gt;learnerlearningInterest -->
<g id="edge10" class="edge"><title>initialInterest&#45;&gt;learnerlearningInterest</title>
<path fill="none" stroke="#14cc14" stroke-width="3" d="M228,-71.6966C228,-66.9496 228,-61.6132 228,-56.2063"/>
<polygon fill="#14cc14" stroke="#14cc14" points="235,-56.1043 228,-36.1043 221,-56.1044 235,-56.1043"/>
</g>
<!-- setLearnerIDToNextLearnerID&#45;&gt;learnerlearnerID -->
<g id="edge8" class="edge"><title>setLearnerIDToNextLearnerID&#45;&gt;learnerlearnerID</title>
<path fill="none" stroke="#14cc14" stroke-width="3" d="M334.449,-71.6966C335.714,-66.7801 337.141,-61.2313 338.582,-55.6267"/>
<polygon fill="#14cc14" stroke="#14cc14" points="345.4,-57.2175 343.602,-36.1043 331.841,-53.7309 345.4,-57.2175"/>
</g>
<!-- setLearnerIDToNextLearnerID&#45;&gt;incrementNextLearnerID -->
<g id="edge14" class="edge"><title>setLearnerIDToNextLearnerID&#45;&gt;incrementNextLearnerID</title>
<path fill="none" stroke="#14cc14" stroke-width="3" d="M302.684,-77.9861C297.193,-75.9027 291.439,-73.811 286,-72 235.954,-55.3356 218.147,-53.9791 168.601,-39.1277"/>
<polygon fill="#14cc14" stroke="#14cc14" points="170.397,-32.356 149.221,-33.129 166.257,-45.73 170.397,-32.356"/>
</g>
<!-- incrementNextLearnerID&#45;&gt;socialResourcesnextLearnerID -->
<g id="edge12" class="edge"><title>incrementNextLearnerID&#45;&gt;socialResourcesnextLearnerID</title>
<path fill="none" stroke="#14cc14" stroke-width="3" d="M106.823,-36.1043C105.929,-40.9192 104.92,-46.3523 103.898,-51.8563"/>
<polygon fill="#14cc14" stroke="#14cc14" points="96.9831,-50.7547 100.213,-71.6966 110.748,-53.311 96.9831,-50.7547"/>
</g>
<!-- importabcsetLearnerIDToNextLearnerIDsocialResourcesnextLearnerID -->
<g id="node19" class="node"><title>importabcsetLearnerIDToNextLearnerIDsocialResourcesnextLearnerID</title>
<text text-anchor="middle" x="355" y="-156.4" font-family="Helvetica,sans-Serif" font-size="14.00">Next Learner ID</text>
</g>
<!-- importabcsetLearnerIDToNextLearnerIDsocialResourcesnextLearnerID&#45;&gt;setLearnerIDToNextLearnerID -->
<g id="edge18" class="edge"><title>importabcsetLearnerIDToNextLearnerIDsocialResourcesnextLearnerID&#45;&gt;setLearnerIDToNextLearnerID:ne</title>
<path fill="none" stroke="black" stroke-width="2" stroke-dasharray="1,5" d="M357.65,-143.875C358.258,-134.645 357.619,-123.365 352.808,-114.503"/>
<ellipse fill="black" stroke="black" cx="350.378" cy="-111.216" rx="4.00002" ry="4.00002"/>
</g>
</g>
</svg>
