<?xml version="1.0" encoding="UTF-8" standalone="no"?>
<!DOCTYPE svg PUBLIC "-//W3C//DTD SVG 1.1//EN"
 "http://www.w3.org/Graphics/SVG/1.1/DTD/svg11.dtd">
<!-- Generated by graphviz version 2.29.20110702.0445 (20110702.0445)
 -->
<!-- Title: learner Pages: 1 -->
<svg width="934pt" height="289pt"
 viewBox="0.00 0.00 934.00 289.00" xmlns="http://www.w3.org/2000/svg" xmlns:xlink="http://www.w3.org/1999/xlink">
<g id="graph1" class="graph" transform="scale(1 1) rotate(0) translate(4 285)">
<title>learner</title>
<polygon fill="white" stroke="white" points="-4,5 -4,-285 931,-285 931,5 -4,5"/>
<g id="graph2" class="cluster"><title>clustercontextKey</title>
<polygon fill="ghostwhite" stroke="white" points="8,-219 8,-273 96,-273 96,-219 8,-219"/>
<text text-anchor="middle" x="52.1792" y="-255" font-family="Helvetica,sans-Serif" font-size="14.00">Parameters</text>
</g>
<g id="graph3" class="cluster"><title>clusterlearnerKey</title>
<polygon fill="ghostwhite" stroke="white" points="104,-147 104,-273 168,-273 168,-147 104,-147"/>
<text text-anchor="middle" x="136.127" y="-255" font-family="Helvetica,sans-Serif" font-size="14.00">Learner</text>
</g>
<g id="graph4" class="cluster"><title>clusterguideKey</title>
<polygon fill="ghostwhite" stroke="white" points="216,-219 216,-273 269,-273 269,-219 216,-219"/>
<text text-anchor="middle" x="242.679" y="-255" font-family="Helvetica,sans-Serif" font-size="14.00">Guide</text>
</g>
<!-- contextOverview -->
<g id="node2" class="node"><title>contextOverview</title>
<ellipse fill="black" stroke="black" cx="52" cy="-234" rx="7.2" ry="7.2"/>
</g>
<!-- initializeStateOverview -->
<g id="node4" class="node"><title>initializeStateOverview</title>
<a xlink:href="learner__Overview.svg">
<ellipse fill="#14cc14" stroke="#14cc14" cx="135" cy="-234" rx="7.2" ry="7.2"/>
</a>
</g>
<!-- pickGuideOverview -->
<g id="node5" class="node"><title>pickGuideOverview</title>
<a xlink:href="learner__Overview.svg">
<ellipse fill="#14cccc" stroke="#14cccc" cx="135" cy="-162" rx="7.2" ry="7.2"/>
</a>
</g>
<!-- initializeStateOverview&#45;&gt;pickGuideOverview -->
<!-- newGuideOverview -->
<g id="node8" class="node"><title>newGuideOverview</title>
<a xlink:href="guide__Overview.svg">
<ellipse fill="#147acc" stroke="#147acc" cx="242" cy="-234" rx="7.2" ry="7.2"/>
</a>
</g>
<!-- socialResourcesnextLearnerID -->
<g id="node9" class="node"><title>socialResourcesnextLearnerID</title>
<polygon fill="white" stroke="white" points="291.25,-180 176.75,-180 176.75,-144 291.25,-144 291.25,-180"/>
<text text-anchor="start" x="185" y="-156.5" font-family="Helvetica,sans-Serif" font-size="14.00">Next Learner ID</text>
</g>
<!-- incrementNextLearnerID -->
<g id="node19" class="node"><title>incrementNextLearnerID</title>
<polygon fill="#ccffcc" stroke="#ccffcc" points="274.186,-108 219.814,-108 207.814,-96 207.814,-84 219.814,-72 274.186,-72 286.186,-84 286.186,-96 274.186,-108"/>
<path fill="#ccffcc" stroke="#ccffcc" d="M219.814,-108C213.814,-108 207.814,-102 207.814,-96"/>
<path fill="#ccffcc" stroke="#ccffcc" d="M207.814,-84C207.814,-78 213.814,-72 219.814,-72"/>
<path fill="#ccffcc" stroke="#ccffcc" d="M274.186,-72C280.186,-72 286.186,-78 286.186,-84"/>
<path fill="#ccffcc" stroke="#ccffcc" d="M286.186,-96C286.186,-102 280.186,-108 274.186,-108"/>
<polyline fill="none" stroke="#ccffcc" points="274.186,-108 219.814,-108 "/>
<path fill="none" stroke="#ccffcc" d="M219.814,-108C213.814,-108 207.814,-102 207.814,-96"/>
<polyline fill="none" stroke="#ccffcc" points="207.814,-96 207.814,-84 "/>
<path fill="none" stroke="#ccffcc" d="M207.814,-84C207.814,-78 213.814,-72 219.814,-72"/>
<polyline fill="none" stroke="#ccffcc" points="219.814,-72 274.186,-72 "/>
<path fill="none" stroke="#ccffcc" d="M274.186,-72C280.186,-72 286.186,-78 286.186,-84"/>
<polyline fill="none" stroke="#ccffcc" points="286.186,-84 286.186,-96 "/>
<path fill="none" stroke="#ccffcc" d="M286.186,-96C286.186,-102 280.186,-108 274.186,-108"/>
<text text-anchor="middle" x="247" y="-84.4" font-family="Helvetica,sans-Serif" font-size="14.00">Increment</text>
</g>
<!-- socialResourcesnextLearnerID&#45;&gt;incrementNextLearnerID -->
<g id="edge19" class="edge"><title>socialResourcesnextLearnerID&#45;&gt;incrementNextLearnerID:nw</title>
<path fill="none" stroke="black" stroke-width="2" stroke-dasharray="1,5" d="M226.215,-143.851C223.081,-134.704 220.959,-123.552 224.544,-114.748"/>
<ellipse fill="black" stroke="black" cx="226.796" cy="-111.338" rx="4.00002" ry="4.00002"/>
</g>
<!-- learnerlearnerID -->
<g id="node10" class="node"><title>learnerlearnerID</title>
<polygon fill="white" stroke="white" points="526.108,-108 443.892,-108 443.892,-72 526.108,-72 526.108,-108"/>
<text text-anchor="middle" x="485" y="-84.4" font-family="Helvetica,sans-Serif" font-size="14.00">Learner ID</text>
</g>
<!-- learnerlearningInterest -->
<g id="node11" class="node"><title>learnerlearningInterest</title>
<polygon fill="white" stroke="white" points="425.301,-108 304.699,-108 304.699,-72 425.301,-72 425.301,-108"/>
<text text-anchor="middle" x="365" y="-84.4" font-family="Helvetica,sans-Serif" font-size="14.00">Learning Interest</text>
</g>
<!-- initializeState -->
<g id="node12" class="node"><title>initializeState</title>
<a xlink:href="learner_initializeState.svg" xlink:title="Initialize State">
<polygon fill="#ccffcc" stroke="#ccffcc" points="404.368,-252 325.632,-252 313.632,-240 313.632,-228 325.632,-216 404.368,-216 416.368,-228 416.368,-240 404.368,-252"/>
<path fill="#ccffcc" stroke="#ccffcc" d="M325.632,-252C319.632,-252 313.632,-246 313.632,-240"/>
<path fill="#ccffcc" stroke="#ccffcc" d="M313.632,-228C313.632,-222 319.632,-216 325.632,-216"/>
<path fill="#ccffcc" stroke="#ccffcc" d="M404.368,-216C410.368,-216 416.368,-222 416.368,-228"/>
<path fill="#ccffcc" stroke="#ccffcc" d="M416.368,-240C416.368,-246 410.368,-252 404.368,-252"/>
<polyline fill="none" stroke="black" points="404.368,-252 325.632,-252 "/>
<path fill="none" stroke="black" d="M325.632,-252C319.632,-252 313.632,-246 313.632,-240"/>
<polyline fill="none" stroke="black" points="313.632,-240 313.632,-228 "/>
<path fill="none" stroke="black" d="M313.632,-228C313.632,-222 319.632,-216 325.632,-216"/>
<polyline fill="none" stroke="black" points="325.632,-216 404.368,-216 "/>
<path fill="none" stroke="black" d="M404.368,-216C410.368,-216 416.368,-222 416.368,-228"/>
<polyline fill="none" stroke="black" points="416.368,-228 416.368,-240 "/>
<path fill="none" stroke="black" d="M416.368,-240C416.368,-246 410.368,-252 404.368,-252"/>
<text text-anchor="middle" x="365" y="-228.4" font-family="Helvetica,sans-Serif" font-size="14.00">Initialize State</text>
</a>
</g>
<!-- initialInterest -->
<g id="node14" class="node"><title>initialInterest</title>
<polygon fill="#ccffcc" stroke="#ccffcc" points="402.446,-180 327.554,-180 315.554,-168 315.554,-156 327.554,-144 402.446,-144 414.446,-156 414.446,-168 402.446,-180"/>
<path fill="#ccffcc" stroke="#ccffcc" d="M327.554,-180C321.554,-180 315.554,-174 315.554,-168"/>
<path fill="#ccffcc" stroke="#ccffcc" d="M315.554,-156C315.554,-150 321.554,-144 327.554,-144"/>
<path fill="#ccffcc" stroke="#ccffcc" d="M402.446,-144C408.446,-144 414.446,-150 414.446,-156"/>
<path fill="#ccffcc" stroke="#ccffcc" d="M414.446,-168C414.446,-174 408.446,-180 402.446,-180"/>
<polyline fill="none" stroke="#ccffcc" points="402.446,-180 327.554,-180 "/>
<path fill="none" stroke="#ccffcc" d="M327.554,-180C321.554,-180 315.554,-174 315.554,-168"/>
<polyline fill="none" stroke="#ccffcc" points="315.554,-168 315.554,-156 "/>
<path fill="none" stroke="#ccffcc" d="M315.554,-156C315.554,-150 321.554,-144 327.554,-144"/>
<polyline fill="none" stroke="#ccffcc" points="327.554,-144 402.446,-144 "/>
<path fill="none" stroke="#ccffcc" d="M402.446,-144C408.446,-144 414.446,-150 414.446,-156"/>
<polyline fill="none" stroke="#ccffcc" points="414.446,-156 414.446,-168 "/>
<path fill="none" stroke="#ccffcc" d="M414.446,-168C414.446,-174 408.446,-180 402.446,-180"/>
<text text-anchor="middle" x="365" y="-156.4" font-family="Helvetica,sans-Serif" font-size="14.00">Initial Interest</text>
</g>
<!-- initializeState&#45;&gt;initialInterest -->
<g id="edge7" class="edge"><title>initializeState&#45;&gt;initialInterest</title>
<path fill="none" stroke="#14cc14" stroke-width="3" d="M365,-215.697C365,-210.95 365,-205.613 365,-200.206"/>
<polygon fill="#14cc14" stroke="#14cc14" points="372,-200.104 365,-180.104 358,-200.104 372,-200.104"/>
</g>
<!-- setLearnerIDToNextLearnerID -->
<g id="node16" class="node"><title>setLearnerIDToNextLearnerID</title>
<polygon fill="#ccffcc" stroke="#ccffcc" points="484,-180 454,-180 442,-168 442,-156 454,-144 484,-144 496,-156 496,-168 484,-180"/>
<path fill="#ccffcc" stroke="#ccffcc" d="M454,-180C448,-180 442,-174 442,-168"/>
<path fill="#ccffcc" stroke="#ccffcc" d="M442,-156C442,-150 448,-144 454,-144"/>
<path fill="#ccffcc" stroke="#ccffcc" d="M484,-144C490,-144 496,-150 496,-156"/>
<path fill="#ccffcc" stroke="#ccffcc" d="M496,-168C496,-174 490,-180 484,-180"/>
<polyline fill="none" stroke="#ccffcc" points="484,-180 454,-180 "/>
<path fill="none" stroke="#ccffcc" d="M454,-180C448,-180 442,-174 442,-168"/>
<polyline fill="none" stroke="#ccffcc" points="442,-168 442,-156 "/>
<path fill="none" stroke="#ccffcc" d="M442,-156C442,-150 448,-144 454,-144"/>
<polyline fill="none" stroke="#ccffcc" points="454,-144 484,-144 "/>
<path fill="none" stroke="#ccffcc" d="M484,-144C490,-144 496,-150 496,-156"/>
<polyline fill="none" stroke="#ccffcc" points="496,-156 496,-168 "/>
<path fill="none" stroke="#ccffcc" d="M496,-168C496,-174 490,-180 484,-180"/>
<text text-anchor="middle" x="469" y="-156.4" font-family="Helvetica,sans-Serif" font-size="14.00">Set</text>
</g>
<!-- initializeState&#45;&gt;setLearnerIDToNextLearnerID -->
<g id="edge9" class="edge"><title>initializeState&#45;&gt;setLearnerIDToNextLearnerID</title>
<path fill="none" stroke="#14cc14" stroke-width="3" d="M390.441,-215.876C401.395,-208.503 414.498,-199.684 426.835,-191.38"/>
<polygon fill="#14cc14" stroke="#14cc14" points="430.778,-197.164 443.461,-180.19 422.961,-185.55 430.778,-197.164"/>
</g>
<!-- initialInterest&#45;&gt;learnerlearningInterest -->
<g id="edge13" class="edge"><title>initialInterest&#45;&gt;learnerlearningInterest</title>
<path fill="none" stroke="#14cc14" stroke-width="3" d="M365,-143.697C365,-138.95 365,-133.613 365,-128.206"/>
<polygon fill="#14cc14" stroke="#14cc14" points="372,-128.104 365,-108.104 358,-128.104 372,-128.104"/>
</g>
<!-- setLearnerIDToNextLearnerID&#45;&gt;learnerlearnerID -->
<g id="edge11" class="edge"><title>setLearnerIDToNextLearnerID&#45;&gt;learnerlearnerID</title>
<path fill="none" stroke="#14cc14" stroke-width="3" d="M472.955,-143.697C474.079,-138.78 475.347,-133.231 476.628,-127.627"/>
<polygon fill="#14cc14" stroke="#14cc14" points="483.458,-129.161 481.09,-108.104 469.81,-126.042 483.458,-129.161"/>
</g>
<!-- setLearnerIDToNextLearnerID&#45;&gt;incrementNextLearnerID -->
<g id="edge17" class="edge"><title>setLearnerIDToNextLearnerID&#45;&gt;incrementNextLearnerID</title>
<path fill="none" stroke="#14cc14" stroke-width="3" d="M441.883,-150.57C435.708,-148.309 429.154,-145.999 423,-144 372.833,-127.704 355.121,-126.058 305.597,-111.14"/>
<polygon fill="#14cc14" stroke="#14cc14" points="307.397,-104.37 286.221,-105.129 303.249,-117.741 307.397,-104.37"/>
</g>
<!-- incrementNextLearnerID&#45;&gt;socialResourcesnextLearnerID -->
<g id="edge15" class="edge"><title>incrementNextLearnerID&#45;&gt;socialResourcesnextLearnerID</title>
<path fill="none" stroke="#14cc14" stroke-width="3" d="M243.823,-108.104C242.929,-112.919 241.92,-118.352 240.898,-123.856"/>
<polygon fill="#14cc14" stroke="#14cc14" points="233.983,-122.755 237.213,-143.697 247.748,-125.311 233.983,-122.755"/>
</g>
<!-- importabcsetLearnerIDToNextLearnerIDsocialResourcesnextLearnerID -->
<g id="node23" class="node"><title>importabcsetLearnerIDToNextLearnerIDsocialResourcesnextLearnerID</title>
<text text-anchor="middle" x="492" y="-228.4" font-family="Helvetica,sans-Serif" font-size="14.00">Next Learner ID</text>
</g>
<!-- importabcsetLearnerIDToNextLearnerIDsocialResourcesnextLearnerID&#45;&gt;setLearnerIDToNextLearnerID -->
<g id="edge21" class="edge"><title>importabcsetLearnerIDToNextLearnerIDsocialResourcesnextLearnerID&#45;&gt;setLearnerIDToNextLearnerID:ne</title>
<path fill="none" stroke="black" stroke-width="2" stroke-dasharray="1,5" d="M495.486,-215.851C496.513,-206.612 496.332,-195.328 491.715,-186.484"/>
<ellipse fill="black" stroke="black" cx="489.353" cy="-183.235" rx="4.00002" ry="4.00002"/>
</g>
<!-- guidelearnerCount -->
<g id="node25" class="node"><title>guidelearnerCount</title>
<polygon fill="white" stroke="white" points="622.13,-180 517.87,-180 517.87,-144 622.13,-144 622.13,-180"/>
<text text-anchor="middle" x="570" y="-156.4" font-family="Helvetica,sans-Serif" font-size="14.00">Learner Count</text>
</g>
<!-- incrementLearnerCount -->
<g id="node36" class="node"><title>incrementLearnerCount</title>
<polygon fill="#cce8ff" stroke="#cce8ff" points="615.186,-108 560.814,-108 548.814,-96 548.814,-84 560.814,-72 615.186,-72 627.186,-84 627.186,-96 615.186,-108"/>
<path fill="#cce8ff" stroke="#cce8ff" d="M560.814,-108C554.814,-108 548.814,-102 548.814,-96"/>
<path fill="#cce8ff" stroke="#cce8ff" d="M548.814,-84C548.814,-78 554.814,-72 560.814,-72"/>
<path fill="#cce8ff" stroke="#cce8ff" d="M615.186,-72C621.186,-72 627.186,-78 627.186,-84"/>
<path fill="#cce8ff" stroke="#cce8ff" d="M627.186,-96C627.186,-102 621.186,-108 615.186,-108"/>
<polyline fill="none" stroke="#cce8ff" points="615.186,-108 560.814,-108 "/>
<path fill="none" stroke="#cce8ff" d="M560.814,-108C554.814,-108 548.814,-102 548.814,-96"/>
<polyline fill="none" stroke="#cce8ff" points="548.814,-96 548.814,-84 "/>
<path fill="none" stroke="#cce8ff" d="M548.814,-84C548.814,-78 554.814,-72 560.814,-72"/>
<polyline fill="none" stroke="#cce8ff" points="560.814,-72 615.186,-72 "/>
<path fill="none" stroke="#cce8ff" d="M615.186,-72C621.186,-72 627.186,-78 627.186,-84"/>
<polyline fill="none" stroke="#cce8ff" points="627.186,-84 627.186,-96 "/>
<path fill="none" stroke="#cce8ff" d="M627.186,-96C627.186,-102 621.186,-108 615.186,-108"/>
<text text-anchor="middle" x="588" y="-84.4" font-family="Helvetica,sans-Serif" font-size="14.00">Increment</text>
</g>
<!-- guidelearnerCount&#45;&gt;incrementLearnerCount -->
<g id="edge43" class="edge"><title>guidelearnerCount&#45;&gt;incrementLearnerCount:nw</title>
<path fill="none" stroke="#147acc" stroke-width="2" stroke-dasharray="1,5" d="M564.389,-143.826C562.323,-134.67 561.35,-123.513 565.367,-114.727"/>
<ellipse fill="#147acc" stroke="#147acc" cx="567.731" cy="-111.294" rx="4.00002" ry="4.00002"/>
</g>
<!-- learnerguideID -->
<g id="node26" class="node"><title>learnerguideID</title>
<polygon fill="white" stroke="white" points="871.435,-36 800.565,-36 800.565,-0 871.435,-0 871.435,-36"/>
<text text-anchor="middle" x="836" y="-12.4" font-family="Helvetica,sans-Serif" font-size="14.00">Guide ID</text>
</g>
<!-- guideguideID -->
<g id="node27" class="node"><title>guideguideID</title>
<polygon fill="white" stroke="white" points="853.435,-180 782.565,-180 782.565,-144 853.435,-144 853.435,-180"/>
<text text-anchor="middle" x="818" y="-156.4" font-family="Helvetica,sans-Serif" font-size="14.00">Guide ID</text>
</g>
<!-- guideIDAddZero -->
<g id="node34" class="node"><title>guideIDAddZero</title>
<polygon fill="#ccffff" stroke="#ccffff" points="851,-108 821,-108 809,-96 809,-84 821,-72 851,-72 863,-84 863,-96 851,-108"/>
<path fill="#ccffff" stroke="#ccffff" d="M821,-108C815,-108 809,-102 809,-96"/>
<path fill="#ccffff" stroke="#ccffff" d="M809,-84C809,-78 815,-72 821,-72"/>
<path fill="#ccffff" stroke="#ccffff" d="M851,-72C857,-72 863,-78 863,-84"/>
<path fill="#ccffff" stroke="#ccffff" d="M863,-96C863,-102 857,-108 851,-108"/>
<polyline fill="none" stroke="#ccffff" points="851,-108 821,-108 "/>
<path fill="none" stroke="#ccffff" d="M821,-108C815,-108 809,-102 809,-96"/>
<polyline fill="none" stroke="#ccffff" points="809,-96 809,-84 "/>
<path fill="none" stroke="#ccffff" d="M809,-84C809,-78 815,-72 821,-72"/>
<polyline fill="none" stroke="#ccffff" points="821,-72 851,-72 "/>
<path fill="none" stroke="#ccffff" d="M851,-72C857,-72 863,-78 863,-84"/>
<polyline fill="none" stroke="#ccffff" points="863,-84 863,-96 "/>
<path fill="none" stroke="#ccffff" d="M863,-96C863,-102 857,-108 851,-108"/>
<text text-anchor="middle" x="836" y="-84.4" font-family="Helvetica,sans-Serif" font-size="14.00">Add</text>
</g>
<!-- guideguideID&#45;&gt;guideIDAddZero -->
<g id="edge39" class="edge"><title>guideguideID&#45;&gt;guideIDAddZero:nw</title>
<path fill="none" stroke="#147acc" stroke-width="2" stroke-dasharray="1,5" d="M812.389,-143.826C810.323,-134.67 809.35,-123.513 813.367,-114.727"/>
<ellipse fill="#147acc" stroke="#147acc" cx="815.731" cy="-111.294" rx="4.00002" ry="4.00002"/>
</g>
<!-- pickGuide -->
<g id="node28" class="node"><title>pickGuide</title>
<a xlink:href="learner_pickGuide.svg" xlink:title="Pick Guide">
<polygon fill="#ccffff" stroke="#ccffff" points="715.274,-252 656.726,-252 644.726,-240 644.726,-228 656.726,-216 715.274,-216 727.274,-228 727.274,-240 715.274,-252"/>
<path fill="#ccffff" stroke="#ccffff" d="M656.726,-252C650.726,-252 644.726,-246 644.726,-240"/>
<path fill="#ccffff" stroke="#ccffff" d="M644.726,-228C644.726,-222 650.726,-216 656.726,-216"/>
<path fill="#ccffff" stroke="#ccffff" d="M715.274,-216C721.274,-216 727.274,-222 727.274,-228"/>
<path fill="#ccffff" stroke="#ccffff" d="M727.274,-240C727.274,-246 721.274,-252 715.274,-252"/>
<polyline fill="none" stroke="black" points="715.274,-252 656.726,-252 "/>
<path fill="none" stroke="black" d="M656.726,-252C650.726,-252 644.726,-246 644.726,-240"/>
<polyline fill="none" stroke="black" points="644.726,-240 644.726,-228 "/>
<path fill="none" stroke="black" d="M644.726,-228C644.726,-222 650.726,-216 656.726,-216"/>
<polyline fill="none" stroke="black" points="656.726,-216 715.274,-216 "/>
<path fill="none" stroke="black" d="M715.274,-216C721.274,-216 727.274,-222 727.274,-228"/>
<polyline fill="none" stroke="black" points="727.274,-228 727.274,-240 "/>
<path fill="none" stroke="black" d="M727.274,-240C727.274,-246 721.274,-252 715.274,-252"/>
<text text-anchor="middle" x="686" y="-228.4" font-family="Helvetica,sans-Serif" font-size="14.00">Pick Guide</text>
</a>
</g>
<!-- newGuide -->
<g id="node30" class="node"><title>newGuide</title>
<polygon fill="#cce8ff" stroke="#cce8ff" points="752.441,-180 691.559,-180 679.559,-168 679.559,-156 691.559,-144 752.441,-144 764.441,-156 764.441,-168 752.441,-180"/>
<path fill="#cce8ff" stroke="#cce8ff" d="M691.559,-180C685.559,-180 679.559,-174 679.559,-168"/>
<path fill="#cce8ff" stroke="#cce8ff" d="M679.559,-156C679.559,-150 685.559,-144 691.559,-144"/>
<path fill="#cce8ff" stroke="#cce8ff" d="M752.441,-144C758.441,-144 764.441,-150 764.441,-156"/>
<path fill="#cce8ff" stroke="#cce8ff" d="M764.441,-168C764.441,-174 758.441,-180 752.441,-180"/>
<polyline fill="none" stroke="gray" points="752.441,-180 691.559,-180 "/>
<path fill="none" stroke="gray" d="M691.559,-180C685.559,-180 679.559,-174 679.559,-168"/>
<polyline fill="none" stroke="gray" points="679.559,-168 679.559,-156 "/>
<path fill="none" stroke="gray" d="M679.559,-156C679.559,-150 685.559,-144 691.559,-144"/>
<polyline fill="none" stroke="gray" points="691.559,-144 752.441,-144 "/>
<path fill="none" stroke="gray" d="M752.441,-144C758.441,-144 764.441,-150 764.441,-156"/>
<polyline fill="none" stroke="gray" points="764.441,-156 764.441,-168 "/>
<path fill="none" stroke="gray" d="M764.441,-168C764.441,-174 758.441,-180 752.441,-180"/>
<text text-anchor="middle" x="722" y="-156.4" font-family="Helvetica,sans-Serif" font-size="14.00">New Guide</text>
</g>
<!-- pickGuide&#45;&gt;newGuide -->
<g id="edge23" class="edge"><title>pickGuide&#45;&gt;newGuide</title>
<path fill="none" stroke="#14cccc" stroke-width="3" d="M694.899,-215.697C697.645,-210.356 700.775,-204.27 703.909,-198.176"/>
<polygon fill="#14cccc" stroke="#14cccc" points="710.281,-201.092 713.203,-180.104 697.831,-194.689 710.281,-201.092"/>
</g>
<!-- connectLearner -->
<g id="node32" class="node"><title>connectLearner</title>
<polygon fill="#ccffff" stroke="#ccffff" points="726.108,-108 681.892,-108 669.892,-96 669.892,-84 681.892,-72 726.108,-72 738.108,-84 738.108,-96 726.108,-108"/>
<path fill="#ccffff" stroke="#ccffff" d="M681.892,-108C675.892,-108 669.892,-102 669.892,-96"/>
<path fill="#ccffff" stroke="#ccffff" d="M669.892,-84C669.892,-78 675.892,-72 681.892,-72"/>
<path fill="#ccffff" stroke="#ccffff" d="M726.108,-72C732.108,-72 738.108,-78 738.108,-84"/>
<path fill="#ccffff" stroke="#ccffff" d="M738.108,-96C738.108,-102 732.108,-108 726.108,-108"/>
<polyline fill="none" stroke="#ccffff" points="726.108,-108 681.892,-108 "/>
<path fill="none" stroke="#ccffff" d="M681.892,-108C675.892,-108 669.892,-102 669.892,-96"/>
<polyline fill="none" stroke="#ccffff" points="669.892,-96 669.892,-84 "/>
<path fill="none" stroke="#ccffff" d="M669.892,-84C669.892,-78 675.892,-72 681.892,-72"/>
<polyline fill="none" stroke="#ccffff" points="681.892,-72 726.108,-72 "/>
<path fill="none" stroke="#ccffff" d="M726.108,-72C732.108,-72 738.108,-78 738.108,-84"/>
<polyline fill="none" stroke="#ccffff" points="738.108,-84 738.108,-96 "/>
<path fill="none" stroke="#ccffff" d="M738.108,-96C738.108,-102 732.108,-108 726.108,-108"/>
<text text-anchor="middle" x="704" y="-84.4" font-family="Helvetica,sans-Serif" font-size="14.00">Connect</text>
</g>
<!-- pickGuide&#45;&gt;connectLearner -->
<g id="edge31" class="edge"><title>pickGuide&#45;&gt;connectLearner:nw</title>
<path fill="none" stroke="#14cccc" stroke-width="3" stroke-dasharray="5,2" d="M679.348,-215.628C675.797,-205.421 671.797,-192.171 670,-180 666.371,-155.425 664.119,-140.06 673.329,-123.971"/>
<polygon fill="#14cccc" stroke="#14cccc" points="679.053,-128.019 686,-108 668.086,-119.317 679.053,-128.019"/>
</g>
<!-- newGuide&#45;&gt;connectLearner -->
<g id="edge25" class="edge"><title>newGuide&#45;&gt;connectLearner</title>
<path fill="none" stroke="#147acc" stroke-width="3" d="M717.551,-143.697C716.286,-138.78 714.859,-133.231 713.418,-127.627"/>
<polygon fill="#147acc" stroke="#147acc" points="720.159,-125.731 708.398,-108.104 706.6,-129.218 720.159,-125.731"/>
</g>
<!-- newGuide&#45;&gt;connectLearner -->
<g id="edge33" class="edge"><title>newGuide&#45;&gt;connectLearner:ne</title>
<path fill="none" stroke="#147acc" stroke-width="3" stroke-dasharray="5,2" d="M727.611,-143.826C728.809,-138.516 729.639,-132.532 729.342,-126.728"/>
<polygon fill="#147acc" stroke="#147acc" points="735.817,-124.065 722,-108 722.783,-129.175 735.817,-124.065"/>
</g>
<!-- newGuide&#45;&gt;guideIDAddZero -->
<g id="edge27" class="edge"><title>newGuide&#45;&gt;guideIDAddZero</title>
<path fill="none" stroke="#147acc" stroke-width="3" d="M749.888,-143.876C762.354,-136.221 777.36,-127.007 791.329,-118.43"/>
<polygon fill="#147acc" stroke="#147acc" points="795.413,-124.136 808.794,-107.706 788.087,-112.206 795.413,-124.136"/>
</g>
<!-- newGuide&#45;&gt;incrementLearnerCount -->
<g id="edge29" class="edge"><title>newGuide&#45;&gt;incrementLearnerCount</title>
<path fill="none" stroke="#147acc" stroke-width="3" d="M689.22,-143.876C674.052,-135.952 655.685,-126.358 638.783,-117.528"/>
<polygon fill="#147acc" stroke="#147acc" points="641.874,-111.246 620.906,-108.19 635.392,-123.655 641.874,-111.246"/>
</g>
<!-- guideIDAddZero&#45;&gt;learnerguideID -->
<g id="edge35" class="edge"><title>guideIDAddZero&#45;&gt;learnerguideID</title>
<path fill="none" stroke="#14cccc" stroke-width="3" d="M836,-71.6966C836,-66.9496 836,-61.6132 836,-56.2063"/>
<polygon fill="#14cccc" stroke="#14cccc" points="843,-56.1043 836,-36.1043 829,-56.1044 843,-56.1043"/>
</g>
<!-- incrementLearnerCount&#45;&gt;guidelearnerCount -->
<g id="edge37" class="edge"><title>incrementLearnerCount&#45;&gt;guidelearnerCount</title>
<path fill="none" stroke="#147acc" stroke-width="3" d="M583.602,-108.104C582.342,-113.004 580.917,-118.543 579.477,-124.146"/>
<polygon fill="#147acc" stroke="#147acc" points="572.651,-122.583 574.449,-143.697 586.21,-126.07 572.651,-122.583"/>
</g>
<!-- importxyxguideIDAddZerofunctionszero0 -->
<g id="node42" class="node"><title>importxyxguideIDAddZerofunctionszero0</title>
<text text-anchor="middle" x="899" y="-156.4" font-family="Helvetica,sans-Serif" font-size="14.00">0</text>
</g>
<!-- importxyxguideIDAddZerofunctionszero0&#45;&gt;guideIDAddZero -->
<g id="edge41" class="edge"><title>importxyxguideIDAddZerofunctionszero0&#45;&gt;guideIDAddZero:ne</title>
<path fill="none" stroke="black" stroke-width="2" stroke-dasharray="1,5" d="M885.484,-143.672C878.358,-134.839 869.169,-123.899 859.823,-114"/>
<ellipse fill="black" stroke="black" cx="856.786" cy="-110.871" rx="4.00002" ry="4.00002"/>
</g>
</g>
</svg>
