<?xml version="1.0" encoding="UTF-8" standalone="no"?>
<!DOCTYPE svg PUBLIC "-//W3C//DTD SVG 1.1//EN"
 "http://www.w3.org/Graphics/SVG/1.1/DTD/svg11.dtd">
<!-- Generated by graphviz version 2.29.20110702.0445 (20110702.0445)
 -->
<!-- Title: learner Pages: 1 -->
<svg width="357pt" height="472pt"
 viewBox="0.00 0.00 357.00 472.00" xmlns="http://www.w3.org/2000/svg" xmlns:xlink="http://www.w3.org/1999/xlink">
<g id="graph1" class="graph" transform="scale(1 1) rotate(0) translate(4 468)">
<title>learner</title>
<polygon fill="white" stroke="white" points="-4,5 -4,-468 354,-468 354,5 -4,5"/>
<g id="graph2" class="cluster"><title>clusterWatch</title>
<polygon fill="ghostwhite" stroke="white" points="179,-380 179,-456 341,-456 341,-380 179,-380"/>
<text text-anchor="middle" x="206.582" y="-438" font-family="Helvetica,sans-Serif" font-size="14.00">Watch</text>
</g>
<g id="graph3" class="cluster"><title>clusterRule</title>
<polygon fill="ghostwhite" stroke="white" points="8,-8 8,-228 170,-228 170,-8 8,-8"/>
<text text-anchor="middle" x="33.8965" y="-210" font-family="Helvetica,sans-Serif" font-size="14.00">Rules</text>
</g>
<g id="graph4" class="cluster"><title>clusterInit</title>
<polygon fill="ghostwhite" stroke="white" points="51,-236 51,-456 171,-456 171,-236 51,-236"/>
<text text-anchor="middle" x="84.2896" y="-438" font-family="Helvetica,sans-Serif" font-size="14.00">Initialize</text>
</g>
<!-- iteration -->
<g id="node1" class="node"><title>iteration</title>
<polygon fill="lightgray" stroke="lightgray" points="126,-196 96,-196 84,-184 84,-172 96,-160 126,-160 138,-172 138,-184 126,-196"/>
<path fill="lightgray" stroke="lightgray" d="M96,-196C90,-196 84,-190 84,-184"/>
<path fill="lightgray" stroke="lightgray" d="M84,-172C84,-166 90,-160 96,-160"/>
<path fill="lightgray" stroke="lightgray" d="M126,-160C132,-160 138,-166 138,-172"/>
<path fill="lightgray" stroke="lightgray" d="M138,-184C138,-190 132,-196 126,-196"/>
<polyline fill="none" stroke="black" points="126,-196 96,-196 "/>
<path fill="none" stroke="black" d="M96,-196C90,-196 84,-190 84,-184"/>
<polyline fill="none" stroke="black" points="84,-184 84,-172 "/>
<path fill="none" stroke="black" d="M84,-172C84,-166 90,-160 96,-160"/>
<polyline fill="none" stroke="black" points="96,-160 126,-160 "/>
<path fill="none" stroke="black" d="M126,-160C132,-160 138,-166 138,-172"/>
<polyline fill="none" stroke="black" points="138,-172 138,-184 "/>
<path fill="none" stroke="black" d="M138,-184C138,-190 132,-196 126,-196"/>
<text text-anchor="middle" x="111" y="-172.4" font-family="Helvetica,sans-Serif" font-size="14.00">Step</text>
</g>
<!-- guidedGrowth -->
<g id="node6" class="node"><title>guidedGrowth</title>
<a xlink:href="learner_guidedGrowth.svg" xlink:title="Guided Growth">
<polygon fill="#fffecc" stroke="#fffecc" points="122.119,-124 35.8813,-124 23.8813,-112 23.8813,-100 35.8813,-88 122.119,-88 134.119,-100 134.119,-112 122.119,-124"/>
<path fill="#fffecc" stroke="#fffecc" d="M35.8813,-124C29.8813,-124 23.8813,-118 23.8813,-112"/>
<path fill="#fffecc" stroke="#fffecc" d="M23.8813,-100C23.8813,-94 29.8813,-88 35.8813,-88"/>
<path fill="#fffecc" stroke="#fffecc" d="M122.119,-88C128.119,-88 134.119,-94 134.119,-100"/>
<path fill="#fffecc" stroke="#fffecc" d="M134.119,-112C134.119,-118 128.119,-124 122.119,-124"/>
<polyline fill="none" stroke="black" points="122.119,-124 35.8813,-124 "/>
<path fill="none" stroke="black" d="M35.8813,-124C29.8813,-124 23.8813,-118 23.8813,-112"/>
<polyline fill="none" stroke="black" points="23.8813,-112 23.8813,-100 "/>
<path fill="none" stroke="black" d="M23.8813,-100C23.8813,-94 29.8813,-88 35.8813,-88"/>
<polyline fill="none" stroke="black" points="35.8813,-88 122.119,-88 "/>
<path fill="none" stroke="black" d="M122.119,-88C128.119,-88 134.119,-94 134.119,-100"/>
<polyline fill="none" stroke="black" points="134.119,-100 134.119,-112 "/>
<path fill="none" stroke="black" d="M134.119,-112C134.119,-118 128.119,-124 122.119,-124"/>
<text text-anchor="middle" x="79" y="-100.4" font-family="Helvetica,sans-Serif" font-size="14.00">Guided Growth</text>
</a>
</g>
<!-- iteration&#45;&gt;guidedGrowth -->
<g id="edge4" class="edge"><title>iteration&#45;&gt;guidedGrowth</title>
<path fill="none" stroke="darkslategray" stroke-width="3" d="M103.09,-159.697C99.4473,-151.728 95.0455,-142.1 91.0065,-133.264"/>
<polygon fill="darkslategray" stroke="darkslategray" points="94.1599,-131.744 86.8191,-124.104 87.7936,-134.654 94.1599,-131.744"/>
</g>
<!-- start -->
<g id="node2" class="node"><title>start</title>
<polygon fill="lightgray" stroke="lightgray" points="126,-424 96,-424 84,-412 84,-400 96,-388 126,-388 138,-400 138,-412 126,-424"/>
<path fill="lightgray" stroke="lightgray" d="M96,-424C90,-424 84,-418 84,-412"/>
<path fill="lightgray" stroke="lightgray" d="M84,-400C84,-394 90,-388 96,-388"/>
<path fill="lightgray" stroke="lightgray" d="M126,-388C132,-388 138,-394 138,-400"/>
<path fill="lightgray" stroke="lightgray" d="M138,-412C138,-418 132,-424 126,-424"/>
<polyline fill="none" stroke="black" points="126,-424 96,-424 "/>
<path fill="none" stroke="black" d="M96,-424C90,-424 84,-418 84,-412"/>
<polyline fill="none" stroke="black" points="84,-412 84,-400 "/>
<path fill="none" stroke="black" d="M84,-400C84,-394 90,-388 96,-388"/>
<polyline fill="none" stroke="black" points="96,-388 126,-388 "/>
<path fill="none" stroke="black" d="M126,-388C132,-388 138,-394 138,-400"/>
<polyline fill="none" stroke="black" points="138,-400 138,-412 "/>
<path fill="none" stroke="black" d="M138,-412C138,-418 132,-424 126,-424"/>
<text text-anchor="middle" x="111" y="-400.4" font-family="Helvetica,sans-Serif" font-size="14.00">Start</text>
</g>
<!-- initializeState -->
<g id="node10" class="node"><title>initializeState</title>
<a xlink:href="learner_initializeState.svg" xlink:title="Initialize State">
<polygon fill="#ccffcc" stroke="#ccffcc" points="150.368,-352 71.6317,-352 59.6317,-340 59.6317,-328 71.6317,-316 150.368,-316 162.368,-328 162.368,-340 150.368,-352"/>
<path fill="#ccffcc" stroke="#ccffcc" d="M71.6317,-352C65.6317,-352 59.6317,-346 59.6317,-340"/>
<path fill="#ccffcc" stroke="#ccffcc" d="M59.6317,-328C59.6317,-322 65.6317,-316 71.6317,-316"/>
<path fill="#ccffcc" stroke="#ccffcc" d="M150.368,-316C156.368,-316 162.368,-322 162.368,-328"/>
<path fill="#ccffcc" stroke="#ccffcc" d="M162.368,-340C162.368,-346 156.368,-352 150.368,-352"/>
<polyline fill="none" stroke="black" points="150.368,-352 71.6317,-352 "/>
<path fill="none" stroke="black" d="M71.6317,-352C65.6317,-352 59.6317,-346 59.6317,-340"/>
<polyline fill="none" stroke="black" points="59.6317,-340 59.6317,-328 "/>
<path fill="none" stroke="black" d="M59.6317,-328C59.6317,-322 65.6317,-316 71.6317,-316"/>
<polyline fill="none" stroke="black" points="71.6317,-316 150.368,-316 "/>
<path fill="none" stroke="black" d="M150.368,-316C156.368,-316 162.368,-322 162.368,-328"/>
<polyline fill="none" stroke="black" points="162.368,-328 162.368,-340 "/>
<path fill="none" stroke="black" d="M162.368,-340C162.368,-346 156.368,-352 150.368,-352"/>
<text text-anchor="middle" x="111" y="-328.4" font-family="Helvetica,sans-Serif" font-size="14.00">Initialize State</text>
</a>
</g>
<!-- start&#45;&gt;initializeState -->
<g id="edge9" class="edge"><title>start&#45;&gt;initializeState</title>
<path fill="none" stroke="darkslategray" stroke-width="3" d="M111,-387.697C111,-379.983 111,-370.712 111,-362.112"/>
<polygon fill="darkslategray" stroke="darkslategray" points="114.5,-362.104 111,-352.104 107.5,-362.104 114.5,-362.104"/>
</g>
<!-- deriveLearnerIndex -->
<g id="node4" class="node"><title>deriveLearnerIndex</title>
<a xlink:href="learner_deriveLearnerIndex.svg" xlink:title="Derive Learner Index">
<polygon fill="#ffcccc" stroke="#ffcccc" points="321.054,-424 198.946,-424 186.946,-412 186.946,-400 198.946,-388 321.054,-388 333.054,-400 333.054,-412 321.054,-424"/>
<path fill="#ffcccc" stroke="#ffcccc" d="M198.946,-424C192.946,-424 186.946,-418 186.946,-412"/>
<path fill="#ffcccc" stroke="#ffcccc" d="M186.946,-400C186.946,-394 192.946,-388 198.946,-388"/>
<path fill="#ffcccc" stroke="#ffcccc" d="M321.054,-388C327.054,-388 333.054,-394 333.054,-400"/>
<path fill="#ffcccc" stroke="#ffcccc" d="M333.054,-412C333.054,-418 327.054,-424 321.054,-424"/>
<polyline fill="none" stroke="black" points="321.054,-424 198.946,-424 "/>
<path fill="none" stroke="black" d="M198.946,-424C192.946,-424 186.946,-418 186.946,-412"/>
<polyline fill="none" stroke="black" points="186.946,-412 186.946,-400 "/>
<path fill="none" stroke="black" d="M186.946,-400C186.946,-394 192.946,-388 198.946,-388"/>
<polyline fill="none" stroke="black" points="198.946,-388 321.054,-388 "/>
<path fill="none" stroke="black" d="M321.054,-388C327.054,-388 333.054,-394 333.054,-400"/>
<polyline fill="none" stroke="black" points="333.054,-400 333.054,-412 "/>
<path fill="none" stroke="black" d="M333.054,-412C333.054,-418 327.054,-424 321.054,-424"/>
<text text-anchor="middle" x="260" y="-400.4" font-family="Helvetica,sans-Serif" font-size="14.00">Derive Learner Index</text>
</a>
</g>
<!-- selfDirectedGrowth -->
<g id="node7" class="node"><title>selfDirectedGrowth</title>
<a xlink:href="learner_selfDirectedGrowth.svg" xlink:title="Self Directed Growth">
<polygon fill="#ccccff" stroke="#ccccff" points="149.368,-52 28.6316,-52 16.6316,-40 16.6316,-28 28.6316,-16 149.368,-16 161.368,-28 161.368,-40 149.368,-52"/>
<path fill="#ccccff" stroke="#ccccff" d="M28.6316,-52C22.6316,-52 16.6316,-46 16.6316,-40"/>
<path fill="#ccccff" stroke="#ccccff" d="M16.6316,-28C16.6316,-22 22.6316,-16 28.6316,-16"/>
<path fill="#ccccff" stroke="#ccccff" d="M149.368,-16C155.368,-16 161.368,-22 161.368,-28"/>
<path fill="#ccccff" stroke="#ccccff" d="M161.368,-40C161.368,-46 155.368,-52 149.368,-52"/>
<polyline fill="none" stroke="black" points="149.368,-52 28.6316,-52 "/>
<path fill="none" stroke="black" d="M28.6316,-52C22.6316,-52 16.6316,-46 16.6316,-40"/>
<polyline fill="none" stroke="black" points="16.6316,-40 16.6316,-28 "/>
<path fill="none" stroke="black" d="M16.6316,-28C16.6316,-22 22.6316,-16 28.6316,-16"/>
<polyline fill="none" stroke="black" points="28.6316,-16 149.368,-16 "/>
<path fill="none" stroke="black" d="M149.368,-16C155.368,-16 161.368,-22 161.368,-28"/>
<polyline fill="none" stroke="black" points="161.368,-28 161.368,-40 "/>
<path fill="none" stroke="black" d="M161.368,-40C161.368,-46 155.368,-52 149.368,-52"/>
<text text-anchor="middle" x="89" y="-28.4" font-family="Helvetica,sans-Serif" font-size="14.00">Self Directed Growth</text>
</a>
</g>
<!-- guidedGrowth&#45;&gt;selfDirectedGrowth -->
<g id="edge5" class="edge"><title>guidedGrowth&#45;&gt;selfDirectedGrowth</title>
<path fill="none" stroke="darkslategray" stroke-width="3" d="M81.4719,-87.6966C82.5739,-79.9827 83.8982,-70.7125 85.1268,-62.1124"/>
<polygon fill="darkslategray" stroke="darkslategray" points="88.607,-62.4988 86.5565,-52.1043 81.6774,-61.5088 88.607,-62.4988"/>
</g>
<!-- selfDirectedGrowth&#45;&gt;iteration -->
<g id="edge6" class="edge"><title>selfDirectedGrowth&#45;&gt;iteration</title>
<path fill="none" stroke="darkslategray" stroke-width="3" d="M113.928,-52.1392C125.06,-61.33 137.001,-73.7072 143,-88 151.766,-108.887 141.792,-133.107 130.729,-151.003"/>
<polygon fill="darkslategray" stroke="darkslategray" points="127.549,-149.466 124.939,-159.734 133.383,-153.335 127.549,-149.466"/>
</g>
<!-- pickGuide -->
<g id="node11" class="node"><title>pickGuide</title>
<a xlink:href="learner_pickGuide.svg" xlink:title="Pick Guide">
<polygon fill="#ccffff" stroke="#ccffff" points="140.274,-280 81.7257,-280 69.7257,-268 69.7257,-256 81.7257,-244 140.274,-244 152.274,-256 152.274,-268 140.274,-280"/>
<path fill="#ccffff" stroke="#ccffff" d="M81.7257,-280C75.7257,-280 69.7257,-274 69.7257,-268"/>
<path fill="#ccffff" stroke="#ccffff" d="M69.7257,-256C69.7257,-250 75.7257,-244 81.7257,-244"/>
<path fill="#ccffff" stroke="#ccffff" d="M140.274,-244C146.274,-244 152.274,-250 152.274,-256"/>
<path fill="#ccffff" stroke="#ccffff" d="M152.274,-268C152.274,-274 146.274,-280 140.274,-280"/>
<polyline fill="none" stroke="black" points="140.274,-280 81.7257,-280 "/>
<path fill="none" stroke="black" d="M81.7257,-280C75.7257,-280 69.7257,-274 69.7257,-268"/>
<polyline fill="none" stroke="black" points="69.7257,-268 69.7257,-256 "/>
<path fill="none" stroke="black" d="M69.7257,-256C69.7257,-250 75.7257,-244 81.7257,-244"/>
<polyline fill="none" stroke="black" points="81.7257,-244 140.274,-244 "/>
<path fill="none" stroke="black" d="M140.274,-244C146.274,-244 152.274,-250 152.274,-256"/>
<polyline fill="none" stroke="black" points="152.274,-256 152.274,-268 "/>
<path fill="none" stroke="black" d="M152.274,-268C152.274,-274 146.274,-280 140.274,-280"/>
<text text-anchor="middle" x="111" y="-256.4" font-family="Helvetica,sans-Serif" font-size="14.00">Pick Guide</text>
</a>
</g>
<!-- initializeState&#45;&gt;pickGuide -->
<g id="edge10" class="edge"><title>initializeState&#45;&gt;pickGuide</title>
<path fill="none" stroke="darkslategray" stroke-width="3" d="M111,-315.697C111,-307.983 111,-298.712 111,-290.112"/>
<polygon fill="darkslategray" stroke="darkslategray" points="114.5,-290.104 111,-280.104 107.5,-290.104 114.5,-290.104"/>
</g>
<!-- pickGuide&#45;&gt;iteration -->
<g id="edge11" class="edge"><title>pickGuide&#45;&gt;iteration</title>
<path fill="none" stroke="darkslategray" stroke-width="3" d="M111,-243.61C111,-232.774 111,-218.601 111,-206.291"/>
<polygon fill="darkslategray" stroke="darkslategray" points="114.5,-206.084 111,-196.084 107.5,-206.084 114.5,-206.084"/>
</g>
</g>
</svg>
