<?xml version="1.0" encoding="UTF-8" standalone="no"?>
<!DOCTYPE svg PUBLIC "-//W3C//DTD SVG 1.1//EN"
 "http://www.w3.org/Graphics/SVG/1.1/DTD/svg11.dtd">
<!-- Generated by graphviz version 2.29.20110702.0445 (20110702.0445)
 -->
<!-- Title: initializeID Pages: 1 -->
<svg width="378pt" height="217pt"
 viewBox="0.00 0.00 378.00 217.00" xmlns="http://www.w3.org/2000/svg" xmlns:xlink="http://www.w3.org/1999/xlink">
<g id="graph1" class="graph" transform="scale(1 1) rotate(0) translate(4 213)">
<title>initializeID</title>
<polygon fill="white" stroke="white" points="-4,5 -4,-213 375,-213 375,5 -4,5"/>
<g id="graph2" class="cluster"><title>clustercontextKey</title>
<polygon fill="ghostwhite" stroke="white" points="8,-147 8,-201 96,-201 96,-147 8,-147"/>
<text text-anchor="middle" x="52.1792" y="-183" font-family="Helvetica,sans-Serif" font-size="14.00">Parameters</text>
</g>
<g id="graph3" class="cluster"><title>clusterhomeKey</title>
<polygon fill="ghostwhite" stroke="white" points="104,-147 104,-201 157,-201 157,-147 104,-147"/>
<text text-anchor="middle" x="130.672" y="-183" font-family="Helvetica,sans-Serif" font-size="14.00">Home</text>
</g>
<!-- contextOverview -->
<g id="node2" class="node"><title>contextOverview</title>
<ellipse fill="black" stroke="black" cx="52" cy="-162" rx="7.2" ry="7.2"/>
</g>
<!-- initializeIDOverview -->
<g id="node4" class="node"><title>initializeIDOverview</title>
<a xlink:href="home__Overview.svg">
<ellipse fill="#cc1414" stroke="#cc1414" cx="129" cy="-162" rx="7.2" ry="7.2"/>
</a>
</g>
<!-- spatialResourcesnextHomeID -->
<g id="node5" class="node"><title>spatialResourcesnextHomeID</title>
<polygon fill="white" stroke="white" points="202,-108 98,-108 98,-72 202,-72 202,-108"/>
<text text-anchor="start" x="106.5" y="-84.5" font-family="Helvetica,sans-Serif" font-size="14.00">Next Home ID</text>
</g>
<!-- incrementNextHomeID -->
<g id="node11" class="node"><title>incrementNextHomeID</title>
<polygon fill="#ffcccc" stroke="#ffcccc" points="192.186,-36 137.814,-36 125.814,-24 125.814,-12 137.814,-0 192.186,-0 204.186,-12 204.186,-24 192.186,-36"/>
<path fill="#ffcccc" stroke="#ffcccc" d="M137.814,-36C131.814,-36 125.814,-30 125.814,-24"/>
<path fill="#ffcccc" stroke="#ffcccc" d="M125.814,-12C125.814,-6 131.814,-0 137.814,-0"/>
<path fill="#ffcccc" stroke="#ffcccc" d="M192.186,-0C198.186,-0 204.186,-6 204.186,-12"/>
<path fill="#ffcccc" stroke="#ffcccc" d="M204.186,-24C204.186,-30 198.186,-36 192.186,-36"/>
<polyline fill="none" stroke="#ffcccc" points="192.186,-36 137.814,-36 "/>
<path fill="none" stroke="#ffcccc" d="M137.814,-36C131.814,-36 125.814,-30 125.814,-24"/>
<polyline fill="none" stroke="#ffcccc" points="125.814,-24 125.814,-12 "/>
<path fill="none" stroke="#ffcccc" d="M125.814,-12C125.814,-6 131.814,-0 137.814,-0"/>
<polyline fill="none" stroke="#ffcccc" points="137.814,-0 192.186,-0 "/>
<path fill="none" stroke="#ffcccc" d="M192.186,-0C198.186,-0 204.186,-6 204.186,-12"/>
<polyline fill="none" stroke="#ffcccc" points="204.186,-12 204.186,-24 "/>
<path fill="none" stroke="#ffcccc" d="M204.186,-24C204.186,-30 198.186,-36 192.186,-36"/>
<text text-anchor="middle" x="165" y="-12.4" font-family="Helvetica,sans-Serif" font-size="14.00">Increment</text>
</g>
<!-- spatialResourcesnextHomeID&#45;&gt;incrementNextHomeID -->
<g id="edge12" class="edge"><title>spatialResourcesnextHomeID&#45;&gt;incrementNextHomeID:nw</title>
<path fill="none" stroke="black" stroke-width="2" stroke-dasharray="1,5" d="M143.091,-71.8354C140.386,-62.682 138.725,-51.5271 142.478,-42.7345"/>
<ellipse fill="black" stroke="black" cx="144.77" cy="-39.3208" rx="4.00002" ry="4.00002"/>
</g>
<!-- homehomeID -->
<g id="node6" class="node"><title>homehomeID</title>
<polygon fill="white" stroke="white" points="293.425,-36 222.575,-36 222.575,-0 293.425,-0 293.425,-36"/>
<text text-anchor="middle" x="258" y="-12.4" font-family="Helvetica,sans-Serif" font-size="14.00">Home ID</text>
</g>
<!-- initializeID -->
<g id="node7" class="node"><title>initializeID</title>
<a xlink:href="home_initializeID.svg" xlink:title="Initialize ID">
<polygon fill="#ffcccc" stroke="#ffcccc" points="237.352,-180 176.648,-180 164.648,-168 164.648,-156 176.648,-144 237.352,-144 249.352,-156 249.352,-168 237.352,-180"/>
<path fill="#ffcccc" stroke="#ffcccc" d="M176.648,-180C170.648,-180 164.648,-174 164.648,-168"/>
<path fill="#ffcccc" stroke="#ffcccc" d="M164.648,-156C164.648,-150 170.648,-144 176.648,-144"/>
<path fill="#ffcccc" stroke="#ffcccc" d="M237.352,-144C243.352,-144 249.352,-150 249.352,-156"/>
<path fill="#ffcccc" stroke="#ffcccc" d="M249.352,-168C249.352,-174 243.352,-180 237.352,-180"/>
<polyline fill="none" stroke="black" points="237.352,-180 176.648,-180 "/>
<path fill="none" stroke="black" d="M176.648,-180C170.648,-180 164.648,-174 164.648,-168"/>
<polyline fill="none" stroke="black" points="164.648,-168 164.648,-156 "/>
<path fill="none" stroke="black" d="M164.648,-156C164.648,-150 170.648,-144 176.648,-144"/>
<polyline fill="none" stroke="black" points="176.648,-144 237.352,-144 "/>
<path fill="none" stroke="black" d="M237.352,-144C243.352,-144 249.352,-150 249.352,-156"/>
<polyline fill="none" stroke="black" points="249.352,-156 249.352,-168 "/>
<path fill="none" stroke="black" d="M249.352,-168C249.352,-174 243.352,-180 237.352,-180"/>
<text text-anchor="middle" x="207" y="-156.4" font-family="Helvetica,sans-Serif" font-size="14.00">Initialize ID</text>
</a>
</g>
<!-- setHomeIDToNextHomeID -->
<g id="node9" class="node"><title>setHomeIDToNextHomeID</title>
<polygon fill="#ffcccc" stroke="#ffcccc" points="269,-108 239,-108 227,-96 227,-84 239,-72 269,-72 281,-84 281,-96 269,-108"/>
<path fill="#ffcccc" stroke="#ffcccc" d="M239,-108C233,-108 227,-102 227,-96"/>
<path fill="#ffcccc" stroke="#ffcccc" d="M227,-84C227,-78 233,-72 239,-72"/>
<path fill="#ffcccc" stroke="#ffcccc" d="M269,-72C275,-72 281,-78 281,-84"/>
<path fill="#ffcccc" stroke="#ffcccc" d="M281,-96C281,-102 275,-108 269,-108"/>
<polyline fill="none" stroke="#ffcccc" points="269,-108 239,-108 "/>
<path fill="none" stroke="#ffcccc" d="M239,-108C233,-108 227,-102 227,-96"/>
<polyline fill="none" stroke="#ffcccc" points="227,-96 227,-84 "/>
<path fill="none" stroke="#ffcccc" d="M227,-84C227,-78 233,-72 239,-72"/>
<polyline fill="none" stroke="#ffcccc" points="239,-72 269,-72 "/>
<path fill="none" stroke="#ffcccc" d="M269,-72C275,-72 281,-78 281,-84"/>
<polyline fill="none" stroke="#ffcccc" points="281,-84 281,-96 "/>
<path fill="none" stroke="#ffcccc" d="M281,-96C281,-102 275,-108 269,-108"/>
<text text-anchor="middle" x="254" y="-84.4" font-family="Helvetica,sans-Serif" font-size="14.00">Set</text>
</g>
<!-- initializeID&#45;&gt;setHomeIDToNextHomeID -->
<g id="edge4" class="edge"><title>initializeID&#45;&gt;setHomeIDToNextHomeID</title>
<path fill="none" stroke="#cc1414" stroke-width="3" d="M218.618,-143.697C222.488,-137.932 226.942,-131.299 231.356,-124.726"/>
<polygon fill="#cc1414" stroke="#cc1414" points="237.178,-128.611 242.516,-108.104 225.555,-120.807 237.178,-128.611"/>
</g>
<!-- setHomeIDToNextHomeID&#45;&gt;homehomeID -->
<g id="edge6" class="edge"><title>setHomeIDToNextHomeID&#45;&gt;homehomeID</title>
<path fill="none" stroke="#cc1414" stroke-width="3" d="M254.989,-71.6966C255.26,-66.9496 255.565,-61.6132 255.874,-56.2063"/>
<polygon fill="#cc1414" stroke="#cc1414" points="262.87,-56.4711 257.023,-36.1043 248.893,-55.6724 262.87,-56.4711"/>
</g>
<!-- setHomeIDToNextHomeID&#45;&gt;incrementNextHomeID -->
<g id="edge10" class="edge"><title>setHomeIDToNextHomeID&#45;&gt;incrementNextHomeID</title>
<path fill="none" stroke="#cc1414" stroke-width="3" d="M232,-71.6966C223.162,-64.7456 212.718,-56.5309 202.738,-48.6816"/>
<polygon fill="#cc1414" stroke="#cc1414" points="206.795,-42.9665 186.747,-36.1043 198.14,-53.9707 206.795,-42.9665"/>
</g>
<!-- incrementNextHomeID&#45;&gt;spatialResourcesnextHomeID -->
<g id="edge8" class="edge"><title>incrementNextHomeID&#45;&gt;spatialResourcesnextHomeID</title>
<path fill="none" stroke="#cc1414" stroke-width="3" d="M161.335,-36.1043C160.303,-40.9192 159.139,-46.3523 157.959,-51.8563"/>
<polygon fill="#cc1414" stroke="#cc1414" points="151.054,-50.6738 153.708,-71.6966 164.743,-53.6073 151.054,-50.6738"/>
</g>
<!-- importabcsetHomeIDToNextHomeIDspatialResourcesnextHomeID -->
<g id="node15" class="node"><title>importabcsetHomeIDToNextHomeIDspatialResourcesnextHomeID</title>
<text text-anchor="middle" x="319" y="-156.4" font-family="Helvetica,sans-Serif" font-size="14.00">Next Home ID</text>
</g>
<!-- importabcsetHomeIDToNextHomeIDspatialResourcesnextHomeID&#45;&gt;setHomeIDToNextHomeID -->
<g id="edge14" class="edge"><title>importabcsetHomeIDToNextHomeIDspatialResourcesnextHomeID&#45;&gt;setHomeIDToNextHomeID:ne</title>
<path fill="none" stroke="black" stroke-width="2" stroke-dasharray="1,5" d="M304.681,-143.821C297.103,-134.952 287.379,-123.901 277.686,-113.808"/>
<ellipse fill="black" stroke="black" cx="274.798" cy="-110.858" rx="4.00002" ry="4.00002"/>
</g>
</g>
</svg>
