<?xml version="1.0" encoding="UTF-8" standalone="no"?>
<!DOCTYPE svg PUBLIC "-//W3C//DTD SVG 1.1//EN"
 "http://www.w3.org/Graphics/SVG/1.1/DTD/svg11.dtd">
<!-- Generated by graphviz version 2.29.20110702.0445 (20110702.0445)
 -->
<!-- Title: initializeLocation Pages: 1 -->
<svg width="316pt" height="289pt"
 viewBox="0.00 0.00 316.42 289.00" xmlns="http://www.w3.org/2000/svg" xmlns:xlink="http://www.w3.org/1999/xlink">
<g id="graph1" class="graph" transform="scale(1 1) rotate(0) translate(4 285)">
<title>initializeLocation</title>
<polygon fill="white" stroke="white" points="-4,5 -4,-285 313.42,-285 313.42,5 -4,5"/>
<g id="graph2" class="cluster"><title>clustercontextKey</title>
<polygon fill="ghostwhite" stroke="white" points="8,-219 8,-273 96,-273 96,-219 8,-219"/>
<text text-anchor="middle" x="52.1792" y="-255" font-family="Helvetica,sans-Serif" font-size="14.00">Parameters</text>
</g>
<g id="graph3" class="cluster"><title>clusterhomeKey</title>
<polygon fill="ghostwhite" stroke="white" points="104,-219 104,-273 157,-273 157,-219 104,-219"/>
<text text-anchor="middle" x="130.672" y="-255" font-family="Helvetica,sans-Serif" font-size="14.00">Home</text>
</g>
<!-- contextOverview -->
<g id="node2" class="node"><title>contextOverview</title>
<ellipse fill="black" stroke="black" cx="52" cy="-234" rx="7.2" ry="7.2"/>
</g>
<!-- initializeLocationOverview -->
<g id="node4" class="node"><title>initializeLocationOverview</title>
<a xlink:href="home__Overview.svg">
<ellipse fill="#14cc14" stroke="#14cc14" cx="129" cy="-234" rx="7.2" ry="7.2"/>
</a>
</g>
<!-- initializeLocation -->
<g id="node5" class="node"><title>initializeLocation</title>
<a xlink:href="home_initializeLocation.svg" xlink:title="Initialize Location">
<polygon fill="#ccffcc" stroke="#ccffcc" points="276.549,-252 177.451,-252 165.451,-240 165.451,-228 177.451,-216 276.549,-216 288.549,-228 288.549,-240 276.549,-252"/>
<path fill="#ccffcc" stroke="#ccffcc" d="M177.451,-252C171.451,-252 165.451,-246 165.451,-240"/>
<path fill="#ccffcc" stroke="#ccffcc" d="M165.451,-228C165.451,-222 171.451,-216 177.451,-216"/>
<path fill="#ccffcc" stroke="#ccffcc" d="M276.549,-216C282.549,-216 288.549,-222 288.549,-228"/>
<path fill="#ccffcc" stroke="#ccffcc" d="M288.549,-240C288.549,-246 282.549,-252 276.549,-252"/>
<polyline fill="none" stroke="black" points="276.549,-252 177.451,-252 "/>
<path fill="none" stroke="black" d="M177.451,-252C171.451,-252 165.451,-246 165.451,-240"/>
<polyline fill="none" stroke="black" points="165.451,-240 165.451,-228 "/>
<path fill="none" stroke="black" d="M165.451,-228C165.451,-222 171.451,-216 177.451,-216"/>
<polyline fill="none" stroke="black" points="177.451,-216 276.549,-216 "/>
<path fill="none" stroke="black" d="M276.549,-216C282.549,-216 288.549,-222 288.549,-228"/>
<polyline fill="none" stroke="black" points="288.549,-228 288.549,-240 "/>
<path fill="none" stroke="black" d="M288.549,-240C288.549,-246 282.549,-252 276.549,-252"/>
<text text-anchor="middle" x="227" y="-228.4" font-family="Helvetica,sans-Serif" font-size="14.00">Initialize Location</text>
</a>
</g>
<!-- home -->
<g id="node7" class="node"><title>home</title>
<polygon fill="#ccffe2" stroke="#ccffe2" points="274,-180 244,-180 232,-168 232,-156 244,-144 274,-144 286,-156 286,-168 274,-180"/>
<path fill="#ccffe2" stroke="#ccffe2" d="M244,-180C238,-180 232,-174 232,-168"/>
<path fill="#ccffe2" stroke="#ccffe2" d="M232,-156C232,-150 238,-144 244,-144"/>
<path fill="#ccffe2" stroke="#ccffe2" d="M274,-144C280,-144 286,-150 286,-156"/>
<path fill="#ccffe2" stroke="#ccffe2" d="M286,-168C286,-174 280,-180 274,-180"/>
<polyline fill="none" stroke="gray" points="274,-180 244,-180 "/>
<path fill="none" stroke="gray" d="M244,-180C238,-180 232,-174 232,-168"/>
<polyline fill="none" stroke="gray" points="232,-168 232,-156 "/>
<path fill="none" stroke="gray" d="M232,-156C232,-150 238,-144 244,-144"/>
<polyline fill="none" stroke="gray" points="244,-144 274,-144 "/>
<path fill="none" stroke="gray" d="M274,-144C280,-144 286,-150 286,-156"/>
<polyline fill="none" stroke="gray" points="286,-156 286,-168 "/>
<path fill="none" stroke="gray" d="M286,-168C286,-174 280,-180 274,-180"/>
<text text-anchor="middle" x="259" y="-156.4" font-family="Helvetica,sans-Serif" font-size="14.00">Home</text>
</g>
<!-- initializeLocation&#45;&gt;home -->
<g id="edge4" class="edge"><title>initializeLocation&#45;&gt;home</title>
<path fill="none" stroke="#14cc14" stroke-width="3" d="M234.91,-215.697C237.313,-210.441 240.046,-204.463 242.787,-198.467"/>
<polygon fill="#14cc14" stroke="#14cc14" points="249.232,-201.204 251.181,-180.104 236.499,-195.383 249.232,-201.204"/>
</g>
<!-- moveHome -->
<g id="node10" class="node"><title>moveHome</title>
<polygon fill="#ccffcc" stroke="#ccffcc" points="274,-36 244,-36 232,-24 232,-12 244,-0 274,-0 286,-12 286,-24 274,-36"/>
<path fill="#ccffcc" stroke="#ccffcc" d="M244,-36C238,-36 232,-30 232,-24"/>
<path fill="#ccffcc" stroke="#ccffcc" d="M232,-12C232,-6 238,-0 244,-0"/>
<path fill="#ccffcc" stroke="#ccffcc" d="M274,-0C280,-0 286,-6 286,-12"/>
<path fill="#ccffcc" stroke="#ccffcc" d="M286,-24C286,-30 280,-36 274,-36"/>
<polyline fill="none" stroke="#ccffcc" points="274,-36 244,-36 "/>
<path fill="none" stroke="#ccffcc" d="M244,-36C238,-36 232,-30 232,-24"/>
<polyline fill="none" stroke="#ccffcc" points="232,-24 232,-12 "/>
<path fill="none" stroke="#ccffcc" d="M232,-12C232,-6 238,-0 244,-0"/>
<polyline fill="none" stroke="#ccffcc" points="244,-0 274,-0 "/>
<path fill="none" stroke="#ccffcc" d="M274,-0C280,-0 286,-6 286,-12"/>
<polyline fill="none" stroke="#ccffcc" points="286,-12 286,-24 "/>
<path fill="none" stroke="#ccffcc" d="M286,-24C286,-30 280,-36 274,-36"/>
<text text-anchor="middle" x="259" y="-12.4" font-family="Helvetica,sans-Serif" font-size="14.00">Move</text>
</g>
<!-- initializeLocation&#45;&gt;moveHome -->
<g id="edge8" class="edge"><title>initializeLocation&#45;&gt;moveHome:nw</title>
<path fill="none" stroke="#14cc14" stroke-width="3" stroke-dasharray="5,2" d="M221.207,-215.542C212.154,-185.398 197.329,-122.014 214,-72 217.656,-61.0308 221.383,-55.4393 226.608,-49.941"/>
<polygon fill="#14cc14" stroke="#14cc14" points="231.505,-54.9433 241,-36 221.764,-44.8876 231.505,-54.9433"/>
</g>
<!-- availableQuery -->
<g id="node8" class="node"><title>availableQuery</title>
<polygon fill="#ccffe2" stroke="#ccffe2" points="282.928,-108 235.072,-108 223.072,-96 223.072,-84 235.072,-72 282.928,-72 294.928,-84 294.928,-96 282.928,-108"/>
<path fill="#ccffe2" stroke="#ccffe2" d="M235.072,-108C229.072,-108 223.072,-102 223.072,-96"/>
<path fill="#ccffe2" stroke="#ccffe2" d="M223.072,-84C223.072,-78 229.072,-72 235.072,-72"/>
<path fill="#ccffe2" stroke="#ccffe2" d="M282.928,-72C288.928,-72 294.928,-78 294.928,-84"/>
<path fill="#ccffe2" stroke="#ccffe2" d="M294.928,-96C294.928,-102 288.928,-108 282.928,-108"/>
<polyline fill="none" stroke="#ccffe2" points="282.928,-108 235.072,-108 "/>
<path fill="none" stroke="#ccffe2" d="M235.072,-108C229.072,-108 223.072,-102 223.072,-96"/>
<polyline fill="none" stroke="#ccffe2" points="223.072,-96 223.072,-84 "/>
<path fill="none" stroke="#ccffe2" d="M223.072,-84C223.072,-78 229.072,-72 235.072,-72"/>
<polyline fill="none" stroke="#ccffe2" points="235.072,-72 282.928,-72 "/>
<path fill="none" stroke="#ccffe2" d="M282.928,-72C288.928,-72 294.928,-78 294.928,-84"/>
<polyline fill="none" stroke="#ccffe2" points="294.928,-84 294.928,-96 "/>
<path fill="none" stroke="#ccffe2" d="M294.928,-96C294.928,-102 288.928,-108 282.928,-108"/>
<text text-anchor="middle" x="259" y="-84.4" font-family="Helvetica,sans-Serif" font-size="14.00">Available</text>
</g>
<!-- home&#45;&gt;availableQuery -->
<g id="edge12" class="edge"><title>home&#45;&gt;availableQuery</title>
<path fill="none" stroke="#14cc65" stroke-width="3" d="M259,-143.697C259,-138.95 259,-133.613 259,-128.206"/>
<polygon fill="#14cc65" stroke="#14cc65" points="266,-128.104 259,-108.104 252,-128.104 266,-128.104"/>
</g>
<!-- home&#45;&gt;moveHome -->
<g id="edge10" class="edge"><title>home&#45;&gt;moveHome:ne</title>
<path fill="none" stroke="#14cc65" stroke-width="3" stroke-dasharray="5,2" d="M279.379,-143.531C288.807,-134.092 299.006,-121.597 304,-108 313.251,-82.8115 306.228,-67.6886 291.086,-50.6562"/>
<polygon fill="#14cc65" stroke="#14cc65" points="295.906,-45.5691 277,-36 285.812,-55.2704 295.906,-45.5691"/>
</g>
<!-- availableQuery&#45;&gt;moveHome -->
<g id="edge6" class="edge"><title>availableQuery&#45;&gt;moveHome</title>
<path fill="none" stroke="#14cc65" stroke-width="3" d="M259,-71.6966C259,-66.9496 259,-61.6132 259,-56.2063"/>
<polygon fill="#14cc65" stroke="#14cc65" points="266,-56.1043 259,-36.1043 252,-56.1044 266,-56.1043"/>
</g>
</g>
</svg>
