<?xml version="1.0" encoding="UTF-8" standalone="no"?>
<!DOCTYPE svg PUBLIC "-//W3C//DTD SVG 1.1//EN"
 "http://www.w3.org/Graphics/SVG/1.1/DTD/svg11.dtd">
<!-- Generated by graphviz version 2.29.20110702.0445 (20110702.0445)
 -->
<!-- Title: home Pages: 1 -->
<svg width="534pt" height="289pt"
 viewBox="0.00 0.00 534.00 289.00" xmlns="http://www.w3.org/2000/svg" xmlns:xlink="http://www.w3.org/1999/xlink">
<g id="graph1" class="graph" transform="scale(1 1) rotate(0) translate(4 285)">
<title>home</title>
<polygon fill="white" stroke="white" points="-4,5 -4,-285 531,-285 531,5 -4,5"/>
<g id="graph2" class="cluster"><title>clustercontextKey</title>
<polygon fill="ghostwhite" stroke="white" points="8,-219 8,-273 96,-273 96,-219 8,-219"/>
<text text-anchor="middle" x="52.1792" y="-255" font-family="Helvetica,sans-Serif" font-size="14.00">Parameters</text>
</g>
<g id="graph3" class="cluster"><title>clusterhomeKey</title>
<polygon fill="ghostwhite" stroke="white" points="104,-147 104,-273 157,-273 157,-147 104,-147"/>
<text text-anchor="middle" x="130.672" y="-255" font-family="Helvetica,sans-Serif" font-size="14.00">Home</text>
</g>
<!-- contextOverview -->
<g id="node2" class="node"><title>contextOverview</title>
<ellipse fill="black" stroke="black" cx="52" cy="-234" rx="7.2" ry="7.2"/>
</g>
<!-- initializeLocationOverview -->
<g id="node4" class="node"><title>initializeLocationOverview</title>
<a xlink:href="home__Overview.svg">
<ellipse fill="#14cc14" stroke="#14cc14" cx="129" cy="-234" rx="7.2" ry="7.2"/>
</a>
</g>
<!-- initializeIDOverview -->
<g id="node5" class="node"><title>initializeIDOverview</title>
<a xlink:href="home__Overview.svg">
<ellipse fill="#cc1414" stroke="#cc1414" cx="129" cy="-162" rx="7.2" ry="7.2"/>
</a>
</g>
<!-- initializeLocationOverview&#45;&gt;initializeIDOverview -->
<!-- initializeLocation -->
<g id="node7" class="node"><title>initializeLocation</title>
<a xlink:href="home_initializeLocation.svg" xlink:title="Initialize Location">
<polygon fill="#ccffcc" stroke="#ccffcc" points="287.549,-252 188.451,-252 176.451,-240 176.451,-228 188.451,-216 287.549,-216 299.549,-228 299.549,-240 287.549,-252"/>
<path fill="#ccffcc" stroke="#ccffcc" d="M188.451,-252C182.451,-252 176.451,-246 176.451,-240"/>
<path fill="#ccffcc" stroke="#ccffcc" d="M176.451,-228C176.451,-222 182.451,-216 188.451,-216"/>
<path fill="#ccffcc" stroke="#ccffcc" d="M287.549,-216C293.549,-216 299.549,-222 299.549,-228"/>
<path fill="#ccffcc" stroke="#ccffcc" d="M299.549,-240C299.549,-246 293.549,-252 287.549,-252"/>
<polyline fill="none" stroke="black" points="287.549,-252 188.451,-252 "/>
<path fill="none" stroke="black" d="M188.451,-252C182.451,-252 176.451,-246 176.451,-240"/>
<polyline fill="none" stroke="black" points="176.451,-240 176.451,-228 "/>
<path fill="none" stroke="black" d="M176.451,-228C176.451,-222 182.451,-216 188.451,-216"/>
<polyline fill="none" stroke="black" points="188.451,-216 287.549,-216 "/>
<path fill="none" stroke="black" d="M287.549,-216C293.549,-216 299.549,-222 299.549,-228"/>
<polyline fill="none" stroke="black" points="299.549,-228 299.549,-240 "/>
<path fill="none" stroke="black" d="M299.549,-240C299.549,-246 293.549,-252 287.549,-252"/>
<text text-anchor="middle" x="238" y="-228.4" font-family="Helvetica,sans-Serif" font-size="14.00">Initialize Location</text>
</a>
</g>
<!-- home -->
<g id="node9" class="node"><title>home</title>
<polygon fill="#ccffe2" stroke="#ccffe2" points="254,-180 224,-180 212,-168 212,-156 224,-144 254,-144 266,-156 266,-168 254,-180"/>
<path fill="#ccffe2" stroke="#ccffe2" d="M224,-180C218,-180 212,-174 212,-168"/>
<path fill="#ccffe2" stroke="#ccffe2" d="M212,-156C212,-150 218,-144 224,-144"/>
<path fill="#ccffe2" stroke="#ccffe2" d="M254,-144C260,-144 266,-150 266,-156"/>
<path fill="#ccffe2" stroke="#ccffe2" d="M266,-168C266,-174 260,-180 254,-180"/>
<polyline fill="none" stroke="gray" points="254,-180 224,-180 "/>
<path fill="none" stroke="gray" d="M224,-180C218,-180 212,-174 212,-168"/>
<polyline fill="none" stroke="gray" points="212,-168 212,-156 "/>
<path fill="none" stroke="gray" d="M212,-156C212,-150 218,-144 224,-144"/>
<polyline fill="none" stroke="gray" points="224,-144 254,-144 "/>
<path fill="none" stroke="gray" d="M254,-144C260,-144 266,-150 266,-156"/>
<polyline fill="none" stroke="gray" points="266,-156 266,-168 "/>
<path fill="none" stroke="gray" d="M266,-168C266,-174 260,-180 254,-180"/>
<text text-anchor="middle" x="239" y="-156.4" font-family="Helvetica,sans-Serif" font-size="14.00">Home</text>
</g>
<!-- initializeLocation&#45;&gt;home -->
<g id="edge6" class="edge"><title>initializeLocation&#45;&gt;home</title>
<path fill="none" stroke="#14cc14" stroke-width="3" d="M238.247,-215.697C238.315,-210.95 238.391,-205.613 238.468,-200.206"/>
<polygon fill="#14cc14" stroke="#14cc14" points="245.469,-200.202 238.756,-180.104 231.471,-200.002 245.469,-200.202"/>
</g>
<!-- moveHome -->
<g id="node13" class="node"><title>moveHome</title>
<polygon fill="#ccffcc" stroke="#ccffcc" points="254,-36 224,-36 212,-24 212,-12 224,-0 254,-0 266,-12 266,-24 254,-36"/>
<path fill="#ccffcc" stroke="#ccffcc" d="M224,-36C218,-36 212,-30 212,-24"/>
<path fill="#ccffcc" stroke="#ccffcc" d="M212,-12C212,-6 218,-0 224,-0"/>
<path fill="#ccffcc" stroke="#ccffcc" d="M254,-0C260,-0 266,-6 266,-12"/>
<path fill="#ccffcc" stroke="#ccffcc" d="M266,-24C266,-30 260,-36 254,-36"/>
<polyline fill="none" stroke="#ccffcc" points="254,-36 224,-36 "/>
<path fill="none" stroke="#ccffcc" d="M224,-36C218,-36 212,-30 212,-24"/>
<polyline fill="none" stroke="#ccffcc" points="212,-24 212,-12 "/>
<path fill="none" stroke="#ccffcc" d="M212,-12C212,-6 218,-0 224,-0"/>
<polyline fill="none" stroke="#ccffcc" points="224,-0 254,-0 "/>
<path fill="none" stroke="#ccffcc" d="M254,-0C260,-0 266,-6 266,-12"/>
<polyline fill="none" stroke="#ccffcc" points="266,-12 266,-24 "/>
<path fill="none" stroke="#ccffcc" d="M266,-24C266,-30 260,-36 254,-36"/>
<text text-anchor="middle" x="239" y="-12.4" font-family="Helvetica,sans-Serif" font-size="14.00">Move</text>
</g>
<!-- initializeLocation&#45;&gt;moveHome -->
<g id="edge12" class="edge"><title>initializeLocation&#45;&gt;moveHome:nw</title>
<path fill="none" stroke="#14cc14" stroke-width="3" stroke-dasharray="5,2" d="M223.816,-215.961C216.37,-206.075 207.816,-193.032 203,-180 186.303,-134.82 178.768,-117.695 194,-72 197.656,-61.0308 201.383,-55.4393 206.608,-49.941"/>
<polygon fill="#14cc14" stroke="#14cc14" points="211.505,-54.9433 221,-36 201.764,-44.8876 211.505,-54.9433"/>
</g>
<!-- availableQuery -->
<g id="node11" class="node"><title>availableQuery</title>
<polygon fill="#ccffe2" stroke="#ccffe2" points="262.928,-108 215.072,-108 203.072,-96 203.072,-84 215.072,-72 262.928,-72 274.928,-84 274.928,-96 262.928,-108"/>
<path fill="#ccffe2" stroke="#ccffe2" d="M215.072,-108C209.072,-108 203.072,-102 203.072,-96"/>
<path fill="#ccffe2" stroke="#ccffe2" d="M203.072,-84C203.072,-78 209.072,-72 215.072,-72"/>
<path fill="#ccffe2" stroke="#ccffe2" d="M262.928,-72C268.928,-72 274.928,-78 274.928,-84"/>
<path fill="#ccffe2" stroke="#ccffe2" d="M274.928,-96C274.928,-102 268.928,-108 262.928,-108"/>
<polyline fill="none" stroke="#ccffe2" points="262.928,-108 215.072,-108 "/>
<path fill="none" stroke="#ccffe2" d="M215.072,-108C209.072,-108 203.072,-102 203.072,-96"/>
<polyline fill="none" stroke="#ccffe2" points="203.072,-96 203.072,-84 "/>
<path fill="none" stroke="#ccffe2" d="M203.072,-84C203.072,-78 209.072,-72 215.072,-72"/>
<polyline fill="none" stroke="#ccffe2" points="215.072,-72 262.928,-72 "/>
<path fill="none" stroke="#ccffe2" d="M262.928,-72C268.928,-72 274.928,-78 274.928,-84"/>
<polyline fill="none" stroke="#ccffe2" points="274.928,-84 274.928,-96 "/>
<path fill="none" stroke="#ccffe2" d="M274.928,-96C274.928,-102 268.928,-108 262.928,-108"/>
<text text-anchor="middle" x="239" y="-84.4" font-family="Helvetica,sans-Serif" font-size="14.00">Available</text>
</g>
<!-- home&#45;&gt;availableQuery -->
<g id="edge8" class="edge"><title>home&#45;&gt;availableQuery</title>
<path fill="none" stroke="#14cc65" stroke-width="3" d="M239,-143.697C239,-138.95 239,-133.613 239,-128.206"/>
<polygon fill="#14cc65" stroke="#14cc65" points="246,-128.104 239,-108.104 232,-128.104 246,-128.104"/>
</g>
<!-- home&#45;&gt;moveHome -->
<g id="edge14" class="edge"><title>home&#45;&gt;moveHome:ne</title>
<path fill="none" stroke="#14cc65" stroke-width="3" stroke-dasharray="5,2" d="M259.379,-143.531C268.807,-134.092 279.006,-121.597 284,-108 293.251,-82.8115 286.228,-67.6886 271.086,-50.6562"/>
<polygon fill="#14cc65" stroke="#14cc65" points="275.906,-45.5691 257,-36 265.812,-55.2704 275.906,-45.5691"/>
</g>
<!-- availableQuery&#45;&gt;moveHome -->
<g id="edge10" class="edge"><title>availableQuery&#45;&gt;moveHome</title>
<path fill="none" stroke="#14cc65" stroke-width="3" d="M239,-71.6966C239,-66.9496 239,-61.6132 239,-56.2063"/>
<polygon fill="#14cc65" stroke="#14cc65" points="246,-56.1043 239,-36.1043 232,-56.1044 246,-56.1043"/>
</g>
<!-- spatialResourcesnextHomeID -->
<g id="node16" class="node"><title>spatialResourcesnextHomeID</title>
<polygon fill="white" stroke="white" points="406,-180 302,-180 302,-144 406,-144 406,-180"/>
<text text-anchor="start" x="310.5" y="-156.5" font-family="Helvetica,sans-Serif" font-size="14.00">Next Home ID</text>
</g>
<!-- incrementNextHomeID -->
<g id="node22" class="node"><title>incrementNextHomeID</title>
<polygon fill="#ffcccc" stroke="#ffcccc" points="398.186,-108 343.814,-108 331.814,-96 331.814,-84 343.814,-72 398.186,-72 410.186,-84 410.186,-96 398.186,-108"/>
<path fill="#ffcccc" stroke="#ffcccc" d="M343.814,-108C337.814,-108 331.814,-102 331.814,-96"/>
<path fill="#ffcccc" stroke="#ffcccc" d="M331.814,-84C331.814,-78 337.814,-72 343.814,-72"/>
<path fill="#ffcccc" stroke="#ffcccc" d="M398.186,-72C404.186,-72 410.186,-78 410.186,-84"/>
<path fill="#ffcccc" stroke="#ffcccc" d="M410.186,-96C410.186,-102 404.186,-108 398.186,-108"/>
<polyline fill="none" stroke="#ffcccc" points="398.186,-108 343.814,-108 "/>
<path fill="none" stroke="#ffcccc" d="M343.814,-108C337.814,-108 331.814,-102 331.814,-96"/>
<polyline fill="none" stroke="#ffcccc" points="331.814,-96 331.814,-84 "/>
<path fill="none" stroke="#ffcccc" d="M331.814,-84C331.814,-78 337.814,-72 343.814,-72"/>
<polyline fill="none" stroke="#ffcccc" points="343.814,-72 398.186,-72 "/>
<path fill="none" stroke="#ffcccc" d="M398.186,-72C404.186,-72 410.186,-78 410.186,-84"/>
<polyline fill="none" stroke="#ffcccc" points="410.186,-84 410.186,-96 "/>
<path fill="none" stroke="#ffcccc" d="M410.186,-96C410.186,-102 404.186,-108 398.186,-108"/>
<text text-anchor="middle" x="371" y="-84.4" font-family="Helvetica,sans-Serif" font-size="14.00">Increment</text>
</g>
<!-- spatialResourcesnextHomeID&#45;&gt;incrementNextHomeID -->
<g id="edge24" class="edge"><title>spatialResourcesnextHomeID&#45;&gt;incrementNextHomeID:nw</title>
<path fill="none" stroke="black" stroke-width="2" stroke-dasharray="1,5" d="M347.958,-143.827C345.68,-134.671 344.478,-123.515 348.406,-114.728"/>
<ellipse fill="black" stroke="black" cx="350.744" cy="-111.303" rx="4.00002" ry="4.00002"/>
</g>
<!-- homehomeID -->
<g id="node17" class="node"><title>homehomeID</title>
<polygon fill="white" stroke="white" points="499.425,-108 428.575,-108 428.575,-72 499.425,-72 499.425,-108"/>
<text text-anchor="middle" x="464" y="-84.4" font-family="Helvetica,sans-Serif" font-size="14.00">Home ID</text>
</g>
<!-- initializeID -->
<g id="node18" class="node"><title>initializeID</title>
<a xlink:href="home_initializeID.svg" xlink:title="Initialize ID">
<polygon fill="#ffcccc" stroke="#ffcccc" points="393.352,-252 332.648,-252 320.648,-240 320.648,-228 332.648,-216 393.352,-216 405.352,-228 405.352,-240 393.352,-252"/>
<path fill="#ffcccc" stroke="#ffcccc" d="M332.648,-252C326.648,-252 320.648,-246 320.648,-240"/>
<path fill="#ffcccc" stroke="#ffcccc" d="M320.648,-228C320.648,-222 326.648,-216 332.648,-216"/>
<path fill="#ffcccc" stroke="#ffcccc" d="M393.352,-216C399.352,-216 405.352,-222 405.352,-228"/>
<path fill="#ffcccc" stroke="#ffcccc" d="M405.352,-240C405.352,-246 399.352,-252 393.352,-252"/>
<polyline fill="none" stroke="black" points="393.352,-252 332.648,-252 "/>
<path fill="none" stroke="black" d="M332.648,-252C326.648,-252 320.648,-246 320.648,-240"/>
<polyline fill="none" stroke="black" points="320.648,-240 320.648,-228 "/>
<path fill="none" stroke="black" d="M320.648,-228C320.648,-222 326.648,-216 332.648,-216"/>
<polyline fill="none" stroke="black" points="332.648,-216 393.352,-216 "/>
<path fill="none" stroke="black" d="M393.352,-216C399.352,-216 405.352,-222 405.352,-228"/>
<polyline fill="none" stroke="black" points="405.352,-228 405.352,-240 "/>
<path fill="none" stroke="black" d="M405.352,-240C405.352,-246 399.352,-252 393.352,-252"/>
<text text-anchor="middle" x="363" y="-228.4" font-family="Helvetica,sans-Serif" font-size="14.00">Initialize ID</text>
</a>
</g>
<!-- setHomeIDToNextHomeID -->
<g id="node20" class="node"><title>setHomeIDToNextHomeID</title>
<polygon fill="#ffcccc" stroke="#ffcccc" points="468,-180 438,-180 426,-168 426,-156 438,-144 468,-144 480,-156 480,-168 468,-180"/>
<path fill="#ffcccc" stroke="#ffcccc" d="M438,-180C432,-180 426,-174 426,-168"/>
<path fill="#ffcccc" stroke="#ffcccc" d="M426,-156C426,-150 432,-144 438,-144"/>
<path fill="#ffcccc" stroke="#ffcccc" d="M468,-144C474,-144 480,-150 480,-156"/>
<path fill="#ffcccc" stroke="#ffcccc" d="M480,-168C480,-174 474,-180 468,-180"/>
<polyline fill="none" stroke="#ffcccc" points="468,-180 438,-180 "/>
<path fill="none" stroke="#ffcccc" d="M438,-180C432,-180 426,-174 426,-168"/>
<polyline fill="none" stroke="#ffcccc" points="426,-168 426,-156 "/>
<path fill="none" stroke="#ffcccc" d="M426,-156C426,-150 432,-144 438,-144"/>
<polyline fill="none" stroke="#ffcccc" points="438,-144 468,-144 "/>
<path fill="none" stroke="#ffcccc" d="M468,-144C474,-144 480,-150 480,-156"/>
<polyline fill="none" stroke="#ffcccc" points="480,-156 480,-168 "/>
<path fill="none" stroke="#ffcccc" d="M480,-168C480,-174 474,-180 468,-180"/>
<text text-anchor="middle" x="453" y="-156.4" font-family="Helvetica,sans-Serif" font-size="14.00">Set</text>
</g>
<!-- initializeID&#45;&gt;setHomeIDToNextHomeID -->
<g id="edge16" class="edge"><title>initializeID&#45;&gt;setHomeIDToNextHomeID</title>
<path fill="none" stroke="#cc1414" stroke-width="3" d="M385.247,-215.697C394.293,-208.661 405.004,-200.33 415.207,-192.395"/>
<polygon fill="#cc1414" stroke="#cc1414" points="419.519,-197.909 431.009,-180.104 410.924,-186.858 419.519,-197.909"/>
</g>
<!-- setHomeIDToNextHomeID&#45;&gt;homehomeID -->
<g id="edge18" class="edge"><title>setHomeIDToNextHomeID&#45;&gt;homehomeID</title>
<path fill="none" stroke="#cc1414" stroke-width="3" d="M455.719,-143.697C456.478,-138.865 457.334,-133.422 458.199,-127.917"/>
<polygon fill="#cc1414" stroke="#cc1414" points="465.122,-128.949 461.312,-108.104 451.292,-126.775 465.122,-128.949"/>
</g>
<!-- setHomeIDToNextHomeID&#45;&gt;incrementNextHomeID -->
<g id="edge22" class="edge"><title>setHomeIDToNextHomeID&#45;&gt;incrementNextHomeID</title>
<path fill="none" stroke="#cc1414" stroke-width="3" d="M432.73,-143.697C424.786,-136.915 415.433,-128.931 406.443,-121.257"/>
<polygon fill="#cc1414" stroke="#cc1414" points="410.793,-115.766 391.037,-108.104 401.703,-126.414 410.793,-115.766"/>
</g>
<!-- incrementNextHomeID&#45;&gt;spatialResourcesnextHomeID -->
<g id="edge20" class="edge"><title>incrementNextHomeID&#45;&gt;spatialResourcesnextHomeID</title>
<path fill="none" stroke="#cc1414" stroke-width="3" d="M366.846,-108.104C365.656,-113.004 364.311,-118.543 362.95,-124.146"/>
<polygon fill="#cc1414" stroke="#cc1414" points="356.12,-122.61 358.202,-143.697 369.725,-125.914 356.12,-122.61"/>
</g>
<!-- importabcsetHomeIDToNextHomeIDspatialResourcesnextHomeID -->
<g id="node26" class="node"><title>importabcsetHomeIDToNextHomeIDspatialResourcesnextHomeID</title>
<text text-anchor="middle" x="475" y="-228.4" font-family="Helvetica,sans-Serif" font-size="14.00">Next Home ID</text>
</g>
<!-- importabcsetHomeIDToNextHomeIDspatialResourcesnextHomeID&#45;&gt;setHomeIDToNextHomeID -->
<g id="edge26" class="edge"><title>importabcsetHomeIDToNextHomeIDspatialResourcesnextHomeID&#45;&gt;setHomeIDToNextHomeID:ne</title>
<path fill="none" stroke="black" stroke-width="2" stroke-dasharray="1,5" d="M478.907,-215.842C480.132,-206.692 480.192,-195.538 475.804,-186.74"/>
<ellipse fill="black" stroke="black" cx="473.322" cy="-183.257" rx="4.00002" ry="4.00002"/>
</g>
</g>
</svg>
