<?xml version="1.0" encoding="UTF-8" standalone="no"?>
<!DOCTYPE svg PUBLIC "-//W3C//DTD SVG 1.1//EN"
 "http://www.w3.org/Graphics/SVG/1.1/DTD/svg11.dtd">
<!-- Generated by graphviz version 2.29.20110702.0445 (20110702.0445)
 -->
<!-- Title: home Pages: 1 -->
<svg width="164pt" height="316pt"
 viewBox="0.00 0.00 164.00 316.00" xmlns="http://www.w3.org/2000/svg" xmlns:xlink="http://www.w3.org/1999/xlink">
<g id="graph1" class="graph" transform="scale(1 1) rotate(0) translate(4 312)">
<title>home</title>
<polygon fill="white" stroke="white" points="-4,5 -4,-312 161,-312 161,5 -4,5"/>
<g id="graph4" class="cluster"><title>clusterInit</title>
<polygon fill="ghostwhite" stroke="white" points="8,-8 8,-300 148,-300 148,-8 8,-8"/>
<text text-anchor="middle" x="41.2896" y="-282" font-family="Helvetica,sans-Serif" font-size="14.00">Initialize</text>
</g>
<!-- iteration -->
<g id="node1" class="node"><title>iteration</title>
<polygon fill="lightgray" stroke="lightgray" points="93,-52 63,-52 51,-40 51,-28 63,-16 93,-16 105,-28 105,-40 93,-52"/>
<path fill="lightgray" stroke="lightgray" d="M63,-52C57,-52 51,-46 51,-40"/>
<path fill="lightgray" stroke="lightgray" d="M51,-28C51,-22 57,-16 63,-16"/>
<path fill="lightgray" stroke="lightgray" d="M93,-16C99,-16 105,-22 105,-28"/>
<path fill="lightgray" stroke="lightgray" d="M105,-40C105,-46 99,-52 93,-52"/>
<polyline fill="none" stroke="black" points="93,-52 63,-52 "/>
<path fill="none" stroke="black" d="M63,-52C57,-52 51,-46 51,-40"/>
<polyline fill="none" stroke="black" points="51,-40 51,-28 "/>
<path fill="none" stroke="black" d="M51,-28C51,-22 57,-16 63,-16"/>
<polyline fill="none" stroke="black" points="63,-16 93,-16 "/>
<path fill="none" stroke="black" d="M93,-16C99,-16 105,-22 105,-28"/>
<polyline fill="none" stroke="black" points="105,-28 105,-40 "/>
<path fill="none" stroke="black" d="M105,-40C105,-46 99,-52 93,-52"/>
<text text-anchor="middle" x="78" y="-28.4" font-family="Helvetica,sans-Serif" font-size="14.00">Step</text>
</g>
<!-- start -->
<g id="node2" class="node"><title>start</title>
<polygon fill="lightgray" stroke="lightgray" points="93,-268 63,-268 51,-256 51,-244 63,-232 93,-232 105,-244 105,-256 93,-268"/>
<path fill="lightgray" stroke="lightgray" d="M63,-268C57,-268 51,-262 51,-256"/>
<path fill="lightgray" stroke="lightgray" d="M51,-244C51,-238 57,-232 63,-232"/>
<path fill="lightgray" stroke="lightgray" d="M93,-232C99,-232 105,-238 105,-244"/>
<path fill="lightgray" stroke="lightgray" d="M105,-256C105,-262 99,-268 93,-268"/>
<polyline fill="none" stroke="black" points="93,-268 63,-268 "/>
<path fill="none" stroke="black" d="M63,-268C57,-268 51,-262 51,-256"/>
<polyline fill="none" stroke="black" points="51,-256 51,-244 "/>
<path fill="none" stroke="black" d="M51,-244C51,-238 57,-232 63,-232"/>
<polyline fill="none" stroke="black" points="63,-232 93,-232 "/>
<path fill="none" stroke="black" d="M93,-232C99,-232 105,-238 105,-244"/>
<polyline fill="none" stroke="black" points="105,-244 105,-256 "/>
<path fill="none" stroke="black" d="M105,-256C105,-262 99,-268 93,-268"/>
<text text-anchor="middle" x="78" y="-244.4" font-family="Helvetica,sans-Serif" font-size="14.00">Start</text>
</g>
<!-- initializeLocation -->
<g id="node6" class="node"><title>initializeLocation</title>
<a xlink:href="home_initializeLocation.svg" xlink:title="Initialize Location">
<polygon fill="#ccffcc" stroke="#ccffcc" points="127.549,-196 28.4509,-196 16.4509,-184 16.4509,-172 28.4509,-160 127.549,-160 139.549,-172 139.549,-184 127.549,-196"/>
<path fill="#ccffcc" stroke="#ccffcc" d="M28.4509,-196C22.4509,-196 16.4509,-190 16.4509,-184"/>
<path fill="#ccffcc" stroke="#ccffcc" d="M16.4509,-172C16.4509,-166 22.4509,-160 28.4509,-160"/>
<path fill="#ccffcc" stroke="#ccffcc" d="M127.549,-160C133.549,-160 139.549,-166 139.549,-172"/>
<path fill="#ccffcc" stroke="#ccffcc" d="M139.549,-184C139.549,-190 133.549,-196 127.549,-196"/>
<polyline fill="none" stroke="black" points="127.549,-196 28.4509,-196 "/>
<path fill="none" stroke="black" d="M28.4509,-196C22.4509,-196 16.4509,-190 16.4509,-184"/>
<polyline fill="none" stroke="black" points="16.4509,-184 16.4509,-172 "/>
<path fill="none" stroke="black" d="M16.4509,-172C16.4509,-166 22.4509,-160 28.4509,-160"/>
<polyline fill="none" stroke="black" points="28.4509,-160 127.549,-160 "/>
<path fill="none" stroke="black" d="M127.549,-160C133.549,-160 139.549,-166 139.549,-172"/>
<polyline fill="none" stroke="black" points="139.549,-172 139.549,-184 "/>
<path fill="none" stroke="black" d="M139.549,-184C139.549,-190 133.549,-196 127.549,-196"/>
<text text-anchor="middle" x="78" y="-172.4" font-family="Helvetica,sans-Serif" font-size="14.00">Initialize Location</text>
</a>
</g>
<!-- start&#45;&gt;initializeLocation -->
<g id="edge5" class="edge"><title>start&#45;&gt;initializeLocation</title>
<path fill="none" stroke="darkslategray" stroke-width="3" d="M78,-231.697C78,-223.983 78,-214.712 78,-206.112"/>
<polygon fill="darkslategray" stroke="darkslategray" points="81.5001,-206.104 78,-196.104 74.5001,-206.104 81.5001,-206.104"/>
</g>
<!-- initializeID -->
<g id="node7" class="node"><title>initializeID</title>
<a xlink:href="home_initializeID.svg" xlink:title="Initialize ID">
<polygon fill="#ffcccc" stroke="#ffcccc" points="108.352,-124 47.6478,-124 35.6478,-112 35.6478,-100 47.6478,-88 108.352,-88 120.352,-100 120.352,-112 108.352,-124"/>
<path fill="#ffcccc" stroke="#ffcccc" d="M47.6478,-124C41.6478,-124 35.6478,-118 35.6478,-112"/>
<path fill="#ffcccc" stroke="#ffcccc" d="M35.6478,-100C35.6478,-94 41.6478,-88 47.6478,-88"/>
<path fill="#ffcccc" stroke="#ffcccc" d="M108.352,-88C114.352,-88 120.352,-94 120.352,-100"/>
<path fill="#ffcccc" stroke="#ffcccc" d="M120.352,-112C120.352,-118 114.352,-124 108.352,-124"/>
<polyline fill="none" stroke="black" points="108.352,-124 47.6478,-124 "/>
<path fill="none" stroke="black" d="M47.6478,-124C41.6478,-124 35.6478,-118 35.6478,-112"/>
<polyline fill="none" stroke="black" points="35.6478,-112 35.6478,-100 "/>
<path fill="none" stroke="black" d="M35.6478,-100C35.6478,-94 41.6478,-88 47.6478,-88"/>
<polyline fill="none" stroke="black" points="47.6478,-88 108.352,-88 "/>
<path fill="none" stroke="black" d="M108.352,-88C114.352,-88 120.352,-94 120.352,-100"/>
<polyline fill="none" stroke="black" points="120.352,-100 120.352,-112 "/>
<path fill="none" stroke="black" d="M120.352,-112C120.352,-118 114.352,-124 108.352,-124"/>
<text text-anchor="middle" x="78" y="-100.4" font-family="Helvetica,sans-Serif" font-size="14.00">Initialize ID</text>
</a>
</g>
<!-- initializeLocation&#45;&gt;initializeID -->
<g id="edge6" class="edge"><title>initializeLocation&#45;&gt;initializeID</title>
<path fill="none" stroke="darkslategray" stroke-width="3" d="M78,-159.697C78,-151.983 78,-142.712 78,-134.112"/>
<polygon fill="darkslategray" stroke="darkslategray" points="81.5001,-134.104 78,-124.104 74.5001,-134.104 81.5001,-134.104"/>
</g>
<!-- initializeID&#45;&gt;iteration -->
<g id="edge7" class="edge"><title>initializeID&#45;&gt;iteration</title>
<path fill="none" stroke="darkslategray" stroke-width="3" d="M78,-87.6966C78,-79.9827 78,-70.7125 78,-62.1124"/>
<polygon fill="darkslategray" stroke="darkslategray" points="81.5001,-62.1043 78,-52.1043 74.5001,-62.1044 81.5001,-62.1043"/>
</g>
</g>
</svg>
