<?xml version="1.0" encoding="UTF-8" standalone="no"?>
<!DOCTYPE svg PUBLIC "-//W3C//DTD SVG 1.1//EN"
 "http://www.w3.org/Graphics/SVG/1.1/DTD/svg11.dtd">
<!-- Generated by graphviz version 2.29.20110702.0445 (20110702.0445)
 -->
<!-- Title: learningResource Pages: 1 -->
<svg width="164pt" height="388pt"
 viewBox="0.00 0.00 164.00 388.00" xmlns="http://www.w3.org/2000/svg" xmlns:xlink="http://www.w3.org/1999/xlink">
<g id="graph1" class="graph" transform="scale(1 1) rotate(0) translate(4 384)">
<title>learningResource</title>
<polygon fill="white" stroke="white" points="-4,5 -4,-384 161,-384 161,5 -4,5"/>
<g id="graph4" class="cluster"><title>clusterInit</title>
<polygon fill="ghostwhite" stroke="white" points="8,-8 8,-372 148,-372 148,-8 8,-8"/>
<text text-anchor="middle" x="41.2896" y="-354" font-family="Helvetica,sans-Serif" font-size="14.00">Initialize</text>
</g>
<!-- iteration -->
<g id="node1" class="node"><title>iteration</title>
<polygon fill="lightgray" stroke="lightgray" points="93,-52 63,-52 51,-40 51,-28 63,-16 93,-16 105,-28 105,-40 93,-52"/>
<path fill="lightgray" stroke="lightgray" d="M63,-52C57,-52 51,-46 51,-40"/>
<path fill="lightgray" stroke="lightgray" d="M51,-28C51,-22 57,-16 63,-16"/>
<path fill="lightgray" stroke="lightgray" d="M93,-16C99,-16 105,-22 105,-28"/>
<path fill="lightgray" stroke="lightgray" d="M105,-40C105,-46 99,-52 93,-52"/>
<polyline fill="none" stroke="black" points="93,-52 63,-52 "/>
<path fill="none" stroke="black" d="M63,-52C57,-52 51,-46 51,-40"/>
<polyline fill="none" stroke="black" points="51,-40 51,-28 "/>
<path fill="none" stroke="black" d="M51,-28C51,-22 57,-16 63,-16"/>
<polyline fill="none" stroke="black" points="63,-16 93,-16 "/>
<path fill="none" stroke="black" d="M93,-16C99,-16 105,-22 105,-28"/>
<polyline fill="none" stroke="black" points="105,-28 105,-40 "/>
<path fill="none" stroke="black" d="M105,-40C105,-46 99,-52 93,-52"/>
<text text-anchor="middle" x="78" y="-28.4" font-family="Helvetica,sans-Serif" font-size="14.00">Step</text>
</g>
<!-- start -->
<g id="node2" class="node"><title>start</title>
<polygon fill="lightgray" stroke="lightgray" points="93,-340 63,-340 51,-328 51,-316 63,-304 93,-304 105,-316 105,-328 93,-340"/>
<path fill="lightgray" stroke="lightgray" d="M63,-340C57,-340 51,-334 51,-328"/>
<path fill="lightgray" stroke="lightgray" d="M51,-316C51,-310 57,-304 63,-304"/>
<path fill="lightgray" stroke="lightgray" d="M93,-304C99,-304 105,-310 105,-316"/>
<path fill="lightgray" stroke="lightgray" d="M105,-328C105,-334 99,-340 93,-340"/>
<polyline fill="none" stroke="black" points="93,-340 63,-340 "/>
<path fill="none" stroke="black" d="M63,-340C57,-340 51,-334 51,-328"/>
<polyline fill="none" stroke="black" points="51,-328 51,-316 "/>
<path fill="none" stroke="black" d="M51,-316C51,-310 57,-304 63,-304"/>
<polyline fill="none" stroke="black" points="63,-304 93,-304 "/>
<path fill="none" stroke="black" d="M93,-304C99,-304 105,-310 105,-316"/>
<polyline fill="none" stroke="black" points="105,-316 105,-328 "/>
<path fill="none" stroke="black" d="M105,-328C105,-334 99,-340 93,-340"/>
<text text-anchor="middle" x="78" y="-316.4" font-family="Helvetica,sans-Serif" font-size="14.00">Start</text>
</g>
<!-- initializeLocation -->
<g id="node6" class="node"><title>initializeLocation</title>
<a xlink:href="learningResource_initializeLocation.svg" xlink:title="Initialize Location">
<polygon fill="#e5ffcc" stroke="#e5ffcc" points="127.549,-268 28.4509,-268 16.4509,-256 16.4509,-244 28.4509,-232 127.549,-232 139.549,-244 139.549,-256 127.549,-268"/>
<path fill="#e5ffcc" stroke="#e5ffcc" d="M28.4509,-268C22.4509,-268 16.4509,-262 16.4509,-256"/>
<path fill="#e5ffcc" stroke="#e5ffcc" d="M16.4509,-244C16.4509,-238 22.4509,-232 28.4509,-232"/>
<path fill="#e5ffcc" stroke="#e5ffcc" d="M127.549,-232C133.549,-232 139.549,-238 139.549,-244"/>
<path fill="#e5ffcc" stroke="#e5ffcc" d="M139.549,-256C139.549,-262 133.549,-268 127.549,-268"/>
<polyline fill="none" stroke="black" points="127.549,-268 28.4509,-268 "/>
<path fill="none" stroke="black" d="M28.4509,-268C22.4509,-268 16.4509,-262 16.4509,-256"/>
<polyline fill="none" stroke="black" points="16.4509,-256 16.4509,-244 "/>
<path fill="none" stroke="black" d="M16.4509,-244C16.4509,-238 22.4509,-232 28.4509,-232"/>
<polyline fill="none" stroke="black" points="28.4509,-232 127.549,-232 "/>
<path fill="none" stroke="black" d="M127.549,-232C133.549,-232 139.549,-238 139.549,-244"/>
<polyline fill="none" stroke="black" points="139.549,-244 139.549,-256 "/>
<path fill="none" stroke="black" d="M139.549,-256C139.549,-262 133.549,-268 127.549,-268"/>
<text text-anchor="middle" x="78" y="-244.4" font-family="Helvetica,sans-Serif" font-size="14.00">Initialize Location</text>
</a>
</g>
<!-- start&#45;&gt;initializeLocation -->
<g id="edge5" class="edge"><title>start&#45;&gt;initializeLocation</title>
<path fill="none" stroke="darkslategray" stroke-width="3" d="M78,-303.697C78,-295.983 78,-286.712 78,-278.112"/>
<polygon fill="darkslategray" stroke="darkslategray" points="81.5001,-278.104 78,-268.104 74.5001,-278.104 81.5001,-278.104"/>
</g>
<!-- initializeState -->
<g id="node7" class="node"><title>initializeState</title>
<a xlink:href="learningResource_initializeState.svg" xlink:title="Initialize State">
<polygon fill="#ccffff" stroke="#ccffff" points="117.368,-196 38.6317,-196 26.6317,-184 26.6317,-172 38.6317,-160 117.368,-160 129.368,-172 129.368,-184 117.368,-196"/>
<path fill="#ccffff" stroke="#ccffff" d="M38.6317,-196C32.6317,-196 26.6317,-190 26.6317,-184"/>
<path fill="#ccffff" stroke="#ccffff" d="M26.6317,-172C26.6317,-166 32.6317,-160 38.6317,-160"/>
<path fill="#ccffff" stroke="#ccffff" d="M117.368,-160C123.368,-160 129.368,-166 129.368,-172"/>
<path fill="#ccffff" stroke="#ccffff" d="M129.368,-184C129.368,-190 123.368,-196 117.368,-196"/>
<polyline fill="none" stroke="black" points="117.368,-196 38.6317,-196 "/>
<path fill="none" stroke="black" d="M38.6317,-196C32.6317,-196 26.6317,-190 26.6317,-184"/>
<polyline fill="none" stroke="black" points="26.6317,-184 26.6317,-172 "/>
<path fill="none" stroke="black" d="M26.6317,-172C26.6317,-166 32.6317,-160 38.6317,-160"/>
<polyline fill="none" stroke="black" points="38.6317,-160 117.368,-160 "/>
<path fill="none" stroke="black" d="M117.368,-160C123.368,-160 129.368,-166 129.368,-172"/>
<polyline fill="none" stroke="black" points="129.368,-172 129.368,-184 "/>
<path fill="none" stroke="black" d="M129.368,-184C129.368,-190 123.368,-196 117.368,-196"/>
<text text-anchor="middle" x="78" y="-172.4" font-family="Helvetica,sans-Serif" font-size="14.00">Initialize State</text>
</a>
</g>
<!-- initializeLocation&#45;&gt;initializeState -->
<g id="edge6" class="edge"><title>initializeLocation&#45;&gt;initializeState</title>
<path fill="none" stroke="darkslategray" stroke-width="3" d="M78,-231.697C78,-223.983 78,-214.712 78,-206.112"/>
<polygon fill="darkslategray" stroke="darkslategray" points="81.5001,-206.104 78,-196.104 74.5001,-206.104 81.5001,-206.104"/>
</g>
<!-- initializeID -->
<g id="node8" class="node"><title>initializeID</title>
<a xlink:href="learningResource_initializeID.svg" xlink:title="Initialize ID">
<polygon fill="#ffcccc" stroke="#ffcccc" points="108.352,-124 47.6478,-124 35.6478,-112 35.6478,-100 47.6478,-88 108.352,-88 120.352,-100 120.352,-112 108.352,-124"/>
<path fill="#ffcccc" stroke="#ffcccc" d="M47.6478,-124C41.6478,-124 35.6478,-118 35.6478,-112"/>
<path fill="#ffcccc" stroke="#ffcccc" d="M35.6478,-100C35.6478,-94 41.6478,-88 47.6478,-88"/>
<path fill="#ffcccc" stroke="#ffcccc" d="M108.352,-88C114.352,-88 120.352,-94 120.352,-100"/>
<path fill="#ffcccc" stroke="#ffcccc" d="M120.352,-112C120.352,-118 114.352,-124 108.352,-124"/>
<polyline fill="none" stroke="black" points="108.352,-124 47.6478,-124 "/>
<path fill="none" stroke="black" d="M47.6478,-124C41.6478,-124 35.6478,-118 35.6478,-112"/>
<polyline fill="none" stroke="black" points="35.6478,-112 35.6478,-100 "/>
<path fill="none" stroke="black" d="M35.6478,-100C35.6478,-94 41.6478,-88 47.6478,-88"/>
<polyline fill="none" stroke="black" points="47.6478,-88 108.352,-88 "/>
<path fill="none" stroke="black" d="M108.352,-88C114.352,-88 120.352,-94 120.352,-100"/>
<polyline fill="none" stroke="black" points="120.352,-100 120.352,-112 "/>
<path fill="none" stroke="black" d="M120.352,-112C120.352,-118 114.352,-124 108.352,-124"/>
<text text-anchor="middle" x="78" y="-100.4" font-family="Helvetica,sans-Serif" font-size="14.00">Initialize ID</text>
</a>
</g>
<!-- initializeState&#45;&gt;initializeID -->
<g id="edge7" class="edge"><title>initializeState&#45;&gt;initializeID</title>
<path fill="none" stroke="darkslategray" stroke-width="3" d="M78,-159.697C78,-151.983 78,-142.712 78,-134.112"/>
<polygon fill="darkslategray" stroke="darkslategray" points="81.5001,-134.104 78,-124.104 74.5001,-134.104 81.5001,-134.104"/>
</g>
<!-- initializeID&#45;&gt;iteration -->
<g id="edge8" class="edge"><title>initializeID&#45;&gt;iteration</title>
<path fill="none" stroke="darkslategray" stroke-width="3" d="M78,-87.6966C78,-79.9827 78,-70.7125 78,-62.1124"/>
<polygon fill="darkslategray" stroke="darkslategray" points="81.5001,-62.1043 78,-52.1043 74.5001,-62.1044 81.5001,-62.1043"/>
</g>
</g>
</svg>
