<?xml version="1.0" encoding="UTF-8" standalone="no"?>
<!DOCTYPE svg PUBLIC "-//W3C//DTD SVG 1.1//EN"
 "http://www.w3.org/Graphics/SVG/1.1/DTD/svg11.dtd">
<!-- Generated by graphviz version 2.29.20110702.0445 (20110702.0445)
 -->
<!-- Title: initializeLocation Pages: 1 -->
<svg width="639pt" height="369pt"
 viewBox="0.00 0.00 639.00 369.00" xmlns="http://www.w3.org/2000/svg" xmlns:xlink="http://www.w3.org/1999/xlink">
<g id="graph1" class="graph" transform="scale(1 1) rotate(0) translate(4 365)">
<title>initializeLocation</title>
<polygon fill="white" stroke="white" points="-4,5 -4,-365 636,-365 636,5 -4,5"/>
<g id="graph2" class="cluster"><title>clustercontextKey</title>
<polygon fill="ghostwhite" stroke="white" points="8,-299 8,-353 96,-353 96,-299 8,-299"/>
<text text-anchor="middle" x="52.1792" y="-335" font-family="Helvetica,sans-Serif" font-size="14.00">Parameters</text>
</g>
<g id="graph3" class="cluster"><title>clusterlearningResourceKey</title>
<polygon fill="ghostwhite" stroke="white" points="104,-299 104,-353 238,-353 238,-299 104,-299"/>
<text text-anchor="middle" x="171.148" y="-335" font-family="Helvetica,sans-Serif" font-size="14.00">Learning Resource</text>
</g>
<!-- contextOverview -->
<g id="node2" class="node"><title>contextOverview</title>
<ellipse fill="black" stroke="black" cx="52" cy="-314" rx="7.2" ry="7.2"/>
</g>
<!-- initializeLocationOverview -->
<g id="node4" class="node"><title>initializeLocationOverview</title>
<a xlink:href="learningResource__Overview.svg">
<ellipse fill="#70cc14" stroke="#70cc14" cx="170" cy="-314" rx="7.2" ry="7.2"/>
</a>
</g>
<!-- spatialResourcesresourceDistributionRecord -->
<g id="node5" class="node"><title>spatialResourcesresourceDistributionRecord</title>
<polygon fill="white" stroke="none" points="388.014,-289.2 388.014,-338.8 593.986,-338.8 593.986,-289.2 388.014,-289.2"/>
<text text-anchor="middle" x="491" y="-320.8" font-family="Helvetica,sans-Serif" font-size="14.00">Resource Distribution</text>
<polyline fill="none" stroke="none" points="388.014,-314 593.986,-314 "/>
<text text-anchor="middle" x="420.528" y="-296" font-family="Helvetica,sans-Serif" font-size="14.00">Regular</text>
<polyline fill="none" stroke="none" points="453.042,-289.2 453.042,-314 "/>
<text text-anchor="middle" x="489.055" y="-296" font-family="Helvetica,sans-Serif" font-size="14.00">Clumped</text>
<polyline fill="none" stroke="none" points="525.069,-289.2 525.069,-314 "/>
<text text-anchor="middle" x="559.527" y="-296" font-family="Helvetica,sans-Serif" font-size="14.00">Random</text>
</g>
<!-- randomPlacement -->
<g id="node8" class="node"><title>randomPlacement</title>
<polygon fill="#e5ffcc" stroke="#e5ffcc" points="557,-252 527,-252 515,-240 515,-228 527,-216 557,-216 569,-228 569,-240 557,-252"/>
<path fill="#e5ffcc" stroke="#e5ffcc" d="M527,-252C521,-252 515,-246 515,-240"/>
<path fill="#e5ffcc" stroke="#e5ffcc" d="M515,-228C515,-222 521,-216 527,-216"/>
<path fill="#e5ffcc" stroke="#e5ffcc" d="M557,-216C563,-216 569,-222 569,-228"/>
<path fill="#e5ffcc" stroke="#e5ffcc" d="M569,-240C569,-246 563,-252 557,-252"/>
<polyline fill="none" stroke="#e5ffcc" points="557,-252 527,-252 "/>
<path fill="none" stroke="#e5ffcc" d="M527,-252C521,-252 515,-246 515,-240"/>
<polyline fill="none" stroke="#e5ffcc" points="515,-240 515,-228 "/>
<path fill="none" stroke="#e5ffcc" d="M515,-228C515,-222 521,-216 527,-216"/>
<polyline fill="none" stroke="#e5ffcc" points="527,-216 557,-216 "/>
<path fill="none" stroke="#e5ffcc" d="M557,-216C563,-216 569,-222 569,-228"/>
<polyline fill="none" stroke="#e5ffcc" points="569,-228 569,-240 "/>
<path fill="none" stroke="#e5ffcc" d="M569,-240C569,-246 563,-252 557,-252"/>
<text text-anchor="middle" x="542" y="-228.4" font-family="Helvetica,sans-Serif" font-size="14.00">Is?</text>
</g>
<!-- spatialResourcesresourceDistributionRecord&#45;&gt;randomPlacement -->
<g id="edge26" class="edge"><title>spatialResourcesresourceDistributionRecord:spatialResourcesresourceDistributionrandom&#45;&gt;randomPlacement:ne</title>
<path fill="none" stroke="#70cc14" stroke-width="2" stroke-dasharray="1,5" d="M560,-288C560,-275.5 566.905,-267.464 564.532,-259.152"/>
<ellipse fill="#70cc14" stroke="#70cc14" cx="562.141" cy="-255.379" rx="4.00002" ry="4.00002"/>
</g>
<!-- regularPlacement -->
<g id="node10" class="node"><title>regularPlacement</title>
<polygon fill="#e5ffcc" stroke="#e5ffcc" points="347,-252 317,-252 305,-240 305,-228 317,-216 347,-216 359,-228 359,-240 347,-252"/>
<path fill="#e5ffcc" stroke="#e5ffcc" d="M317,-252C311,-252 305,-246 305,-240"/>
<path fill="#e5ffcc" stroke="#e5ffcc" d="M305,-228C305,-222 311,-216 317,-216"/>
<path fill="#e5ffcc" stroke="#e5ffcc" d="M347,-216C353,-216 359,-222 359,-228"/>
<path fill="#e5ffcc" stroke="#e5ffcc" d="M359,-240C359,-246 353,-252 347,-252"/>
<polyline fill="none" stroke="#e5ffcc" points="347,-252 317,-252 "/>
<path fill="none" stroke="#e5ffcc" d="M317,-252C311,-252 305,-246 305,-240"/>
<polyline fill="none" stroke="#e5ffcc" points="305,-240 305,-228 "/>
<path fill="none" stroke="#e5ffcc" d="M305,-228C305,-222 311,-216 317,-216"/>
<polyline fill="none" stroke="#e5ffcc" points="317,-216 347,-216 "/>
<path fill="none" stroke="#e5ffcc" d="M347,-216C353,-216 359,-222 359,-228"/>
<polyline fill="none" stroke="#e5ffcc" points="359,-228 359,-240 "/>
<path fill="none" stroke="#e5ffcc" d="M359,-240C359,-246 353,-252 347,-252"/>
<text text-anchor="middle" x="332" y="-228.4" font-family="Helvetica,sans-Serif" font-size="14.00">Is?</text>
</g>
<!-- spatialResourcesresourceDistributionRecord&#45;&gt;regularPlacement -->
<g id="edge28" class="edge"><title>spatialResourcesresourceDistributionRecord:spatialResourcesresourceDistributionregular&#45;&gt;regularPlacement:ne</title>
<path fill="none" stroke="#70cc14" stroke-width="2" stroke-dasharray="1,5" d="M387,-302C379.603,-302 382.275,-294.037 378,-288 368.024,-273.914 365.128,-268.106 355.637,-257.841"/>
<ellipse fill="#70cc14" stroke="#70cc14" cx="352.778" cy="-254.878" rx="4.00002" ry="4.00002"/>
</g>
<!-- clumpedPlacement -->
<g id="node12" class="node"><title>clumpedPlacement</title>
<polygon fill="#e5ffcc" stroke="#e5ffcc" points="463,-252 433,-252 421,-240 421,-228 433,-216 463,-216 475,-228 475,-240 463,-252"/>
<path fill="#e5ffcc" stroke="#e5ffcc" d="M433,-252C427,-252 421,-246 421,-240"/>
<path fill="#e5ffcc" stroke="#e5ffcc" d="M421,-228C421,-222 427,-216 433,-216"/>
<path fill="#e5ffcc" stroke="#e5ffcc" d="M463,-216C469,-216 475,-222 475,-228"/>
<path fill="#e5ffcc" stroke="#e5ffcc" d="M475,-240C475,-246 469,-252 463,-252"/>
<polyline fill="none" stroke="#e5ffcc" points="463,-252 433,-252 "/>
<path fill="none" stroke="#e5ffcc" d="M433,-252C427,-252 421,-246 421,-240"/>
<polyline fill="none" stroke="#e5ffcc" points="421,-240 421,-228 "/>
<path fill="none" stroke="#e5ffcc" d="M421,-228C421,-222 427,-216 433,-216"/>
<polyline fill="none" stroke="#e5ffcc" points="433,-216 463,-216 "/>
<path fill="none" stroke="#e5ffcc" d="M463,-216C469,-216 475,-222 475,-228"/>
<polyline fill="none" stroke="#e5ffcc" points="475,-228 475,-240 "/>
<path fill="none" stroke="#e5ffcc" d="M475,-240C475,-246 469,-252 463,-252"/>
<text text-anchor="middle" x="448" y="-228.4" font-family="Helvetica,sans-Serif" font-size="14.00">Is?</text>
</g>
<!-- spatialResourcesresourceDistributionRecord&#45;&gt;clumpedPlacement -->
<g id="edge24" class="edge"><title>spatialResourcesresourceDistributionRecord:spatialResourcesresourceDistributionclumped&#45;&gt;clumpedPlacement:ne</title>
<path fill="none" stroke="#70cc14" stroke-width="2" stroke-dasharray="1,5" d="M489,-288C489,-271.98 482.184,-266.923 471.989,-257.669"/>
<ellipse fill="#70cc14" stroke="#70cc14" cx="468.905" cy="-254.75" rx="4.00002" ry="4.00002"/>
</g>
<!-- initializeLocation -->
<g id="node6" class="node"><title>initializeLocation</title>
<a xlink:href="learningResource_initializeLocation.svg" xlink:title="Initialize Location">
<polygon fill="#e5ffcc" stroke="#e5ffcc" points="357.549,-332 258.451,-332 246.451,-320 246.451,-308 258.451,-296 357.549,-296 369.549,-308 369.549,-320 357.549,-332"/>
<path fill="#e5ffcc" stroke="#e5ffcc" d="M258.451,-332C252.451,-332 246.451,-326 246.451,-320"/>
<path fill="#e5ffcc" stroke="#e5ffcc" d="M246.451,-308C246.451,-302 252.451,-296 258.451,-296"/>
<path fill="#e5ffcc" stroke="#e5ffcc" d="M357.549,-296C363.549,-296 369.549,-302 369.549,-308"/>
<path fill="#e5ffcc" stroke="#e5ffcc" d="M369.549,-320C369.549,-326 363.549,-332 357.549,-332"/>
<polyline fill="none" stroke="black" points="357.549,-332 258.451,-332 "/>
<path fill="none" stroke="black" d="M258.451,-332C252.451,-332 246.451,-326 246.451,-320"/>
<polyline fill="none" stroke="black" points="246.451,-320 246.451,-308 "/>
<path fill="none" stroke="black" d="M246.451,-308C246.451,-302 252.451,-296 258.451,-296"/>
<polyline fill="none" stroke="black" points="258.451,-296 357.549,-296 "/>
<path fill="none" stroke="black" d="M357.549,-296C363.549,-296 369.549,-302 369.549,-308"/>
<polyline fill="none" stroke="black" points="369.549,-308 369.549,-320 "/>
<path fill="none" stroke="black" d="M369.549,-320C369.549,-326 363.549,-332 357.549,-332"/>
<text text-anchor="middle" x="308" y="-308.4" font-family="Helvetica,sans-Serif" font-size="14.00">Initialize Location</text>
</a>
</g>
<!-- initializeLocation&#45;&gt;randomPlacement -->
<g id="edge4" class="edge"><title>initializeLocation&#45;&gt;randomPlacement</title>
<path fill="none" stroke="#70cc14" stroke-width="3" d="M356.067,-295.898C363.728,-293.224 371.573,-290.515 379,-288 418.26,-274.707 463.054,-260.189 495.736,-249.714"/>
<polygon fill="#70cc14" stroke="#70cc14" points="497.903,-256.371 514.823,-243.615 493.641,-243.035 497.903,-256.371"/>
</g>
<!-- initializeLocation&#45;&gt;regularPlacement -->
<g id="edge6" class="edge"><title>initializeLocation&#45;&gt;regularPlacement</title>
<path fill="none" stroke="#70cc14" stroke-width="3" d="M313.326,-295.689C315.532,-288.519 318.18,-279.916 320.778,-271.471"/>
<polygon fill="#70cc14" stroke="#70cc14" points="327.497,-273.437 326.689,-252.262 314.116,-269.319 327.497,-273.437"/>
</g>
<!-- initializeLocation&#45;&gt;clumpedPlacement -->
<g id="edge8" class="edge"><title>initializeLocation&#45;&gt;clumpedPlacement</title>
<path fill="none" stroke="#70cc14" stroke-width="3" d="M338.724,-295.883C357.553,-285.392 381.989,-271.777 402.978,-260.084"/>
<polygon fill="#70cc14" stroke="#70cc14" points="406.599,-266.079 420.664,-250.23 399.786,-253.849 406.599,-266.079"/>
</g>
<!-- placeRandom -->
<g id="node15" class="node"><title>placeRandom</title>
<polygon fill="#e5ffcc" stroke="#e5ffcc" points="515,-36 485,-36 473,-24 473,-12 485,-0 515,-0 527,-12 527,-24 515,-36"/>
<path fill="#e5ffcc" stroke="#e5ffcc" d="M485,-36C479,-36 473,-30 473,-24"/>
<path fill="#e5ffcc" stroke="#e5ffcc" d="M473,-12C473,-6 479,-0 485,-0"/>
<path fill="#e5ffcc" stroke="#e5ffcc" d="M515,-0C521,-0 527,-6 527,-12"/>
<path fill="#e5ffcc" stroke="#e5ffcc" d="M527,-24C527,-30 521,-36 515,-36"/>
<polyline fill="none" stroke="#e5ffcc" points="515,-36 485,-36 "/>
<path fill="none" stroke="#e5ffcc" d="M485,-36C479,-36 473,-30 473,-24"/>
<polyline fill="none" stroke="#e5ffcc" points="473,-24 473,-12 "/>
<path fill="none" stroke="#e5ffcc" d="M473,-12C473,-6 479,-0 485,-0"/>
<polyline fill="none" stroke="#e5ffcc" points="485,-0 515,-0 "/>
<path fill="none" stroke="#e5ffcc" d="M515,-0C521,-0 527,-6 527,-12"/>
<polyline fill="none" stroke="#e5ffcc" points="527,-12 527,-24 "/>
<path fill="none" stroke="#e5ffcc" d="M527,-24C527,-30 521,-36 515,-36"/>
<text text-anchor="middle" x="500" y="-12.4" font-family="Helvetica,sans-Serif" font-size="14.00">Move</text>
</g>
<!-- initializeLocation&#45;&gt;placeRandom -->
<g id="edge16" class="edge"><title>initializeLocation&#45;&gt;placeRandom:nw</title>
<path fill="none" stroke="#70cc14" stroke-width="3" stroke-dasharray="5,2" d="M293.981,-295.942C269.534,-263.992 224.567,-193.858 256,-144 311.543,-55.8979 392.068,-107.014 466.675,-49.5122"/>
<polygon fill="#70cc14" stroke="#70cc14" points="471.628,-54.4775 482,-36 462.369,-43.9763 471.628,-54.4775"/>
</g>
<!-- learningResource -->
<g id="node19" class="node"><title>learningResource</title>
<polygon fill="#ceffcc" stroke="#ceffcc" points="619.222,-180 508.778,-180 496.778,-168 496.778,-156 508.778,-144 619.222,-144 631.222,-156 631.222,-168 619.222,-180"/>
<path fill="#ceffcc" stroke="#ceffcc" d="M508.778,-180C502.778,-180 496.778,-174 496.778,-168"/>
<path fill="#ceffcc" stroke="#ceffcc" d="M496.778,-156C496.778,-150 502.778,-144 508.778,-144"/>
<path fill="#ceffcc" stroke="#ceffcc" d="M619.222,-144C625.222,-144 631.222,-150 631.222,-156"/>
<path fill="#ceffcc" stroke="#ceffcc" d="M631.222,-168C631.222,-174 625.222,-180 619.222,-180"/>
<polyline fill="none" stroke="gray" points="619.222,-180 508.778,-180 "/>
<path fill="none" stroke="gray" d="M508.778,-180C502.778,-180 496.778,-174 496.778,-168"/>
<polyline fill="none" stroke="gray" points="496.778,-168 496.778,-156 "/>
<path fill="none" stroke="gray" d="M496.778,-156C496.778,-150 502.778,-144 508.778,-144"/>
<polyline fill="none" stroke="gray" points="508.778,-144 619.222,-144 "/>
<path fill="none" stroke="gray" d="M619.222,-144C625.222,-144 631.222,-150 631.222,-156"/>
<polyline fill="none" stroke="gray" points="631.222,-156 631.222,-168 "/>
<path fill="none" stroke="gray" d="M631.222,-168C631.222,-174 625.222,-180 619.222,-180"/>
<text text-anchor="middle" x="564" y="-156.4" font-family="Helvetica,sans-Serif" font-size="14.00">Learning Resource</text>
</g>
<!-- randomPlacement&#45;&gt;learningResource -->
<g id="edge14" class="edge"><title>randomPlacement&#45;&gt;learningResource</title>
<path fill="none" stroke="#70cc14" stroke-width="3" d="M547.438,-215.697C549.01,-210.695 550.788,-205.04 552.58,-199.337"/>
<polygon fill="#70cc14" stroke="#70cc14" points="559.306,-201.283 558.624,-180.104 545.95,-197.085 559.306,-201.283"/>
</g>
<!-- regularMovement -->
<g id="node23" class="node"><title>regularMovement</title>
<polygon fill="#e5ffcc" stroke="#e5ffcc" points="387.207,-180 276.793,-180 264.793,-168 264.793,-156 276.793,-144 387.207,-144 399.207,-156 399.207,-168 387.207,-180"/>
<path fill="#e5ffcc" stroke="#e5ffcc" d="M276.793,-180C270.793,-180 264.793,-174 264.793,-168"/>
<path fill="#e5ffcc" stroke="#e5ffcc" d="M264.793,-156C264.793,-150 270.793,-144 276.793,-144"/>
<path fill="#e5ffcc" stroke="#e5ffcc" d="M387.207,-144C393.207,-144 399.207,-150 399.207,-156"/>
<path fill="#e5ffcc" stroke="#e5ffcc" d="M399.207,-168C399.207,-174 393.207,-180 387.207,-180"/>
<polyline fill="none" stroke="#e5ffcc" points="387.207,-180 276.793,-180 "/>
<path fill="none" stroke="#e5ffcc" d="M276.793,-180C270.793,-180 264.793,-174 264.793,-168"/>
<polyline fill="none" stroke="#e5ffcc" points="264.793,-168 264.793,-156 "/>
<path fill="none" stroke="#e5ffcc" d="M264.793,-156C264.793,-150 270.793,-144 276.793,-144"/>
<polyline fill="none" stroke="#e5ffcc" points="276.793,-144 387.207,-144 "/>
<path fill="none" stroke="#e5ffcc" d="M387.207,-144C393.207,-144 399.207,-150 399.207,-156"/>
<polyline fill="none" stroke="#e5ffcc" points="399.207,-156 399.207,-168 "/>
<path fill="none" stroke="#e5ffcc" d="M399.207,-168C399.207,-174 393.207,-180 387.207,-180"/>
<text text-anchor="middle" x="332" y="-156.4" font-family="Helvetica,sans-Serif" font-size="14.00">Regular Movement</text>
</g>
<!-- regularPlacement&#45;&gt;regularMovement -->
<g id="edge20" class="edge"><title>regularPlacement&#45;&gt;regularMovement</title>
<path fill="none" stroke="#70cc14" stroke-width="3" d="M332,-215.697C332,-210.95 332,-205.613 332,-200.206"/>
<polygon fill="#70cc14" stroke="#70cc14" points="339,-200.104 332,-180.104 325,-200.104 339,-200.104"/>
</g>
<!-- method -->
<g id="node17" class="node"><title>method</title>
<polygon fill="#e5ffcc" stroke="#e5ffcc" points="467.024,-180 428.976,-180 416.976,-168 416.976,-156 428.976,-144 467.024,-144 479.024,-156 479.024,-168 467.024,-180"/>
<path fill="#e5ffcc" stroke="#e5ffcc" d="M428.976,-180C422.976,-180 416.976,-174 416.976,-168"/>
<path fill="#e5ffcc" stroke="#e5ffcc" d="M416.976,-156C416.976,-150 422.976,-144 428.976,-144"/>
<path fill="#e5ffcc" stroke="#e5ffcc" d="M467.024,-144C473.024,-144 479.024,-150 479.024,-156"/>
<path fill="#e5ffcc" stroke="#e5ffcc" d="M479.024,-168C479.024,-174 473.024,-180 467.024,-180"/>
<polyline fill="none" stroke="#e5ffcc" points="467.024,-180 428.976,-180 "/>
<path fill="none" stroke="#e5ffcc" d="M428.976,-180C422.976,-180 416.976,-174 416.976,-168"/>
<polyline fill="none" stroke="#e5ffcc" points="416.976,-168 416.976,-156 "/>
<path fill="none" stroke="#e5ffcc" d="M416.976,-156C416.976,-150 422.976,-144 428.976,-144"/>
<polyline fill="none" stroke="#e5ffcc" points="428.976,-144 467.024,-144 "/>
<path fill="none" stroke="#e5ffcc" d="M467.024,-144C473.024,-144 479.024,-150 479.024,-156"/>
<polyline fill="none" stroke="#e5ffcc" points="479.024,-156 479.024,-168 "/>
<path fill="none" stroke="#e5ffcc" d="M479.024,-168C479.024,-174 473.024,-180 467.024,-180"/>
<text text-anchor="middle" x="448" y="-156.4" font-family="Helvetica,sans-Serif" font-size="14.00">Method</text>
</g>
<!-- clumpedPlacement&#45;&gt;method -->
<g id="edge12" class="edge"><title>clumpedPlacement&#45;&gt;method</title>
<path fill="none" stroke="#70cc14" stroke-width="3" d="M448,-215.697C448,-210.95 448,-205.613 448,-200.206"/>
<polygon fill="#70cc14" stroke="#70cc14" points="455,-200.104 448,-180.104 441,-200.104 455,-200.104"/>
</g>
<!-- availableQuery -->
<g id="node13" class="node"><title>availableQuery</title>
<polygon fill="#ceffcc" stroke="#ceffcc" points="523.928,-108 476.072,-108 464.072,-96 464.072,-84 476.072,-72 523.928,-72 535.928,-84 535.928,-96 523.928,-108"/>
<path fill="#ceffcc" stroke="#ceffcc" d="M476.072,-108C470.072,-108 464.072,-102 464.072,-96"/>
<path fill="#ceffcc" stroke="#ceffcc" d="M464.072,-84C464.072,-78 470.072,-72 476.072,-72"/>
<path fill="#ceffcc" stroke="#ceffcc" d="M523.928,-72C529.928,-72 535.928,-78 535.928,-84"/>
<path fill="#ceffcc" stroke="#ceffcc" d="M535.928,-96C535.928,-102 529.928,-108 523.928,-108"/>
<polyline fill="none" stroke="#ceffcc" points="523.928,-108 476.072,-108 "/>
<path fill="none" stroke="#ceffcc" d="M476.072,-108C470.072,-108 464.072,-102 464.072,-96"/>
<polyline fill="none" stroke="#ceffcc" points="464.072,-96 464.072,-84 "/>
<path fill="none" stroke="#ceffcc" d="M464.072,-84C464.072,-78 470.072,-72 476.072,-72"/>
<polyline fill="none" stroke="#ceffcc" points="476.072,-72 523.928,-72 "/>
<path fill="none" stroke="#ceffcc" d="M523.928,-72C529.928,-72 535.928,-78 535.928,-84"/>
<polyline fill="none" stroke="#ceffcc" points="535.928,-84 535.928,-96 "/>
<path fill="none" stroke="#ceffcc" d="M535.928,-96C535.928,-102 529.928,-108 523.928,-108"/>
<text text-anchor="middle" x="500" y="-84.4" font-family="Helvetica,sans-Serif" font-size="14.00">Available</text>
</g>
<!-- availableQuery&#45;&gt;placeRandom -->
<g id="edge10" class="edge"><title>availableQuery&#45;&gt;placeRandom</title>
<path fill="none" stroke="#1ecc14" stroke-width="3" d="M500,-71.6966C500,-66.9496 500,-61.6132 500,-56.2063"/>
<polygon fill="#1ecc14" stroke="#1ecc14" points="507,-56.1043 500,-36.1043 493,-56.1044 507,-56.1043"/>
</g>
<!-- learningResource&#45;&gt;availableQuery -->
<g id="edge22" class="edge"><title>learningResource&#45;&gt;availableQuery</title>
<path fill="none" stroke="#1ecc14" stroke-width="3" d="M548.18,-143.697C542.445,-137.424 535.768,-130.122 529.246,-122.988"/>
<polygon fill="#1ecc14" stroke="#1ecc14" points="534.3,-118.142 515.638,-108.104 523.967,-127.588 534.3,-118.142"/>
</g>
<!-- learningResource&#45;&gt;placeRandom -->
<g id="edge18" class="edge"><title>learningResource&#45;&gt;placeRandom:ne</title>
<path fill="none" stroke="#1ecc14" stroke-width="3" stroke-dasharray="5,2" d="M562.559,-143.917C560.509,-125.478 555.729,-95.5857 545,-72 540.342,-61.7597 536.856,-56.1238 532.18,-50.6354"/>
<polygon fill="#1ecc14" stroke="#1ecc14" points="536.944,-45.4929 518,-36 526.89,-55.2348 536.944,-45.4929"/>
</g>
</g>
</svg>
