<?xml version="1.0" encoding="UTF-8" standalone="no"?>
<!DOCTYPE svg PUBLIC "-//W3C//DTD SVG 1.1//EN"
 "http://www.w3.org/Graphics/SVG/1.1/DTD/svg11.dtd">
<!-- Generated by graphviz version 2.29.20110702.0445 (20110702.0445)
 -->
<!-- Title: initializeLocation Pages: 1 -->
<svg width="431pt" height="289pt"
 viewBox="0.00 0.00 431.00 289.00" xmlns="http://www.w3.org/2000/svg" xmlns:xlink="http://www.w3.org/1999/xlink">
<g id="graph1" class="graph" transform="scale(1 1) rotate(0) translate(4 285)">
<title>initializeLocation</title>
<polygon fill="white" stroke="white" points="-4,5 -4,-285 428,-285 428,5 -4,5"/>
<g id="graph2" class="cluster"><title>clustercontextKey</title>
<polygon fill="ghostwhite" stroke="white" points="8,-219 8,-273 96,-273 96,-219 8,-219"/>
<text text-anchor="middle" x="52.1792" y="-255" font-family="Helvetica,sans-Serif" font-size="14.00">Parameters</text>
</g>
<g id="graph3" class="cluster"><title>clusterlearningResourceKey</title>
<polygon fill="ghostwhite" stroke="white" points="104,-219 104,-273 238,-273 238,-219 104,-219"/>
<text text-anchor="middle" x="171.148" y="-255" font-family="Helvetica,sans-Serif" font-size="14.00">Learning Resource</text>
</g>
<!-- contextOverview -->
<g id="node2" class="node"><title>contextOverview</title>
<ellipse fill="black" stroke="black" cx="52" cy="-234" rx="7.2" ry="7.2"/>
</g>
<!-- initializeLocationOverview -->
<g id="node4" class="node"><title>initializeLocationOverview</title>
<a xlink:href="learningResource__Overview.svg">
<ellipse fill="#70cc14" stroke="#70cc14" cx="170" cy="-234" rx="7.2" ry="7.2"/>
</a>
</g>
<!-- initializeLocation -->
<g id="node5" class="node"><title>initializeLocation</title>
<a xlink:href="learningResource_initializeLocation.svg" xlink:title="Initialize Location">
<polygon fill="#e5ffcc" stroke="#e5ffcc" points="357.549,-252 258.451,-252 246.451,-240 246.451,-228 258.451,-216 357.549,-216 369.549,-228 369.549,-240 357.549,-252"/>
<path fill="#e5ffcc" stroke="#e5ffcc" d="M258.451,-252C252.451,-252 246.451,-246 246.451,-240"/>
<path fill="#e5ffcc" stroke="#e5ffcc" d="M246.451,-228C246.451,-222 252.451,-216 258.451,-216"/>
<path fill="#e5ffcc" stroke="#e5ffcc" d="M357.549,-216C363.549,-216 369.549,-222 369.549,-228"/>
<path fill="#e5ffcc" stroke="#e5ffcc" d="M369.549,-240C369.549,-246 363.549,-252 357.549,-252"/>
<polyline fill="none" stroke="black" points="357.549,-252 258.451,-252 "/>
<path fill="none" stroke="black" d="M258.451,-252C252.451,-252 246.451,-246 246.451,-240"/>
<polyline fill="none" stroke="black" points="246.451,-240 246.451,-228 "/>
<path fill="none" stroke="black" d="M246.451,-228C246.451,-222 252.451,-216 258.451,-216"/>
<polyline fill="none" stroke="black" points="258.451,-216 357.549,-216 "/>
<path fill="none" stroke="black" d="M357.549,-216C363.549,-216 369.549,-222 369.549,-228"/>
<polyline fill="none" stroke="black" points="369.549,-228 369.549,-240 "/>
<path fill="none" stroke="black" d="M369.549,-240C369.549,-246 363.549,-252 357.549,-252"/>
<text text-anchor="middle" x="308" y="-228.4" font-family="Helvetica,sans-Serif" font-size="14.00">Initialize Location</text>
</a>
</g>
<!-- learningResource -->
<g id="node7" class="node"><title>learningResource</title>
<polygon fill="#ceffcc" stroke="#ceffcc" points="411.222,-180 300.778,-180 288.778,-168 288.778,-156 300.778,-144 411.222,-144 423.222,-156 423.222,-168 411.222,-180"/>
<path fill="#ceffcc" stroke="#ceffcc" d="M300.778,-180C294.778,-180 288.778,-174 288.778,-168"/>
<path fill="#ceffcc" stroke="#ceffcc" d="M288.778,-156C288.778,-150 294.778,-144 300.778,-144"/>
<path fill="#ceffcc" stroke="#ceffcc" d="M411.222,-144C417.222,-144 423.222,-150 423.222,-156"/>
<path fill="#ceffcc" stroke="#ceffcc" d="M423.222,-168C423.222,-174 417.222,-180 411.222,-180"/>
<polyline fill="none" stroke="gray" points="411.222,-180 300.778,-180 "/>
<path fill="none" stroke="gray" d="M300.778,-180C294.778,-180 288.778,-174 288.778,-168"/>
<polyline fill="none" stroke="gray" points="288.778,-168 288.778,-156 "/>
<path fill="none" stroke="gray" d="M288.778,-156C288.778,-150 294.778,-144 300.778,-144"/>
<polyline fill="none" stroke="gray" points="300.778,-144 411.222,-144 "/>
<path fill="none" stroke="gray" d="M411.222,-144C417.222,-144 423.222,-150 423.222,-156"/>
<polyline fill="none" stroke="gray" points="423.222,-156 423.222,-168 "/>
<path fill="none" stroke="gray" d="M423.222,-168C423.222,-174 417.222,-180 411.222,-180"/>
<text text-anchor="middle" x="356" y="-156.4" font-family="Helvetica,sans-Serif" font-size="14.00">Learning Resource</text>
</g>
<!-- initializeLocation&#45;&gt;learningResource -->
<g id="edge4" class="edge"><title>initializeLocation&#45;&gt;learningResource</title>
<path fill="none" stroke="#70cc14" stroke-width="3" d="M319.865,-215.697C323.818,-209.932 328.366,-203.299 332.874,-196.726"/>
<polygon fill="#70cc14" stroke="#70cc14" points="338.734,-200.558 344.271,-180.104 327.188,-192.64 338.734,-200.558"/>
</g>
<!-- moveLearningResource -->
<g id="node10" class="node"><title>moveLearningResource</title>
<polygon fill="#e5ffcc" stroke="#e5ffcc" points="340,-36 310,-36 298,-24 298,-12 310,-0 340,-0 352,-12 352,-24 340,-36"/>
<path fill="#e5ffcc" stroke="#e5ffcc" d="M310,-36C304,-36 298,-30 298,-24"/>
<path fill="#e5ffcc" stroke="#e5ffcc" d="M298,-12C298,-6 304,-0 310,-0"/>
<path fill="#e5ffcc" stroke="#e5ffcc" d="M340,-0C346,-0 352,-6 352,-12"/>
<path fill="#e5ffcc" stroke="#e5ffcc" d="M352,-24C352,-30 346,-36 340,-36"/>
<polyline fill="none" stroke="#e5ffcc" points="340,-36 310,-36 "/>
<path fill="none" stroke="#e5ffcc" d="M310,-36C304,-36 298,-30 298,-24"/>
<polyline fill="none" stroke="#e5ffcc" points="298,-24 298,-12 "/>
<path fill="none" stroke="#e5ffcc" d="M298,-12C298,-6 304,-0 310,-0"/>
<polyline fill="none" stroke="#e5ffcc" points="310,-0 340,-0 "/>
<path fill="none" stroke="#e5ffcc" d="M340,-0C346,-0 352,-6 352,-12"/>
<polyline fill="none" stroke="#e5ffcc" points="352,-12 352,-24 "/>
<path fill="none" stroke="#e5ffcc" d="M352,-24C352,-30 346,-36 340,-36"/>
<text text-anchor="middle" x="325" y="-12.4" font-family="Helvetica,sans-Serif" font-size="14.00">Move</text>
</g>
<!-- initializeLocation&#45;&gt;moveLearningResource -->
<g id="edge8" class="edge"><title>initializeLocation&#45;&gt;moveLearningResource:nw</title>
<path fill="none" stroke="#70cc14" stroke-width="3" stroke-dasharray="5,2" d="M296.113,-215.725C289.987,-205.765 283.155,-192.727 280,-180 266.076,-123.834 261.86,-90.1344 293.408,-51.0129"/>
<polygon fill="#70cc14" stroke="#70cc14" points="298.766,-55.5246 307,-36 288.388,-46.1286 298.766,-55.5246"/>
</g>
<!-- availableQuery -->
<g id="node8" class="node"><title>availableQuery</title>
<polygon fill="#ceffcc" stroke="#ceffcc" points="348.928,-108 301.072,-108 289.072,-96 289.072,-84 301.072,-72 348.928,-72 360.928,-84 360.928,-96 348.928,-108"/>
<path fill="#ceffcc" stroke="#ceffcc" d="M301.072,-108C295.072,-108 289.072,-102 289.072,-96"/>
<path fill="#ceffcc" stroke="#ceffcc" d="M289.072,-84C289.072,-78 295.072,-72 301.072,-72"/>
<path fill="#ceffcc" stroke="#ceffcc" d="M348.928,-72C354.928,-72 360.928,-78 360.928,-84"/>
<path fill="#ceffcc" stroke="#ceffcc" d="M360.928,-96C360.928,-102 354.928,-108 348.928,-108"/>
<polyline fill="none" stroke="#ceffcc" points="348.928,-108 301.072,-108 "/>
<path fill="none" stroke="#ceffcc" d="M301.072,-108C295.072,-108 289.072,-102 289.072,-96"/>
<polyline fill="none" stroke="#ceffcc" points="289.072,-96 289.072,-84 "/>
<path fill="none" stroke="#ceffcc" d="M289.072,-84C289.072,-78 295.072,-72 301.072,-72"/>
<polyline fill="none" stroke="#ceffcc" points="301.072,-72 348.928,-72 "/>
<path fill="none" stroke="#ceffcc" d="M348.928,-72C354.928,-72 360.928,-78 360.928,-84"/>
<polyline fill="none" stroke="#ceffcc" points="360.928,-84 360.928,-96 "/>
<path fill="none" stroke="#ceffcc" d="M360.928,-96C360.928,-102 354.928,-108 348.928,-108"/>
<text text-anchor="middle" x="325" y="-84.4" font-family="Helvetica,sans-Serif" font-size="14.00">Available</text>
</g>
<!-- learningResource&#45;&gt;availableQuery -->
<g id="edge12" class="edge"><title>learningResource&#45;&gt;availableQuery</title>
<path fill="none" stroke="#1ecc14" stroke-width="3" d="M348.337,-143.697C346.01,-138.441 343.362,-132.463 340.707,-126.467"/>
<polygon fill="#1ecc14" stroke="#1ecc14" points="347.074,-123.557 332.575,-108.104 334.273,-129.226 347.074,-123.557"/>
</g>
<!-- learningResource&#45;&gt;moveLearningResource -->
<g id="edge10" class="edge"><title>learningResource&#45;&gt;moveLearningResource:ne</title>
<path fill="none" stroke="#1ecc14" stroke-width="3" stroke-dasharray="5,2" d="M361.824,-143.56C364.931,-133.33 368.431,-120.08 370,-108 372.06,-92.1332 375.06,-87.1789 370,-72 366.344,-61.0308 362.617,-55.4393 357.392,-49.941"/>
<polygon fill="#1ecc14" stroke="#1ecc14" points="362.236,-44.8876 343,-36 352.495,-54.9433 362.236,-44.8876"/>
</g>
<!-- availableQuery&#45;&gt;moveLearningResource -->
<g id="edge6" class="edge"><title>availableQuery&#45;&gt;moveLearningResource</title>
<path fill="none" stroke="#1ecc14" stroke-width="3" d="M325,-71.6966C325,-66.9496 325,-61.6132 325,-56.2063"/>
<polygon fill="#1ecc14" stroke="#1ecc14" points="332,-56.1043 325,-36.1043 318,-56.1044 332,-56.1043"/>
</g>
</g>
</svg>
