<?xml version="1.0" encoding="UTF-8" standalone="no"?>
<!DOCTYPE svg PUBLIC "-//W3C//DTD SVG 1.1//EN"
 "http://www.w3.org/Graphics/SVG/1.1/DTD/svg11.dtd">
<!-- Generated by graphviz version 2.29.20110702.0445 (20110702.0445)
 -->
<!-- Title: learningResource Pages: 1 -->
<svg width="791pt" height="361pt"
 viewBox="0.00 0.00 791.00 361.00" xmlns="http://www.w3.org/2000/svg" xmlns:xlink="http://www.w3.org/1999/xlink">
<g id="graph1" class="graph" transform="scale(1 1) rotate(0) translate(4 357)">
<title>learningResource</title>
<polygon fill="white" stroke="white" points="-4,5 -4,-357 788,-357 788,5 -4,5"/>
<g id="graph2" class="cluster"><title>clustercontextKey</title>
<polygon fill="ghostwhite" stroke="white" points="8,-291 8,-345 96,-345 96,-291 8,-291"/>
<text text-anchor="middle" x="52.1792" y="-327" font-family="Helvetica,sans-Serif" font-size="14.00">Parameters</text>
</g>
<g id="graph3" class="cluster"><title>clusterlearningResourceKey</title>
<polygon fill="ghostwhite" stroke="white" points="104,-147 104,-345 238,-345 238,-147 104,-147"/>
<text text-anchor="middle" x="171.148" y="-327" font-family="Helvetica,sans-Serif" font-size="14.00">Learning Resource</text>
</g>
<!-- contextOverview -->
<g id="node2" class="node"><title>contextOverview</title>
<ellipse fill="black" stroke="black" cx="52" cy="-306" rx="7.2" ry="7.2"/>
</g>
<!-- initializeLocationOverview -->
<g id="node4" class="node"><title>initializeLocationOverview</title>
<a xlink:href="learningResource__Overview.svg">
<ellipse fill="#70cc14" stroke="#70cc14" cx="169" cy="-306" rx="7.2" ry="7.2"/>
</a>
</g>
<!-- initializeStateOverview -->
<g id="node5" class="node"><title>initializeStateOverview</title>
<a xlink:href="learningResource__Overview.svg">
<ellipse fill="#14cccc" stroke="#14cccc" cx="169" cy="-234" rx="7.2" ry="7.2"/>
</a>
</g>
<!-- initializeLocationOverview&#45;&gt;initializeStateOverview -->
<!-- initializeIDOverview -->
<g id="node6" class="node"><title>initializeIDOverview</title>
<a xlink:href="learningResource__Overview.svg">
<ellipse fill="#cc1414" stroke="#cc1414" cx="169" cy="-162" rx="7.2" ry="7.2"/>
</a>
</g>
<!-- initializeStateOverview&#45;&gt;initializeIDOverview -->
<!-- learningResourceefficacy -->
<g id="node8" class="node"><title>learningResourceefficacy</title>
<polygon fill="white" stroke="white" points="342.26,-180 277.74,-180 277.74,-144 342.26,-144 342.26,-180"/>
<text text-anchor="middle" x="310" y="-156.4" font-family="Helvetica,sans-Serif" font-size="14.00">Efficacy</text>
</g>
<!-- initializeState -->
<g id="node9" class="node"><title>initializeState</title>
<a xlink:href="learningResource_initializeState.svg" xlink:title="Initialize State">
<polygon fill="#ccffff" stroke="#ccffff" points="349.368,-324 270.632,-324 258.632,-312 258.632,-300 270.632,-288 349.368,-288 361.368,-300 361.368,-312 349.368,-324"/>
<path fill="#ccffff" stroke="#ccffff" d="M270.632,-324C264.632,-324 258.632,-318 258.632,-312"/>
<path fill="#ccffff" stroke="#ccffff" d="M258.632,-300C258.632,-294 264.632,-288 270.632,-288"/>
<path fill="#ccffff" stroke="#ccffff" d="M349.368,-288C355.368,-288 361.368,-294 361.368,-300"/>
<path fill="#ccffff" stroke="#ccffff" d="M361.368,-312C361.368,-318 355.368,-324 349.368,-324"/>
<polyline fill="none" stroke="black" points="349.368,-324 270.632,-324 "/>
<path fill="none" stroke="black" d="M270.632,-324C264.632,-324 258.632,-318 258.632,-312"/>
<polyline fill="none" stroke="black" points="258.632,-312 258.632,-300 "/>
<path fill="none" stroke="black" d="M258.632,-300C258.632,-294 264.632,-288 270.632,-288"/>
<polyline fill="none" stroke="black" points="270.632,-288 349.368,-288 "/>
<path fill="none" stroke="black" d="M349.368,-288C355.368,-288 361.368,-294 361.368,-300"/>
<polyline fill="none" stroke="black" points="361.368,-300 361.368,-312 "/>
<path fill="none" stroke="black" d="M361.368,-312C361.368,-318 355.368,-324 349.368,-324"/>
<text text-anchor="middle" x="310" y="-300.4" font-family="Helvetica,sans-Serif" font-size="14.00">Initialize State</text>
</a>
</g>
<!-- resourceEfficacy -->
<g id="node11" class="node"><title>resourceEfficacy</title>
<polygon fill="#ccffff" stroke="#ccffff" points="362.116,-252 257.884,-252 245.884,-240 245.884,-228 257.884,-216 362.116,-216 374.116,-228 374.116,-240 362.116,-252"/>
<path fill="#ccffff" stroke="#ccffff" d="M257.884,-252C251.884,-252 245.884,-246 245.884,-240"/>
<path fill="#ccffff" stroke="#ccffff" d="M245.884,-228C245.884,-222 251.884,-216 257.884,-216"/>
<path fill="#ccffff" stroke="#ccffff" d="M362.116,-216C368.116,-216 374.116,-222 374.116,-228"/>
<path fill="#ccffff" stroke="#ccffff" d="M374.116,-240C374.116,-246 368.116,-252 362.116,-252"/>
<polyline fill="none" stroke="#ccffff" points="362.116,-252 257.884,-252 "/>
<path fill="none" stroke="#ccffff" d="M257.884,-252C251.884,-252 245.884,-246 245.884,-240"/>
<polyline fill="none" stroke="#ccffff" points="245.884,-240 245.884,-228 "/>
<path fill="none" stroke="#ccffff" d="M245.884,-228C245.884,-222 251.884,-216 257.884,-216"/>
<polyline fill="none" stroke="#ccffff" points="257.884,-216 362.116,-216 "/>
<path fill="none" stroke="#ccffff" d="M362.116,-216C368.116,-216 374.116,-222 374.116,-228"/>
<polyline fill="none" stroke="#ccffff" points="374.116,-228 374.116,-240 "/>
<path fill="none" stroke="#ccffff" d="M374.116,-240C374.116,-246 368.116,-252 362.116,-252"/>
<text text-anchor="middle" x="310" y="-228.4" font-family="Helvetica,sans-Serif" font-size="14.00">Resource Efficacy</text>
</g>
<!-- initializeState&#45;&gt;resourceEfficacy -->
<g id="edge7" class="edge"><title>initializeState&#45;&gt;resourceEfficacy</title>
<path fill="none" stroke="#14cccc" stroke-width="3" d="M310,-287.697C310,-282.95 310,-277.613 310,-272.206"/>
<polygon fill="#14cccc" stroke="#14cccc" points="317,-272.104 310,-252.104 303,-272.104 317,-272.104"/>
</g>
<!-- resourceEfficacy&#45;&gt;learningResourceefficacy -->
<g id="edge9" class="edge"><title>resourceEfficacy&#45;&gt;learningResourceefficacy</title>
<path fill="none" stroke="#14cccc" stroke-width="3" d="M310,-215.697C310,-210.95 310,-205.613 310,-200.206"/>
<polygon fill="#14cccc" stroke="#14cccc" points="317,-200.104 310,-180.104 303,-200.104 317,-200.104"/>
</g>
<!-- initializeLocation -->
<g id="node13" class="node"><title>initializeLocation</title>
<a xlink:href="learningResource_initializeLocation.svg" xlink:title="Initialize Location">
<polygon fill="#e5ffcc" stroke="#e5ffcc" points="513.549,-324 414.451,-324 402.451,-312 402.451,-300 414.451,-288 513.549,-288 525.549,-300 525.549,-312 513.549,-324"/>
<path fill="#e5ffcc" stroke="#e5ffcc" d="M414.451,-324C408.451,-324 402.451,-318 402.451,-312"/>
<path fill="#e5ffcc" stroke="#e5ffcc" d="M402.451,-300C402.451,-294 408.451,-288 414.451,-288"/>
<path fill="#e5ffcc" stroke="#e5ffcc" d="M513.549,-288C519.549,-288 525.549,-294 525.549,-300"/>
<path fill="#e5ffcc" stroke="#e5ffcc" d="M525.549,-312C525.549,-318 519.549,-324 513.549,-324"/>
<polyline fill="none" stroke="black" points="513.549,-324 414.451,-324 "/>
<path fill="none" stroke="black" d="M414.451,-324C408.451,-324 402.451,-318 402.451,-312"/>
<polyline fill="none" stroke="black" points="402.451,-312 402.451,-300 "/>
<path fill="none" stroke="black" d="M402.451,-300C402.451,-294 408.451,-288 414.451,-288"/>
<polyline fill="none" stroke="black" points="414.451,-288 513.549,-288 "/>
<path fill="none" stroke="black" d="M513.549,-288C519.549,-288 525.549,-294 525.549,-300"/>
<polyline fill="none" stroke="black" points="525.549,-300 525.549,-312 "/>
<path fill="none" stroke="black" d="M525.549,-312C525.549,-318 519.549,-324 513.549,-324"/>
<text text-anchor="middle" x="464" y="-300.4" font-family="Helvetica,sans-Serif" font-size="14.00">Initialize Location</text>
</a>
</g>
<!-- learningResource -->
<g id="node15" class="node"><title>learningResource</title>
<polygon fill="#ceffcc" stroke="#ceffcc" points="583.222,-252 472.778,-252 460.778,-240 460.778,-228 472.778,-216 583.222,-216 595.222,-228 595.222,-240 583.222,-252"/>
<path fill="#ceffcc" stroke="#ceffcc" d="M472.778,-252C466.778,-252 460.778,-246 460.778,-240"/>
<path fill="#ceffcc" stroke="#ceffcc" d="M460.778,-228C460.778,-222 466.778,-216 472.778,-216"/>
<path fill="#ceffcc" stroke="#ceffcc" d="M583.222,-216C589.222,-216 595.222,-222 595.222,-228"/>
<path fill="#ceffcc" stroke="#ceffcc" d="M595.222,-240C595.222,-246 589.222,-252 583.222,-252"/>
<polyline fill="none" stroke="gray" points="583.222,-252 472.778,-252 "/>
<path fill="none" stroke="gray" d="M472.778,-252C466.778,-252 460.778,-246 460.778,-240"/>
<polyline fill="none" stroke="gray" points="460.778,-240 460.778,-228 "/>
<path fill="none" stroke="gray" d="M460.778,-228C460.778,-222 466.778,-216 472.778,-216"/>
<polyline fill="none" stroke="gray" points="472.778,-216 583.222,-216 "/>
<path fill="none" stroke="gray" d="M583.222,-216C589.222,-216 595.222,-222 595.222,-228"/>
<polyline fill="none" stroke="gray" points="595.222,-228 595.222,-240 "/>
<path fill="none" stroke="gray" d="M595.222,-240C595.222,-246 589.222,-252 583.222,-252"/>
<text text-anchor="middle" x="528" y="-228.4" font-family="Helvetica,sans-Serif" font-size="14.00">Learning Resource</text>
</g>
<!-- initializeLocation&#45;&gt;learningResource -->
<g id="edge11" class="edge"><title>initializeLocation&#45;&gt;learningResource</title>
<path fill="none" stroke="#70cc14" stroke-width="3" d="M479.82,-287.697C485.555,-281.424 492.232,-274.122 498.754,-266.988"/>
<polygon fill="#70cc14" stroke="#70cc14" points="504.033,-271.588 512.362,-252.104 493.7,-262.142 504.033,-271.588"/>
</g>
<!-- moveLearningResource -->
<g id="node18" class="node"><title>moveLearningResource</title>
<polygon fill="#e5ffcc" stroke="#e5ffcc" points="512,-108 482,-108 470,-96 470,-84 482,-72 512,-72 524,-84 524,-96 512,-108"/>
<path fill="#e5ffcc" stroke="#e5ffcc" d="M482,-108C476,-108 470,-102 470,-96"/>
<path fill="#e5ffcc" stroke="#e5ffcc" d="M470,-84C470,-78 476,-72 482,-72"/>
<path fill="#e5ffcc" stroke="#e5ffcc" d="M512,-72C518,-72 524,-78 524,-84"/>
<path fill="#e5ffcc" stroke="#e5ffcc" d="M524,-96C524,-102 518,-108 512,-108"/>
<polyline fill="none" stroke="#e5ffcc" points="512,-108 482,-108 "/>
<path fill="none" stroke="#e5ffcc" d="M482,-108C476,-108 470,-102 470,-96"/>
<polyline fill="none" stroke="#e5ffcc" points="470,-96 470,-84 "/>
<path fill="none" stroke="#e5ffcc" d="M470,-84C470,-78 476,-72 482,-72"/>
<polyline fill="none" stroke="#e5ffcc" points="482,-72 512,-72 "/>
<path fill="none" stroke="#e5ffcc" d="M512,-72C518,-72 524,-78 524,-84"/>
<polyline fill="none" stroke="#e5ffcc" points="524,-84 524,-96 "/>
<path fill="none" stroke="#e5ffcc" d="M524,-96C524,-102 518,-108 512,-108"/>
<text text-anchor="middle" x="497" y="-84.4" font-family="Helvetica,sans-Serif" font-size="14.00">Move</text>
</g>
<!-- initializeLocation&#45;&gt;moveLearningResource -->
<g id="edge15" class="edge"><title>initializeLocation&#45;&gt;moveLearningResource:nw</title>
<path fill="none" stroke="#70cc14" stroke-width="3" stroke-dasharray="5,2" d="M459.131,-287.979C456.436,-277.665 453.363,-264.189 452,-252 446.667,-204.297 436.821,-189.537 452,-144 455.656,-133.031 459.383,-127.439 464.608,-121.941"/>
<polygon fill="#70cc14" stroke="#70cc14" points="469.505,-126.943 479,-108 459.764,-116.888 469.505,-126.943"/>
</g>
<!-- availableQuery -->
<g id="node16" class="node"><title>availableQuery</title>
<polygon fill="#ceffcc" stroke="#ceffcc" points="520.928,-180 473.072,-180 461.072,-168 461.072,-156 473.072,-144 520.928,-144 532.928,-156 532.928,-168 520.928,-180"/>
<path fill="#ceffcc" stroke="#ceffcc" d="M473.072,-180C467.072,-180 461.072,-174 461.072,-168"/>
<path fill="#ceffcc" stroke="#ceffcc" d="M461.072,-156C461.072,-150 467.072,-144 473.072,-144"/>
<path fill="#ceffcc" stroke="#ceffcc" d="M520.928,-144C526.928,-144 532.928,-150 532.928,-156"/>
<path fill="#ceffcc" stroke="#ceffcc" d="M532.928,-168C532.928,-174 526.928,-180 520.928,-180"/>
<polyline fill="none" stroke="#ceffcc" points="520.928,-180 473.072,-180 "/>
<path fill="none" stroke="#ceffcc" d="M473.072,-180C467.072,-180 461.072,-174 461.072,-168"/>
<polyline fill="none" stroke="#ceffcc" points="461.072,-168 461.072,-156 "/>
<path fill="none" stroke="#ceffcc" d="M461.072,-156C461.072,-150 467.072,-144 473.072,-144"/>
<polyline fill="none" stroke="#ceffcc" points="473.072,-144 520.928,-144 "/>
<path fill="none" stroke="#ceffcc" d="M520.928,-144C526.928,-144 532.928,-150 532.928,-156"/>
<polyline fill="none" stroke="#ceffcc" points="532.928,-156 532.928,-168 "/>
<path fill="none" stroke="#ceffcc" d="M532.928,-168C532.928,-174 526.928,-180 520.928,-180"/>
<text text-anchor="middle" x="497" y="-156.4" font-family="Helvetica,sans-Serif" font-size="14.00">Available</text>
</g>
<!-- learningResource&#45;&gt;availableQuery -->
<g id="edge19" class="edge"><title>learningResource&#45;&gt;availableQuery</title>
<path fill="none" stroke="#1ecc14" stroke-width="3" d="M520.337,-215.697C518.01,-210.441 515.362,-204.463 512.707,-198.467"/>
<polygon fill="#1ecc14" stroke="#1ecc14" points="519.074,-195.557 504.575,-180.104 506.273,-201.226 519.074,-195.557"/>
</g>
<!-- learningResource&#45;&gt;moveLearningResource -->
<g id="edge17" class="edge"><title>learningResource&#45;&gt;moveLearningResource:ne</title>
<path fill="none" stroke="#1ecc14" stroke-width="3" stroke-dasharray="5,2" d="M533.824,-215.56C536.931,-205.33 540.431,-192.08 542,-180 544.06,-164.133 547.06,-159.179 542,-144 538.344,-133.031 534.617,-127.439 529.392,-121.941"/>
<polygon fill="#1ecc14" stroke="#1ecc14" points="534.236,-116.888 515,-108 524.495,-126.943 534.236,-116.888"/>
</g>
<!-- availableQuery&#45;&gt;moveLearningResource -->
<g id="edge13" class="edge"><title>availableQuery&#45;&gt;moveLearningResource</title>
<path fill="none" stroke="#1ecc14" stroke-width="3" d="M497,-143.697C497,-138.95 497,-133.613 497,-128.206"/>
<polygon fill="#1ecc14" stroke="#1ecc14" points="504,-128.104 497,-108.104 490,-128.104 504,-128.104"/>
</g>
<!-- learningResourceresourceID -->
<g id="node22" class="node"><title>learningResourceresourceID</title>
<polygon fill="white" stroke="white" points="699.356,-180 606.644,-180 606.644,-144 699.356,-144 699.356,-180"/>
<text text-anchor="middle" x="653" y="-156.4" font-family="Helvetica,sans-Serif" font-size="14.00">Resource ID</text>
</g>
<!-- incrementResourceID -->
<g id="node28" class="node"><title>incrementResourceID</title>
<polygon fill="#ffcccc" stroke="#ffcccc" points="726.186,-108 671.814,-108 659.814,-96 659.814,-84 671.814,-72 726.186,-72 738.186,-84 738.186,-96 726.186,-108"/>
<path fill="#ffcccc" stroke="#ffcccc" d="M671.814,-108C665.814,-108 659.814,-102 659.814,-96"/>
<path fill="#ffcccc" stroke="#ffcccc" d="M659.814,-84C659.814,-78 665.814,-72 671.814,-72"/>
<path fill="#ffcccc" stroke="#ffcccc" d="M726.186,-72C732.186,-72 738.186,-78 738.186,-84"/>
<path fill="#ffcccc" stroke="#ffcccc" d="M738.186,-96C738.186,-102 732.186,-108 726.186,-108"/>
<polyline fill="none" stroke="#ffcccc" points="726.186,-108 671.814,-108 "/>
<path fill="none" stroke="#ffcccc" d="M671.814,-108C665.814,-108 659.814,-102 659.814,-96"/>
<polyline fill="none" stroke="#ffcccc" points="659.814,-96 659.814,-84 "/>
<path fill="none" stroke="#ffcccc" d="M659.814,-84C659.814,-78 665.814,-72 671.814,-72"/>
<polyline fill="none" stroke="#ffcccc" points="671.814,-72 726.186,-72 "/>
<path fill="none" stroke="#ffcccc" d="M726.186,-72C732.186,-72 738.186,-78 738.186,-84"/>
<polyline fill="none" stroke="#ffcccc" points="738.186,-84 738.186,-96 "/>
<path fill="none" stroke="#ffcccc" d="M738.186,-96C738.186,-102 732.186,-108 726.186,-108"/>
<text text-anchor="middle" x="699" y="-84.4" font-family="Helvetica,sans-Serif" font-size="14.00">Increment</text>
</g>
<!-- learningResourceresourceID&#45;&gt;incrementResourceID -->
<g id="edge29" class="edge"><title>learningResourceresourceID&#45;&gt;incrementResourceID:nw</title>
<path fill="none" stroke="#cc1414" stroke-width="2" stroke-dasharray="1,5" d="M659.092,-143.578C662.849,-134.447 668.357,-123.274 675.658,-114.037"/>
<ellipse fill="#cc1414" stroke="#cc1414" cx="678.349" cy="-110.996" rx="4.00002" ry="4.00002"/>
</g>
<!-- spatialResourcesnextResourceID -->
<g id="node23" class="node"><title>spatialResourcesnextResourceID</title>
<polygon fill="white" stroke="white" points="762.25,-36 635.75,-36 635.75,-0 762.25,-0 762.25,-36"/>
<text text-anchor="start" x="644" y="-12.5" font-family="Helvetica,sans-Serif" font-size="14.00">Next Resource ID</text>
</g>
<!-- initializeID -->
<g id="node24" class="node"><title>initializeID</title>
<a xlink:href="learningResource_initializeID.svg" xlink:title="Initialize ID">
<polygon fill="#ffcccc" stroke="#ffcccc" points="627.352,-324 566.648,-324 554.648,-312 554.648,-300 566.648,-288 627.352,-288 639.352,-300 639.352,-312 627.352,-324"/>
<path fill="#ffcccc" stroke="#ffcccc" d="M566.648,-324C560.648,-324 554.648,-318 554.648,-312"/>
<path fill="#ffcccc" stroke="#ffcccc" d="M554.648,-300C554.648,-294 560.648,-288 566.648,-288"/>
<path fill="#ffcccc" stroke="#ffcccc" d="M627.352,-288C633.352,-288 639.352,-294 639.352,-300"/>
<path fill="#ffcccc" stroke="#ffcccc" d="M639.352,-312C639.352,-318 633.352,-324 627.352,-324"/>
<polyline fill="none" stroke="black" points="627.352,-324 566.648,-324 "/>
<path fill="none" stroke="black" d="M566.648,-324C560.648,-324 554.648,-318 554.648,-312"/>
<polyline fill="none" stroke="black" points="554.648,-312 554.648,-300 "/>
<path fill="none" stroke="black" d="M554.648,-300C554.648,-294 560.648,-288 566.648,-288"/>
<polyline fill="none" stroke="black" points="566.648,-288 627.352,-288 "/>
<path fill="none" stroke="black" d="M627.352,-288C633.352,-288 639.352,-294 639.352,-300"/>
<polyline fill="none" stroke="black" points="639.352,-300 639.352,-312 "/>
<path fill="none" stroke="black" d="M639.352,-312C639.352,-318 633.352,-324 627.352,-324"/>
<text text-anchor="middle" x="597" y="-300.4" font-family="Helvetica,sans-Serif" font-size="14.00">Initialize ID</text>
</a>
</g>
<!-- setResourceIDToNextResourceID -->
<g id="node26" class="node"><title>setResourceIDToNextResourceID</title>
<polygon fill="#ffcccc" stroke="#ffcccc" points="686,-252 656,-252 644,-240 644,-228 656,-216 686,-216 698,-228 698,-240 686,-252"/>
<path fill="#ffcccc" stroke="#ffcccc" d="M656,-252C650,-252 644,-246 644,-240"/>
<path fill="#ffcccc" stroke="#ffcccc" d="M644,-228C644,-222 650,-216 656,-216"/>
<path fill="#ffcccc" stroke="#ffcccc" d="M686,-216C692,-216 698,-222 698,-228"/>
<path fill="#ffcccc" stroke="#ffcccc" d="M698,-240C698,-246 692,-252 686,-252"/>
<polyline fill="none" stroke="#ffcccc" points="686,-252 656,-252 "/>
<path fill="none" stroke="#ffcccc" d="M656,-252C650,-252 644,-246 644,-240"/>
<polyline fill="none" stroke="#ffcccc" points="644,-240 644,-228 "/>
<path fill="none" stroke="#ffcccc" d="M644,-228C644,-222 650,-216 656,-216"/>
<polyline fill="none" stroke="#ffcccc" points="656,-216 686,-216 "/>
<path fill="none" stroke="#ffcccc" d="M686,-216C692,-216 698,-222 698,-228"/>
<polyline fill="none" stroke="#ffcccc" points="698,-228 698,-240 "/>
<path fill="none" stroke="#ffcccc" d="M698,-240C698,-246 692,-252 686,-252"/>
<text text-anchor="middle" x="671" y="-228.4" font-family="Helvetica,sans-Serif" font-size="14.00">Set</text>
</g>
<!-- initializeID&#45;&gt;setResourceIDToNextResourceID -->
<g id="edge21" class="edge"><title>initializeID&#45;&gt;setResourceIDToNextResourceID</title>
<path fill="none" stroke="#cc1414" stroke-width="3" d="M615.292,-287.697C622.192,-281.169 630.27,-273.528 638.1,-266.121"/>
<polygon fill="#cc1414" stroke="#cc1414" points="643.199,-270.934 652.918,-252.104 633.578,-260.763 643.199,-270.934"/>
</g>
<!-- setResourceIDToNextResourceID&#45;&gt;learningResourceresourceID -->
<g id="edge23" class="edge"><title>setResourceIDToNextResourceID&#45;&gt;learningResourceresourceID</title>
<path fill="none" stroke="#cc1414" stroke-width="3" d="M666.551,-215.697C665.286,-210.78 663.859,-205.231 662.418,-199.627"/>
<polygon fill="#cc1414" stroke="#cc1414" points="669.159,-197.731 657.398,-180.104 655.6,-201.218 669.159,-197.731"/>
</g>
<!-- setResourceIDToNextResourceID&#45;&gt;incrementResourceID -->
<g id="edge27" class="edge"><title>setResourceIDToNextResourceID&#45;&gt;incrementResourceID</title>
<path fill="none" stroke="#cc1414" stroke-width="3" d="M687.037,-215.846C695.014,-206.124 703.825,-193.274 708,-180 713.251,-163.304 712.135,-144.06 709.239,-127.746"/>
<polygon fill="#cc1414" stroke="#cc1414" points="716.032,-126.052 704.707,-108.142 702.392,-129.205 716.032,-126.052"/>
</g>
<!-- incrementResourceID&#45;&gt;spatialResourcesnextResourceID -->
<g id="edge25" class="edge"><title>incrementResourceID&#45;&gt;spatialResourcesnextResourceID</title>
<path fill="none" stroke="#cc1414" stroke-width="3" d="M699,-71.6966C699,-66.9496 699,-61.6132 699,-56.2063"/>
<polygon fill="#cc1414" stroke="#cc1414" points="706,-56.1043 699,-36.1043 692,-56.1044 706,-56.1043"/>
</g>
<!-- importabcsetResourceIDToNextResourceIDspatialResourcesnextResourceID -->
<g id="node32" class="node"><title>importabcsetResourceIDToNextResourceIDspatialResourcesnextResourceID</title>
<text text-anchor="middle" x="720" y="-300.4" font-family="Helvetica,sans-Serif" font-size="14.00">Next Resource ID</text>
</g>
<!-- importabcsetResourceIDToNextResourceIDspatialResourcesnextResourceID&#45;&gt;setResourceIDToNextResourceID -->
<g id="edge31" class="edge"><title>importabcsetResourceIDToNextResourceIDspatialResourcesnextResourceID&#45;&gt;setResourceIDToNextResourceID:ne</title>
<path fill="none" stroke="black" stroke-width="2" stroke-dasharray="1,5" d="M712.709,-287.738C708.362,-278.663 702.195,-267.509 694.536,-258.148"/>
<ellipse fill="black" stroke="black" cx="691.677" cy="-254.972" rx="4.00002" ry="4.00002"/>
</g>
</g>
</svg>
