<?xml version="1.0" encoding="UTF-8" standalone="no"?>
<!DOCTYPE svg PUBLIC "-//W3C//DTD SVG 1.1//EN"
 "http://www.w3.org/Graphics/SVG/1.1/DTD/svg11.dtd">
<!-- Generated by graphviz version 2.29.20110702.0445 (20110702.0445)
 -->
<!-- Title: findHome Pages: 1 -->
<svg width="393pt" height="361pt"
 viewBox="0.00 0.00 393.00 361.00" xmlns="http://www.w3.org/2000/svg" xmlns:xlink="http://www.w3.org/1999/xlink">
<g id="graph1" class="graph" transform="scale(1 1) rotate(0) translate(4 357)">
<title>findHome</title>
<polygon fill="white" stroke="white" points="-4,5 -4,-357 390,-357 390,5 -4,5"/>
<g id="graph2" class="cluster"><title>clustercontextKey</title>
<polygon fill="ghostwhite" stroke="white" points="8,-291 8,-345 96,-345 96,-291 8,-291"/>
<text text-anchor="middle" x="52.1792" y="-327" font-family="Helvetica,sans-Serif" font-size="14.00">Parameters</text>
</g>
<g id="graph3" class="cluster"><title>clusterlearnerKey</title>
<polygon fill="ghostwhite" stroke="white" points="104,-291 104,-345 168,-345 168,-291 104,-291"/>
<text text-anchor="middle" x="136.127" y="-327" font-family="Helvetica,sans-Serif" font-size="14.00">Learner</text>
</g>
<g id="graph4" class="cluster"><title>clusterhomeKey</title>
<polygon fill="ghostwhite" stroke="white" points="176,-291 176,-345 229,-345 229,-291 176,-291"/>
<text text-anchor="middle" x="202.672" y="-327" font-family="Helvetica,sans-Serif" font-size="14.00">Home</text>
</g>
<!-- contextOverview -->
<g id="node2" class="node"><title>contextOverview</title>
<ellipse fill="black" stroke="black" cx="52" cy="-306" rx="7.2" ry="7.2"/>
</g>
<!-- findHomeOverview -->
<g id="node4" class="node"><title>findHomeOverview</title>
<a xlink:href="learner__Overview.svg">
<ellipse fill="#cc9e14" stroke="#cc9e14" cx="136" cy="-306" rx="7.2" ry="7.2"/>
</a>
</g>
<!-- homeLocationOverview -->
<g id="node6" class="node"><title>homeLocationOverview</title>
<a xlink:href="home__Overview.svg">
<ellipse fill="#a8cc14" stroke="#a8cc14" cx="201" cy="-306" rx="7.2" ry="7.2"/>
</a>
</g>
<!-- learnerhomeID -->
<g id="node7" class="node"><title>learnerhomeID</title>
<polygon fill="white" stroke="white" points="314.425,-36 243.575,-36 243.575,-0 314.425,-0 314.425,-36"/>
<text text-anchor="middle" x="279" y="-12.4" font-family="Helvetica,sans-Serif" font-size="14.00">Home ID</text>
</g>
<!-- homehomeID -->
<g id="node8" class="node"><title>homehomeID</title>
<polygon fill="white" stroke="white" points="226.425,-180 155.575,-180 155.575,-144 226.425,-144 226.425,-180"/>
<text text-anchor="middle" x="191" y="-156.4" font-family="Helvetica,sans-Serif" font-size="14.00">Home ID</text>
</g>
<!-- homeIDAddZero -->
<g id="node15" class="node"><title>homeIDAddZero</title>
<polygon fill="#fff2cc" stroke="#fff2cc" points="294,-108 264,-108 252,-96 252,-84 264,-72 294,-72 306,-84 306,-96 294,-108"/>
<path fill="#fff2cc" stroke="#fff2cc" d="M264,-108C258,-108 252,-102 252,-96"/>
<path fill="#fff2cc" stroke="#fff2cc" d="M252,-84C252,-78 258,-72 264,-72"/>
<path fill="#fff2cc" stroke="#fff2cc" d="M294,-72C300,-72 306,-78 306,-84"/>
<path fill="#fff2cc" stroke="#fff2cc" d="M306,-96C306,-102 300,-108 294,-108"/>
<polyline fill="none" stroke="#fff2cc" points="294,-108 264,-108 "/>
<path fill="none" stroke="#fff2cc" d="M264,-108C258,-108 252,-102 252,-96"/>
<polyline fill="none" stroke="#fff2cc" points="252,-96 252,-84 "/>
<path fill="none" stroke="#fff2cc" d="M252,-84C252,-78 258,-72 264,-72"/>
<polyline fill="none" stroke="#fff2cc" points="264,-72 294,-72 "/>
<path fill="none" stroke="#fff2cc" d="M294,-72C300,-72 306,-78 306,-84"/>
<polyline fill="none" stroke="#fff2cc" points="306,-84 306,-96 "/>
<path fill="none" stroke="#fff2cc" d="M306,-96C306,-102 300,-108 294,-108"/>
<text text-anchor="middle" x="279" y="-84.4" font-family="Helvetica,sans-Serif" font-size="14.00">Add</text>
</g>
<!-- homehomeID&#45;&gt;homeIDAddZero -->
<g id="edge13" class="edge"><title>homehomeID&#45;&gt;homeIDAddZero:nw</title>
<path fill="none" stroke="#a8cc14" stroke-width="2" stroke-dasharray="1,5" d="M216.98,-143.919C228.851,-135.582 242.958,-124.918 255.173,-113.601"/>
<ellipse fill="#a8cc14" stroke="#a8cc14" cx="258.116" cy="-110.772" rx="4.00002" ry="4.00002"/>
</g>
<!-- findHome -->
<g id="node9" class="node"><title>findHome</title>
<a xlink:href="learner_findHome.svg" xlink:title="Find Home">
<polygon fill="#fff2cc" stroke="#fff2cc" points="309.352,-324 248.648,-324 236.648,-312 236.648,-300 248.648,-288 309.352,-288 321.352,-300 321.352,-312 309.352,-324"/>
<path fill="#fff2cc" stroke="#fff2cc" d="M248.648,-324C242.648,-324 236.648,-318 236.648,-312"/>
<path fill="#fff2cc" stroke="#fff2cc" d="M236.648,-300C236.648,-294 242.648,-288 248.648,-288"/>
<path fill="#fff2cc" stroke="#fff2cc" d="M309.352,-288C315.352,-288 321.352,-294 321.352,-300"/>
<path fill="#fff2cc" stroke="#fff2cc" d="M321.352,-312C321.352,-318 315.352,-324 309.352,-324"/>
<polyline fill="none" stroke="black" points="309.352,-324 248.648,-324 "/>
<path fill="none" stroke="black" d="M248.648,-324C242.648,-324 236.648,-318 236.648,-312"/>
<polyline fill="none" stroke="black" points="236.648,-312 236.648,-300 "/>
<path fill="none" stroke="black" d="M236.648,-300C236.648,-294 242.648,-288 248.648,-288"/>
<polyline fill="none" stroke="black" points="248.648,-288 309.352,-288 "/>
<path fill="none" stroke="black" d="M309.352,-288C315.352,-288 321.352,-294 321.352,-300"/>
<polyline fill="none" stroke="black" points="321.352,-300 321.352,-312 "/>
<path fill="none" stroke="black" d="M321.352,-312C321.352,-318 315.352,-324 309.352,-324"/>
<text text-anchor="middle" x="279" y="-300.4" font-family="Helvetica,sans-Serif" font-size="14.00">Find Home</text>
</a>
</g>
<!-- homeLocation -->
<g id="node11" class="node"><title>homeLocation</title>
<polygon fill="#f5ffcc" stroke="#f5ffcc" points="322.124,-252 235.876,-252 223.876,-240 223.876,-228 235.876,-216 322.124,-216 334.124,-228 334.124,-240 322.124,-252"/>
<path fill="#f5ffcc" stroke="#f5ffcc" d="M235.876,-252C229.876,-252 223.876,-246 223.876,-240"/>
<path fill="#f5ffcc" stroke="#f5ffcc" d="M223.876,-228C223.876,-222 229.876,-216 235.876,-216"/>
<path fill="#f5ffcc" stroke="#f5ffcc" d="M322.124,-216C328.124,-216 334.124,-222 334.124,-228"/>
<path fill="#f5ffcc" stroke="#f5ffcc" d="M334.124,-240C334.124,-246 328.124,-252 322.124,-252"/>
<polyline fill="none" stroke="gray" points="322.124,-252 235.876,-252 "/>
<path fill="none" stroke="gray" d="M235.876,-252C229.876,-252 223.876,-246 223.876,-240"/>
<polyline fill="none" stroke="gray" points="223.876,-240 223.876,-228 "/>
<path fill="none" stroke="gray" d="M223.876,-228C223.876,-222 229.876,-216 235.876,-216"/>
<polyline fill="none" stroke="gray" points="235.876,-216 322.124,-216 "/>
<path fill="none" stroke="gray" d="M322.124,-216C328.124,-216 334.124,-222 334.124,-228"/>
<polyline fill="none" stroke="gray" points="334.124,-228 334.124,-240 "/>
<path fill="none" stroke="gray" d="M334.124,-240C334.124,-246 328.124,-252 322.124,-252"/>
<text text-anchor="middle" x="279" y="-228.4" font-family="Helvetica,sans-Serif" font-size="14.00">Home Location</text>
</g>
<!-- findHome&#45;&gt;homeLocation -->
<g id="edge5" class="edge"><title>findHome&#45;&gt;homeLocation</title>
<path fill="none" stroke="#cc9e14" stroke-width="3" d="M279,-287.697C279,-282.95 279,-277.613 279,-272.206"/>
<polygon fill="#cc9e14" stroke="#cc9e14" points="286,-272.104 279,-252.104 272,-272.104 286,-272.104"/>
</g>
<!-- nearestQuery -->
<g id="node13" class="node"><title>nearestQuery</title>
<polygon fill="#f5ffcc" stroke="#f5ffcc" points="301.183,-180 256.817,-180 244.817,-168 244.817,-156 256.817,-144 301.183,-144 313.183,-156 313.183,-168 301.183,-180"/>
<path fill="#f5ffcc" stroke="#f5ffcc" d="M256.817,-180C250.817,-180 244.817,-174 244.817,-168"/>
<path fill="#f5ffcc" stroke="#f5ffcc" d="M244.817,-156C244.817,-150 250.817,-144 256.817,-144"/>
<path fill="#f5ffcc" stroke="#f5ffcc" d="M301.183,-144C307.183,-144 313.183,-150 313.183,-156"/>
<path fill="#f5ffcc" stroke="#f5ffcc" d="M313.183,-168C313.183,-174 307.183,-180 301.183,-180"/>
<polyline fill="none" stroke="#f5ffcc" points="301.183,-180 256.817,-180 "/>
<path fill="none" stroke="#f5ffcc" d="M256.817,-180C250.817,-180 244.817,-174 244.817,-168"/>
<polyline fill="none" stroke="#f5ffcc" points="244.817,-168 244.817,-156 "/>
<path fill="none" stroke="#f5ffcc" d="M244.817,-156C244.817,-150 250.817,-144 256.817,-144"/>
<polyline fill="none" stroke="#f5ffcc" points="256.817,-144 301.183,-144 "/>
<path fill="none" stroke="#f5ffcc" d="M301.183,-144C307.183,-144 313.183,-150 313.183,-156"/>
<polyline fill="none" stroke="#f5ffcc" points="313.183,-156 313.183,-168 "/>
<path fill="none" stroke="#f5ffcc" d="M313.183,-168C313.183,-174 307.183,-180 301.183,-180"/>
<text text-anchor="middle" x="279" y="-156.4" font-family="Helvetica,sans-Serif" font-size="14.00">Nearest </text>
</g>
<!-- homeLocation&#45;&gt;nearestQuery -->
<g id="edge7" class="edge"><title>homeLocation&#45;&gt;nearestQuery</title>
<path fill="none" stroke="#a8cc14" stroke-width="3" d="M279,-215.697C279,-210.95 279,-205.613 279,-200.206"/>
<polygon fill="#a8cc14" stroke="#a8cc14" points="286,-200.104 279,-180.104 272,-200.104 286,-200.104"/>
</g>
<!-- nearestQuery&#45;&gt;homeIDAddZero -->
<g id="edge9" class="edge"><title>nearestQuery&#45;&gt;homeIDAddZero</title>
<path fill="none" stroke="#a8cc14" stroke-width="3" d="M279,-143.697C279,-138.95 279,-133.613 279,-128.206"/>
<polygon fill="#a8cc14" stroke="#a8cc14" points="286,-128.104 279,-108.104 272,-128.104 286,-128.104"/>
</g>
<!-- homeIDAddZero&#45;&gt;learnerhomeID -->
<g id="edge11" class="edge"><title>homeIDAddZero&#45;&gt;learnerhomeID</title>
<path fill="none" stroke="#cc9e14" stroke-width="3" d="M279,-71.6966C279,-66.9496 279,-61.6132 279,-56.2063"/>
<polygon fill="#cc9e14" stroke="#cc9e14" points="286,-56.1043 279,-36.1043 272,-56.1044 286,-56.1043"/>
</g>
<!-- importxyxhomeIDAddZerofunctionszero0 -->
<g id="node18" class="node"><title>importxyxhomeIDAddZerofunctionszero0</title>
<text text-anchor="middle" x="358" y="-156.4" font-family="Helvetica,sans-Serif" font-size="14.00">0</text>
</g>
<!-- importxyxhomeIDAddZerofunctionszero0&#45;&gt;homeIDAddZero -->
<g id="edge15" class="edge"><title>importxyxhomeIDAddZerofunctionszero0&#45;&gt;homeIDAddZero:ne</title>
<path fill="none" stroke="black" stroke-width="2" stroke-dasharray="1,5" d="M336.74,-143.787C326.495,-135.232 314.017,-124.432 302.758,-113.634"/>
<ellipse fill="black" stroke="black" cx="299.859" cy="-110.798" rx="4.00002" ry="4.00002"/>
</g>
</g>
</svg>
