<?xml version="1.0" encoding="UTF-8" standalone="no"?>
<!DOCTYPE svg PUBLIC "-//W3C//DTD SVG 1.1//EN"
 "http://www.w3.org/Graphics/SVG/1.1/DTD/svg11.dtd">
<!-- Generated by graphviz version 2.29.20110702.0445 (20110702.0445)
 -->
<!-- Title: learner Pages: 1 -->
<svg width="406pt" height="616pt"
 viewBox="0.00 0.00 406.00 616.00" xmlns="http://www.w3.org/2000/svg" xmlns:xlink="http://www.w3.org/1999/xlink">
<g id="graph1" class="graph" transform="scale(1 1) rotate(0) translate(4 612)">
<title>learner</title>
<polygon fill="white" stroke="white" points="-4,5 -4,-612 403,-612 403,5 -4,5"/>
<g id="graph2" class="cluster"><title>clusterWatch</title>
<polygon fill="ghostwhite" stroke="white" points="228,-524 228,-600 390,-600 390,-524 228,-524"/>
<text text-anchor="middle" x="255.582" y="-582" font-family="Helvetica,sans-Serif" font-size="14.00">Watch</text>
</g>
<g id="graph3" class="cluster"><title>clusterRule</title>
<polygon fill="ghostwhite" stroke="white" points="8,-8 8,-300 204,-300 204,-8 8,-8"/>
<text text-anchor="middle" x="33.8965" y="-282" font-family="Helvetica,sans-Serif" font-size="14.00">Rules</text>
</g>
<g id="graph4" class="cluster"><title>clusterInit</title>
<polygon fill="ghostwhite" stroke="white" points="80,-308 80,-600 220,-600 220,-308 80,-308"/>
<text text-anchor="middle" x="113.29" y="-582" font-family="Helvetica,sans-Serif" font-size="14.00">Initialize</text>
</g>
<!-- iteration -->
<g id="node1" class="node"><title>iteration</title>
<polygon fill="lightgray" stroke="lightgray" points="165,-268 135,-268 123,-256 123,-244 135,-232 165,-232 177,-244 177,-256 165,-268"/>
<path fill="lightgray" stroke="lightgray" d="M135,-268C129,-268 123,-262 123,-256"/>
<path fill="lightgray" stroke="lightgray" d="M123,-244C123,-238 129,-232 135,-232"/>
<path fill="lightgray" stroke="lightgray" d="M165,-232C171,-232 177,-238 177,-244"/>
<path fill="lightgray" stroke="lightgray" d="M177,-256C177,-262 171,-268 165,-268"/>
<polyline fill="none" stroke="black" points="165,-268 135,-268 "/>
<path fill="none" stroke="black" d="M135,-268C129,-268 123,-262 123,-256"/>
<polyline fill="none" stroke="black" points="123,-256 123,-244 "/>
<path fill="none" stroke="black" d="M123,-244C123,-238 129,-232 135,-232"/>
<polyline fill="none" stroke="black" points="135,-232 165,-232 "/>
<path fill="none" stroke="black" d="M165,-232C171,-232 177,-238 177,-244"/>
<polyline fill="none" stroke="black" points="177,-244 177,-256 "/>
<path fill="none" stroke="black" d="M177,-256C177,-262 171,-268 165,-268"/>
<text text-anchor="middle" x="150" y="-244.4" font-family="Helvetica,sans-Serif" font-size="14.00">Step</text>
</g>
<!-- movement -->
<g id="node6" class="node"><title>movement</title>
<a xlink:href="learner_movement.svg" xlink:title="Movement">
<polygon fill="#ccffff" stroke="#ccffff" points="142.518,-196 85.4819,-196 73.4819,-184 73.4819,-172 85.4819,-160 142.518,-160 154.518,-172 154.518,-184 142.518,-196"/>
<path fill="#ccffff" stroke="#ccffff" d="M85.4819,-196C79.4819,-196 73.4819,-190 73.4819,-184"/>
<path fill="#ccffff" stroke="#ccffff" d="M73.4819,-172C73.4819,-166 79.4819,-160 85.4819,-160"/>
<path fill="#ccffff" stroke="#ccffff" d="M142.518,-160C148.518,-160 154.518,-166 154.518,-172"/>
<path fill="#ccffff" stroke="#ccffff" d="M154.518,-184C154.518,-190 148.518,-196 142.518,-196"/>
<polyline fill="none" stroke="black" points="142.518,-196 85.4819,-196 "/>
<path fill="none" stroke="black" d="M85.4819,-196C79.4819,-196 73.4819,-190 73.4819,-184"/>
<polyline fill="none" stroke="black" points="73.4819,-184 73.4819,-172 "/>
<path fill="none" stroke="black" d="M73.4819,-172C73.4819,-166 79.4819,-160 85.4819,-160"/>
<polyline fill="none" stroke="black" points="85.4819,-160 142.518,-160 "/>
<path fill="none" stroke="black" d="M142.518,-160C148.518,-160 154.518,-166 154.518,-172"/>
<polyline fill="none" stroke="black" points="154.518,-172 154.518,-184 "/>
<path fill="none" stroke="black" d="M154.518,-184C154.518,-190 148.518,-196 142.518,-196"/>
<text text-anchor="middle" x="114" y="-172.4" font-family="Helvetica,sans-Serif" font-size="14.00">Movement</text>
</a>
</g>
<!-- iteration&#45;&gt;movement -->
<g id="edge4" class="edge"><title>iteration&#45;&gt;movement</title>
<path fill="none" stroke="darkslategray" stroke-width="3" d="M141.101,-231.697C137.003,-223.728 132.051,-214.1 127.507,-205.264"/>
<polygon fill="darkslategray" stroke="darkslategray" points="130.483,-203.396 122.797,-196.104 124.258,-206.598 130.483,-203.396"/>
</g>
<!-- start -->
<g id="node2" class="node"><title>start</title>
<polygon fill="lightgray" stroke="lightgray" points="165,-568 135,-568 123,-556 123,-544 135,-532 165,-532 177,-544 177,-556 165,-568"/>
<path fill="lightgray" stroke="lightgray" d="M135,-568C129,-568 123,-562 123,-556"/>
<path fill="lightgray" stroke="lightgray" d="M123,-544C123,-538 129,-532 135,-532"/>
<path fill="lightgray" stroke="lightgray" d="M165,-532C171,-532 177,-538 177,-544"/>
<path fill="lightgray" stroke="lightgray" d="M177,-556C177,-562 171,-568 165,-568"/>
<polyline fill="none" stroke="black" points="165,-568 135,-568 "/>
<path fill="none" stroke="black" d="M135,-568C129,-568 123,-562 123,-556"/>
<polyline fill="none" stroke="black" points="123,-556 123,-544 "/>
<path fill="none" stroke="black" d="M123,-544C123,-538 129,-532 135,-532"/>
<polyline fill="none" stroke="black" points="135,-532 165,-532 "/>
<path fill="none" stroke="black" d="M165,-532C171,-532 177,-538 177,-544"/>
<polyline fill="none" stroke="black" points="177,-544 177,-556 "/>
<path fill="none" stroke="black" d="M177,-556C177,-562 171,-568 165,-568"/>
<text text-anchor="middle" x="150" y="-544.4" font-family="Helvetica,sans-Serif" font-size="14.00">Start</text>
</g>
<!-- initializeLocation -->
<g id="node11" class="node"><title>initializeLocation</title>
<a xlink:href="learner_initializeLocation.svg" xlink:title="Initialize Location">
<polygon fill="#e5ffcc" stroke="#e5ffcc" points="199.549,-496 100.451,-496 88.4509,-484 88.4509,-472 100.451,-460 199.549,-460 211.549,-472 211.549,-484 199.549,-496"/>
<path fill="#e5ffcc" stroke="#e5ffcc" d="M100.451,-496C94.4509,-496 88.4509,-490 88.4509,-484"/>
<path fill="#e5ffcc" stroke="#e5ffcc" d="M88.4509,-472C88.4509,-466 94.4509,-460 100.451,-460"/>
<path fill="#e5ffcc" stroke="#e5ffcc" d="M199.549,-460C205.549,-460 211.549,-466 211.549,-472"/>
<path fill="#e5ffcc" stroke="#e5ffcc" d="M211.549,-484C211.549,-490 205.549,-496 199.549,-496"/>
<polyline fill="none" stroke="black" points="199.549,-496 100.451,-496 "/>
<path fill="none" stroke="black" d="M100.451,-496C94.4509,-496 88.4509,-490 88.4509,-484"/>
<polyline fill="none" stroke="black" points="88.4509,-484 88.4509,-472 "/>
<path fill="none" stroke="black" d="M88.4509,-472C88.4509,-466 94.4509,-460 100.451,-460"/>
<polyline fill="none" stroke="black" points="100.451,-460 199.549,-460 "/>
<path fill="none" stroke="black" d="M199.549,-460C205.549,-460 211.549,-466 211.549,-472"/>
<polyline fill="none" stroke="black" points="211.549,-472 211.549,-484 "/>
<path fill="none" stroke="black" d="M211.549,-484C211.549,-490 205.549,-496 199.549,-496"/>
<text text-anchor="middle" x="150" y="-472.4" font-family="Helvetica,sans-Serif" font-size="14.00">Initialize Location</text>
</a>
</g>
<!-- start&#45;&gt;initializeLocation -->
<g id="edge10" class="edge"><title>start&#45;&gt;initializeLocation</title>
<path fill="none" stroke="darkslategray" stroke-width="3" d="M150,-531.697C150,-523.983 150,-514.712 150,-506.112"/>
<polygon fill="darkslategray" stroke="darkslategray" points="153.5,-506.104 150,-496.104 146.5,-506.104 153.5,-506.104"/>
</g>
<!-- deriveLearnerIndex -->
<g id="node4" class="node"><title>deriveLearnerIndex</title>
<a xlink:href="learner_deriveLearnerIndex.svg" xlink:title="Derive Learner Index">
<polygon fill="#ffcccc" stroke="#ffcccc" points="370.054,-568 247.946,-568 235.946,-556 235.946,-544 247.946,-532 370.054,-532 382.054,-544 382.054,-556 370.054,-568"/>
<path fill="#ffcccc" stroke="#ffcccc" d="M247.946,-568C241.946,-568 235.946,-562 235.946,-556"/>
<path fill="#ffcccc" stroke="#ffcccc" d="M235.946,-544C235.946,-538 241.946,-532 247.946,-532"/>
<path fill="#ffcccc" stroke="#ffcccc" d="M370.054,-532C376.054,-532 382.054,-538 382.054,-544"/>
<path fill="#ffcccc" stroke="#ffcccc" d="M382.054,-556C382.054,-562 376.054,-568 370.054,-568"/>
<polyline fill="none" stroke="black" points="370.054,-568 247.946,-568 "/>
<path fill="none" stroke="black" d="M247.946,-568C241.946,-568 235.946,-562 235.946,-556"/>
<polyline fill="none" stroke="black" points="235.946,-556 235.946,-544 "/>
<path fill="none" stroke="black" d="M235.946,-544C235.946,-538 241.946,-532 247.946,-532"/>
<polyline fill="none" stroke="black" points="247.946,-532 370.054,-532 "/>
<path fill="none" stroke="black" d="M370.054,-532C376.054,-532 382.054,-538 382.054,-544"/>
<polyline fill="none" stroke="black" points="382.054,-544 382.054,-556 "/>
<path fill="none" stroke="black" d="M382.054,-556C382.054,-562 376.054,-568 370.054,-568"/>
<text text-anchor="middle" x="309" y="-544.4" font-family="Helvetica,sans-Serif" font-size="14.00">Derive Learner Index</text>
</a>
</g>
<!-- resourceEngagement -->
<g id="node7" class="node"><title>resourceEngagement</title>
<a xlink:href="learner_resourceEngagement.svg" xlink:title="Resource Engagement">
<polygon fill="#ccd8ff" stroke="#ccd8ff" points="163.399,-124 28.6008,-124 16.6008,-112 16.6008,-100 28.6008,-88 163.399,-88 175.399,-100 175.399,-112 163.399,-124"/>
<path fill="#ccd8ff" stroke="#ccd8ff" d="M28.6008,-124C22.6008,-124 16.6008,-118 16.6008,-112"/>
<path fill="#ccd8ff" stroke="#ccd8ff" d="M16.6008,-100C16.6008,-94 22.6008,-88 28.6008,-88"/>
<path fill="#ccd8ff" stroke="#ccd8ff" d="M163.399,-88C169.399,-88 175.399,-94 175.399,-100"/>
<path fill="#ccd8ff" stroke="#ccd8ff" d="M175.399,-112C175.399,-118 169.399,-124 163.399,-124"/>
<polyline fill="none" stroke="black" points="163.399,-124 28.6008,-124 "/>
<path fill="none" stroke="black" d="M28.6008,-124C22.6008,-124 16.6008,-118 16.6008,-112"/>
<polyline fill="none" stroke="black" points="16.6008,-112 16.6008,-100 "/>
<path fill="none" stroke="black" d="M16.6008,-100C16.6008,-94 22.6008,-88 28.6008,-88"/>
<polyline fill="none" stroke="black" points="28.6008,-88 163.399,-88 "/>
<path fill="none" stroke="black" d="M163.399,-88C169.399,-88 175.399,-94 175.399,-100"/>
<polyline fill="none" stroke="black" points="175.399,-100 175.399,-112 "/>
<path fill="none" stroke="black" d="M175.399,-112C175.399,-118 169.399,-124 163.399,-124"/>
<text text-anchor="middle" x="96" y="-100.4" font-family="Helvetica,sans-Serif" font-size="14.00">Resource Engagement</text>
</a>
</g>
<!-- movement&#45;&gt;resourceEngagement -->
<g id="edge5" class="edge"><title>movement&#45;&gt;resourceEngagement</title>
<path fill="none" stroke="darkslategray" stroke-width="3" d="M109.551,-159.697C107.545,-151.898 105.131,-142.509 102.899,-133.829"/>
<polygon fill="darkslategray" stroke="darkslategray" points="106.278,-132.918 100.398,-124.104 99.499,-134.661 106.278,-132.918"/>
</g>
<!-- startDay -->
<g id="node8" class="node"><title>startDay</title>
<a xlink:href="learner_startDay.svg" xlink:title="Start Day">
<polygon fill="#e5ccff" stroke="#e5ccff" points="152.264,-52 101.736,-52 89.7359,-40 89.7359,-28 101.736,-16 152.264,-16 164.264,-28 164.264,-40 152.264,-52"/>
<path fill="#e5ccff" stroke="#e5ccff" d="M101.736,-52C95.7359,-52 89.7359,-46 89.7359,-40"/>
<path fill="#e5ccff" stroke="#e5ccff" d="M89.7359,-28C89.7359,-22 95.7359,-16 101.736,-16"/>
<path fill="#e5ccff" stroke="#e5ccff" d="M152.264,-16C158.264,-16 164.264,-22 164.264,-28"/>
<path fill="#e5ccff" stroke="#e5ccff" d="M164.264,-40C164.264,-46 158.264,-52 152.264,-52"/>
<polyline fill="none" stroke="black" points="152.264,-52 101.736,-52 "/>
<path fill="none" stroke="black" d="M101.736,-52C95.7359,-52 89.7359,-46 89.7359,-40"/>
<polyline fill="none" stroke="black" points="89.7359,-40 89.7359,-28 "/>
<path fill="none" stroke="black" d="M89.7359,-28C89.7359,-22 95.7359,-16 101.736,-16"/>
<polyline fill="none" stroke="black" points="101.736,-16 152.264,-16 "/>
<path fill="none" stroke="black" d="M152.264,-16C158.264,-16 164.264,-22 164.264,-28"/>
<polyline fill="none" stroke="black" points="164.264,-28 164.264,-40 "/>
<path fill="none" stroke="black" d="M164.264,-40C164.264,-46 158.264,-52 152.264,-52"/>
<text text-anchor="middle" x="127" y="-28.4" font-family="Helvetica,sans-Serif" font-size="14.00">Start Day</text>
</a>
</g>
<!-- resourceEngagement&#45;&gt;startDay -->
<g id="edge6" class="edge"><title>resourceEngagement&#45;&gt;startDay</title>
<path fill="none" stroke="darkslategray" stroke-width="3" d="M103.663,-87.6966C107.192,-79.7284 111.456,-70.0995 115.369,-61.2641"/>
<polygon fill="darkslategray" stroke="darkslategray" points="118.576,-62.6651 119.425,-52.1043 112.176,-59.8306 118.576,-62.6651"/>
</g>
<!-- startDay&#45;&gt;iteration -->
<g id="edge7" class="edge"><title>startDay&#45;&gt;iteration</title>
<path fill="none" stroke="darkslategray" stroke-width="3" d="M153.58,-52.0884C165.237,-61.1899 177.685,-73.506 184,-88 203.628,-133.052 181.526,-190.253 164.913,-222.934"/>
<polygon fill="darkslategray" stroke="darkslategray" points="161.774,-221.383 160.199,-231.86 167.964,-224.652 161.774,-221.383"/>
</g>
<!-- initializeState -->
<g id="node12" class="node"><title>initializeState</title>
<a xlink:href="learner_initializeState.svg" xlink:title="Initialize State">
<polygon fill="#ccffd8" stroke="#ccffd8" points="189.368,-424 110.632,-424 98.6317,-412 98.6317,-400 110.632,-388 189.368,-388 201.368,-400 201.368,-412 189.368,-424"/>
<path fill="#ccffd8" stroke="#ccffd8" d="M110.632,-424C104.632,-424 98.6317,-418 98.6317,-412"/>
<path fill="#ccffd8" stroke="#ccffd8" d="M98.6317,-400C98.6317,-394 104.632,-388 110.632,-388"/>
<path fill="#ccffd8" stroke="#ccffd8" d="M189.368,-388C195.368,-388 201.368,-394 201.368,-400"/>
<path fill="#ccffd8" stroke="#ccffd8" d="M201.368,-412C201.368,-418 195.368,-424 189.368,-424"/>
<polyline fill="none" stroke="black" points="189.368,-424 110.632,-424 "/>
<path fill="none" stroke="black" d="M110.632,-424C104.632,-424 98.6317,-418 98.6317,-412"/>
<polyline fill="none" stroke="black" points="98.6317,-412 98.6317,-400 "/>
<path fill="none" stroke="black" d="M98.6317,-400C98.6317,-394 104.632,-388 110.632,-388"/>
<polyline fill="none" stroke="black" points="110.632,-388 189.368,-388 "/>
<path fill="none" stroke="black" d="M189.368,-388C195.368,-388 201.368,-394 201.368,-400"/>
<polyline fill="none" stroke="black" points="201.368,-400 201.368,-412 "/>
<path fill="none" stroke="black" d="M201.368,-412C201.368,-418 195.368,-424 189.368,-424"/>
<text text-anchor="middle" x="150" y="-400.4" font-family="Helvetica,sans-Serif" font-size="14.00">Initialize State</text>
</a>
</g>
<!-- initializeLocation&#45;&gt;initializeState -->
<g id="edge11" class="edge"><title>initializeLocation&#45;&gt;initializeState</title>
<path fill="none" stroke="darkslategray" stroke-width="3" d="M150,-459.697C150,-451.983 150,-442.712 150,-434.112"/>
<polygon fill="darkslategray" stroke="darkslategray" points="153.5,-434.104 150,-424.104 146.5,-434.104 153.5,-434.104"/>
</g>
<!-- findHome -->
<g id="node13" class="node"><title>findHome</title>
<a xlink:href="learner_findHome.svg" xlink:title="Find Home">
<polygon fill="#fff2cc" stroke="#fff2cc" points="180.352,-352 119.648,-352 107.648,-340 107.648,-328 119.648,-316 180.352,-316 192.352,-328 192.352,-340 180.352,-352"/>
<path fill="#fff2cc" stroke="#fff2cc" d="M119.648,-352C113.648,-352 107.648,-346 107.648,-340"/>
<path fill="#fff2cc" stroke="#fff2cc" d="M107.648,-328C107.648,-322 113.648,-316 119.648,-316"/>
<path fill="#fff2cc" stroke="#fff2cc" d="M180.352,-316C186.352,-316 192.352,-322 192.352,-328"/>
<path fill="#fff2cc" stroke="#fff2cc" d="M192.352,-340C192.352,-346 186.352,-352 180.352,-352"/>
<polyline fill="none" stroke="black" points="180.352,-352 119.648,-352 "/>
<path fill="none" stroke="black" d="M119.648,-352C113.648,-352 107.648,-346 107.648,-340"/>
<polyline fill="none" stroke="black" points="107.648,-340 107.648,-328 "/>
<path fill="none" stroke="black" d="M107.648,-328C107.648,-322 113.648,-316 119.648,-316"/>
<polyline fill="none" stroke="black" points="119.648,-316 180.352,-316 "/>
<path fill="none" stroke="black" d="M180.352,-316C186.352,-316 192.352,-322 192.352,-328"/>
<polyline fill="none" stroke="black" points="192.352,-328 192.352,-340 "/>
<path fill="none" stroke="black" d="M192.352,-340C192.352,-346 186.352,-352 180.352,-352"/>
<text text-anchor="middle" x="150" y="-328.4" font-family="Helvetica,sans-Serif" font-size="14.00">Find Home</text>
</a>
</g>
<!-- initializeState&#45;&gt;findHome -->
<g id="edge12" class="edge"><title>initializeState&#45;&gt;findHome</title>
<path fill="none" stroke="darkslategray" stroke-width="3" d="M150,-387.697C150,-379.983 150,-370.712 150,-362.112"/>
<polygon fill="darkslategray" stroke="darkslategray" points="153.5,-362.104 150,-352.104 146.5,-362.104 153.5,-362.104"/>
</g>
<!-- findHome&#45;&gt;iteration -->
<g id="edge13" class="edge"><title>findHome&#45;&gt;iteration</title>
<path fill="none" stroke="darkslategray" stroke-width="3" d="M150,-315.61C150,-304.774 150,-290.601 150,-278.291"/>
<polygon fill="darkslategray" stroke="darkslategray" points="153.5,-278.084 150,-268.084 146.5,-278.084 153.5,-278.084"/>
</g>
</g>
</svg>
