<?xml version="1.0" encoding="UTF-8" standalone="no"?>
<!DOCTYPE svg PUBLIC "-//W3C//DTD SVG 1.1//EN"
 "http://www.w3.org/Graphics/SVG/1.1/DTD/svg11.dtd">
<!-- Generated by graphviz version 2.29.20110702.0445 (20110702.0445)
 -->
<!-- Title: initializeState Pages: 1 -->
<svg width="494pt" height="289pt"
 viewBox="0.00 0.00 494.00 289.00" xmlns="http://www.w3.org/2000/svg" xmlns:xlink="http://www.w3.org/1999/xlink">
<g id="graph1" class="graph" transform="scale(1 1) rotate(0) translate(4 285)">
<title>initializeState</title>
<polygon fill="white" stroke="white" points="-4,5 -4,-285 491,-285 491,5 -4,5"/>
<g id="graph2" class="cluster"><title>clustercontextKey</title>
<polygon fill="ghostwhite" stroke="white" points="8,-219 8,-273 96,-273 96,-219 8,-219"/>
<text text-anchor="middle" x="52.1792" y="-255" font-family="Helvetica,sans-Serif" font-size="14.00">Parameters</text>
</g>
<g id="graph3" class="cluster"><title>clusterlearnerKey</title>
<polygon fill="ghostwhite" stroke="white" points="104,-219 104,-273 168,-273 168,-219 104,-219"/>
<text text-anchor="middle" x="136.127" y="-255" font-family="Helvetica,sans-Serif" font-size="14.00">Learner</text>
</g>
<!-- contextOverview -->
<g id="node2" class="node"><title>contextOverview</title>
<ellipse fill="black" stroke="black" cx="52" cy="-234" rx="7.2" ry="7.2"/>
</g>
<!-- initializeStateOverview -->
<g id="node4" class="node"><title>initializeStateOverview</title>
<a xlink:href="learner__Overview.svg">
<ellipse fill="#14cc42" stroke="#14cc42" cx="135" cy="-234" rx="7.2" ry="7.2"/>
</a>
</g>
<!-- learnerlearningInterest -->
<g id="node5" class="node"><title>learnerlearningInterest</title>
<polygon fill="white" stroke="white" points="280.301,-108 159.699,-108 159.699,-72 280.301,-72 280.301,-108"/>
<text text-anchor="middle" x="220" y="-84.4" font-family="Helvetica,sans-Serif" font-size="14.00">Learning Interest</text>
</g>
<!-- learnerlearnerID -->
<g id="node6" class="node"><title>learnerlearnerID</title>
<polygon fill="white" stroke="white" points="381.108,-108 298.892,-108 298.892,-72 381.108,-72 381.108,-108"/>
<text text-anchor="middle" x="340" y="-84.4" font-family="Helvetica,sans-Serif" font-size="14.00">Learner ID</text>
</g>
<!-- spatialResourcesnextLearnerID -->
<g id="node7" class="node"><title>spatialResourcesnextLearnerID</title>
<polygon fill="white" stroke="white" points="486.25,-36 371.75,-36 371.75,-0 486.25,-0 486.25,-36"/>
<text text-anchor="start" x="380" y="-12.5" font-family="Helvetica,sans-Serif" font-size="14.00">Next Learner ID</text>
</g>
<!-- incrementNextLearnerID -->
<g id="node15" class="node"><title>incrementNextLearnerID</title>
<polygon fill="#ccffd8" stroke="#ccffd8" points="465.186,-108 410.814,-108 398.814,-96 398.814,-84 410.814,-72 465.186,-72 477.186,-84 477.186,-96 465.186,-108"/>
<path fill="#ccffd8" stroke="#ccffd8" d="M410.814,-108C404.814,-108 398.814,-102 398.814,-96"/>
<path fill="#ccffd8" stroke="#ccffd8" d="M398.814,-84C398.814,-78 404.814,-72 410.814,-72"/>
<path fill="#ccffd8" stroke="#ccffd8" d="M465.186,-72C471.186,-72 477.186,-78 477.186,-84"/>
<path fill="#ccffd8" stroke="#ccffd8" d="M477.186,-96C477.186,-102 471.186,-108 465.186,-108"/>
<polyline fill="none" stroke="#ccffd8" points="465.186,-108 410.814,-108 "/>
<path fill="none" stroke="#ccffd8" d="M410.814,-108C404.814,-108 398.814,-102 398.814,-96"/>
<polyline fill="none" stroke="#ccffd8" points="398.814,-96 398.814,-84 "/>
<path fill="none" stroke="#ccffd8" d="M398.814,-84C398.814,-78 404.814,-72 410.814,-72"/>
<polyline fill="none" stroke="#ccffd8" points="410.814,-72 465.186,-72 "/>
<path fill="none" stroke="#ccffd8" d="M465.186,-72C471.186,-72 477.186,-78 477.186,-84"/>
<polyline fill="none" stroke="#ccffd8" points="477.186,-84 477.186,-96 "/>
<path fill="none" stroke="#ccffd8" d="M477.186,-96C477.186,-102 471.186,-108 465.186,-108"/>
<text text-anchor="middle" x="438" y="-84.4" font-family="Helvetica,sans-Serif" font-size="14.00">Increment</text>
</g>
<!-- spatialResourcesnextLearnerID&#45;&gt;incrementNextLearnerID -->
<g id="edge18" class="edge"><title>spatialResourcesnextLearnerID&#45;&gt;incrementNextLearnerID:nw</title>
<path fill="none" stroke="black" stroke-width="2" stroke-dasharray="1,5" d="M416.221,-36.1469C409.635,-46.0666 402.284,-59.1072 398.876,-72 394.787,-87.4687 387.833,-96.4219 398.876,-108 403.234,-112.57 408.272,-114.45 413.124,-113.177"/>
<ellipse fill="black" stroke="black" cx="416.581" cy="-111.077" rx="4.00002" ry="4.00002"/>
</g>
<!-- initializeState -->
<g id="node8" class="node"><title>initializeState</title>
<a xlink:href="learner_initializeState.svg" xlink:title="Initialize State">
<polygon fill="#ccffd8" stroke="#ccffd8" points="267.368,-252 188.632,-252 176.632,-240 176.632,-228 188.632,-216 267.368,-216 279.368,-228 279.368,-240 267.368,-252"/>
<path fill="#ccffd8" stroke="#ccffd8" d="M188.632,-252C182.632,-252 176.632,-246 176.632,-240"/>
<path fill="#ccffd8" stroke="#ccffd8" d="M176.632,-228C176.632,-222 182.632,-216 188.632,-216"/>
<path fill="#ccffd8" stroke="#ccffd8" d="M267.368,-216C273.368,-216 279.368,-222 279.368,-228"/>
<path fill="#ccffd8" stroke="#ccffd8" d="M279.368,-240C279.368,-246 273.368,-252 267.368,-252"/>
<polyline fill="none" stroke="black" points="267.368,-252 188.632,-252 "/>
<path fill="none" stroke="black" d="M188.632,-252C182.632,-252 176.632,-246 176.632,-240"/>
<polyline fill="none" stroke="black" points="176.632,-240 176.632,-228 "/>
<path fill="none" stroke="black" d="M176.632,-228C176.632,-222 182.632,-216 188.632,-216"/>
<polyline fill="none" stroke="black" points="188.632,-216 267.368,-216 "/>
<path fill="none" stroke="black" d="M267.368,-216C273.368,-216 279.368,-222 279.368,-228"/>
<polyline fill="none" stroke="black" points="279.368,-228 279.368,-240 "/>
<path fill="none" stroke="black" d="M279.368,-240C279.368,-246 273.368,-252 267.368,-252"/>
<text text-anchor="middle" x="228" y="-228.4" font-family="Helvetica,sans-Serif" font-size="14.00">Initialize State</text>
</a>
</g>
<!-- initialInterest -->
<g id="node10" class="node"><title>initialInterest</title>
<polygon fill="#ccffd8" stroke="#ccffd8" points="260.446,-180 185.554,-180 173.554,-168 173.554,-156 185.554,-144 260.446,-144 272.446,-156 272.446,-168 260.446,-180"/>
<path fill="#ccffd8" stroke="#ccffd8" d="M185.554,-180C179.554,-180 173.554,-174 173.554,-168"/>
<path fill="#ccffd8" stroke="#ccffd8" d="M173.554,-156C173.554,-150 179.554,-144 185.554,-144"/>
<path fill="#ccffd8" stroke="#ccffd8" d="M260.446,-144C266.446,-144 272.446,-150 272.446,-156"/>
<path fill="#ccffd8" stroke="#ccffd8" d="M272.446,-168C272.446,-174 266.446,-180 260.446,-180"/>
<polyline fill="none" stroke="#ccffd8" points="260.446,-180 185.554,-180 "/>
<path fill="none" stroke="#ccffd8" d="M185.554,-180C179.554,-180 173.554,-174 173.554,-168"/>
<polyline fill="none" stroke="#ccffd8" points="173.554,-168 173.554,-156 "/>
<path fill="none" stroke="#ccffd8" d="M173.554,-156C173.554,-150 179.554,-144 185.554,-144"/>
<polyline fill="none" stroke="#ccffd8" points="185.554,-144 260.446,-144 "/>
<path fill="none" stroke="#ccffd8" d="M260.446,-144C266.446,-144 272.446,-150 272.446,-156"/>
<polyline fill="none" stroke="#ccffd8" points="272.446,-156 272.446,-168 "/>
<path fill="none" stroke="#ccffd8" d="M272.446,-168C272.446,-174 266.446,-180 260.446,-180"/>
<text text-anchor="middle" x="223" y="-156.4" font-family="Helvetica,sans-Serif" font-size="14.00">Initial Interest</text>
</g>
<!-- initializeState&#45;&gt;initialInterest -->
<g id="edge4" class="edge"><title>initializeState&#45;&gt;initialInterest</title>
<path fill="none" stroke="#14cc42" stroke-width="3" d="M226.764,-215.697C226.425,-210.95 226.044,-205.613 225.658,-200.206"/>
<polygon fill="#14cc42" stroke="#14cc42" points="232.629,-199.555 224.222,-180.104 218.665,-200.552 232.629,-199.555"/>
</g>
<!-- setLearnerIDToNextLearnerID -->
<g id="node12" class="node"><title>setLearnerIDToNextLearnerID</title>
<polygon fill="#ccffd8" stroke="#ccffd8" points="355,-180 325,-180 313,-168 313,-156 325,-144 355,-144 367,-156 367,-168 355,-180"/>
<path fill="#ccffd8" stroke="#ccffd8" d="M325,-180C319,-180 313,-174 313,-168"/>
<path fill="#ccffd8" stroke="#ccffd8" d="M313,-156C313,-150 319,-144 325,-144"/>
<path fill="#ccffd8" stroke="#ccffd8" d="M355,-144C361,-144 367,-150 367,-156"/>
<path fill="#ccffd8" stroke="#ccffd8" d="M367,-168C367,-174 361,-180 355,-180"/>
<polyline fill="none" stroke="#ccffd8" points="355,-180 325,-180 "/>
<path fill="none" stroke="#ccffd8" d="M325,-180C319,-180 313,-174 313,-168"/>
<polyline fill="none" stroke="#ccffd8" points="313,-168 313,-156 "/>
<path fill="none" stroke="#ccffd8" d="M313,-156C313,-150 319,-144 325,-144"/>
<polyline fill="none" stroke="#ccffd8" points="325,-144 355,-144 "/>
<path fill="none" stroke="#ccffd8" d="M355,-144C361,-144 367,-150 367,-156"/>
<polyline fill="none" stroke="#ccffd8" points="367,-156 367,-168 "/>
<path fill="none" stroke="#ccffd8" d="M367,-168C367,-174 361,-180 355,-180"/>
<text text-anchor="middle" x="340" y="-156.4" font-family="Helvetica,sans-Serif" font-size="14.00">Set</text>
</g>
<!-- initializeState&#45;&gt;setLearnerIDToNextLearnerID -->
<g id="edge6" class="edge"><title>initializeState&#45;&gt;setLearnerIDToNextLearnerID</title>
<path fill="none" stroke="#14cc42" stroke-width="3" d="M255.398,-215.876C267.556,-208.277 282.172,-199.142 295.81,-190.619"/>
<polygon fill="#14cc42" stroke="#14cc42" points="299.635,-196.483 312.885,-179.947 292.215,-184.611 299.635,-196.483"/>
</g>
<!-- initialInterest&#45;&gt;learnerlearningInterest -->
<g id="edge14" class="edge"><title>initialInterest&#45;&gt;learnerlearningInterest</title>
<path fill="none" stroke="#14cc42" stroke-width="3" d="M222.258,-143.697C222.055,-138.95 221.826,-133.613 221.595,-128.206"/>
<polygon fill="#14cc42" stroke="#14cc42" points="228.583,-127.786 220.733,-108.104 214.596,-128.386 228.583,-127.786"/>
</g>
<!-- setLearnerIDToNextLearnerID&#45;&gt;learnerlearnerID -->
<g id="edge8" class="edge"><title>setLearnerIDToNextLearnerID&#45;&gt;learnerlearnerID</title>
<path fill="none" stroke="#14cc42" stroke-width="3" d="M340,-143.697C340,-138.95 340,-133.613 340,-128.206"/>
<polygon fill="#14cc42" stroke="#14cc42" points="347,-128.104 340,-108.104 333,-128.104 347,-128.104"/>
</g>
<!-- setLearnerIDToNextLearnerID&#45;&gt;incrementNextLearnerID -->
<g id="edge10" class="edge"><title>setLearnerIDToNextLearnerID&#45;&gt;incrementNextLearnerID</title>
<path fill="none" stroke="#14cc42" stroke-width="3" d="M363.973,-143.876C374.058,-136.673 386.076,-128.088 397.465,-119.954"/>
<polygon fill="#14cc42" stroke="#14cc42" points="401.728,-125.511 413.934,-108.19 393.591,-114.118 401.728,-125.511"/>
</g>
<!-- incrementNextLearnerID&#45;&gt;spatialResourcesnextLearnerID -->
<g id="edge12" class="edge"><title>incrementNextLearnerID&#45;&gt;spatialResourcesnextLearnerID</title>
<path fill="none" stroke="#14cc42" stroke-width="3" d="M435.775,-71.6966C435.165,-66.9496 434.479,-61.6132 433.784,-56.2063"/>
<polygon fill="#14cc42" stroke="#14cc42" points="440.693,-55.0484 431.199,-36.1043 426.807,-56.8337 440.693,-55.0484"/>
</g>
<!-- importabcsetLearnerIDToNextLearnerIDspatialResourcesnextLearnerID -->
<g id="node18" class="node"><title>importabcsetLearnerIDToNextLearnerIDspatialResourcesnextLearnerID</title>
<text text-anchor="middle" x="358" y="-228.4" font-family="Helvetica,sans-Serif" font-size="14.00">Next Learner ID</text>
</g>
<!-- importabcsetLearnerIDToNextLearnerIDspatialResourcesnextLearnerID&#45;&gt;setLearnerIDToNextLearnerID -->
<g id="edge16" class="edge"><title>importabcsetLearnerIDToNextLearnerIDspatialResourcesnextLearnerID&#45;&gt;setLearnerIDToNextLearnerID:ne</title>
<path fill="none" stroke="black" stroke-width="2" stroke-dasharray="1,5" d="M363.611,-215.826C365.677,-206.67 366.65,-195.513 362.633,-186.727"/>
<ellipse fill="black" stroke="black" cx="360.269" cy="-183.294" rx="4.00002" ry="4.00002"/>
</g>
</g>
</svg>
