<?xml version="1.0" encoding="UTF-8" standalone="no"?>
<!DOCTYPE svg PUBLIC "-//W3C//DTD SVG 1.1//EN"
 "http://www.w3.org/Graphics/SVG/1.1/DTD/svg11.dtd">
<!-- Generated by graphviz version 2.29.20110702.0445 (20110702.0445)
 -->
<!-- Title: deriveLearnerIndex Pages: 1 -->
<svg width="430pt" height="145pt"
 viewBox="0.00 0.00 430.00 145.00" xmlns="http://www.w3.org/2000/svg" xmlns:xlink="http://www.w3.org/1999/xlink">
<g id="graph1" class="graph" transform="scale(1 1) rotate(0) translate(4 141)">
<title>deriveLearnerIndex</title>
<polygon fill="white" stroke="white" points="-4,5 -4,-141 427,-141 427,5 -4,5"/>
<g id="graph2" class="cluster"><title>clustercontextKey</title>
<polygon fill="ghostwhite" stroke="white" points="8,-75 8,-129 96,-129 96,-75 8,-75"/>
<text text-anchor="middle" x="52.1792" y="-111" font-family="Helvetica,sans-Serif" font-size="14.00">Parameters</text>
</g>
<g id="graph3" class="cluster"><title>clusterlearnerKey</title>
<polygon fill="ghostwhite" stroke="white" points="104,-75 104,-129 168,-129 168,-75 104,-75"/>
<text text-anchor="middle" x="136.127" y="-111" font-family="Helvetica,sans-Serif" font-size="14.00">Learner</text>
</g>
<!-- contextOverview -->
<g id="node2" class="node"><title>contextOverview</title>
<ellipse fill="black" stroke="black" cx="52" cy="-90" rx="7.2" ry="7.2"/>
</g>
<!-- deriveLearnerIndexOverview -->
<g id="node4" class="node"><title>deriveLearnerIndexOverview</title>
<a xlink:href="learner__Overview.svg">
<ellipse fill="#cc1414" stroke="#cc1414" cx="135" cy="-90" rx="7.2" ry="7.2"/>
</a>
</g>
<!-- learnerlearnerID -->
<g id="node5" class="node"><title>learnerlearnerID</title>
<polygon fill="white" stroke="white" points="258.108,-108 175.892,-108 175.892,-72 258.108,-72 258.108,-108"/>
<text text-anchor="middle" x="217" y="-84.4" font-family="Helvetica,sans-Serif" font-size="14.00">Learner ID</text>
</g>
<!-- identityLearnerID -->
<g id="node8" class="node"><title>identityLearnerID</title>
<polygon fill="#ffcccc" stroke="#ffcccc" points="314.193,-36 269.807,-36 257.807,-24 257.807,-12 269.807,-0 314.193,-0 326.193,-12 326.193,-24 314.193,-36"/>
<path fill="#ffcccc" stroke="#ffcccc" d="M269.807,-36C263.807,-36 257.807,-30 257.807,-24"/>
<path fill="#ffcccc" stroke="#ffcccc" d="M257.807,-12C257.807,-6 263.807,-0 269.807,-0"/>
<path fill="#ffcccc" stroke="#ffcccc" d="M314.193,-0C320.193,-0 326.193,-6 326.193,-12"/>
<path fill="#ffcccc" stroke="#ffcccc" d="M326.193,-24C326.193,-30 320.193,-36 314.193,-36"/>
<polyline fill="none" stroke="#ffcccc" points="314.193,-36 269.807,-36 "/>
<path fill="none" stroke="#ffcccc" d="M269.807,-36C263.807,-36 257.807,-30 257.807,-24"/>
<polyline fill="none" stroke="#ffcccc" points="257.807,-24 257.807,-12 "/>
<path fill="none" stroke="#ffcccc" d="M257.807,-12C257.807,-6 263.807,-0 269.807,-0"/>
<polyline fill="none" stroke="#ffcccc" points="269.807,-0 314.193,-0 "/>
<path fill="none" stroke="#ffcccc" d="M314.193,-0C320.193,-0 326.193,-6 326.193,-12"/>
<polyline fill="none" stroke="#ffcccc" points="326.193,-12 326.193,-24 "/>
<path fill="none" stroke="#ffcccc" d="M326.193,-24C326.193,-30 320.193,-36 314.193,-36"/>
<text text-anchor="middle" x="292" y="-12.4" font-family="Helvetica,sans-Serif" font-size="14.00">Identity?</text>
</g>
<!-- learnerlearnerID&#45;&gt;identityLearnerID -->
<g id="edge6" class="edge"><title>learnerlearnerID&#45;&gt;identityLearnerID:nw</title>
<path fill="none" stroke="#cc1414" stroke-width="2" stroke-dasharray="1,5" d="M236.066,-71.911C245.542,-63.2848 257.258,-52.4247 268.092,-41.8377"/>
<ellipse fill="#cc1414" stroke="#cc1414" cx="271.155" cy="-38.8114" rx="4.00002" ry="4.00002"/>
</g>
<!-- deriveLearnerIndex -->
<g id="node6" class="node"><title>deriveLearnerIndex</title>
<a xlink:href="learner_deriveLearnerIndex.svg" xlink:title="Derive Learner Index">
<polygon fill="#ffcccc" stroke="#ffcccc" points="410.054,-108 287.946,-108 275.946,-96 275.946,-84 287.946,-72 410.054,-72 422.054,-84 422.054,-96 410.054,-108"/>
<path fill="#ffcccc" stroke="#ffcccc" d="M287.946,-108C281.946,-108 275.946,-102 275.946,-96"/>
<path fill="#ffcccc" stroke="#ffcccc" d="M275.946,-84C275.946,-78 281.946,-72 287.946,-72"/>
<path fill="#ffcccc" stroke="#ffcccc" d="M410.054,-72C416.054,-72 422.054,-78 422.054,-84"/>
<path fill="#ffcccc" stroke="#ffcccc" d="M422.054,-96C422.054,-102 416.054,-108 410.054,-108"/>
<polyline fill="none" stroke="black" points="410.054,-108 287.946,-108 "/>
<path fill="none" stroke="black" d="M287.946,-108C281.946,-108 275.946,-102 275.946,-96"/>
<polyline fill="none" stroke="black" points="275.946,-96 275.946,-84 "/>
<path fill="none" stroke="black" d="M275.946,-84C275.946,-78 281.946,-72 287.946,-72"/>
<polyline fill="none" stroke="black" points="287.946,-72 410.054,-72 "/>
<path fill="none" stroke="black" d="M410.054,-72C416.054,-72 422.054,-78 422.054,-84"/>
<polyline fill="none" stroke="black" points="422.054,-84 422.054,-96 "/>
<path fill="none" stroke="black" d="M422.054,-96C422.054,-102 416.054,-108 410.054,-108"/>
<text text-anchor="middle" x="349" y="-84.4" font-family="Helvetica,sans-Serif" font-size="14.00">Derive Learner Index</text>
</a>
</g>
<!-- deriveLearnerIndex&#45;&gt;identityLearnerID -->
<g id="edge4" class="edge"><title>deriveLearnerIndex&#45;&gt;identityLearnerID</title>
<path fill="none" stroke="#cc1414" stroke-width="3" d="M334.91,-71.6966C330.009,-65.6781 324.337,-58.7121 318.754,-51.8563"/>
<polygon fill="#cc1414" stroke="#cc1414" points="323.984,-47.1931 305.928,-36.1043 313.128,-56.0331 323.984,-47.1931"/>
</g>
</g>
</svg>
