<?xml version="1.0" encoding="UTF-8" standalone="no"?>
<!DOCTYPE svg PUBLIC "-//W3C//DTD SVG 1.1//EN"
 "http://www.w3.org/Graphics/SVG/1.1/DTD/svg11.dtd">
<!-- Generated by graphviz version 2.29.20110702.0445 (20110702.0445)
 -->
<!-- Title: learningResource Pages: 1 -->
<svg width="1025pt" height="369pt"
 viewBox="0.00 0.00 1025.00 369.00" xmlns="http://www.w3.org/2000/svg" xmlns:xlink="http://www.w3.org/1999/xlink">
<g id="graph1" class="graph" transform="scale(1 1) rotate(0) translate(4 365)">
<title>learningResource</title>
<polygon fill="white" stroke="white" points="-4,5 -4,-365 1022,-365 1022,5 -4,5"/>
<g id="graph2" class="cluster"><title>clustercontextKey</title>
<polygon fill="ghostwhite" stroke="white" points="8,-299 8,-353 96,-353 96,-299 8,-299"/>
<text text-anchor="middle" x="52.1792" y="-335" font-family="Helvetica,sans-Serif" font-size="14.00">Parameters</text>
</g>
<g id="graph3" class="cluster"><title>clusterlearningResourceKey</title>
<polygon fill="ghostwhite" stroke="white" points="104,-147 104,-353 238,-353 238,-147 104,-147"/>
<text text-anchor="middle" x="171.148" y="-335" font-family="Helvetica,sans-Serif" font-size="14.00">Learning Resource</text>
</g>
<!-- contextOverview -->
<g id="node2" class="node"><title>contextOverview</title>
<ellipse fill="black" stroke="black" cx="52" cy="-314" rx="7.2" ry="7.2"/>
</g>
<!-- initializeLocationOverview -->
<g id="node4" class="node"><title>initializeLocationOverview</title>
<a xlink:href="learningResource__Overview.svg">
<ellipse fill="#70cc14" stroke="#70cc14" cx="169" cy="-314" rx="7.2" ry="7.2"/>
</a>
</g>
<!-- initializeStateOverview -->
<g id="node5" class="node"><title>initializeStateOverview</title>
<a xlink:href="learningResource__Overview.svg">
<ellipse fill="#14cccc" stroke="#14cccc" cx="169" cy="-234" rx="7.2" ry="7.2"/>
</a>
</g>
<!-- initializeLocationOverview&#45;&gt;initializeStateOverview -->
<!-- initializeIDOverview -->
<g id="node6" class="node"><title>initializeIDOverview</title>
<a xlink:href="learningResource__Overview.svg">
<ellipse fill="#cc1414" stroke="#cc1414" cx="169" cy="-162" rx="7.2" ry="7.2"/>
</a>
</g>
<!-- initializeStateOverview&#45;&gt;initializeIDOverview -->
<!-- learningResourceefficacy -->
<g id="node8" class="node"><title>learningResourceefficacy</title>
<polygon fill="white" stroke="white" points="342.26,-180 277.74,-180 277.74,-144 342.26,-144 342.26,-180"/>
<text text-anchor="middle" x="310" y="-156.4" font-family="Helvetica,sans-Serif" font-size="14.00">Efficacy</text>
</g>
<!-- initializeState -->
<g id="node9" class="node"><title>initializeState</title>
<a xlink:href="learningResource_initializeState.svg" xlink:title="Initialize State">
<polygon fill="#ccffff" stroke="#ccffff" points="349.368,-332 270.632,-332 258.632,-320 258.632,-308 270.632,-296 349.368,-296 361.368,-308 361.368,-320 349.368,-332"/>
<path fill="#ccffff" stroke="#ccffff" d="M270.632,-332C264.632,-332 258.632,-326 258.632,-320"/>
<path fill="#ccffff" stroke="#ccffff" d="M258.632,-308C258.632,-302 264.632,-296 270.632,-296"/>
<path fill="#ccffff" stroke="#ccffff" d="M349.368,-296C355.368,-296 361.368,-302 361.368,-308"/>
<path fill="#ccffff" stroke="#ccffff" d="M361.368,-320C361.368,-326 355.368,-332 349.368,-332"/>
<polyline fill="none" stroke="black" points="349.368,-332 270.632,-332 "/>
<path fill="none" stroke="black" d="M270.632,-332C264.632,-332 258.632,-326 258.632,-320"/>
<polyline fill="none" stroke="black" points="258.632,-320 258.632,-308 "/>
<path fill="none" stroke="black" d="M258.632,-308C258.632,-302 264.632,-296 270.632,-296"/>
<polyline fill="none" stroke="black" points="270.632,-296 349.368,-296 "/>
<path fill="none" stroke="black" d="M349.368,-296C355.368,-296 361.368,-302 361.368,-308"/>
<polyline fill="none" stroke="black" points="361.368,-308 361.368,-320 "/>
<path fill="none" stroke="black" d="M361.368,-320C361.368,-326 355.368,-332 349.368,-332"/>
<text text-anchor="middle" x="310" y="-308.4" font-family="Helvetica,sans-Serif" font-size="14.00">Initialize State</text>
</a>
</g>
<!-- resourceEfficacy -->
<g id="node11" class="node"><title>resourceEfficacy</title>
<polygon fill="#ccffff" stroke="#ccffff" points="362.116,-252 257.884,-252 245.884,-240 245.884,-228 257.884,-216 362.116,-216 374.116,-228 374.116,-240 362.116,-252"/>
<path fill="#ccffff" stroke="#ccffff" d="M257.884,-252C251.884,-252 245.884,-246 245.884,-240"/>
<path fill="#ccffff" stroke="#ccffff" d="M245.884,-228C245.884,-222 251.884,-216 257.884,-216"/>
<path fill="#ccffff" stroke="#ccffff" d="M362.116,-216C368.116,-216 374.116,-222 374.116,-228"/>
<path fill="#ccffff" stroke="#ccffff" d="M374.116,-240C374.116,-246 368.116,-252 362.116,-252"/>
<polyline fill="none" stroke="#ccffff" points="362.116,-252 257.884,-252 "/>
<path fill="none" stroke="#ccffff" d="M257.884,-252C251.884,-252 245.884,-246 245.884,-240"/>
<polyline fill="none" stroke="#ccffff" points="245.884,-240 245.884,-228 "/>
<path fill="none" stroke="#ccffff" d="M245.884,-228C245.884,-222 251.884,-216 257.884,-216"/>
<polyline fill="none" stroke="#ccffff" points="257.884,-216 362.116,-216 "/>
<path fill="none" stroke="#ccffff" d="M362.116,-216C368.116,-216 374.116,-222 374.116,-228"/>
<polyline fill="none" stroke="#ccffff" points="374.116,-228 374.116,-240 "/>
<path fill="none" stroke="#ccffff" d="M374.116,-240C374.116,-246 368.116,-252 362.116,-252"/>
<text text-anchor="middle" x="310" y="-228.4" font-family="Helvetica,sans-Serif" font-size="14.00">Resource Efficacy</text>
</g>
<!-- initializeState&#45;&gt;resourceEfficacy -->
<g id="edge7" class="edge"><title>initializeState&#45;&gt;resourceEfficacy</title>
<path fill="none" stroke="#14cccc" stroke-width="3" d="M310,-295.689C310,-288.822 310,-280.64 310,-272.542"/>
<polygon fill="#14cccc" stroke="#14cccc" points="317,-272.262 310,-252.262 303,-272.262 317,-272.262"/>
</g>
<!-- resourceEfficacy&#45;&gt;learningResourceefficacy -->
<g id="edge9" class="edge"><title>resourceEfficacy&#45;&gt;learningResourceefficacy</title>
<path fill="none" stroke="#14cccc" stroke-width="3" d="M310,-215.697C310,-210.95 310,-205.613 310,-200.206"/>
<polygon fill="#14cccc" stroke="#14cccc" points="317,-200.104 310,-180.104 303,-200.104 317,-200.104"/>
</g>
<!-- learningResourceresourceID -->
<g id="node13" class="node"><title>learningResourceresourceID</title>
<polygon fill="white" stroke="white" points="542.356,-180 449.644,-180 449.644,-144 542.356,-144 542.356,-180"/>
<text text-anchor="middle" x="496" y="-156.4" font-family="Helvetica,sans-Serif" font-size="14.00">Resource ID</text>
</g>
<!-- incrementResourceID -->
<g id="node19" class="node"><title>incrementResourceID</title>
<polygon fill="#ffcccc" stroke="#ffcccc" points="562.186,-108 507.814,-108 495.814,-96 495.814,-84 507.814,-72 562.186,-72 574.186,-84 574.186,-96 562.186,-108"/>
<path fill="#ffcccc" stroke="#ffcccc" d="M507.814,-108C501.814,-108 495.814,-102 495.814,-96"/>
<path fill="#ffcccc" stroke="#ffcccc" d="M495.814,-84C495.814,-78 501.814,-72 507.814,-72"/>
<path fill="#ffcccc" stroke="#ffcccc" d="M562.186,-72C568.186,-72 574.186,-78 574.186,-84"/>
<path fill="#ffcccc" stroke="#ffcccc" d="M574.186,-96C574.186,-102 568.186,-108 562.186,-108"/>
<polyline fill="none" stroke="#ffcccc" points="562.186,-108 507.814,-108 "/>
<path fill="none" stroke="#ffcccc" d="M507.814,-108C501.814,-108 495.814,-102 495.814,-96"/>
<polyline fill="none" stroke="#ffcccc" points="495.814,-96 495.814,-84 "/>
<path fill="none" stroke="#ffcccc" d="M495.814,-84C495.814,-78 501.814,-72 507.814,-72"/>
<polyline fill="none" stroke="#ffcccc" points="507.814,-72 562.186,-72 "/>
<path fill="none" stroke="#ffcccc" d="M562.186,-72C568.186,-72 574.186,-78 574.186,-84"/>
<polyline fill="none" stroke="#ffcccc" points="574.186,-84 574.186,-96 "/>
<path fill="none" stroke="#ffcccc" d="M574.186,-96C574.186,-102 568.186,-108 562.186,-108"/>
<text text-anchor="middle" x="535" y="-84.4" font-family="Helvetica,sans-Serif" font-size="14.00">Increment</text>
</g>
<!-- learningResourceresourceID&#45;&gt;incrementResourceID -->
<g id="edge19" class="edge"><title>learningResourceresourceID&#45;&gt;incrementResourceID:nw</title>
<path fill="none" stroke="#cc1414" stroke-width="2" stroke-dasharray="1,5" d="M499.116,-143.755C501.432,-134.541 505.347,-123.257 511.821,-114.169"/>
<ellipse fill="#cc1414" stroke="#cc1414" cx="514.428" cy="-111.063" rx="4.00002" ry="4.00002"/>
</g>
<!-- spatialResourcesnextResourceID -->
<g id="node14" class="node"><title>spatialResourcesnextResourceID</title>
<polygon fill="white" stroke="white" points="598.25,-36 471.75,-36 471.75,-0 598.25,-0 598.25,-36"/>
<text text-anchor="start" x="480" y="-12.5" font-family="Helvetica,sans-Serif" font-size="14.00">Next Resource ID</text>
</g>
<!-- initializeID -->
<g id="node15" class="node"><title>initializeID</title>
<a xlink:href="learningResource_initializeID.svg" xlink:title="Initialize ID">
<polygon fill="#ffcccc" stroke="#ffcccc" points="452.352,-332 391.648,-332 379.648,-320 379.648,-308 391.648,-296 452.352,-296 464.352,-308 464.352,-320 452.352,-332"/>
<path fill="#ffcccc" stroke="#ffcccc" d="M391.648,-332C385.648,-332 379.648,-326 379.648,-320"/>
<path fill="#ffcccc" stroke="#ffcccc" d="M379.648,-308C379.648,-302 385.648,-296 391.648,-296"/>
<path fill="#ffcccc" stroke="#ffcccc" d="M452.352,-296C458.352,-296 464.352,-302 464.352,-308"/>
<path fill="#ffcccc" stroke="#ffcccc" d="M464.352,-320C464.352,-326 458.352,-332 452.352,-332"/>
<polyline fill="none" stroke="black" points="452.352,-332 391.648,-332 "/>
<path fill="none" stroke="black" d="M391.648,-332C385.648,-332 379.648,-326 379.648,-320"/>
<polyline fill="none" stroke="black" points="379.648,-320 379.648,-308 "/>
<path fill="none" stroke="black" d="M379.648,-308C379.648,-302 385.648,-296 391.648,-296"/>
<polyline fill="none" stroke="black" points="391.648,-296 452.352,-296 "/>
<path fill="none" stroke="black" d="M452.352,-296C458.352,-296 464.352,-302 464.352,-308"/>
<polyline fill="none" stroke="black" points="464.352,-308 464.352,-320 "/>
<path fill="none" stroke="black" d="M464.352,-320C464.352,-326 458.352,-332 452.352,-332"/>
<text text-anchor="middle" x="422" y="-308.4" font-family="Helvetica,sans-Serif" font-size="14.00">Initialize ID</text>
</a>
</g>
<!-- setResourceIDToNextResourceID -->
<g id="node17" class="node"><title>setResourceIDToNextResourceID</title>
<polygon fill="#ffcccc" stroke="#ffcccc" points="531,-252 501,-252 489,-240 489,-228 501,-216 531,-216 543,-228 543,-240 531,-252"/>
<path fill="#ffcccc" stroke="#ffcccc" d="M501,-252C495,-252 489,-246 489,-240"/>
<path fill="#ffcccc" stroke="#ffcccc" d="M489,-228C489,-222 495,-216 501,-216"/>
<path fill="#ffcccc" stroke="#ffcccc" d="M531,-216C537,-216 543,-222 543,-228"/>
<path fill="#ffcccc" stroke="#ffcccc" d="M543,-240C543,-246 537,-252 531,-252"/>
<polyline fill="none" stroke="#ffcccc" points="531,-252 501,-252 "/>
<path fill="none" stroke="#ffcccc" d="M501,-252C495,-252 489,-246 489,-240"/>
<polyline fill="none" stroke="#ffcccc" points="489,-240 489,-228 "/>
<path fill="none" stroke="#ffcccc" d="M489,-228C489,-222 495,-216 501,-216"/>
<polyline fill="none" stroke="#ffcccc" points="501,-216 531,-216 "/>
<path fill="none" stroke="#ffcccc" d="M531,-216C537,-216 543,-222 543,-228"/>
<polyline fill="none" stroke="#ffcccc" points="543,-228 543,-240 "/>
<path fill="none" stroke="#ffcccc" d="M543,-240C543,-246 537,-252 531,-252"/>
<text text-anchor="middle" x="516" y="-228.4" font-family="Helvetica,sans-Serif" font-size="14.00">Set</text>
</g>
<!-- initializeID&#45;&gt;setResourceIDToNextResourceID -->
<g id="edge11" class="edge"><title>initializeID&#45;&gt;setResourceIDToNextResourceID</title>
<path fill="none" stroke="#cc1414" stroke-width="3" d="M442.862,-295.689C453.693,-286.702 467.239,-275.461 479.721,-265.104"/>
<polygon fill="#cc1414" stroke="#cc1414" points="484.275,-270.421 495.197,-252.262 475.335,-259.647 484.275,-270.421"/>
</g>
<!-- setResourceIDToNextResourceID&#45;&gt;learningResourceresourceID -->
<g id="edge13" class="edge"><title>setResourceIDToNextResourceID&#45;&gt;learningResourceresourceID</title>
<path fill="none" stroke="#cc1414" stroke-width="3" d="M511.056,-215.697C509.627,-210.695 508.011,-205.04 506.382,-199.337"/>
<polygon fill="#cc1414" stroke="#cc1414" points="513.112,-197.412 500.887,-180.104 499.651,-201.258 513.112,-197.412"/>
</g>
<!-- setResourceIDToNextResourceID&#45;&gt;incrementResourceID -->
<g id="edge17" class="edge"><title>setResourceIDToNextResourceID&#45;&gt;incrementResourceID</title>
<path fill="none" stroke="#cc1414" stroke-width="3" d="M531.183,-215.703C538.732,-205.939 547.066,-193.095 551,-180 556.087,-163.064 553.6,-143.801 549.219,-127.538"/>
<polygon fill="#cc1414" stroke="#cc1414" points="555.79,-125.112 542.847,-108.334 542.502,-129.521 555.79,-125.112"/>
</g>
<!-- incrementResourceID&#45;&gt;spatialResourcesnextResourceID -->
<g id="edge15" class="edge"><title>incrementResourceID&#45;&gt;spatialResourcesnextResourceID</title>
<path fill="none" stroke="#cc1414" stroke-width="3" d="M535,-71.6966C535,-66.9496 535,-61.6132 535,-56.2063"/>
<polygon fill="#cc1414" stroke="#cc1414" points="542,-56.1043 535,-36.1043 528,-56.1044 542,-56.1043"/>
</g>
<!-- importabcsetResourceIDToNextResourceIDspatialResourcesnextResourceID -->
<g id="node23" class="node"><title>importabcsetResourceIDToNextResourceIDspatialResourcesnextResourceID</title>
<text text-anchor="middle" x="545" y="-308.4" font-family="Helvetica,sans-Serif" font-size="14.00">Next Resource ID</text>
</g>
<!-- importabcsetResourceIDToNextResourceIDspatialResourcesnextResourceID&#45;&gt;setResourceIDToNextResourceID -->
<g id="edge21" class="edge"><title>importabcsetResourceIDToNextResourceIDspatialResourcesnextResourceID&#45;&gt;setResourceIDToNextResourceID:ne</title>
<path fill="none" stroke="black" stroke-width="2" stroke-dasharray="1,5" d="M546.783,-295.881C547.132,-284.503 545.912,-269.652 539.043,-258.444"/>
<ellipse fill="black" stroke="black" cx="536.465" cy="-255.15" rx="4.00002" ry="4.00002"/>
</g>
<!-- spatialResourcesresourceDistributionRecord -->
<g id="node25" class="node"><title>spatialResourcesresourceDistributionRecord</title>
<polygon fill="white" stroke="none" points="790.014,-289.2 790.014,-338.8 995.986,-338.8 995.986,-289.2 790.014,-289.2"/>
<text text-anchor="middle" x="893" y="-320.8" font-family="Helvetica,sans-Serif" font-size="14.00">Resource Distribution</text>
<polyline fill="none" stroke="none" points="790.014,-314 995.986,-314 "/>
<text text-anchor="middle" x="822.528" y="-296" font-family="Helvetica,sans-Serif" font-size="14.00">Regular</text>
<polyline fill="none" stroke="none" points="855.042,-289.2 855.042,-314 "/>
<text text-anchor="middle" x="891.055" y="-296" font-family="Helvetica,sans-Serif" font-size="14.00">Clumped</text>
<polyline fill="none" stroke="none" points="927.069,-289.2 927.069,-314 "/>
<text text-anchor="middle" x="961.527" y="-296" font-family="Helvetica,sans-Serif" font-size="14.00">Random</text>
</g>
<!-- randomPlacement -->
<g id="node28" class="node"><title>randomPlacement</title>
<polygon fill="#e5ffcc" stroke="#e5ffcc" points="959,-252 929,-252 917,-240 917,-228 929,-216 959,-216 971,-228 971,-240 959,-252"/>
<path fill="#e5ffcc" stroke="#e5ffcc" d="M929,-252C923,-252 917,-246 917,-240"/>
<path fill="#e5ffcc" stroke="#e5ffcc" d="M917,-228C917,-222 923,-216 929,-216"/>
<path fill="#e5ffcc" stroke="#e5ffcc" d="M959,-216C965,-216 971,-222 971,-228"/>
<path fill="#e5ffcc" stroke="#e5ffcc" d="M971,-240C971,-246 965,-252 959,-252"/>
<polyline fill="none" stroke="#e5ffcc" points="959,-252 929,-252 "/>
<path fill="none" stroke="#e5ffcc" d="M929,-252C923,-252 917,-246 917,-240"/>
<polyline fill="none" stroke="#e5ffcc" points="917,-240 917,-228 "/>
<path fill="none" stroke="#e5ffcc" d="M917,-228C917,-222 923,-216 929,-216"/>
<polyline fill="none" stroke="#e5ffcc" points="929,-216 959,-216 "/>
<path fill="none" stroke="#e5ffcc" d="M959,-216C965,-216 971,-222 971,-228"/>
<polyline fill="none" stroke="#e5ffcc" points="971,-228 971,-240 "/>
<path fill="none" stroke="#e5ffcc" d="M971,-240C971,-246 965,-252 959,-252"/>
<text text-anchor="middle" x="944" y="-228.4" font-family="Helvetica,sans-Serif" font-size="14.00">Is?</text>
</g>
<!-- spatialResourcesresourceDistributionRecord&#45;&gt;randomPlacement -->
<g id="edge45" class="edge"><title>spatialResourcesresourceDistributionRecord:spatialResourcesresourceDistributionrandom&#45;&gt;randomPlacement:ne</title>
<path fill="none" stroke="#70cc14" stroke-width="2" stroke-dasharray="1,5" d="M962,-288C962,-275.5 968.905,-267.464 966.532,-259.152"/>
<ellipse fill="#70cc14" stroke="#70cc14" cx="964.141" cy="-255.379" rx="4.00002" ry="4.00002"/>
</g>
<!-- regularPlacement -->
<g id="node30" class="node"><title>regularPlacement</title>
<polygon fill="#e5ffcc" stroke="#e5ffcc" points="733,-252 703,-252 691,-240 691,-228 703,-216 733,-216 745,-228 745,-240 733,-252"/>
<path fill="#e5ffcc" stroke="#e5ffcc" d="M703,-252C697,-252 691,-246 691,-240"/>
<path fill="#e5ffcc" stroke="#e5ffcc" d="M691,-228C691,-222 697,-216 703,-216"/>
<path fill="#e5ffcc" stroke="#e5ffcc" d="M733,-216C739,-216 745,-222 745,-228"/>
<path fill="#e5ffcc" stroke="#e5ffcc" d="M745,-240C745,-246 739,-252 733,-252"/>
<polyline fill="none" stroke="#e5ffcc" points="733,-252 703,-252 "/>
<path fill="none" stroke="#e5ffcc" d="M703,-252C697,-252 691,-246 691,-240"/>
<polyline fill="none" stroke="#e5ffcc" points="691,-240 691,-228 "/>
<path fill="none" stroke="#e5ffcc" d="M691,-228C691,-222 697,-216 703,-216"/>
<polyline fill="none" stroke="#e5ffcc" points="703,-216 733,-216 "/>
<path fill="none" stroke="#e5ffcc" d="M733,-216C739,-216 745,-222 745,-228"/>
<polyline fill="none" stroke="#e5ffcc" points="745,-228 745,-240 "/>
<path fill="none" stroke="#e5ffcc" d="M745,-240C745,-246 739,-252 733,-252"/>
<text text-anchor="middle" x="718" y="-228.4" font-family="Helvetica,sans-Serif" font-size="14.00">Is?</text>
</g>
<!-- spatialResourcesresourceDistributionRecord&#45;&gt;regularPlacement -->
<g id="edge47" class="edge"><title>spatialResourcesresourceDistributionRecord:spatialResourcesresourceDistributionregular&#45;&gt;regularPlacement:ne</title>
<path fill="none" stroke="#70cc14" stroke-width="2" stroke-dasharray="1,5" d="M789,-302C781.603,-302 784.923,-293.521 780,-288 765.155,-271.351 756.153,-269.965 741.955,-257.577"/>
<ellipse fill="#70cc14" stroke="#70cc14" cx="738.92" cy="-254.734" rx="4.00002" ry="4.00002"/>
</g>
<!-- clumpedPlacement -->
<g id="node32" class="node"><title>clumpedPlacement</title>
<polygon fill="#e5ffcc" stroke="#e5ffcc" points="849,-252 819,-252 807,-240 807,-228 819,-216 849,-216 861,-228 861,-240 849,-252"/>
<path fill="#e5ffcc" stroke="#e5ffcc" d="M819,-252C813,-252 807,-246 807,-240"/>
<path fill="#e5ffcc" stroke="#e5ffcc" d="M807,-228C807,-222 813,-216 819,-216"/>
<path fill="#e5ffcc" stroke="#e5ffcc" d="M849,-216C855,-216 861,-222 861,-228"/>
<path fill="#e5ffcc" stroke="#e5ffcc" d="M861,-240C861,-246 855,-252 849,-252"/>
<polyline fill="none" stroke="#e5ffcc" points="849,-252 819,-252 "/>
<path fill="none" stroke="#e5ffcc" d="M819,-252C813,-252 807,-246 807,-240"/>
<polyline fill="none" stroke="#e5ffcc" points="807,-240 807,-228 "/>
<path fill="none" stroke="#e5ffcc" d="M807,-228C807,-222 813,-216 819,-216"/>
<polyline fill="none" stroke="#e5ffcc" points="819,-216 849,-216 "/>
<path fill="none" stroke="#e5ffcc" d="M849,-216C855,-216 861,-222 861,-228"/>
<polyline fill="none" stroke="#e5ffcc" points="861,-228 861,-240 "/>
<path fill="none" stroke="#e5ffcc" d="M861,-240C861,-246 855,-252 849,-252"/>
<text text-anchor="middle" x="834" y="-228.4" font-family="Helvetica,sans-Serif" font-size="14.00">Is?</text>
</g>
<!-- spatialResourcesresourceDistributionRecord&#45;&gt;clumpedPlacement -->
<g id="edge43" class="edge"><title>spatialResourcesresourceDistributionRecord:spatialResourcesresourceDistributionclumped&#45;&gt;clumpedPlacement:ne</title>
<path fill="none" stroke="#70cc14" stroke-width="2" stroke-dasharray="1,5" d="M891,-288C891,-267.36 873.911,-268.048 858.465,-257.368"/>
<ellipse fill="#70cc14" stroke="#70cc14" cx="855.077" cy="-254.555" rx="4.00002" ry="4.00002"/>
</g>
<!-- initializeLocation -->
<g id="node26" class="node"><title>initializeLocation</title>
<a xlink:href="learningResource_initializeLocation.svg" xlink:title="Initialize Location">
<polygon fill="#e5ffcc" stroke="#e5ffcc" points="759.549,-332 660.451,-332 648.451,-320 648.451,-308 660.451,-296 759.549,-296 771.549,-308 771.549,-320 759.549,-332"/>
<path fill="#e5ffcc" stroke="#e5ffcc" d="M660.451,-332C654.451,-332 648.451,-326 648.451,-320"/>
<path fill="#e5ffcc" stroke="#e5ffcc" d="M648.451,-308C648.451,-302 654.451,-296 660.451,-296"/>
<path fill="#e5ffcc" stroke="#e5ffcc" d="M759.549,-296C765.549,-296 771.549,-302 771.549,-308"/>
<path fill="#e5ffcc" stroke="#e5ffcc" d="M771.549,-320C771.549,-326 765.549,-332 759.549,-332"/>
<polyline fill="none" stroke="black" points="759.549,-332 660.451,-332 "/>
<path fill="none" stroke="black" d="M660.451,-332C654.451,-332 648.451,-326 648.451,-320"/>
<polyline fill="none" stroke="black" points="648.451,-320 648.451,-308 "/>
<path fill="none" stroke="black" d="M648.451,-308C648.451,-302 654.451,-296 660.451,-296"/>
<polyline fill="none" stroke="black" points="660.451,-296 759.549,-296 "/>
<path fill="none" stroke="black" d="M759.549,-296C765.549,-296 771.549,-302 771.549,-308"/>
<polyline fill="none" stroke="black" points="771.549,-308 771.549,-320 "/>
<path fill="none" stroke="black" d="M771.549,-320C771.549,-326 765.549,-332 759.549,-332"/>
<text text-anchor="middle" x="710" y="-308.4" font-family="Helvetica,sans-Serif" font-size="14.00">Initialize Location</text>
</a>
</g>
<!-- initializeLocation&#45;&gt;randomPlacement -->
<g id="edge23" class="edge"><title>initializeLocation&#45;&gt;randomPlacement</title>
<path fill="none" stroke="#70cc14" stroke-width="3" d="M758.067,-295.898C765.728,-293.224 773.573,-290.515 781,-288 820.26,-274.707 865.054,-260.189 897.736,-249.714"/>
<polygon fill="#70cc14" stroke="#70cc14" points="899.903,-256.371 916.823,-243.615 895.641,-243.035 899.903,-256.371"/>
</g>
<!-- initializeLocation&#45;&gt;regularPlacement -->
<g id="edge25" class="edge"><title>initializeLocation&#45;&gt;regularPlacement</title>
<path fill="none" stroke="#70cc14" stroke-width="3" d="M711.775,-295.689C712.49,-288.721 713.344,-280.399 714.186,-272.185"/>
<polygon fill="#70cc14" stroke="#70cc14" points="721.152,-272.872 716.23,-252.262 707.225,-271.444 721.152,-272.872"/>
</g>
<!-- initializeLocation&#45;&gt;clumpedPlacement -->
<g id="edge27" class="edge"><title>initializeLocation&#45;&gt;clumpedPlacement</title>
<path fill="none" stroke="#70cc14" stroke-width="3" d="M737.212,-295.883C752.638,-286.18 772.31,-273.805 789.886,-262.749"/>
<polygon fill="#70cc14" stroke="#70cc14" points="793.649,-268.652 806.851,-252.078 786.195,-256.801 793.649,-268.652"/>
</g>
<!-- placeRandom -->
<g id="node35" class="node"><title>placeRandom</title>
<polygon fill="#e5ffcc" stroke="#e5ffcc" points="901,-36 871,-36 859,-24 859,-12 871,-0 901,-0 913,-12 913,-24 901,-36"/>
<path fill="#e5ffcc" stroke="#e5ffcc" d="M871,-36C865,-36 859,-30 859,-24"/>
<path fill="#e5ffcc" stroke="#e5ffcc" d="M859,-12C859,-6 865,-0 871,-0"/>
<path fill="#e5ffcc" stroke="#e5ffcc" d="M901,-0C907,-0 913,-6 913,-12"/>
<path fill="#e5ffcc" stroke="#e5ffcc" d="M913,-24C913,-30 907,-36 901,-36"/>
<polyline fill="none" stroke="#e5ffcc" points="901,-36 871,-36 "/>
<path fill="none" stroke="#e5ffcc" d="M871,-36C865,-36 859,-30 859,-24"/>
<polyline fill="none" stroke="#e5ffcc" points="859,-24 859,-12 "/>
<path fill="none" stroke="#e5ffcc" d="M859,-12C859,-6 865,-0 871,-0"/>
<polyline fill="none" stroke="#e5ffcc" points="871,-0 901,-0 "/>
<path fill="none" stroke="#e5ffcc" d="M901,-0C907,-0 913,-6 913,-12"/>
<polyline fill="none" stroke="#e5ffcc" points="913,-12 913,-24 "/>
<path fill="none" stroke="#e5ffcc" d="M913,-24C913,-30 907,-36 901,-36"/>
<text text-anchor="middle" x="886" y="-12.4" font-family="Helvetica,sans-Serif" font-size="14.00">Move</text>
</g>
<!-- initializeLocation&#45;&gt;placeRandom -->
<g id="edge35" class="edge"><title>initializeLocation&#45;&gt;placeRandom:nw</title>
<path fill="none" stroke="#70cc14" stroke-width="3" stroke-dasharray="5,2" d="M693.074,-295.978C663.775,-264.385 609.701,-195.233 642,-144 697.543,-55.8979 778.068,-107.014 852.675,-49.5122"/>
<polygon fill="#70cc14" stroke="#70cc14" points="857.628,-54.4775 868,-36 848.369,-43.9763 857.628,-54.4775"/>
</g>
<!-- learningResource -->
<g id="node39" class="node"><title>learningResource</title>
<polygon fill="#ceffcc" stroke="#ceffcc" points="1005.22,-180 894.778,-180 882.778,-168 882.778,-156 894.778,-144 1005.22,-144 1017.22,-156 1017.22,-168 1005.22,-180"/>
<path fill="#ceffcc" stroke="#ceffcc" d="M894.778,-180C888.778,-180 882.778,-174 882.778,-168"/>
<path fill="#ceffcc" stroke="#ceffcc" d="M882.778,-156C882.778,-150 888.778,-144 894.778,-144"/>
<path fill="#ceffcc" stroke="#ceffcc" d="M1005.22,-144C1011.22,-144 1017.22,-150 1017.22,-156"/>
<path fill="#ceffcc" stroke="#ceffcc" d="M1017.22,-168C1017.22,-174 1011.22,-180 1005.22,-180"/>
<polyline fill="none" stroke="gray" points="1005.22,-180 894.778,-180 "/>
<path fill="none" stroke="gray" d="M894.778,-180C888.778,-180 882.778,-174 882.778,-168"/>
<polyline fill="none" stroke="gray" points="882.778,-168 882.778,-156 "/>
<path fill="none" stroke="gray" d="M882.778,-156C882.778,-150 888.778,-144 894.778,-144"/>
<polyline fill="none" stroke="gray" points="894.778,-144 1005.22,-144 "/>
<path fill="none" stroke="gray" d="M1005.22,-144C1011.22,-144 1017.22,-150 1017.22,-156"/>
<polyline fill="none" stroke="gray" points="1017.22,-156 1017.22,-168 "/>
<path fill="none" stroke="gray" d="M1017.22,-168C1017.22,-174 1011.22,-180 1005.22,-180"/>
<text text-anchor="middle" x="950" y="-156.4" font-family="Helvetica,sans-Serif" font-size="14.00">Learning Resource</text>
</g>
<!-- randomPlacement&#45;&gt;learningResource -->
<g id="edge33" class="edge"><title>randomPlacement&#45;&gt;learningResource</title>
<path fill="none" stroke="#70cc14" stroke-width="3" d="M945.483,-215.697C945.89,-210.95 946.347,-205.613 946.811,-200.206"/>
<polygon fill="#70cc14" stroke="#70cc14" points="953.8,-200.629 948.534,-180.104 939.851,-199.433 953.8,-200.629"/>
</g>
<!-- regularMovement -->
<g id="node43" class="node"><title>regularMovement</title>
<polygon fill="#e5ffcc" stroke="#e5ffcc" points="773.207,-180 662.793,-180 650.793,-168 650.793,-156 662.793,-144 773.207,-144 785.207,-156 785.207,-168 773.207,-180"/>
<path fill="#e5ffcc" stroke="#e5ffcc" d="M662.793,-180C656.793,-180 650.793,-174 650.793,-168"/>
<path fill="#e5ffcc" stroke="#e5ffcc" d="M650.793,-156C650.793,-150 656.793,-144 662.793,-144"/>
<path fill="#e5ffcc" stroke="#e5ffcc" d="M773.207,-144C779.207,-144 785.207,-150 785.207,-156"/>
<path fill="#e5ffcc" stroke="#e5ffcc" d="M785.207,-168C785.207,-174 779.207,-180 773.207,-180"/>
<polyline fill="none" stroke="#e5ffcc" points="773.207,-180 662.793,-180 "/>
<path fill="none" stroke="#e5ffcc" d="M662.793,-180C656.793,-180 650.793,-174 650.793,-168"/>
<polyline fill="none" stroke="#e5ffcc" points="650.793,-168 650.793,-156 "/>
<path fill="none" stroke="#e5ffcc" d="M650.793,-156C650.793,-150 656.793,-144 662.793,-144"/>
<polyline fill="none" stroke="#e5ffcc" points="662.793,-144 773.207,-144 "/>
<path fill="none" stroke="#e5ffcc" d="M773.207,-144C779.207,-144 785.207,-150 785.207,-156"/>
<polyline fill="none" stroke="#e5ffcc" points="785.207,-156 785.207,-168 "/>
<path fill="none" stroke="#e5ffcc" d="M785.207,-168C785.207,-174 779.207,-180 773.207,-180"/>
<text text-anchor="middle" x="718" y="-156.4" font-family="Helvetica,sans-Serif" font-size="14.00">Regular Movement</text>
</g>
<!-- regularPlacement&#45;&gt;regularMovement -->
<g id="edge39" class="edge"><title>regularPlacement&#45;&gt;regularMovement</title>
<path fill="none" stroke="#70cc14" stroke-width="3" d="M718,-215.697C718,-210.95 718,-205.613 718,-200.206"/>
<polygon fill="#70cc14" stroke="#70cc14" points="725,-200.104 718,-180.104 711,-200.104 725,-200.104"/>
</g>
<!-- method -->
<g id="node37" class="node"><title>method</title>
<polygon fill="#e5ffcc" stroke="#e5ffcc" points="853.024,-180 814.976,-180 802.976,-168 802.976,-156 814.976,-144 853.024,-144 865.024,-156 865.024,-168 853.024,-180"/>
<path fill="#e5ffcc" stroke="#e5ffcc" d="M814.976,-180C808.976,-180 802.976,-174 802.976,-168"/>
<path fill="#e5ffcc" stroke="#e5ffcc" d="M802.976,-156C802.976,-150 808.976,-144 814.976,-144"/>
<path fill="#e5ffcc" stroke="#e5ffcc" d="M853.024,-144C859.024,-144 865.024,-150 865.024,-156"/>
<path fill="#e5ffcc" stroke="#e5ffcc" d="M865.024,-168C865.024,-174 859.024,-180 853.024,-180"/>
<polyline fill="none" stroke="#e5ffcc" points="853.024,-180 814.976,-180 "/>
<path fill="none" stroke="#e5ffcc" d="M814.976,-180C808.976,-180 802.976,-174 802.976,-168"/>
<polyline fill="none" stroke="#e5ffcc" points="802.976,-168 802.976,-156 "/>
<path fill="none" stroke="#e5ffcc" d="M802.976,-156C802.976,-150 808.976,-144 814.976,-144"/>
<polyline fill="none" stroke="#e5ffcc" points="814.976,-144 853.024,-144 "/>
<path fill="none" stroke="#e5ffcc" d="M853.024,-144C859.024,-144 865.024,-150 865.024,-156"/>
<polyline fill="none" stroke="#e5ffcc" points="865.024,-156 865.024,-168 "/>
<path fill="none" stroke="#e5ffcc" d="M865.024,-168C865.024,-174 859.024,-180 853.024,-180"/>
<text text-anchor="middle" x="834" y="-156.4" font-family="Helvetica,sans-Serif" font-size="14.00">Method</text>
</g>
<!-- clumpedPlacement&#45;&gt;method -->
<g id="edge31" class="edge"><title>clumpedPlacement&#45;&gt;method</title>
<path fill="none" stroke="#70cc14" stroke-width="3" d="M834,-215.697C834,-210.95 834,-205.613 834,-200.206"/>
<polygon fill="#70cc14" stroke="#70cc14" points="841,-200.104 834,-180.104 827,-200.104 841,-200.104"/>
</g>
<!-- availableQuery -->
<g id="node33" class="node"><title>availableQuery</title>
<polygon fill="#ceffcc" stroke="#ceffcc" points="909.928,-108 862.072,-108 850.072,-96 850.072,-84 862.072,-72 909.928,-72 921.928,-84 921.928,-96 909.928,-108"/>
<path fill="#ceffcc" stroke="#ceffcc" d="M862.072,-108C856.072,-108 850.072,-102 850.072,-96"/>
<path fill="#ceffcc" stroke="#ceffcc" d="M850.072,-84C850.072,-78 856.072,-72 862.072,-72"/>
<path fill="#ceffcc" stroke="#ceffcc" d="M909.928,-72C915.928,-72 921.928,-78 921.928,-84"/>
<path fill="#ceffcc" stroke="#ceffcc" d="M921.928,-96C921.928,-102 915.928,-108 909.928,-108"/>
<polyline fill="none" stroke="#ceffcc" points="909.928,-108 862.072,-108 "/>
<path fill="none" stroke="#ceffcc" d="M862.072,-108C856.072,-108 850.072,-102 850.072,-96"/>
<polyline fill="none" stroke="#ceffcc" points="850.072,-96 850.072,-84 "/>
<path fill="none" stroke="#ceffcc" d="M850.072,-84C850.072,-78 856.072,-72 862.072,-72"/>
<polyline fill="none" stroke="#ceffcc" points="862.072,-72 909.928,-72 "/>
<path fill="none" stroke="#ceffcc" d="M909.928,-72C915.928,-72 921.928,-78 921.928,-84"/>
<polyline fill="none" stroke="#ceffcc" points="921.928,-84 921.928,-96 "/>
<path fill="none" stroke="#ceffcc" d="M921.928,-96C921.928,-102 915.928,-108 909.928,-108"/>
<text text-anchor="middle" x="886" y="-84.4" font-family="Helvetica,sans-Serif" font-size="14.00">Available</text>
</g>
<!-- availableQuery&#45;&gt;placeRandom -->
<g id="edge29" class="edge"><title>availableQuery&#45;&gt;placeRandom</title>
<path fill="none" stroke="#1ecc14" stroke-width="3" d="M886,-71.6966C886,-66.9496 886,-61.6132 886,-56.2063"/>
<polygon fill="#1ecc14" stroke="#1ecc14" points="893,-56.1043 886,-36.1043 879,-56.1044 893,-56.1043"/>
</g>
<!-- learningResource&#45;&gt;availableQuery -->
<g id="edge41" class="edge"><title>learningResource&#45;&gt;availableQuery</title>
<path fill="none" stroke="#1ecc14" stroke-width="3" d="M934.18,-143.697C928.445,-137.424 921.768,-130.122 915.246,-122.988"/>
<polygon fill="#1ecc14" stroke="#1ecc14" points="920.3,-118.142 901.638,-108.104 909.967,-127.588 920.3,-118.142"/>
</g>
<!-- learningResource&#45;&gt;placeRandom -->
<g id="edge37" class="edge"><title>learningResource&#45;&gt;placeRandom:ne</title>
<path fill="none" stroke="#1ecc14" stroke-width="3" stroke-dasharray="5,2" d="M948.559,-143.917C946.509,-125.478 941.729,-95.5857 931,-72 926.342,-61.7597 922.856,-56.1238 918.18,-50.6354"/>
<polygon fill="#1ecc14" stroke="#1ecc14" points="922.944,-45.4929 904,-36 912.89,-55.2348 922.944,-45.4929"/>
</g>
</g>
</svg>
