<?xml version="1.0" encoding="UTF-8" standalone="no"?>
<!DOCTYPE svg PUBLIC "-//W3C//DTD SVG 1.1//EN"
 "http://www.w3.org/Graphics/SVG/1.1/DTD/svg11.dtd">
<!-- Generated by graphviz version 2.29.20110702.0445 (20110702.0445)
 -->
<!-- Title: initializeLocation Pages: 1 -->
<svg width="327pt" height="289pt"
 viewBox="0.00 0.00 327.42 289.00" xmlns="http://www.w3.org/2000/svg" xmlns:xlink="http://www.w3.org/1999/xlink">
<g id="graph1" class="graph" transform="scale(1 1) rotate(0) translate(4 285)">
<title>initializeLocation</title>
<polygon fill="white" stroke="white" points="-4,5 -4,-285 324.42,-285 324.42,5 -4,5"/>
<g id="graph2" class="cluster"><title>clustercontextKey</title>
<polygon fill="ghostwhite" stroke="white" points="8,-219 8,-273 96,-273 96,-219 8,-219"/>
<text text-anchor="middle" x="52.1792" y="-255" font-family="Helvetica,sans-Serif" font-size="14.00">Parameters</text>
</g>
<g id="graph3" class="cluster"><title>clusterlearnerKey</title>
<polygon fill="ghostwhite" stroke="white" points="104,-219 104,-273 168,-273 168,-219 104,-219"/>
<text text-anchor="middle" x="136.127" y="-255" font-family="Helvetica,sans-Serif" font-size="14.00">Learner</text>
</g>
<!-- contextOverview -->
<g id="node2" class="node"><title>contextOverview</title>
<ellipse fill="black" stroke="black" cx="52" cy="-234" rx="7.2" ry="7.2"/>
</g>
<!-- initializeLocationOverview -->
<g id="node4" class="node"><title>initializeLocationOverview</title>
<a xlink:href="learner__Overview.svg">
<ellipse fill="#70cc14" stroke="#70cc14" cx="135" cy="-234" rx="7.2" ry="7.2"/>
</a>
</g>
<!-- initializeLocation -->
<g id="node5" class="node"><title>initializeLocation</title>
<a xlink:href="learner_initializeLocation.svg" xlink:title="Initialize Location">
<polygon fill="#e5ffcc" stroke="#e5ffcc" points="287.549,-252 188.451,-252 176.451,-240 176.451,-228 188.451,-216 287.549,-216 299.549,-228 299.549,-240 287.549,-252"/>
<path fill="#e5ffcc" stroke="#e5ffcc" d="M188.451,-252C182.451,-252 176.451,-246 176.451,-240"/>
<path fill="#e5ffcc" stroke="#e5ffcc" d="M176.451,-228C176.451,-222 182.451,-216 188.451,-216"/>
<path fill="#e5ffcc" stroke="#e5ffcc" d="M287.549,-216C293.549,-216 299.549,-222 299.549,-228"/>
<path fill="#e5ffcc" stroke="#e5ffcc" d="M299.549,-240C299.549,-246 293.549,-252 287.549,-252"/>
<polyline fill="none" stroke="black" points="287.549,-252 188.451,-252 "/>
<path fill="none" stroke="black" d="M188.451,-252C182.451,-252 176.451,-246 176.451,-240"/>
<polyline fill="none" stroke="black" points="176.451,-240 176.451,-228 "/>
<path fill="none" stroke="black" d="M176.451,-228C176.451,-222 182.451,-216 188.451,-216"/>
<polyline fill="none" stroke="black" points="188.451,-216 287.549,-216 "/>
<path fill="none" stroke="black" d="M287.549,-216C293.549,-216 299.549,-222 299.549,-228"/>
<polyline fill="none" stroke="black" points="299.549,-228 299.549,-240 "/>
<path fill="none" stroke="black" d="M299.549,-240C299.549,-246 293.549,-252 287.549,-252"/>
<text text-anchor="middle" x="238" y="-228.4" font-family="Helvetica,sans-Serif" font-size="14.00">Initialize Location</text>
</a>
</g>
<!-- learner -->
<g id="node7" class="node"><title>learner</title>
<polygon fill="#ceffcc" stroke="#ceffcc" points="290.191,-180 249.809,-180 237.809,-168 237.809,-156 249.809,-144 290.191,-144 302.191,-156 302.191,-168 290.191,-180"/>
<path fill="#ceffcc" stroke="#ceffcc" d="M249.809,-180C243.809,-180 237.809,-174 237.809,-168"/>
<path fill="#ceffcc" stroke="#ceffcc" d="M237.809,-156C237.809,-150 243.809,-144 249.809,-144"/>
<path fill="#ceffcc" stroke="#ceffcc" d="M290.191,-144C296.191,-144 302.191,-150 302.191,-156"/>
<path fill="#ceffcc" stroke="#ceffcc" d="M302.191,-168C302.191,-174 296.191,-180 290.191,-180"/>
<polyline fill="none" stroke="gray" points="290.191,-180 249.809,-180 "/>
<path fill="none" stroke="gray" d="M249.809,-180C243.809,-180 237.809,-174 237.809,-168"/>
<polyline fill="none" stroke="gray" points="237.809,-168 237.809,-156 "/>
<path fill="none" stroke="gray" d="M237.809,-156C237.809,-150 243.809,-144 249.809,-144"/>
<polyline fill="none" stroke="gray" points="249.809,-144 290.191,-144 "/>
<path fill="none" stroke="gray" d="M290.191,-144C296.191,-144 302.191,-150 302.191,-156"/>
<polyline fill="none" stroke="gray" points="302.191,-156 302.191,-168 "/>
<path fill="none" stroke="gray" d="M302.191,-168C302.191,-174 296.191,-180 290.191,-180"/>
<text text-anchor="middle" x="270" y="-156.4" font-family="Helvetica,sans-Serif" font-size="14.00">Learner</text>
</g>
<!-- initializeLocation&#45;&gt;learner -->
<g id="edge4" class="edge"><title>initializeLocation&#45;&gt;learner</title>
<path fill="none" stroke="#70cc14" stroke-width="3" d="M245.91,-215.697C248.313,-210.441 251.046,-204.463 253.787,-198.467"/>
<polygon fill="#70cc14" stroke="#70cc14" points="260.232,-201.204 262.181,-180.104 247.499,-195.383 260.232,-201.204"/>
</g>
<!-- moveLearner -->
<g id="node10" class="node"><title>moveLearner</title>
<polygon fill="#e5ffcc" stroke="#e5ffcc" points="285,-36 255,-36 243,-24 243,-12 255,-0 285,-0 297,-12 297,-24 285,-36"/>
<path fill="#e5ffcc" stroke="#e5ffcc" d="M255,-36C249,-36 243,-30 243,-24"/>
<path fill="#e5ffcc" stroke="#e5ffcc" d="M243,-12C243,-6 249,-0 255,-0"/>
<path fill="#e5ffcc" stroke="#e5ffcc" d="M285,-0C291,-0 297,-6 297,-12"/>
<path fill="#e5ffcc" stroke="#e5ffcc" d="M297,-24C297,-30 291,-36 285,-36"/>
<polyline fill="none" stroke="#e5ffcc" points="285,-36 255,-36 "/>
<path fill="none" stroke="#e5ffcc" d="M255,-36C249,-36 243,-30 243,-24"/>
<polyline fill="none" stroke="#e5ffcc" points="243,-24 243,-12 "/>
<path fill="none" stroke="#e5ffcc" d="M243,-12C243,-6 249,-0 255,-0"/>
<polyline fill="none" stroke="#e5ffcc" points="255,-0 285,-0 "/>
<path fill="none" stroke="#e5ffcc" d="M285,-0C291,-0 297,-6 297,-12"/>
<polyline fill="none" stroke="#e5ffcc" points="297,-12 297,-24 "/>
<path fill="none" stroke="#e5ffcc" d="M297,-24C297,-30 291,-36 285,-36"/>
<text text-anchor="middle" x="270" y="-12.4" font-family="Helvetica,sans-Serif" font-size="14.00">Move</text>
</g>
<!-- initializeLocation&#45;&gt;moveLearner -->
<g id="edge10" class="edge"><title>initializeLocation&#45;&gt;moveLearner:nw</title>
<path fill="none" stroke="#70cc14" stroke-width="3" stroke-dasharray="5,2" d="M234.59,-215.884C232.654,-205.536 230.354,-192.057 229,-180 223.639,-132.267 209.811,-117.568 225,-72 228.656,-61.0308 232.383,-55.4393 237.608,-49.941"/>
<polygon fill="#70cc14" stroke="#70cc14" points="242.505,-54.9433 252,-36 232.764,-44.8876 242.505,-54.9433"/>
</g>
<!-- availableQuery -->
<g id="node8" class="node"><title>availableQuery</title>
<polygon fill="#ceffcc" stroke="#ceffcc" points="293.928,-108 246.072,-108 234.072,-96 234.072,-84 246.072,-72 293.928,-72 305.928,-84 305.928,-96 293.928,-108"/>
<path fill="#ceffcc" stroke="#ceffcc" d="M246.072,-108C240.072,-108 234.072,-102 234.072,-96"/>
<path fill="#ceffcc" stroke="#ceffcc" d="M234.072,-84C234.072,-78 240.072,-72 246.072,-72"/>
<path fill="#ceffcc" stroke="#ceffcc" d="M293.928,-72C299.928,-72 305.928,-78 305.928,-84"/>
<path fill="#ceffcc" stroke="#ceffcc" d="M305.928,-96C305.928,-102 299.928,-108 293.928,-108"/>
<polyline fill="none" stroke="#ceffcc" points="293.928,-108 246.072,-108 "/>
<path fill="none" stroke="#ceffcc" d="M246.072,-108C240.072,-108 234.072,-102 234.072,-96"/>
<polyline fill="none" stroke="#ceffcc" points="234.072,-96 234.072,-84 "/>
<path fill="none" stroke="#ceffcc" d="M234.072,-84C234.072,-78 240.072,-72 246.072,-72"/>
<polyline fill="none" stroke="#ceffcc" points="246.072,-72 293.928,-72 "/>
<path fill="none" stroke="#ceffcc" d="M293.928,-72C299.928,-72 305.928,-78 305.928,-84"/>
<polyline fill="none" stroke="#ceffcc" points="305.928,-84 305.928,-96 "/>
<path fill="none" stroke="#ceffcc" d="M305.928,-96C305.928,-102 299.928,-108 293.928,-108"/>
<text text-anchor="middle" x="270" y="-84.4" font-family="Helvetica,sans-Serif" font-size="14.00">Available</text>
</g>
<!-- learner&#45;&gt;availableQuery -->
<g id="edge8" class="edge"><title>learner&#45;&gt;availableQuery</title>
<path fill="none" stroke="#1ecc14" stroke-width="3" d="M270,-143.697C270,-138.95 270,-133.613 270,-128.206"/>
<polygon fill="#1ecc14" stroke="#1ecc14" points="277,-128.104 270,-108.104 263,-128.104 277,-128.104"/>
</g>
<!-- learner&#45;&gt;moveLearner -->
<g id="edge12" class="edge"><title>learner&#45;&gt;moveLearner:ne</title>
<path fill="none" stroke="#1ecc14" stroke-width="3" stroke-dasharray="5,2" d="M290.379,-143.531C299.807,-134.092 310.006,-121.597 315,-108 324.251,-82.8115 317.228,-67.6886 302.086,-50.6562"/>
<polygon fill="#1ecc14" stroke="#1ecc14" points="306.906,-45.5691 288,-36 296.812,-55.2704 306.906,-45.5691"/>
</g>
<!-- availableQuery&#45;&gt;moveLearner -->
<g id="edge6" class="edge"><title>availableQuery&#45;&gt;moveLearner</title>
<path fill="none" stroke="#1ecc14" stroke-width="3" d="M270,-71.6966C270,-66.9496 270,-61.6132 270,-56.2063"/>
<polygon fill="#1ecc14" stroke="#1ecc14" points="277,-56.1043 270,-36.1043 263,-56.1044 277,-56.1043"/>
</g>
</g>
</svg>
