<?xml version="1.0" encoding="UTF-8" standalone="no"?>
<!DOCTYPE svg PUBLIC "-//W3C//DTD SVG 1.1//EN"
 "http://www.w3.org/Graphics/SVG/1.1/DTD/svg11.dtd">
<!-- Generated by graphviz version 2.29.20110702.0445 (20110702.0445)
 -->
<!-- Title: learner Pages: 1 -->
<svg width="1006pt" height="361pt"
 viewBox="0.00 0.00 1006.00 361.00" xmlns="http://www.w3.org/2000/svg" xmlns:xlink="http://www.w3.org/1999/xlink">
<g id="graph1" class="graph" transform="scale(1 1) rotate(0) translate(4 357)">
<title>learner</title>
<polygon fill="white" stroke="white" points="-4,5 -4,-357 1003,-357 1003,5 -4,5"/>
<g id="graph2" class="cluster"><title>clustercontextKey</title>
<polygon fill="ghostwhite" stroke="white" points="8,-291 8,-345 96,-345 96,-291 8,-291"/>
<text text-anchor="middle" x="52.1792" y="-327" font-family="Helvetica,sans-Serif" font-size="14.00">Parameters</text>
</g>
<g id="graph3" class="cluster"><title>clusterlearnerKey</title>
<polygon fill="ghostwhite" stroke="white" points="104,-147 104,-345 168,-345 168,-147 104,-147"/>
<text text-anchor="middle" x="136.127" y="-327" font-family="Helvetica,sans-Serif" font-size="14.00">Learner</text>
</g>
<g id="graph4" class="cluster"><title>clusterhomeKey</title>
<polygon fill="ghostwhite" stroke="white" points="176,-291 176,-345 229,-345 229,-291 176,-291"/>
<text text-anchor="middle" x="202.672" y="-327" font-family="Helvetica,sans-Serif" font-size="14.00">Home</text>
</g>
<!-- contextOverview -->
<g id="node2" class="node"><title>contextOverview</title>
<ellipse fill="black" stroke="black" cx="52" cy="-306" rx="7.2" ry="7.2"/>
</g>
<!-- initializeLocationOverview -->
<g id="node4" class="node"><title>initializeLocationOverview</title>
<a xlink:href="learner__Overview.svg">
<ellipse fill="#70cc14" stroke="#70cc14" cx="136" cy="-306" rx="7.2" ry="7.2"/>
</a>
</g>
<!-- initializeStateOverview -->
<g id="node5" class="node"><title>initializeStateOverview</title>
<a xlink:href="learner__Overview.svg">
<ellipse fill="#14cc42" stroke="#14cc42" cx="136" cy="-234" rx="7.2" ry="7.2"/>
</a>
</g>
<!-- initializeLocationOverview&#45;&gt;initializeStateOverview -->
<!-- findHomeOverview -->
<g id="node6" class="node"><title>findHomeOverview</title>
<a xlink:href="learner__Overview.svg">
<ellipse fill="#cc9e14" stroke="#cc9e14" cx="136" cy="-162" rx="7.2" ry="7.2"/>
</a>
</g>
<!-- initializeStateOverview&#45;&gt;findHomeOverview -->
<!-- homeLocationOverview -->
<g id="node9" class="node"><title>homeLocationOverview</title>
<a xlink:href="home__Overview.svg">
<ellipse fill="#a8cc14" stroke="#a8cc14" cx="201" cy="-306" rx="7.2" ry="7.2"/>
</a>
</g>
<!-- initializeLocation -->
<g id="node10" class="node"><title>initializeLocation</title>
<a xlink:href="learner_initializeLocation.svg" xlink:title="Initialize Location">
<polygon fill="#e5ffcc" stroke="#e5ffcc" points="348.549,-324 249.451,-324 237.451,-312 237.451,-300 249.451,-288 348.549,-288 360.549,-300 360.549,-312 348.549,-324"/>
<path fill="#e5ffcc" stroke="#e5ffcc" d="M249.451,-324C243.451,-324 237.451,-318 237.451,-312"/>
<path fill="#e5ffcc" stroke="#e5ffcc" d="M237.451,-300C237.451,-294 243.451,-288 249.451,-288"/>
<path fill="#e5ffcc" stroke="#e5ffcc" d="M348.549,-288C354.549,-288 360.549,-294 360.549,-300"/>
<path fill="#e5ffcc" stroke="#e5ffcc" d="M360.549,-312C360.549,-318 354.549,-324 348.549,-324"/>
<polyline fill="none" stroke="black" points="348.549,-324 249.451,-324 "/>
<path fill="none" stroke="black" d="M249.451,-324C243.451,-324 237.451,-318 237.451,-312"/>
<polyline fill="none" stroke="black" points="237.451,-312 237.451,-300 "/>
<path fill="none" stroke="black" d="M237.451,-300C237.451,-294 243.451,-288 249.451,-288"/>
<polyline fill="none" stroke="black" points="249.451,-288 348.549,-288 "/>
<path fill="none" stroke="black" d="M348.549,-288C354.549,-288 360.549,-294 360.549,-300"/>
<polyline fill="none" stroke="black" points="360.549,-300 360.549,-312 "/>
<path fill="none" stroke="black" d="M360.549,-312C360.549,-318 354.549,-324 348.549,-324"/>
<text text-anchor="middle" x="299" y="-300.4" font-family="Helvetica,sans-Serif" font-size="14.00">Initialize Location</text>
</a>
</g>
<!-- learner -->
<g id="node12" class="node"><title>learner</title>
<polygon fill="#ceffcc" stroke="#ceffcc" points="351.191,-252 310.809,-252 298.809,-240 298.809,-228 310.809,-216 351.191,-216 363.191,-228 363.191,-240 351.191,-252"/>
<path fill="#ceffcc" stroke="#ceffcc" d="M310.809,-252C304.809,-252 298.809,-246 298.809,-240"/>
<path fill="#ceffcc" stroke="#ceffcc" d="M298.809,-228C298.809,-222 304.809,-216 310.809,-216"/>
<path fill="#ceffcc" stroke="#ceffcc" d="M351.191,-216C357.191,-216 363.191,-222 363.191,-228"/>
<path fill="#ceffcc" stroke="#ceffcc" d="M363.191,-240C363.191,-246 357.191,-252 351.191,-252"/>
<polyline fill="none" stroke="gray" points="351.191,-252 310.809,-252 "/>
<path fill="none" stroke="gray" d="M310.809,-252C304.809,-252 298.809,-246 298.809,-240"/>
<polyline fill="none" stroke="gray" points="298.809,-240 298.809,-228 "/>
<path fill="none" stroke="gray" d="M298.809,-228C298.809,-222 304.809,-216 310.809,-216"/>
<polyline fill="none" stroke="gray" points="310.809,-216 351.191,-216 "/>
<path fill="none" stroke="gray" d="M351.191,-216C357.191,-216 363.191,-222 363.191,-228"/>
<polyline fill="none" stroke="gray" points="363.191,-228 363.191,-240 "/>
<path fill="none" stroke="gray" d="M363.191,-240C363.191,-246 357.191,-252 351.191,-252"/>
<text text-anchor="middle" x="331" y="-228.4" font-family="Helvetica,sans-Serif" font-size="14.00">Learner</text>
</g>
<!-- initializeLocation&#45;&gt;learner -->
<g id="edge8" class="edge"><title>initializeLocation&#45;&gt;learner</title>
<path fill="none" stroke="#70cc14" stroke-width="3" d="M306.91,-287.697C309.313,-282.441 312.046,-276.463 314.787,-270.467"/>
<polygon fill="#70cc14" stroke="#70cc14" points="321.232,-273.204 323.181,-252.104 308.499,-267.383 321.232,-273.204"/>
</g>
<!-- moveLearner -->
<g id="node15" class="node"><title>moveLearner</title>
<polygon fill="#e5ffcc" stroke="#e5ffcc" points="346,-108 316,-108 304,-96 304,-84 316,-72 346,-72 358,-84 358,-96 346,-108"/>
<path fill="#e5ffcc" stroke="#e5ffcc" d="M316,-108C310,-108 304,-102 304,-96"/>
<path fill="#e5ffcc" stroke="#e5ffcc" d="M304,-84C304,-78 310,-72 316,-72"/>
<path fill="#e5ffcc" stroke="#e5ffcc" d="M346,-72C352,-72 358,-78 358,-84"/>
<path fill="#e5ffcc" stroke="#e5ffcc" d="M358,-96C358,-102 352,-108 346,-108"/>
<polyline fill="none" stroke="#e5ffcc" points="346,-108 316,-108 "/>
<path fill="none" stroke="#e5ffcc" d="M316,-108C310,-108 304,-102 304,-96"/>
<polyline fill="none" stroke="#e5ffcc" points="304,-96 304,-84 "/>
<path fill="none" stroke="#e5ffcc" d="M304,-84C304,-78 310,-72 316,-72"/>
<polyline fill="none" stroke="#e5ffcc" points="316,-72 346,-72 "/>
<path fill="none" stroke="#e5ffcc" d="M346,-72C352,-72 358,-78 358,-84"/>
<polyline fill="none" stroke="#e5ffcc" points="358,-84 358,-96 "/>
<path fill="none" stroke="#e5ffcc" d="M358,-96C358,-102 352,-108 346,-108"/>
<text text-anchor="middle" x="331" y="-84.4" font-family="Helvetica,sans-Serif" font-size="14.00">Move</text>
</g>
<!-- initializeLocation&#45;&gt;moveLearner -->
<g id="edge14" class="edge"><title>initializeLocation&#45;&gt;moveLearner:nw</title>
<path fill="none" stroke="#70cc14" stroke-width="3" stroke-dasharray="5,2" d="M295.59,-287.884C293.654,-277.536 291.354,-264.057 290,-252 284.639,-204.267 270.811,-189.568 286,-144 289.656,-133.031 293.383,-127.439 298.608,-121.941"/>
<polygon fill="#70cc14" stroke="#70cc14" points="303.505,-126.943 313,-108 293.764,-116.888 303.505,-126.943"/>
</g>
<!-- availableQuery -->
<g id="node13" class="node"><title>availableQuery</title>
<polygon fill="#ceffcc" stroke="#ceffcc" points="354.928,-180 307.072,-180 295.072,-168 295.072,-156 307.072,-144 354.928,-144 366.928,-156 366.928,-168 354.928,-180"/>
<path fill="#ceffcc" stroke="#ceffcc" d="M307.072,-180C301.072,-180 295.072,-174 295.072,-168"/>
<path fill="#ceffcc" stroke="#ceffcc" d="M295.072,-156C295.072,-150 301.072,-144 307.072,-144"/>
<path fill="#ceffcc" stroke="#ceffcc" d="M354.928,-144C360.928,-144 366.928,-150 366.928,-156"/>
<path fill="#ceffcc" stroke="#ceffcc" d="M366.928,-168C366.928,-174 360.928,-180 354.928,-180"/>
<polyline fill="none" stroke="#ceffcc" points="354.928,-180 307.072,-180 "/>
<path fill="none" stroke="#ceffcc" d="M307.072,-180C301.072,-180 295.072,-174 295.072,-168"/>
<polyline fill="none" stroke="#ceffcc" points="295.072,-168 295.072,-156 "/>
<path fill="none" stroke="#ceffcc" d="M295.072,-156C295.072,-150 301.072,-144 307.072,-144"/>
<polyline fill="none" stroke="#ceffcc" points="307.072,-144 354.928,-144 "/>
<path fill="none" stroke="#ceffcc" d="M354.928,-144C360.928,-144 366.928,-150 366.928,-156"/>
<polyline fill="none" stroke="#ceffcc" points="366.928,-156 366.928,-168 "/>
<path fill="none" stroke="#ceffcc" d="M366.928,-168C366.928,-174 360.928,-180 354.928,-180"/>
<text text-anchor="middle" x="331" y="-156.4" font-family="Helvetica,sans-Serif" font-size="14.00">Available</text>
</g>
<!-- learner&#45;&gt;availableQuery -->
<g id="edge12" class="edge"><title>learner&#45;&gt;availableQuery</title>
<path fill="none" stroke="#1ecc14" stroke-width="3" d="M331,-215.697C331,-210.95 331,-205.613 331,-200.206"/>
<polygon fill="#1ecc14" stroke="#1ecc14" points="338,-200.104 331,-180.104 324,-200.104 338,-200.104"/>
</g>
<!-- learner&#45;&gt;moveLearner -->
<g id="edge16" class="edge"><title>learner&#45;&gt;moveLearner:ne</title>
<path fill="none" stroke="#1ecc14" stroke-width="3" stroke-dasharray="5,2" d="M351.379,-215.531C360.807,-206.092 371.006,-193.597 376,-180 385.251,-154.812 378.228,-139.689 363.086,-122.656"/>
<polygon fill="#1ecc14" stroke="#1ecc14" points="367.906,-117.569 349,-108 357.812,-127.27 367.906,-117.569"/>
</g>
<!-- availableQuery&#45;&gt;moveLearner -->
<g id="edge10" class="edge"><title>availableQuery&#45;&gt;moveLearner</title>
<path fill="none" stroke="#1ecc14" stroke-width="3" d="M331,-143.697C331,-138.95 331,-133.613 331,-128.206"/>
<polygon fill="#1ecc14" stroke="#1ecc14" points="338,-128.104 331,-108.104 324,-128.104 338,-128.104"/>
</g>
<!-- learnerhomeID -->
<g id="node19" class="node"><title>learnerhomeID</title>
<polygon fill="white" stroke="white" points="582.425,-36 511.575,-36 511.575,-0 582.425,-0 582.425,-36"/>
<text text-anchor="middle" x="547" y="-12.4" font-family="Helvetica,sans-Serif" font-size="14.00">Home ID</text>
</g>
<!-- homehomeID -->
<g id="node20" class="node"><title>homehomeID</title>
<polygon fill="white" stroke="white" points="494.425,-180 423.575,-180 423.575,-144 494.425,-144 494.425,-180"/>
<text text-anchor="middle" x="459" y="-156.4" font-family="Helvetica,sans-Serif" font-size="14.00">Home ID</text>
</g>
<!-- homeIDAddZero -->
<g id="node27" class="node"><title>homeIDAddZero</title>
<polygon fill="#fff2cc" stroke="#fff2cc" points="562,-108 532,-108 520,-96 520,-84 532,-72 562,-72 574,-84 574,-96 562,-108"/>
<path fill="#fff2cc" stroke="#fff2cc" d="M532,-108C526,-108 520,-102 520,-96"/>
<path fill="#fff2cc" stroke="#fff2cc" d="M520,-84C520,-78 526,-72 532,-72"/>
<path fill="#fff2cc" stroke="#fff2cc" d="M562,-72C568,-72 574,-78 574,-84"/>
<path fill="#fff2cc" stroke="#fff2cc" d="M574,-96C574,-102 568,-108 562,-108"/>
<polyline fill="none" stroke="#fff2cc" points="562,-108 532,-108 "/>
<path fill="none" stroke="#fff2cc" d="M532,-108C526,-108 520,-102 520,-96"/>
<polyline fill="none" stroke="#fff2cc" points="520,-96 520,-84 "/>
<path fill="none" stroke="#fff2cc" d="M520,-84C520,-78 526,-72 532,-72"/>
<polyline fill="none" stroke="#fff2cc" points="532,-72 562,-72 "/>
<path fill="none" stroke="#fff2cc" d="M562,-72C568,-72 574,-78 574,-84"/>
<polyline fill="none" stroke="#fff2cc" points="574,-84 574,-96 "/>
<path fill="none" stroke="#fff2cc" d="M574,-96C574,-102 568,-108 562,-108"/>
<text text-anchor="middle" x="547" y="-84.4" font-family="Helvetica,sans-Serif" font-size="14.00">Add</text>
</g>
<!-- homehomeID&#45;&gt;homeIDAddZero -->
<g id="edge26" class="edge"><title>homehomeID&#45;&gt;homeIDAddZero:nw</title>
<path fill="none" stroke="#a8cc14" stroke-width="2" stroke-dasharray="1,5" d="M484.98,-143.919C496.851,-135.582 510.958,-124.918 523.173,-113.601"/>
<ellipse fill="#a8cc14" stroke="#a8cc14" cx="526.116" cy="-110.772" rx="4.00002" ry="4.00002"/>
</g>
<!-- findHome -->
<g id="node21" class="node"><title>findHome</title>
<a xlink:href="learner_findHome.svg" xlink:title="Find Home">
<polygon fill="#fff2cc" stroke="#fff2cc" points="577.352,-324 516.648,-324 504.648,-312 504.648,-300 516.648,-288 577.352,-288 589.352,-300 589.352,-312 577.352,-324"/>
<path fill="#fff2cc" stroke="#fff2cc" d="M516.648,-324C510.648,-324 504.648,-318 504.648,-312"/>
<path fill="#fff2cc" stroke="#fff2cc" d="M504.648,-300C504.648,-294 510.648,-288 516.648,-288"/>
<path fill="#fff2cc" stroke="#fff2cc" d="M577.352,-288C583.352,-288 589.352,-294 589.352,-300"/>
<path fill="#fff2cc" stroke="#fff2cc" d="M589.352,-312C589.352,-318 583.352,-324 577.352,-324"/>
<polyline fill="none" stroke="black" points="577.352,-324 516.648,-324 "/>
<path fill="none" stroke="black" d="M516.648,-324C510.648,-324 504.648,-318 504.648,-312"/>
<polyline fill="none" stroke="black" points="504.648,-312 504.648,-300 "/>
<path fill="none" stroke="black" d="M504.648,-300C504.648,-294 510.648,-288 516.648,-288"/>
<polyline fill="none" stroke="black" points="516.648,-288 577.352,-288 "/>
<path fill="none" stroke="black" d="M577.352,-288C583.352,-288 589.352,-294 589.352,-300"/>
<polyline fill="none" stroke="black" points="589.352,-300 589.352,-312 "/>
<path fill="none" stroke="black" d="M589.352,-312C589.352,-318 583.352,-324 577.352,-324"/>
<text text-anchor="middle" x="547" y="-300.4" font-family="Helvetica,sans-Serif" font-size="14.00">Find Home</text>
</a>
</g>
<!-- homeLocation -->
<g id="node23" class="node"><title>homeLocation</title>
<polygon fill="#f5ffcc" stroke="#f5ffcc" points="590.124,-252 503.876,-252 491.876,-240 491.876,-228 503.876,-216 590.124,-216 602.124,-228 602.124,-240 590.124,-252"/>
<path fill="#f5ffcc" stroke="#f5ffcc" d="M503.876,-252C497.876,-252 491.876,-246 491.876,-240"/>
<path fill="#f5ffcc" stroke="#f5ffcc" d="M491.876,-228C491.876,-222 497.876,-216 503.876,-216"/>
<path fill="#f5ffcc" stroke="#f5ffcc" d="M590.124,-216C596.124,-216 602.124,-222 602.124,-228"/>
<path fill="#f5ffcc" stroke="#f5ffcc" d="M602.124,-240C602.124,-246 596.124,-252 590.124,-252"/>
<polyline fill="none" stroke="gray" points="590.124,-252 503.876,-252 "/>
<path fill="none" stroke="gray" d="M503.876,-252C497.876,-252 491.876,-246 491.876,-240"/>
<polyline fill="none" stroke="gray" points="491.876,-240 491.876,-228 "/>
<path fill="none" stroke="gray" d="M491.876,-228C491.876,-222 497.876,-216 503.876,-216"/>
<polyline fill="none" stroke="gray" points="503.876,-216 590.124,-216 "/>
<path fill="none" stroke="gray" d="M590.124,-216C596.124,-216 602.124,-222 602.124,-228"/>
<polyline fill="none" stroke="gray" points="602.124,-228 602.124,-240 "/>
<path fill="none" stroke="gray" d="M602.124,-240C602.124,-246 596.124,-252 590.124,-252"/>
<text text-anchor="middle" x="547" y="-228.4" font-family="Helvetica,sans-Serif" font-size="14.00">Home Location</text>
</g>
<!-- findHome&#45;&gt;homeLocation -->
<g id="edge18" class="edge"><title>findHome&#45;&gt;homeLocation</title>
<path fill="none" stroke="#cc9e14" stroke-width="3" d="M547,-287.697C547,-282.95 547,-277.613 547,-272.206"/>
<polygon fill="#cc9e14" stroke="#cc9e14" points="554,-272.104 547,-252.104 540,-272.104 554,-272.104"/>
</g>
<!-- nearestQuery -->
<g id="node25" class="node"><title>nearestQuery</title>
<polygon fill="#f5ffcc" stroke="#f5ffcc" points="569.183,-180 524.817,-180 512.817,-168 512.817,-156 524.817,-144 569.183,-144 581.183,-156 581.183,-168 569.183,-180"/>
<path fill="#f5ffcc" stroke="#f5ffcc" d="M524.817,-180C518.817,-180 512.817,-174 512.817,-168"/>
<path fill="#f5ffcc" stroke="#f5ffcc" d="M512.817,-156C512.817,-150 518.817,-144 524.817,-144"/>
<path fill="#f5ffcc" stroke="#f5ffcc" d="M569.183,-144C575.183,-144 581.183,-150 581.183,-156"/>
<path fill="#f5ffcc" stroke="#f5ffcc" d="M581.183,-168C581.183,-174 575.183,-180 569.183,-180"/>
<polyline fill="none" stroke="#f5ffcc" points="569.183,-180 524.817,-180 "/>
<path fill="none" stroke="#f5ffcc" d="M524.817,-180C518.817,-180 512.817,-174 512.817,-168"/>
<polyline fill="none" stroke="#f5ffcc" points="512.817,-168 512.817,-156 "/>
<path fill="none" stroke="#f5ffcc" d="M512.817,-156C512.817,-150 518.817,-144 524.817,-144"/>
<polyline fill="none" stroke="#f5ffcc" points="524.817,-144 569.183,-144 "/>
<path fill="none" stroke="#f5ffcc" d="M569.183,-144C575.183,-144 581.183,-150 581.183,-156"/>
<polyline fill="none" stroke="#f5ffcc" points="581.183,-156 581.183,-168 "/>
<path fill="none" stroke="#f5ffcc" d="M581.183,-168C581.183,-174 575.183,-180 569.183,-180"/>
<text text-anchor="middle" x="547" y="-156.4" font-family="Helvetica,sans-Serif" font-size="14.00">Nearest </text>
</g>
<!-- homeLocation&#45;&gt;nearestQuery -->
<g id="edge20" class="edge"><title>homeLocation&#45;&gt;nearestQuery</title>
<path fill="none" stroke="#a8cc14" stroke-width="3" d="M547,-215.697C547,-210.95 547,-205.613 547,-200.206"/>
<polygon fill="#a8cc14" stroke="#a8cc14" points="554,-200.104 547,-180.104 540,-200.104 554,-200.104"/>
</g>
<!-- nearestQuery&#45;&gt;homeIDAddZero -->
<g id="edge22" class="edge"><title>nearestQuery&#45;&gt;homeIDAddZero</title>
<path fill="none" stroke="#a8cc14" stroke-width="3" d="M547,-143.697C547,-138.95 547,-133.613 547,-128.206"/>
<polygon fill="#a8cc14" stroke="#a8cc14" points="554,-128.104 547,-108.104 540,-128.104 554,-128.104"/>
</g>
<!-- homeIDAddZero&#45;&gt;learnerhomeID -->
<g id="edge24" class="edge"><title>homeIDAddZero&#45;&gt;learnerhomeID</title>
<path fill="none" stroke="#cc9e14" stroke-width="3" d="M547,-71.6966C547,-66.9496 547,-61.6132 547,-56.2063"/>
<polygon fill="#cc9e14" stroke="#cc9e14" points="554,-56.1043 547,-36.1043 540,-56.1044 554,-56.1043"/>
</g>
<!-- importxyxhomeIDAddZerofunctionszero0 -->
<g id="node30" class="node"><title>importxyxhomeIDAddZerofunctionszero0</title>
<text text-anchor="middle" x="626" y="-156.4" font-family="Helvetica,sans-Serif" font-size="14.00">0</text>
</g>
<!-- importxyxhomeIDAddZerofunctionszero0&#45;&gt;homeIDAddZero -->
<g id="edge28" class="edge"><title>importxyxhomeIDAddZerofunctionszero0&#45;&gt;homeIDAddZero:ne</title>
<path fill="none" stroke="black" stroke-width="2" stroke-dasharray="1,5" d="M604.74,-143.787C594.495,-135.232 582.017,-124.432 570.758,-113.634"/>
<ellipse fill="black" stroke="black" cx="567.859" cy="-110.798" rx="4.00002" ry="4.00002"/>
</g>
<!-- learnerlearningInterest -->
<g id="node32" class="node"><title>learnerlearningInterest</title>
<polygon fill="white" stroke="white" points="792.301,-180 671.699,-180 671.699,-144 792.301,-144 792.301,-180"/>
<text text-anchor="middle" x="732" y="-156.4" font-family="Helvetica,sans-Serif" font-size="14.00">Learning Interest</text>
</g>
<!-- spatialResourcesnextLearnerID -->
<g id="node33" class="node"><title>spatialResourcesnextLearnerID</title>
<polygon fill="white" stroke="white" points="998.25,-108 883.75,-108 883.75,-72 998.25,-72 998.25,-108"/>
<text text-anchor="start" x="892" y="-84.5" font-family="Helvetica,sans-Serif" font-size="14.00">Next Learner ID</text>
</g>
<!-- incrementNextLearnerID -->
<g id="node41" class="node"><title>incrementNextLearnerID</title>
<polygon fill="#ccffd8" stroke="#ccffd8" points="977.186,-180 922.814,-180 910.814,-168 910.814,-156 922.814,-144 977.186,-144 989.186,-156 989.186,-168 977.186,-180"/>
<path fill="#ccffd8" stroke="#ccffd8" d="M922.814,-180C916.814,-180 910.814,-174 910.814,-168"/>
<path fill="#ccffd8" stroke="#ccffd8" d="M910.814,-156C910.814,-150 916.814,-144 922.814,-144"/>
<path fill="#ccffd8" stroke="#ccffd8" d="M977.186,-144C983.186,-144 989.186,-150 989.186,-156"/>
<path fill="#ccffd8" stroke="#ccffd8" d="M989.186,-168C989.186,-174 983.186,-180 977.186,-180"/>
<polyline fill="none" stroke="#ccffd8" points="977.186,-180 922.814,-180 "/>
<path fill="none" stroke="#ccffd8" d="M922.814,-180C916.814,-180 910.814,-174 910.814,-168"/>
<polyline fill="none" stroke="#ccffd8" points="910.814,-168 910.814,-156 "/>
<path fill="none" stroke="#ccffd8" d="M910.814,-156C910.814,-150 916.814,-144 922.814,-144"/>
<polyline fill="none" stroke="#ccffd8" points="922.814,-144 977.186,-144 "/>
<path fill="none" stroke="#ccffd8" d="M977.186,-144C983.186,-144 989.186,-150 989.186,-156"/>
<polyline fill="none" stroke="#ccffd8" points="989.186,-156 989.186,-168 "/>
<path fill="none" stroke="#ccffd8" d="M989.186,-168C989.186,-174 983.186,-180 977.186,-180"/>
<text text-anchor="middle" x="950" y="-156.4" font-family="Helvetica,sans-Serif" font-size="14.00">Increment</text>
</g>
<!-- spatialResourcesnextLearnerID&#45;&gt;incrementNextLearnerID -->
<g id="edge42" class="edge"><title>spatialResourcesnextLearnerID&#45;&gt;incrementNextLearnerID:nw</title>
<path fill="none" stroke="black" stroke-width="2" stroke-dasharray="1,5" d="M928.221,-108.147C921.635,-118.067 914.284,-131.107 910.876,-144 906.787,-159.469 899.833,-168.422 910.876,-180 915.234,-184.57 920.272,-186.45 925.124,-185.177"/>
<ellipse fill="black" stroke="black" cx="928.581" cy="-183.077" rx="4.00002" ry="4.00002"/>
</g>
<!-- learnerlearnerID -->
<g id="node34" class="node"><title>learnerlearnerID</title>
<polygon fill="white" stroke="white" points="893.108,-180 810.892,-180 810.892,-144 893.108,-144 893.108,-180"/>
<text text-anchor="middle" x="852" y="-156.4" font-family="Helvetica,sans-Serif" font-size="14.00">Learner ID</text>
</g>
<!-- initializeState -->
<g id="node35" class="node"><title>initializeState</title>
<a xlink:href="learner_initializeState.svg" xlink:title="Initialize State">
<polygon fill="#ccffd8" stroke="#ccffd8" points="779.368,-324 700.632,-324 688.632,-312 688.632,-300 700.632,-288 779.368,-288 791.368,-300 791.368,-312 779.368,-324"/>
<path fill="#ccffd8" stroke="#ccffd8" d="M700.632,-324C694.632,-324 688.632,-318 688.632,-312"/>
<path fill="#ccffd8" stroke="#ccffd8" d="M688.632,-300C688.632,-294 694.632,-288 700.632,-288"/>
<path fill="#ccffd8" stroke="#ccffd8" d="M779.368,-288C785.368,-288 791.368,-294 791.368,-300"/>
<path fill="#ccffd8" stroke="#ccffd8" d="M791.368,-312C791.368,-318 785.368,-324 779.368,-324"/>
<polyline fill="none" stroke="black" points="779.368,-324 700.632,-324 "/>
<path fill="none" stroke="black" d="M700.632,-324C694.632,-324 688.632,-318 688.632,-312"/>
<polyline fill="none" stroke="black" points="688.632,-312 688.632,-300 "/>
<path fill="none" stroke="black" d="M688.632,-300C688.632,-294 694.632,-288 700.632,-288"/>
<polyline fill="none" stroke="black" points="700.632,-288 779.368,-288 "/>
<path fill="none" stroke="black" d="M779.368,-288C785.368,-288 791.368,-294 791.368,-300"/>
<polyline fill="none" stroke="black" points="791.368,-300 791.368,-312 "/>
<path fill="none" stroke="black" d="M791.368,-312C791.368,-318 785.368,-324 779.368,-324"/>
<text text-anchor="middle" x="740" y="-300.4" font-family="Helvetica,sans-Serif" font-size="14.00">Initialize State</text>
</a>
</g>
<!-- initialInterest -->
<g id="node37" class="node"><title>initialInterest</title>
<polygon fill="#ccffd8" stroke="#ccffd8" points="772.446,-252 697.554,-252 685.554,-240 685.554,-228 697.554,-216 772.446,-216 784.446,-228 784.446,-240 772.446,-252"/>
<path fill="#ccffd8" stroke="#ccffd8" d="M697.554,-252C691.554,-252 685.554,-246 685.554,-240"/>
<path fill="#ccffd8" stroke="#ccffd8" d="M685.554,-228C685.554,-222 691.554,-216 697.554,-216"/>
<path fill="#ccffd8" stroke="#ccffd8" d="M772.446,-216C778.446,-216 784.446,-222 784.446,-228"/>
<path fill="#ccffd8" stroke="#ccffd8" d="M784.446,-240C784.446,-246 778.446,-252 772.446,-252"/>
<polyline fill="none" stroke="#ccffd8" points="772.446,-252 697.554,-252 "/>
<path fill="none" stroke="#ccffd8" d="M697.554,-252C691.554,-252 685.554,-246 685.554,-240"/>
<polyline fill="none" stroke="#ccffd8" points="685.554,-240 685.554,-228 "/>
<path fill="none" stroke="#ccffd8" d="M685.554,-228C685.554,-222 691.554,-216 697.554,-216"/>
<polyline fill="none" stroke="#ccffd8" points="697.554,-216 772.446,-216 "/>
<path fill="none" stroke="#ccffd8" d="M772.446,-216C778.446,-216 784.446,-222 784.446,-228"/>
<polyline fill="none" stroke="#ccffd8" points="784.446,-228 784.446,-240 "/>
<path fill="none" stroke="#ccffd8" d="M784.446,-240C784.446,-246 778.446,-252 772.446,-252"/>
<text text-anchor="middle" x="735" y="-228.4" font-family="Helvetica,sans-Serif" font-size="14.00">Initial Interest</text>
</g>
<!-- initializeState&#45;&gt;initialInterest -->
<g id="edge30" class="edge"><title>initializeState&#45;&gt;initialInterest</title>
<path fill="none" stroke="#14cc42" stroke-width="3" d="M738.764,-287.697C738.425,-282.95 738.044,-277.613 737.658,-272.206"/>
<polygon fill="#14cc42" stroke="#14cc42" points="744.629,-271.555 736.222,-252.104 730.665,-272.552 744.629,-271.555"/>
</g>
<!-- setLearnerIDToNextLearnerID -->
<g id="node39" class="node"><title>setLearnerIDToNextLearnerID</title>
<polygon fill="#ccffd8" stroke="#ccffd8" points="867,-252 837,-252 825,-240 825,-228 837,-216 867,-216 879,-228 879,-240 867,-252"/>
<path fill="#ccffd8" stroke="#ccffd8" d="M837,-252C831,-252 825,-246 825,-240"/>
<path fill="#ccffd8" stroke="#ccffd8" d="M825,-228C825,-222 831,-216 837,-216"/>
<path fill="#ccffd8" stroke="#ccffd8" d="M867,-216C873,-216 879,-222 879,-228"/>
<path fill="#ccffd8" stroke="#ccffd8" d="M879,-240C879,-246 873,-252 867,-252"/>
<polyline fill="none" stroke="#ccffd8" points="867,-252 837,-252 "/>
<path fill="none" stroke="#ccffd8" d="M837,-252C831,-252 825,-246 825,-240"/>
<polyline fill="none" stroke="#ccffd8" points="825,-240 825,-228 "/>
<path fill="none" stroke="#ccffd8" d="M825,-228C825,-222 831,-216 837,-216"/>
<polyline fill="none" stroke="#ccffd8" points="837,-216 867,-216 "/>
<path fill="none" stroke="#ccffd8" d="M867,-216C873,-216 879,-222 879,-228"/>
<polyline fill="none" stroke="#ccffd8" points="879,-228 879,-240 "/>
<path fill="none" stroke="#ccffd8" d="M879,-240C879,-246 873,-252 867,-252"/>
<text text-anchor="middle" x="852" y="-228.4" font-family="Helvetica,sans-Serif" font-size="14.00">Set</text>
</g>
<!-- initializeState&#45;&gt;setLearnerIDToNextLearnerID -->
<g id="edge32" class="edge"><title>initializeState&#45;&gt;setLearnerIDToNextLearnerID</title>
<path fill="none" stroke="#14cc42" stroke-width="3" d="M767.398,-287.876C779.556,-280.277 794.172,-271.142 807.81,-262.619"/>
<polygon fill="#14cc42" stroke="#14cc42" points="811.635,-268.483 824.885,-251.947 804.215,-256.611 811.635,-268.483"/>
</g>
<!-- initialInterest&#45;&gt;learnerlearningInterest -->
<g id="edge40" class="edge"><title>initialInterest&#45;&gt;learnerlearningInterest</title>
<path fill="none" stroke="#14cc42" stroke-width="3" d="M734.258,-215.697C734.055,-210.95 733.826,-205.613 733.595,-200.206"/>
<polygon fill="#14cc42" stroke="#14cc42" points="740.583,-199.786 732.733,-180.104 726.596,-200.386 740.583,-199.786"/>
</g>
<!-- setLearnerIDToNextLearnerID&#45;&gt;learnerlearnerID -->
<g id="edge34" class="edge"><title>setLearnerIDToNextLearnerID&#45;&gt;learnerlearnerID</title>
<path fill="none" stroke="#14cc42" stroke-width="3" d="M852,-215.697C852,-210.95 852,-205.613 852,-200.206"/>
<polygon fill="#14cc42" stroke="#14cc42" points="859,-200.104 852,-180.104 845,-200.104 859,-200.104"/>
</g>
<!-- setLearnerIDToNextLearnerID&#45;&gt;incrementNextLearnerID -->
<g id="edge38" class="edge"><title>setLearnerIDToNextLearnerID&#45;&gt;incrementNextLearnerID</title>
<path fill="none" stroke="#14cc42" stroke-width="3" d="M875.973,-215.876C886.058,-208.673 898.076,-200.088 909.465,-191.954"/>
<polygon fill="#14cc42" stroke="#14cc42" points="913.728,-197.511 925.934,-180.19 905.591,-186.118 913.728,-197.511"/>
</g>
<!-- incrementNextLearnerID&#45;&gt;spatialResourcesnextLearnerID -->
<g id="edge36" class="edge"><title>incrementNextLearnerID&#45;&gt;spatialResourcesnextLearnerID</title>
<path fill="none" stroke="#14cc42" stroke-width="3" d="M947.775,-143.697C947.165,-138.95 946.479,-133.613 945.784,-128.206"/>
<polygon fill="#14cc42" stroke="#14cc42" points="952.693,-127.048 943.199,-108.104 938.807,-128.834 952.693,-127.048"/>
</g>
<!-- importabcsetLearnerIDToNextLearnerIDspatialResourcesnextLearnerID -->
<g id="node46" class="node"><title>importabcsetLearnerIDToNextLearnerIDspatialResourcesnextLearnerID</title>
<text text-anchor="middle" x="870" y="-300.4" font-family="Helvetica,sans-Serif" font-size="14.00">Next Learner ID</text>
</g>
<!-- importabcsetLearnerIDToNextLearnerIDspatialResourcesnextLearnerID&#45;&gt;setLearnerIDToNextLearnerID -->
<g id="edge44" class="edge"><title>importabcsetLearnerIDToNextLearnerIDspatialResourcesnextLearnerID&#45;&gt;setLearnerIDToNextLearnerID:ne</title>
<path fill="none" stroke="black" stroke-width="2" stroke-dasharray="1,5" d="M875.611,-287.826C877.677,-278.67 878.65,-267.513 874.633,-258.727"/>
<ellipse fill="black" stroke="black" cx="872.269" cy="-255.294" rx="4.00002" ry="4.00002"/>
</g>
</g>
</svg>
