<?xml version="1.0" encoding="UTF-8" standalone="no"?>
<!DOCTYPE svg PUBLIC "-//W3C//DTD SVG 1.1//EN"
 "http://www.w3.org/Graphics/SVG/1.1/DTD/svg11.dtd">
<!-- Generated by graphviz version 2.29.20110702.0445 (20110702.0445)
 -->
<!-- Title: resourceInteraction Pages: 1 -->
<svg width="134pt" height="44pt"
 viewBox="0.00 0.00 134.00 44.00" xmlns="http://www.w3.org/2000/svg" xmlns:xlink="http://www.w3.org/1999/xlink">
<g id="graph1" class="graph" transform="scale(1 1) rotate(0) translate(4 40)">
<title>resourceInteraction</title>
<polygon fill="white" stroke="white" points="-4,5 -4,-40 131,-40 131,5 -4,5"/>
<!-- iteration -->
<g id="node1" class="node"><title>iteration</title>
<polygon fill="lightgray" stroke="lightgray" points="42,-36 12,-36 0,-24 0,-12 12,-0 42,-0 54,-12 54,-24 42,-36"/>
<path fill="lightgray" stroke="lightgray" d="M12,-36C6,-36 0,-30 0,-24"/>
<path fill="lightgray" stroke="lightgray" d="M0,-12C0,-6 6,-0 12,-0"/>
<path fill="lightgray" stroke="lightgray" d="M42,-0C48,-0 54,-6 54,-12"/>
<path fill="lightgray" stroke="lightgray" d="M54,-24C54,-30 48,-36 42,-36"/>
<polyline fill="none" stroke="black" points="42,-36 12,-36 "/>
<path fill="none" stroke="black" d="M12,-36C6,-36 0,-30 0,-24"/>
<polyline fill="none" stroke="black" points="0,-24 0,-12 "/>
<path fill="none" stroke="black" d="M0,-12C0,-6 6,-0 12,-0"/>
<polyline fill="none" stroke="black" points="12,-0 42,-0 "/>
<path fill="none" stroke="black" d="M42,-0C48,-0 54,-6 54,-12"/>
<polyline fill="none" stroke="black" points="54,-12 54,-24 "/>
<path fill="none" stroke="black" d="M54,-24C54,-30 48,-36 42,-36"/>
<text text-anchor="middle" x="27" y="-12.4" font-family="Helvetica,sans-Serif" font-size="14.00">Step</text>
</g>
<!-- start -->
<g id="node2" class="node"><title>start</title>
<polygon fill="lightgray" stroke="lightgray" points="114,-36 84,-36 72,-24 72,-12 84,-0 114,-0 126,-12 126,-24 114,-36"/>
<path fill="lightgray" stroke="lightgray" d="M84,-36C78,-36 72,-30 72,-24"/>
<path fill="lightgray" stroke="lightgray" d="M72,-12C72,-6 78,-0 84,-0"/>
<path fill="lightgray" stroke="lightgray" d="M114,-0C120,-0 126,-6 126,-12"/>
<path fill="lightgray" stroke="lightgray" d="M126,-24C126,-30 120,-36 114,-36"/>
<polyline fill="none" stroke="black" points="114,-36 84,-36 "/>
<path fill="none" stroke="black" d="M84,-36C78,-36 72,-30 72,-24"/>
<polyline fill="none" stroke="black" points="72,-24 72,-12 "/>
<path fill="none" stroke="black" d="M72,-12C72,-6 78,-0 84,-0"/>
<polyline fill="none" stroke="black" points="84,-0 114,-0 "/>
<path fill="none" stroke="black" d="M114,-0C120,-0 126,-6 126,-12"/>
<polyline fill="none" stroke="black" points="126,-12 126,-24 "/>
<path fill="none" stroke="black" d="M126,-24C126,-30 120,-36 114,-36"/>
<text text-anchor="middle" x="99" y="-12.4" font-family="Helvetica,sans-Serif" font-size="14.00">Start</text>
</g>
</g>
</svg>
